<?xml version="1.0" encoding="utf-8" standalone="no"?>
<!DOCTYPE svg PUBLIC "-//W3C//DTD SVG 1.1//EN"
  "http://www.w3.org/Graphics/SVG/1.1/DTD/svg11.dtd">
<!-- Created with matplotlib (https://matplotlib.org/) -->
<svg height="345.6pt" version="1.1" viewBox="0 0 460.8 345.6" width="460.8pt" xmlns="http://www.w3.org/2000/svg" xmlns:xlink="http://www.w3.org/1999/xlink">
 <metadata>
  <rdf:RDF xmlns:cc="http://creativecommons.org/ns#" xmlns:dc="http://purl.org/dc/elements/1.1/" xmlns:rdf="http://www.w3.org/1999/02/22-rdf-syntax-ns#">
   <cc:Work>
    <dc:type rdf:resource="http://purl.org/dc/dcmitype/StillImage"/>
    <dc:date>2020-11-24T13:54:07.774937</dc:date>
    <dc:format>image/svg+xml</dc:format>
    <dc:creator>
     <cc:Agent>
      <dc:title>Matplotlib v3.3.1, https://matplotlib.org/</dc:title>
     </cc:Agent>
    </dc:creator>
   </cc:Work>
  </rdf:RDF>
 </metadata>
 <defs>
  <style type="text/css">*{stroke-linecap:butt;stroke-linejoin:round;}</style>
 </defs>
 <g id="figure_1">
  <g id="patch_1">
   <path d="M 0 345.6 
L 460.8 345.6 
L 460.8 0 
L 0 0 
z
" style="fill:#ffffff;"/>
  </g>
  <g id="axes_1">
   <g id="patch_2">
    <path d="M 57.6 307.584 
L 414.72 307.584 
L 414.72 41.472 
L 57.6 41.472 
z
" style="fill:#ffffff;"/>
   </g>
   <g id="PolyCollection_1">
    <defs>
     <path d="M 73.832727 -64.566575 
L 73.832727 -57.518915 
L 77.112066 -56.1602 
L 80.391405 -54.776032 
L 83.670744 -53.476088 
L 86.950083 -52.339097 
L 90.229421 -51.415936 
L 93.50876 -50.733819 
L 96.788099 -50.301068 
L 100.067438 -50.112 
L 103.346777 -50.151505 
L 106.626116 -50.399016 
L 109.905455 -50.831663 
L 113.184793 -51.426515 
L 116.464132 -52.161958 
L 119.743471 -53.018305 
L 123.02281 -53.977823 
L 126.302149 -55.024371 
L 129.581488 -56.142869 
L 132.860826 -57.318774 
L 136.140165 -58.53769 
L 139.419504 -59.785214 
L 142.698843 -61.047034 
L 145.978182 -62.309258 
L 149.257521 -63.55892 
L 152.53686 -64.784577 
L 155.816198 -65.976904 
L 159.095537 -67.129203 
L 162.374876 -68.237769 
L 165.654215 -69.302053 
L 168.933554 -70.324621 
L 172.212893 -71.310911 
L 175.492231 -72.268814 
L 178.77157 -73.208128 
L 182.050909 -74.139925 
L 185.330248 -75.075878 
L 188.609587 -76.027589 
L 191.888926 -77.005953 
L 195.168264 -78.020575 
L 198.447603 -79.079253 
L 201.726942 -80.187532 
L 205.006281 -81.348336 
L 208.28562 -82.561676 
L 211.564959 -83.824429 
L 214.844298 -85.130202 
L 218.123636 -86.469288 
L 221.402975 -87.828707 
L 224.682314 -89.192368 
L 227.961653 -90.541342 
L 231.240992 -91.854256 
L 234.520331 -93.107821 
L 237.799669 -94.277477 
L 241.079008 -95.338159 
L 244.358347 -96.265152 
L 247.637686 -97.03502 
L 250.917025 -97.626577 
L 254.196364 -98.021858 
L 257.475702 -98.207056 
L 260.755041 -98.173373 
L 264.03438 -97.917766 
L 267.313719 -97.443521 
L 270.593058 -96.760656 
L 273.872397 -95.886107 
L 277.151736 -94.843709 
L 280.431074 -93.663954 
L 283.710413 -92.383552 
L 286.989752 -91.044803 
L 290.269091 -89.694824 
L 293.54843 -88.384639 
L 296.827769 -87.168178 
L 300.107107 -86.101201 
L 303.386446 -85.240154 
L 306.665785 -84.640993 
L 309.945124 -84.357945 
L 313.224463 -84.442236 
L 316.503802 -84.940779 
L 319.78314 -85.894832 
L 323.062479 -87.338665 
L 326.341818 -89.298277 
L 329.621157 -91.790228 
L 332.900496 -94.820673 
L 336.179835 -98.384691 
L 339.459174 -102.465999 
L 342.738512 -107.03712 
L 346.017851 -112.060064 
L 349.29719 -117.487503 
L 352.576529 -123.264402 
L 355.855868 -129.329966 
L 359.135207 -135.619747 
L 362.414545 -142.067676 
L 365.693884 -148.607774 
L 368.973223 -155.175292 
L 372.252562 -161.707059 
L 375.531901 -168.140891 
L 378.81124 -174.413983 
L 382.090579 -180.460348 
L 385.369917 -186.207467 
L 388.649256 -191.572448 
L 391.928595 -196.458069 
L 395.207934 -200.749205 
L 398.487273 -204.310089 
L 398.487273 -211.357748 
L 398.487273 -211.357748 
L 395.207934 -207.223767 
L 391.928595 -202.787415 
L 388.649256 -197.983781 
L 385.369917 -192.784634 
L 382.090579 -187.194608 
L 378.81124 -181.246165 
L 375.531901 -174.993848 
L 372.252562 -168.508314 
L 368.973223 -161.870595 
L 365.693884 -155.166911 
L 362.414545 -148.484292 
L 359.135207 -141.907095 
L 355.855868 -135.514448 
L 352.576529 -129.378526 
L 349.29719 -123.563523 
L 346.017851 -118.125126 
L 342.738512 -113.110339 
L 339.459174 -108.557463 
L 336.179835 -104.496135 
L 332.900496 -100.947342 
L 329.621157 -97.923375 
L 326.341818 -95.427769 
L 323.062479 -93.455243 
L 319.78314 -91.991745 
L 316.503802 -91.014633 
L 313.224463 -90.493092 
L 309.945124 -90.388783 
L 306.665785 -90.656765 
L 303.386446 -91.246656 
L 300.107107 -92.103994 
L 296.827769 -93.171733 
L 293.54843 -94.39181 
L 290.269091 -95.706687 
L 286.989752 -97.060829 
L 283.710413 -98.402022 
L 280.431074 -99.682522 
L 277.151736 -100.859973 
L 273.872397 -101.898107 
L 270.593058 -102.767213 
L 267.313719 -103.444386 
L 264.03438 -103.913575 
L 260.755041 -104.165448 
L 257.475702 -104.197095 
L 254.196364 -104.011594 
L 250.917025 -103.617455 
L 247.637686 -103.027963 
L 244.358347 -102.260441 
L 241.079008 -101.335439 
L 237.799669 -100.275891 
L 234.520331 -99.106234 
L 231.240992 -97.851536 
L 227.961653 -96.536631 
L 224.682314 -95.185312 
L 221.402975 -93.819584 
L 218.123636 -92.459023 
L 214.844298 -91.120241 
L 211.564959 -89.816503 
L 208.28562 -88.557485 
L 205.006281 -87.349201 
L 201.726942 -86.194088 
L 198.447603 -85.091253 
L 195.168264 -84.036839 
L 191.888926 -83.024521 
L 188.609587 -82.046059 
L 185.330248 -81.091903 
L 182.050909 -80.151789 
L 178.77157 -79.215299 
L 175.492231 -78.272369 
L 172.212893 -77.313704 
L 168.933554 -76.331123 
L 165.654215 -75.317825 
L 162.374876 -74.268607 
L 159.095537 -73.180059 
L 155.816198 -72.050758 
L 152.53686 -70.88149 
L 149.257521 -69.675498 
L 145.978182 -68.438749 
L 142.698843 -67.180181 
L 139.419504 -65.911883 
L 136.140165 -64.649134 
L 132.860826 -63.410238 
L 129.581488 -62.216088 
L 126.302149 -61.089433 
L 123.02281 -60.053842 
L 119.743471 -59.13243 
L 116.464132 -58.34644 
L 113.184793 -57.713863 
L 109.905455 -57.24828 
L 106.626116 -56.958154 
L 103.346777 -56.846807 
L 100.067438 -56.913255 
L 96.788099 -57.154025 
L 93.50876 -57.566001 
L 90.229421 -58.150196 
L 86.950083 -58.916264 
L 83.670744 -59.887422 
L 80.391405 -61.105377 
L 77.112066 -62.634763 
L 73.832727 -64.566575 
z
" id="mf2bcf9a300" style="stroke:#0000ff;stroke-opacity:0.2;"/>
    </defs>
    <g clip-path="url(#p1a9a4826c4)">
     <use style="fill:#0000ff;fill-opacity:0.2;stroke:#0000ff;stroke-opacity:0.2;" x="0" xlink:href="#mf2bcf9a300" y="345.6"/>
    </g>
   </g>
   <g id="PolyCollection_2">
    <defs>
     <path d="M 73.832727 -177.89846 
L 73.832727 -148.881707 
L 77.112066 -144.868309 
L 80.391405 -140.356509 
L 83.670744 -135.778373 
L 86.950083 -131.443323 
L 90.229421 -127.55126 
L 93.50876 -124.210055 
L 96.788099 -121.455367 
L 100.067438 -119.27078 
L 103.346777 -117.606611 
L 106.626116 -116.396033 
L 109.905455 -115.567726 
L 113.184793 -115.054692 
L 116.464132 -114.799345 
L 119.743471 -114.755364 
L 123.02281 -114.887031 
L 126.302149 -115.166927 
L 129.581488 -115.572842 
L 132.860826 -116.084687 
L 136.140165 -116.681973 
L 139.419504 -117.342254 
L 142.698843 -118.040654 
L 145.978182 -118.750435 
L 149.257521 -119.444372 
L 152.53686 -120.096631 
L 155.816198 -120.684782 
L 159.095537 -121.191632 
L 162.374876 -121.606611 
L 165.654215 -121.926549 
L 168.933554 -122.15577 
L 172.212893 -122.30555 
L 175.492231 -122.393046 
L 178.77157 -122.439825 
L 182.050909 -122.470206 
L 185.330248 -122.509554 
L 188.609587 -122.582649 
L 191.888926 -122.712258 
L 195.168264 -122.917925 
L 198.447603 -123.215013 
L 201.726942 -123.613956 
L 205.006281 -124.119719 
L 208.28562 -124.731398 
L 211.564959 -125.44194 
L 214.844298 -126.237983 
L 218.123636 -127.099791 
L 221.402975 -128.001329 
L 224.682314 -128.910491 
L 227.961653 -129.789539 
L 231.240992 -130.59577 
L 234.520331 -131.282449 
L 237.799669 -131.800035 
L 241.079008 -132.097667 
L 244.358347 -132.124906 
L 247.637686 -131.833676 
L 250.917025 -131.180324 
L 254.196364 -130.127726 
L 257.475702 -128.647319 
L 260.755041 -126.720958 
L 264.03438 -124.342499 
L 267.313719 -121.519003 
L 270.593058 -118.271513 
L 273.872397 -114.63532 
L 277.151736 -110.659757 
L 280.431074 -106.407512 
L 283.710413 -101.953531 
L 286.989752 -97.383592 
L 290.269091 -92.792638 
L 293.54843 -88.282964 
L 296.827769 -83.962324 
L 300.107107 -79.941998 
L 303.386446 -76.33484 
L 306.665785 -73.253246 
L 309.945124 -70.807002 
L 313.224463 -69.100936 
L 316.503802 -68.232293 
L 319.78314 -68.287842 
L 323.062479 -69.340722 
L 326.341818 -71.447197 
L 329.621157 -74.643482 
L 332.900496 -78.942984 
L 336.179835 -84.334268 
L 339.459174 -90.780126 
L 342.738512 -98.21803 
L 346.017851 -106.562171 
L 349.29719 -115.707097 
L 352.576529 -125.532746 
L 355.855868 -135.910429 
L 359.135207 -146.709109 
L 362.414545 -157.801103 
L 365.693884 -169.066261 
L 368.973223 -180.393672 
L 372.252562 -191.680068 
L 375.531901 -202.824365 
L 378.81124 -213.718155 
L 382.090579 -224.232423 
L 385.369917 -234.201255 
L 388.649256 -243.403797 
L 391.928595 -251.546115 
L 395.207934 -258.244932 
L 398.487273 -263.015247 
L 398.487273 -292.032 
L 398.487273 -292.032 
L 395.207934 -284.902118 
L 391.928595 -277.605411 
L 388.649256 -269.800654 
L 385.369917 -261.280885 
L 382.090579 -251.958842 
L 378.81124 -241.847739 
L 375.531901 -231.039481 
L 372.252562 -219.682318 
L 368.973223 -207.959694 
L 365.693884 -196.071661 
L 362.414545 -184.219715 
L 359.135207 -172.595495 
L 355.855868 -161.373291 
L 352.576529 -150.70593 
L 349.29719 -140.723395 
L 346.017851 -131.533356 
L 342.738512 -123.222796 
L 339.459174 -115.86001 
L 336.179835 -109.496415 
L 332.900496 -104.167815 
L 329.621157 -99.894986 
L 326.341818 -96.68365 
L 323.062479 -94.524009 
L 319.78314 -93.390162 
L 316.503802 -93.239677 
L 313.224463 -94.01363 
L 309.945124 -95.637278 
L 306.665785 -98.021491 
L 303.386446 -101.064918 
L 300.107107 -104.656807 
L 296.827769 -108.68027 
L 293.54843 -113.015797 
L 290.269091 -117.544791 
L 286.989752 -122.152881 
L 283.710413 -126.732887 
L 280.431074 -131.187269 
L 277.151736 -135.430027 
L 273.872397 -139.388034 
L 270.593058 -143.001817 
L 267.313719 -146.225872 
L 264.03438 -149.028553 
L 260.755041 -151.391638 
L 257.475702 -153.309617 
L 254.196364 -154.788773 
L 250.917025 -155.846074 
L 247.637686 -156.507931 
L 244.358347 -156.808819 
L 241.079008 -156.789777 
L 237.799669 -156.496812 
L 234.520331 -155.979226 
L 231.240992 -155.287879 
L 227.961653 -154.473452 
L 224.682314 -153.584747 
L 221.402975 -152.667079 
L 218.123636 -151.760838 
L 214.844298 -150.900281 
L 211.564959 -150.11262 
L 208.28562 -149.417453 
L 205.006281 -148.826587 
L 201.726942 -148.34426 
L 198.447603 -147.967727 
L 195.168264 -147.688196 
L 191.888926 -147.492015 
L 188.609587 -147.362005 
L 185.330248 -147.278843 
L 182.050909 -147.222358 
L 178.77157 -147.172658 
L 175.492231 -147.110992 
L 172.212893 -147.020359 
L 168.933554 -146.885848 
L 165.654215 -146.694794 
L 162.374876 -146.436887 
L 159.095537 -146.104327 
L 155.816198 -145.692165 
L 152.53686 -145.198952 
L 149.257521 -144.627659 
L 145.978182 -143.986887 
L 142.698843 -143.292158 
L 139.419504 -142.567086 
L 136.140165 -141.844121 
L 132.860826 -141.164571 
L 129.581488 -140.577608 
L 126.302149 -140.138112 
L 123.02281 -139.903329 
L 119.743471 -139.928548 
L 116.464132 -140.262207 
L 113.184793 -140.941077 
L 109.905455 -141.986337 
L 106.626116 -143.401434 
L 103.346777 -145.172634 
L 100.067438 -147.273029 
L 96.788099 -149.670484 
L 93.50876 -152.33964 
L 90.229421 -155.277679 
L 86.950083 -158.522953 
L 83.670744 -162.175231 
L 80.391405 -166.415806 
L 77.112066 -171.525495 
L 73.832727 -177.89846 
z
" id="ma98ae30d50" style="stroke:#ffa500;stroke-opacity:0.2;"/>
    </defs>
    <g clip-path="url(#p1a9a4826c4)">
     <use style="fill:#ffa500;fill-opacity:0.2;stroke:#ffa500;stroke-opacity:0.2;" x="0" xlink:href="#ma98ae30d50" y="345.6"/>
    </g>
   </g>
   <g id="PathCollection_1">
    <defs>
     <path d="M 0 3 
C 0.795609 3 1.55874 2.683901 2.12132 2.12132 
C 2.683901 1.55874 3 0.795609 3 0 
C 3 -0.795609 2.683901 -1.55874 2.12132 -2.12132 
C 1.55874 -2.683901 0.795609 -3 0 -3 
C -0.795609 -3 -1.55874 -2.683901 -2.12132 -2.12132 
C -2.683901 -1.55874 -3 -0.795609 -3 0 
C -3 0.795609 -2.683901 1.55874 -2.12132 2.12132 
C -1.55874 2.683901 -0.795609 3 0 3 
z
" id="m87facf232d" style="stroke:#0000ff;"/>
    </defs>
    <g clip-path="url(#p1a9a4826c4)">
     <use style="fill:#0000ff;stroke:#0000ff;" x="73.832727" xlink:href="#m87facf232d" y="284.585711"/>
     <use style="fill:#0000ff;stroke:#0000ff;" x="106.298182" xlink:href="#m87facf232d" y="292.121503"/>
     <use style="fill:#0000ff;stroke:#0000ff;" x="138.763636" xlink:href="#m87facf232d" y="283.095087"/>
     <use style="fill:#0000ff;stroke:#0000ff;" x="171.229091" xlink:href="#m87facf232d" y="271.350694"/>
     <use style="fill:#0000ff;stroke:#0000ff;" x="203.694545" xlink:href="#m87facf232d" y="261.81629"/>
     <use style="fill:#0000ff;stroke:#0000ff;" x="236.16" xlink:href="#m87facf232d" y="249.309406"/>
     <use style="fill:#0000ff;stroke:#0000ff;" x="268.625455" xlink:href="#m87facf232d" y="245.096773"/>
     <use style="fill:#0000ff;stroke:#0000ff;" x="301.090909" xlink:href="#m87facf232d" y="256.090023"/>
     <use style="fill:#0000ff;stroke:#0000ff;" x="333.556364" xlink:href="#m87facf232d" y="248.675799"/>
     <use style="fill:#0000ff;stroke:#0000ff;" x="366.021818" xlink:href="#m87facf232d" y="192.011096"/>
     <use style="fill:#0000ff;stroke:#0000ff;" x="398.487273" xlink:href="#m87facf232d" y="137.77793"/>
    </g>
   </g>
   <g id="PathCollection_2">
    <defs>
     <path d="M 0 3 
C 0.795609 3 1.55874 2.683901 2.12132 2.12132 
C 2.683901 1.55874 3 0.795609 3 0 
C 3 -0.795609 2.683901 -1.55874 2.12132 -2.12132 
C 1.55874 -2.683901 0.795609 -3 0 -3 
C -0.795609 -3 -1.55874 -2.683901 -2.12132 -2.12132 
C -2.683901 -1.55874 -3 -0.795609 -3 0 
C -3 0.795609 -2.683901 1.55874 -2.12132 2.12132 
C -1.55874 2.683901 -0.795609 3 0 3 
z
" id="m834436a0b5" style="stroke:#ffa500;"/>
    </defs>
    <g clip-path="url(#p1a9a4826c4)">
     <use style="fill:#ffa500;stroke:#ffa500;" x="73.832727" xlink:href="#m834436a0b5" y="182.870018"/>
     <use style="fill:#ffa500;stroke:#ffa500;" x="203.694545" xlink:href="#m834436a0b5" y="208.939222"/>
     <use style="fill:#ffa500;stroke:#ffa500;" x="268.625455" xlink:href="#m834436a0b5" y="211.30421"/>
     <use style="fill:#ffa500;stroke:#ffa500;" x="333.556364" xlink:href="#m834436a0b5" y="254.266286"/>
     <use style="fill:#ffa500;stroke:#ffa500;" x="398.487273" xlink:href="#m834436a0b5" y="68.27457"/>
    </g>
   </g>
   <g id="matplotlib.axis_1">
    <g id="xtick_1">
     <g id="line2d_1">
      <path clip-path="url(#p1a9a4826c4)" d="M 73.832727 307.584 
L 73.832727 41.472 
" style="fill:none;stroke:#b0b0b0;stroke-linecap:square;stroke-width:0.8;"/>
     </g>
     <g id="line2d_2">
      <defs>
       <path d="M 0 0 
L 0 3.5 
" id="m765e85daad" style="stroke:#000000;stroke-width:0.8;"/>
      </defs>
      <g>
       <use style="stroke:#000000;stroke-width:0.8;" x="73.832727" xlink:href="#m765e85daad" y="307.584"/>
      </g>
     </g>
     <g id="text_1">
      <!-- 0.0 -->
      <g transform="translate(65.881165 322.182437)scale(0.1 -0.1)">
       <defs>
        <path d="M 31.78125 66.40625 
Q 24.171875 66.40625 20.328125 58.90625 
Q 16.5 51.421875 16.5 36.375 
Q 16.5 21.390625 20.328125 13.890625 
Q 24.171875 6.390625 31.78125 6.390625 
Q 39.453125 6.390625 43.28125 13.890625 
Q 47.125 21.390625 47.125 36.375 
Q 47.125 51.421875 43.28125 58.90625 
Q 39.453125 66.40625 31.78125 66.40625 
z
M 31.78125 74.21875 
Q 44.046875 74.21875 50.515625 64.515625 
Q 56.984375 54.828125 56.984375 36.375 
Q 56.984375 17.96875 50.515625 8.265625 
Q 44.046875 -1.421875 31.78125 -1.421875 
Q 19.53125 -1.421875 13.0625 8.265625 
Q 6.59375 17.96875 6.59375 36.375 
Q 6.59375 54.828125 13.0625 64.515625 
Q 19.53125 74.21875 31.78125 74.21875 
z
" id="DejaVuSans-48"/>
        <path d="M 10.6875 12.40625 
L 21 12.40625 
L 21 0 
L 10.6875 0 
z
" id="DejaVuSans-46"/>
       </defs>
       <use xlink:href="#DejaVuSans-48"/>
       <use x="63.623047" xlink:href="#DejaVuSans-46"/>
       <use x="95.410156" xlink:href="#DejaVuSans-48"/>
      </g>
     </g>
    </g>
    <g id="xtick_2">
     <g id="line2d_3">
      <path clip-path="url(#p1a9a4826c4)" d="M 138.763636 307.584 
L 138.763636 41.472 
" style="fill:none;stroke:#b0b0b0;stroke-linecap:square;stroke-width:0.8;"/>
     </g>
     <g id="line2d_4">
      <g>
       <use style="stroke:#000000;stroke-width:0.8;" x="138.763636" xlink:href="#m765e85daad" y="307.584"/>
      </g>
     </g>
     <g id="text_2">
      <!-- 0.2 -->
      <g transform="translate(130.812074 322.182437)scale(0.1 -0.1)">
       <defs>
        <path d="M 19.1875 8.296875 
L 53.609375 8.296875 
L 53.609375 0 
L 7.328125 0 
L 7.328125 8.296875 
Q 12.9375 14.109375 22.625 23.890625 
Q 32.328125 33.6875 34.8125 36.53125 
Q 39.546875 41.84375 41.421875 45.53125 
Q 43.3125 49.21875 43.3125 52.78125 
Q 43.3125 58.59375 39.234375 62.25 
Q 35.15625 65.921875 28.609375 65.921875 
Q 23.96875 65.921875 18.8125 64.3125 
Q 13.671875 62.703125 7.8125 59.421875 
L 7.8125 69.390625 
Q 13.765625 71.78125 18.9375 73 
Q 24.125 74.21875 28.421875 74.21875 
Q 39.75 74.21875 46.484375 68.546875 
Q 53.21875 62.890625 53.21875 53.421875 
Q 53.21875 48.921875 51.53125 44.890625 
Q 49.859375 40.875 45.40625 35.40625 
Q 44.1875 33.984375 37.640625 27.21875 
Q 31.109375 20.453125 19.1875 8.296875 
z
" id="DejaVuSans-50"/>
       </defs>
       <use xlink:href="#DejaVuSans-48"/>
       <use x="63.623047" xlink:href="#DejaVuSans-46"/>
       <use x="95.410156" xlink:href="#DejaVuSans-50"/>
      </g>
     </g>
    </g>
    <g id="xtick_3">
     <g id="line2d_5">
      <path clip-path="url(#p1a9a4826c4)" d="M 203.694545 307.584 
L 203.694545 41.472 
" style="fill:none;stroke:#b0b0b0;stroke-linecap:square;stroke-width:0.8;"/>
     </g>
     <g id="line2d_6">
      <g>
       <use style="stroke:#000000;stroke-width:0.8;" x="203.694545" xlink:href="#m765e85daad" y="307.584"/>
      </g>
     </g>
     <g id="text_3">
      <!-- 0.4 -->
      <g transform="translate(195.742983 322.182437)scale(0.1 -0.1)">
       <defs>
        <path d="M 37.796875 64.3125 
L 12.890625 25.390625 
L 37.796875 25.390625 
z
M 35.203125 72.90625 
L 47.609375 72.90625 
L 47.609375 25.390625 
L 58.015625 25.390625 
L 58.015625 17.1875 
L 47.609375 17.1875 
L 47.609375 0 
L 37.796875 0 
L 37.796875 17.1875 
L 4.890625 17.1875 
L 4.890625 26.703125 
z
" id="DejaVuSans-52"/>
       </defs>
       <use xlink:href="#DejaVuSans-48"/>
       <use x="63.623047" xlink:href="#DejaVuSans-46"/>
       <use x="95.410156" xlink:href="#DejaVuSans-52"/>
      </g>
     </g>
    </g>
    <g id="xtick_4">
     <g id="line2d_7">
      <path clip-path="url(#p1a9a4826c4)" d="M 268.625455 307.584 
L 268.625455 41.472 
" style="fill:none;stroke:#b0b0b0;stroke-linecap:square;stroke-width:0.8;"/>
     </g>
     <g id="line2d_8">
      <g>
       <use style="stroke:#000000;stroke-width:0.8;" x="268.625455" xlink:href="#m765e85daad" y="307.584"/>
      </g>
     </g>
     <g id="text_4">
      <!-- 0.6 -->
      <g transform="translate(260.673892 322.182437)scale(0.1 -0.1)">
       <defs>
        <path d="M 33.015625 40.375 
Q 26.375 40.375 22.484375 35.828125 
Q 18.609375 31.296875 18.609375 23.390625 
Q 18.609375 15.53125 22.484375 10.953125 
Q 26.375 6.390625 33.015625 6.390625 
Q 39.65625 6.390625 43.53125 10.953125 
Q 47.40625 15.53125 47.40625 23.390625 
Q 47.40625 31.296875 43.53125 35.828125 
Q 39.65625 40.375 33.015625 40.375 
z
M 52.59375 71.296875 
L 52.59375 62.3125 
Q 48.875 64.0625 45.09375 64.984375 
Q 41.3125 65.921875 37.59375 65.921875 
Q 27.828125 65.921875 22.671875 59.328125 
Q 17.53125 52.734375 16.796875 39.40625 
Q 19.671875 43.65625 24.015625 45.921875 
Q 28.375 48.1875 33.59375 48.1875 
Q 44.578125 48.1875 50.953125 41.515625 
Q 57.328125 34.859375 57.328125 23.390625 
Q 57.328125 12.15625 50.6875 5.359375 
Q 44.046875 -1.421875 33.015625 -1.421875 
Q 20.359375 -1.421875 13.671875 8.265625 
Q 6.984375 17.96875 6.984375 36.375 
Q 6.984375 53.65625 15.1875 63.9375 
Q 23.390625 74.21875 37.203125 74.21875 
Q 40.921875 74.21875 44.703125 73.484375 
Q 48.484375 72.75 52.59375 71.296875 
z
" id="DejaVuSans-54"/>
       </defs>
       <use xlink:href="#DejaVuSans-48"/>
       <use x="63.623047" xlink:href="#DejaVuSans-46"/>
       <use x="95.410156" xlink:href="#DejaVuSans-54"/>
      </g>
     </g>
    </g>
    <g id="xtick_5">
     <g id="line2d_9">
      <path clip-path="url(#p1a9a4826c4)" d="M 333.556364 307.584 
L 333.556364 41.472 
" style="fill:none;stroke:#b0b0b0;stroke-linecap:square;stroke-width:0.8;"/>
     </g>
     <g id="line2d_10">
      <g>
       <use style="stroke:#000000;stroke-width:0.8;" x="333.556364" xlink:href="#m765e85daad" y="307.584"/>
      </g>
     </g>
     <g id="text_5">
      <!-- 0.8 -->
      <g transform="translate(325.604801 322.182437)scale(0.1 -0.1)">
       <defs>
        <path d="M 31.78125 34.625 
Q 24.75 34.625 20.71875 30.859375 
Q 16.703125 27.09375 16.703125 20.515625 
Q 16.703125 13.921875 20.71875 10.15625 
Q 24.75 6.390625 31.78125 6.390625 
Q 38.8125 6.390625 42.859375 10.171875 
Q 46.921875 13.96875 46.921875 20.515625 
Q 46.921875 27.09375 42.890625 30.859375 
Q 38.875 34.625 31.78125 34.625 
z
M 21.921875 38.8125 
Q 15.578125 40.375 12.03125 44.71875 
Q 8.5 49.078125 8.5 55.328125 
Q 8.5 64.0625 14.71875 69.140625 
Q 20.953125 74.21875 31.78125 74.21875 
Q 42.671875 74.21875 48.875 69.140625 
Q 55.078125 64.0625 55.078125 55.328125 
Q 55.078125 49.078125 51.53125 44.71875 
Q 48 40.375 41.703125 38.8125 
Q 48.828125 37.15625 52.796875 32.3125 
Q 56.78125 27.484375 56.78125 20.515625 
Q 56.78125 9.90625 50.3125 4.234375 
Q 43.84375 -1.421875 31.78125 -1.421875 
Q 19.734375 -1.421875 13.25 4.234375 
Q 6.78125 9.90625 6.78125 20.515625 
Q 6.78125 27.484375 10.78125 32.3125 
Q 14.796875 37.15625 21.921875 38.8125 
z
M 18.3125 54.390625 
Q 18.3125 48.734375 21.84375 45.5625 
Q 25.390625 42.390625 31.78125 42.390625 
Q 38.140625 42.390625 41.71875 45.5625 
Q 45.3125 48.734375 45.3125 54.390625 
Q 45.3125 60.0625 41.71875 63.234375 
Q 38.140625 66.40625 31.78125 66.40625 
Q 25.390625 66.40625 21.84375 63.234375 
Q 18.3125 60.0625 18.3125 54.390625 
z
" id="DejaVuSans-56"/>
       </defs>
       <use xlink:href="#DejaVuSans-48"/>
       <use x="63.623047" xlink:href="#DejaVuSans-46"/>
       <use x="95.410156" xlink:href="#DejaVuSans-56"/>
      </g>
     </g>
    </g>
    <g id="xtick_6">
     <g id="line2d_11">
      <path clip-path="url(#p1a9a4826c4)" d="M 398.487273 307.584 
L 398.487273 41.472 
" style="fill:none;stroke:#b0b0b0;stroke-linecap:square;stroke-width:0.8;"/>
     </g>
     <g id="line2d_12">
      <g>
       <use style="stroke:#000000;stroke-width:0.8;" x="398.487273" xlink:href="#m765e85daad" y="307.584"/>
      </g>
     </g>
     <g id="text_6">
      <!-- 1.0 -->
      <g transform="translate(390.53571 322.182437)scale(0.1 -0.1)">
       <defs>
        <path d="M 12.40625 8.296875 
L 28.515625 8.296875 
L 28.515625 63.921875 
L 10.984375 60.40625 
L 10.984375 69.390625 
L 28.421875 72.90625 
L 38.28125 72.90625 
L 38.28125 8.296875 
L 54.390625 8.296875 
L 54.390625 0 
L 12.40625 0 
z
" id="DejaVuSans-49"/>
       </defs>
       <use xlink:href="#DejaVuSans-49"/>
       <use x="63.623047" xlink:href="#DejaVuSans-46"/>
       <use x="95.410156" xlink:href="#DejaVuSans-48"/>
      </g>
     </g>
    </g>
   </g>
   <g id="matplotlib.axis_2">
    <g id="ytick_1">
     <g id="line2d_13">
      <path clip-path="url(#p1a9a4826c4)" d="M 57.6 300.371749 
L 414.72 300.371749 
" style="fill:none;stroke:#b0b0b0;stroke-linecap:square;stroke-width:0.8;"/>
     </g>
     <g id="line2d_14">
      <defs>
       <path d="M 0 0 
L -3.5 0 
" id="m76216374a2" style="stroke:#000000;stroke-width:0.8;"/>
      </defs>
      <g>
       <use style="stroke:#000000;stroke-width:0.8;" x="57.6" xlink:href="#m76216374a2" y="300.371749"/>
      </g>
     </g>
     <g id="text_7">
      <!-- −10 -->
      <g transform="translate(29.495313 304.170968)scale(0.1 -0.1)">
       <defs>
        <path d="M 10.59375 35.5 
L 73.1875 35.5 
L 73.1875 27.203125 
L 10.59375 27.203125 
z
" id="DejaVuSans-8722"/>
       </defs>
       <use xlink:href="#DejaVuSans-8722"/>
       <use x="83.789062" xlink:href="#DejaVuSans-49"/>
       <use x="147.412109" xlink:href="#DejaVuSans-48"/>
      </g>
     </g>
    </g>
    <g id="ytick_2">
     <g id="line2d_15">
      <path clip-path="url(#p1a9a4826c4)" d="M 57.6 255.616721 
L 414.72 255.616721 
" style="fill:none;stroke:#b0b0b0;stroke-linecap:square;stroke-width:0.8;"/>
     </g>
     <g id="line2d_16">
      <g>
       <use style="stroke:#000000;stroke-width:0.8;" x="57.6" xlink:href="#m76216374a2" y="255.616721"/>
      </g>
     </g>
     <g id="text_8">
      <!-- −5 -->
      <g transform="translate(35.857813 259.415939)scale(0.1 -0.1)">
       <defs>
        <path d="M 10.796875 72.90625 
L 49.515625 72.90625 
L 49.515625 64.59375 
L 19.828125 64.59375 
L 19.828125 46.734375 
Q 21.96875 47.46875 24.109375 47.828125 
Q 26.265625 48.1875 28.421875 48.1875 
Q 40.625 48.1875 47.75 41.5 
Q 54.890625 34.8125 54.890625 23.390625 
Q 54.890625 11.625 47.5625 5.09375 
Q 40.234375 -1.421875 26.90625 -1.421875 
Q 22.3125 -1.421875 17.546875 -0.640625 
Q 12.796875 0.140625 7.71875 1.703125 
L 7.71875 11.625 
Q 12.109375 9.234375 16.796875 8.0625 
Q 21.484375 6.890625 26.703125 6.890625 
Q 35.15625 6.890625 40.078125 11.328125 
Q 45.015625 15.765625 45.015625 23.390625 
Q 45.015625 31 40.078125 35.4375 
Q 35.15625 39.890625 26.703125 39.890625 
Q 22.75 39.890625 18.8125 39.015625 
Q 14.890625 38.140625 10.796875 36.28125 
z
" id="DejaVuSans-53"/>
       </defs>
       <use xlink:href="#DejaVuSans-8722"/>
       <use x="83.789062" xlink:href="#DejaVuSans-53"/>
      </g>
     </g>
    </g>
    <g id="ytick_3">
     <g id="line2d_17">
      <path clip-path="url(#p1a9a4826c4)" d="M 57.6 210.861692 
L 414.72 210.861692 
" style="fill:none;stroke:#b0b0b0;stroke-linecap:square;stroke-width:0.8;"/>
     </g>
     <g id="line2d_18">
      <g>
       <use style="stroke:#000000;stroke-width:0.8;" x="57.6" xlink:href="#m76216374a2" y="210.861692"/>
      </g>
     </g>
     <g id="text_9">
      <!-- 0 -->
      <g transform="translate(44.2375 214.660911)scale(0.1 -0.1)">
       <use xlink:href="#DejaVuSans-48"/>
      </g>
     </g>
    </g>
    <g id="ytick_4">
     <g id="line2d_19">
      <path clip-path="url(#p1a9a4826c4)" d="M 57.6 166.106663 
L 414.72 166.106663 
" style="fill:none;stroke:#b0b0b0;stroke-linecap:square;stroke-width:0.8;"/>
     </g>
     <g id="line2d_20">
      <g>
       <use style="stroke:#000000;stroke-width:0.8;" x="57.6" xlink:href="#m76216374a2" y="166.106663"/>
      </g>
     </g>
     <g id="text_10">
      <!-- 5 -->
      <g transform="translate(44.2375 169.905882)scale(0.1 -0.1)">
       <use xlink:href="#DejaVuSans-53"/>
      </g>
     </g>
    </g>
    <g id="ytick_5">
     <g id="line2d_21">
      <path clip-path="url(#p1a9a4826c4)" d="M 57.6 121.351635 
L 414.72 121.351635 
" style="fill:none;stroke:#b0b0b0;stroke-linecap:square;stroke-width:0.8;"/>
     </g>
     <g id="line2d_22">
      <g>
       <use style="stroke:#000000;stroke-width:0.8;" x="57.6" xlink:href="#m76216374a2" y="121.351635"/>
      </g>
     </g>
     <g id="text_11">
      <!-- 10 -->
      <g transform="translate(37.875 125.150854)scale(0.1 -0.1)">
       <use xlink:href="#DejaVuSans-49"/>
       <use x="63.623047" xlink:href="#DejaVuSans-48"/>
      </g>
     </g>
    </g>
    <g id="ytick_6">
     <g id="line2d_23">
      <path clip-path="url(#p1a9a4826c4)" d="M 57.6 76.596606 
L 414.72 76.596606 
" style="fill:none;stroke:#b0b0b0;stroke-linecap:square;stroke-width:0.8;"/>
     </g>
     <g id="line2d_24">
      <g>
       <use style="stroke:#000000;stroke-width:0.8;" x="57.6" xlink:href="#m76216374a2" y="76.596606"/>
      </g>
     </g>
     <g id="text_12">
      <!-- 15 -->
      <g transform="translate(37.875 80.395825)scale(0.1 -0.1)">
       <use xlink:href="#DejaVuSans-49"/>
       <use x="63.623047" xlink:href="#DejaVuSans-53"/>
      </g>
     </g>
    </g>
   </g>
   <g id="line2d_25">
    <path clip-path="url(#p1a9a4826c4)" d="M 73.832727 284.557255 
L 77.112066 286.202518 
L 80.391405 287.659295 
L 83.670744 288.918245 
L 86.950083 289.97232 
L 90.229421 290.816934 
L 93.50876 291.45009 
L 96.788099 291.872453 
L 100.067438 292.087373 
L 103.346777 292.100844 
L 106.626116 291.921415 
L 109.905455 291.560028 
L 113.184793 291.029811 
L 116.464132 290.345801 
L 119.743471 289.524633 
L 123.02281 288.584167 
L 126.302149 287.543098 
L 129.581488 286.420521 
L 132.860826 285.235494 
L 136.140165 284.006588 
L 139.419504 282.751451 
L 142.698843 281.486392 
L 145.978182 280.225997 
L 149.257521 278.982791 
L 152.53686 277.766966 
L 155.816198 276.586169 
L 159.095537 275.445369 
L 162.374876 274.346812 
L 165.654215 273.290061 
L 168.933554 272.272128 
L 172.212893 271.287693 
L 175.492231 270.329409 
L 178.77157 269.388287 
L 182.050909 268.454143 
L 185.330248 267.516109 
L 188.609587 266.563176 
L 191.888926 265.584763 
L 195.168264 264.571293 
L 198.447603 263.514747 
L 201.726942 262.40919 
L 205.006281 261.251232 
L 208.28562 260.040419 
L 211.564959 258.779534 
L 214.844298 257.474778 
L 218.123636 256.135845 
L 221.402975 254.775855 
L 224.682314 253.41116 
L 227.961653 252.061013 
L 231.240992 250.747104 
L 234.520331 249.492972 
L 237.799669 248.323316 
L 241.079008 247.263201 
L 244.358347 246.337204 
L 247.637686 245.568508 
L 250.917025 244.977984 
L 254.196364 244.583274 
L 257.475702 244.397925 
L 260.755041 244.430589 
L 264.03438 244.684329 
L 267.313719 245.156046 
L 270.593058 245.836066 
L 273.872397 246.707893 
L 277.151736 247.748159 
L 280.431074 248.926762 
L 283.710413 250.207213 
L 286.989752 251.547184 
L 290.269091 252.899245 
L 293.54843 254.211776 
L 296.827769 255.430044 
L 300.107107 256.497403 
L 303.386446 257.356595 
L 306.665785 257.951121 
L 309.945124 258.226636 
L 313.224463 258.132336 
L 316.503802 257.622294 
L 319.78314 256.656712 
L 323.062479 255.203046 
L 326.341818 253.236977 
L 329.621157 250.743198 
L 332.900496 247.715993 
L 336.179835 244.159587 
L 339.459174 240.088269 
L 342.738512 235.526271 
L 346.017851 230.507405 
L 349.29719 225.074487 
L 352.576529 219.278536 
L 355.855868 213.177793 
L 359.135207 206.836579 
L 362.414545 200.324016 
L 365.693884 193.712657 
L 368.973223 187.077057 
L 372.252562 180.492313 
L 375.531901 174.03263 
L 378.81124 167.769926 
L 382.090579 161.772522 
L 385.369917 156.103949 
L 388.649256 150.821886 
L 391.928595 145.977258 
L 395.207934 141.613514 
L 398.487273 137.766082 
" style="fill:none;stroke:#0000ff;stroke-linecap:square;stroke-width:1.5;"/>
   </g>
   <g id="line2d_26">
    <path clip-path="url(#p1a9a4826c4)" d="M 73.832727 281.033425 
L 77.112066 282.965237 
L 80.391405 284.494623 
L 83.670744 285.712578 
L 86.950083 286.683736 
L 90.229421 287.449804 
L 93.50876 288.033999 
L 96.788099 288.445975 
L 100.067438 288.686745 
L 103.346777 288.753193 
L 106.626116 288.641846 
L 109.905455 288.35172 
L 113.184793 287.886137 
L 116.464132 287.25356 
L 119.743471 286.46757 
L 123.02281 285.546158 
L 126.302149 284.510567 
L 129.581488 283.383912 
L 132.860826 282.189762 
L 136.140165 280.950866 
L 139.419504 279.688117 
L 142.698843 278.419819 
L 145.978182 277.161251 
L 149.257521 275.924502 
L 152.53686 274.71851 
L 155.816198 273.549242 
L 159.095537 272.419941 
L 162.374876 271.331393 
L 165.654215 270.282175 
L 168.933554 269.268877 
L 172.212893 268.286296 
L 175.492231 267.327631 
L 178.77157 266.384701 
L 182.050909 265.448211 
L 185.330248 264.508097 
L 188.609587 263.553941 
L 191.888926 262.575479 
L 195.168264 261.563161 
L 198.447603 260.508747 
L 201.726942 259.405912 
L 205.006281 258.250799 
L 208.28562 257.042515 
L 211.564959 255.783497 
L 214.844298 254.479759 
L 218.123636 253.140977 
L 221.402975 251.780416 
L 224.682314 250.414688 
L 227.961653 249.063369 
L 231.240992 247.748464 
L 234.520331 246.493766 
L 237.799669 245.324109 
L 241.079008 244.264561 
L 244.358347 243.339559 
L 247.637686 242.572037 
L 250.917025 241.982545 
L 254.196364 241.588406 
L 257.475702 241.402905 
L 260.755041 241.434552 
L 264.03438 241.686425 
L 267.313719 242.155614 
L 270.593058 242.832787 
L 273.872397 243.701893 
L 277.151736 244.740027 
L 280.431074 245.917478 
L 283.710413 247.197978 
L 286.989752 248.539171 
L 290.269091 249.893313 
L 293.54843 251.20819 
L 296.827769 252.428267 
L 300.107107 253.496006 
L 303.386446 254.353344 
L 306.665785 254.943235 
L 309.945124 255.211217 
L 313.224463 255.106908 
L 316.503802 254.585367 
L 319.78314 253.608255 
L 323.062479 252.144757 
L 326.341818 250.172231 
L 329.621157 247.676625 
L 332.900496 244.652658 
L 336.179835 241.103865 
L 339.459174 237.042537 
L 342.738512 232.489661 
L 346.017851 227.474874 
L 349.29719 222.036477 
L 352.576529 216.221474 
L 355.855868 210.085552 
L 359.135207 203.692905 
L 362.414545 197.115708 
L 365.693884 190.433089 
L 368.973223 183.729405 
L 372.252562 177.091686 
L 375.531901 170.606152 
L 378.81124 164.353835 
L 382.090579 158.405392 
L 385.369917 152.815366 
L 388.649256 147.616219 
L 391.928595 142.812585 
L 395.207934 138.376233 
L 398.487273 134.242252 
" style="fill:none;stroke:#000000;stroke-linecap:square;stroke-width:0.5;"/>
   </g>
   <g id="line2d_27">
    <path clip-path="url(#p1a9a4826c4)" d="M 73.832727 288.081085 
L 77.112066 289.4398 
L 80.391405 290.823968 
L 83.670744 292.123912 
L 86.950083 293.260903 
L 90.229421 294.184064 
L 93.50876 294.866181 
L 96.788099 295.298932 
L 100.067438 295.488 
L 103.346777 295.448495 
L 106.626116 295.200984 
L 109.905455 294.768337 
L 113.184793 294.173485 
L 116.464132 293.438042 
L 119.743471 292.581695 
L 123.02281 291.622177 
L 126.302149 290.575629 
L 129.581488 289.457131 
L 132.860826 288.281226 
L 136.140165 287.06231 
L 139.419504 285.814786 
L 142.698843 284.552966 
L 145.978182 283.290742 
L 149.257521 282.04108 
L 152.53686 280.815423 
L 155.816198 279.623096 
L 159.095537 278.470797 
L 162.374876 277.362231 
L 165.654215 276.297947 
L 168.933554 275.275379 
L 172.212893 274.289089 
L 175.492231 273.331186 
L 178.77157 272.391872 
L 182.050909 271.460075 
L 185.330248 270.524122 
L 188.609587 269.572411 
L 191.888926 268.594047 
L 195.168264 267.579425 
L 198.447603 266.520747 
L 201.726942 265.412468 
L 205.006281 264.251664 
L 208.28562 263.038324 
L 211.564959 261.775571 
L 214.844298 260.469798 
L 218.123636 259.130712 
L 221.402975 257.771293 
L 224.682314 256.407632 
L 227.961653 255.058658 
L 231.240992 253.745744 
L 234.520331 252.492179 
L 237.799669 251.322523 
L 241.079008 250.261841 
L 244.358347 249.334848 
L 247.637686 248.56498 
L 250.917025 247.973423 
L 254.196364 247.578142 
L 257.475702 247.392944 
L 260.755041 247.426627 
L 264.03438 247.682234 
L 267.313719 248.156479 
L 270.593058 248.839344 
L 273.872397 249.713893 
L 277.151736 250.756291 
L 280.431074 251.936046 
L 283.710413 253.216448 
L 286.989752 254.555197 
L 290.269091 255.905176 
L 293.54843 257.215361 
L 296.827769 258.431822 
L 300.107107 259.498799 
L 303.386446 260.359846 
L 306.665785 260.959007 
L 309.945124 261.242055 
L 313.224463 261.157764 
L 316.503802 260.659221 
L 319.78314 259.705168 
L 323.062479 258.261335 
L 326.341818 256.301723 
L 329.621157 253.809772 
L 332.900496 250.779327 
L 336.179835 247.215309 
L 339.459174 243.134001 
L 342.738512 238.56288 
L 346.017851 233.539936 
L 349.29719 228.112497 
L 352.576529 222.335598 
L 355.855868 216.270034 
L 359.135207 209.980253 
L 362.414545 203.532324 
L 365.693884 196.992226 
L 368.973223 190.424708 
L 372.252562 183.892941 
L 375.531901 177.459109 
L 378.81124 171.186017 
L 382.090579 165.139652 
L 385.369917 159.392533 
L 388.649256 154.027552 
L 391.928595 149.141931 
L 395.207934 144.850795 
L 398.487273 141.289911 
" style="fill:none;stroke:#000000;stroke-linecap:square;stroke-width:0.5;"/>
   </g>
   <g id="line2d_28">
    <path clip-path="url(#p1a9a4826c4)" d="M 73.832727 182.209916 
L 77.112066 187.403098 
L 80.391405 192.213842 
L 83.670744 196.623198 
L 86.950083 200.616862 
L 90.229421 204.185531 
L 93.50876 207.325153 
L 96.788099 210.037075 
L 100.067438 212.328095 
L 103.346777 214.210377 
L 106.626116 215.701267 
L 109.905455 216.822968 
L 113.184793 217.602115 
L 116.464132 218.069224 
L 119.743471 218.258044 
L 123.02281 218.20482 
L 126.302149 217.94748 
L 129.581488 217.524775 
L 132.860826 216.975371 
L 136.140165 216.336953 
L 139.419504 215.64533 
L 142.698843 214.933594 
L 145.978182 214.231339 
L 149.257521 213.563984 
L 152.53686 212.952209 
L 155.816198 212.411527 
L 159.095537 211.95202 
L 162.374876 211.578251 
L 165.654215 211.289328 
L 168.933554 211.079191 
L 172.212893 210.937045 
L 175.492231 210.847981 
L 178.77157 210.793758 
L 182.050909 210.753718 
L 185.330248 210.705801 
L 188.609587 210.627673 
L 191.888926 210.497863 
L 195.168264 210.296939 
L 198.447603 210.00863 
L 201.726942 209.620892 
L 205.006281 209.126847 
L 208.28562 208.525575 
L 211.564959 207.82272 
L 214.844298 207.030868 
L 218.123636 206.169685 
L 221.402975 205.265796 
L 224.682314 204.352381 
L 227.961653 203.468504 
L 231.240992 202.658175 
L 234.520331 201.969162 
L 237.799669 201.451576 
L 241.079008 201.156278 
L 244.358347 201.133137 
L 247.637686 201.429196 
L 250.917025 202.086801 
L 254.196364 203.14175 
L 257.475702 204.621532 
L 260.755041 206.543702 
L 264.03438 208.914474 
L 267.313719 211.727562 
L 270.593058 214.963335 
L 273.872397 218.588323 
L 277.151736 222.555108 
L 280.431074 226.802609 
L 283.710413 231.256791 
L 286.989752 235.831764 
L 290.269091 240.431286 
L 293.54843 244.950619 
L 296.827769 249.278703 
L 300.107107 253.300597 
L 303.386446 256.900121 
L 306.665785 259.962632 
L 309.945124 262.37786 
L 313.224463 264.042717 
L 316.503802 264.864015 
L 319.78314 264.760998 
L 323.062479 263.667635 
L 326.341818 261.534577 
L 329.621157 258.330766 
L 332.900496 254.044601 
L 336.179835 248.684658 
L 339.459174 242.279932 
L 342.738512 234.879587 
L 346.017851 226.552237 
L 349.29719 217.384754 
L 352.576529 207.480662 
L 355.855868 196.95814 
L 359.135207 185.947698 
L 362.414545 174.589591 
L 365.693884 163.031039 
L 368.973223 151.423317 
L 372.252562 139.918807 
L 375.531901 128.668077 
L 378.81124 117.817053 
L 382.090579 107.504368 
L 385.369917 97.85893 
L 388.649256 88.997775 
L 391.928595 81.024237 
L 395.207934 74.026475 
L 398.487273 68.076377 
" style="fill:none;stroke:#ffa500;stroke-linecap:square;stroke-width:1.5;"/>
   </g>
   <g id="line2d_29">
    <path clip-path="url(#p1a9a4826c4)" d="M 73.832727 167.70154 
L 77.112066 174.074505 
L 80.391405 179.184194 
L 83.670744 183.424769 
L 86.950083 187.077047 
L 90.229421 190.322321 
L 93.50876 193.26036 
L 96.788099 195.929516 
L 100.067438 198.326971 
L 103.346777 200.427366 
L 106.626116 202.198566 
L 109.905455 203.613663 
L 113.184793 204.658923 
L 116.464132 205.337793 
L 119.743471 205.671452 
L 123.02281 205.696671 
L 126.302149 205.461888 
L 129.581488 205.022392 
L 132.860826 204.435429 
L 136.140165 203.755879 
L 139.419504 203.032914 
L 142.698843 202.307842 
L 145.978182 201.613113 
L 149.257521 200.972341 
L 152.53686 200.401048 
L 155.816198 199.907835 
L 159.095537 199.495673 
L 162.374876 199.163113 
L 165.654215 198.905206 
L 168.933554 198.714152 
L 172.212893 198.579641 
L 175.492231 198.489008 
L 178.77157 198.427342 
L 182.050909 198.377642 
L 185.330248 198.321157 
L 188.609587 198.237995 
L 191.888926 198.107985 
L 195.168264 197.911804 
L 198.447603 197.632273 
L 201.726942 197.25574 
L 205.006281 196.773413 
L 208.28562 196.182547 
L 211.564959 195.48738 
L 214.844298 194.699719 
L 218.123636 193.839162 
L 221.402975 192.932921 
L 224.682314 192.015253 
L 227.961653 191.126548 
L 231.240992 190.312121 
L 234.520331 189.620774 
L 237.799669 189.103188 
L 241.079008 188.810223 
L 244.358347 188.791181 
L 247.637686 189.092069 
L 250.917025 189.753926 
L 254.196364 190.811227 
L 257.475702 192.290383 
L 260.755041 194.208362 
L 264.03438 196.571447 
L 267.313719 199.374128 
L 270.593058 202.598183 
L 273.872397 206.211966 
L 277.151736 210.169973 
L 280.431074 214.412731 
L 283.710413 218.867113 
L 286.989752 223.447119 
L 290.269091 228.055209 
L 293.54843 232.584203 
L 296.827769 236.91973 
L 300.107107 240.943193 
L 303.386446 244.535082 
L 306.665785 247.578509 
L 309.945124 249.962722 
L 313.224463 251.58637 
L 316.503802 252.360323 
L 319.78314 252.209838 
L 323.062479 251.075991 
L 326.341818 248.91635 
L 329.621157 245.705014 
L 332.900496 241.432185 
L 336.179835 236.103585 
L 339.459174 229.73999 
L 342.738512 222.377204 
L 346.017851 214.066644 
L 349.29719 204.876605 
L 352.576529 194.89407 
L 355.855868 184.226709 
L 359.135207 173.004505 
L 362.414545 161.380285 
L 365.693884 149.528339 
L 368.973223 137.640306 
L 372.252562 125.917682 
L 375.531901 114.560519 
L 378.81124 103.752261 
L 382.090579 93.641158 
L 385.369917 84.319115 
L 388.649256 75.799346 
L 391.928595 67.994589 
L 395.207934 60.697882 
L 398.487273 53.568 
" style="fill:none;stroke:#000000;stroke-linecap:square;stroke-width:0.5;"/>
   </g>
   <g id="line2d_30">
    <path clip-path="url(#p1a9a4826c4)" d="M 73.832727 196.718293 
L 77.112066 200.731691 
L 80.391405 205.243491 
L 83.670744 209.821627 
L 86.950083 214.156677 
L 90.229421 218.04874 
L 93.50876 221.389945 
L 96.788099 224.144633 
L 100.067438 226.32922 
L 103.346777 227.993389 
L 106.626116 229.203967 
L 109.905455 230.032274 
L 113.184793 230.545308 
L 116.464132 230.800655 
L 119.743471 230.844636 
L 123.02281 230.712969 
L 126.302149 230.433073 
L 129.581488 230.027158 
L 132.860826 229.515313 
L 136.140165 228.918027 
L 139.419504 228.257746 
L 142.698843 227.559346 
L 145.978182 226.849565 
L 149.257521 226.155628 
L 152.53686 225.503369 
L 155.816198 224.915218 
L 159.095537 224.408368 
L 162.374876 223.993389 
L 165.654215 223.673451 
L 168.933554 223.44423 
L 172.212893 223.29445 
L 175.492231 223.206954 
L 178.77157 223.160175 
L 182.050909 223.129794 
L 185.330248 223.090446 
L 188.609587 223.017351 
L 191.888926 222.887742 
L 195.168264 222.682075 
L 198.447603 222.384987 
L 201.726942 221.986044 
L 205.006281 221.480281 
L 208.28562 220.868602 
L 211.564959 220.15806 
L 214.844298 219.362017 
L 218.123636 218.500209 
L 221.402975 217.598671 
L 224.682314 216.689509 
L 227.961653 215.810461 
L 231.240992 215.00423 
L 234.520331 214.317551 
L 237.799669 213.799965 
L 241.079008 213.502333 
L 244.358347 213.475094 
L 247.637686 213.766324 
L 250.917025 214.419676 
L 254.196364 215.472274 
L 257.475702 216.952681 
L 260.755041 218.879042 
L 264.03438 221.257501 
L 267.313719 224.080997 
L 270.593058 227.328487 
L 273.872397 230.96468 
L 277.151736 234.940243 
L 280.431074 239.192488 
L 283.710413 243.646469 
L 286.989752 248.216408 
L 290.269091 252.807362 
L 293.54843 257.317036 
L 296.827769 261.637676 
L 300.107107 265.658002 
L 303.386446 269.26516 
L 306.665785 272.346754 
L 309.945124 274.792998 
L 313.224463 276.499064 
L 316.503802 277.367707 
L 319.78314 277.312158 
L 323.062479 276.259278 
L 326.341818 274.152803 
L 329.621157 270.956518 
L 332.900496 266.657016 
L 336.179835 261.265732 
L 339.459174 254.819874 
L 342.738512 247.38197 
L 346.017851 239.037829 
L 349.29719 229.892903 
L 352.576529 220.067254 
L 355.855868 209.689571 
L 359.135207 198.890891 
L 362.414545 187.798897 
L 365.693884 176.533739 
L 368.973223 165.206328 
L 372.252562 153.919932 
L 375.531901 142.775635 
L 378.81124 131.881845 
L 382.090579 121.367577 
L 385.369917 111.398745 
L 388.649256 102.196203 
L 391.928595 94.053885 
L 395.207934 87.355068 
L 398.487273 82.584753 
" style="fill:none;stroke:#000000;stroke-linecap:square;stroke-width:0.5;"/>
   </g>
   <g id="line2d_31">
    <path clip-path="url(#p1a9a4826c4)" d="M 73.832727 284.585711 
L 77.112066 285.914154 
L 80.391405 287.198342 
L 83.670744 288.396436 
L 86.950083 289.472201 
L 90.229421 290.395417 
L 93.50876 291.14213 
L 96.788099 291.69474 
L 100.067438 292.041931 
L 103.346777 292.178459 
L 106.626116 292.104804 
L 109.905455 291.826702 
L 113.184793 291.354574 
L 116.464132 290.702873 
L 119.743471 289.889365 
L 123.02281 288.934372 
L 126.302149 287.859987 
L 129.581488 286.689293 
L 132.860826 285.445599 
L 136.140165 284.15172 
L 139.419504 282.829306 
L 142.698843 281.498247 
L 145.978182 280.176168 
L 149.257521 278.878014 
L 152.53686 277.615741 
L 155.816198 276.398124 
L 159.095537 275.230662 
L 162.374876 274.115615 
L 165.654215 273.052127 
L 168.933554 272.036468 
L 172.212893 271.06236 
L 175.492231 270.121381 
L 178.77157 269.203442 
L 182.050909 268.297312 
L 185.330248 267.391182 
L 188.609587 266.473243 
L 191.888926 265.532264 
L 195.168264 264.558156 
L 198.447603 263.542498 
L 201.726942 262.479009 
L 205.006281 261.363962 
L 208.28562 260.1965 
L 211.564959 258.978883 
L 214.844298 257.716611 
L 218.123636 256.418456 
L 221.402975 255.096378 
L 224.682314 253.765319 
L 227.961653 252.442904 
L 231.240992 251.149025 
L 234.520331 249.905331 
L 237.799669 248.734637 
L 241.079008 247.660252 
L 244.358347 246.705259 
L 247.637686 245.891751 
L 250.917025 245.24005 
L 254.196364 244.767922 
L 257.475702 244.48982 
L 260.755041 244.416165 
L 264.03438 244.552694 
L 267.313719 244.899884 
L 270.593058 245.452494 
L 273.872397 246.199207 
L 277.151736 247.122423 
L 280.431074 248.198188 
L 283.710413 249.396282 
L 286.989752 250.68047 
L 290.269091 252.008913 
L 293.54843 253.334746 
L 296.827769 254.606806 
L 300.107107 255.770514 
L 303.386446 256.768891 
L 306.665785 257.543693 
L 309.945124 258.036641 
L 313.224463 258.190734 
L 316.503802 257.95161 
L 319.78314 257.268932 
L 323.062479 256.097765 
L 326.341818 254.399921 
L 329.621157 252.14524 
L 332.900496 249.312763 
L 336.179835 245.891791 
L 339.459174 241.882776 
L 342.738512 237.298043 
L 346.017851 232.16229 
L 349.29719 226.512877 
L 352.576529 220.399858 
L 355.855868 213.885771 
L 359.135207 207.04515 
L 362.414545 199.963781 
L 365.693884 192.737692 
L 368.973223 185.471883 
L 372.252562 178.278817 
L 375.531901 171.276688 
L 378.81124 164.587484 
L 382.090579 158.33488 
L 385.369917 152.641998 
L 388.649256 147.629056 
L 391.928595 143.410966 
L 395.207934 140.094907 
L 398.487273 137.77793 
" style="fill:none;stroke:#0000ff;stroke-dasharray:5.55,2.4;stroke-dashoffset:0;stroke-width:1.5;"/>
   </g>
   <g id="line2d_32">
    <path clip-path="url(#p1a9a4826c4)" d="M 73.832727 182.870018 
L 77.112066 187.335189 
L 80.391405 191.711849 
L 83.670744 195.91632 
L 86.950083 199.876133 
L 90.229421 203.530849 
L 93.50876 206.83256 
L 96.788099 209.746063 
L 100.067438 212.248729 
L 103.346777 214.330069 
L 106.626116 215.991044 
L 109.905455 217.243125 
L 113.184793 218.107152 
L 116.464132 218.612033 
L 119.743471 218.793302 
L 123.02281 218.6916 
L 126.302149 218.351113 
L 129.581488 217.818009 
L 132.860826 217.138906 
L 136.140165 216.359432 
L 139.419504 215.522887 
L 142.698843 214.669053 
L 145.978182 213.833179 
L 149.257521 213.045155 
L 152.53686 212.328894 
L 155.816198 211.701943 
L 159.095537 211.175304 
L 162.374876 210.753493 
L 165.654215 210.434801 
L 168.933554 210.211768 
L 172.212893 210.071836 
L 175.492231 209.998162 
L 178.77157 209.970567 
L 182.050909 209.966591 
L 185.330248 209.962616 
L 188.609587 209.935021 
L 191.888926 209.861347 
L 195.168264 209.721415 
L 198.447603 209.498382 
L 201.726942 209.17969 
L 205.006281 208.757879 
L 208.28562 208.23124 
L 211.564959 207.604288 
L 214.844298 206.888028 
L 218.123636 206.100004 
L 221.402975 205.26413 
L 224.682314 204.410296 
L 227.961653 203.573751 
L 231.240992 202.794277 
L 234.520331 202.115174 
L 237.799669 201.582069 
L 241.079008 201.241583 
L 244.358347 201.139881 
L 247.637686 201.32115 
L 250.917025 201.826031 
L 254.196364 202.690058 
L 257.475702 203.942139 
L 260.755041 205.603113 
L 264.03438 207.684454 
L 267.313719 210.18712 
L 270.593058 213.100623 
L 273.872397 216.402334 
L 277.151736 220.05705 
L 280.431074 224.016863 
L 283.710413 228.221334 
L 286.989752 232.597994 
L 290.269091 237.063165 
L 293.54843 241.523115 
L 296.827769 245.875518 
L 300.107107 250.011218 
L 303.386446 253.816258 
L 306.665785 257.174145 
L 309.945124 259.968324 
L 313.224463 262.084794 
L 316.503802 263.414831 
L 319.78314 263.857759 
L 323.062479 263.323708 
L 326.341818 261.736305 
L 329.621157 259.035227 
L 332.900496 255.178557 
L 336.179835 250.144896 
L 339.459174 243.935151 
L 342.738512 236.573968 
L 346.017851 228.110746 
L 349.29719 218.620204 
L 352.576529 208.202451 
L 355.855868 196.982561 
L 359.135207 185.109602 
L 362.414545 172.755149 
L 365.693884 160.111255 
L 368.973223 147.387921 
L 372.252562 134.810073 
L 375.531901 122.614099 
L 378.81124 111.043974 
L 382.090579 100.34705 
L 385.369917 90.769569 
L 388.649256 82.55197 
L 391.928595 75.924075 
L 395.207934 71.10024 
L 398.487273 68.27457 
" style="fill:none;stroke:#ffa500;stroke-dasharray:5.55,2.4;stroke-dashoffset:0;stroke-width:1.5;"/>
   </g>
   <g id="patch_3">
    <path d="M 57.6 307.584 
L 57.6 41.472 
" style="fill:none;stroke:#000000;stroke-linecap:square;stroke-linejoin:miter;stroke-width:0.8;"/>
   </g>
   <g id="patch_4">
    <path d="M 414.72 307.584 
L 414.72 41.472 
" style="fill:none;stroke:#000000;stroke-linecap:square;stroke-linejoin:miter;stroke-width:0.8;"/>
   </g>
   <g id="patch_5">
    <path d="M 57.6 307.584 
L 414.72 307.584 
" style="fill:none;stroke:#000000;stroke-linecap:square;stroke-linejoin:miter;stroke-width:0.8;"/>
   </g>
   <g id="patch_6">
    <path d="M 57.6 41.472 
L 414.72 41.472 
" style="fill:none;stroke:#000000;stroke-linecap:square;stroke-linejoin:miter;stroke-width:0.8;"/>
   </g>
   <g id="legend_1">
    <g id="patch_7">
     <path d="M 64.6 108.1845 
L 239.15625 108.1845 
Q 241.15625 108.1845 241.15625 106.1845 
L 241.15625 48.472 
Q 241.15625 46.472 239.15625 46.472 
L 64.6 46.472 
Q 62.6 46.472 62.6 48.472 
L 62.6 106.1845 
Q 62.6 108.1845 64.6 108.1845 
z
" style="fill:#ffffff;opacity:0.8;stroke:#cccccc;stroke-linejoin:miter;"/>
    </g>
    <g id="line2d_33">
     <path d="M 66.6 54.570438 
L 86.6 54.570438 
" style="fill:none;stroke:#0000ff;stroke-linecap:square;stroke-width:1.5;"/>
    </g>
    <g id="line2d_34"/>
    <g id="text_13">
     <!-- MF cheap GPR (regular GPR) -->
     <g transform="translate(94.6 58.070438)scale(0.1 -0.1)">
      <defs>
       <path d="M 9.8125 72.90625 
L 24.515625 72.90625 
L 43.109375 23.296875 
L 61.8125 72.90625 
L 76.515625 72.90625 
L 76.515625 0 
L 66.890625 0 
L 66.890625 64.015625 
L 48.09375 14.015625 
L 38.1875 14.015625 
L 19.390625 64.015625 
L 19.390625 0 
L 9.8125 0 
z
" id="DejaVuSans-77"/>
       <path d="M 9.8125 72.90625 
L 51.703125 72.90625 
L 51.703125 64.59375 
L 19.671875 64.59375 
L 19.671875 43.109375 
L 48.578125 43.109375 
L 48.578125 34.8125 
L 19.671875 34.8125 
L 19.671875 0 
L 9.8125 0 
z
" id="DejaVuSans-70"/>
       <path id="DejaVuSans-32"/>
       <path d="M 48.78125 52.59375 
L 48.78125 44.1875 
Q 44.96875 46.296875 41.140625 47.34375 
Q 37.3125 48.390625 33.40625 48.390625 
Q 24.65625 48.390625 19.8125 42.84375 
Q 14.984375 37.3125 14.984375 27.296875 
Q 14.984375 17.28125 19.8125 11.734375 
Q 24.65625 6.203125 33.40625 6.203125 
Q 37.3125 6.203125 41.140625 7.25 
Q 44.96875 8.296875 48.78125 10.40625 
L 48.78125 2.09375 
Q 45.015625 0.34375 40.984375 -0.53125 
Q 36.96875 -1.421875 32.421875 -1.421875 
Q 20.0625 -1.421875 12.78125 6.34375 
Q 5.515625 14.109375 5.515625 27.296875 
Q 5.515625 40.671875 12.859375 48.328125 
Q 20.21875 56 33.015625 56 
Q 37.15625 56 41.109375 55.140625 
Q 45.0625 54.296875 48.78125 52.59375 
z
" id="DejaVuSans-99"/>
       <path d="M 54.890625 33.015625 
L 54.890625 0 
L 45.90625 0 
L 45.90625 32.71875 
Q 45.90625 40.484375 42.875 44.328125 
Q 39.84375 48.1875 33.796875 48.1875 
Q 26.515625 48.1875 22.3125 43.546875 
Q 18.109375 38.921875 18.109375 30.90625 
L 18.109375 0 
L 9.078125 0 
L 9.078125 75.984375 
L 18.109375 75.984375 
L 18.109375 46.1875 
Q 21.34375 51.125 25.703125 53.5625 
Q 30.078125 56 35.796875 56 
Q 45.21875 56 50.046875 50.171875 
Q 54.890625 44.34375 54.890625 33.015625 
z
" id="DejaVuSans-104"/>
       <path d="M 56.203125 29.59375 
L 56.203125 25.203125 
L 14.890625 25.203125 
Q 15.484375 15.921875 20.484375 11.0625 
Q 25.484375 6.203125 34.421875 6.203125 
Q 39.59375 6.203125 44.453125 7.46875 
Q 49.3125 8.734375 54.109375 11.28125 
L 54.109375 2.78125 
Q 49.265625 0.734375 44.1875 -0.34375 
Q 39.109375 -1.421875 33.890625 -1.421875 
Q 20.796875 -1.421875 13.15625 6.1875 
Q 5.515625 13.8125 5.515625 26.8125 
Q 5.515625 40.234375 12.765625 48.109375 
Q 20.015625 56 32.328125 56 
Q 43.359375 56 49.78125 48.890625 
Q 56.203125 41.796875 56.203125 29.59375 
z
M 47.21875 32.234375 
Q 47.125 39.59375 43.09375 43.984375 
Q 39.0625 48.390625 32.421875 48.390625 
Q 24.90625 48.390625 20.390625 44.140625 
Q 15.875 39.890625 15.1875 32.171875 
z
" id="DejaVuSans-101"/>
       <path d="M 34.28125 27.484375 
Q 23.390625 27.484375 19.1875 25 
Q 14.984375 22.515625 14.984375 16.5 
Q 14.984375 11.71875 18.140625 8.90625 
Q 21.296875 6.109375 26.703125 6.109375 
Q 34.1875 6.109375 38.703125 11.40625 
Q 43.21875 16.703125 43.21875 25.484375 
L 43.21875 27.484375 
z
M 52.203125 31.203125 
L 52.203125 0 
L 43.21875 0 
L 43.21875 8.296875 
Q 40.140625 3.328125 35.546875 0.953125 
Q 30.953125 -1.421875 24.3125 -1.421875 
Q 15.921875 -1.421875 10.953125 3.296875 
Q 6 8.015625 6 15.921875 
Q 6 25.140625 12.171875 29.828125 
Q 18.359375 34.515625 30.609375 34.515625 
L 43.21875 34.515625 
L 43.21875 35.40625 
Q 43.21875 41.609375 39.140625 45 
Q 35.0625 48.390625 27.6875 48.390625 
Q 23 48.390625 18.546875 47.265625 
Q 14.109375 46.140625 10.015625 43.890625 
L 10.015625 52.203125 
Q 14.9375 54.109375 19.578125 55.046875 
Q 24.21875 56 28.609375 56 
Q 40.484375 56 46.34375 49.84375 
Q 52.203125 43.703125 52.203125 31.203125 
z
" id="DejaVuSans-97"/>
       <path d="M 18.109375 8.203125 
L 18.109375 -20.796875 
L 9.078125 -20.796875 
L 9.078125 54.6875 
L 18.109375 54.6875 
L 18.109375 46.390625 
Q 20.953125 51.265625 25.265625 53.625 
Q 29.59375 56 35.59375 56 
Q 45.5625 56 51.78125 48.09375 
Q 58.015625 40.1875 58.015625 27.296875 
Q 58.015625 14.40625 51.78125 6.484375 
Q 45.5625 -1.421875 35.59375 -1.421875 
Q 29.59375 -1.421875 25.265625 0.953125 
Q 20.953125 3.328125 18.109375 8.203125 
z
M 48.6875 27.296875 
Q 48.6875 37.203125 44.609375 42.84375 
Q 40.53125 48.484375 33.40625 48.484375 
Q 26.265625 48.484375 22.1875 42.84375 
Q 18.109375 37.203125 18.109375 27.296875 
Q 18.109375 17.390625 22.1875 11.75 
Q 26.265625 6.109375 33.40625 6.109375 
Q 40.53125 6.109375 44.609375 11.75 
Q 48.6875 17.390625 48.6875 27.296875 
z
" id="DejaVuSans-112"/>
       <path d="M 59.515625 10.40625 
L 59.515625 29.984375 
L 43.40625 29.984375 
L 43.40625 38.09375 
L 69.28125 38.09375 
L 69.28125 6.78125 
Q 63.578125 2.734375 56.6875 0.65625 
Q 49.8125 -1.421875 42 -1.421875 
Q 24.90625 -1.421875 15.25 8.5625 
Q 5.609375 18.5625 5.609375 36.375 
Q 5.609375 54.25 15.25 64.234375 
Q 24.90625 74.21875 42 74.21875 
Q 49.125 74.21875 55.546875 72.453125 
Q 61.96875 70.703125 67.390625 67.28125 
L 67.390625 56.78125 
Q 61.921875 61.421875 55.765625 63.765625 
Q 49.609375 66.109375 42.828125 66.109375 
Q 29.4375 66.109375 22.71875 58.640625 
Q 16.015625 51.171875 16.015625 36.375 
Q 16.015625 21.625 22.71875 14.15625 
Q 29.4375 6.6875 42.828125 6.6875 
Q 48.046875 6.6875 52.140625 7.59375 
Q 56.25 8.5 59.515625 10.40625 
z
" id="DejaVuSans-71"/>
       <path d="M 19.671875 64.796875 
L 19.671875 37.40625 
L 32.078125 37.40625 
Q 38.96875 37.40625 42.71875 40.96875 
Q 46.484375 44.53125 46.484375 51.125 
Q 46.484375 57.671875 42.71875 61.234375 
Q 38.96875 64.796875 32.078125 64.796875 
z
M 9.8125 72.90625 
L 32.078125 72.90625 
Q 44.34375 72.90625 50.609375 67.359375 
Q 56.890625 61.8125 56.890625 51.125 
Q 56.890625 40.328125 50.609375 34.8125 
Q 44.34375 29.296875 32.078125 29.296875 
L 19.671875 29.296875 
L 19.671875 0 
L 9.8125 0 
z
" id="DejaVuSans-80"/>
       <path d="M 44.390625 34.1875 
Q 47.5625 33.109375 50.5625 29.59375 
Q 53.5625 26.078125 56.59375 19.921875 
L 66.609375 0 
L 56 0 
L 46.6875 18.703125 
Q 43.0625 26.03125 39.671875 28.421875 
Q 36.28125 30.8125 30.421875 30.8125 
L 19.671875 30.8125 
L 19.671875 0 
L 9.8125 0 
L 9.8125 72.90625 
L 32.078125 72.90625 
Q 44.578125 72.90625 50.734375 67.671875 
Q 56.890625 62.453125 56.890625 51.90625 
Q 56.890625 45.015625 53.6875 40.46875 
Q 50.484375 35.9375 44.390625 34.1875 
z
M 19.671875 64.796875 
L 19.671875 38.921875 
L 32.078125 38.921875 
Q 39.203125 38.921875 42.84375 42.21875 
Q 46.484375 45.515625 46.484375 51.90625 
Q 46.484375 58.296875 42.84375 61.546875 
Q 39.203125 64.796875 32.078125 64.796875 
z
" id="DejaVuSans-82"/>
       <path d="M 31 75.875 
Q 24.46875 64.65625 21.28125 53.65625 
Q 18.109375 42.671875 18.109375 31.390625 
Q 18.109375 20.125 21.3125 9.0625 
Q 24.515625 -2 31 -13.1875 
L 23.1875 -13.1875 
Q 15.875 -1.703125 12.234375 9.375 
Q 8.59375 20.453125 8.59375 31.390625 
Q 8.59375 42.28125 12.203125 53.3125 
Q 15.828125 64.359375 23.1875 75.875 
z
" id="DejaVuSans-40"/>
       <path d="M 41.109375 46.296875 
Q 39.59375 47.171875 37.8125 47.578125 
Q 36.03125 48 33.890625 48 
Q 26.265625 48 22.1875 43.046875 
Q 18.109375 38.09375 18.109375 28.8125 
L 18.109375 0 
L 9.078125 0 
L 9.078125 54.6875 
L 18.109375 54.6875 
L 18.109375 46.1875 
Q 20.953125 51.171875 25.484375 53.578125 
Q 30.03125 56 36.53125 56 
Q 37.453125 56 38.578125 55.875 
Q 39.703125 55.765625 41.0625 55.515625 
z
" id="DejaVuSans-114"/>
       <path d="M 45.40625 27.984375 
Q 45.40625 37.75 41.375 43.109375 
Q 37.359375 48.484375 30.078125 48.484375 
Q 22.859375 48.484375 18.828125 43.109375 
Q 14.796875 37.75 14.796875 27.984375 
Q 14.796875 18.265625 18.828125 12.890625 
Q 22.859375 7.515625 30.078125 7.515625 
Q 37.359375 7.515625 41.375 12.890625 
Q 45.40625 18.265625 45.40625 27.984375 
z
M 54.390625 6.78125 
Q 54.390625 -7.171875 48.1875 -13.984375 
Q 42 -20.796875 29.203125 -20.796875 
Q 24.46875 -20.796875 20.265625 -20.09375 
Q 16.0625 -19.390625 12.109375 -17.921875 
L 12.109375 -9.1875 
Q 16.0625 -11.328125 19.921875 -12.34375 
Q 23.78125 -13.375 27.78125 -13.375 
Q 36.625 -13.375 41.015625 -8.765625 
Q 45.40625 -4.15625 45.40625 5.171875 
L 45.40625 9.625 
Q 42.625 4.78125 38.28125 2.390625 
Q 33.9375 0 27.875 0 
Q 17.828125 0 11.671875 7.65625 
Q 5.515625 15.328125 5.515625 27.984375 
Q 5.515625 40.671875 11.671875 48.328125 
Q 17.828125 56 27.875 56 
Q 33.9375 56 38.28125 53.609375 
Q 42.625 51.21875 45.40625 46.390625 
L 45.40625 54.6875 
L 54.390625 54.6875 
z
" id="DejaVuSans-103"/>
       <path d="M 8.5 21.578125 
L 8.5 54.6875 
L 17.484375 54.6875 
L 17.484375 21.921875 
Q 17.484375 14.15625 20.5 10.265625 
Q 23.53125 6.390625 29.59375 6.390625 
Q 36.859375 6.390625 41.078125 11.03125 
Q 45.3125 15.671875 45.3125 23.6875 
L 45.3125 54.6875 
L 54.296875 54.6875 
L 54.296875 0 
L 45.3125 0 
L 45.3125 8.40625 
Q 42.046875 3.421875 37.71875 1 
Q 33.40625 -1.421875 27.6875 -1.421875 
Q 18.265625 -1.421875 13.375 4.4375 
Q 8.5 10.296875 8.5 21.578125 
z
M 31.109375 56 
z
" id="DejaVuSans-117"/>
       <path d="M 9.421875 75.984375 
L 18.40625 75.984375 
L 18.40625 0 
L 9.421875 0 
z
" id="DejaVuSans-108"/>
       <path d="M 8.015625 75.875 
L 15.828125 75.875 
Q 23.140625 64.359375 26.78125 53.3125 
Q 30.421875 42.28125 30.421875 31.390625 
Q 30.421875 20.453125 26.78125 9.375 
Q 23.140625 -1.703125 15.828125 -13.1875 
L 8.015625 -13.1875 
Q 14.5 -2 17.703125 9.0625 
Q 20.90625 20.125 20.90625 31.390625 
Q 20.90625 42.671875 17.703125 53.65625 
Q 14.5 64.65625 8.015625 75.875 
z
" id="DejaVuSans-41"/>
      </defs>
      <use xlink:href="#DejaVuSans-77"/>
      <use x="86.279297" xlink:href="#DejaVuSans-70"/>
      <use x="143.798828" xlink:href="#DejaVuSans-32"/>
      <use x="175.585938" xlink:href="#DejaVuSans-99"/>
      <use x="230.566406" xlink:href="#DejaVuSans-104"/>
      <use x="293.945312" xlink:href="#DejaVuSans-101"/>
      <use x="355.46875" xlink:href="#DejaVuSans-97"/>
      <use x="416.748047" xlink:href="#DejaVuSans-112"/>
      <use x="480.224609" xlink:href="#DejaVuSans-32"/>
      <use x="512.011719" xlink:href="#DejaVuSans-71"/>
      <use x="589.501953" xlink:href="#DejaVuSans-80"/>
      <use x="649.804688" xlink:href="#DejaVuSans-82"/>
      <use x="719.287109" xlink:href="#DejaVuSans-32"/>
      <use x="751.074219" xlink:href="#DejaVuSans-40"/>
      <use x="790.087891" xlink:href="#DejaVuSans-114"/>
      <use x="828.951172" xlink:href="#DejaVuSans-101"/>
      <use x="890.474609" xlink:href="#DejaVuSans-103"/>
      <use x="953.951172" xlink:href="#DejaVuSans-117"/>
      <use x="1017.330078" xlink:href="#DejaVuSans-108"/>
      <use x="1045.113281" xlink:href="#DejaVuSans-97"/>
      <use x="1106.392578" xlink:href="#DejaVuSans-114"/>
      <use x="1147.505859" xlink:href="#DejaVuSans-32"/>
      <use x="1179.292969" xlink:href="#DejaVuSans-71"/>
      <use x="1256.783203" xlink:href="#DejaVuSans-80"/>
      <use x="1317.085938" xlink:href="#DejaVuSans-82"/>
      <use x="1386.568359" xlink:href="#DejaVuSans-41"/>
     </g>
    </g>
    <g id="line2d_35">
     <path d="M 66.6 69.248563 
L 86.6 69.248563 
" style="fill:none;stroke:#ffa500;stroke-linecap:square;stroke-width:1.5;"/>
    </g>
    <g id="line2d_36"/>
    <g id="text_14">
     <!-- MF expensive GPR -->
     <g transform="translate(94.6 72.748563)scale(0.1 -0.1)">
      <defs>
       <path d="M 54.890625 54.6875 
L 35.109375 28.078125 
L 55.90625 0 
L 45.3125 0 
L 29.390625 21.484375 
L 13.484375 0 
L 2.875 0 
L 24.125 28.609375 
L 4.6875 54.6875 
L 15.28125 54.6875 
L 29.78125 35.203125 
L 44.28125 54.6875 
z
" id="DejaVuSans-120"/>
       <path d="M 54.890625 33.015625 
L 54.890625 0 
L 45.90625 0 
L 45.90625 32.71875 
Q 45.90625 40.484375 42.875 44.328125 
Q 39.84375 48.1875 33.796875 48.1875 
Q 26.515625 48.1875 22.3125 43.546875 
Q 18.109375 38.921875 18.109375 30.90625 
L 18.109375 0 
L 9.078125 0 
L 9.078125 54.6875 
L 18.109375 54.6875 
L 18.109375 46.1875 
Q 21.34375 51.125 25.703125 53.5625 
Q 30.078125 56 35.796875 56 
Q 45.21875 56 50.046875 50.171875 
Q 54.890625 44.34375 54.890625 33.015625 
z
" id="DejaVuSans-110"/>
       <path d="M 44.28125 53.078125 
L 44.28125 44.578125 
Q 40.484375 46.53125 36.375 47.5 
Q 32.28125 48.484375 27.875 48.484375 
Q 21.1875 48.484375 17.84375 46.4375 
Q 14.5 44.390625 14.5 40.28125 
Q 14.5 37.15625 16.890625 35.375 
Q 19.28125 33.59375 26.515625 31.984375 
L 29.59375 31.296875 
Q 39.15625 29.25 43.1875 25.515625 
Q 47.21875 21.78125 47.21875 15.09375 
Q 47.21875 7.46875 41.1875 3.015625 
Q 35.15625 -1.421875 24.609375 -1.421875 
Q 20.21875 -1.421875 15.453125 -0.5625 
Q 10.6875 0.296875 5.421875 2 
L 5.421875 11.28125 
Q 10.40625 8.6875 15.234375 7.390625 
Q 20.0625 6.109375 24.8125 6.109375 
Q 31.15625 6.109375 34.5625 8.28125 
Q 37.984375 10.453125 37.984375 14.40625 
Q 37.984375 18.0625 35.515625 20.015625 
Q 33.0625 21.96875 24.703125 23.78125 
L 21.578125 24.515625 
Q 13.234375 26.265625 9.515625 29.90625 
Q 5.8125 33.546875 5.8125 39.890625 
Q 5.8125 47.609375 11.28125 51.796875 
Q 16.75 56 26.8125 56 
Q 31.78125 56 36.171875 55.265625 
Q 40.578125 54.546875 44.28125 53.078125 
z
" id="DejaVuSans-115"/>
       <path d="M 9.421875 54.6875 
L 18.40625 54.6875 
L 18.40625 0 
L 9.421875 0 
z
M 9.421875 75.984375 
L 18.40625 75.984375 
L 18.40625 64.59375 
L 9.421875 64.59375 
z
" id="DejaVuSans-105"/>
       <path d="M 2.984375 54.6875 
L 12.5 54.6875 
L 29.59375 8.796875 
L 46.6875 54.6875 
L 56.203125 54.6875 
L 35.6875 0 
L 23.484375 0 
z
" id="DejaVuSans-118"/>
      </defs>
      <use xlink:href="#DejaVuSans-77"/>
      <use x="86.279297" xlink:href="#DejaVuSans-70"/>
      <use x="143.798828" xlink:href="#DejaVuSans-32"/>
      <use x="175.585938" xlink:href="#DejaVuSans-101"/>
      <use x="235.359375" xlink:href="#DejaVuSans-120"/>
      <use x="294.539062" xlink:href="#DejaVuSans-112"/>
      <use x="358.015625" xlink:href="#DejaVuSans-101"/>
      <use x="419.539062" xlink:href="#DejaVuSans-110"/>
      <use x="482.917969" xlink:href="#DejaVuSans-115"/>
      <use x="535.017578" xlink:href="#DejaVuSans-105"/>
      <use x="562.800781" xlink:href="#DejaVuSans-118"/>
      <use x="621.980469" xlink:href="#DejaVuSans-101"/>
      <use x="683.503906" xlink:href="#DejaVuSans-32"/>
      <use x="715.291016" xlink:href="#DejaVuSans-71"/>
      <use x="792.78125" xlink:href="#DejaVuSans-80"/>
      <use x="853.083984" xlink:href="#DejaVuSans-82"/>
     </g>
    </g>
    <g id="line2d_37">
     <path d="M 66.6 83.926688 
L 86.6 83.926688 
" style="fill:none;stroke:#0000ff;stroke-dasharray:5.55,2.4;stroke-dashoffset:0;stroke-width:1.5;"/>
    </g>
    <g id="line2d_38"/>
    <g id="text_15">
     <!-- Exact cheap function -->
     <g transform="translate(94.6 87.426688)scale(0.1 -0.1)">
      <defs>
       <path d="M 9.8125 72.90625 
L 55.90625 72.90625 
L 55.90625 64.59375 
L 19.671875 64.59375 
L 19.671875 43.015625 
L 54.390625 43.015625 
L 54.390625 34.71875 
L 19.671875 34.71875 
L 19.671875 8.296875 
L 56.78125 8.296875 
L 56.78125 0 
L 9.8125 0 
z
" id="DejaVuSans-69"/>
       <path d="M 18.3125 70.21875 
L 18.3125 54.6875 
L 36.8125 54.6875 
L 36.8125 47.703125 
L 18.3125 47.703125 
L 18.3125 18.015625 
Q 18.3125 11.328125 20.140625 9.421875 
Q 21.96875 7.515625 27.59375 7.515625 
L 36.8125 7.515625 
L 36.8125 0 
L 27.59375 0 
Q 17.1875 0 13.234375 3.875 
Q 9.28125 7.765625 9.28125 18.015625 
L 9.28125 47.703125 
L 2.6875 47.703125 
L 2.6875 54.6875 
L 9.28125 54.6875 
L 9.28125 70.21875 
z
" id="DejaVuSans-116"/>
       <path d="M 37.109375 75.984375 
L 37.109375 68.5 
L 28.515625 68.5 
Q 23.6875 68.5 21.796875 66.546875 
Q 19.921875 64.59375 19.921875 59.515625 
L 19.921875 54.6875 
L 34.71875 54.6875 
L 34.71875 47.703125 
L 19.921875 47.703125 
L 19.921875 0 
L 10.890625 0 
L 10.890625 47.703125 
L 2.296875 47.703125 
L 2.296875 54.6875 
L 10.890625 54.6875 
L 10.890625 58.5 
Q 10.890625 67.625 15.140625 71.796875 
Q 19.390625 75.984375 28.609375 75.984375 
z
" id="DejaVuSans-102"/>
       <path d="M 30.609375 48.390625 
Q 23.390625 48.390625 19.1875 42.75 
Q 14.984375 37.109375 14.984375 27.296875 
Q 14.984375 17.484375 19.15625 11.84375 
Q 23.34375 6.203125 30.609375 6.203125 
Q 37.796875 6.203125 41.984375 11.859375 
Q 46.1875 17.53125 46.1875 27.296875 
Q 46.1875 37.015625 41.984375 42.703125 
Q 37.796875 48.390625 30.609375 48.390625 
z
M 30.609375 56 
Q 42.328125 56 49.015625 48.375 
Q 55.71875 40.765625 55.71875 27.296875 
Q 55.71875 13.875 49.015625 6.21875 
Q 42.328125 -1.421875 30.609375 -1.421875 
Q 18.84375 -1.421875 12.171875 6.21875 
Q 5.515625 13.875 5.515625 27.296875 
Q 5.515625 40.765625 12.171875 48.375 
Q 18.84375 56 30.609375 56 
z
" id="DejaVuSans-111"/>
      </defs>
      <use xlink:href="#DejaVuSans-69"/>
      <use x="63.183594" xlink:href="#DejaVuSans-120"/>
      <use x="122.363281" xlink:href="#DejaVuSans-97"/>
      <use x="183.642578" xlink:href="#DejaVuSans-99"/>
      <use x="238.623047" xlink:href="#DejaVuSans-116"/>
      <use x="277.832031" xlink:href="#DejaVuSans-32"/>
      <use x="309.619141" xlink:href="#DejaVuSans-99"/>
      <use x="364.599609" xlink:href="#DejaVuSans-104"/>
      <use x="427.978516" xlink:href="#DejaVuSans-101"/>
      <use x="489.501953" xlink:href="#DejaVuSans-97"/>
      <use x="550.78125" xlink:href="#DejaVuSans-112"/>
      <use x="614.257812" xlink:href="#DejaVuSans-32"/>
      <use x="646.044922" xlink:href="#DejaVuSans-102"/>
      <use x="681.25" xlink:href="#DejaVuSans-117"/>
      <use x="744.628906" xlink:href="#DejaVuSans-110"/>
      <use x="808.007812" xlink:href="#DejaVuSans-99"/>
      <use x="862.988281" xlink:href="#DejaVuSans-116"/>
      <use x="902.197266" xlink:href="#DejaVuSans-105"/>
      <use x="929.980469" xlink:href="#DejaVuSans-111"/>
      <use x="991.162109" xlink:href="#DejaVuSans-110"/>
     </g>
    </g>
    <g id="line2d_39">
     <path d="M 66.6 98.604813 
L 86.6 98.604813 
" style="fill:none;stroke:#ffa500;stroke-dasharray:5.55,2.4;stroke-dashoffset:0;stroke-width:1.5;"/>
    </g>
    <g id="line2d_40"/>
    <g id="text_16">
     <!-- Exact expensive function -->
     <g transform="translate(94.6 102.104813)scale(0.1 -0.1)">
      <use xlink:href="#DejaVuSans-69"/>
      <use x="63.183594" xlink:href="#DejaVuSans-120"/>
      <use x="122.363281" xlink:href="#DejaVuSans-97"/>
      <use x="183.642578" xlink:href="#DejaVuSans-99"/>
      <use x="238.623047" xlink:href="#DejaVuSans-116"/>
      <use x="277.832031" xlink:href="#DejaVuSans-32"/>
      <use x="309.619141" xlink:href="#DejaVuSans-101"/>
      <use x="369.392578" xlink:href="#DejaVuSans-120"/>
      <use x="428.572266" xlink:href="#DejaVuSans-112"/>
      <use x="492.048828" xlink:href="#DejaVuSans-101"/>
      <use x="553.572266" xlink:href="#DejaVuSans-110"/>
      <use x="616.951172" xlink:href="#DejaVuSans-115"/>
      <use x="669.050781" xlink:href="#DejaVuSans-105"/>
      <use x="696.833984" xlink:href="#DejaVuSans-118"/>
      <use x="756.013672" xlink:href="#DejaVuSans-101"/>
      <use x="817.537109" xlink:href="#DejaVuSans-32"/>
      <use x="849.324219" xlink:href="#DejaVuSans-102"/>
      <use x="884.529297" xlink:href="#DejaVuSans-117"/>
      <use x="947.908203" xlink:href="#DejaVuSans-110"/>
      <use x="1011.287109" xlink:href="#DejaVuSans-99"/>
      <use x="1066.267578" xlink:href="#DejaVuSans-116"/>
      <use x="1105.476562" xlink:href="#DejaVuSans-105"/>
      <use x="1133.259766" xlink:href="#DejaVuSans-111"/>
      <use x="1194.441406" xlink:href="#DejaVuSans-110"/>
     </g>
    </g>
   </g>
  </g>
 </g>
 <defs>
  <clipPath id="p1a9a4826c4">
   <rect height="266.112" width="357.12" x="57.6" y="41.472"/>
  </clipPath>
 </defs>
</svg>
