<?xml version="1.0" encoding="utf-8" standalone="no"?>
<!DOCTYPE svg PUBLIC "-//W3C//DTD SVG 1.1//EN"
  "http://www.w3.org/Graphics/SVG/1.1/DTD/svg11.dtd">
<!-- Created with matplotlib (https://matplotlib.org/) -->
<svg height="345.6pt" version="1.1" viewBox="0 0 460.8 345.6" width="460.8pt" xmlns="http://www.w3.org/2000/svg" xmlns:xlink="http://www.w3.org/1999/xlink">
 <metadata>
  <rdf:RDF xmlns:cc="http://creativecommons.org/ns#" xmlns:dc="http://purl.org/dc/elements/1.1/" xmlns:rdf="http://www.w3.org/1999/02/22-rdf-syntax-ns#">
   <cc:Work>
    <dc:type rdf:resource="http://purl.org/dc/dcmitype/StillImage"/>
    <dc:date>2020-11-24T13:54:32.053012</dc:date>
    <dc:format>image/svg+xml</dc:format>
    <dc:creator>
     <cc:Agent>
      <dc:title>Matplotlib v3.3.1, https://matplotlib.org/</dc:title>
     </cc:Agent>
    </dc:creator>
   </cc:Work>
  </rdf:RDF>
 </metadata>
 <defs>
  <style type="text/css">*{stroke-linecap:butt;stroke-linejoin:round;}</style>
 </defs>
 <g id="figure_1">
  <g id="patch_1">
   <path d="M 0 345.6 
L 460.8 345.6 
L 460.8 0 
L 0 0 
z
" style="fill:#ffffff;"/>
  </g>
  <g id="axes_1">
   <g id="patch_2">
    <path d="M 57.6 307.584 
L 414.72 307.584 
L 414.72 41.472 
L 57.6 41.472 
z
" style="fill:#ffffff;"/>
   </g>
   <g id="PolyCollection_1">
    <defs>
     <path d="M 73.832727 -65.502159 
L 73.832727 -57.998333 
L 77.112066 -56.551675 
L 80.391405 -55.077915 
L 83.670744 -53.693831 
L 86.950083 -52.483248 
L 90.229421 -51.500334 
L 93.50876 -50.774066 
L 96.788099 -50.313306 
L 100.067438 -50.112 
L 103.346777 -50.154062 
L 106.626116 -50.417594 
L 109.905455 -50.878244 
L 113.184793 -51.511598 
L 116.464132 -52.294643 
L 119.743471 -53.206418 
L 123.02281 -54.228041 
L 126.302149 -55.342328 
L 129.581488 -56.533222 
L 132.860826 -57.785238 
L 136.140165 -59.08305 
L 139.419504 -60.411321 
L 142.698843 -61.754813 
L 145.978182 -63.098735 
L 149.257521 -64.429283 
L 152.53686 -65.734272 
L 155.816198 -67.003772 
L 159.095537 -68.230655 
L 162.374876 -69.410974 
L 165.654215 -70.544145 
L 168.933554 -71.632899 
L 172.212893 -72.683027 
L 175.492231 -73.702931 
L 178.77157 -74.703043 
L 182.050909 -75.695152 
L 185.330248 -76.691685 
L 188.609587 -77.704996 
L 191.888926 -78.746685 
L 195.168264 -79.82698 
L 198.447603 -80.954181 
L 201.726942 -82.134194 
L 205.006281 -83.370133 
L 208.28562 -84.662007 
L 211.564959 -86.006492 
L 214.844298 -87.396783 
L 218.123636 -88.822542 
L 221.402975 -90.26995 
L 224.682314 -91.721876 
L 227.961653 -93.158164 
L 231.240992 -94.556057 
L 234.520331 -95.890759 
L 237.799669 -97.136123 
L 241.079008 -98.265458 
L 244.358347 -99.252451 
L 247.637686 -100.07215 
L 250.917025 -100.701996 
L 254.196364 -101.122862 
L 257.475702 -101.320046 
L 260.755041 -101.284184 
L 264.03438 -101.012032 
L 267.313719 -100.507092 
L 270.593058 -99.780027 
L 273.872397 -98.848872 
L 277.151736 -97.739004 
L 280.431074 -96.482889 
L 283.710413 -95.119612 
L 286.989752 -93.694211 
L 290.269091 -92.256854 
L 293.54843 -90.861866 
L 296.827769 -89.566669 
L 300.107107 -88.43063 
L 303.386446 -87.513852 
L 306.665785 -86.87591 
L 309.945124 -86.574541 
L 313.224463 -86.664288 
L 316.503802 -87.195099 
L 319.78314 -88.210904 
L 323.062479 -89.748191 
L 326.341818 -91.83464 
L 329.621157 -94.487885 
L 332.900496 -97.714477 
L 336.179835 -101.50918 
L 339.459174 -105.854653 
L 342.738512 -110.721644 
L 346.017851 -116.069701 
L 349.29719 -121.848436 
L 352.576529 -127.99925 
L 355.855868 -134.457412 
L 359.135207 -141.154304 
L 362.414545 -148.01958 
L 365.693884 -154.982991 
L 368.973223 -161.975597 
L 372.252562 -168.930139 
L 375.531901 -175.780405 
L 378.81124 -182.459528 
L 382.090579 -188.897248 
L 385.369917 -195.016355 
L 388.649256 -200.728588 
L 391.928595 -205.930435 
L 395.207934 -210.499318 
L 398.487273 -214.290683 
L 398.487273 -221.794508 
L 398.487273 -221.794508 
L 395.207934 -217.392951 
L 391.928595 -212.669452 
L 388.649256 -207.5549 
L 385.369917 -202.019234 
L 382.090579 -196.067389 
L 378.81124 -189.733928 
L 375.531901 -183.076925 
L 372.252562 -176.17161 
L 368.973223 -169.104259 
L 365.693884 -161.966674 
L 362.414545 -154.851517 
L 359.135207 -147.848606 
L 355.855868 -141.042189 
L 352.576529 -134.509116 
L 349.29719 -128.317731 
L 346.017851 -122.52733 
L 342.738512 -117.187956 
L 339.459174 -112.340392 
L 336.179835 -108.016192 
L 332.900496 -104.2377 
L 329.621157 -101.018004 
L 326.341818 -98.360868 
L 323.062479 -96.260669 
L 319.78314 -94.702444 
L 316.503802 -93.662089 
L 313.224463 -93.10679 
L 309.945124 -92.99573 
L 306.665785 -93.281057 
L 303.386446 -93.909129 
L 300.107107 -94.821959 
L 296.827769 -95.958809 
L 293.54843 -97.257856 
L 290.269091 -98.657839 
L 286.989752 -100.099629 
L 283.710413 -101.527633 
L 280.431074 -102.891014 
L 277.151736 -104.144676 
L 273.872397 -105.250004 
L 270.593058 -106.175363 
L 267.313719 -106.896367 
L 264.03438 -107.395925 
L 260.755041 -107.664101 
L 257.475702 -107.697796 
L 254.196364 -107.500288 
L 250.917025 -107.080638 
L 247.637686 -106.452991 
L 244.358347 -105.63579 
L 241.079008 -104.650917 
L 237.799669 -103.522788 
L 234.520331 -102.277425 
L 231.240992 -100.941516 
L 227.961653 -99.541502 
L 224.682314 -98.102718 
L 221.402975 -96.648592 
L 218.123636 -95.199967 
L 214.844298 -93.774532 
L 211.564959 -92.386409 
L 208.28562 -91.0459 
L 205.006281 -89.759408 
L 201.726942 -88.52953 
L 198.447603 -87.355313 
L 195.168264 -86.232651 
L 191.888926 -85.15481 
L 188.609587 -84.113016 
L 185.330248 -83.097102 
L 182.050909 -82.096138 
L 178.77157 -81.099033 
L 175.492231 -80.095071 
L 172.212893 -79.074356 
L 168.933554 -78.028177 
L 165.654215 -76.949292 
L 162.374876 -75.832163 
L 159.095537 -74.673158 
L 155.816198 -73.470762 
L 152.53686 -72.225812 
L 149.257521 -70.941761 
L 145.978182 -69.624962 
L 142.698843 -68.284933 
L 139.419504 -66.934543 
L 136.140165 -65.590061 
L 132.860826 -64.270977 
L 129.581488 -62.999535 
L 126.302149 -61.799956 
L 123.02281 -60.697336 
L 119.743471 -59.716284 
L 116.464132 -58.87942 
L 113.184793 -58.2059 
L 109.905455 -57.710181 
L 106.626116 -57.401277 
L 103.346777 -57.282723 
L 100.067438 -57.353471 
L 96.788099 -57.609825 
L 93.50876 -58.048467 
L 90.229421 -58.670475 
L 86.950083 -59.486127 
L 83.670744 -60.520143 
L 80.391405 -61.816932 
L 77.112066 -63.445309 
L 73.832727 -65.502159 
z
" id="m57da231db9" style="stroke:#0000ff;stroke-opacity:0.2;"/>
    </defs>
    <g clip-path="url(#p90132ca3eb)">
     <use style="fill:#0000ff;fill-opacity:0.2;stroke:#0000ff;stroke-opacity:0.2;" x="0" xlink:href="#m57da231db9" y="345.6"/>
    </g>
   </g>
   <g id="PolyCollection_2">
    <defs>
     <path d="M 73.832727 -120.833307 
L 73.832727 -108.610092 
L 77.112066 -107.151351 
L 80.391405 -105.66311 
L 83.670744 -104.264243 
L 86.950083 -103.040071 
L 90.229421 -102.045734 
L 93.50876 -101.31073 
L 96.788099 -100.844094 
L 100.067438 -100.639692 
L 103.346777 -100.681198 
L 106.626116 -100.946388 
L 109.905455 -101.410564 
L 113.184793 -102.048986 
L 116.464132 -102.838361 
L 119.743471 -103.757502 
L 123.02281 -104.787352 
L 126.302149 -105.910591 
L 129.581488 -107.111055 
L 132.860826 -108.373158 
L 136.140165 -109.681473 
L 139.419504 -111.020554 
L 142.698843 -112.375041 
L 145.978182 -113.73001 
L 149.257521 -115.071525 
L 152.53686 -116.387275 
L 155.816198 -117.667221 
L 159.095537 -118.90415 
L 162.374876 -120.094065 
L 165.654215 -121.236365 
L 168.933554 -122.333804 
L 172.212893 -123.392227 
L 175.492231 -124.42012 
L 178.77157 -125.428021 
L 182.050909 -126.427837 
L 185.330248 -127.432119 
L 188.609587 -128.453343 
L 191.888926 -129.50322 
L 195.168264 -130.592072 
L 198.447603 -131.728277 
L 201.726942 -132.91779 
L 205.006281 -134.163749 
L 208.28562 -135.466161 
L 211.564959 -136.821666 
L 214.844298 -138.223393 
L 218.123636 -139.660909 
L 221.402975 -141.120267 
L 224.682314 -142.584179 
L 227.961653 -144.032303 
L 231.240992 -145.441676 
L 234.520331 -146.787271 
L 237.799669 -148.042698 
L 241.079008 -149.181019 
L 244.358347 -150.175674 
L 247.637686 -151.001474 
L 250.917025 -151.635649 
L 254.196364 -152.058889 
L 257.475702 -152.256353 
L 260.755041 -152.218588 
L 264.03438 -151.94232 
L 267.313719 -151.431084 
L 270.593058 -150.695649 
L 273.872397 -149.75422 
L 277.151736 -148.632417 
L 280.431074 -147.36301 
L 283.710413 -145.985453 
L 286.989752 -144.545204 
L 290.269091 -143.092892 
L 293.54843 -141.683347 
L 296.827769 -140.374516 
L 300.107107 -139.226311 
L 303.386446 -138.299387 
L 306.665785 -137.653869 
L 309.945124 -137.348031 
L 313.224463 -137.43693 
L 316.503802 -137.970988 
L 319.78314 -138.994559 
L 323.062479 -140.54449 
L 326.341818 -142.648735 
L 329.621157 -145.325104 
L 332.900496 -148.580217 
L 336.179835 -152.408777 
L 339.459174 -156.793266 
L 342.738512 -161.704124 
L 346.017851 -167.100481 
L 349.29719 -172.931434 
L 352.576529 -179.137797 
L 355.855868 -185.65421 
L 359.135207 -192.411415 
L 362.414545 -199.33844 
L 365.693884 -206.364447 
L 368.973223 -213.41995 
L 372.252562 -220.437185 
L 375.531901 -227.349442 
L 378.81124 -234.089321 
L 382.090579 -240.585932 
L 385.369917 -246.761254 
L 388.649256 -252.525951 
L 391.928595 -257.775081 
L 395.207934 -262.384207 
L 398.487273 -266.20642 
L 398.487273 -278.427789 
L 398.487273 -278.427789 
L 395.207934 -273.983818 
L 391.928595 -269.217048 
L 388.649256 -264.056718 
L 385.369917 -258.47177 
L 382.090579 -252.466721 
L 378.81124 -246.076204 
L 375.531901 -239.358742 
L 372.252562 -232.390292 
L 368.973223 -225.258024 
L 365.693884 -218.054719 
L 362.414545 -210.87402 
L 359.135207 -203.806681 
L 355.855868 -196.937803 
L 352.576529 -190.34498 
L 349.29719 -184.097195 
L 346.017851 -178.254269 
L 342.738512 -172.866673 
L 339.459174 -167.975523 
L 336.179835 -163.612628 
L 332.900496 -159.800506 
L 329.621157 -156.552348 
L 326.341818 -153.871944 
L 323.062479 -151.753626 
L 319.78314 -150.182302 
L 316.503802 -149.13366 
L 313.224463 -148.5746 
L 309.945124 -148.463935 
L 306.665785 -148.75338 
L 303.386446 -149.388796 
L 300.107107 -150.311654 
L 296.827769 -151.460644 
L 293.54843 -152.773359 
L 290.269091 -154.187959 
L 286.989752 -155.644753 
L 283.710413 -157.087626 
L 280.431074 -158.465264 
L 277.151736 -159.732149 
L 273.872397 -160.849309 
L 270.593058 -161.784818 
L 267.313719 -162.514066 
L 264.03438 -163.019809 
L 260.755041 -163.292019 
L 257.475702 -163.327574 
L 254.196364 -163.12978 
L 250.917025 -162.707781 
L 247.637686 -162.075853 
L 244.358347 -161.252606 
L 241.079008 -160.260124 
L 237.799669 -159.123047 
L 234.520331 -157.867639 
L 231.240992 -156.520836 
L 227.961653 -155.109329 
L 224.682314 -153.658689 
L 221.402975 -152.192568 
L 218.123636 -150.732004 
L 214.844298 -149.294856 
L 211.564959 -147.895377 
L 208.28562 -146.543967 
L 205.006281 -145.247085 
L 201.726942 -144.00735 
L 198.447603 -142.823794 
L 195.168264 -141.692271 
L 191.888926 -140.605977 
L 188.609587 -139.556057 
L 185.330248 -138.532247 
L 182.050909 -137.523519 
L 178.77157 -136.518686 
L 175.492231 -135.506938 
L 172.212893 -134.478297 
L 168.933554 -133.423978 
L 165.654215 -132.336678 
L 162.374876 -131.210807 
L 159.095537 -130.042697 
L 155.816198 -128.830807 
L 152.53686 -127.575969 
L 149.257521 -126.281649 
L 145.978182 -124.954244 
L 142.698843 -123.603347 
L 139.419504 -122.241944 
L 136.140165 -120.886461 
L 132.860826 -119.55659 
L 129.581488 -118.274816 
L 126.302149 -117.065627 
L 123.02281 -115.954399 
L 119.743471 -114.966009 
L 116.464132 -114.123314 
L 113.184793 -113.445651 
L 109.905455 -112.94758 
L 106.626116 -112.638133 
L 103.346777 -112.520782 
L 100.067438 -112.594347 
L 96.788099 -112.854978 
L 93.50876 -113.299235 
L 90.229421 -113.928182 
L 86.950083 -114.752284 
L 83.670744 -115.796744 
L 80.391405 -117.106848 
L 77.112066 -118.752771 
L 73.832727 -120.833307 
z
" id="ma9587b237a" style="stroke:#ffa500;stroke-opacity:0.2;"/>
    </defs>
    <g clip-path="url(#p90132ca3eb)">
     <use style="fill:#ffa500;fill-opacity:0.2;stroke:#ffa500;stroke-opacity:0.2;" x="0" xlink:href="#ma9587b237a" y="345.6"/>
    </g>
   </g>
   <g id="PathCollection_1">
    <defs>
     <path d="M 0 3 
C 0.795609 3 1.55874 2.683901 2.12132 2.12132 
C 2.683901 1.55874 3 0.795609 3 0 
C 3 -0.795609 2.683901 -1.55874 2.12132 -2.12132 
C 1.55874 -2.683901 0.795609 -3 0 -3 
C -0.795609 -3 -1.55874 -2.683901 -2.12132 -2.12132 
C -2.683901 -1.55874 -3 -0.795609 -3 0 
C -3 0.795609 -2.683901 1.55874 -2.12132 2.12132 
C -1.55874 2.683901 -0.795609 3 0 3 
z
" id="m48ac321a80" style="stroke:#0000ff;"/>
    </defs>
    <g clip-path="url(#p90132ca3eb)">
     <use style="fill:#0000ff;stroke:#0000ff;" x="73.832727" xlink:href="#m48ac321a80" y="283.880052"/>
     <use style="fill:#0000ff;stroke:#0000ff;" x="106.298182" xlink:href="#m48ac321a80" y="291.903604"/>
     <use style="fill:#0000ff;stroke:#0000ff;" x="138.763636" xlink:href="#m48ac321a80" y="282.292946"/>
     <use style="fill:#0000ff;stroke:#0000ff;" x="171.229091" xlink:href="#m48ac321a80" y="269.788388"/>
     <use style="fill:#0000ff;stroke:#0000ff;" x="203.694545" xlink:href="#m48ac321a80" y="259.636862"/>
     <use style="fill:#0000ff;stroke:#0000ff;" x="236.16" xlink:href="#m48ac321a80" y="246.32046"/>
     <use style="fill:#0000ff;stroke:#0000ff;" x="268.625455" xlink:href="#m48ac321a80" y="241.83516"/>
     <use style="fill:#0000ff;stroke:#0000ff;" x="301.090909" xlink:href="#m48ac321a80" y="253.539958"/>
     <use style="fill:#0000ff;stroke:#0000ff;" x="333.556364" xlink:href="#m48ac321a80" y="245.645843"/>
     <use style="fill:#0000ff;stroke:#0000ff;" x="366.021818" xlink:href="#m48ac321a80" y="185.313471"/>
     <use style="fill:#0000ff;stroke:#0000ff;" x="398.487273" xlink:href="#m48ac321a80" y="127.57002"/>
    </g>
   </g>
   <g id="PathCollection_2">
    <defs>
     <path d="M 0 3 
C 0.795609 3 1.55874 2.683901 2.12132 2.12132 
C 2.683901 1.55874 3 0.795609 3 0 
C 3 -0.795609 2.683901 -1.55874 2.12132 -2.12132 
C 1.55874 -2.683901 0.795609 -3 0 -3 
C -0.795609 -3 -1.55874 -2.683901 -2.12132 -2.12132 
C -2.683901 -1.55874 -3 -0.795609 -3 0 
C -3 0.795609 -2.683901 1.55874 -2.12132 2.12132 
C -1.55874 2.683901 -0.795609 3 0 3 
z
" id="m6d5c7736bb" style="stroke:#ffa500;"/>
    </defs>
    <g clip-path="url(#p90132ca3eb)">
     <use style="fill:#ffa500;stroke:#ffa500;" x="73.832727" xlink:href="#m6d5c7736bb" y="175.580729"/>
     <use style="fill:#ffa500;stroke:#ffa500;" x="203.694545" xlink:href="#m6d5c7736bb" y="203.337284"/>
     <use style="fill:#ffa500;stroke:#ffa500;" x="268.625455" xlink:href="#m6d5c7736bb" y="205.855347"/>
     <use style="fill:#ffa500;stroke:#ffa500;" x="333.556364" xlink:href="#m6d5c7736bb" y="251.598178"/>
     <use style="fill:#ffa500;stroke:#ffa500;" x="398.487273" xlink:href="#m6d5c7736bb" y="53.568"/>
    </g>
   </g>
   <g id="matplotlib.axis_1">
    <g id="xtick_1">
     <g id="line2d_1">
      <path clip-path="url(#p90132ca3eb)" d="M 73.832727 307.584 
L 73.832727 41.472 
" style="fill:none;stroke:#b0b0b0;stroke-linecap:square;stroke-width:0.8;"/>
     </g>
     <g id="line2d_2">
      <defs>
       <path d="M 0 0 
L 0 3.5 
" id="m0ccfb17f88" style="stroke:#000000;stroke-width:0.8;"/>
      </defs>
      <g>
       <use style="stroke:#000000;stroke-width:0.8;" x="73.832727" xlink:href="#m0ccfb17f88" y="307.584"/>
      </g>
     </g>
     <g id="text_1">
      <!-- 0.0 -->
      <g transform="translate(65.881165 322.182437)scale(0.1 -0.1)">
       <defs>
        <path d="M 31.78125 66.40625 
Q 24.171875 66.40625 20.328125 58.90625 
Q 16.5 51.421875 16.5 36.375 
Q 16.5 21.390625 20.328125 13.890625 
Q 24.171875 6.390625 31.78125 6.390625 
Q 39.453125 6.390625 43.28125 13.890625 
Q 47.125 21.390625 47.125 36.375 
Q 47.125 51.421875 43.28125 58.90625 
Q 39.453125 66.40625 31.78125 66.40625 
z
M 31.78125 74.21875 
Q 44.046875 74.21875 50.515625 64.515625 
Q 56.984375 54.828125 56.984375 36.375 
Q 56.984375 17.96875 50.515625 8.265625 
Q 44.046875 -1.421875 31.78125 -1.421875 
Q 19.53125 -1.421875 13.0625 8.265625 
Q 6.59375 17.96875 6.59375 36.375 
Q 6.59375 54.828125 13.0625 64.515625 
Q 19.53125 74.21875 31.78125 74.21875 
z
" id="DejaVuSans-48"/>
        <path d="M 10.6875 12.40625 
L 21 12.40625 
L 21 0 
L 10.6875 0 
z
" id="DejaVuSans-46"/>
       </defs>
       <use xlink:href="#DejaVuSans-48"/>
       <use x="63.623047" xlink:href="#DejaVuSans-46"/>
       <use x="95.410156" xlink:href="#DejaVuSans-48"/>
      </g>
     </g>
    </g>
    <g id="xtick_2">
     <g id="line2d_3">
      <path clip-path="url(#p90132ca3eb)" d="M 138.763636 307.584 
L 138.763636 41.472 
" style="fill:none;stroke:#b0b0b0;stroke-linecap:square;stroke-width:0.8;"/>
     </g>
     <g id="line2d_4">
      <g>
       <use style="stroke:#000000;stroke-width:0.8;" x="138.763636" xlink:href="#m0ccfb17f88" y="307.584"/>
      </g>
     </g>
     <g id="text_2">
      <!-- 0.2 -->
      <g transform="translate(130.812074 322.182437)scale(0.1 -0.1)">
       <defs>
        <path d="M 19.1875 8.296875 
L 53.609375 8.296875 
L 53.609375 0 
L 7.328125 0 
L 7.328125 8.296875 
Q 12.9375 14.109375 22.625 23.890625 
Q 32.328125 33.6875 34.8125 36.53125 
Q 39.546875 41.84375 41.421875 45.53125 
Q 43.3125 49.21875 43.3125 52.78125 
Q 43.3125 58.59375 39.234375 62.25 
Q 35.15625 65.921875 28.609375 65.921875 
Q 23.96875 65.921875 18.8125 64.3125 
Q 13.671875 62.703125 7.8125 59.421875 
L 7.8125 69.390625 
Q 13.765625 71.78125 18.9375 73 
Q 24.125 74.21875 28.421875 74.21875 
Q 39.75 74.21875 46.484375 68.546875 
Q 53.21875 62.890625 53.21875 53.421875 
Q 53.21875 48.921875 51.53125 44.890625 
Q 49.859375 40.875 45.40625 35.40625 
Q 44.1875 33.984375 37.640625 27.21875 
Q 31.109375 20.453125 19.1875 8.296875 
z
" id="DejaVuSans-50"/>
       </defs>
       <use xlink:href="#DejaVuSans-48"/>
       <use x="63.623047" xlink:href="#DejaVuSans-46"/>
       <use x="95.410156" xlink:href="#DejaVuSans-50"/>
      </g>
     </g>
    </g>
    <g id="xtick_3">
     <g id="line2d_5">
      <path clip-path="url(#p90132ca3eb)" d="M 203.694545 307.584 
L 203.694545 41.472 
" style="fill:none;stroke:#b0b0b0;stroke-linecap:square;stroke-width:0.8;"/>
     </g>
     <g id="line2d_6">
      <g>
       <use style="stroke:#000000;stroke-width:0.8;" x="203.694545" xlink:href="#m0ccfb17f88" y="307.584"/>
      </g>
     </g>
     <g id="text_3">
      <!-- 0.4 -->
      <g transform="translate(195.742983 322.182437)scale(0.1 -0.1)">
       <defs>
        <path d="M 37.796875 64.3125 
L 12.890625 25.390625 
L 37.796875 25.390625 
z
M 35.203125 72.90625 
L 47.609375 72.90625 
L 47.609375 25.390625 
L 58.015625 25.390625 
L 58.015625 17.1875 
L 47.609375 17.1875 
L 47.609375 0 
L 37.796875 0 
L 37.796875 17.1875 
L 4.890625 17.1875 
L 4.890625 26.703125 
z
" id="DejaVuSans-52"/>
       </defs>
       <use xlink:href="#DejaVuSans-48"/>
       <use x="63.623047" xlink:href="#DejaVuSans-46"/>
       <use x="95.410156" xlink:href="#DejaVuSans-52"/>
      </g>
     </g>
    </g>
    <g id="xtick_4">
     <g id="line2d_7">
      <path clip-path="url(#p90132ca3eb)" d="M 268.625455 307.584 
L 268.625455 41.472 
" style="fill:none;stroke:#b0b0b0;stroke-linecap:square;stroke-width:0.8;"/>
     </g>
     <g id="line2d_8">
      <g>
       <use style="stroke:#000000;stroke-width:0.8;" x="268.625455" xlink:href="#m0ccfb17f88" y="307.584"/>
      </g>
     </g>
     <g id="text_4">
      <!-- 0.6 -->
      <g transform="translate(260.673892 322.182437)scale(0.1 -0.1)">
       <defs>
        <path d="M 33.015625 40.375 
Q 26.375 40.375 22.484375 35.828125 
Q 18.609375 31.296875 18.609375 23.390625 
Q 18.609375 15.53125 22.484375 10.953125 
Q 26.375 6.390625 33.015625 6.390625 
Q 39.65625 6.390625 43.53125 10.953125 
Q 47.40625 15.53125 47.40625 23.390625 
Q 47.40625 31.296875 43.53125 35.828125 
Q 39.65625 40.375 33.015625 40.375 
z
M 52.59375 71.296875 
L 52.59375 62.3125 
Q 48.875 64.0625 45.09375 64.984375 
Q 41.3125 65.921875 37.59375 65.921875 
Q 27.828125 65.921875 22.671875 59.328125 
Q 17.53125 52.734375 16.796875 39.40625 
Q 19.671875 43.65625 24.015625 45.921875 
Q 28.375 48.1875 33.59375 48.1875 
Q 44.578125 48.1875 50.953125 41.515625 
Q 57.328125 34.859375 57.328125 23.390625 
Q 57.328125 12.15625 50.6875 5.359375 
Q 44.046875 -1.421875 33.015625 -1.421875 
Q 20.359375 -1.421875 13.671875 8.265625 
Q 6.984375 17.96875 6.984375 36.375 
Q 6.984375 53.65625 15.1875 63.9375 
Q 23.390625 74.21875 37.203125 74.21875 
Q 40.921875 74.21875 44.703125 73.484375 
Q 48.484375 72.75 52.59375 71.296875 
z
" id="DejaVuSans-54"/>
       </defs>
       <use xlink:href="#DejaVuSans-48"/>
       <use x="63.623047" xlink:href="#DejaVuSans-46"/>
       <use x="95.410156" xlink:href="#DejaVuSans-54"/>
      </g>
     </g>
    </g>
    <g id="xtick_5">
     <g id="line2d_9">
      <path clip-path="url(#p90132ca3eb)" d="M 333.556364 307.584 
L 333.556364 41.472 
" style="fill:none;stroke:#b0b0b0;stroke-linecap:square;stroke-width:0.8;"/>
     </g>
     <g id="line2d_10">
      <g>
       <use style="stroke:#000000;stroke-width:0.8;" x="333.556364" xlink:href="#m0ccfb17f88" y="307.584"/>
      </g>
     </g>
     <g id="text_5">
      <!-- 0.8 -->
      <g transform="translate(325.604801 322.182437)scale(0.1 -0.1)">
       <defs>
        <path d="M 31.78125 34.625 
Q 24.75 34.625 20.71875 30.859375 
Q 16.703125 27.09375 16.703125 20.515625 
Q 16.703125 13.921875 20.71875 10.15625 
Q 24.75 6.390625 31.78125 6.390625 
Q 38.8125 6.390625 42.859375 10.171875 
Q 46.921875 13.96875 46.921875 20.515625 
Q 46.921875 27.09375 42.890625 30.859375 
Q 38.875 34.625 31.78125 34.625 
z
M 21.921875 38.8125 
Q 15.578125 40.375 12.03125 44.71875 
Q 8.5 49.078125 8.5 55.328125 
Q 8.5 64.0625 14.71875 69.140625 
Q 20.953125 74.21875 31.78125 74.21875 
Q 42.671875 74.21875 48.875 69.140625 
Q 55.078125 64.0625 55.078125 55.328125 
Q 55.078125 49.078125 51.53125 44.71875 
Q 48 40.375 41.703125 38.8125 
Q 48.828125 37.15625 52.796875 32.3125 
Q 56.78125 27.484375 56.78125 20.515625 
Q 56.78125 9.90625 50.3125 4.234375 
Q 43.84375 -1.421875 31.78125 -1.421875 
Q 19.734375 -1.421875 13.25 4.234375 
Q 6.78125 9.90625 6.78125 20.515625 
Q 6.78125 27.484375 10.78125 32.3125 
Q 14.796875 37.15625 21.921875 38.8125 
z
M 18.3125 54.390625 
Q 18.3125 48.734375 21.84375 45.5625 
Q 25.390625 42.390625 31.78125 42.390625 
Q 38.140625 42.390625 41.71875 45.5625 
Q 45.3125 48.734375 45.3125 54.390625 
Q 45.3125 60.0625 41.71875 63.234375 
Q 38.140625 66.40625 31.78125 66.40625 
Q 25.390625 66.40625 21.84375 63.234375 
Q 18.3125 60.0625 18.3125 54.390625 
z
" id="DejaVuSans-56"/>
       </defs>
       <use xlink:href="#DejaVuSans-48"/>
       <use x="63.623047" xlink:href="#DejaVuSans-46"/>
       <use x="95.410156" xlink:href="#DejaVuSans-56"/>
      </g>
     </g>
    </g>
    <g id="xtick_6">
     <g id="line2d_11">
      <path clip-path="url(#p90132ca3eb)" d="M 398.487273 307.584 
L 398.487273 41.472 
" style="fill:none;stroke:#b0b0b0;stroke-linecap:square;stroke-width:0.8;"/>
     </g>
     <g id="line2d_12">
      <g>
       <use style="stroke:#000000;stroke-width:0.8;" x="398.487273" xlink:href="#m0ccfb17f88" y="307.584"/>
      </g>
     </g>
     <g id="text_6">
      <!-- 1.0 -->
      <g transform="translate(390.53571 322.182437)scale(0.1 -0.1)">
       <defs>
        <path d="M 12.40625 8.296875 
L 28.515625 8.296875 
L 28.515625 63.921875 
L 10.984375 60.40625 
L 10.984375 69.390625 
L 28.421875 72.90625 
L 38.28125 72.90625 
L 38.28125 8.296875 
L 54.390625 8.296875 
L 54.390625 0 
L 12.40625 0 
z
" id="DejaVuSans-49"/>
       </defs>
       <use xlink:href="#DejaVuSans-49"/>
       <use x="63.623047" xlink:href="#DejaVuSans-46"/>
       <use x="95.410156" xlink:href="#DejaVuSans-48"/>
      </g>
     </g>
    </g>
   </g>
   <g id="matplotlib.axis_2">
    <g id="ytick_1">
     <g id="line2d_13">
      <path clip-path="url(#p90132ca3eb)" d="M 57.6 300.687854 
L 414.72 300.687854 
" style="fill:none;stroke:#b0b0b0;stroke-linecap:square;stroke-width:0.8;"/>
     </g>
     <g id="line2d_14">
      <defs>
       <path d="M 0 0 
L -3.5 0 
" id="m58fadf5a53" style="stroke:#000000;stroke-width:0.8;"/>
      </defs>
      <g>
       <use style="stroke:#000000;stroke-width:0.8;" x="57.6" xlink:href="#m58fadf5a53" y="300.687854"/>
      </g>
     </g>
     <g id="text_7">
      <!-- −10 -->
      <g transform="translate(29.495313 304.487073)scale(0.1 -0.1)">
       <defs>
        <path d="M 10.59375 35.5 
L 73.1875 35.5 
L 73.1875 27.203125 
L 10.59375 27.203125 
z
" id="DejaVuSans-8722"/>
       </defs>
       <use xlink:href="#DejaVuSans-8722"/>
       <use x="83.789062" xlink:href="#DejaVuSans-49"/>
       <use x="147.412109" xlink:href="#DejaVuSans-48"/>
      </g>
     </g>
    </g>
    <g id="ytick_2">
     <g id="line2d_15">
      <path clip-path="url(#p90132ca3eb)" d="M 57.6 253.03602 
L 414.72 253.03602 
" style="fill:none;stroke:#b0b0b0;stroke-linecap:square;stroke-width:0.8;"/>
     </g>
     <g id="line2d_16">
      <g>
       <use style="stroke:#000000;stroke-width:0.8;" x="57.6" xlink:href="#m58fadf5a53" y="253.03602"/>
      </g>
     </g>
     <g id="text_8">
      <!-- −5 -->
      <g transform="translate(35.857813 256.835239)scale(0.1 -0.1)">
       <defs>
        <path d="M 10.796875 72.90625 
L 49.515625 72.90625 
L 49.515625 64.59375 
L 19.828125 64.59375 
L 19.828125 46.734375 
Q 21.96875 47.46875 24.109375 47.828125 
Q 26.265625 48.1875 28.421875 48.1875 
Q 40.625 48.1875 47.75 41.5 
Q 54.890625 34.8125 54.890625 23.390625 
Q 54.890625 11.625 47.5625 5.09375 
Q 40.234375 -1.421875 26.90625 -1.421875 
Q 22.3125 -1.421875 17.546875 -0.640625 
Q 12.796875 0.140625 7.71875 1.703125 
L 7.71875 11.625 
Q 12.109375 9.234375 16.796875 8.0625 
Q 21.484375 6.890625 26.703125 6.890625 
Q 35.15625 6.890625 40.078125 11.328125 
Q 45.015625 15.765625 45.015625 23.390625 
Q 45.015625 31 40.078125 35.4375 
Q 35.15625 39.890625 26.703125 39.890625 
Q 22.75 39.890625 18.8125 39.015625 
Q 14.890625 38.140625 10.796875 36.28125 
z
" id="DejaVuSans-53"/>
       </defs>
       <use xlink:href="#DejaVuSans-8722"/>
       <use x="83.789062" xlink:href="#DejaVuSans-53"/>
      </g>
     </g>
    </g>
    <g id="ytick_3">
     <g id="line2d_17">
      <path clip-path="url(#p90132ca3eb)" d="M 57.6 205.384187 
L 414.72 205.384187 
" style="fill:none;stroke:#b0b0b0;stroke-linecap:square;stroke-width:0.8;"/>
     </g>
     <g id="line2d_18">
      <g>
       <use style="stroke:#000000;stroke-width:0.8;" x="57.6" xlink:href="#m58fadf5a53" y="205.384187"/>
      </g>
     </g>
     <g id="text_9">
      <!-- 0 -->
      <g transform="translate(44.2375 209.183406)scale(0.1 -0.1)">
       <use xlink:href="#DejaVuSans-48"/>
      </g>
     </g>
    </g>
    <g id="ytick_4">
     <g id="line2d_19">
      <path clip-path="url(#p90132ca3eb)" d="M 57.6 157.732353 
L 414.72 157.732353 
" style="fill:none;stroke:#b0b0b0;stroke-linecap:square;stroke-width:0.8;"/>
     </g>
     <g id="line2d_20">
      <g>
       <use style="stroke:#000000;stroke-width:0.8;" x="57.6" xlink:href="#m58fadf5a53" y="157.732353"/>
      </g>
     </g>
     <g id="text_10">
      <!-- 5 -->
      <g transform="translate(44.2375 161.531572)scale(0.1 -0.1)">
       <use xlink:href="#DejaVuSans-53"/>
      </g>
     </g>
    </g>
    <g id="ytick_5">
     <g id="line2d_21">
      <path clip-path="url(#p90132ca3eb)" d="M 57.6 110.08052 
L 414.72 110.08052 
" style="fill:none;stroke:#b0b0b0;stroke-linecap:square;stroke-width:0.8;"/>
     </g>
     <g id="line2d_22">
      <g>
       <use style="stroke:#000000;stroke-width:0.8;" x="57.6" xlink:href="#m58fadf5a53" y="110.08052"/>
      </g>
     </g>
     <g id="text_11">
      <!-- 10 -->
      <g transform="translate(37.875 113.879739)scale(0.1 -0.1)">
       <use xlink:href="#DejaVuSans-49"/>
       <use x="63.623047" xlink:href="#DejaVuSans-48"/>
      </g>
     </g>
    </g>
    <g id="ytick_6">
     <g id="line2d_23">
      <path clip-path="url(#p90132ca3eb)" d="M 57.6 62.428686 
L 414.72 62.428686 
" style="fill:none;stroke:#b0b0b0;stroke-linecap:square;stroke-width:0.8;"/>
     </g>
     <g id="line2d_24">
      <g>
       <use style="stroke:#000000;stroke-width:0.8;" x="57.6" xlink:href="#m58fadf5a53" y="62.428686"/>
      </g>
     </g>
     <g id="text_12">
      <!-- 15 -->
      <g transform="translate(37.875 66.227905)scale(0.1 -0.1)">
       <use xlink:href="#DejaVuSans-49"/>
       <use x="63.623047" xlink:href="#DejaVuSans-53"/>
      </g>
     </g>
    </g>
   </g>
   <g id="line2d_25">
    <path clip-path="url(#p90132ca3eb)" d="M 73.832727 283.849754 
L 77.112066 285.601508 
L 80.391405 287.152576 
L 83.670744 288.493013 
L 86.950083 289.615313 
L 90.229421 290.514595 
L 93.50876 291.188733 
L 96.788099 291.638434 
L 100.067438 291.867264 
L 103.346777 291.881608 
L 106.626116 291.690565 
L 109.905455 291.305787 
L 113.184793 290.741251 
L 116.464132 290.012969 
L 119.743471 289.138649 
L 123.02281 288.137311 
L 126.302149 287.028858 
L 129.581488 285.833622 
L 132.860826 284.571892 
L 136.140165 283.263444 
L 139.419504 281.927068 
L 142.698843 280.580127 
L 145.978182 279.238151 
L 149.257521 277.914478 
L 152.53686 276.619958 
L 155.816198 275.362733 
L 159.095537 274.148094 
L 162.374876 272.978431 
L 165.654215 271.853281 
L 168.933554 270.769462 
L 172.212893 269.721308 
L 175.492231 268.700999 
L 178.77157 267.698962 
L 182.050909 266.704355 
L 185.330248 265.705607 
L 188.609587 264.690994 
L 191.888926 263.649253 
L 195.168264 262.570184 
L 198.447603 261.445253 
L 201.726942 260.268138 
L 205.006281 259.03523 
L 208.28562 257.746047 
L 211.564959 256.403549 
L 214.844298 255.014342 
L 218.123636 253.588745 
L 221.402975 252.140729 
L 224.682314 250.687703 
L 227.961653 249.250167 
L 231.240992 247.851214 
L 234.520331 246.515908 
L 237.799669 245.270544 
L 241.079008 244.141812 
L 244.358347 243.155879 
L 247.637686 242.337429 
L 250.917025 241.708683 
L 254.196364 241.288425 
L 257.475702 241.091079 
L 260.755041 241.125858 
L 264.03438 241.396021 
L 267.313719 241.89827 
L 270.593058 242.622305 
L 273.872397 243.550562 
L 277.151736 244.65816 
L 280.431074 245.913048 
L 283.710413 247.276378 
L 286.989752 248.70308 
L 290.269091 250.142653 
L 293.54843 251.540139 
L 296.827769 252.837261 
L 300.107107 253.973705 
L 303.386446 254.888509 
L 306.665785 255.521517 
L 309.945124 255.814865 
L 313.224463 255.714461 
L 316.503802 255.171406 
L 319.78314 254.143326 
L 323.062479 252.59557 
L 326.341818 250.502246 
L 329.621157 247.847055 
L 332.900496 244.623911 
L 336.179835 240.837314 
L 339.459174 236.502478 
L 342.738512 231.6452 
L 346.017851 226.301485 
L 349.29719 220.516916 
L 352.576529 214.345817 
L 355.855868 207.850199 
L 359.135207 201.098545 
L 362.414545 194.164451 
L 365.693884 187.125167 
L 368.973223 180.060072 
L 372.252562 173.049126 
L 375.531901 166.171335 
L 378.81124 159.503272 
L 382.090579 153.117681 
L 385.369917 147.082206 
L 388.649256 141.458256 
L 391.928595 136.300056 
L 395.207934 131.653865 
L 398.487273 127.557405 
" style="fill:none;stroke:#0000ff;stroke-linecap:square;stroke-width:1.5;"/>
   </g>
   <g id="line2d_26">
    <path clip-path="url(#p90132ca3eb)" d="M 73.832727 280.097841 
L 77.112066 282.154691 
L 80.391405 283.783068 
L 83.670744 285.079857 
L 86.950083 286.113873 
L 90.229421 286.929525 
L 93.50876 287.551533 
L 96.788099 287.990175 
L 100.067438 288.246529 
L 103.346777 288.317277 
L 106.626116 288.198723 
L 109.905455 287.889819 
L 113.184793 287.3941 
L 116.464132 286.72058 
L 119.743471 285.883716 
L 123.02281 284.902664 
L 126.302149 283.800044 
L 129.581488 282.600465 
L 132.860826 281.329023 
L 136.140165 280.009939 
L 139.419504 278.665457 
L 142.698843 277.315067 
L 145.978182 275.975038 
L 149.257521 274.658239 
L 152.53686 273.374188 
L 155.816198 272.129238 
L 159.095537 270.926842 
L 162.374876 269.767837 
L 165.654215 268.650708 
L 168.933554 267.571823 
L 172.212893 266.525644 
L 175.492231 265.504929 
L 178.77157 264.500967 
L 182.050909 263.503862 
L 185.330248 262.502898 
L 188.609587 261.486984 
L 191.888926 260.44519 
L 195.168264 259.367349 
L 198.447603 258.244687 
L 201.726942 257.07047 
L 205.006281 255.840592 
L 208.28562 254.5541 
L 211.564959 253.213591 
L 214.844298 251.825468 
L 218.123636 250.400033 
L 221.402975 248.951408 
L 224.682314 247.497282 
L 227.961653 246.058498 
L 231.240992 244.658484 
L 234.520331 243.322575 
L 237.799669 242.077212 
L 241.079008 240.949083 
L 244.358347 239.96421 
L 247.637686 239.147009 
L 250.917025 238.519362 
L 254.196364 238.099712 
L 257.475702 237.902204 
L 260.755041 237.935899 
L 264.03438 238.204075 
L 267.313719 238.703633 
L 270.593058 239.424637 
L 273.872397 240.349996 
L 277.151736 241.455324 
L 280.431074 242.708986 
L 283.710413 244.072367 
L 286.989752 245.500371 
L 290.269091 246.942161 
L 293.54843 248.342144 
L 296.827769 249.641191 
L 300.107107 250.778041 
L 303.386446 251.690871 
L 306.665785 252.318943 
L 309.945124 252.60427 
L 313.224463 252.49321 
L 316.503802 251.937911 
L 319.78314 250.897556 
L 323.062479 249.339331 
L 326.341818 247.239132 
L 329.621157 244.581996 
L 332.900496 241.3623 
L 336.179835 237.583808 
L 339.459174 233.259608 
L 342.738512 228.412044 
L 346.017851 223.07267 
L 349.29719 217.282269 
L 352.576529 211.090884 
L 355.855868 204.557811 
L 359.135207 197.751394 
L 362.414545 190.748483 
L 365.693884 183.633326 
L 368.973223 176.495741 
L 372.252562 169.42839 
L 375.531901 162.523075 
L 378.81124 155.866072 
L 382.090579 149.532611 
L 385.369917 143.580766 
L 388.649256 138.0451 
L 391.928595 132.930548 
L 395.207934 128.207049 
L 398.487273 123.805492 
" style="fill:none;stroke:#000000;stroke-linecap:square;stroke-width:0.5;"/>
   </g>
   <g id="line2d_27">
    <path clip-path="url(#p90132ca3eb)" d="M 73.832727 287.601667 
L 77.112066 289.048325 
L 80.391405 290.522085 
L 83.670744 291.906169 
L 86.950083 293.116752 
L 90.229421 294.099666 
L 93.50876 294.825934 
L 96.788099 295.286694 
L 100.067438 295.488 
L 103.346777 295.445938 
L 106.626116 295.182406 
L 109.905455 294.721756 
L 113.184793 294.088402 
L 116.464132 293.305357 
L 119.743471 292.393582 
L 123.02281 291.371959 
L 126.302149 290.257672 
L 129.581488 289.066778 
L 132.860826 287.814762 
L 136.140165 286.51695 
L 139.419504 285.188679 
L 142.698843 283.845187 
L 145.978182 282.501265 
L 149.257521 281.170717 
L 152.53686 279.865728 
L 155.816198 278.596228 
L 159.095537 277.369345 
L 162.374876 276.189026 
L 165.654215 275.055855 
L 168.933554 273.967101 
L 172.212893 272.916973 
L 175.492231 271.897069 
L 178.77157 270.896957 
L 182.050909 269.904848 
L 185.330248 268.908315 
L 188.609587 267.895004 
L 191.888926 266.853315 
L 195.168264 265.77302 
L 198.447603 264.645819 
L 201.726942 263.465806 
L 205.006281 262.229867 
L 208.28562 260.937993 
L 211.564959 259.593508 
L 214.844298 258.203217 
L 218.123636 256.777458 
L 221.402975 255.33005 
L 224.682314 253.878124 
L 227.961653 252.441836 
L 231.240992 251.043943 
L 234.520331 249.709241 
L 237.799669 248.463877 
L 241.079008 247.334542 
L 244.358347 246.347549 
L 247.637686 245.52785 
L 250.917025 244.898004 
L 254.196364 244.477138 
L 257.475702 244.279954 
L 260.755041 244.315816 
L 264.03438 244.587968 
L 267.313719 245.092908 
L 270.593058 245.819973 
L 273.872397 246.751128 
L 277.151736 247.860996 
L 280.431074 249.117111 
L 283.710413 250.480388 
L 286.989752 251.905789 
L 290.269091 253.343146 
L 293.54843 254.738134 
L 296.827769 256.033331 
L 300.107107 257.16937 
L 303.386446 258.086148 
L 306.665785 258.72409 
L 309.945124 259.025459 
L 313.224463 258.935712 
L 316.503802 258.404901 
L 319.78314 257.389096 
L 323.062479 255.851809 
L 326.341818 253.76536 
L 329.621157 251.112115 
L 332.900496 247.885523 
L 336.179835 244.09082 
L 339.459174 239.745347 
L 342.738512 234.878356 
L 346.017851 229.530299 
L 349.29719 223.751564 
L 352.576529 217.60075 
L 355.855868 211.142588 
L 359.135207 204.445696 
L 362.414545 197.58042 
L 365.693884 190.617009 
L 368.973223 183.624403 
L 372.252562 176.669861 
L 375.531901 169.819595 
L 378.81124 163.140472 
L 382.090579 156.702752 
L 385.369917 150.583645 
L 388.649256 144.871412 
L 391.928595 139.669565 
L 395.207934 135.100682 
L 398.487273 131.309317 
" style="fill:none;stroke:#000000;stroke-linecap:square;stroke-width:0.5;"/>
   </g>
   <g id="line2d_28">
    <path clip-path="url(#p90132ca3eb)" d="M 73.832727 230.878301 
L 77.112066 232.647939 
L 80.391405 234.215021 
L 83.670744 235.569506 
L 86.950083 236.703823 
L 90.229421 237.613042 
L 93.50876 238.295018 
L 96.788099 238.750464 
L 100.067438 238.98298 
L 103.346777 238.99901 
L 106.626116 238.807739 
L 109.905455 238.420928 
L 113.184793 237.852681 
L 116.464132 237.119162 
L 119.743471 236.238245 
L 123.02281 235.229125 
L 126.302149 234.111891 
L 129.581488 232.907065 
L 132.860826 231.635126 
L 136.140165 230.316033 
L 139.419504 228.968751 
L 142.698843 227.610806 
L 145.978182 226.257873 
L 149.257521 224.923413 
L 152.53686 223.618378 
L 155.816198 222.350986 
L 159.095537 221.126577 
L 162.374876 219.947564 
L 165.654215 218.813479 
L 168.933554 217.721109 
L 172.212893 216.664738 
L 175.492231 215.636471 
L 178.77157 214.626646 
L 182.050909 213.624322 
L 185.330248 212.617817 
L 188.609587 211.5953 
L 191.888926 210.545401 
L 195.168264 209.457828 
L 198.447603 208.323964 
L 201.726942 207.13743 
L 205.006281 205.894583 
L 208.28562 204.594936 
L 211.564959 203.241478 
L 214.844298 201.840875 
L 218.123636 200.403543 
L 221.402975 198.943582 
L 224.682314 197.478566 
L 227.961653 196.029184 
L 231.240992 194.618744 
L 234.520331 193.272545 
L 237.799669 192.017128 
L 241.079008 190.879429 
L 244.358347 189.88586 
L 247.637686 189.061336 
L 250.917025 188.428285 
L 254.196364 188.005665 
L 257.475702 187.808036 
L 260.755041 187.844696 
L 264.03438 188.118936 
L 267.313719 188.627425 
L 270.593058 189.359767 
L 273.872397 190.298236 
L 277.151736 191.417717 
L 280.431074 192.685863 
L 283.710413 194.06346 
L 286.989752 195.505022 
L 290.269091 196.959574 
L 293.54843 198.371647 
L 296.827769 199.68242 
L 300.107107 200.831018 
L 303.386446 201.755909 
L 306.665785 202.396376 
L 309.945124 202.694017 
L 313.224463 202.594235 
L 316.503802 202.047676 
L 319.78314 201.011569 
L 323.062479 199.450942 
L 326.341818 197.33966 
L 329.621157 194.661274 
L 332.900496 191.409639 
L 336.179835 187.589297 
L 339.459174 183.215605 
L 342.738512 178.314602 
L 346.017851 172.922625 
L 349.29719 167.085686 
L 352.576529 160.858612 
L 355.855868 154.303993 
L 359.135207 147.490952 
L 362.414545 140.49377 
L 365.693884 133.390417 
L 368.973223 126.261013 
L 372.252562 119.186262 
L 375.531901 112.245908 
L 378.81124 105.517237 
L 382.090579 99.073673 
L 385.369917 92.983488 
L 388.649256 87.308666 
L 391.928595 82.103935 
L 395.207934 77.415988 
L 398.487273 73.282895 
" style="fill:none;stroke:#ffa500;stroke-linecap:square;stroke-width:1.5;"/>
   </g>
   <g id="line2d_29">
    <path clip-path="url(#p90132ca3eb)" d="M 73.832727 224.766693 
L 77.112066 226.847229 
L 80.391405 228.493152 
L 83.670744 229.803256 
L 86.950083 230.847716 
L 90.229421 231.671818 
L 93.50876 232.300765 
L 96.788099 232.745022 
L 100.067438 233.005653 
L 103.346777 233.079218 
L 106.626116 232.961867 
L 109.905455 232.65242 
L 113.184793 232.154349 
L 116.464132 231.476686 
L 119.743471 230.633991 
L 123.02281 229.645601 
L 126.302149 228.534373 
L 129.581488 227.325184 
L 132.860826 226.04341 
L 136.140165 224.713539 
L 139.419504 223.358056 
L 142.698843 221.996653 
L 145.978182 220.645756 
L 149.257521 219.318351 
L 152.53686 218.024031 
L 155.816198 216.769193 
L 159.095537 215.557303 
L 162.374876 214.389193 
L 165.654215 213.263322 
L 168.933554 212.176022 
L 172.212893 211.121703 
L 175.492231 210.093062 
L 178.77157 209.081314 
L 182.050909 208.076481 
L 185.330248 207.067753 
L 188.609587 206.043943 
L 191.888926 204.994023 
L 195.168264 203.907729 
L 198.447603 202.776206 
L 201.726942 201.59265 
L 205.006281 200.352915 
L 208.28562 199.056033 
L 211.564959 197.704623 
L 214.844298 196.305144 
L 218.123636 194.867996 
L 221.402975 193.407432 
L 224.682314 191.941311 
L 227.961653 190.490671 
L 231.240992 189.079164 
L 234.520331 187.732361 
L 237.799669 186.476953 
L 241.079008 185.339876 
L 244.358347 184.347394 
L 247.637686 183.524147 
L 250.917025 182.892219 
L 254.196364 182.47022 
L 257.475702 182.272426 
L 260.755041 182.307981 
L 264.03438 182.580191 
L 267.313719 183.085934 
L 270.593058 183.815182 
L 273.872397 184.750691 
L 277.151736 185.867851 
L 280.431074 187.134736 
L 283.710413 188.512374 
L 286.989752 189.955247 
L 290.269091 191.412041 
L 293.54843 192.826641 
L 296.827769 194.139356 
L 300.107107 195.288346 
L 303.386446 196.211204 
L 306.665785 196.84662 
L 309.945124 197.136065 
L 313.224463 197.0254 
L 316.503802 196.46634 
L 319.78314 195.417698 
L 323.062479 193.846374 
L 326.341818 191.728056 
L 329.621157 189.047652 
L 332.900496 185.799494 
L 336.179835 181.987372 
L 339.459174 177.624477 
L 342.738512 172.733327 
L 346.017851 167.345731 
L 349.29719 161.502805 
L 352.576529 155.25502 
L 355.855868 148.662197 
L 359.135207 141.793319 
L 362.414545 134.72598 
L 365.693884 127.545281 
L 368.973223 120.341976 
L 372.252562 113.209708 
L 375.531901 106.241258 
L 378.81124 99.523796 
L 382.090579 93.133279 
L 385.369917 87.12823 
L 388.649256 81.543282 
L 391.928595 76.382952 
L 395.207934 71.616182 
L 398.487273 67.172211 
" style="fill:none;stroke:#000000;stroke-linecap:square;stroke-width:0.5;"/>
   </g>
   <g id="line2d_30">
    <path clip-path="url(#p90132ca3eb)" d="M 73.832727 236.989908 
L 77.112066 238.448649 
L 80.391405 239.93689 
L 83.670744 241.335757 
L 86.950083 242.559929 
L 90.229421 243.554266 
L 93.50876 244.28927 
L 96.788099 244.755906 
L 100.067438 244.960308 
L 103.346777 244.918802 
L 106.626116 244.653612 
L 109.905455 244.189436 
L 113.184793 243.551014 
L 116.464132 242.761639 
L 119.743471 241.842498 
L 123.02281 240.812648 
L 126.302149 239.689409 
L 129.581488 238.488945 
L 132.860826 237.226842 
L 136.140165 235.918527 
L 139.419504 234.579446 
L 142.698843 233.224959 
L 145.978182 231.86999 
L 149.257521 230.528475 
L 152.53686 229.212725 
L 155.816198 227.932779 
L 159.095537 226.69585 
L 162.374876 225.505935 
L 165.654215 224.363635 
L 168.933554 223.266196 
L 172.212893 222.207773 
L 175.492231 221.17988 
L 178.77157 220.171979 
L 182.050909 219.172163 
L 185.330248 218.167881 
L 188.609587 217.146657 
L 191.888926 216.09678 
L 195.168264 215.007928 
L 198.447603 213.871723 
L 201.726942 212.68221 
L 205.006281 211.436251 
L 208.28562 210.133839 
L 211.564959 208.778334 
L 214.844298 207.376607 
L 218.123636 205.939091 
L 221.402975 204.479733 
L 224.682314 203.015821 
L 227.961653 201.567697 
L 231.240992 200.158324 
L 234.520331 198.812729 
L 237.799669 197.557302 
L 241.079008 196.418981 
L 244.358347 195.424326 
L 247.637686 194.598526 
L 250.917025 193.964351 
L 254.196364 193.541111 
L 257.475702 193.343647 
L 260.755041 193.381412 
L 264.03438 193.65768 
L 267.313719 194.168916 
L 270.593058 194.904351 
L 273.872397 195.84578 
L 277.151736 196.967583 
L 280.431074 198.23699 
L 283.710413 199.614547 
L 286.989752 201.054796 
L 290.269091 202.507108 
L 293.54843 203.916653 
L 296.827769 205.225484 
L 300.107107 206.373689 
L 303.386446 207.300613 
L 306.665785 207.946131 
L 309.945124 208.251969 
L 313.224463 208.16307 
L 316.503802 207.629012 
L 319.78314 206.605441 
L 323.062479 205.05551 
L 326.341818 202.951265 
L 329.621157 200.274896 
L 332.900496 197.019783 
L 336.179835 193.191223 
L 339.459174 188.806734 
L 342.738512 183.895876 
L 346.017851 178.499519 
L 349.29719 172.668566 
L 352.576529 166.462203 
L 355.855868 159.94579 
L 359.135207 153.188585 
L 362.414545 146.26156 
L 365.693884 139.235553 
L 368.973223 132.18005 
L 372.252562 125.162815 
L 375.531901 118.250558 
L 378.81124 111.510679 
L 382.090579 105.014068 
L 385.369917 98.838746 
L 388.649256 93.074049 
L 391.928595 87.824919 
L 395.207934 83.215793 
L 398.487273 79.39358 
" style="fill:none;stroke:#000000;stroke-linecap:square;stroke-width:0.5;"/>
   </g>
   <g id="line2d_31">
    <path clip-path="url(#p90132ca3eb)" d="M 73.832727 283.880052 
L 77.112066 285.29448 
L 80.391405 286.661788 
L 83.670744 287.937429 
L 86.950083 289.082823 
L 90.229421 290.065795 
L 93.50876 290.86084 
L 96.788099 291.449218 
L 100.067438 291.818881 
L 103.346777 291.964246 
L 106.626116 291.885824 
L 109.905455 291.589722 
L 113.184793 291.087035 
L 116.464132 290.393152 
L 119.743471 289.526989 
L 123.02281 288.510183 
L 126.302149 287.366258 
L 129.581488 286.119789 
L 132.860826 284.795597 
L 136.140165 283.417971 
L 139.419504 282.009961 
L 142.698843 280.592749 
L 145.978182 279.185097 
L 149.257521 277.802919 
L 152.53686 276.458945 
L 155.816198 275.162516 
L 159.095537 273.91949 
L 162.374876 272.73227 
L 165.654215 271.599947 
L 168.933554 270.518549 
L 172.212893 269.481391 
L 175.492231 268.479507 
L 178.77157 267.502153 
L 182.050909 266.537373 
L 185.330248 265.572593 
L 188.609587 264.59524 
L 191.888926 263.593355 
L 195.168264 262.556197 
L 198.447603 261.474799 
L 201.726942 260.342476 
L 205.006281 259.155256 
L 208.28562 257.91223 
L 211.564959 256.615801 
L 214.844298 255.271827 
L 218.123636 253.889649 
L 221.402975 252.481998 
L 224.682314 251.064785 
L 227.961653 249.656776 
L 231.240992 248.279149 
L 234.520331 246.954957 
L 237.799669 245.708489 
L 241.079008 244.564563 
L 244.358347 243.547757 
L 247.637686 242.681595 
L 250.917025 241.987711 
L 254.196364 241.485024 
L 257.475702 241.188922 
L 260.755041 241.1105 
L 264.03438 241.255865 
L 267.313719 241.625528 
L 270.593058 242.213906 
L 273.872397 243.008951 
L 277.151736 243.991923 
L 280.431074 245.137317 
L 283.710413 246.412959 
L 286.989752 247.780267 
L 290.269091 249.194695 
L 293.54843 250.606343 
L 296.827769 251.960738 
L 300.107107 253.199768 
L 303.386446 254.262766 
L 306.665785 255.087718 
L 309.945124 255.612572 
L 313.224463 255.776639 
L 316.503802 255.522037 
L 319.78314 254.795172 
L 323.062479 253.5482 
L 326.341818 251.740463 
L 329.621157 249.339845 
L 332.900496 246.324034 
L 336.179835 242.681636 
L 339.459174 238.413135 
L 342.738512 233.531651 
L 346.017851 228.063483 
L 349.29719 222.048407 
L 352.576529 215.539719 
L 355.855868 208.604002 
L 359.135207 201.320616 
L 362.414545 193.7809 
L 365.693884 186.087097 
L 368.973223 178.351002 
L 372.252562 170.69236 
L 375.531901 163.237012 
L 378.81124 156.114843 
L 382.090579 149.457535 
L 385.369917 143.396176 
L 388.649256 138.058768 
L 391.928595 133.567659 
L 395.207934 130.036965 
L 398.487273 127.57002 
" style="fill:none;stroke:#0000ff;stroke-dasharray:5.55,2.4;stroke-dashoffset:0;stroke-width:1.5;"/>
   </g>
   <g id="line2d_32">
    <path clip-path="url(#p90132ca3eb)" d="M 73.832727 175.580729 
L 77.112066 180.334912 
L 80.391405 184.994855 
L 83.670744 189.471464 
L 86.950083 193.687579 
L 90.229421 197.578849 
L 93.50876 201.094266 
L 96.788099 204.196348 
L 100.067438 206.861001 
L 103.346777 209.077058 
L 106.626116 210.845541 
L 109.905455 212.178663 
L 113.184793 213.098615 
L 116.464132 213.636175 
L 119.743471 213.829176 
L 123.02281 213.720891 
L 126.302149 213.358367 
L 129.581488 212.790757 
L 132.860826 212.067699 
L 136.140165 211.237773 
L 139.419504 210.347081 
L 142.698843 209.437982 
L 145.978182 208.548006 
L 149.257521 207.708976 
L 152.53686 206.946355 
L 155.816198 206.278824 
L 159.095537 205.718098 
L 162.374876 205.268984 
L 165.654215 204.929665 
L 168.933554 204.692196 
L 172.212893 204.543207 
L 175.492231 204.464764 
L 178.77157 204.435383 
L 182.050909 204.43115 
L 185.330248 204.426917 
L 188.609587 204.397537 
L 191.888926 204.319093 
L 195.168264 204.170104 
L 198.447603 203.932636 
L 201.726942 203.593316 
L 205.006281 203.144202 
L 208.28562 202.583477 
L 211.564959 201.915945 
L 214.844298 201.153325 
L 218.123636 200.314295 
L 221.402975 199.424318 
L 224.682314 198.515219 
L 227.961653 197.624528 
L 231.240992 196.794602 
L 234.520331 196.071543 
L 237.799669 195.503933 
L 241.079008 195.141409 
L 244.358347 195.033124 
L 247.637686 195.226125 
L 250.917025 195.763685 
L 254.196364 196.683638 
L 257.475702 198.01676 
L 260.755041 199.785243 
L 264.03438 202.0013 
L 267.313719 204.665952 
L 270.593058 207.768035 
L 273.872397 211.283451 
L 277.151736 215.174721 
L 280.431074 219.390836 
L 283.710413 223.867446 
L 286.989752 228.527388 
L 290.269091 233.281571 
L 293.54843 238.030195 
L 296.827769 242.664311 
L 300.107107 247.067698 
L 303.386446 251.119021 
L 306.665785 254.69425 
L 309.945124 257.669285 
L 313.224463 259.922745 
L 316.503802 261.33887 
L 319.78314 261.810466 
L 323.062479 261.241849 
L 326.341818 259.5517 
L 329.621157 256.675792 
L 332.900496 252.569496 
L 336.179835 247.210027 
L 339.459174 240.598352 
L 342.738512 232.76071 
L 346.017851 223.7497 
L 349.29719 213.644874 
L 352.576529 202.552824 
L 355.855868 190.606718 
L 359.135207 177.965273 
L 362.414545 164.811168 
L 365.693884 151.348887 
L 368.973223 137.802025 
L 372.252562 124.410066 
L 375.531901 111.424698 
L 378.81124 99.105687 
L 382.090579 87.716396 
L 385.369917 77.519006 
L 388.649256 68.769516 
L 391.928595 61.712625 
L 395.207934 56.576564 
L 398.487273 53.568 
" style="fill:none;stroke:#ffa500;stroke-dasharray:5.55,2.4;stroke-dashoffset:0;stroke-width:1.5;"/>
   </g>
   <g id="patch_3">
    <path d="M 57.6 307.584 
L 57.6 41.472 
" style="fill:none;stroke:#000000;stroke-linecap:square;stroke-linejoin:miter;stroke-width:0.8;"/>
   </g>
   <g id="patch_4">
    <path d="M 414.72 307.584 
L 414.72 41.472 
" style="fill:none;stroke:#000000;stroke-linecap:square;stroke-linejoin:miter;stroke-width:0.8;"/>
   </g>
   <g id="patch_5">
    <path d="M 57.6 307.584 
L 414.72 307.584 
" style="fill:none;stroke:#000000;stroke-linecap:square;stroke-linejoin:miter;stroke-width:0.8;"/>
   </g>
   <g id="patch_6">
    <path d="M 57.6 41.472 
L 414.72 41.472 
" style="fill:none;stroke:#000000;stroke-linecap:square;stroke-linejoin:miter;stroke-width:0.8;"/>
   </g>
   <g id="legend_1">
    <g id="patch_7">
     <path d="M 64.6 108.1845 
L 239.15625 108.1845 
Q 241.15625 108.1845 241.15625 106.1845 
L 241.15625 48.472 
Q 241.15625 46.472 239.15625 46.472 
L 64.6 46.472 
Q 62.6 46.472 62.6 48.472 
L 62.6 106.1845 
Q 62.6 108.1845 64.6 108.1845 
z
" style="fill:#ffffff;opacity:0.8;stroke:#cccccc;stroke-linejoin:miter;"/>
    </g>
    <g id="line2d_33">
     <path d="M 66.6 54.570438 
L 86.6 54.570438 
" style="fill:none;stroke:#0000ff;stroke-linecap:square;stroke-width:1.5;"/>
    </g>
    <g id="line2d_34"/>
    <g id="text_13">
     <!-- MF cheap GPR (regular GPR) -->
     <g transform="translate(94.6 58.070438)scale(0.1 -0.1)">
      <defs>
       <path d="M 9.8125 72.90625 
L 24.515625 72.90625 
L 43.109375 23.296875 
L 61.8125 72.90625 
L 76.515625 72.90625 
L 76.515625 0 
L 66.890625 0 
L 66.890625 64.015625 
L 48.09375 14.015625 
L 38.1875 14.015625 
L 19.390625 64.015625 
L 19.390625 0 
L 9.8125 0 
z
" id="DejaVuSans-77"/>
       <path d="M 9.8125 72.90625 
L 51.703125 72.90625 
L 51.703125 64.59375 
L 19.671875 64.59375 
L 19.671875 43.109375 
L 48.578125 43.109375 
L 48.578125 34.8125 
L 19.671875 34.8125 
L 19.671875 0 
L 9.8125 0 
z
" id="DejaVuSans-70"/>
       <path id="DejaVuSans-32"/>
       <path d="M 48.78125 52.59375 
L 48.78125 44.1875 
Q 44.96875 46.296875 41.140625 47.34375 
Q 37.3125 48.390625 33.40625 48.390625 
Q 24.65625 48.390625 19.8125 42.84375 
Q 14.984375 37.3125 14.984375 27.296875 
Q 14.984375 17.28125 19.8125 11.734375 
Q 24.65625 6.203125 33.40625 6.203125 
Q 37.3125 6.203125 41.140625 7.25 
Q 44.96875 8.296875 48.78125 10.40625 
L 48.78125 2.09375 
Q 45.015625 0.34375 40.984375 -0.53125 
Q 36.96875 -1.421875 32.421875 -1.421875 
Q 20.0625 -1.421875 12.78125 6.34375 
Q 5.515625 14.109375 5.515625 27.296875 
Q 5.515625 40.671875 12.859375 48.328125 
Q 20.21875 56 33.015625 56 
Q 37.15625 56 41.109375 55.140625 
Q 45.0625 54.296875 48.78125 52.59375 
z
" id="DejaVuSans-99"/>
       <path d="M 54.890625 33.015625 
L 54.890625 0 
L 45.90625 0 
L 45.90625 32.71875 
Q 45.90625 40.484375 42.875 44.328125 
Q 39.84375 48.1875 33.796875 48.1875 
Q 26.515625 48.1875 22.3125 43.546875 
Q 18.109375 38.921875 18.109375 30.90625 
L 18.109375 0 
L 9.078125 0 
L 9.078125 75.984375 
L 18.109375 75.984375 
L 18.109375 46.1875 
Q 21.34375 51.125 25.703125 53.5625 
Q 30.078125 56 35.796875 56 
Q 45.21875 56 50.046875 50.171875 
Q 54.890625 44.34375 54.890625 33.015625 
z
" id="DejaVuSans-104"/>
       <path d="M 56.203125 29.59375 
L 56.203125 25.203125 
L 14.890625 25.203125 
Q 15.484375 15.921875 20.484375 11.0625 
Q 25.484375 6.203125 34.421875 6.203125 
Q 39.59375 6.203125 44.453125 7.46875 
Q 49.3125 8.734375 54.109375 11.28125 
L 54.109375 2.78125 
Q 49.265625 0.734375 44.1875 -0.34375 
Q 39.109375 -1.421875 33.890625 -1.421875 
Q 20.796875 -1.421875 13.15625 6.1875 
Q 5.515625 13.8125 5.515625 26.8125 
Q 5.515625 40.234375 12.765625 48.109375 
Q 20.015625 56 32.328125 56 
Q 43.359375 56 49.78125 48.890625 
Q 56.203125 41.796875 56.203125 29.59375 
z
M 47.21875 32.234375 
Q 47.125 39.59375 43.09375 43.984375 
Q 39.0625 48.390625 32.421875 48.390625 
Q 24.90625 48.390625 20.390625 44.140625 
Q 15.875 39.890625 15.1875 32.171875 
z
" id="DejaVuSans-101"/>
       <path d="M 34.28125 27.484375 
Q 23.390625 27.484375 19.1875 25 
Q 14.984375 22.515625 14.984375 16.5 
Q 14.984375 11.71875 18.140625 8.90625 
Q 21.296875 6.109375 26.703125 6.109375 
Q 34.1875 6.109375 38.703125 11.40625 
Q 43.21875 16.703125 43.21875 25.484375 
L 43.21875 27.484375 
z
M 52.203125 31.203125 
L 52.203125 0 
L 43.21875 0 
L 43.21875 8.296875 
Q 40.140625 3.328125 35.546875 0.953125 
Q 30.953125 -1.421875 24.3125 -1.421875 
Q 15.921875 -1.421875 10.953125 3.296875 
Q 6 8.015625 6 15.921875 
Q 6 25.140625 12.171875 29.828125 
Q 18.359375 34.515625 30.609375 34.515625 
L 43.21875 34.515625 
L 43.21875 35.40625 
Q 43.21875 41.609375 39.140625 45 
Q 35.0625 48.390625 27.6875 48.390625 
Q 23 48.390625 18.546875 47.265625 
Q 14.109375 46.140625 10.015625 43.890625 
L 10.015625 52.203125 
Q 14.9375 54.109375 19.578125 55.046875 
Q 24.21875 56 28.609375 56 
Q 40.484375 56 46.34375 49.84375 
Q 52.203125 43.703125 52.203125 31.203125 
z
" id="DejaVuSans-97"/>
       <path d="M 18.109375 8.203125 
L 18.109375 -20.796875 
L 9.078125 -20.796875 
L 9.078125 54.6875 
L 18.109375 54.6875 
L 18.109375 46.390625 
Q 20.953125 51.265625 25.265625 53.625 
Q 29.59375 56 35.59375 56 
Q 45.5625 56 51.78125 48.09375 
Q 58.015625 40.1875 58.015625 27.296875 
Q 58.015625 14.40625 51.78125 6.484375 
Q 45.5625 -1.421875 35.59375 -1.421875 
Q 29.59375 -1.421875 25.265625 0.953125 
Q 20.953125 3.328125 18.109375 8.203125 
z
M 48.6875 27.296875 
Q 48.6875 37.203125 44.609375 42.84375 
Q 40.53125 48.484375 33.40625 48.484375 
Q 26.265625 48.484375 22.1875 42.84375 
Q 18.109375 37.203125 18.109375 27.296875 
Q 18.109375 17.390625 22.1875 11.75 
Q 26.265625 6.109375 33.40625 6.109375 
Q 40.53125 6.109375 44.609375 11.75 
Q 48.6875 17.390625 48.6875 27.296875 
z
" id="DejaVuSans-112"/>
       <path d="M 59.515625 10.40625 
L 59.515625 29.984375 
L 43.40625 29.984375 
L 43.40625 38.09375 
L 69.28125 38.09375 
L 69.28125 6.78125 
Q 63.578125 2.734375 56.6875 0.65625 
Q 49.8125 -1.421875 42 -1.421875 
Q 24.90625 -1.421875 15.25 8.5625 
Q 5.609375 18.5625 5.609375 36.375 
Q 5.609375 54.25 15.25 64.234375 
Q 24.90625 74.21875 42 74.21875 
Q 49.125 74.21875 55.546875 72.453125 
Q 61.96875 70.703125 67.390625 67.28125 
L 67.390625 56.78125 
Q 61.921875 61.421875 55.765625 63.765625 
Q 49.609375 66.109375 42.828125 66.109375 
Q 29.4375 66.109375 22.71875 58.640625 
Q 16.015625 51.171875 16.015625 36.375 
Q 16.015625 21.625 22.71875 14.15625 
Q 29.4375 6.6875 42.828125 6.6875 
Q 48.046875 6.6875 52.140625 7.59375 
Q 56.25 8.5 59.515625 10.40625 
z
" id="DejaVuSans-71"/>
       <path d="M 19.671875 64.796875 
L 19.671875 37.40625 
L 32.078125 37.40625 
Q 38.96875 37.40625 42.71875 40.96875 
Q 46.484375 44.53125 46.484375 51.125 
Q 46.484375 57.671875 42.71875 61.234375 
Q 38.96875 64.796875 32.078125 64.796875 
z
M 9.8125 72.90625 
L 32.078125 72.90625 
Q 44.34375 72.90625 50.609375 67.359375 
Q 56.890625 61.8125 56.890625 51.125 
Q 56.890625 40.328125 50.609375 34.8125 
Q 44.34375 29.296875 32.078125 29.296875 
L 19.671875 29.296875 
L 19.671875 0 
L 9.8125 0 
z
" id="DejaVuSans-80"/>
       <path d="M 44.390625 34.1875 
Q 47.5625 33.109375 50.5625 29.59375 
Q 53.5625 26.078125 56.59375 19.921875 
L 66.609375 0 
L 56 0 
L 46.6875 18.703125 
Q 43.0625 26.03125 39.671875 28.421875 
Q 36.28125 30.8125 30.421875 30.8125 
L 19.671875 30.8125 
L 19.671875 0 
L 9.8125 0 
L 9.8125 72.90625 
L 32.078125 72.90625 
Q 44.578125 72.90625 50.734375 67.671875 
Q 56.890625 62.453125 56.890625 51.90625 
Q 56.890625 45.015625 53.6875 40.46875 
Q 50.484375 35.9375 44.390625 34.1875 
z
M 19.671875 64.796875 
L 19.671875 38.921875 
L 32.078125 38.921875 
Q 39.203125 38.921875 42.84375 42.21875 
Q 46.484375 45.515625 46.484375 51.90625 
Q 46.484375 58.296875 42.84375 61.546875 
Q 39.203125 64.796875 32.078125 64.796875 
z
" id="DejaVuSans-82"/>
       <path d="M 31 75.875 
Q 24.46875 64.65625 21.28125 53.65625 
Q 18.109375 42.671875 18.109375 31.390625 
Q 18.109375 20.125 21.3125 9.0625 
Q 24.515625 -2 31 -13.1875 
L 23.1875 -13.1875 
Q 15.875 -1.703125 12.234375 9.375 
Q 8.59375 20.453125 8.59375 31.390625 
Q 8.59375 42.28125 12.203125 53.3125 
Q 15.828125 64.359375 23.1875 75.875 
z
" id="DejaVuSans-40"/>
       <path d="M 41.109375 46.296875 
Q 39.59375 47.171875 37.8125 47.578125 
Q 36.03125 48 33.890625 48 
Q 26.265625 48 22.1875 43.046875 
Q 18.109375 38.09375 18.109375 28.8125 
L 18.109375 0 
L 9.078125 0 
L 9.078125 54.6875 
L 18.109375 54.6875 
L 18.109375 46.1875 
Q 20.953125 51.171875 25.484375 53.578125 
Q 30.03125 56 36.53125 56 
Q 37.453125 56 38.578125 55.875 
Q 39.703125 55.765625 41.0625 55.515625 
z
" id="DejaVuSans-114"/>
       <path d="M 45.40625 27.984375 
Q 45.40625 37.75 41.375 43.109375 
Q 37.359375 48.484375 30.078125 48.484375 
Q 22.859375 48.484375 18.828125 43.109375 
Q 14.796875 37.75 14.796875 27.984375 
Q 14.796875 18.265625 18.828125 12.890625 
Q 22.859375 7.515625 30.078125 7.515625 
Q 37.359375 7.515625 41.375 12.890625 
Q 45.40625 18.265625 45.40625 27.984375 
z
M 54.390625 6.78125 
Q 54.390625 -7.171875 48.1875 -13.984375 
Q 42 -20.796875 29.203125 -20.796875 
Q 24.46875 -20.796875 20.265625 -20.09375 
Q 16.0625 -19.390625 12.109375 -17.921875 
L 12.109375 -9.1875 
Q 16.0625 -11.328125 19.921875 -12.34375 
Q 23.78125 -13.375 27.78125 -13.375 
Q 36.625 -13.375 41.015625 -8.765625 
Q 45.40625 -4.15625 45.40625 5.171875 
L 45.40625 9.625 
Q 42.625 4.78125 38.28125 2.390625 
Q 33.9375 0 27.875 0 
Q 17.828125 0 11.671875 7.65625 
Q 5.515625 15.328125 5.515625 27.984375 
Q 5.515625 40.671875 11.671875 48.328125 
Q 17.828125 56 27.875 56 
Q 33.9375 56 38.28125 53.609375 
Q 42.625 51.21875 45.40625 46.390625 
L 45.40625 54.6875 
L 54.390625 54.6875 
z
" id="DejaVuSans-103"/>
       <path d="M 8.5 21.578125 
L 8.5 54.6875 
L 17.484375 54.6875 
L 17.484375 21.921875 
Q 17.484375 14.15625 20.5 10.265625 
Q 23.53125 6.390625 29.59375 6.390625 
Q 36.859375 6.390625 41.078125 11.03125 
Q 45.3125 15.671875 45.3125 23.6875 
L 45.3125 54.6875 
L 54.296875 54.6875 
L 54.296875 0 
L 45.3125 0 
L 45.3125 8.40625 
Q 42.046875 3.421875 37.71875 1 
Q 33.40625 -1.421875 27.6875 -1.421875 
Q 18.265625 -1.421875 13.375 4.4375 
Q 8.5 10.296875 8.5 21.578125 
z
M 31.109375 56 
z
" id="DejaVuSans-117"/>
       <path d="M 9.421875 75.984375 
L 18.40625 75.984375 
L 18.40625 0 
L 9.421875 0 
z
" id="DejaVuSans-108"/>
       <path d="M 8.015625 75.875 
L 15.828125 75.875 
Q 23.140625 64.359375 26.78125 53.3125 
Q 30.421875 42.28125 30.421875 31.390625 
Q 30.421875 20.453125 26.78125 9.375 
Q 23.140625 -1.703125 15.828125 -13.1875 
L 8.015625 -13.1875 
Q 14.5 -2 17.703125 9.0625 
Q 20.90625 20.125 20.90625 31.390625 
Q 20.90625 42.671875 17.703125 53.65625 
Q 14.5 64.65625 8.015625 75.875 
z
" id="DejaVuSans-41"/>
      </defs>
      <use xlink:href="#DejaVuSans-77"/>
      <use x="86.279297" xlink:href="#DejaVuSans-70"/>
      <use x="143.798828" xlink:href="#DejaVuSans-32"/>
      <use x="175.585938" xlink:href="#DejaVuSans-99"/>
      <use x="230.566406" xlink:href="#DejaVuSans-104"/>
      <use x="293.945312" xlink:href="#DejaVuSans-101"/>
      <use x="355.46875" xlink:href="#DejaVuSans-97"/>
      <use x="416.748047" xlink:href="#DejaVuSans-112"/>
      <use x="480.224609" xlink:href="#DejaVuSans-32"/>
      <use x="512.011719" xlink:href="#DejaVuSans-71"/>
      <use x="589.501953" xlink:href="#DejaVuSans-80"/>
      <use x="649.804688" xlink:href="#DejaVuSans-82"/>
      <use x="719.287109" xlink:href="#DejaVuSans-32"/>
      <use x="751.074219" xlink:href="#DejaVuSans-40"/>
      <use x="790.087891" xlink:href="#DejaVuSans-114"/>
      <use x="828.951172" xlink:href="#DejaVuSans-101"/>
      <use x="890.474609" xlink:href="#DejaVuSans-103"/>
      <use x="953.951172" xlink:href="#DejaVuSans-117"/>
      <use x="1017.330078" xlink:href="#DejaVuSans-108"/>
      <use x="1045.113281" xlink:href="#DejaVuSans-97"/>
      <use x="1106.392578" xlink:href="#DejaVuSans-114"/>
      <use x="1147.505859" xlink:href="#DejaVuSans-32"/>
      <use x="1179.292969" xlink:href="#DejaVuSans-71"/>
      <use x="1256.783203" xlink:href="#DejaVuSans-80"/>
      <use x="1317.085938" xlink:href="#DejaVuSans-82"/>
      <use x="1386.568359" xlink:href="#DejaVuSans-41"/>
     </g>
    </g>
    <g id="line2d_35">
     <path d="M 66.6 69.248563 
L 86.6 69.248563 
" style="fill:none;stroke:#ffa500;stroke-linecap:square;stroke-width:1.5;"/>
    </g>
    <g id="line2d_36"/>
    <g id="text_14">
     <!-- MF expensive GPR -->
     <g transform="translate(94.6 72.748563)scale(0.1 -0.1)">
      <defs>
       <path d="M 54.890625 54.6875 
L 35.109375 28.078125 
L 55.90625 0 
L 45.3125 0 
L 29.390625 21.484375 
L 13.484375 0 
L 2.875 0 
L 24.125 28.609375 
L 4.6875 54.6875 
L 15.28125 54.6875 
L 29.78125 35.203125 
L 44.28125 54.6875 
z
" id="DejaVuSans-120"/>
       <path d="M 54.890625 33.015625 
L 54.890625 0 
L 45.90625 0 
L 45.90625 32.71875 
Q 45.90625 40.484375 42.875 44.328125 
Q 39.84375 48.1875 33.796875 48.1875 
Q 26.515625 48.1875 22.3125 43.546875 
Q 18.109375 38.921875 18.109375 30.90625 
L 18.109375 0 
L 9.078125 0 
L 9.078125 54.6875 
L 18.109375 54.6875 
L 18.109375 46.1875 
Q 21.34375 51.125 25.703125 53.5625 
Q 30.078125 56 35.796875 56 
Q 45.21875 56 50.046875 50.171875 
Q 54.890625 44.34375 54.890625 33.015625 
z
" id="DejaVuSans-110"/>
       <path d="M 44.28125 53.078125 
L 44.28125 44.578125 
Q 40.484375 46.53125 36.375 47.5 
Q 32.28125 48.484375 27.875 48.484375 
Q 21.1875 48.484375 17.84375 46.4375 
Q 14.5 44.390625 14.5 40.28125 
Q 14.5 37.15625 16.890625 35.375 
Q 19.28125 33.59375 26.515625 31.984375 
L 29.59375 31.296875 
Q 39.15625 29.25 43.1875 25.515625 
Q 47.21875 21.78125 47.21875 15.09375 
Q 47.21875 7.46875 41.1875 3.015625 
Q 35.15625 -1.421875 24.609375 -1.421875 
Q 20.21875 -1.421875 15.453125 -0.5625 
Q 10.6875 0.296875 5.421875 2 
L 5.421875 11.28125 
Q 10.40625 8.6875 15.234375 7.390625 
Q 20.0625 6.109375 24.8125 6.109375 
Q 31.15625 6.109375 34.5625 8.28125 
Q 37.984375 10.453125 37.984375 14.40625 
Q 37.984375 18.0625 35.515625 20.015625 
Q 33.0625 21.96875 24.703125 23.78125 
L 21.578125 24.515625 
Q 13.234375 26.265625 9.515625 29.90625 
Q 5.8125 33.546875 5.8125 39.890625 
Q 5.8125 47.609375 11.28125 51.796875 
Q 16.75 56 26.8125 56 
Q 31.78125 56 36.171875 55.265625 
Q 40.578125 54.546875 44.28125 53.078125 
z
" id="DejaVuSans-115"/>
       <path d="M 9.421875 54.6875 
L 18.40625 54.6875 
L 18.40625 0 
L 9.421875 0 
z
M 9.421875 75.984375 
L 18.40625 75.984375 
L 18.40625 64.59375 
L 9.421875 64.59375 
z
" id="DejaVuSans-105"/>
       <path d="M 2.984375 54.6875 
L 12.5 54.6875 
L 29.59375 8.796875 
L 46.6875 54.6875 
L 56.203125 54.6875 
L 35.6875 0 
L 23.484375 0 
z
" id="DejaVuSans-118"/>
      </defs>
      <use xlink:href="#DejaVuSans-77"/>
      <use x="86.279297" xlink:href="#DejaVuSans-70"/>
      <use x="143.798828" xlink:href="#DejaVuSans-32"/>
      <use x="175.585938" xlink:href="#DejaVuSans-101"/>
      <use x="235.359375" xlink:href="#DejaVuSans-120"/>
      <use x="294.539062" xlink:href="#DejaVuSans-112"/>
      <use x="358.015625" xlink:href="#DejaVuSans-101"/>
      <use x="419.539062" xlink:href="#DejaVuSans-110"/>
      <use x="482.917969" xlink:href="#DejaVuSans-115"/>
      <use x="535.017578" xlink:href="#DejaVuSans-105"/>
      <use x="562.800781" xlink:href="#DejaVuSans-118"/>
      <use x="621.980469" xlink:href="#DejaVuSans-101"/>
      <use x="683.503906" xlink:href="#DejaVuSans-32"/>
      <use x="715.291016" xlink:href="#DejaVuSans-71"/>
      <use x="792.78125" xlink:href="#DejaVuSans-80"/>
      <use x="853.083984" xlink:href="#DejaVuSans-82"/>
     </g>
    </g>
    <g id="line2d_37">
     <path d="M 66.6 83.926688 
L 86.6 83.926688 
" style="fill:none;stroke:#0000ff;stroke-dasharray:5.55,2.4;stroke-dashoffset:0;stroke-width:1.5;"/>
    </g>
    <g id="line2d_38"/>
    <g id="text_15">
     <!-- Exact cheap function -->
     <g transform="translate(94.6 87.426688)scale(0.1 -0.1)">
      <defs>
       <path d="M 9.8125 72.90625 
L 55.90625 72.90625 
L 55.90625 64.59375 
L 19.671875 64.59375 
L 19.671875 43.015625 
L 54.390625 43.015625 
L 54.390625 34.71875 
L 19.671875 34.71875 
L 19.671875 8.296875 
L 56.78125 8.296875 
L 56.78125 0 
L 9.8125 0 
z
" id="DejaVuSans-69"/>
       <path d="M 18.3125 70.21875 
L 18.3125 54.6875 
L 36.8125 54.6875 
L 36.8125 47.703125 
L 18.3125 47.703125 
L 18.3125 18.015625 
Q 18.3125 11.328125 20.140625 9.421875 
Q 21.96875 7.515625 27.59375 7.515625 
L 36.8125 7.515625 
L 36.8125 0 
L 27.59375 0 
Q 17.1875 0 13.234375 3.875 
Q 9.28125 7.765625 9.28125 18.015625 
L 9.28125 47.703125 
L 2.6875 47.703125 
L 2.6875 54.6875 
L 9.28125 54.6875 
L 9.28125 70.21875 
z
" id="DejaVuSans-116"/>
       <path d="M 37.109375 75.984375 
L 37.109375 68.5 
L 28.515625 68.5 
Q 23.6875 68.5 21.796875 66.546875 
Q 19.921875 64.59375 19.921875 59.515625 
L 19.921875 54.6875 
L 34.71875 54.6875 
L 34.71875 47.703125 
L 19.921875 47.703125 
L 19.921875 0 
L 10.890625 0 
L 10.890625 47.703125 
L 2.296875 47.703125 
L 2.296875 54.6875 
L 10.890625 54.6875 
L 10.890625 58.5 
Q 10.890625 67.625 15.140625 71.796875 
Q 19.390625 75.984375 28.609375 75.984375 
z
" id="DejaVuSans-102"/>
       <path d="M 30.609375 48.390625 
Q 23.390625 48.390625 19.1875 42.75 
Q 14.984375 37.109375 14.984375 27.296875 
Q 14.984375 17.484375 19.15625 11.84375 
Q 23.34375 6.203125 30.609375 6.203125 
Q 37.796875 6.203125 41.984375 11.859375 
Q 46.1875 17.53125 46.1875 27.296875 
Q 46.1875 37.015625 41.984375 42.703125 
Q 37.796875 48.390625 30.609375 48.390625 
z
M 30.609375 56 
Q 42.328125 56 49.015625 48.375 
Q 55.71875 40.765625 55.71875 27.296875 
Q 55.71875 13.875 49.015625 6.21875 
Q 42.328125 -1.421875 30.609375 -1.421875 
Q 18.84375 -1.421875 12.171875 6.21875 
Q 5.515625 13.875 5.515625 27.296875 
Q 5.515625 40.765625 12.171875 48.375 
Q 18.84375 56 30.609375 56 
z
" id="DejaVuSans-111"/>
      </defs>
      <use xlink:href="#DejaVuSans-69"/>
      <use x="63.183594" xlink:href="#DejaVuSans-120"/>
      <use x="122.363281" xlink:href="#DejaVuSans-97"/>
      <use x="183.642578" xlink:href="#DejaVuSans-99"/>
      <use x="238.623047" xlink:href="#DejaVuSans-116"/>
      <use x="277.832031" xlink:href="#DejaVuSans-32"/>
      <use x="309.619141" xlink:href="#DejaVuSans-99"/>
      <use x="364.599609" xlink:href="#DejaVuSans-104"/>
      <use x="427.978516" xlink:href="#DejaVuSans-101"/>
      <use x="489.501953" xlink:href="#DejaVuSans-97"/>
      <use x="550.78125" xlink:href="#DejaVuSans-112"/>
      <use x="614.257812" xlink:href="#DejaVuSans-32"/>
      <use x="646.044922" xlink:href="#DejaVuSans-102"/>
      <use x="681.25" xlink:href="#DejaVuSans-117"/>
      <use x="744.628906" xlink:href="#DejaVuSans-110"/>
      <use x="808.007812" xlink:href="#DejaVuSans-99"/>
      <use x="862.988281" xlink:href="#DejaVuSans-116"/>
      <use x="902.197266" xlink:href="#DejaVuSans-105"/>
      <use x="929.980469" xlink:href="#DejaVuSans-111"/>
      <use x="991.162109" xlink:href="#DejaVuSans-110"/>
     </g>
    </g>
    <g id="line2d_39">
     <path d="M 66.6 98.604813 
L 86.6 98.604813 
" style="fill:none;stroke:#ffa500;stroke-dasharray:5.55,2.4;stroke-dashoffset:0;stroke-width:1.5;"/>
    </g>
    <g id="line2d_40"/>
    <g id="text_16">
     <!-- Exact expensive function -->
     <g transform="translate(94.6 102.104813)scale(0.1 -0.1)">
      <use xlink:href="#DejaVuSans-69"/>
      <use x="63.183594" xlink:href="#DejaVuSans-120"/>
      <use x="122.363281" xlink:href="#DejaVuSans-97"/>
      <use x="183.642578" xlink:href="#DejaVuSans-99"/>
      <use x="238.623047" xlink:href="#DejaVuSans-116"/>
      <use x="277.832031" xlink:href="#DejaVuSans-32"/>
      <use x="309.619141" xlink:href="#DejaVuSans-101"/>
      <use x="369.392578" xlink:href="#DejaVuSans-120"/>
      <use x="428.572266" xlink:href="#DejaVuSans-112"/>
      <use x="492.048828" xlink:href="#DejaVuSans-101"/>
      <use x="553.572266" xlink:href="#DejaVuSans-110"/>
      <use x="616.951172" xlink:href="#DejaVuSans-115"/>
      <use x="669.050781" xlink:href="#DejaVuSans-105"/>
      <use x="696.833984" xlink:href="#DejaVuSans-118"/>
      <use x="756.013672" xlink:href="#DejaVuSans-101"/>
      <use x="817.537109" xlink:href="#DejaVuSans-32"/>
      <use x="849.324219" xlink:href="#DejaVuSans-102"/>
      <use x="884.529297" xlink:href="#DejaVuSans-117"/>
      <use x="947.908203" xlink:href="#DejaVuSans-110"/>
      <use x="1011.287109" xlink:href="#DejaVuSans-99"/>
      <use x="1066.267578" xlink:href="#DejaVuSans-116"/>
      <use x="1105.476562" xlink:href="#DejaVuSans-105"/>
      <use x="1133.259766" xlink:href="#DejaVuSans-111"/>
      <use x="1194.441406" xlink:href="#DejaVuSans-110"/>
     </g>
    </g>
   </g>
  </g>
 </g>
 <defs>
  <clipPath id="p90132ca3eb">
   <rect height="266.112" width="357.12" x="57.6" y="41.472"/>
  </clipPath>
 </defs>
</svg>
