<?xml version="1.0" encoding="utf-8" standalone="no"?>
<!DOCTYPE svg PUBLIC "-//W3C//DTD SVG 1.1//EN"
  "http://www.w3.org/Graphics/SVG/1.1/DTD/svg11.dtd">
<!-- Created with matplotlib (https://matplotlib.org/) -->
<svg height="345.6pt" version="1.1" viewBox="0 0 460.8 345.6" width="460.8pt" xmlns="http://www.w3.org/2000/svg" xmlns:xlink="http://www.w3.org/1999/xlink">
 <metadata>
  <rdf:RDF xmlns:cc="http://creativecommons.org/ns#" xmlns:dc="http://purl.org/dc/elements/1.1/" xmlns:rdf="http://www.w3.org/1999/02/22-rdf-syntax-ns#">
   <cc:Work>
    <dc:type rdf:resource="http://purl.org/dc/dcmitype/StillImage"/>
    <dc:date>2020-11-24T14:02:17.952508</dc:date>
    <dc:format>image/svg+xml</dc:format>
    <dc:creator>
     <cc:Agent>
      <dc:title>Matplotlib v3.3.1, https://matplotlib.org/</dc:title>
     </cc:Agent>
    </dc:creator>
   </cc:Work>
  </rdf:RDF>
 </metadata>
 <defs>
  <style type="text/css">*{stroke-linecap:butt;stroke-linejoin:round;}</style>
 </defs>
 <g id="figure_1">
  <g id="patch_1">
   <path d="M 0 345.6 
L 460.8 345.6 
L 460.8 0 
L 0 0 
z
" style="fill:#ffffff;"/>
  </g>
  <g id="axes_1">
   <g id="patch_2">
    <path d="M 57.6 307.584 
L 414.72 307.584 
L 414.72 41.472 
L 57.6 41.472 
z
" style="fill:#ffffff;"/>
   </g>
   <g id="PolyCollection_1">
    <defs>
     <path d="M 73.832727 -64.401132 
L 73.832727 -57.434137 
L 77.112066 -56.090974 
L 80.391405 -54.722648 
L 83.670744 -53.437584 
L 86.950083 -52.313606 
L 90.229421 -51.401011 
L 93.50876 -50.726702 
L 96.788099 -50.298904 
L 100.067438 -50.112 
L 103.346777 -50.151052 
L 106.626116 -50.395731 
L 109.905455 -50.823426 
L 113.184793 -51.411469 
L 116.464132 -52.138494 
L 119.743471 -52.98504 
L 123.02281 -53.933576 
L 126.302149 -54.968145 
L 129.581488 -56.073842 
L 132.860826 -57.236287 
L 136.140165 -58.441252 
L 139.419504 -59.674497 
L 142.698843 -60.921875 
L 145.978182 -62.169651 
L 149.257521 -63.40501 
L 152.53686 -64.616639 
L 155.816198 -65.795318 
L 159.095537 -66.934429 
L 162.374876 -68.030306 
L 165.654215 -69.082409 
L 168.933554 -70.093273 
L 172.212893 -71.068274 
L 175.492231 -72.015213 
L 178.77157 -72.943776 
L 182.050909 -73.864908 
L 185.330248 -74.790148 
L 188.609587 -75.730966 
L 191.888926 -76.698132 
L 195.168264 -77.701141 
L 198.447603 -78.747702 
L 201.726942 -79.843296 
L 205.006281 -80.990814 
L 208.28562 -82.190266 
L 211.564959 -83.438566 
L 214.844298 -84.729394 
L 218.123636 -86.053153 
L 221.402975 -87.397012 
L 224.682314 -88.745066 
L 227.961653 -90.0786 
L 231.240992 -91.376487 
L 234.520331 -92.615703 
L 237.799669 -93.771972 
L 241.079008 -94.820514 
L 244.358347 -95.736896 
L 247.637686 -96.497952 
L 250.917025 -97.082739 
L 254.196364 -97.473496 
L 257.475702 -97.656573 
L 260.755041 -97.623276 
L 264.03438 -97.370595 
L 267.313719 -96.901778 
L 270.593058 -96.226728 
L 273.872397 -95.362189 
L 277.151736 -94.331722 
L 280.431074 -93.16547 
L 283.710413 -91.899723 
L 286.989752 -90.576297 
L 290.269091 -89.24177 
L 293.54843 -87.946581 
L 296.827769 -86.744044 
L 300.107107 -85.689278 
L 303.386446 -84.838087 
L 306.665785 -84.245784 
L 309.945124 -83.965976 
L 313.224463 -84.049302 
L 316.503802 -84.542139 
L 319.78314 -85.485272 
L 323.062479 -86.91258 
L 326.341818 -88.849763 
L 329.621157 -91.313192 
L 332.900496 -94.308951 
L 336.179835 -97.832177 
L 339.459174 -101.866771 
L 342.738512 -106.385572 
L 346.017851 -111.351024 
L 349.29719 -116.716343 
L 352.576529 -122.427121 
L 355.855868 -128.42326 
L 359.135207 -134.641049 
L 362.414545 -141.015177 
L 365.693884 -147.480419 
L 368.973223 -153.972767 
L 372.252562 -160.429774 
L 375.531901 -166.789966 
L 378.81124 -172.991258 
L 382.090579 -178.968417 
L 385.369917 -184.649757 
L 388.649256 -189.953331 
L 391.928595 -194.783034 
L 395.207934 -199.025054 
L 398.487273 -202.545182 
L 398.487273 -209.512176 
L 398.487273 -209.512176 
L 395.207934 -205.425511 
L 391.928595 -201.039935 
L 388.649256 -196.291282 
L 385.369917 -191.151643 
L 382.090579 -185.625599 
L 378.81124 -179.74524 
L 375.531901 -173.564485 
L 372.252562 -167.153183 
L 368.973223 -160.591437 
L 365.693884 -153.964482 
L 362.414545 -147.358351 
L 359.135207 -140.856435 
L 355.855868 -134.536956 
L 352.576529 -128.471265 
L 349.29719 -122.722818 
L 346.017851 -117.346667 
L 342.738512 -112.389278 
L 339.459174 -107.888513 
L 336.179835 -103.873671 
L 332.900496 -100.365495 
L 329.621157 -97.37614 
L 326.341818 -94.909098 
L 323.062479 -92.95915 
L 319.78314 -91.512401 
L 316.503802 -90.546474 
L 313.224463 -90.030902 
L 309.945124 -89.927786 
L 306.665785 -90.192701 
L 303.386446 -90.77584 
L 300.107107 -91.623365 
L 296.827769 -92.678884 
L 293.54843 -93.884995 
L 290.269091 -95.184822 
L 286.989752 -96.523465 
L 283.710413 -97.849308 
L 280.431074 -99.115151 
L 277.151736 -100.279125 
L 273.872397 -101.305377 
L 270.593058 -102.164535 
L 267.313719 -102.833958 
L 264.03438 -103.297777 
L 260.755041 -103.546767 
L 257.475702 -103.578052 
L 254.196364 -103.394674 
L 250.917025 -103.005046 
L 247.637686 -102.422302 
L 244.358347 -101.663565 
L 241.079008 -100.74915 
L 237.799669 -99.701729 
L 234.520331 -98.54546 
L 231.240992 -97.305123 
L 227.961653 -96.005268 
L 224.682314 -94.669416 
L 221.402975 -93.31932 
L 218.123636 -91.974331 
L 214.844298 -90.650873 
L 211.564959 -89.362057 
L 208.28562 -88.117449 
L 205.006281 -86.922994 
L 201.726942 -85.781103 
L 198.447603 -84.69089 
L 195.168264 -83.648545 
L 191.888926 -82.647813 
L 188.609587 -81.68055 
L 185.330248 -80.737316 
L 182.050909 -79.807961 
L 178.77157 -78.88219 
L 175.492231 -77.950053 
L 172.212893 -77.00236 
L 168.933554 -76.031026 
L 165.654215 -75.029326 
L 162.374876 -73.992117 
L 159.095537 -72.916028 
L 155.816198 -71.799653 
L 152.53686 -70.643768 
L 149.257521 -69.45158 
L 145.978182 -68.228986 
L 142.698843 -66.984823 
L 139.419504 -65.731042 
L 136.140165 -64.482746 
L 132.860826 -63.25803 
L 129.581488 -62.077548 
L 126.302149 -60.963788 
L 123.02281 -59.940051 
L 119.743471 -59.029184 
L 116.464132 -58.25219 
L 113.184793 -57.626854 
L 109.905455 -57.1666 
L 106.626116 -56.879795 
L 103.346777 -56.769722 
L 100.067438 -56.835409 
L 96.788099 -57.073423 
L 93.50876 -57.480684 
L 90.229421 -58.058193 
L 86.950083 -58.815492 
L 83.670744 -59.775534 
L 80.391405 -60.97955 
L 77.112066 -62.49143 
L 73.832727 -64.401132 
z
" id="m846eb49878" style="stroke:#0000ff;stroke-opacity:0.2;"/>
    </defs>
    <g clip-path="url(#pb8c99cc7fe)">
     <use style="fill:#0000ff;fill-opacity:0.2;stroke:#0000ff;stroke-opacity:0.2;" x="0" xlink:href="#m846eb49878" y="345.6"/>
    </g>
   </g>
   <g id="PolyCollection_2">
    <defs>
     <path d="M 73.832727 -179.223821 
L 73.832727 -144.138234 
L 77.112066 -140.256509 
L 80.391405 -135.878232 
L 83.670744 -131.430716 
L 86.950083 -127.220008 
L 90.229421 -123.44387 
L 93.50876 -120.209074 
L 96.788099 -117.550987 
L 100.067438 -115.453494 
L 103.346777 -113.867581 
L 106.626116 -112.727283 
L 109.905455 -111.962193 
L 113.184793 -111.506172 
L 116.464132 -111.302388 
L 119.743471 -111.305141 
L 123.02281 -111.479214 
L 126.302149 -111.797592 
L 129.581488 -112.238411 
L 132.860826 -112.781897 
L 136.140165 -113.407882 
L 139.419504 -114.094258 
L 142.698843 -114.816512 
L 145.978182 -115.548288 
L 149.257521 -116.262749 
L 152.53686 -116.934423 
L 155.816198 -117.541207 
L 159.095537 -118.06617 
L 162.374876 -118.498929 
L 165.654215 -118.836411 
L 168.933554 -119.082952 
L 172.212893 -119.249761 
L 175.492231 -119.353851 
L 178.77157 -119.416601 
L 182.050909 -119.462105 
L 185.330248 -119.515485 
L 188.609587 -119.60129 
L 191.888926 -119.74207 
L 195.168264 -119.957189 
L 198.447603 -120.261872 
L 201.726942 -120.666472 
L 205.006281 -121.175932 
L 208.28562 -121.789388 
L 211.564959 -122.499898 
L 214.844298 -123.294277 
L 218.123636 -124.153037 
L 221.402975 -125.050461 
L 224.682314 -125.954828 
L 227.961653 -126.828846 
L 231.240992 -127.630309 
L 234.520331 -128.31303 
L 237.799669 -128.828037 
L 241.079008 -129.125055 
L 244.358347 -129.154222 
L 247.637686 -128.868011 
L 250.917025 -128.223266 
L 254.196364 -127.183282 
L 257.475702 -125.719813 
L 260.755041 -123.814913 
L 264.03438 -121.462498 
L 267.313719 -118.669539 
L 270.593058 -115.45682 
L 273.872397 -111.859216 
L 277.151736 -107.92548 
L 280.431074 -103.717563 
L 283.710413 -99.309536 
L 286.989752 -94.786173 
L 290.269091 -90.24131 
L 293.54843 -85.776045 
L 296.827769 -81.496872 
L 300.107107 -77.51377 
L 303.386446 -73.938269 
L 306.665785 -70.881446 
L 309.945124 -68.451795 
L 313.224463 -66.752904 
L 316.503802 -65.880865 
L 319.78314 -65.921407 
L 323.062479 -66.946789 
L 326.341818 -69.012574 
L 329.621157 -72.15451 
L 332.900496 -76.385788 
L 336.179835 -81.69504 
L 339.459174 -88.045414 
L 342.738512 -95.375022 
L 346.017851 -103.59896 
L 349.29719 -112.612898 
L 352.576529 -122.298061 
L 355.855868 -132.527145 
L 359.135207 -143.17052 
L 362.414545 -154.101873 
L 365.693884 -165.202337 
L 368.973223 -176.362176 
L 372.252562 -187.47921 
L 375.531901 -198.453413 
L 378.81124 -209.177519 
L 382.090579 -219.523881 
L 385.369917 -229.32837 
L 388.649256 -238.372528 
L 391.928595 -246.365648 
L 395.207934 -252.928675 
L 398.487273 -257.58198 
L 398.487273 -292.032 
L 398.487273 -292.032 
L 395.207934 -284.941605 
L 391.928595 -277.689452 
L 388.649256 -269.938035 
L 385.369917 -261.482597 
L 382.090579 -252.236729 
L 378.81124 -242.213367 
L 375.531901 -231.503249 
L 372.252562 -220.252824 
L 368.973223 -208.643345 
L 365.693884 -196.872477 
L 362.414545 -185.139323 
L 359.135207 -173.633243 
L 355.855868 -162.52644 
L 352.576529 -151.969906 
L 349.29719 -142.092046 
L 346.017851 -132.99921 
L 342.738512 -124.777297 
L 339.459174 -117.493732 
L 336.179835 -111.199258 
L 332.900496 -105.929181 
L 329.621157 -101.703959 
L 326.341818 -98.529164 
L 323.062479 -96.395032 
L 319.78314 -95.275879 
L 316.503802 -95.129683 
L 313.224463 -95.898115 
L 309.945124 -97.507214 
L 306.665785 -99.868795 
L 303.386446 -102.882597 
L 300.107107 -106.439062 
L 296.827769 -110.42257 
L 293.54843 -114.714914 
L 290.269091 -119.198786 
L 286.989752 -123.761067 
L 283.710413 -128.295741 
L 280.431074 -132.706331 
L 277.151736 -136.907769 
L 273.872397 -140.827714 
L 270.593058 -144.407331 
L 267.313719 -147.601595 
L 264.03438 -150.379184 
L 260.755041 -152.722051 
L 257.475702 -154.624718 
L 254.196364 -156.093366 
L 250.917025 -157.144747 
L 247.637686 -157.804948 
L 244.358347 -158.10803 
L 241.079008 -158.094548 
L 237.799669 -157.80997 
L 234.520331 -157.303024 
L 231.240992 -156.62398 
L 227.961653 -155.822937 
L 224.682314 -154.948133 
L 221.402975 -154.044366 
L 218.123636 -153.151566 
L 214.844298 -152.303602 
L 211.564959 -151.52738 
L 208.28562 -150.842282 
L 205.006281 -150.25999 
L 201.726942 -149.784703 
L 198.447603 -149.413721 
L 195.168264 -149.13837 
L 191.888926 -148.945169 
L 188.609587 -148.817157 
L 185.330248 -148.735254 
L 182.050909 -148.679545 
L 178.77157 -148.630389 
L 175.492231 -148.569283 
L 172.212893 -148.479452 
L 168.933554 -148.346188 
L 165.654215 -148.157011 
L 162.374876 -147.90177 
L 159.095537 -147.572792 
L 155.816198 -147.165235 
L 152.53686 -146.677708 
L 149.257521 -146.113203 
L 145.978182 -145.480274 
L 142.698843 -144.794321 
L 139.419504 -144.078746 
L 136.140165 -143.365693 
L 132.860826 -142.696062 
L 129.581488 -142.118533 
L 126.302149 -141.68743 
L 123.02281 -141.459421 
L 119.743471 -141.489239 
L 116.464132 -141.824848 
L 113.184793 -142.502677 
L 109.905455 -143.543744 
L 106.626116 -144.951536 
L 103.346777 -146.712557 
L 100.067438 -148.800288 
L 96.788099 -151.183042 
L 93.50876 -153.835841 
L 90.229421 -156.755991 
L 86.950083 -159.981507 
L 83.670744 -163.611132 
L 80.391405 -167.824213 
L 77.112066 -172.898503 
L 73.832727 -179.223821 
z
" id="m72c923e723" style="stroke:#ffa500;stroke-opacity:0.2;"/>
    </defs>
    <g clip-path="url(#pb8c99cc7fe)">
     <use style="fill:#ffa500;fill-opacity:0.2;stroke:#ffa500;stroke-opacity:0.2;" x="0" xlink:href="#m72c923e723" y="345.6"/>
    </g>
   </g>
   <g id="PathCollection_1">
    <defs>
     <path d="M 0 3 
C 0.795609 3 1.55874 2.683901 2.12132 2.12132 
C 2.683901 1.55874 3 0.795609 3 0 
C 3 -0.795609 2.683901 -1.55874 2.12132 -2.12132 
C 1.55874 -2.683901 0.795609 -3 0 -3 
C -0.795609 -3 -1.55874 -2.683901 -2.12132 -2.12132 
C -2.683901 -1.55874 -3 -0.795609 -3 0 
C -3 0.795609 -2.683901 1.55874 -2.12132 2.12132 
C -1.55874 2.683901 -0.795609 3 0 3 
z
" id="m09c034b692" style="stroke:#0000ff;"/>
    </defs>
    <g clip-path="url(#pb8c99cc7fe)">
     <use style="fill:#0000ff;stroke:#0000ff;" x="73.832727" xlink:href="#m09c034b692" y="284.710496"/>
     <use style="fill:#0000ff;stroke:#0000ff;" x="106.298182" xlink:href="#m09c034b692" y="292.160036"/>
     <use style="fill:#0000ff;stroke:#0000ff;" x="138.763636" xlink:href="#m09c034b692" y="283.236933"/>
     <use style="fill:#0000ff;stroke:#0000ff;" x="171.229091" xlink:href="#m09c034b692" y="271.626963"/>
     <use style="fill:#0000ff;stroke:#0000ff;" x="203.694545" xlink:href="#m09c034b692" y="262.201687"/>
     <use style="fill:#0000ff;stroke:#0000ff;" x="236.16" xlink:href="#m09c034b692" y="249.837953"/>
     <use style="fill:#0000ff;stroke:#0000ff;" x="268.625455" xlink:href="#m09c034b692" y="245.673537"/>
     <use style="fill:#0000ff;stroke:#0000ff;" x="301.090909" xlink:href="#m09c034b692" y="256.540961"/>
     <use style="fill:#0000ff;stroke:#0000ff;" x="333.556364" xlink:href="#m09c034b692" y="249.211599"/>
     <use style="fill:#0000ff;stroke:#0000ff;" x="366.021818" xlink:href="#m09c034b692" y="193.195463"/>
     <use style="fill:#0000ff;stroke:#0000ff;" x="398.487273" xlink:href="#m09c034b692" y="139.583034"/>
    </g>
   </g>
   <g id="PathCollection_2">
    <defs>
     <path d="M 0 3 
C 0.795609 3 1.55874 2.683901 2.12132 2.12132 
C 2.683901 1.55874 3 0.795609 3 0 
C 3 -0.795609 2.683901 -1.55874 2.12132 -2.12132 
C 1.55874 -2.683901 0.795609 -3 0 -3 
C -0.795609 -3 -1.55874 -2.683901 -2.12132 -2.12132 
C -2.683901 -1.55874 -3 -0.795609 -3 0 
C -3 0.795609 -2.683901 1.55874 -2.12132 2.12132 
C -1.55874 2.683901 -0.795609 3 0 3 
z
" id="maa1c416dce" style="stroke:#ffa500;"/>
    </defs>
    <g clip-path="url(#pb8c99cc7fe)">
     <use style="fill:#ffa500;stroke:#ffa500;" x="73.832727" xlink:href="#maa1c416dce" y="184.159011"/>
     <use style="fill:#ffa500;stroke:#ffa500;" x="203.694545" xlink:href="#maa1c416dce" y="209.929835"/>
     <use style="fill:#ffa500;stroke:#ffa500;" x="268.625455" xlink:href="#maa1c416dce" y="212.267754"/>
     <use style="fill:#ffa500;stroke:#ffa500;" x="333.556364" xlink:href="#maa1c416dce" y="254.738098"/>
     <use style="fill:#ffa500;stroke:#ffa500;" x="398.487273" xlink:href="#maa1c416dce" y="70.875189"/>
    </g>
   </g>
   <g id="matplotlib.axis_1">
    <g id="xtick_1">
     <g id="line2d_1">
      <path clip-path="url(#pb8c99cc7fe)" d="M 73.832727 307.584 
L 73.832727 41.472 
" style="fill:none;stroke:#b0b0b0;stroke-linecap:square;stroke-width:0.8;"/>
     </g>
     <g id="line2d_2">
      <defs>
       <path d="M 0 0 
L 0 3.5 
" id="m76eedd4cbd" style="stroke:#000000;stroke-width:0.8;"/>
      </defs>
      <g>
       <use style="stroke:#000000;stroke-width:0.8;" x="73.832727" xlink:href="#m76eedd4cbd" y="307.584"/>
      </g>
     </g>
     <g id="text_1">
      <!-- 0.0 -->
      <g transform="translate(65.881165 322.182437)scale(0.1 -0.1)">
       <defs>
        <path d="M 31.78125 66.40625 
Q 24.171875 66.40625 20.328125 58.90625 
Q 16.5 51.421875 16.5 36.375 
Q 16.5 21.390625 20.328125 13.890625 
Q 24.171875 6.390625 31.78125 6.390625 
Q 39.453125 6.390625 43.28125 13.890625 
Q 47.125 21.390625 47.125 36.375 
Q 47.125 51.421875 43.28125 58.90625 
Q 39.453125 66.40625 31.78125 66.40625 
z
M 31.78125 74.21875 
Q 44.046875 74.21875 50.515625 64.515625 
Q 56.984375 54.828125 56.984375 36.375 
Q 56.984375 17.96875 50.515625 8.265625 
Q 44.046875 -1.421875 31.78125 -1.421875 
Q 19.53125 -1.421875 13.0625 8.265625 
Q 6.59375 17.96875 6.59375 36.375 
Q 6.59375 54.828125 13.0625 64.515625 
Q 19.53125 74.21875 31.78125 74.21875 
z
" id="DejaVuSans-48"/>
        <path d="M 10.6875 12.40625 
L 21 12.40625 
L 21 0 
L 10.6875 0 
z
" id="DejaVuSans-46"/>
       </defs>
       <use xlink:href="#DejaVuSans-48"/>
       <use x="63.623047" xlink:href="#DejaVuSans-46"/>
       <use x="95.410156" xlink:href="#DejaVuSans-48"/>
      </g>
     </g>
    </g>
    <g id="xtick_2">
     <g id="line2d_3">
      <path clip-path="url(#pb8c99cc7fe)" d="M 138.763636 307.584 
L 138.763636 41.472 
" style="fill:none;stroke:#b0b0b0;stroke-linecap:square;stroke-width:0.8;"/>
     </g>
     <g id="line2d_4">
      <g>
       <use style="stroke:#000000;stroke-width:0.8;" x="138.763636" xlink:href="#m76eedd4cbd" y="307.584"/>
      </g>
     </g>
     <g id="text_2">
      <!-- 0.2 -->
      <g transform="translate(130.812074 322.182437)scale(0.1 -0.1)">
       <defs>
        <path d="M 19.1875 8.296875 
L 53.609375 8.296875 
L 53.609375 0 
L 7.328125 0 
L 7.328125 8.296875 
Q 12.9375 14.109375 22.625 23.890625 
Q 32.328125 33.6875 34.8125 36.53125 
Q 39.546875 41.84375 41.421875 45.53125 
Q 43.3125 49.21875 43.3125 52.78125 
Q 43.3125 58.59375 39.234375 62.25 
Q 35.15625 65.921875 28.609375 65.921875 
Q 23.96875 65.921875 18.8125 64.3125 
Q 13.671875 62.703125 7.8125 59.421875 
L 7.8125 69.390625 
Q 13.765625 71.78125 18.9375 73 
Q 24.125 74.21875 28.421875 74.21875 
Q 39.75 74.21875 46.484375 68.546875 
Q 53.21875 62.890625 53.21875 53.421875 
Q 53.21875 48.921875 51.53125 44.890625 
Q 49.859375 40.875 45.40625 35.40625 
Q 44.1875 33.984375 37.640625 27.21875 
Q 31.109375 20.453125 19.1875 8.296875 
z
" id="DejaVuSans-50"/>
       </defs>
       <use xlink:href="#DejaVuSans-48"/>
       <use x="63.623047" xlink:href="#DejaVuSans-46"/>
       <use x="95.410156" xlink:href="#DejaVuSans-50"/>
      </g>
     </g>
    </g>
    <g id="xtick_3">
     <g id="line2d_5">
      <path clip-path="url(#pb8c99cc7fe)" d="M 203.694545 307.584 
L 203.694545 41.472 
" style="fill:none;stroke:#b0b0b0;stroke-linecap:square;stroke-width:0.8;"/>
     </g>
     <g id="line2d_6">
      <g>
       <use style="stroke:#000000;stroke-width:0.8;" x="203.694545" xlink:href="#m76eedd4cbd" y="307.584"/>
      </g>
     </g>
     <g id="text_3">
      <!-- 0.4 -->
      <g transform="translate(195.742983 322.182437)scale(0.1 -0.1)">
       <defs>
        <path d="M 37.796875 64.3125 
L 12.890625 25.390625 
L 37.796875 25.390625 
z
M 35.203125 72.90625 
L 47.609375 72.90625 
L 47.609375 25.390625 
L 58.015625 25.390625 
L 58.015625 17.1875 
L 47.609375 17.1875 
L 47.609375 0 
L 37.796875 0 
L 37.796875 17.1875 
L 4.890625 17.1875 
L 4.890625 26.703125 
z
" id="DejaVuSans-52"/>
       </defs>
       <use xlink:href="#DejaVuSans-48"/>
       <use x="63.623047" xlink:href="#DejaVuSans-46"/>
       <use x="95.410156" xlink:href="#DejaVuSans-52"/>
      </g>
     </g>
    </g>
    <g id="xtick_4">
     <g id="line2d_7">
      <path clip-path="url(#pb8c99cc7fe)" d="M 268.625455 307.584 
L 268.625455 41.472 
" style="fill:none;stroke:#b0b0b0;stroke-linecap:square;stroke-width:0.8;"/>
     </g>
     <g id="line2d_8">
      <g>
       <use style="stroke:#000000;stroke-width:0.8;" x="268.625455" xlink:href="#m76eedd4cbd" y="307.584"/>
      </g>
     </g>
     <g id="text_4">
      <!-- 0.6 -->
      <g transform="translate(260.673892 322.182437)scale(0.1 -0.1)">
       <defs>
        <path d="M 33.015625 40.375 
Q 26.375 40.375 22.484375 35.828125 
Q 18.609375 31.296875 18.609375 23.390625 
Q 18.609375 15.53125 22.484375 10.953125 
Q 26.375 6.390625 33.015625 6.390625 
Q 39.65625 6.390625 43.53125 10.953125 
Q 47.40625 15.53125 47.40625 23.390625 
Q 47.40625 31.296875 43.53125 35.828125 
Q 39.65625 40.375 33.015625 40.375 
z
M 52.59375 71.296875 
L 52.59375 62.3125 
Q 48.875 64.0625 45.09375 64.984375 
Q 41.3125 65.921875 37.59375 65.921875 
Q 27.828125 65.921875 22.671875 59.328125 
Q 17.53125 52.734375 16.796875 39.40625 
Q 19.671875 43.65625 24.015625 45.921875 
Q 28.375 48.1875 33.59375 48.1875 
Q 44.578125 48.1875 50.953125 41.515625 
Q 57.328125 34.859375 57.328125 23.390625 
Q 57.328125 12.15625 50.6875 5.359375 
Q 44.046875 -1.421875 33.015625 -1.421875 
Q 20.359375 -1.421875 13.671875 8.265625 
Q 6.984375 17.96875 6.984375 36.375 
Q 6.984375 53.65625 15.1875 63.9375 
Q 23.390625 74.21875 37.203125 74.21875 
Q 40.921875 74.21875 44.703125 73.484375 
Q 48.484375 72.75 52.59375 71.296875 
z
" id="DejaVuSans-54"/>
       </defs>
       <use xlink:href="#DejaVuSans-48"/>
       <use x="63.623047" xlink:href="#DejaVuSans-46"/>
       <use x="95.410156" xlink:href="#DejaVuSans-54"/>
      </g>
     </g>
    </g>
    <g id="xtick_5">
     <g id="line2d_9">
      <path clip-path="url(#pb8c99cc7fe)" d="M 333.556364 307.584 
L 333.556364 41.472 
" style="fill:none;stroke:#b0b0b0;stroke-linecap:square;stroke-width:0.8;"/>
     </g>
     <g id="line2d_10">
      <g>
       <use style="stroke:#000000;stroke-width:0.8;" x="333.556364" xlink:href="#m76eedd4cbd" y="307.584"/>
      </g>
     </g>
     <g id="text_5">
      <!-- 0.8 -->
      <g transform="translate(325.604801 322.182437)scale(0.1 -0.1)">
       <defs>
        <path d="M 31.78125 34.625 
Q 24.75 34.625 20.71875 30.859375 
Q 16.703125 27.09375 16.703125 20.515625 
Q 16.703125 13.921875 20.71875 10.15625 
Q 24.75 6.390625 31.78125 6.390625 
Q 38.8125 6.390625 42.859375 10.171875 
Q 46.921875 13.96875 46.921875 20.515625 
Q 46.921875 27.09375 42.890625 30.859375 
Q 38.875 34.625 31.78125 34.625 
z
M 21.921875 38.8125 
Q 15.578125 40.375 12.03125 44.71875 
Q 8.5 49.078125 8.5 55.328125 
Q 8.5 64.0625 14.71875 69.140625 
Q 20.953125 74.21875 31.78125 74.21875 
Q 42.671875 74.21875 48.875 69.140625 
Q 55.078125 64.0625 55.078125 55.328125 
Q 55.078125 49.078125 51.53125 44.71875 
Q 48 40.375 41.703125 38.8125 
Q 48.828125 37.15625 52.796875 32.3125 
Q 56.78125 27.484375 56.78125 20.515625 
Q 56.78125 9.90625 50.3125 4.234375 
Q 43.84375 -1.421875 31.78125 -1.421875 
Q 19.734375 -1.421875 13.25 4.234375 
Q 6.78125 9.90625 6.78125 20.515625 
Q 6.78125 27.484375 10.78125 32.3125 
Q 14.796875 37.15625 21.921875 38.8125 
z
M 18.3125 54.390625 
Q 18.3125 48.734375 21.84375 45.5625 
Q 25.390625 42.390625 31.78125 42.390625 
Q 38.140625 42.390625 41.71875 45.5625 
Q 45.3125 48.734375 45.3125 54.390625 
Q 45.3125 60.0625 41.71875 63.234375 
Q 38.140625 66.40625 31.78125 66.40625 
Q 25.390625 66.40625 21.84375 63.234375 
Q 18.3125 60.0625 18.3125 54.390625 
z
" id="DejaVuSans-56"/>
       </defs>
       <use xlink:href="#DejaVuSans-48"/>
       <use x="63.623047" xlink:href="#DejaVuSans-46"/>
       <use x="95.410156" xlink:href="#DejaVuSans-56"/>
      </g>
     </g>
    </g>
    <g id="xtick_6">
     <g id="line2d_11">
      <path clip-path="url(#pb8c99cc7fe)" d="M 398.487273 307.584 
L 398.487273 41.472 
" style="fill:none;stroke:#b0b0b0;stroke-linecap:square;stroke-width:0.8;"/>
     </g>
     <g id="line2d_12">
      <g>
       <use style="stroke:#000000;stroke-width:0.8;" x="398.487273" xlink:href="#m76eedd4cbd" y="307.584"/>
      </g>
     </g>
     <g id="text_6">
      <!-- 1.0 -->
      <g transform="translate(390.53571 322.182437)scale(0.1 -0.1)">
       <defs>
        <path d="M 12.40625 8.296875 
L 28.515625 8.296875 
L 28.515625 63.921875 
L 10.984375 60.40625 
L 10.984375 69.390625 
L 28.421875 72.90625 
L 38.28125 72.90625 
L 38.28125 8.296875 
L 54.390625 8.296875 
L 54.390625 0 
L 12.40625 0 
z
" id="DejaVuSans-49"/>
       </defs>
       <use xlink:href="#DejaVuSans-49"/>
       <use x="63.623047" xlink:href="#DejaVuSans-46"/>
       <use x="95.410156" xlink:href="#DejaVuSans-48"/>
      </g>
     </g>
    </g>
   </g>
   <g id="matplotlib.axis_2">
    <g id="ytick_1">
     <g id="line2d_13">
      <path clip-path="url(#pb8c99cc7fe)" d="M 57.6 300.315852 
L 414.72 300.315852 
" style="fill:none;stroke:#b0b0b0;stroke-linecap:square;stroke-width:0.8;"/>
     </g>
     <g id="line2d_14">
      <defs>
       <path d="M 0 0 
L -3.5 0 
" id="m9395326238" style="stroke:#000000;stroke-width:0.8;"/>
      </defs>
      <g>
       <use style="stroke:#000000;stroke-width:0.8;" x="57.6" xlink:href="#m9395326238" y="300.315852"/>
      </g>
     </g>
     <g id="text_7">
      <!-- −10 -->
      <g transform="translate(29.495313 304.11507)scale(0.1 -0.1)">
       <defs>
        <path d="M 10.59375 35.5 
L 73.1875 35.5 
L 73.1875 27.203125 
L 10.59375 27.203125 
z
" id="DejaVuSans-8722"/>
       </defs>
       <use xlink:href="#DejaVuSans-8722"/>
       <use x="83.789062" xlink:href="#DejaVuSans-49"/>
       <use x="147.412109" xlink:href="#DejaVuSans-48"/>
      </g>
     </g>
    </g>
    <g id="ytick_2">
     <g id="line2d_15">
      <path clip-path="url(#pb8c99cc7fe)" d="M 57.6 256.073076 
L 414.72 256.073076 
" style="fill:none;stroke:#b0b0b0;stroke-linecap:square;stroke-width:0.8;"/>
     </g>
     <g id="line2d_16">
      <g>
       <use style="stroke:#000000;stroke-width:0.8;" x="57.6" xlink:href="#m9395326238" y="256.073076"/>
      </g>
     </g>
     <g id="text_8">
      <!-- −5 -->
      <g transform="translate(35.857813 259.872295)scale(0.1 -0.1)">
       <defs>
        <path d="M 10.796875 72.90625 
L 49.515625 72.90625 
L 49.515625 64.59375 
L 19.828125 64.59375 
L 19.828125 46.734375 
Q 21.96875 47.46875 24.109375 47.828125 
Q 26.265625 48.1875 28.421875 48.1875 
Q 40.625 48.1875 47.75 41.5 
Q 54.890625 34.8125 54.890625 23.390625 
Q 54.890625 11.625 47.5625 5.09375 
Q 40.234375 -1.421875 26.90625 -1.421875 
Q 22.3125 -1.421875 17.546875 -0.640625 
Q 12.796875 0.140625 7.71875 1.703125 
L 7.71875 11.625 
Q 12.109375 9.234375 16.796875 8.0625 
Q 21.484375 6.890625 26.703125 6.890625 
Q 35.15625 6.890625 40.078125 11.328125 
Q 45.015625 15.765625 45.015625 23.390625 
Q 45.015625 31 40.078125 35.4375 
Q 35.15625 39.890625 26.703125 39.890625 
Q 22.75 39.890625 18.8125 39.015625 
Q 14.890625 38.140625 10.796875 36.28125 
z
" id="DejaVuSans-53"/>
       </defs>
       <use xlink:href="#DejaVuSans-8722"/>
       <use x="83.789062" xlink:href="#DejaVuSans-53"/>
      </g>
     </g>
    </g>
    <g id="ytick_3">
     <g id="line2d_17">
      <path clip-path="url(#pb8c99cc7fe)" d="M 57.6 211.8303 
L 414.72 211.8303 
" style="fill:none;stroke:#b0b0b0;stroke-linecap:square;stroke-width:0.8;"/>
     </g>
     <g id="line2d_18">
      <g>
       <use style="stroke:#000000;stroke-width:0.8;" x="57.6" xlink:href="#m9395326238" y="211.8303"/>
      </g>
     </g>
     <g id="text_9">
      <!-- 0 -->
      <g transform="translate(44.2375 215.629519)scale(0.1 -0.1)">
       <use xlink:href="#DejaVuSans-48"/>
      </g>
     </g>
    </g>
    <g id="ytick_4">
     <g id="line2d_19">
      <path clip-path="url(#pb8c99cc7fe)" d="M 57.6 167.587525 
L 414.72 167.587525 
" style="fill:none;stroke:#b0b0b0;stroke-linecap:square;stroke-width:0.8;"/>
     </g>
     <g id="line2d_20">
      <g>
       <use style="stroke:#000000;stroke-width:0.8;" x="57.6" xlink:href="#m9395326238" y="167.587525"/>
      </g>
     </g>
     <g id="text_10">
      <!-- 5 -->
      <g transform="translate(44.2375 171.386744)scale(0.1 -0.1)">
       <use xlink:href="#DejaVuSans-53"/>
      </g>
     </g>
    </g>
    <g id="ytick_5">
     <g id="line2d_21">
      <path clip-path="url(#pb8c99cc7fe)" d="M 57.6 123.344749 
L 414.72 123.344749 
" style="fill:none;stroke:#b0b0b0;stroke-linecap:square;stroke-width:0.8;"/>
     </g>
     <g id="line2d_22">
      <g>
       <use style="stroke:#000000;stroke-width:0.8;" x="57.6" xlink:href="#m9395326238" y="123.344749"/>
      </g>
     </g>
     <g id="text_11">
      <!-- 10 -->
      <g transform="translate(37.875 127.143968)scale(0.1 -0.1)">
       <use xlink:href="#DejaVuSans-49"/>
       <use x="63.623047" xlink:href="#DejaVuSans-48"/>
      </g>
     </g>
    </g>
    <g id="ytick_6">
     <g id="line2d_23">
      <path clip-path="url(#pb8c99cc7fe)" d="M 57.6 79.101974 
L 414.72 79.101974 
" style="fill:none;stroke:#b0b0b0;stroke-linecap:square;stroke-width:0.8;"/>
     </g>
     <g id="line2d_24">
      <g>
       <use style="stroke:#000000;stroke-width:0.8;" x="57.6" xlink:href="#m9395326238" y="79.101974"/>
      </g>
     </g>
     <g id="text_12">
      <!-- 15 -->
      <g transform="translate(37.875 82.901193)scale(0.1 -0.1)">
       <use xlink:href="#DejaVuSans-49"/>
       <use x="63.623047" xlink:href="#DejaVuSans-53"/>
      </g>
     </g>
    </g>
   </g>
   <g id="line2d_25">
    <path clip-path="url(#pb8c99cc7fe)" d="M 73.832727 284.682366 
L 77.112066 286.308798 
L 80.391405 287.748901 
L 83.670744 288.993441 
L 86.950083 290.035451 
L 90.229421 290.870398 
L 93.50876 291.496307 
L 96.788099 291.913836 
L 100.067438 292.126295 
L 103.346777 292.139613 
L 106.626116 291.962237 
L 109.905455 291.604987 
L 113.184793 291.080838 
L 116.464132 290.404658 
L 119.743471 289.592888 
L 123.02281 288.663187 
L 126.302149 287.634033 
L 129.581488 286.524305 
L 132.860826 285.352842 
L 136.140165 284.138001 
L 139.419504 282.897231 
L 142.698843 281.646651 
L 145.978182 280.400681 
L 149.257521 279.171705 
L 152.53686 277.969797 
L 155.816198 276.802514 
L 159.095537 275.674772 
L 162.374876 274.588788 
L 165.654215 273.544133 
L 168.933554 272.537851 
L 172.212893 271.564683 
L 175.492231 270.617367 
L 178.77157 269.687017 
L 182.050909 268.763565 
L 185.330248 267.836268 
L 188.609587 266.894242 
L 191.888926 265.927028 
L 195.168264 264.925157 
L 198.447603 263.880704 
L 201.726942 262.787801 
L 205.006281 261.643096 
L 208.28562 260.446142 
L 211.564959 259.199688 
L 214.844298 257.909866 
L 218.123636 256.586258 
L 221.402975 255.241834 
L 224.682314 253.892759 
L 227.961653 252.558066 
L 231.240992 251.259195 
L 234.520331 250.019418 
L 237.799669 248.863149 
L 241.079008 247.815168 
L 244.358347 246.89977 
L 247.637686 246.139873 
L 250.917025 245.556107 
L 254.196364 245.165915 
L 257.475702 244.982687 
L 260.755041 245.014978 
L 264.03438 245.265814 
L 267.313719 245.732132 
L 270.593058 246.404368 
L 273.872397 247.266217 
L 277.151736 248.294577 
L 280.431074 249.459689 
L 283.710413 250.725485 
L 286.989752 252.050119 
L 290.269091 253.386704 
L 293.54843 254.684212 
L 296.827769 255.888536 
L 300.107107 256.943678 
L 303.386446 257.793036 
L 306.665785 258.380757 
L 309.945124 258.653119 
L 313.224463 258.559898 
L 316.503802 258.055694 
L 319.78314 257.101163 
L 323.062479 255.664135 
L 326.341818 253.720569 
L 329.621157 251.255334 
L 332.900496 248.262777 
L 336.179835 244.747076 
L 339.459174 240.722358 
L 342.738512 236.212575 
L 346.017851 231.251154 
L 349.29719 225.88042 
L 352.576529 220.150807 
L 355.855868 214.119892 
L 359.135207 207.851258 
L 362.414545 201.413236 
L 365.693884 194.877549 
L 368.973223 188.317898 
L 372.252562 181.808522 
L 375.531901 175.422774 
L 378.81124 169.231751 
L 382.090579 163.302992 
L 385.369917 157.6993 
L 388.649256 152.477693 
L 391.928595 147.688516 
L 395.207934 143.374717 
L 398.487273 139.571321 
" style="fill:none;stroke:#0000ff;stroke-linecap:square;stroke-width:1.5;"/>
   </g>
   <g id="line2d_26">
    <path clip-path="url(#pb8c99cc7fe)" d="M 73.832727 281.198868 
L 77.112066 283.10857 
L 80.391405 284.62045 
L 83.670744 285.824466 
L 86.950083 286.784508 
L 90.229421 287.541807 
L 93.50876 288.119316 
L 96.788099 288.526577 
L 100.067438 288.764591 
L 103.346777 288.830278 
L 106.626116 288.720205 
L 109.905455 288.4334 
L 113.184793 287.973146 
L 116.464132 287.34781 
L 119.743471 286.570816 
L 123.02281 285.659949 
L 126.302149 284.636212 
L 129.581488 283.522452 
L 132.860826 282.34197 
L 136.140165 281.117254 
L 139.419504 279.868958 
L 142.698843 278.615177 
L 145.978182 277.371014 
L 149.257521 276.14842 
L 152.53686 274.956232 
L 155.816198 273.800347 
L 159.095537 272.683972 
L 162.374876 271.607883 
L 165.654215 270.570674 
L 168.933554 269.568974 
L 172.212893 268.59764 
L 175.492231 267.649947 
L 178.77157 266.71781 
L 182.050909 265.792039 
L 185.330248 264.862684 
L 188.609587 263.91945 
L 191.888926 262.952187 
L 195.168264 261.951455 
L 198.447603 260.90911 
L 201.726942 259.818897 
L 205.006281 258.677006 
L 208.28562 257.482551 
L 211.564959 256.237943 
L 214.844298 254.949127 
L 218.123636 253.625669 
L 221.402975 252.28068 
L 224.682314 250.930584 
L 227.961653 249.594732 
L 231.240992 248.294877 
L 234.520331 247.05454 
L 237.799669 245.898271 
L 241.079008 244.85085 
L 244.358347 243.936435 
L 247.637686 243.177698 
L 250.917025 242.594954 
L 254.196364 242.205326 
L 257.475702 242.021948 
L 260.755041 242.053233 
L 264.03438 242.302223 
L 267.313719 242.766042 
L 270.593058 243.435465 
L 273.872397 244.294623 
L 277.151736 245.320875 
L 280.431074 246.484849 
L 283.710413 247.750692 
L 286.989752 249.076535 
L 290.269091 250.415178 
L 293.54843 251.715005 
L 296.827769 252.921116 
L 300.107107 253.976635 
L 303.386446 254.82416 
L 306.665785 255.407299 
L 309.945124 255.672214 
L 313.224463 255.569098 
L 316.503802 255.053526 
L 319.78314 254.087599 
L 323.062479 252.64085 
L 326.341818 250.690902 
L 329.621157 248.22386 
L 332.900496 245.234505 
L 336.179835 241.726329 
L 339.459174 237.711487 
L 342.738512 233.210722 
L 346.017851 228.253333 
L 349.29719 222.877182 
L 352.576529 217.128735 
L 355.855868 211.063044 
L 359.135207 204.743565 
L 362.414545 198.241649 
L 365.693884 191.635518 
L 368.973223 185.008563 
L 372.252562 178.446817 
L 375.531901 172.035515 
L 378.81124 165.85476 
L 382.090579 159.974401 
L 385.369917 154.448357 
L 388.649256 149.308718 
L 391.928595 144.560065 
L 395.207934 140.174489 
L 398.487273 136.087824 
" style="fill:none;stroke:#000000;stroke-linecap:square;stroke-width:0.5;"/>
   </g>
   <g id="line2d_27">
    <path clip-path="url(#pb8c99cc7fe)" d="M 73.832727 288.165863 
L 77.112066 289.509026 
L 80.391405 290.877352 
L 83.670744 292.162416 
L 86.950083 293.286394 
L 90.229421 294.198989 
L 93.50876 294.873298 
L 96.788099 295.301096 
L 100.067438 295.488 
L 103.346777 295.448948 
L 106.626116 295.204269 
L 109.905455 294.776574 
L 113.184793 294.188531 
L 116.464132 293.461506 
L 119.743471 292.61496 
L 123.02281 291.666424 
L 126.302149 290.631855 
L 129.581488 289.526158 
L 132.860826 288.363713 
L 136.140165 287.158748 
L 139.419504 285.925503 
L 142.698843 284.678125 
L 145.978182 283.430349 
L 149.257521 282.19499 
L 152.53686 280.983361 
L 155.816198 279.804682 
L 159.095537 278.665571 
L 162.374876 277.569694 
L 165.654215 276.517591 
L 168.933554 275.506727 
L 172.212893 274.531726 
L 175.492231 273.584787 
L 178.77157 272.656224 
L 182.050909 271.735092 
L 185.330248 270.809852 
L 188.609587 269.869034 
L 191.888926 268.901868 
L 195.168264 267.898859 
L 198.447603 266.852298 
L 201.726942 265.756704 
L 205.006281 264.609186 
L 208.28562 263.409734 
L 211.564959 262.161434 
L 214.844298 260.870606 
L 218.123636 259.546847 
L 221.402975 258.202988 
L 224.682314 256.854934 
L 227.961653 255.5214 
L 231.240992 254.223513 
L 234.520331 252.984297 
L 237.799669 251.828028 
L 241.079008 250.779486 
L 244.358347 249.863104 
L 247.637686 249.102048 
L 250.917025 248.517261 
L 254.196364 248.126504 
L 257.475702 247.943427 
L 260.755041 247.976724 
L 264.03438 248.229405 
L 267.313719 248.698222 
L 270.593058 249.373272 
L 273.872397 250.237811 
L 277.151736 251.268278 
L 280.431074 252.43453 
L 283.710413 253.700277 
L 286.989752 255.023703 
L 290.269091 256.35823 
L 293.54843 257.653419 
L 296.827769 258.855956 
L 300.107107 259.910722 
L 303.386446 260.761913 
L 306.665785 261.354216 
L 309.945124 261.634024 
L 313.224463 261.550698 
L 316.503802 261.057861 
L 319.78314 260.114728 
L 323.062479 258.68742 
L 326.341818 256.750237 
L 329.621157 254.286808 
L 332.900496 251.291049 
L 336.179835 247.767823 
L 339.459174 243.733229 
L 342.738512 239.214428 
L 346.017851 234.248976 
L 349.29719 228.883657 
L 352.576529 223.172879 
L 355.855868 217.17674 
L 359.135207 210.958951 
L 362.414545 204.584823 
L 365.693884 198.119581 
L 368.973223 191.627233 
L 372.252562 185.170226 
L 375.531901 178.810034 
L 378.81124 172.608742 
L 382.090579 166.631583 
L 385.369917 160.950243 
L 388.649256 155.646669 
L 391.928595 150.816966 
L 395.207934 146.574946 
L 398.487273 143.054818 
" style="fill:none;stroke:#000000;stroke-linecap:square;stroke-width:0.5;"/>
   </g>
   <g id="line2d_28">
    <path clip-path="url(#pb8c99cc7fe)" d="M 73.832727 183.918972 
L 77.112066 189.022494 
L 80.391405 193.748778 
L 83.670744 198.079076 
L 86.950083 201.999242 
L 90.229421 205.50007 
L 93.50876 208.577543 
L 96.788099 211.232986 
L 100.067438 213.473109 
L 103.346777 215.309931 
L 106.626116 216.760591 
L 109.905455 217.847031 
L 113.184793 218.595575 
L 116.464132 219.036382 
L 119.743471 219.20281 
L 123.02281 219.130682 
L 126.302149 218.857489 
L 129.581488 218.421528 
L 132.860826 217.861021 
L 136.140165 217.213213 
L 139.419504 216.513498 
L 142.698843 215.794584 
L 145.978182 215.085719 
L 149.257521 214.412024 
L 152.53686 213.793934 
L 155.816198 213.246779 
L 159.095537 212.780519 
L 162.374876 212.39965 
L 165.654215 212.103289 
L 168.933554 211.88543 
L 172.212893 211.735394 
L 175.492231 211.638433 
L 178.77157 211.576505 
L 182.050909 211.529175 
L 185.330248 211.47463 
L 188.609587 211.390776 
L 191.888926 211.256381 
L 195.168264 211.052221 
L 198.447603 210.762204 
L 201.726942 210.374413 
L 205.006281 209.882039 
L 208.28562 209.284165 
L 211.564959 208.586361 
L 214.844298 207.801061 
L 218.123636 206.947699 
L 221.402975 206.052587 
L 224.682314 205.14852 
L 227.961653 204.274109 
L 231.240992 203.472855 
L 234.520331 202.791973 
L 237.799669 202.280996 
L 241.079008 201.990199 
L 244.358347 201.968874 
L 247.637686 202.26352 
L 250.917025 202.915993 
L 254.196364 203.961676 
L 257.475702 205.427734 
L 260.755041 207.331518 
L 264.03438 209.679159 
L 267.313719 212.464433 
L 270.593058 215.667924 
L 273.872397 219.256535 
L 277.151736 223.183376 
L 280.431074 227.388053 
L 283.710413 231.797361 
L 286.989752 236.32638 
L 290.269091 240.879952 
L 293.54843 245.35452 
L 296.827769 249.640279 
L 300.107107 253.623584 
L 303.386446 257.189567 
L 306.665785 260.22488 
L 309.945124 262.620496 
L 313.224463 264.274491 
L 316.503802 265.094726 
L 319.78314 265.001357 
L 323.062479 263.929089 
L 326.341818 261.829131 
L 329.621157 258.670766 
L 332.900496 254.442516 
L 336.179835 249.152851 
L 339.459174 242.830427 
L 342.738512 235.52384 
L 346.017851 227.300915 
L 349.29719 218.247528 
L 352.576529 208.466017 
L 355.855868 198.073208 
L 359.135207 187.198118 
L 362.414545 175.979402 
L 365.693884 164.562593 
L 368.973223 153.09724 
L 372.252562 141.733983 
L 375.531901 130.621669 
L 378.81124 119.904557 
L 382.090579 109.719695 
L 385.369917 100.194517 
L 388.649256 91.444718 
L 391.928595 83.57245 
L 395.207934 76.66486 
L 398.487273 70.79301 
" style="fill:none;stroke:#ffa500;stroke-linecap:square;stroke-width:1.5;"/>
   </g>
   <g id="line2d_29">
    <path clip-path="url(#pb8c99cc7fe)" d="M 73.832727 166.376179 
L 77.112066 172.701497 
L 80.391405 177.775787 
L 83.670744 181.988868 
L 86.950083 185.618493 
L 90.229421 188.844009 
L 93.50876 191.764159 
L 96.788099 194.416958 
L 100.067438 196.799712 
L 103.346777 198.887443 
L 106.626116 200.648464 
L 109.905455 202.056256 
L 113.184793 203.097323 
L 116.464132 203.775152 
L 119.743471 204.110761 
L 123.02281 204.140579 
L 126.302149 203.91257 
L 129.581488 203.481467 
L 132.860826 202.903938 
L 136.140165 202.234307 
L 139.419504 201.521254 
L 142.698843 200.805679 
L 145.978182 200.119726 
L 149.257521 199.486797 
L 152.53686 198.922292 
L 155.816198 198.434765 
L 159.095537 198.027208 
L 162.374876 197.69823 
L 165.654215 197.442989 
L 168.933554 197.253812 
L 172.212893 197.120548 
L 175.492231 197.030717 
L 178.77157 196.969611 
L 182.050909 196.920455 
L 185.330248 196.864746 
L 188.609587 196.782843 
L 191.888926 196.654831 
L 195.168264 196.46163 
L 198.447603 196.186279 
L 201.726942 195.815297 
L 205.006281 195.34001 
L 208.28562 194.757718 
L 211.564959 194.07262 
L 214.844298 193.296398 
L 218.123636 192.448434 
L 221.402975 191.555634 
L 224.682314 190.651867 
L 227.961653 189.777063 
L 231.240992 188.97602 
L 234.520331 188.296976 
L 237.799669 187.79003 
L 241.079008 187.505452 
L 244.358347 187.49197 
L 247.637686 187.795052 
L 250.917025 188.455253 
L 254.196364 189.506634 
L 257.475702 190.975282 
L 260.755041 192.877949 
L 264.03438 195.220816 
L 267.313719 197.998405 
L 270.593058 201.192669 
L 273.872397 204.772286 
L 277.151736 208.692231 
L 280.431074 212.893669 
L 283.710413 217.304259 
L 286.989752 221.838933 
L 290.269091 226.401214 
L 293.54843 230.885086 
L 296.827769 235.17743 
L 300.107107 239.160938 
L 303.386446 242.717403 
L 306.665785 245.731205 
L 309.945124 248.092786 
L 313.224463 249.701885 
L 316.503802 250.470317 
L 319.78314 250.324121 
L 323.062479 249.204968 
L 326.341818 247.070836 
L 329.621157 243.896041 
L 332.900496 239.670819 
L 336.179835 234.400742 
L 339.459174 228.106268 
L 342.738512 220.822703 
L 346.017851 212.60079 
L 349.29719 203.507954 
L 352.576529 193.630094 
L 355.855868 183.07356 
L 359.135207 171.966757 
L 362.414545 160.460677 
L 365.693884 148.727523 
L 368.973223 136.956655 
L 372.252562 125.347176 
L 375.531901 114.096751 
L 378.81124 103.386633 
L 382.090579 93.363271 
L 385.369917 84.117403 
L 388.649256 75.661965 
L 391.928595 67.910548 
L 395.207934 60.658395 
L 398.487273 53.568 
" style="fill:none;stroke:#000000;stroke-linecap:square;stroke-width:0.5;"/>
   </g>
   <g id="line2d_30">
    <path clip-path="url(#pb8c99cc7fe)" d="M 73.832727 201.461766 
L 77.112066 205.343491 
L 80.391405 209.721768 
L 83.670744 214.169284 
L 86.950083 218.379992 
L 90.229421 222.15613 
L 93.50876 225.390926 
L 96.788099 228.049013 
L 100.067438 230.146506 
L 103.346777 231.732419 
L 106.626116 232.872717 
L 109.905455 233.637807 
L 113.184793 234.093828 
L 116.464132 234.297612 
L 119.743471 234.294859 
L 123.02281 234.120786 
L 126.302149 233.802408 
L 129.581488 233.361589 
L 132.860826 232.818103 
L 136.140165 232.192118 
L 139.419504 231.505742 
L 142.698843 230.783488 
L 145.978182 230.051712 
L 149.257521 229.337251 
L 152.53686 228.665577 
L 155.816198 228.058793 
L 159.095537 227.53383 
L 162.374876 227.101071 
L 165.654215 226.763589 
L 168.933554 226.517048 
L 172.212893 226.350239 
L 175.492231 226.246149 
L 178.77157 226.183399 
L 182.050909 226.137895 
L 185.330248 226.084515 
L 188.609587 225.99871 
L 191.888926 225.85793 
L 195.168264 225.642811 
L 198.447603 225.338128 
L 201.726942 224.933528 
L 205.006281 224.424068 
L 208.28562 223.810612 
L 211.564959 223.100102 
L 214.844298 222.305723 
L 218.123636 221.446963 
L 221.402975 220.549539 
L 224.682314 219.645172 
L 227.961653 218.771154 
L 231.240992 217.969691 
L 234.520331 217.28697 
L 237.799669 216.771963 
L 241.079008 216.474945 
L 244.358347 216.445778 
L 247.637686 216.731989 
L 250.917025 217.376734 
L 254.196364 218.416718 
L 257.475702 219.880187 
L 260.755041 221.785087 
L 264.03438 224.137502 
L 267.313719 226.930461 
L 270.593058 230.14318 
L 273.872397 233.740784 
L 277.151736 237.67452 
L 280.431074 241.882437 
L 283.710413 246.290464 
L 286.989752 250.813827 
L 290.269091 255.35869 
L 293.54843 259.823955 
L 296.827769 264.103128 
L 300.107107 268.08623 
L 303.386446 271.661731 
L 306.665785 274.718554 
L 309.945124 277.148205 
L 313.224463 278.847096 
L 316.503802 279.719135 
L 319.78314 279.678593 
L 323.062479 278.653211 
L 326.341818 276.587426 
L 329.621157 273.44549 
L 332.900496 269.214212 
L 336.179835 263.90496 
L 339.459174 257.554586 
L 342.738512 250.224978 
L 346.017851 242.00104 
L 349.29719 232.987102 
L 352.576529 223.301939 
L 355.855868 213.072855 
L 359.135207 202.42948 
L 362.414545 191.498127 
L 365.693884 180.397663 
L 368.973223 169.237824 
L 372.252562 158.12079 
L 375.531901 147.146587 
L 378.81124 136.422481 
L 382.090579 126.076119 
L 385.369917 116.27163 
L 388.649256 107.227472 
L 391.928595 99.234352 
L 395.207934 92.671325 
L 398.487273 88.01802 
" style="fill:none;stroke:#000000;stroke-linecap:square;stroke-width:0.5;"/>
   </g>
   <g id="line2d_31">
    <path clip-path="url(#pb8c99cc7fe)" d="M 73.832727 284.710496 
L 77.112066 286.023734 
L 80.391405 287.293224 
L 83.670744 288.477605 
L 86.950083 289.541056 
L 90.229421 290.453705 
L 93.50876 291.191872 
L 96.788099 291.738157 
L 100.067438 292.081374 
L 103.346777 292.216339 
L 106.626116 292.143528 
L 109.905455 291.868609 
L 113.184793 291.401885 
L 116.464132 290.757642 
L 119.743471 289.953446 
L 123.02281 289.009383 
L 126.302149 287.947295 
L 129.581488 286.790001 
L 132.860826 285.560542 
L 136.140165 284.281472 
L 139.419504 282.974194 
L 142.698843 281.65837 
L 145.978182 280.351423 
L 149.257521 279.068127 
L 152.53686 277.820303 
L 155.816198 276.616621 
L 159.095537 275.462522 
L 162.374876 274.360237 
L 165.654215 273.308921 
L 168.933554 272.304888 
L 172.212893 271.34193 
L 175.492231 270.41172 
L 178.77157 269.504288 
L 182.050909 268.608529 
L 185.330248 267.712771 
L 188.609587 266.805338 
L 191.888926 265.875129 
L 195.168264 264.91217 
L 198.447603 263.908137 
L 201.726942 262.856821 
L 205.006281 261.754536 
L 208.28562 260.600437 
L 211.564959 259.396756 
L 214.844298 258.148931 
L 218.123636 256.865635 
L 221.402975 255.558689 
L 224.682314 254.242865 
L 227.961653 252.935586 
L 231.240992 251.656516 
L 234.520331 250.427058 
L 237.799669 249.269763 
L 241.079008 248.207675 
L 244.358347 247.263613 
L 247.637686 246.459416 
L 250.917025 245.815174 
L 254.196364 245.348449 
L 257.475702 245.07353 
L 260.755041 245.000719 
L 264.03438 245.135685 
L 267.313719 245.478902 
L 270.593058 246.025186 
L 273.872397 246.763353 
L 277.151736 247.676002 
L 280.431074 248.739454 
L 283.710413 249.923835 
L 286.989752 251.193324 
L 290.269091 252.506563 
L 293.54843 253.81722 
L 296.827769 255.07472 
L 300.107107 256.225109 
L 303.386446 257.212059 
L 306.665785 257.977993 
L 309.945124 258.465299 
L 313.224463 258.617628 
L 316.503802 258.381241 
L 319.78314 257.706377 
L 323.062479 256.548614 
L 326.341818 254.870204 
L 329.621157 252.641329 
L 332.900496 249.841272 
L 336.179835 246.459455 
L 339.459174 242.496326 
L 342.738512 237.964068 
L 346.017851 232.887098 
L 349.29719 227.302346 
L 352.576529 221.259296 
L 355.855868 214.819767 
L 359.135207 208.057442 
L 362.414545 201.057124 
L 365.693884 193.913743 
L 368.973223 186.731096 
L 372.252562 179.62036 
L 375.531901 172.698375 
L 378.81124 166.085733 
L 382.090579 159.904695 
L 385.369917 154.276972 
L 388.649256 149.321407 
L 391.928595 145.151596 
L 395.207934 141.873491 
L 398.487273 139.583034 
" style="fill:none;stroke:#0000ff;stroke-dasharray:5.55,2.4;stroke-dashoffset:0;stroke-width:1.5;"/>
   </g>
   <g id="line2d_32">
    <path clip-path="url(#pb8c99cc7fe)" d="M 73.832727 184.159011 
L 77.112066 188.573075 
L 80.391405 192.899641 
L 83.670744 197.055989 
L 86.950083 200.970479 
L 90.229421 204.583364 
L 93.50876 207.847284 
L 96.788099 210.727441 
L 100.067438 213.201462 
L 103.346777 215.25898 
L 106.626116 216.900944 
L 109.905455 218.138693 
L 113.184793 218.992831 
L 116.464132 219.491934 
L 119.743471 219.671127 
L 123.02281 219.570589 
L 126.302149 219.234 
L 129.581488 218.706997 
L 132.860826 218.035667 
L 136.140165 217.265115 
L 139.419504 216.438144 
L 142.698843 215.594083 
L 145.978182 214.767777 
L 149.257521 213.988772 
L 152.53686 213.28071 
L 155.816198 212.660934 
L 159.095537 212.140323 
L 162.374876 211.72334 
L 165.654215 211.408295 
L 168.933554 211.187815 
L 172.212893 211.049485 
L 175.492231 210.976654 
L 178.77157 210.949375 
L 182.050909 210.945445 
L 185.330248 210.941515 
L 188.609587 210.914236 
L 191.888926 210.841405 
L 195.168264 210.703075 
L 198.447603 210.482595 
L 201.726942 210.16755 
L 205.006281 209.750567 
L 208.28562 209.229956 
L 211.564959 208.61018 
L 214.844298 207.902118 
L 218.123636 207.123113 
L 221.402975 206.296807 
L 224.682314 205.452746 
L 227.961653 204.625775 
L 231.240992 203.855222 
L 234.520331 203.183893 
L 237.799669 202.65689 
L 241.079008 202.320301 
L 244.358347 202.219763 
L 247.637686 202.398956 
L 250.917025 202.898059 
L 254.196364 203.752197 
L 257.475702 204.989946 
L 260.755041 206.63191 
L 264.03438 208.689428 
L 267.313719 211.163449 
L 270.593058 214.043606 
L 273.872397 217.307526 
L 277.151736 220.920411 
L 280.431074 224.834901 
L 283.710413 228.991249 
L 286.989752 233.317815 
L 290.269091 237.731879 
L 293.54843 242.140782 
L 296.827769 246.443369 
L 300.107107 250.531733 
L 303.386446 254.293221 
L 306.665785 257.612674 
L 309.945124 260.374872 
L 313.224463 262.467118 
L 316.503802 263.781932 
L 319.78314 264.219789 
L 323.062479 263.691851 
L 326.341818 262.122618 
L 329.621157 259.452455 
L 332.900496 255.639927 
L 336.179835 250.66388 
L 339.459174 244.52521 
L 342.738512 237.248281 
L 346.017851 228.881927 
L 349.29719 219.50001 
L 352.576529 209.201496 
L 355.855868 198.110026 
L 359.135207 186.372962 
L 362.414545 174.159914 
L 365.693884 161.660738 
L 368.973223 149.083031 
L 372.252562 136.649146 
L 375.531901 124.592764 
L 378.81124 113.155067 
L 382.090579 102.580577 
L 385.369917 93.112717 
L 388.649256 84.989175 
L 391.928595 78.43714 
L 395.207934 73.668518 
L 398.487273 70.875189 
" style="fill:none;stroke:#ffa500;stroke-dasharray:5.55,2.4;stroke-dashoffset:0;stroke-width:1.5;"/>
   </g>
   <g id="patch_3">
    <path d="M 57.6 307.584 
L 57.6 41.472 
" style="fill:none;stroke:#000000;stroke-linecap:square;stroke-linejoin:miter;stroke-width:0.8;"/>
   </g>
   <g id="patch_4">
    <path d="M 414.72 307.584 
L 414.72 41.472 
" style="fill:none;stroke:#000000;stroke-linecap:square;stroke-linejoin:miter;stroke-width:0.8;"/>
   </g>
   <g id="patch_5">
    <path d="M 57.6 307.584 
L 414.72 307.584 
" style="fill:none;stroke:#000000;stroke-linecap:square;stroke-linejoin:miter;stroke-width:0.8;"/>
   </g>
   <g id="patch_6">
    <path d="M 57.6 41.472 
L 414.72 41.472 
" style="fill:none;stroke:#000000;stroke-linecap:square;stroke-linejoin:miter;stroke-width:0.8;"/>
   </g>
   <g id="legend_1">
    <g id="patch_7">
     <path d="M 64.6 108.1845 
L 239.15625 108.1845 
Q 241.15625 108.1845 241.15625 106.1845 
L 241.15625 48.472 
Q 241.15625 46.472 239.15625 46.472 
L 64.6 46.472 
Q 62.6 46.472 62.6 48.472 
L 62.6 106.1845 
Q 62.6 108.1845 64.6 108.1845 
z
" style="fill:#ffffff;opacity:0.8;stroke:#cccccc;stroke-linejoin:miter;"/>
    </g>
    <g id="line2d_33">
     <path d="M 66.6 54.570438 
L 86.6 54.570438 
" style="fill:none;stroke:#0000ff;stroke-linecap:square;stroke-width:1.5;"/>
    </g>
    <g id="line2d_34"/>
    <g id="text_13">
     <!-- MF cheap GPR (regular GPR) -->
     <g transform="translate(94.6 58.070438)scale(0.1 -0.1)">
      <defs>
       <path d="M 9.8125 72.90625 
L 24.515625 72.90625 
L 43.109375 23.296875 
L 61.8125 72.90625 
L 76.515625 72.90625 
L 76.515625 0 
L 66.890625 0 
L 66.890625 64.015625 
L 48.09375 14.015625 
L 38.1875 14.015625 
L 19.390625 64.015625 
L 19.390625 0 
L 9.8125 0 
z
" id="DejaVuSans-77"/>
       <path d="M 9.8125 72.90625 
L 51.703125 72.90625 
L 51.703125 64.59375 
L 19.671875 64.59375 
L 19.671875 43.109375 
L 48.578125 43.109375 
L 48.578125 34.8125 
L 19.671875 34.8125 
L 19.671875 0 
L 9.8125 0 
z
" id="DejaVuSans-70"/>
       <path id="DejaVuSans-32"/>
       <path d="M 48.78125 52.59375 
L 48.78125 44.1875 
Q 44.96875 46.296875 41.140625 47.34375 
Q 37.3125 48.390625 33.40625 48.390625 
Q 24.65625 48.390625 19.8125 42.84375 
Q 14.984375 37.3125 14.984375 27.296875 
Q 14.984375 17.28125 19.8125 11.734375 
Q 24.65625 6.203125 33.40625 6.203125 
Q 37.3125 6.203125 41.140625 7.25 
Q 44.96875 8.296875 48.78125 10.40625 
L 48.78125 2.09375 
Q 45.015625 0.34375 40.984375 -0.53125 
Q 36.96875 -1.421875 32.421875 -1.421875 
Q 20.0625 -1.421875 12.78125 6.34375 
Q 5.515625 14.109375 5.515625 27.296875 
Q 5.515625 40.671875 12.859375 48.328125 
Q 20.21875 56 33.015625 56 
Q 37.15625 56 41.109375 55.140625 
Q 45.0625 54.296875 48.78125 52.59375 
z
" id="DejaVuSans-99"/>
       <path d="M 54.890625 33.015625 
L 54.890625 0 
L 45.90625 0 
L 45.90625 32.71875 
Q 45.90625 40.484375 42.875 44.328125 
Q 39.84375 48.1875 33.796875 48.1875 
Q 26.515625 48.1875 22.3125 43.546875 
Q 18.109375 38.921875 18.109375 30.90625 
L 18.109375 0 
L 9.078125 0 
L 9.078125 75.984375 
L 18.109375 75.984375 
L 18.109375 46.1875 
Q 21.34375 51.125 25.703125 53.5625 
Q 30.078125 56 35.796875 56 
Q 45.21875 56 50.046875 50.171875 
Q 54.890625 44.34375 54.890625 33.015625 
z
" id="DejaVuSans-104"/>
       <path d="M 56.203125 29.59375 
L 56.203125 25.203125 
L 14.890625 25.203125 
Q 15.484375 15.921875 20.484375 11.0625 
Q 25.484375 6.203125 34.421875 6.203125 
Q 39.59375 6.203125 44.453125 7.46875 
Q 49.3125 8.734375 54.109375 11.28125 
L 54.109375 2.78125 
Q 49.265625 0.734375 44.1875 -0.34375 
Q 39.109375 -1.421875 33.890625 -1.421875 
Q 20.796875 -1.421875 13.15625 6.1875 
Q 5.515625 13.8125 5.515625 26.8125 
Q 5.515625 40.234375 12.765625 48.109375 
Q 20.015625 56 32.328125 56 
Q 43.359375 56 49.78125 48.890625 
Q 56.203125 41.796875 56.203125 29.59375 
z
M 47.21875 32.234375 
Q 47.125 39.59375 43.09375 43.984375 
Q 39.0625 48.390625 32.421875 48.390625 
Q 24.90625 48.390625 20.390625 44.140625 
Q 15.875 39.890625 15.1875 32.171875 
z
" id="DejaVuSans-101"/>
       <path d="M 34.28125 27.484375 
Q 23.390625 27.484375 19.1875 25 
Q 14.984375 22.515625 14.984375 16.5 
Q 14.984375 11.71875 18.140625 8.90625 
Q 21.296875 6.109375 26.703125 6.109375 
Q 34.1875 6.109375 38.703125 11.40625 
Q 43.21875 16.703125 43.21875 25.484375 
L 43.21875 27.484375 
z
M 52.203125 31.203125 
L 52.203125 0 
L 43.21875 0 
L 43.21875 8.296875 
Q 40.140625 3.328125 35.546875 0.953125 
Q 30.953125 -1.421875 24.3125 -1.421875 
Q 15.921875 -1.421875 10.953125 3.296875 
Q 6 8.015625 6 15.921875 
Q 6 25.140625 12.171875 29.828125 
Q 18.359375 34.515625 30.609375 34.515625 
L 43.21875 34.515625 
L 43.21875 35.40625 
Q 43.21875 41.609375 39.140625 45 
Q 35.0625 48.390625 27.6875 48.390625 
Q 23 48.390625 18.546875 47.265625 
Q 14.109375 46.140625 10.015625 43.890625 
L 10.015625 52.203125 
Q 14.9375 54.109375 19.578125 55.046875 
Q 24.21875 56 28.609375 56 
Q 40.484375 56 46.34375 49.84375 
Q 52.203125 43.703125 52.203125 31.203125 
z
" id="DejaVuSans-97"/>
       <path d="M 18.109375 8.203125 
L 18.109375 -20.796875 
L 9.078125 -20.796875 
L 9.078125 54.6875 
L 18.109375 54.6875 
L 18.109375 46.390625 
Q 20.953125 51.265625 25.265625 53.625 
Q 29.59375 56 35.59375 56 
Q 45.5625 56 51.78125 48.09375 
Q 58.015625 40.1875 58.015625 27.296875 
Q 58.015625 14.40625 51.78125 6.484375 
Q 45.5625 -1.421875 35.59375 -1.421875 
Q 29.59375 -1.421875 25.265625 0.953125 
Q 20.953125 3.328125 18.109375 8.203125 
z
M 48.6875 27.296875 
Q 48.6875 37.203125 44.609375 42.84375 
Q 40.53125 48.484375 33.40625 48.484375 
Q 26.265625 48.484375 22.1875 42.84375 
Q 18.109375 37.203125 18.109375 27.296875 
Q 18.109375 17.390625 22.1875 11.75 
Q 26.265625 6.109375 33.40625 6.109375 
Q 40.53125 6.109375 44.609375 11.75 
Q 48.6875 17.390625 48.6875 27.296875 
z
" id="DejaVuSans-112"/>
       <path d="M 59.515625 10.40625 
L 59.515625 29.984375 
L 43.40625 29.984375 
L 43.40625 38.09375 
L 69.28125 38.09375 
L 69.28125 6.78125 
Q 63.578125 2.734375 56.6875 0.65625 
Q 49.8125 -1.421875 42 -1.421875 
Q 24.90625 -1.421875 15.25 8.5625 
Q 5.609375 18.5625 5.609375 36.375 
Q 5.609375 54.25 15.25 64.234375 
Q 24.90625 74.21875 42 74.21875 
Q 49.125 74.21875 55.546875 72.453125 
Q 61.96875 70.703125 67.390625 67.28125 
L 67.390625 56.78125 
Q 61.921875 61.421875 55.765625 63.765625 
Q 49.609375 66.109375 42.828125 66.109375 
Q 29.4375 66.109375 22.71875 58.640625 
Q 16.015625 51.171875 16.015625 36.375 
Q 16.015625 21.625 22.71875 14.15625 
Q 29.4375 6.6875 42.828125 6.6875 
Q 48.046875 6.6875 52.140625 7.59375 
Q 56.25 8.5 59.515625 10.40625 
z
" id="DejaVuSans-71"/>
       <path d="M 19.671875 64.796875 
L 19.671875 37.40625 
L 32.078125 37.40625 
Q 38.96875 37.40625 42.71875 40.96875 
Q 46.484375 44.53125 46.484375 51.125 
Q 46.484375 57.671875 42.71875 61.234375 
Q 38.96875 64.796875 32.078125 64.796875 
z
M 9.8125 72.90625 
L 32.078125 72.90625 
Q 44.34375 72.90625 50.609375 67.359375 
Q 56.890625 61.8125 56.890625 51.125 
Q 56.890625 40.328125 50.609375 34.8125 
Q 44.34375 29.296875 32.078125 29.296875 
L 19.671875 29.296875 
L 19.671875 0 
L 9.8125 0 
z
" id="DejaVuSans-80"/>
       <path d="M 44.390625 34.1875 
Q 47.5625 33.109375 50.5625 29.59375 
Q 53.5625 26.078125 56.59375 19.921875 
L 66.609375 0 
L 56 0 
L 46.6875 18.703125 
Q 43.0625 26.03125 39.671875 28.421875 
Q 36.28125 30.8125 30.421875 30.8125 
L 19.671875 30.8125 
L 19.671875 0 
L 9.8125 0 
L 9.8125 72.90625 
L 32.078125 72.90625 
Q 44.578125 72.90625 50.734375 67.671875 
Q 56.890625 62.453125 56.890625 51.90625 
Q 56.890625 45.015625 53.6875 40.46875 
Q 50.484375 35.9375 44.390625 34.1875 
z
M 19.671875 64.796875 
L 19.671875 38.921875 
L 32.078125 38.921875 
Q 39.203125 38.921875 42.84375 42.21875 
Q 46.484375 45.515625 46.484375 51.90625 
Q 46.484375 58.296875 42.84375 61.546875 
Q 39.203125 64.796875 32.078125 64.796875 
z
" id="DejaVuSans-82"/>
       <path d="M 31 75.875 
Q 24.46875 64.65625 21.28125 53.65625 
Q 18.109375 42.671875 18.109375 31.390625 
Q 18.109375 20.125 21.3125 9.0625 
Q 24.515625 -2 31 -13.1875 
L 23.1875 -13.1875 
Q 15.875 -1.703125 12.234375 9.375 
Q 8.59375 20.453125 8.59375 31.390625 
Q 8.59375 42.28125 12.203125 53.3125 
Q 15.828125 64.359375 23.1875 75.875 
z
" id="DejaVuSans-40"/>
       <path d="M 41.109375 46.296875 
Q 39.59375 47.171875 37.8125 47.578125 
Q 36.03125 48 33.890625 48 
Q 26.265625 48 22.1875 43.046875 
Q 18.109375 38.09375 18.109375 28.8125 
L 18.109375 0 
L 9.078125 0 
L 9.078125 54.6875 
L 18.109375 54.6875 
L 18.109375 46.1875 
Q 20.953125 51.171875 25.484375 53.578125 
Q 30.03125 56 36.53125 56 
Q 37.453125 56 38.578125 55.875 
Q 39.703125 55.765625 41.0625 55.515625 
z
" id="DejaVuSans-114"/>
       <path d="M 45.40625 27.984375 
Q 45.40625 37.75 41.375 43.109375 
Q 37.359375 48.484375 30.078125 48.484375 
Q 22.859375 48.484375 18.828125 43.109375 
Q 14.796875 37.75 14.796875 27.984375 
Q 14.796875 18.265625 18.828125 12.890625 
Q 22.859375 7.515625 30.078125 7.515625 
Q 37.359375 7.515625 41.375 12.890625 
Q 45.40625 18.265625 45.40625 27.984375 
z
M 54.390625 6.78125 
Q 54.390625 -7.171875 48.1875 -13.984375 
Q 42 -20.796875 29.203125 -20.796875 
Q 24.46875 -20.796875 20.265625 -20.09375 
Q 16.0625 -19.390625 12.109375 -17.921875 
L 12.109375 -9.1875 
Q 16.0625 -11.328125 19.921875 -12.34375 
Q 23.78125 -13.375 27.78125 -13.375 
Q 36.625 -13.375 41.015625 -8.765625 
Q 45.40625 -4.15625 45.40625 5.171875 
L 45.40625 9.625 
Q 42.625 4.78125 38.28125 2.390625 
Q 33.9375 0 27.875 0 
Q 17.828125 0 11.671875 7.65625 
Q 5.515625 15.328125 5.515625 27.984375 
Q 5.515625 40.671875 11.671875 48.328125 
Q 17.828125 56 27.875 56 
Q 33.9375 56 38.28125 53.609375 
Q 42.625 51.21875 45.40625 46.390625 
L 45.40625 54.6875 
L 54.390625 54.6875 
z
" id="DejaVuSans-103"/>
       <path d="M 8.5 21.578125 
L 8.5 54.6875 
L 17.484375 54.6875 
L 17.484375 21.921875 
Q 17.484375 14.15625 20.5 10.265625 
Q 23.53125 6.390625 29.59375 6.390625 
Q 36.859375 6.390625 41.078125 11.03125 
Q 45.3125 15.671875 45.3125 23.6875 
L 45.3125 54.6875 
L 54.296875 54.6875 
L 54.296875 0 
L 45.3125 0 
L 45.3125 8.40625 
Q 42.046875 3.421875 37.71875 1 
Q 33.40625 -1.421875 27.6875 -1.421875 
Q 18.265625 -1.421875 13.375 4.4375 
Q 8.5 10.296875 8.5 21.578125 
z
M 31.109375 56 
z
" id="DejaVuSans-117"/>
       <path d="M 9.421875 75.984375 
L 18.40625 75.984375 
L 18.40625 0 
L 9.421875 0 
z
" id="DejaVuSans-108"/>
       <path d="M 8.015625 75.875 
L 15.828125 75.875 
Q 23.140625 64.359375 26.78125 53.3125 
Q 30.421875 42.28125 30.421875 31.390625 
Q 30.421875 20.453125 26.78125 9.375 
Q 23.140625 -1.703125 15.828125 -13.1875 
L 8.015625 -13.1875 
Q 14.5 -2 17.703125 9.0625 
Q 20.90625 20.125 20.90625 31.390625 
Q 20.90625 42.671875 17.703125 53.65625 
Q 14.5 64.65625 8.015625 75.875 
z
" id="DejaVuSans-41"/>
      </defs>
      <use xlink:href="#DejaVuSans-77"/>
      <use x="86.279297" xlink:href="#DejaVuSans-70"/>
      <use x="143.798828" xlink:href="#DejaVuSans-32"/>
      <use x="175.585938" xlink:href="#DejaVuSans-99"/>
      <use x="230.566406" xlink:href="#DejaVuSans-104"/>
      <use x="293.945312" xlink:href="#DejaVuSans-101"/>
      <use x="355.46875" xlink:href="#DejaVuSans-97"/>
      <use x="416.748047" xlink:href="#DejaVuSans-112"/>
      <use x="480.224609" xlink:href="#DejaVuSans-32"/>
      <use x="512.011719" xlink:href="#DejaVuSans-71"/>
      <use x="589.501953" xlink:href="#DejaVuSans-80"/>
      <use x="649.804688" xlink:href="#DejaVuSans-82"/>
      <use x="719.287109" xlink:href="#DejaVuSans-32"/>
      <use x="751.074219" xlink:href="#DejaVuSans-40"/>
      <use x="790.087891" xlink:href="#DejaVuSans-114"/>
      <use x="828.951172" xlink:href="#DejaVuSans-101"/>
      <use x="890.474609" xlink:href="#DejaVuSans-103"/>
      <use x="953.951172" xlink:href="#DejaVuSans-117"/>
      <use x="1017.330078" xlink:href="#DejaVuSans-108"/>
      <use x="1045.113281" xlink:href="#DejaVuSans-97"/>
      <use x="1106.392578" xlink:href="#DejaVuSans-114"/>
      <use x="1147.505859" xlink:href="#DejaVuSans-32"/>
      <use x="1179.292969" xlink:href="#DejaVuSans-71"/>
      <use x="1256.783203" xlink:href="#DejaVuSans-80"/>
      <use x="1317.085938" xlink:href="#DejaVuSans-82"/>
      <use x="1386.568359" xlink:href="#DejaVuSans-41"/>
     </g>
    </g>
    <g id="line2d_35">
     <path d="M 66.6 69.248563 
L 86.6 69.248563 
" style="fill:none;stroke:#ffa500;stroke-linecap:square;stroke-width:1.5;"/>
    </g>
    <g id="line2d_36"/>
    <g id="text_14">
     <!-- MF expensive GPR -->
     <g transform="translate(94.6 72.748563)scale(0.1 -0.1)">
      <defs>
       <path d="M 54.890625 54.6875 
L 35.109375 28.078125 
L 55.90625 0 
L 45.3125 0 
L 29.390625 21.484375 
L 13.484375 0 
L 2.875 0 
L 24.125 28.609375 
L 4.6875 54.6875 
L 15.28125 54.6875 
L 29.78125 35.203125 
L 44.28125 54.6875 
z
" id="DejaVuSans-120"/>
       <path d="M 54.890625 33.015625 
L 54.890625 0 
L 45.90625 0 
L 45.90625 32.71875 
Q 45.90625 40.484375 42.875 44.328125 
Q 39.84375 48.1875 33.796875 48.1875 
Q 26.515625 48.1875 22.3125 43.546875 
Q 18.109375 38.921875 18.109375 30.90625 
L 18.109375 0 
L 9.078125 0 
L 9.078125 54.6875 
L 18.109375 54.6875 
L 18.109375 46.1875 
Q 21.34375 51.125 25.703125 53.5625 
Q 30.078125 56 35.796875 56 
Q 45.21875 56 50.046875 50.171875 
Q 54.890625 44.34375 54.890625 33.015625 
z
" id="DejaVuSans-110"/>
       <path d="M 44.28125 53.078125 
L 44.28125 44.578125 
Q 40.484375 46.53125 36.375 47.5 
Q 32.28125 48.484375 27.875 48.484375 
Q 21.1875 48.484375 17.84375 46.4375 
Q 14.5 44.390625 14.5 40.28125 
Q 14.5 37.15625 16.890625 35.375 
Q 19.28125 33.59375 26.515625 31.984375 
L 29.59375 31.296875 
Q 39.15625 29.25 43.1875 25.515625 
Q 47.21875 21.78125 47.21875 15.09375 
Q 47.21875 7.46875 41.1875 3.015625 
Q 35.15625 -1.421875 24.609375 -1.421875 
Q 20.21875 -1.421875 15.453125 -0.5625 
Q 10.6875 0.296875 5.421875 2 
L 5.421875 11.28125 
Q 10.40625 8.6875 15.234375 7.390625 
Q 20.0625 6.109375 24.8125 6.109375 
Q 31.15625 6.109375 34.5625 8.28125 
Q 37.984375 10.453125 37.984375 14.40625 
Q 37.984375 18.0625 35.515625 20.015625 
Q 33.0625 21.96875 24.703125 23.78125 
L 21.578125 24.515625 
Q 13.234375 26.265625 9.515625 29.90625 
Q 5.8125 33.546875 5.8125 39.890625 
Q 5.8125 47.609375 11.28125 51.796875 
Q 16.75 56 26.8125 56 
Q 31.78125 56 36.171875 55.265625 
Q 40.578125 54.546875 44.28125 53.078125 
z
" id="DejaVuSans-115"/>
       <path d="M 9.421875 54.6875 
L 18.40625 54.6875 
L 18.40625 0 
L 9.421875 0 
z
M 9.421875 75.984375 
L 18.40625 75.984375 
L 18.40625 64.59375 
L 9.421875 64.59375 
z
" id="DejaVuSans-105"/>
       <path d="M 2.984375 54.6875 
L 12.5 54.6875 
L 29.59375 8.796875 
L 46.6875 54.6875 
L 56.203125 54.6875 
L 35.6875 0 
L 23.484375 0 
z
" id="DejaVuSans-118"/>
      </defs>
      <use xlink:href="#DejaVuSans-77"/>
      <use x="86.279297" xlink:href="#DejaVuSans-70"/>
      <use x="143.798828" xlink:href="#DejaVuSans-32"/>
      <use x="175.585938" xlink:href="#DejaVuSans-101"/>
      <use x="235.359375" xlink:href="#DejaVuSans-120"/>
      <use x="294.539062" xlink:href="#DejaVuSans-112"/>
      <use x="358.015625" xlink:href="#DejaVuSans-101"/>
      <use x="419.539062" xlink:href="#DejaVuSans-110"/>
      <use x="482.917969" xlink:href="#DejaVuSans-115"/>
      <use x="535.017578" xlink:href="#DejaVuSans-105"/>
      <use x="562.800781" xlink:href="#DejaVuSans-118"/>
      <use x="621.980469" xlink:href="#DejaVuSans-101"/>
      <use x="683.503906" xlink:href="#DejaVuSans-32"/>
      <use x="715.291016" xlink:href="#DejaVuSans-71"/>
      <use x="792.78125" xlink:href="#DejaVuSans-80"/>
      <use x="853.083984" xlink:href="#DejaVuSans-82"/>
     </g>
    </g>
    <g id="line2d_37">
     <path d="M 66.6 83.926688 
L 86.6 83.926688 
" style="fill:none;stroke:#0000ff;stroke-dasharray:5.55,2.4;stroke-dashoffset:0;stroke-width:1.5;"/>
    </g>
    <g id="line2d_38"/>
    <g id="text_15">
     <!-- Exact cheap function -->
     <g transform="translate(94.6 87.426688)scale(0.1 -0.1)">
      <defs>
       <path d="M 9.8125 72.90625 
L 55.90625 72.90625 
L 55.90625 64.59375 
L 19.671875 64.59375 
L 19.671875 43.015625 
L 54.390625 43.015625 
L 54.390625 34.71875 
L 19.671875 34.71875 
L 19.671875 8.296875 
L 56.78125 8.296875 
L 56.78125 0 
L 9.8125 0 
z
" id="DejaVuSans-69"/>
       <path d="M 18.3125 70.21875 
L 18.3125 54.6875 
L 36.8125 54.6875 
L 36.8125 47.703125 
L 18.3125 47.703125 
L 18.3125 18.015625 
Q 18.3125 11.328125 20.140625 9.421875 
Q 21.96875 7.515625 27.59375 7.515625 
L 36.8125 7.515625 
L 36.8125 0 
L 27.59375 0 
Q 17.1875 0 13.234375 3.875 
Q 9.28125 7.765625 9.28125 18.015625 
L 9.28125 47.703125 
L 2.6875 47.703125 
L 2.6875 54.6875 
L 9.28125 54.6875 
L 9.28125 70.21875 
z
" id="DejaVuSans-116"/>
       <path d="M 37.109375 75.984375 
L 37.109375 68.5 
L 28.515625 68.5 
Q 23.6875 68.5 21.796875 66.546875 
Q 19.921875 64.59375 19.921875 59.515625 
L 19.921875 54.6875 
L 34.71875 54.6875 
L 34.71875 47.703125 
L 19.921875 47.703125 
L 19.921875 0 
L 10.890625 0 
L 10.890625 47.703125 
L 2.296875 47.703125 
L 2.296875 54.6875 
L 10.890625 54.6875 
L 10.890625 58.5 
Q 10.890625 67.625 15.140625 71.796875 
Q 19.390625 75.984375 28.609375 75.984375 
z
" id="DejaVuSans-102"/>
       <path d="M 30.609375 48.390625 
Q 23.390625 48.390625 19.1875 42.75 
Q 14.984375 37.109375 14.984375 27.296875 
Q 14.984375 17.484375 19.15625 11.84375 
Q 23.34375 6.203125 30.609375 6.203125 
Q 37.796875 6.203125 41.984375 11.859375 
Q 46.1875 17.53125 46.1875 27.296875 
Q 46.1875 37.015625 41.984375 42.703125 
Q 37.796875 48.390625 30.609375 48.390625 
z
M 30.609375 56 
Q 42.328125 56 49.015625 48.375 
Q 55.71875 40.765625 55.71875 27.296875 
Q 55.71875 13.875 49.015625 6.21875 
Q 42.328125 -1.421875 30.609375 -1.421875 
Q 18.84375 -1.421875 12.171875 6.21875 
Q 5.515625 13.875 5.515625 27.296875 
Q 5.515625 40.765625 12.171875 48.375 
Q 18.84375 56 30.609375 56 
z
" id="DejaVuSans-111"/>
      </defs>
      <use xlink:href="#DejaVuSans-69"/>
      <use x="63.183594" xlink:href="#DejaVuSans-120"/>
      <use x="122.363281" xlink:href="#DejaVuSans-97"/>
      <use x="183.642578" xlink:href="#DejaVuSans-99"/>
      <use x="238.623047" xlink:href="#DejaVuSans-116"/>
      <use x="277.832031" xlink:href="#DejaVuSans-32"/>
      <use x="309.619141" xlink:href="#DejaVuSans-99"/>
      <use x="364.599609" xlink:href="#DejaVuSans-104"/>
      <use x="427.978516" xlink:href="#DejaVuSans-101"/>
      <use x="489.501953" xlink:href="#DejaVuSans-97"/>
      <use x="550.78125" xlink:href="#DejaVuSans-112"/>
      <use x="614.257812" xlink:href="#DejaVuSans-32"/>
      <use x="646.044922" xlink:href="#DejaVuSans-102"/>
      <use x="681.25" xlink:href="#DejaVuSans-117"/>
      <use x="744.628906" xlink:href="#DejaVuSans-110"/>
      <use x="808.007812" xlink:href="#DejaVuSans-99"/>
      <use x="862.988281" xlink:href="#DejaVuSans-116"/>
      <use x="902.197266" xlink:href="#DejaVuSans-105"/>
      <use x="929.980469" xlink:href="#DejaVuSans-111"/>
      <use x="991.162109" xlink:href="#DejaVuSans-110"/>
     </g>
    </g>
    <g id="line2d_39">
     <path d="M 66.6 98.604813 
L 86.6 98.604813 
" style="fill:none;stroke:#ffa500;stroke-dasharray:5.55,2.4;stroke-dashoffset:0;stroke-width:1.5;"/>
    </g>
    <g id="line2d_40"/>
    <g id="text_16">
     <!-- Exact expensive function -->
     <g transform="translate(94.6 102.104813)scale(0.1 -0.1)">
      <use xlink:href="#DejaVuSans-69"/>
      <use x="63.183594" xlink:href="#DejaVuSans-120"/>
      <use x="122.363281" xlink:href="#DejaVuSans-97"/>
      <use x="183.642578" xlink:href="#DejaVuSans-99"/>
      <use x="238.623047" xlink:href="#DejaVuSans-116"/>
      <use x="277.832031" xlink:href="#DejaVuSans-32"/>
      <use x="309.619141" xlink:href="#DejaVuSans-101"/>
      <use x="369.392578" xlink:href="#DejaVuSans-120"/>
      <use x="428.572266" xlink:href="#DejaVuSans-112"/>
      <use x="492.048828" xlink:href="#DejaVuSans-101"/>
      <use x="553.572266" xlink:href="#DejaVuSans-110"/>
      <use x="616.951172" xlink:href="#DejaVuSans-115"/>
      <use x="669.050781" xlink:href="#DejaVuSans-105"/>
      <use x="696.833984" xlink:href="#DejaVuSans-118"/>
      <use x="756.013672" xlink:href="#DejaVuSans-101"/>
      <use x="817.537109" xlink:href="#DejaVuSans-32"/>
      <use x="849.324219" xlink:href="#DejaVuSans-102"/>
      <use x="884.529297" xlink:href="#DejaVuSans-117"/>
      <use x="947.908203" xlink:href="#DejaVuSans-110"/>
      <use x="1011.287109" xlink:href="#DejaVuSans-99"/>
      <use x="1066.267578" xlink:href="#DejaVuSans-116"/>
      <use x="1105.476562" xlink:href="#DejaVuSans-105"/>
      <use x="1133.259766" xlink:href="#DejaVuSans-111"/>
      <use x="1194.441406" xlink:href="#DejaVuSans-110"/>
     </g>
    </g>
   </g>
  </g>
 </g>
 <defs>
  <clipPath id="pb8c99cc7fe">
   <rect height="266.112" width="357.12" x="57.6" y="41.472"/>
  </clipPath>
 </defs>
</svg>
