<?xml version="1.0" encoding="utf-8" standalone="no"?>
<!DOCTYPE svg PUBLIC "-//W3C//DTD SVG 1.1//EN"
  "http://www.w3.org/Graphics/SVG/1.1/DTD/svg11.dtd">
<!-- Created with matplotlib (https://matplotlib.org/) -->
<svg height="345.6pt" version="1.1" viewBox="0 0 460.8 345.6" width="460.8pt" xmlns="http://www.w3.org/2000/svg" xmlns:xlink="http://www.w3.org/1999/xlink">
 <metadata>
  <rdf:RDF xmlns:cc="http://creativecommons.org/ns#" xmlns:dc="http://purl.org/dc/elements/1.1/" xmlns:rdf="http://www.w3.org/1999/02/22-rdf-syntax-ns#">
   <cc:Work>
    <dc:type rdf:resource="http://purl.org/dc/dcmitype/StillImage"/>
    <dc:date>2020-11-24T14:05:04.282326</dc:date>
    <dc:format>image/svg+xml</dc:format>
    <dc:creator>
     <cc:Agent>
      <dc:title>Matplotlib v3.3.1, https://matplotlib.org/</dc:title>
     </cc:Agent>
    </dc:creator>
   </cc:Work>
  </rdf:RDF>
 </metadata>
 <defs>
  <style type="text/css">*{stroke-linecap:butt;stroke-linejoin:round;}</style>
 </defs>
 <g id="figure_1">
  <g id="patch_1">
   <path d="M 0 345.6 
L 460.8 345.6 
L 460.8 0 
L 0 0 
z
" style="fill:#ffffff;"/>
  </g>
  <g id="axes_1">
   <g id="patch_2">
    <path d="M 57.6 307.584 
L 414.72 307.584 
L 414.72 41.472 
L 57.6 41.472 
z
" style="fill:#ffffff;"/>
   </g>
   <g id="PolyCollection_1">
    <defs>
     <path d="M 73.832727 -122.340085 
L 73.832727 -88.966524 
L 77.112066 -89.358247 
L 80.391405 -89.445018 
L 83.670744 -89.323228 
L 86.950083 -89.07798 
L 90.229421 -88.781182 
L 93.50876 -88.490557 
L 96.788099 -88.249532 
L 100.067438 -88.087911 
L 103.346777 -88.023186 
L 106.626116 -88.062333 
L 109.905455 -88.203886 
L 113.184793 -88.440129 
L 116.464132 -88.759232 
L 119.743471 -89.147186 
L 123.02281 -89.589447 
L 126.302149 -90.07222 
L 129.581488 -90.583357 
L 132.860826 -91.112889 
L 136.140165 -91.653221 
L 139.419504 -92.199068 
L 142.698843 -92.747194 
L 145.978182 -93.296027 
L 149.257521 -93.845238 
L 152.53686 -94.395326 
L 155.816198 -94.947256 
L 159.095537 -95.502186 
L 162.374876 -96.061276 
L 165.654215 -96.625591 
L 168.933554 -97.196068 
L 172.212893 -97.773529 
L 175.492231 -98.35872 
L 178.77157 -98.952338 
L 182.050909 -99.555045 
L 185.330248 -100.167433 
L 188.609587 -100.789961 
L 191.888926 -101.422842 
L 195.168264 -102.065907 
L 198.447603 -102.718444 
L 201.726942 -103.379048 
L 205.006281 -104.045475 
L 208.28562 -104.714538 
L 211.564959 -105.382044 
L 214.844298 -106.042788 
L 218.123636 -106.690608 
L 221.402975 -107.31849 
L 224.682314 -107.918741 
L 227.961653 -108.4832 
L 231.240992 -109.003486 
L 234.520331 -109.471273 
L 237.799669 -109.878577 
L 241.079008 -110.218043 
L 244.358347 -110.483224 
L 247.637686 -110.668838 
L 250.917025 -110.77101 
L 254.196364 -110.787482 
L 257.475702 -110.717793 
L 260.755041 -110.563434 
L 264.03438 -110.327969 
L 267.313719 -110.017127 
L 270.593058 -109.63886 
L 273.872397 -109.203367 
L 277.151736 -108.723075 
L 280.431074 -108.212568 
L 283.710413 -107.688466 
L 286.989752 -107.169227 
L 290.269091 -106.674876 
L 293.54843 -106.226664 
L 296.827769 -105.846625 
L 300.107107 -105.557077 
L 303.386446 -105.380049 
L 306.665785 -105.336663 
L 309.945124 -105.446515 
L 313.224463 -105.727065 
L 316.503802 -106.193095 
L 319.78314 -106.856263 
L 323.062479 -107.724799 
L 326.341818 -108.803353 
L 329.621157 -110.093028 
L 332.900496 -111.591581 
L 336.179835 -113.293772 
L 339.459174 -115.191829 
L 342.738512 -117.275949 
L 346.017851 -119.534782 
L 349.29719 -121.955801 
L 352.576529 -124.525485 
L 355.855868 -127.229236 
L 359.135207 -130.050987 
L 362.414545 -132.972463 
L 365.693884 -135.972124 
L 368.973223 -139.023818 
L 372.252562 -142.095251 
L 375.531901 -145.146385 
L 378.81124 -148.127931 
L 382.090579 -150.980084 
L 385.369917 -153.631703 
L 388.649256 -156.000071 
L 391.928595 -157.991376 
L 395.207934 -159.502 
L 398.487273 -160.420662 
L 398.487273 -193.794224 
L 398.487273 -193.794224 
L 395.207934 -190.687838 
L 391.928595 -187.767024 
L 388.649256 -184.955253 
L 385.369917 -182.188998 
L 382.090579 -179.419361 
L 378.81124 -176.612755 
L 375.531901 -173.75067 
L 372.252562 -170.828646 
L 368.973223 -167.854584 
L 365.693884 -164.846572 
L 362.414545 -161.830428 
L 359.135207 -158.837134 
L 355.855868 -155.900354 
L 352.576529 -153.054159 
L 349.29719 -150.331089 
L 346.017851 -147.760609 
L 342.738512 -145.367986 
L 339.459174 -143.173593 
L 336.179835 -141.192588 
L 332.900496 -139.434908 
L 329.621157 -137.905521 
L 326.341818 -136.604834 
L 323.062479 -135.529211 
L 319.78314 -134.671515 
L 316.503802 -134.021642 
L 313.224463 -133.567012 
L 309.945124 -133.292996 
L 306.665785 -133.183286 
L 303.386446 -133.220213 
L 300.107107 -133.385025 
L 296.827769 -133.658155 
L 293.54843 -134.019491 
L 290.269091 -134.448647 
L 286.989752 -134.925278 
L 283.710413 -135.429397 
L 280.431074 -135.94172 
L 277.151736 -136.444019 
L 273.872397 -136.919454 
L 270.593058 -137.352887 
L 267.313719 -137.731151 
L 264.03438 -138.043258 
L 260.755041 -138.280538 
L 257.475702 -138.436702 
L 254.196364 -138.50783 
L 250.917025 -138.492279 
L 247.637686 -138.390532 
L 244.358347 -138.204987 
L 241.079008 -137.939707 
L 237.799669 -137.600141 
L 234.520331 -137.192837 
L 231.240992 -136.725149 
L 227.961653 -136.204964 
L 224.682314 -135.640436 
L 221.402975 -135.039759 
L 218.123636 -134.410956 
L 214.844298 -133.761698 
L 211.564959 -133.099148 
L 208.28562 -132.429826 
L 205.006281 -131.759499 
L 201.726942 -131.093074 
L 198.447603 -130.434531 
L 195.168264 -129.786851 
L 191.888926 -129.151994 
L 188.609587 -128.530891 
L 185.330248 -127.923485 
L 182.050909 -127.328816 
L 178.77157 -126.745165 
L 175.492231 -126.17025 
L 172.212893 -125.601476 
L 168.933554 -125.036232 
L 165.654215 -124.472215 
L 162.374876 -123.907757 
L 159.095537 -123.342133 
L 155.816198 -122.775804 
L 152.53686 -122.210578 
L 149.257521 -121.64965 
L 145.978182 -121.097508 
L 142.698843 -120.559686 
L 139.419504 -120.042396 
L 136.140165 -119.552036 
L 132.860826 -119.094653 
L 129.581488 -118.675394 
L 126.302149 -118.298047 
L 123.02281 -117.964735 
L 119.743471 -117.67586 
L 116.464132 -117.43035 
L 113.184793 -117.226277 
L 109.905455 -117.061851 
L 106.626116 -116.936782 
L 103.346777 -116.853952 
L 100.067438 -116.821306 
L 96.788099 -116.853816 
L 93.50876 -116.975381 
L 90.229421 -117.22046 
L 86.950083 -117.635275 
L 83.670744 -118.278409 
L 80.391405 -119.220667 
L 77.112066 -120.544086 
L 73.832727 -122.340085 
z
" id="m36e4107d5c" style="stroke:#0000ff;stroke-opacity:0.2;"/>
    </defs>
    <g clip-path="url(#p3ea8f758ee)">
     <use style="fill:#0000ff;fill-opacity:0.2;stroke:#0000ff;stroke-opacity:0.2;" x="0" xlink:href="#m36e4107d5c" y="345.6"/>
    </g>
   </g>
   <g id="PolyCollection_2">
    <defs>
     <path d="M 73.832727 -235.283248 
L 73.832727 -77.584118 
L 77.112066 -80.2196 
L 80.391405 -81.233652 
L 83.670744 -81.066343 
L 86.950083 -80.107852 
L 90.229421 -78.689704 
L 93.50876 -77.080204 
L 96.788099 -75.483883 
L 100.067438 -74.04451 
L 103.346777 -72.851047 
L 106.626116 -71.945736 
L 109.905455 -71.3335 
L 113.184793 -70.991809 
L 116.464132 -70.880244 
L 119.743471 -70.949147 
L 123.02281 -71.146874 
L 126.302149 -71.425379 
L 129.581488 -71.744023 
L 132.860826 -72.071681 
L 136.140165 -72.387346 
L 139.419504 -72.679518 
L 142.698843 -72.94475 
L 145.978182 -73.185685 
L 149.257521 -73.408938 
L 152.53686 -73.623092 
L 155.816198 -73.837013 
L 159.095537 -74.058615 
L 162.374876 -74.294108 
L 165.654215 -74.547703 
L 168.933554 -74.821708 
L 172.212893 -75.116876 
L 175.492231 -75.43291 
L 178.77157 -75.76897 
L 182.050909 -76.124105 
L 185.330248 -76.497526 
L 188.609587 -76.88868 
L 191.888926 -77.297125 
L 195.168264 -77.722234 
L 198.447603 -78.162773 
L 201.726942 -78.616417 
L 205.006281 -79.079275 
L 208.28562 -79.545483 
L 211.564959 -80.006926 
L 214.844298 -80.453114 
L 218.123636 -80.871238 
L 221.402975 -81.246413 
L 224.682314 -81.562069 
L 227.961653 -81.800482 
L 231.240992 -81.943396 
L 234.520331 -81.972697 
L 237.799669 -81.87109 
L 241.079008 -81.622755 
L 244.358347 -81.213944 
L 247.637686 -80.633507 
L 250.917025 -79.87334 
L 254.196364 -78.928754 
L 257.475702 -77.798786 
L 260.755041 -76.48645 
L 264.03438 -74.998968 
L 267.313719 -73.347963 
L 270.593058 -71.549651 
L 273.872397 -69.624985 
L 277.151736 -67.599774 
L 280.431074 -65.504703 
L 283.710413 -63.37524 
L 286.989752 -61.251363 
L 290.269091 -59.177068 
L 293.54843 -57.199616 
L 296.827769 -55.36849 
L 300.107107 -53.734083 
L 303.386446 -52.346135 
L 306.665785 -51.252001 
L 309.945124 -50.494863 
L 313.224463 -50.112 
L 316.503802 -50.1333 
L 319.78314 -50.580143 
L 323.062479 -51.464814 
L 326.341818 -52.790539 
L 329.621157 -54.552187 
L 332.900496 -56.737615 
L 336.179835 -59.329539 
L 339.459174 -62.307724 
L 342.738512 -65.651218 
L 346.017851 -69.340279 
L 349.29719 -73.35764 
L 352.576529 -77.688721 
L 355.855868 -82.320492 
L 359.135207 -87.238745 
L 362.414545 -92.423693 
L 365.693884 -97.843962 
L 368.973223 -103.449231 
L 372.252562 -109.161952 
L 375.531901 -114.868756 
L 378.81124 -120.412283 
L 382.090579 -125.584225 
L 385.369917 -130.120436 
L 388.649256 -133.698843 
L 391.928595 -135.940802 
L 395.207934 -136.416313 
L 398.487273 -134.653279 
L 398.487273 -292.032 
L 398.487273 -292.032 
L 395.207934 -283.616321 
L 391.928595 -276.564141 
L 388.649256 -270.478123 
L 385.369917 -265.014508 
L 382.090579 -259.891272 
L 378.81124 -254.89203 
L 375.531901 -249.86586 
L 372.252562 -244.723515 
L 368.973223 -239.430665 
L 365.693884 -233.998984 
L 362.414545 -228.475938 
L 359.135207 -222.934117 
L 355.855868 -217.460904 
L 352.576529 -212.14912 
L 349.29719 -207.089125 
L 346.017851 -202.362671 
L 342.738512 -198.038624 
L 339.459174 -194.170488 
L 336.179835 -190.795539 
L 332.900496 -187.935286 
L 329.621157 -185.596893 
L 326.341818 -183.775215 
L 323.062479 -182.455102 
L 319.78314 -181.613686 
L 316.503802 -181.22244 
L 313.224463 -181.24887 
L 309.945124 -181.65779 
L 306.665785 -182.412191 
L 303.386446 -183.473762 
L 300.107107 -184.803177 
L 296.827769 -186.360238 
L 293.54843 -188.104012 
L 290.269091 -189.993012 
L 286.989752 -191.985529 
L 283.710413 -194.040099 
L 280.431074 -196.116136 
L 277.151736 -198.174678 
L 273.872397 -200.179201 
L 270.593058 -202.096435 
L 267.313719 -203.897113 
L 264.03438 -205.556599 
L 260.755041 -207.055333 
L 257.475702 -208.379079 
L 254.196364 -209.518943 
L 250.917025 -210.471192 
L 247.637686 -211.236879 
L 244.358347 -211.821326 
L 241.079008 -212.233497 
L 237.799669 -212.485316 
L 234.520331 -212.590987 
L 231.240992 -212.566326 
L 227.961653 -212.428172 
L 224.682314 -212.193858 
L 221.402975 -211.880777 
L 218.123636 -211.506015 
L 214.844298 -211.086049 
L 211.564959 -210.636479 
L 208.28562 -210.171781 
L 205.006281 -209.705053 
L 201.726942 -209.247753 
L 198.447603 -208.809423 
L 195.168264 -208.397406 
L 191.888926 -208.016609 
L 188.609587 -207.669318 
L 185.330248 -207.355141 
L 182.050909 -207.071104 
L 178.77157 -206.811961 
L 175.492231 -206.570722 
L 172.212893 -206.339427 
L 168.933554 -206.110106 
L 165.654215 -205.875895 
L 162.374876 -205.632181 
L 159.095537 -205.377683 
L 155.816198 -205.115308 
L 152.53686 -204.852648 
L 149.257521 -204.601993 
L 145.978182 -204.379775 
L 142.698843 -204.205405 
L 139.419504 -204.099559 
L 136.140165 -204.082016 
L 132.860826 -204.169293 
L 129.581488 -204.372327 
L 126.302149 -204.694587 
L 123.02281 -205.130958 
L 119.743471 -205.667789 
L 116.464132 -206.2844 
L 113.184793 -206.956278 
L 109.905455 -207.660045 
L 106.626116 -208.380103 
L 103.346777 -209.116713 
L 100.067438 -209.89503 
L 96.788099 -210.774501 
L 93.50876 -211.857852 
L 90.229421 -213.298863 
L 86.950083 -215.308069 
L 83.670744 -218.155618 
L 80.391405 -222.170648 
L 77.112066 -227.736739 
L 73.832727 -235.283248 
z
" id="m3ad420be50" style="stroke:#ffa500;stroke-opacity:0.2;"/>
    </defs>
    <g clip-path="url(#p3ea8f758ee)">
     <use style="fill:#ffa500;fill-opacity:0.2;stroke:#ffa500;stroke-opacity:0.2;" x="0" xlink:href="#m3ad420be50" y="345.6"/>
    </g>
   </g>
   <g id="PathCollection_1">
    <defs>
     <path d="M 0 3 
C 0.795609 3 1.55874 2.683901 2.12132 2.12132 
C 2.683901 1.55874 3 0.795609 3 0 
C 3 -0.795609 2.683901 -1.55874 2.12132 -2.12132 
C 1.55874 -2.683901 0.795609 -3 0 -3 
C -0.795609 -3 -1.55874 -2.683901 -2.12132 -2.12132 
C -2.683901 -1.55874 -3 -0.795609 -3 0 
C -3 0.795609 -2.683901 1.55874 -2.12132 2.12132 
C -1.55874 2.683901 -0.795609 3 0 3 
z
" id="m624e1230e6" style="stroke:#0000ff;"/>
    </defs>
    <g clip-path="url(#p3ea8f758ee)">
     <use style="fill:#0000ff;stroke:#0000ff;" x="73.832727" xlink:href="#m624e1230e6" y="240.215301"/>
     <use style="fill:#0000ff;stroke:#0000ff;" x="106.298182" xlink:href="#m624e1230e6" y="243.97084"/>
     <use style="fill:#0000ff;stroke:#0000ff;" x="138.763636" xlink:href="#m624e1230e6" y="239.472433"/>
     <use style="fill:#0000ff;stroke:#0000ff;" x="171.229091" xlink:href="#m624e1230e6" y="233.619496"/>
     <use style="fill:#0000ff;stroke:#0000ff;" x="203.694545" xlink:href="#m624e1230e6" y="228.867929"/>
     <use style="fill:#0000ff;stroke:#0000ff;" x="236.16" xlink:href="#m624e1230e6" y="222.634997"/>
     <use style="fill:#0000ff;stroke:#0000ff;" x="268.625455" xlink:href="#m624e1230e6" y="220.535588"/>
     <use style="fill:#0000ff;stroke:#0000ff;" x="301.090909" xlink:href="#m624e1230e6" y="226.014186"/>
     <use style="fill:#0000ff;stroke:#0000ff;" x="333.556364" xlink:href="#m624e1230e6" y="222.319232"/>
     <use style="fill:#0000ff;stroke:#0000ff;" x="366.021818" xlink:href="#m624e1230e6" y="194.079803"/>
     <use style="fill:#0000ff;stroke:#0000ff;" x="398.487273" xlink:href="#m624e1230e6" y="167.052154"/>
    </g>
   </g>
   <g id="PathCollection_2">
    <defs>
     <path d="M 0 3 
C 0.795609 3 1.55874 2.683901 2.12132 2.12132 
C 2.683901 1.55874 3 0.795609 3 0 
C 3 -0.795609 2.683901 -1.55874 2.12132 -2.12132 
C 1.55874 -2.683901 0.795609 -3 0 -3 
C -0.795609 -3 -1.55874 -2.683901 -2.12132 -2.12132 
C -2.683901 -1.55874 -3 -0.795609 -3 0 
C -3 0.795609 -2.683901 1.55874 -2.12132 2.12132 
C -1.55874 2.683901 -0.795609 3 0 3 
z
" id="m498ca535b8" style="stroke:#ffa500;"/>
    </defs>
    <g clip-path="url(#p3ea8f758ee)">
     <use style="fill:#ffa500;stroke:#ffa500;" x="73.832727" xlink:href="#m498ca535b8" y="189.524253"/>
     <use style="fill:#ffa500;stroke:#ffa500;" x="203.694545" xlink:href="#m498ca535b8" y="202.516106"/>
     <use style="fill:#ffa500;stroke:#ffa500;" x="268.625455" xlink:href="#m498ca535b8" y="203.694722"/>
     <use style="fill:#ffa500;stroke:#ffa500;" x="333.556364" xlink:href="#m498ca535b8" y="225.105308"/>
     <use style="fill:#ffa500;stroke:#ffa500;" x="398.487273" xlink:href="#m498ca535b8" y="132.414449"/>
    </g>
   </g>
   <g id="matplotlib.axis_1">
    <g id="xtick_1">
     <g id="line2d_1">
      <path clip-path="url(#p3ea8f758ee)" d="M 73.832727 307.584 
L 73.832727 41.472 
" style="fill:none;stroke:#b0b0b0;stroke-linecap:square;stroke-width:0.8;"/>
     </g>
     <g id="line2d_2">
      <defs>
       <path d="M 0 0 
L 0 3.5 
" id="mfa32c05ea3" style="stroke:#000000;stroke-width:0.8;"/>
      </defs>
      <g>
       <use style="stroke:#000000;stroke-width:0.8;" x="73.832727" xlink:href="#mfa32c05ea3" y="307.584"/>
      </g>
     </g>
     <g id="text_1">
      <!-- 0.0 -->
      <g transform="translate(65.881165 322.182437)scale(0.1 -0.1)">
       <defs>
        <path d="M 31.78125 66.40625 
Q 24.171875 66.40625 20.328125 58.90625 
Q 16.5 51.421875 16.5 36.375 
Q 16.5 21.390625 20.328125 13.890625 
Q 24.171875 6.390625 31.78125 6.390625 
Q 39.453125 6.390625 43.28125 13.890625 
Q 47.125 21.390625 47.125 36.375 
Q 47.125 51.421875 43.28125 58.90625 
Q 39.453125 66.40625 31.78125 66.40625 
z
M 31.78125 74.21875 
Q 44.046875 74.21875 50.515625 64.515625 
Q 56.984375 54.828125 56.984375 36.375 
Q 56.984375 17.96875 50.515625 8.265625 
Q 44.046875 -1.421875 31.78125 -1.421875 
Q 19.53125 -1.421875 13.0625 8.265625 
Q 6.59375 17.96875 6.59375 36.375 
Q 6.59375 54.828125 13.0625 64.515625 
Q 19.53125 74.21875 31.78125 74.21875 
z
" id="DejaVuSans-48"/>
        <path d="M 10.6875 12.40625 
L 21 12.40625 
L 21 0 
L 10.6875 0 
z
" id="DejaVuSans-46"/>
       </defs>
       <use xlink:href="#DejaVuSans-48"/>
       <use x="63.623047" xlink:href="#DejaVuSans-46"/>
       <use x="95.410156" xlink:href="#DejaVuSans-48"/>
      </g>
     </g>
    </g>
    <g id="xtick_2">
     <g id="line2d_3">
      <path clip-path="url(#p3ea8f758ee)" d="M 138.763636 307.584 
L 138.763636 41.472 
" style="fill:none;stroke:#b0b0b0;stroke-linecap:square;stroke-width:0.8;"/>
     </g>
     <g id="line2d_4">
      <g>
       <use style="stroke:#000000;stroke-width:0.8;" x="138.763636" xlink:href="#mfa32c05ea3" y="307.584"/>
      </g>
     </g>
     <g id="text_2">
      <!-- 0.2 -->
      <g transform="translate(130.812074 322.182437)scale(0.1 -0.1)">
       <defs>
        <path d="M 19.1875 8.296875 
L 53.609375 8.296875 
L 53.609375 0 
L 7.328125 0 
L 7.328125 8.296875 
Q 12.9375 14.109375 22.625 23.890625 
Q 32.328125 33.6875 34.8125 36.53125 
Q 39.546875 41.84375 41.421875 45.53125 
Q 43.3125 49.21875 43.3125 52.78125 
Q 43.3125 58.59375 39.234375 62.25 
Q 35.15625 65.921875 28.609375 65.921875 
Q 23.96875 65.921875 18.8125 64.3125 
Q 13.671875 62.703125 7.8125 59.421875 
L 7.8125 69.390625 
Q 13.765625 71.78125 18.9375 73 
Q 24.125 74.21875 28.421875 74.21875 
Q 39.75 74.21875 46.484375 68.546875 
Q 53.21875 62.890625 53.21875 53.421875 
Q 53.21875 48.921875 51.53125 44.890625 
Q 49.859375 40.875 45.40625 35.40625 
Q 44.1875 33.984375 37.640625 27.21875 
Q 31.109375 20.453125 19.1875 8.296875 
z
" id="DejaVuSans-50"/>
       </defs>
       <use xlink:href="#DejaVuSans-48"/>
       <use x="63.623047" xlink:href="#DejaVuSans-46"/>
       <use x="95.410156" xlink:href="#DejaVuSans-50"/>
      </g>
     </g>
    </g>
    <g id="xtick_3">
     <g id="line2d_5">
      <path clip-path="url(#p3ea8f758ee)" d="M 203.694545 307.584 
L 203.694545 41.472 
" style="fill:none;stroke:#b0b0b0;stroke-linecap:square;stroke-width:0.8;"/>
     </g>
     <g id="line2d_6">
      <g>
       <use style="stroke:#000000;stroke-width:0.8;" x="203.694545" xlink:href="#mfa32c05ea3" y="307.584"/>
      </g>
     </g>
     <g id="text_3">
      <!-- 0.4 -->
      <g transform="translate(195.742983 322.182437)scale(0.1 -0.1)">
       <defs>
        <path d="M 37.796875 64.3125 
L 12.890625 25.390625 
L 37.796875 25.390625 
z
M 35.203125 72.90625 
L 47.609375 72.90625 
L 47.609375 25.390625 
L 58.015625 25.390625 
L 58.015625 17.1875 
L 47.609375 17.1875 
L 47.609375 0 
L 37.796875 0 
L 37.796875 17.1875 
L 4.890625 17.1875 
L 4.890625 26.703125 
z
" id="DejaVuSans-52"/>
       </defs>
       <use xlink:href="#DejaVuSans-48"/>
       <use x="63.623047" xlink:href="#DejaVuSans-46"/>
       <use x="95.410156" xlink:href="#DejaVuSans-52"/>
      </g>
     </g>
    </g>
    <g id="xtick_4">
     <g id="line2d_7">
      <path clip-path="url(#p3ea8f758ee)" d="M 268.625455 307.584 
L 268.625455 41.472 
" style="fill:none;stroke:#b0b0b0;stroke-linecap:square;stroke-width:0.8;"/>
     </g>
     <g id="line2d_8">
      <g>
       <use style="stroke:#000000;stroke-width:0.8;" x="268.625455" xlink:href="#mfa32c05ea3" y="307.584"/>
      </g>
     </g>
     <g id="text_4">
      <!-- 0.6 -->
      <g transform="translate(260.673892 322.182437)scale(0.1 -0.1)">
       <defs>
        <path d="M 33.015625 40.375 
Q 26.375 40.375 22.484375 35.828125 
Q 18.609375 31.296875 18.609375 23.390625 
Q 18.609375 15.53125 22.484375 10.953125 
Q 26.375 6.390625 33.015625 6.390625 
Q 39.65625 6.390625 43.53125 10.953125 
Q 47.40625 15.53125 47.40625 23.390625 
Q 47.40625 31.296875 43.53125 35.828125 
Q 39.65625 40.375 33.015625 40.375 
z
M 52.59375 71.296875 
L 52.59375 62.3125 
Q 48.875 64.0625 45.09375 64.984375 
Q 41.3125 65.921875 37.59375 65.921875 
Q 27.828125 65.921875 22.671875 59.328125 
Q 17.53125 52.734375 16.796875 39.40625 
Q 19.671875 43.65625 24.015625 45.921875 
Q 28.375 48.1875 33.59375 48.1875 
Q 44.578125 48.1875 50.953125 41.515625 
Q 57.328125 34.859375 57.328125 23.390625 
Q 57.328125 12.15625 50.6875 5.359375 
Q 44.046875 -1.421875 33.015625 -1.421875 
Q 20.359375 -1.421875 13.671875 8.265625 
Q 6.984375 17.96875 6.984375 36.375 
Q 6.984375 53.65625 15.1875 63.9375 
Q 23.390625 74.21875 37.203125 74.21875 
Q 40.921875 74.21875 44.703125 73.484375 
Q 48.484375 72.75 52.59375 71.296875 
z
" id="DejaVuSans-54"/>
       </defs>
       <use xlink:href="#DejaVuSans-48"/>
       <use x="63.623047" xlink:href="#DejaVuSans-46"/>
       <use x="95.410156" xlink:href="#DejaVuSans-54"/>
      </g>
     </g>
    </g>
    <g id="xtick_5">
     <g id="line2d_9">
      <path clip-path="url(#p3ea8f758ee)" d="M 333.556364 307.584 
L 333.556364 41.472 
" style="fill:none;stroke:#b0b0b0;stroke-linecap:square;stroke-width:0.8;"/>
     </g>
     <g id="line2d_10">
      <g>
       <use style="stroke:#000000;stroke-width:0.8;" x="333.556364" xlink:href="#mfa32c05ea3" y="307.584"/>
      </g>
     </g>
     <g id="text_5">
      <!-- 0.8 -->
      <g transform="translate(325.604801 322.182437)scale(0.1 -0.1)">
       <defs>
        <path d="M 31.78125 34.625 
Q 24.75 34.625 20.71875 30.859375 
Q 16.703125 27.09375 16.703125 20.515625 
Q 16.703125 13.921875 20.71875 10.15625 
Q 24.75 6.390625 31.78125 6.390625 
Q 38.8125 6.390625 42.859375 10.171875 
Q 46.921875 13.96875 46.921875 20.515625 
Q 46.921875 27.09375 42.890625 30.859375 
Q 38.875 34.625 31.78125 34.625 
z
M 21.921875 38.8125 
Q 15.578125 40.375 12.03125 44.71875 
Q 8.5 49.078125 8.5 55.328125 
Q 8.5 64.0625 14.71875 69.140625 
Q 20.953125 74.21875 31.78125 74.21875 
Q 42.671875 74.21875 48.875 69.140625 
Q 55.078125 64.0625 55.078125 55.328125 
Q 55.078125 49.078125 51.53125 44.71875 
Q 48 40.375 41.703125 38.8125 
Q 48.828125 37.15625 52.796875 32.3125 
Q 56.78125 27.484375 56.78125 20.515625 
Q 56.78125 9.90625 50.3125 4.234375 
Q 43.84375 -1.421875 31.78125 -1.421875 
Q 19.734375 -1.421875 13.25 4.234375 
Q 6.78125 9.90625 6.78125 20.515625 
Q 6.78125 27.484375 10.78125 32.3125 
Q 14.796875 37.15625 21.921875 38.8125 
z
M 18.3125 54.390625 
Q 18.3125 48.734375 21.84375 45.5625 
Q 25.390625 42.390625 31.78125 42.390625 
Q 38.140625 42.390625 41.71875 45.5625 
Q 45.3125 48.734375 45.3125 54.390625 
Q 45.3125 60.0625 41.71875 63.234375 
Q 38.140625 66.40625 31.78125 66.40625 
Q 25.390625 66.40625 21.84375 63.234375 
Q 18.3125 60.0625 18.3125 54.390625 
z
" id="DejaVuSans-56"/>
       </defs>
       <use xlink:href="#DejaVuSans-48"/>
       <use x="63.623047" xlink:href="#DejaVuSans-46"/>
       <use x="95.410156" xlink:href="#DejaVuSans-56"/>
      </g>
     </g>
    </g>
    <g id="xtick_6">
     <g id="line2d_11">
      <path clip-path="url(#p3ea8f758ee)" d="M 398.487273 307.584 
L 398.487273 41.472 
" style="fill:none;stroke:#b0b0b0;stroke-linecap:square;stroke-width:0.8;"/>
     </g>
     <g id="line2d_12">
      <g>
       <use style="stroke:#000000;stroke-width:0.8;" x="398.487273" xlink:href="#mfa32c05ea3" y="307.584"/>
      </g>
     </g>
     <g id="text_6">
      <!-- 1.0 -->
      <g transform="translate(390.53571 322.182437)scale(0.1 -0.1)">
       <defs>
        <path d="M 12.40625 8.296875 
L 28.515625 8.296875 
L 28.515625 63.921875 
L 10.984375 60.40625 
L 10.984375 69.390625 
L 28.421875 72.90625 
L 38.28125 72.90625 
L 38.28125 8.296875 
L 54.390625 8.296875 
L 54.390625 0 
L 12.40625 0 
z
" id="DejaVuSans-49"/>
       </defs>
       <use xlink:href="#DejaVuSans-49"/>
       <use x="63.623047" xlink:href="#DejaVuSans-46"/>
       <use x="95.410156" xlink:href="#DejaVuSans-48"/>
      </g>
     </g>
    </g>
   </g>
   <g id="matplotlib.axis_2">
    <g id="ytick_1">
     <g id="line2d_13">
      <path clip-path="url(#p3ea8f758ee)" d="M 57.6 292.690679 
L 414.72 292.690679 
" style="fill:none;stroke:#b0b0b0;stroke-linecap:square;stroke-width:0.8;"/>
     </g>
     <g id="line2d_14">
      <defs>
       <path d="M 0 0 
L -3.5 0 
" id="m5d59acde81" style="stroke:#000000;stroke-width:0.8;"/>
      </defs>
      <g>
       <use style="stroke:#000000;stroke-width:0.8;" x="57.6" xlink:href="#m5d59acde81" y="292.690679"/>
      </g>
     </g>
     <g id="text_7">
      <!-- −20 -->
      <g transform="translate(29.495313 296.489897)scale(0.1 -0.1)">
       <defs>
        <path d="M 10.59375 35.5 
L 73.1875 35.5 
L 73.1875 27.203125 
L 10.59375 27.203125 
z
" id="DejaVuSans-8722"/>
       </defs>
       <use xlink:href="#DejaVuSans-8722"/>
       <use x="83.789062" xlink:href="#DejaVuSans-50"/>
       <use x="147.412109" xlink:href="#DejaVuSans-48"/>
      </g>
     </g>
    </g>
    <g id="ytick_2">
     <g id="line2d_15">
      <path clip-path="url(#p3ea8f758ee)" d="M 57.6 248.082433 
L 414.72 248.082433 
" style="fill:none;stroke:#b0b0b0;stroke-linecap:square;stroke-width:0.8;"/>
     </g>
     <g id="line2d_16">
      <g>
       <use style="stroke:#000000;stroke-width:0.8;" x="57.6" xlink:href="#m5d59acde81" y="248.082433"/>
      </g>
     </g>
     <g id="text_8">
      <!-- −10 -->
      <g transform="translate(29.495313 251.881652)scale(0.1 -0.1)">
       <use xlink:href="#DejaVuSans-8722"/>
       <use x="83.789062" xlink:href="#DejaVuSans-49"/>
       <use x="147.412109" xlink:href="#DejaVuSans-48"/>
      </g>
     </g>
    </g>
    <g id="ytick_3">
     <g id="line2d_17">
      <path clip-path="url(#p3ea8f758ee)" d="M 57.6 203.474188 
L 414.72 203.474188 
" style="fill:none;stroke:#b0b0b0;stroke-linecap:square;stroke-width:0.8;"/>
     </g>
     <g id="line2d_18">
      <g>
       <use style="stroke:#000000;stroke-width:0.8;" x="57.6" xlink:href="#m5d59acde81" y="203.474188"/>
      </g>
     </g>
     <g id="text_9">
      <!-- 0 -->
      <g transform="translate(44.2375 207.273407)scale(0.1 -0.1)">
       <use xlink:href="#DejaVuSans-48"/>
      </g>
     </g>
    </g>
    <g id="ytick_4">
     <g id="line2d_19">
      <path clip-path="url(#p3ea8f758ee)" d="M 57.6 158.865943 
L 414.72 158.865943 
" style="fill:none;stroke:#b0b0b0;stroke-linecap:square;stroke-width:0.8;"/>
     </g>
     <g id="line2d_20">
      <g>
       <use style="stroke:#000000;stroke-width:0.8;" x="57.6" xlink:href="#m5d59acde81" y="158.865943"/>
      </g>
     </g>
     <g id="text_10">
      <!-- 10 -->
      <g transform="translate(37.875 162.665162)scale(0.1 -0.1)">
       <use xlink:href="#DejaVuSans-49"/>
       <use x="63.623047" xlink:href="#DejaVuSans-48"/>
      </g>
     </g>
    </g>
    <g id="ytick_5">
     <g id="line2d_21">
      <path clip-path="url(#p3ea8f758ee)" d="M 57.6 114.257698 
L 414.72 114.257698 
" style="fill:none;stroke:#b0b0b0;stroke-linecap:square;stroke-width:0.8;"/>
     </g>
     <g id="line2d_22">
      <g>
       <use style="stroke:#000000;stroke-width:0.8;" x="57.6" xlink:href="#m5d59acde81" y="114.257698"/>
      </g>
     </g>
     <g id="text_11">
      <!-- 20 -->
      <g transform="translate(37.875 118.056916)scale(0.1 -0.1)">
       <use xlink:href="#DejaVuSans-50"/>
       <use x="63.623047" xlink:href="#DejaVuSans-48"/>
      </g>
     </g>
    </g>
    <g id="ytick_6">
     <g id="line2d_23">
      <path clip-path="url(#p3ea8f758ee)" d="M 57.6 69.649452 
L 414.72 69.649452 
" style="fill:none;stroke:#b0b0b0;stroke-linecap:square;stroke-width:0.8;"/>
     </g>
     <g id="line2d_24">
      <g>
       <use style="stroke:#000000;stroke-width:0.8;" x="57.6" xlink:href="#m5d59acde81" y="69.649452"/>
      </g>
     </g>
     <g id="text_12">
      <!-- 30 -->
      <g transform="translate(37.875 73.448671)scale(0.1 -0.1)">
       <defs>
        <path d="M 40.578125 39.3125 
Q 47.65625 37.796875 51.625 33 
Q 55.609375 28.21875 55.609375 21.1875 
Q 55.609375 10.40625 48.1875 4.484375 
Q 40.765625 -1.421875 27.09375 -1.421875 
Q 22.515625 -1.421875 17.65625 -0.515625 
Q 12.796875 0.390625 7.625 2.203125 
L 7.625 11.71875 
Q 11.71875 9.328125 16.59375 8.109375 
Q 21.484375 6.890625 26.8125 6.890625 
Q 36.078125 6.890625 40.9375 10.546875 
Q 45.796875 14.203125 45.796875 21.1875 
Q 45.796875 27.640625 41.28125 31.265625 
Q 36.765625 34.90625 28.71875 34.90625 
L 20.21875 34.90625 
L 20.21875 43.015625 
L 29.109375 43.015625 
Q 36.375 43.015625 40.234375 45.921875 
Q 44.09375 48.828125 44.09375 54.296875 
Q 44.09375 59.90625 40.109375 62.90625 
Q 36.140625 65.921875 28.71875 65.921875 
Q 24.65625 65.921875 20.015625 65.03125 
Q 15.375 64.15625 9.8125 62.3125 
L 9.8125 71.09375 
Q 15.4375 72.65625 20.34375 73.4375 
Q 25.25 74.21875 29.59375 74.21875 
Q 40.828125 74.21875 47.359375 69.109375 
Q 53.90625 64.015625 53.90625 55.328125 
Q 53.90625 49.265625 50.4375 45.09375 
Q 46.96875 40.921875 40.578125 39.3125 
z
" id="DejaVuSans-51"/>
       </defs>
       <use xlink:href="#DejaVuSans-51"/>
       <use x="63.623047" xlink:href="#DejaVuSans-48"/>
      </g>
     </g>
    </g>
   </g>
   <g id="line2d_25">
    <path clip-path="url(#p3ea8f758ee)" d="M 73.832727 239.946696 
L 77.112066 240.648834 
L 80.391405 241.267158 
L 83.670744 241.799181 
L 86.950083 242.243373 
L 90.229421 242.599179 
L 93.50876 242.867031 
L 96.788099 243.048326 
L 100.067438 243.145392 
L 103.346777 243.161431 
L 106.626116 243.100443 
L 109.905455 242.967132 
L 113.184793 242.766797 
L 116.464132 242.505209 
L 119.743471 242.188477 
L 123.02281 241.822909 
L 126.302149 241.414867 
L 129.581488 240.970624 
L 132.860826 240.496229 
L 136.140165 239.997372 
L 139.419504 239.479268 
L 142.698843 238.94656 
L 145.978182 238.403233 
L 149.257521 237.852556 
L 152.53686 237.297048 
L 155.816198 236.73847 
L 159.095537 236.177841 
L 162.374876 235.615483 
L 165.654215 235.051097 
L 168.933554 234.48385 
L 172.212893 233.912497 
L 175.492231 233.335515 
L 178.77157 232.751248 
L 182.050909 232.15807 
L 185.330248 231.554541 
L 188.609587 230.939574 
L 191.888926 230.312582 
L 195.168264 229.673621 
L 198.447603 229.023512 
L 201.726942 228.363939 
L 205.006281 227.697513 
L 208.28562 227.027818 
L 211.564959 226.359404 
L 214.844298 225.697757 
L 218.123636 225.049218 
L 221.402975 224.420875 
L 224.682314 223.820411 
L 227.961653 223.255918 
L 231.240992 222.735683 
L 234.520331 222.267945 
L 237.799669 221.860641 
L 241.079008 221.521125 
L 244.358347 221.255894 
L 247.637686 221.070315 
L 250.917025 220.968355 
L 254.196364 220.952344 
L 257.475702 221.022752 
L 260.755041 221.178014 
L 264.03438 221.414386 
L 267.313719 221.725861 
L 270.593058 222.104126 
L 273.872397 222.53859 
L 277.151736 223.016453 
L 280.431074 223.522856 
L 283.710413 224.041068 
L 286.989752 224.552748 
L 290.269091 225.038238 
L 293.54843 225.476923 
L 296.827769 225.84761 
L 300.107107 226.128949 
L 303.386446 226.299869 
L 306.665785 226.340025 
L 309.945124 226.230244 
L 313.224463 225.952961 
L 316.503802 225.492631 
L 319.78314 224.836111 
L 323.062479 223.972995 
L 326.341818 222.895906 
L 329.621157 221.600725 
L 332.900496 220.086755 
L 336.179835 218.35682 
L 339.459174 216.417289 
L 342.738512 214.278033 
L 346.017851 211.952305 
L 349.29719 209.456555 
L 352.576529 206.810178 
L 355.855868 204.035205 
L 359.135207 201.155939 
L 362.414545 198.198554 
L 365.693884 195.190652 
L 368.973223 192.160799 
L 372.252562 189.138052 
L 375.531901 186.151472 
L 378.81124 183.229657 
L 382.090579 180.400277 
L 385.369917 177.68965 
L 388.649256 175.122338 
L 391.928595 172.7208 
L 395.207934 170.505081 
L 398.487273 168.492557 
" style="fill:none;stroke:#0000ff;stroke-linecap:square;stroke-width:1.5;"/>
   </g>
   <g id="line2d_26">
    <path clip-path="url(#p3ea8f758ee)" d="M 73.832727 223.259915 
L 77.112066 225.055914 
L 80.391405 226.379333 
L 83.670744 227.321591 
L 86.950083 227.964725 
L 90.229421 228.37954 
L 93.50876 228.624619 
L 96.788099 228.746184 
L 100.067438 228.778694 
L 103.346777 228.746048 
L 106.626116 228.663218 
L 109.905455 228.538149 
L 113.184793 228.373723 
L 116.464132 228.16965 
L 119.743471 227.92414 
L 123.02281 227.635265 
L 126.302149 227.301953 
L 129.581488 226.924606 
L 132.860826 226.505347 
L 136.140165 226.047964 
L 139.419504 225.557604 
L 142.698843 225.040314 
L 145.978182 224.502492 
L 149.257521 223.95035 
L 152.53686 223.389422 
L 155.816198 222.824196 
L 159.095537 222.257867 
L 162.374876 221.692243 
L 165.654215 221.127785 
L 168.933554 220.563768 
L 172.212893 219.998524 
L 175.492231 219.42975 
L 178.77157 218.854835 
L 182.050909 218.271184 
L 185.330248 217.676515 
L 188.609587 217.069109 
L 191.888926 216.448006 
L 195.168264 215.813149 
L 198.447603 215.165469 
L 201.726942 214.506926 
L 205.006281 213.840501 
L 208.28562 213.170174 
L 211.564959 212.500852 
L 214.844298 211.838302 
L 218.123636 211.189044 
L 221.402975 210.560241 
L 224.682314 209.959564 
L 227.961653 209.395036 
L 231.240992 208.874851 
L 234.520331 208.407163 
L 237.799669 207.999859 
L 241.079008 207.660293 
L 244.358347 207.395013 
L 247.637686 207.209468 
L 250.917025 207.107721 
L 254.196364 207.09217 
L 257.475702 207.163298 
L 260.755041 207.319462 
L 264.03438 207.556742 
L 267.313719 207.868849 
L 270.593058 208.247113 
L 273.872397 208.680546 
L 277.151736 209.155981 
L 280.431074 209.65828 
L 283.710413 210.170603 
L 286.989752 210.674722 
L 290.269091 211.151353 
L 293.54843 211.580509 
L 296.827769 211.941845 
L 300.107107 212.214975 
L 303.386446 212.379787 
L 306.665785 212.416714 
L 309.945124 212.307004 
L 313.224463 212.032988 
L 316.503802 211.578358 
L 319.78314 210.928485 
L 323.062479 210.070789 
L 326.341818 208.995166 
L 329.621157 207.694479 
L 332.900496 206.165092 
L 336.179835 204.407412 
L 339.459174 202.426407 
L 342.738512 200.232014 
L 346.017851 197.839391 
L 349.29719 195.268911 
L 352.576529 192.545841 
L 355.855868 189.699646 
L 359.135207 186.762866 
L 362.414545 183.769572 
L 365.693884 180.753428 
L 368.973223 177.745416 
L 372.252562 174.771354 
L 375.531901 171.84933 
L 378.81124 168.987245 
L 382.090579 166.180639 
L 385.369917 163.411002 
L 388.649256 160.644747 
L 391.928595 157.832976 
L 395.207934 154.912162 
L 398.487273 151.805776 
" style="fill:none;stroke:#000000;stroke-linecap:square;stroke-width:0.5;"/>
   </g>
   <g id="line2d_27">
    <path clip-path="url(#p3ea8f758ee)" d="M 73.832727 256.633476 
L 77.112066 256.241753 
L 80.391405 256.154982 
L 83.670744 256.276772 
L 86.950083 256.52202 
L 90.229421 256.818818 
L 93.50876 257.109443 
L 96.788099 257.350468 
L 100.067438 257.512089 
L 103.346777 257.576814 
L 106.626116 257.537667 
L 109.905455 257.396114 
L 113.184793 257.159871 
L 116.464132 256.840768 
L 119.743471 256.452814 
L 123.02281 256.010553 
L 126.302149 255.52778 
L 129.581488 255.016643 
L 132.860826 254.487111 
L 136.140165 253.946779 
L 139.419504 253.400932 
L 142.698843 252.852806 
L 145.978182 252.303973 
L 149.257521 251.754762 
L 152.53686 251.204674 
L 155.816198 250.652744 
L 159.095537 250.097814 
L 162.374876 249.538724 
L 165.654215 248.974409 
L 168.933554 248.403932 
L 172.212893 247.826471 
L 175.492231 247.24128 
L 178.77157 246.647662 
L 182.050909 246.044955 
L 185.330248 245.432567 
L 188.609587 244.810039 
L 191.888926 244.177158 
L 195.168264 243.534093 
L 198.447603 242.881556 
L 201.726942 242.220952 
L 205.006281 241.554525 
L 208.28562 240.885462 
L 211.564959 240.217956 
L 214.844298 239.557212 
L 218.123636 238.909392 
L 221.402975 238.28151 
L 224.682314 237.681259 
L 227.961653 237.1168 
L 231.240992 236.596514 
L 234.520331 236.128727 
L 237.799669 235.721423 
L 241.079008 235.381957 
L 244.358347 235.116776 
L 247.637686 234.931162 
L 250.917025 234.82899 
L 254.196364 234.812518 
L 257.475702 234.882207 
L 260.755041 235.036566 
L 264.03438 235.272031 
L 267.313719 235.582873 
L 270.593058 235.96114 
L 273.872397 236.396633 
L 277.151736 236.876925 
L 280.431074 237.387432 
L 283.710413 237.911534 
L 286.989752 238.430773 
L 290.269091 238.925124 
L 293.54843 239.373336 
L 296.827769 239.753375 
L 300.107107 240.042923 
L 303.386446 240.219951 
L 306.665785 240.263337 
L 309.945124 240.153485 
L 313.224463 239.872935 
L 316.503802 239.406905 
L 319.78314 238.743737 
L 323.062479 237.875201 
L 326.341818 236.796647 
L 329.621157 235.506972 
L 332.900496 234.008419 
L 336.179835 232.306228 
L 339.459174 230.408171 
L 342.738512 228.324051 
L 346.017851 226.065218 
L 349.29719 223.644199 
L 352.576529 221.074515 
L 355.855868 218.370764 
L 359.135207 215.549013 
L 362.414545 212.627537 
L 365.693884 209.627876 
L 368.973223 206.576182 
L 372.252562 203.504749 
L 375.531901 200.453615 
L 378.81124 197.472069 
L 382.090579 194.619916 
L 385.369917 191.968297 
L 388.649256 189.599929 
L 391.928595 187.608624 
L 395.207934 186.098 
L 398.487273 185.179338 
" style="fill:none;stroke:#000000;stroke-linecap:square;stroke-width:0.5;"/>
   </g>
   <g id="line2d_28">
    <path clip-path="url(#p3ea8f758ee)" d="M 73.832727 189.166317 
L 77.112066 191.621831 
L 80.391405 193.89785 
L 83.670744 195.98902 
L 86.950083 197.89204 
L 90.229421 199.605716 
L 93.50876 201.130972 
L 96.788099 202.470808 
L 100.067438 203.63023 
L 103.346777 204.61612 
L 106.626116 205.437081 
L 109.905455 206.103228 
L 113.184793 206.625956 
L 116.464132 207.017678 
L 119.743471 207.291532 
L 123.02281 207.461084 
L 126.302149 207.540017 
L 129.581488 207.541825 
L 132.860826 207.479513 
L 136.140165 207.365319 
L 139.419504 207.210462 
L 142.698843 207.024922 
L 145.978182 206.81727 
L 149.257521 206.594534 
L 152.53686 206.36213 
L 155.816198 206.12384 
L 159.095537 205.881851 
L 162.374876 205.636856 
L 165.654215 205.388201 
L 168.933554 205.134093 
L 172.212893 204.871849 
L 175.492231 204.598184 
L 178.77157 204.309535 
L 182.050909 204.002395 
L 185.330248 203.673666 
L 188.609587 203.321001 
L 191.888926 202.943133 
L 195.168264 202.54018 
L 198.447603 202.113902 
L 201.726942 201.667915 
L 205.006281 201.207836 
L 208.28562 200.741368 
L 211.564959 200.278297 
L 214.844298 199.830419 
L 218.123636 199.411373 
L 221.402975 199.036405 
L 224.682314 198.722037 
L 227.961653 198.485673 
L 231.240992 198.345139 
L 234.520331 198.318158 
L 237.799669 198.421797 
L 241.079008 198.671874 
L 244.358347 199.082365 
L 247.637686 199.664807 
L 250.917025 200.427734 
L 254.196364 201.376151 
L 257.475702 202.511067 
L 260.755041 203.829108 
L 264.03438 205.322217 
L 267.313719 206.977462 
L 270.593058 208.776957 
L 273.872397 210.697907 
L 277.151736 212.712774 
L 280.431074 214.78958 
L 283.710413 216.892331 
L 286.989752 218.981554 
L 290.269091 221.01496 
L 293.54843 222.948186 
L 296.827769 224.735636 
L 300.107107 226.33137 
L 303.386446 227.690052 
L 306.665785 228.767904 
L 309.945124 229.523673 
L 313.224463 229.919565 
L 316.503802 229.92213 
L 319.78314 229.503085 
L 323.062479 228.640042 
L 326.341818 227.317123 
L 329.621157 225.52546 
L 332.900496 223.26355 
L 336.179835 220.537461 
L 339.459174 217.360894 
L 342.738512 213.755079 
L 346.017851 209.748525 
L 349.29719 205.376618 
L 352.576529 200.68108 
L 355.855868 195.709302 
L 359.135207 190.513569 
L 362.414545 185.150184 
L 365.693884 179.678527 
L 368.973223 174.160052 
L 372.252562 168.657267 
L 375.531901 163.232692 
L 378.81124 157.947844 
L 382.090579 152.862252 
L 385.369917 148.032528 
L 388.649256 143.511517 
L 391.928595 139.347529 
L 395.207934 135.583683 
L 398.487273 132.257361 
" style="fill:none;stroke:#ffa500;stroke-linecap:square;stroke-width:1.5;"/>
   </g>
   <g id="line2d_29">
    <path clip-path="url(#p3ea8f758ee)" d="M 73.832727 110.316752 
L 77.112066 117.863261 
L 80.391405 123.429352 
L 83.670744 127.444382 
L 86.950083 130.291931 
L 90.229421 132.301137 
L 93.50876 133.742148 
L 96.788099 134.825499 
L 100.067438 135.70497 
L 103.346777 136.483287 
L 106.626116 137.219897 
L 109.905455 137.939955 
L 113.184793 138.643722 
L 116.464132 139.3156 
L 119.743471 139.932211 
L 123.02281 140.469042 
L 126.302149 140.905413 
L 129.581488 141.227673 
L 132.860826 141.430707 
L 136.140165 141.517984 
L 139.419504 141.500441 
L 142.698843 141.394595 
L 145.978182 141.220225 
L 149.257521 140.998007 
L 152.53686 140.747352 
L 155.816198 140.484692 
L 159.095537 140.222317 
L 162.374876 139.967819 
L 165.654215 139.724105 
L 168.933554 139.489894 
L 172.212893 139.260573 
L 175.492231 139.029278 
L 178.77157 138.788039 
L 182.050909 138.528896 
L 185.330248 138.244859 
L 188.609587 137.930682 
L 191.888926 137.583391 
L 195.168264 137.202594 
L 198.447603 136.790577 
L 201.726942 136.352247 
L 205.006281 135.894947 
L 208.28562 135.428219 
L 211.564959 134.963521 
L 214.844298 134.513951 
L 218.123636 134.093985 
L 221.402975 133.719223 
L 224.682314 133.406142 
L 227.961653 133.171828 
L 231.240992 133.033674 
L 234.520331 133.009013 
L 237.799669 133.114684 
L 241.079008 133.366503 
L 244.358347 133.778674 
L 247.637686 134.363121 
L 250.917025 135.128808 
L 254.196364 136.081057 
L 257.475702 137.220921 
L 260.755041 138.544667 
L 264.03438 140.043401 
L 267.313719 141.702887 
L 270.593058 143.503565 
L 273.872397 145.420799 
L 277.151736 147.425322 
L 280.431074 149.483864 
L 283.710413 151.559901 
L 286.989752 153.614471 
L 290.269091 155.606988 
L 293.54843 157.495988 
L 296.827769 159.239762 
L 300.107107 160.796823 
L 303.386446 162.126238 
L 306.665785 163.187809 
L 309.945124 163.94221 
L 313.224463 164.35113 
L 316.503802 164.37756 
L 319.78314 163.986314 
L 323.062479 163.144898 
L 326.341818 161.824785 
L 329.621157 160.003107 
L 332.900496 157.664714 
L 336.179835 154.804461 
L 339.459174 151.429512 
L 342.738512 147.561376 
L 346.017851 143.237329 
L 349.29719 138.510875 
L 352.576529 133.45088 
L 355.855868 128.139096 
L 359.135207 122.665883 
L 362.414545 117.124062 
L 365.693884 111.601016 
L 368.973223 106.169335 
L 372.252562 100.876485 
L 375.531901 95.73414 
L 378.81124 90.70797 
L 382.090579 85.708728 
L 385.369917 80.585492 
L 388.649256 75.121877 
L 391.928595 69.035859 
L 395.207934 61.983679 
L 398.487273 53.568 
" style="fill:none;stroke:#000000;stroke-linecap:square;stroke-width:0.5;"/>
   </g>
   <g id="line2d_30">
    <path clip-path="url(#p3ea8f758ee)" d="M 73.832727 268.015882 
L 77.112066 265.3804 
L 80.391405 264.366348 
L 83.670744 264.533657 
L 86.950083 265.492148 
L 90.229421 266.910296 
L 93.50876 268.519796 
L 96.788099 270.116117 
L 100.067438 271.55549 
L 103.346777 272.748953 
L 106.626116 273.654264 
L 109.905455 274.2665 
L 113.184793 274.608191 
L 116.464132 274.719756 
L 119.743471 274.650853 
L 123.02281 274.453126 
L 126.302149 274.174621 
L 129.581488 273.855977 
L 132.860826 273.528319 
L 136.140165 273.212654 
L 139.419504 272.920482 
L 142.698843 272.65525 
L 145.978182 272.414315 
L 149.257521 272.191062 
L 152.53686 271.976908 
L 155.816198 271.762987 
L 159.095537 271.541385 
L 162.374876 271.305892 
L 165.654215 271.052297 
L 168.933554 270.778292 
L 172.212893 270.483124 
L 175.492231 270.16709 
L 178.77157 269.83103 
L 182.050909 269.475895 
L 185.330248 269.102474 
L 188.609587 268.71132 
L 191.888926 268.302875 
L 195.168264 267.877766 
L 198.447603 267.437227 
L 201.726942 266.983583 
L 205.006281 266.520725 
L 208.28562 266.054517 
L 211.564959 265.593074 
L 214.844298 265.146886 
L 218.123636 264.728762 
L 221.402975 264.353587 
L 224.682314 264.037931 
L 227.961653 263.799518 
L 231.240992 263.656604 
L 234.520331 263.627303 
L 237.799669 263.72891 
L 241.079008 263.977245 
L 244.358347 264.386056 
L 247.637686 264.966493 
L 250.917025 265.72666 
L 254.196364 266.671246 
L 257.475702 267.801214 
L 260.755041 269.11355 
L 264.03438 270.601032 
L 267.313719 272.252037 
L 270.593058 274.050349 
L 273.872397 275.975015 
L 277.151736 278.000226 
L 280.431074 280.095297 
L 283.710413 282.22476 
L 286.989752 284.348637 
L 290.269091 286.422932 
L 293.54843 288.400384 
L 296.827769 290.23151 
L 300.107107 291.865917 
L 303.386446 293.253865 
L 306.665785 294.347999 
L 309.945124 295.105137 
L 313.224463 295.488 
L 316.503802 295.4667 
L 319.78314 295.019857 
L 323.062479 294.135186 
L 326.341818 292.809461 
L 329.621157 291.047813 
L 332.900496 288.862385 
L 336.179835 286.270461 
L 339.459174 283.292276 
L 342.738512 279.948782 
L 346.017851 276.259721 
L 349.29719 272.24236 
L 352.576529 267.911279 
L 355.855868 263.279508 
L 359.135207 258.361255 
L 362.414545 253.176307 
L 365.693884 247.756038 
L 368.973223 242.150769 
L 372.252562 236.438048 
L 375.531901 230.731244 
L 378.81124 225.187717 
L 382.090579 220.015775 
L 385.369917 215.479564 
L 388.649256 211.901157 
L 391.928595 209.659198 
L 395.207934 209.183687 
L 398.487273 210.946721 
" style="fill:none;stroke:#000000;stroke-linecap:square;stroke-width:0.5;"/>
   </g>
   <g id="line2d_31">
    <path clip-path="url(#p3ea8f758ee)" d="M 73.832727 240.215301 
L 77.112066 240.877344 
L 80.391405 241.517332 
L 83.670744 242.114415 
L 86.950083 242.650533 
L 90.229421 243.110627 
L 93.50876 243.482759 
L 96.788099 243.758158 
L 100.067438 243.931184 
L 103.346777 243.999224 
L 106.626116 243.962518 
L 109.905455 243.823923 
L 113.184793 243.588633 
L 116.464132 243.263851 
L 119.743471 242.858431 
L 123.02281 242.3825 
L 126.302149 241.84707 
L 129.581488 241.263642 
L 132.860826 240.643835 
L 136.140165 239.999017 
L 139.419504 239.339979 
L 142.698843 238.676632 
L 145.978182 238.01776 
L 149.257521 237.370812 
L 152.53686 236.741746 
L 155.816198 236.134934 
L 159.095537 235.553118 
L 162.374876 234.997422 
L 165.654215 234.467422 
L 168.933554 233.961259 
L 172.212893 233.475802 
L 175.492231 233.006856 
L 178.77157 232.549391 
L 182.050909 232.097812 
L 185.330248 231.646233 
L 188.609587 231.188769 
L 191.888926 230.719822 
L 195.168264 230.234366 
L 198.447603 229.728202 
L 201.726942 229.198202 
L 205.006281 228.642507 
L 208.28562 228.060691 
L 211.564959 227.453878 
L 214.844298 226.824812 
L 218.123636 226.177864 
L 221.402975 225.518993 
L 224.682314 224.855646 
L 227.961653 224.196607 
L 231.240992 223.551789 
L 234.520331 222.931982 
L 237.799669 222.348555 
L 241.079008 221.813124 
L 244.358347 221.337194 
L 247.637686 220.931774 
L 250.917025 220.606992 
L 254.196364 220.371702 
L 257.475702 220.233107 
L 260.755041 220.1964 
L 264.03438 220.264441 
L 267.313719 220.437467 
L 270.593058 220.712865 
L 273.872397 221.084998 
L 277.151736 221.545092 
L 280.431074 222.08121 
L 283.710413 222.678292 
L 286.989752 223.31828 
L 290.269091 223.980323 
L 293.54843 224.641066 
L 296.827769 225.27501 
L 300.107107 225.854955 
L 303.386446 226.352507 
L 306.665785 226.738637 
L 309.945124 226.984303 
L 313.224463 227.061096 
L 316.503802 226.941927 
L 319.78314 226.601707 
L 323.062479 226.018044 
L 326.341818 225.171907 
L 329.621157 224.048263 
L 332.900496 222.63667 
L 336.179835 220.931793 
L 339.459174 218.93386 
L 342.738512 216.649012 
L 346.017851 214.089557 
L 349.29719 211.274115 
L 352.576529 208.22763 
L 355.855868 204.981269 
L 359.135207 201.572176 
L 362.414545 198.043104 
L 365.693884 194.441909 
L 368.973223 190.820919 
L 372.252562 187.236182 
L 375.531901 183.7466 
L 378.81124 180.412967 
L 382.090579 177.296918 
L 385.369917 174.459813 
L 388.649256 171.961562 
L 391.928595 169.859435 
L 395.207934 168.206843 
L 398.487273 167.052154 
" style="fill:none;stroke:#0000ff;stroke-dasharray:5.55,2.4;stroke-dashoffset:0;stroke-width:1.5;"/>
   </g>
   <g id="line2d_32">
    <path clip-path="url(#p3ea8f758ee)" d="M 73.832727 189.524253 
L 77.112066 191.749517 
L 80.391405 193.930669 
L 83.670744 196.026011 
L 86.950083 197.999424 
L 90.229421 199.820788 
L 93.50876 201.466229 
L 96.788099 202.918203 
L 100.067438 204.165432 
L 103.346777 205.202689 
L 106.626116 206.030453 
L 109.905455 206.65444 
L 113.184793 207.085037 
L 116.464132 207.336649 
L 119.743471 207.426986 
L 123.02281 207.376302 
L 126.302149 207.206617 
L 129.581488 206.940939 
L 132.860826 206.602502 
L 136.140165 206.214043 
L 139.419504 205.797142 
L 142.698843 205.371625 
L 145.978182 204.955059 
L 149.257521 204.562339 
L 152.53686 204.205383 
L 155.816198 203.892936 
L 159.095537 203.63048 
L 162.374876 203.420266 
L 165.654215 203.261443 
L 168.933554 203.150292 
L 172.212893 203.080555 
L 175.492231 203.043839 
L 178.77157 203.030087 
L 182.050909 203.028106 
L 185.330248 203.026125 
L 188.609587 203.012372 
L 191.888926 202.975656 
L 195.168264 202.905919 
L 198.447603 202.794769 
L 201.726942 202.635946 
L 205.006281 202.425731 
L 208.28562 202.163276 
L 211.564959 201.850828 
L 214.844298 201.493873 
L 218.123636 201.101153 
L 221.402975 200.684587 
L 224.682314 200.25907 
L 227.961653 199.842169 
L 231.240992 199.45371 
L 234.520331 199.115272 
L 237.799669 198.849594 
L 241.079008 198.679909 
L 244.358347 198.629225 
L 247.637686 198.719562 
L 250.917025 198.971175 
L 254.196364 199.401772 
L 257.475702 200.025759 
L 260.755041 200.853522 
L 264.03438 201.890779 
L 267.313719 203.138008 
L 270.593058 204.589982 
L 273.872397 206.235423 
L 277.151736 208.056788 
L 280.431074 210.030201 
L 283.710413 212.125542 
L 286.989752 214.306695 
L 290.269091 216.531958 
L 293.54843 218.754619 
L 296.827769 220.923684 
L 300.107107 222.984752 
L 303.386446 224.881032 
L 306.665785 226.554469 
L 309.945124 227.946977 
L 313.224463 229.001741 
L 316.503802 229.664578 
L 319.78314 229.885316 
L 323.062479 229.619166 
L 326.341818 228.828068 
L 329.621157 227.481958 
L 332.900496 225.559947 
L 336.179835 223.051371 
L 339.459174 219.956682 
L 342.738512 216.288162 
L 346.017851 212.07043 
L 349.29719 207.340721 
L 352.576529 202.148928 
L 355.855868 196.557382 
L 359.135207 190.640373 
L 362.414545 184.483406 
L 365.693884 178.182193 
L 368.973223 171.84139 
L 372.252562 165.573092 
L 375.531901 159.495105 
L 378.81124 153.729015 
L 382.090579 148.398095 
L 385.369917 143.62506 
L 388.649256 139.529736 
L 391.928595 136.226657 
L 395.207934 133.822651 
L 398.487273 132.414449 
" style="fill:none;stroke:#ffa500;stroke-dasharray:5.55,2.4;stroke-dashoffset:0;stroke-width:1.5;"/>
   </g>
   <g id="patch_3">
    <path d="M 57.6 307.584 
L 57.6 41.472 
" style="fill:none;stroke:#000000;stroke-linecap:square;stroke-linejoin:miter;stroke-width:0.8;"/>
   </g>
   <g id="patch_4">
    <path d="M 414.72 307.584 
L 414.72 41.472 
" style="fill:none;stroke:#000000;stroke-linecap:square;stroke-linejoin:miter;stroke-width:0.8;"/>
   </g>
   <g id="patch_5">
    <path d="M 57.6 307.584 
L 414.72 307.584 
" style="fill:none;stroke:#000000;stroke-linecap:square;stroke-linejoin:miter;stroke-width:0.8;"/>
   </g>
   <g id="patch_6">
    <path d="M 57.6 41.472 
L 414.72 41.472 
" style="fill:none;stroke:#000000;stroke-linecap:square;stroke-linejoin:miter;stroke-width:0.8;"/>
   </g>
   <g id="legend_1">
    <g id="patch_7">
     <path d="M 64.6 108.1845 
L 239.15625 108.1845 
Q 241.15625 108.1845 241.15625 106.1845 
L 241.15625 48.472 
Q 241.15625 46.472 239.15625 46.472 
L 64.6 46.472 
Q 62.6 46.472 62.6 48.472 
L 62.6 106.1845 
Q 62.6 108.1845 64.6 108.1845 
z
" style="fill:#ffffff;opacity:0.8;stroke:#cccccc;stroke-linejoin:miter;"/>
    </g>
    <g id="line2d_33">
     <path d="M 66.6 54.570438 
L 86.6 54.570438 
" style="fill:none;stroke:#0000ff;stroke-linecap:square;stroke-width:1.5;"/>
    </g>
    <g id="line2d_34"/>
    <g id="text_13">
     <!-- MF cheap GPR (regular GPR) -->
     <g transform="translate(94.6 58.070438)scale(0.1 -0.1)">
      <defs>
       <path d="M 9.8125 72.90625 
L 24.515625 72.90625 
L 43.109375 23.296875 
L 61.8125 72.90625 
L 76.515625 72.90625 
L 76.515625 0 
L 66.890625 0 
L 66.890625 64.015625 
L 48.09375 14.015625 
L 38.1875 14.015625 
L 19.390625 64.015625 
L 19.390625 0 
L 9.8125 0 
z
" id="DejaVuSans-77"/>
       <path d="M 9.8125 72.90625 
L 51.703125 72.90625 
L 51.703125 64.59375 
L 19.671875 64.59375 
L 19.671875 43.109375 
L 48.578125 43.109375 
L 48.578125 34.8125 
L 19.671875 34.8125 
L 19.671875 0 
L 9.8125 0 
z
" id="DejaVuSans-70"/>
       <path id="DejaVuSans-32"/>
       <path d="M 48.78125 52.59375 
L 48.78125 44.1875 
Q 44.96875 46.296875 41.140625 47.34375 
Q 37.3125 48.390625 33.40625 48.390625 
Q 24.65625 48.390625 19.8125 42.84375 
Q 14.984375 37.3125 14.984375 27.296875 
Q 14.984375 17.28125 19.8125 11.734375 
Q 24.65625 6.203125 33.40625 6.203125 
Q 37.3125 6.203125 41.140625 7.25 
Q 44.96875 8.296875 48.78125 10.40625 
L 48.78125 2.09375 
Q 45.015625 0.34375 40.984375 -0.53125 
Q 36.96875 -1.421875 32.421875 -1.421875 
Q 20.0625 -1.421875 12.78125 6.34375 
Q 5.515625 14.109375 5.515625 27.296875 
Q 5.515625 40.671875 12.859375 48.328125 
Q 20.21875 56 33.015625 56 
Q 37.15625 56 41.109375 55.140625 
Q 45.0625 54.296875 48.78125 52.59375 
z
" id="DejaVuSans-99"/>
       <path d="M 54.890625 33.015625 
L 54.890625 0 
L 45.90625 0 
L 45.90625 32.71875 
Q 45.90625 40.484375 42.875 44.328125 
Q 39.84375 48.1875 33.796875 48.1875 
Q 26.515625 48.1875 22.3125 43.546875 
Q 18.109375 38.921875 18.109375 30.90625 
L 18.109375 0 
L 9.078125 0 
L 9.078125 75.984375 
L 18.109375 75.984375 
L 18.109375 46.1875 
Q 21.34375 51.125 25.703125 53.5625 
Q 30.078125 56 35.796875 56 
Q 45.21875 56 50.046875 50.171875 
Q 54.890625 44.34375 54.890625 33.015625 
z
" id="DejaVuSans-104"/>
       <path d="M 56.203125 29.59375 
L 56.203125 25.203125 
L 14.890625 25.203125 
Q 15.484375 15.921875 20.484375 11.0625 
Q 25.484375 6.203125 34.421875 6.203125 
Q 39.59375 6.203125 44.453125 7.46875 
Q 49.3125 8.734375 54.109375 11.28125 
L 54.109375 2.78125 
Q 49.265625 0.734375 44.1875 -0.34375 
Q 39.109375 -1.421875 33.890625 -1.421875 
Q 20.796875 -1.421875 13.15625 6.1875 
Q 5.515625 13.8125 5.515625 26.8125 
Q 5.515625 40.234375 12.765625 48.109375 
Q 20.015625 56 32.328125 56 
Q 43.359375 56 49.78125 48.890625 
Q 56.203125 41.796875 56.203125 29.59375 
z
M 47.21875 32.234375 
Q 47.125 39.59375 43.09375 43.984375 
Q 39.0625 48.390625 32.421875 48.390625 
Q 24.90625 48.390625 20.390625 44.140625 
Q 15.875 39.890625 15.1875 32.171875 
z
" id="DejaVuSans-101"/>
       <path d="M 34.28125 27.484375 
Q 23.390625 27.484375 19.1875 25 
Q 14.984375 22.515625 14.984375 16.5 
Q 14.984375 11.71875 18.140625 8.90625 
Q 21.296875 6.109375 26.703125 6.109375 
Q 34.1875 6.109375 38.703125 11.40625 
Q 43.21875 16.703125 43.21875 25.484375 
L 43.21875 27.484375 
z
M 52.203125 31.203125 
L 52.203125 0 
L 43.21875 0 
L 43.21875 8.296875 
Q 40.140625 3.328125 35.546875 0.953125 
Q 30.953125 -1.421875 24.3125 -1.421875 
Q 15.921875 -1.421875 10.953125 3.296875 
Q 6 8.015625 6 15.921875 
Q 6 25.140625 12.171875 29.828125 
Q 18.359375 34.515625 30.609375 34.515625 
L 43.21875 34.515625 
L 43.21875 35.40625 
Q 43.21875 41.609375 39.140625 45 
Q 35.0625 48.390625 27.6875 48.390625 
Q 23 48.390625 18.546875 47.265625 
Q 14.109375 46.140625 10.015625 43.890625 
L 10.015625 52.203125 
Q 14.9375 54.109375 19.578125 55.046875 
Q 24.21875 56 28.609375 56 
Q 40.484375 56 46.34375 49.84375 
Q 52.203125 43.703125 52.203125 31.203125 
z
" id="DejaVuSans-97"/>
       <path d="M 18.109375 8.203125 
L 18.109375 -20.796875 
L 9.078125 -20.796875 
L 9.078125 54.6875 
L 18.109375 54.6875 
L 18.109375 46.390625 
Q 20.953125 51.265625 25.265625 53.625 
Q 29.59375 56 35.59375 56 
Q 45.5625 56 51.78125 48.09375 
Q 58.015625 40.1875 58.015625 27.296875 
Q 58.015625 14.40625 51.78125 6.484375 
Q 45.5625 -1.421875 35.59375 -1.421875 
Q 29.59375 -1.421875 25.265625 0.953125 
Q 20.953125 3.328125 18.109375 8.203125 
z
M 48.6875 27.296875 
Q 48.6875 37.203125 44.609375 42.84375 
Q 40.53125 48.484375 33.40625 48.484375 
Q 26.265625 48.484375 22.1875 42.84375 
Q 18.109375 37.203125 18.109375 27.296875 
Q 18.109375 17.390625 22.1875 11.75 
Q 26.265625 6.109375 33.40625 6.109375 
Q 40.53125 6.109375 44.609375 11.75 
Q 48.6875 17.390625 48.6875 27.296875 
z
" id="DejaVuSans-112"/>
       <path d="M 59.515625 10.40625 
L 59.515625 29.984375 
L 43.40625 29.984375 
L 43.40625 38.09375 
L 69.28125 38.09375 
L 69.28125 6.78125 
Q 63.578125 2.734375 56.6875 0.65625 
Q 49.8125 -1.421875 42 -1.421875 
Q 24.90625 -1.421875 15.25 8.5625 
Q 5.609375 18.5625 5.609375 36.375 
Q 5.609375 54.25 15.25 64.234375 
Q 24.90625 74.21875 42 74.21875 
Q 49.125 74.21875 55.546875 72.453125 
Q 61.96875 70.703125 67.390625 67.28125 
L 67.390625 56.78125 
Q 61.921875 61.421875 55.765625 63.765625 
Q 49.609375 66.109375 42.828125 66.109375 
Q 29.4375 66.109375 22.71875 58.640625 
Q 16.015625 51.171875 16.015625 36.375 
Q 16.015625 21.625 22.71875 14.15625 
Q 29.4375 6.6875 42.828125 6.6875 
Q 48.046875 6.6875 52.140625 7.59375 
Q 56.25 8.5 59.515625 10.40625 
z
" id="DejaVuSans-71"/>
       <path d="M 19.671875 64.796875 
L 19.671875 37.40625 
L 32.078125 37.40625 
Q 38.96875 37.40625 42.71875 40.96875 
Q 46.484375 44.53125 46.484375 51.125 
Q 46.484375 57.671875 42.71875 61.234375 
Q 38.96875 64.796875 32.078125 64.796875 
z
M 9.8125 72.90625 
L 32.078125 72.90625 
Q 44.34375 72.90625 50.609375 67.359375 
Q 56.890625 61.8125 56.890625 51.125 
Q 56.890625 40.328125 50.609375 34.8125 
Q 44.34375 29.296875 32.078125 29.296875 
L 19.671875 29.296875 
L 19.671875 0 
L 9.8125 0 
z
" id="DejaVuSans-80"/>
       <path d="M 44.390625 34.1875 
Q 47.5625 33.109375 50.5625 29.59375 
Q 53.5625 26.078125 56.59375 19.921875 
L 66.609375 0 
L 56 0 
L 46.6875 18.703125 
Q 43.0625 26.03125 39.671875 28.421875 
Q 36.28125 30.8125 30.421875 30.8125 
L 19.671875 30.8125 
L 19.671875 0 
L 9.8125 0 
L 9.8125 72.90625 
L 32.078125 72.90625 
Q 44.578125 72.90625 50.734375 67.671875 
Q 56.890625 62.453125 56.890625 51.90625 
Q 56.890625 45.015625 53.6875 40.46875 
Q 50.484375 35.9375 44.390625 34.1875 
z
M 19.671875 64.796875 
L 19.671875 38.921875 
L 32.078125 38.921875 
Q 39.203125 38.921875 42.84375 42.21875 
Q 46.484375 45.515625 46.484375 51.90625 
Q 46.484375 58.296875 42.84375 61.546875 
Q 39.203125 64.796875 32.078125 64.796875 
z
" id="DejaVuSans-82"/>
       <path d="M 31 75.875 
Q 24.46875 64.65625 21.28125 53.65625 
Q 18.109375 42.671875 18.109375 31.390625 
Q 18.109375 20.125 21.3125 9.0625 
Q 24.515625 -2 31 -13.1875 
L 23.1875 -13.1875 
Q 15.875 -1.703125 12.234375 9.375 
Q 8.59375 20.453125 8.59375 31.390625 
Q 8.59375 42.28125 12.203125 53.3125 
Q 15.828125 64.359375 23.1875 75.875 
z
" id="DejaVuSans-40"/>
       <path d="M 41.109375 46.296875 
Q 39.59375 47.171875 37.8125 47.578125 
Q 36.03125 48 33.890625 48 
Q 26.265625 48 22.1875 43.046875 
Q 18.109375 38.09375 18.109375 28.8125 
L 18.109375 0 
L 9.078125 0 
L 9.078125 54.6875 
L 18.109375 54.6875 
L 18.109375 46.1875 
Q 20.953125 51.171875 25.484375 53.578125 
Q 30.03125 56 36.53125 56 
Q 37.453125 56 38.578125 55.875 
Q 39.703125 55.765625 41.0625 55.515625 
z
" id="DejaVuSans-114"/>
       <path d="M 45.40625 27.984375 
Q 45.40625 37.75 41.375 43.109375 
Q 37.359375 48.484375 30.078125 48.484375 
Q 22.859375 48.484375 18.828125 43.109375 
Q 14.796875 37.75 14.796875 27.984375 
Q 14.796875 18.265625 18.828125 12.890625 
Q 22.859375 7.515625 30.078125 7.515625 
Q 37.359375 7.515625 41.375 12.890625 
Q 45.40625 18.265625 45.40625 27.984375 
z
M 54.390625 6.78125 
Q 54.390625 -7.171875 48.1875 -13.984375 
Q 42 -20.796875 29.203125 -20.796875 
Q 24.46875 -20.796875 20.265625 -20.09375 
Q 16.0625 -19.390625 12.109375 -17.921875 
L 12.109375 -9.1875 
Q 16.0625 -11.328125 19.921875 -12.34375 
Q 23.78125 -13.375 27.78125 -13.375 
Q 36.625 -13.375 41.015625 -8.765625 
Q 45.40625 -4.15625 45.40625 5.171875 
L 45.40625 9.625 
Q 42.625 4.78125 38.28125 2.390625 
Q 33.9375 0 27.875 0 
Q 17.828125 0 11.671875 7.65625 
Q 5.515625 15.328125 5.515625 27.984375 
Q 5.515625 40.671875 11.671875 48.328125 
Q 17.828125 56 27.875 56 
Q 33.9375 56 38.28125 53.609375 
Q 42.625 51.21875 45.40625 46.390625 
L 45.40625 54.6875 
L 54.390625 54.6875 
z
" id="DejaVuSans-103"/>
       <path d="M 8.5 21.578125 
L 8.5 54.6875 
L 17.484375 54.6875 
L 17.484375 21.921875 
Q 17.484375 14.15625 20.5 10.265625 
Q 23.53125 6.390625 29.59375 6.390625 
Q 36.859375 6.390625 41.078125 11.03125 
Q 45.3125 15.671875 45.3125 23.6875 
L 45.3125 54.6875 
L 54.296875 54.6875 
L 54.296875 0 
L 45.3125 0 
L 45.3125 8.40625 
Q 42.046875 3.421875 37.71875 1 
Q 33.40625 -1.421875 27.6875 -1.421875 
Q 18.265625 -1.421875 13.375 4.4375 
Q 8.5 10.296875 8.5 21.578125 
z
M 31.109375 56 
z
" id="DejaVuSans-117"/>
       <path d="M 9.421875 75.984375 
L 18.40625 75.984375 
L 18.40625 0 
L 9.421875 0 
z
" id="DejaVuSans-108"/>
       <path d="M 8.015625 75.875 
L 15.828125 75.875 
Q 23.140625 64.359375 26.78125 53.3125 
Q 30.421875 42.28125 30.421875 31.390625 
Q 30.421875 20.453125 26.78125 9.375 
Q 23.140625 -1.703125 15.828125 -13.1875 
L 8.015625 -13.1875 
Q 14.5 -2 17.703125 9.0625 
Q 20.90625 20.125 20.90625 31.390625 
Q 20.90625 42.671875 17.703125 53.65625 
Q 14.5 64.65625 8.015625 75.875 
z
" id="DejaVuSans-41"/>
      </defs>
      <use xlink:href="#DejaVuSans-77"/>
      <use x="86.279297" xlink:href="#DejaVuSans-70"/>
      <use x="143.798828" xlink:href="#DejaVuSans-32"/>
      <use x="175.585938" xlink:href="#DejaVuSans-99"/>
      <use x="230.566406" xlink:href="#DejaVuSans-104"/>
      <use x="293.945312" xlink:href="#DejaVuSans-101"/>
      <use x="355.46875" xlink:href="#DejaVuSans-97"/>
      <use x="416.748047" xlink:href="#DejaVuSans-112"/>
      <use x="480.224609" xlink:href="#DejaVuSans-32"/>
      <use x="512.011719" xlink:href="#DejaVuSans-71"/>
      <use x="589.501953" xlink:href="#DejaVuSans-80"/>
      <use x="649.804688" xlink:href="#DejaVuSans-82"/>
      <use x="719.287109" xlink:href="#DejaVuSans-32"/>
      <use x="751.074219" xlink:href="#DejaVuSans-40"/>
      <use x="790.087891" xlink:href="#DejaVuSans-114"/>
      <use x="828.951172" xlink:href="#DejaVuSans-101"/>
      <use x="890.474609" xlink:href="#DejaVuSans-103"/>
      <use x="953.951172" xlink:href="#DejaVuSans-117"/>
      <use x="1017.330078" xlink:href="#DejaVuSans-108"/>
      <use x="1045.113281" xlink:href="#DejaVuSans-97"/>
      <use x="1106.392578" xlink:href="#DejaVuSans-114"/>
      <use x="1147.505859" xlink:href="#DejaVuSans-32"/>
      <use x="1179.292969" xlink:href="#DejaVuSans-71"/>
      <use x="1256.783203" xlink:href="#DejaVuSans-80"/>
      <use x="1317.085938" xlink:href="#DejaVuSans-82"/>
      <use x="1386.568359" xlink:href="#DejaVuSans-41"/>
     </g>
    </g>
    <g id="line2d_35">
     <path d="M 66.6 69.248563 
L 86.6 69.248563 
" style="fill:none;stroke:#ffa500;stroke-linecap:square;stroke-width:1.5;"/>
    </g>
    <g id="line2d_36"/>
    <g id="text_14">
     <!-- MF expensive GPR -->
     <g transform="translate(94.6 72.748563)scale(0.1 -0.1)">
      <defs>
       <path d="M 54.890625 54.6875 
L 35.109375 28.078125 
L 55.90625 0 
L 45.3125 0 
L 29.390625 21.484375 
L 13.484375 0 
L 2.875 0 
L 24.125 28.609375 
L 4.6875 54.6875 
L 15.28125 54.6875 
L 29.78125 35.203125 
L 44.28125 54.6875 
z
" id="DejaVuSans-120"/>
       <path d="M 54.890625 33.015625 
L 54.890625 0 
L 45.90625 0 
L 45.90625 32.71875 
Q 45.90625 40.484375 42.875 44.328125 
Q 39.84375 48.1875 33.796875 48.1875 
Q 26.515625 48.1875 22.3125 43.546875 
Q 18.109375 38.921875 18.109375 30.90625 
L 18.109375 0 
L 9.078125 0 
L 9.078125 54.6875 
L 18.109375 54.6875 
L 18.109375 46.1875 
Q 21.34375 51.125 25.703125 53.5625 
Q 30.078125 56 35.796875 56 
Q 45.21875 56 50.046875 50.171875 
Q 54.890625 44.34375 54.890625 33.015625 
z
" id="DejaVuSans-110"/>
       <path d="M 44.28125 53.078125 
L 44.28125 44.578125 
Q 40.484375 46.53125 36.375 47.5 
Q 32.28125 48.484375 27.875 48.484375 
Q 21.1875 48.484375 17.84375 46.4375 
Q 14.5 44.390625 14.5 40.28125 
Q 14.5 37.15625 16.890625 35.375 
Q 19.28125 33.59375 26.515625 31.984375 
L 29.59375 31.296875 
Q 39.15625 29.25 43.1875 25.515625 
Q 47.21875 21.78125 47.21875 15.09375 
Q 47.21875 7.46875 41.1875 3.015625 
Q 35.15625 -1.421875 24.609375 -1.421875 
Q 20.21875 -1.421875 15.453125 -0.5625 
Q 10.6875 0.296875 5.421875 2 
L 5.421875 11.28125 
Q 10.40625 8.6875 15.234375 7.390625 
Q 20.0625 6.109375 24.8125 6.109375 
Q 31.15625 6.109375 34.5625 8.28125 
Q 37.984375 10.453125 37.984375 14.40625 
Q 37.984375 18.0625 35.515625 20.015625 
Q 33.0625 21.96875 24.703125 23.78125 
L 21.578125 24.515625 
Q 13.234375 26.265625 9.515625 29.90625 
Q 5.8125 33.546875 5.8125 39.890625 
Q 5.8125 47.609375 11.28125 51.796875 
Q 16.75 56 26.8125 56 
Q 31.78125 56 36.171875 55.265625 
Q 40.578125 54.546875 44.28125 53.078125 
z
" id="DejaVuSans-115"/>
       <path d="M 9.421875 54.6875 
L 18.40625 54.6875 
L 18.40625 0 
L 9.421875 0 
z
M 9.421875 75.984375 
L 18.40625 75.984375 
L 18.40625 64.59375 
L 9.421875 64.59375 
z
" id="DejaVuSans-105"/>
       <path d="M 2.984375 54.6875 
L 12.5 54.6875 
L 29.59375 8.796875 
L 46.6875 54.6875 
L 56.203125 54.6875 
L 35.6875 0 
L 23.484375 0 
z
" id="DejaVuSans-118"/>
      </defs>
      <use xlink:href="#DejaVuSans-77"/>
      <use x="86.279297" xlink:href="#DejaVuSans-70"/>
      <use x="143.798828" xlink:href="#DejaVuSans-32"/>
      <use x="175.585938" xlink:href="#DejaVuSans-101"/>
      <use x="235.359375" xlink:href="#DejaVuSans-120"/>
      <use x="294.539062" xlink:href="#DejaVuSans-112"/>
      <use x="358.015625" xlink:href="#DejaVuSans-101"/>
      <use x="419.539062" xlink:href="#DejaVuSans-110"/>
      <use x="482.917969" xlink:href="#DejaVuSans-115"/>
      <use x="535.017578" xlink:href="#DejaVuSans-105"/>
      <use x="562.800781" xlink:href="#DejaVuSans-118"/>
      <use x="621.980469" xlink:href="#DejaVuSans-101"/>
      <use x="683.503906" xlink:href="#DejaVuSans-32"/>
      <use x="715.291016" xlink:href="#DejaVuSans-71"/>
      <use x="792.78125" xlink:href="#DejaVuSans-80"/>
      <use x="853.083984" xlink:href="#DejaVuSans-82"/>
     </g>
    </g>
    <g id="line2d_37">
     <path d="M 66.6 83.926688 
L 86.6 83.926688 
" style="fill:none;stroke:#0000ff;stroke-dasharray:5.55,2.4;stroke-dashoffset:0;stroke-width:1.5;"/>
    </g>
    <g id="line2d_38"/>
    <g id="text_15">
     <!-- Exact cheap function -->
     <g transform="translate(94.6 87.426688)scale(0.1 -0.1)">
      <defs>
       <path d="M 9.8125 72.90625 
L 55.90625 72.90625 
L 55.90625 64.59375 
L 19.671875 64.59375 
L 19.671875 43.015625 
L 54.390625 43.015625 
L 54.390625 34.71875 
L 19.671875 34.71875 
L 19.671875 8.296875 
L 56.78125 8.296875 
L 56.78125 0 
L 9.8125 0 
z
" id="DejaVuSans-69"/>
       <path d="M 18.3125 70.21875 
L 18.3125 54.6875 
L 36.8125 54.6875 
L 36.8125 47.703125 
L 18.3125 47.703125 
L 18.3125 18.015625 
Q 18.3125 11.328125 20.140625 9.421875 
Q 21.96875 7.515625 27.59375 7.515625 
L 36.8125 7.515625 
L 36.8125 0 
L 27.59375 0 
Q 17.1875 0 13.234375 3.875 
Q 9.28125 7.765625 9.28125 18.015625 
L 9.28125 47.703125 
L 2.6875 47.703125 
L 2.6875 54.6875 
L 9.28125 54.6875 
L 9.28125 70.21875 
z
" id="DejaVuSans-116"/>
       <path d="M 37.109375 75.984375 
L 37.109375 68.5 
L 28.515625 68.5 
Q 23.6875 68.5 21.796875 66.546875 
Q 19.921875 64.59375 19.921875 59.515625 
L 19.921875 54.6875 
L 34.71875 54.6875 
L 34.71875 47.703125 
L 19.921875 47.703125 
L 19.921875 0 
L 10.890625 0 
L 10.890625 47.703125 
L 2.296875 47.703125 
L 2.296875 54.6875 
L 10.890625 54.6875 
L 10.890625 58.5 
Q 10.890625 67.625 15.140625 71.796875 
Q 19.390625 75.984375 28.609375 75.984375 
z
" id="DejaVuSans-102"/>
       <path d="M 30.609375 48.390625 
Q 23.390625 48.390625 19.1875 42.75 
Q 14.984375 37.109375 14.984375 27.296875 
Q 14.984375 17.484375 19.15625 11.84375 
Q 23.34375 6.203125 30.609375 6.203125 
Q 37.796875 6.203125 41.984375 11.859375 
Q 46.1875 17.53125 46.1875 27.296875 
Q 46.1875 37.015625 41.984375 42.703125 
Q 37.796875 48.390625 30.609375 48.390625 
z
M 30.609375 56 
Q 42.328125 56 49.015625 48.375 
Q 55.71875 40.765625 55.71875 27.296875 
Q 55.71875 13.875 49.015625 6.21875 
Q 42.328125 -1.421875 30.609375 -1.421875 
Q 18.84375 -1.421875 12.171875 6.21875 
Q 5.515625 13.875 5.515625 27.296875 
Q 5.515625 40.765625 12.171875 48.375 
Q 18.84375 56 30.609375 56 
z
" id="DejaVuSans-111"/>
      </defs>
      <use xlink:href="#DejaVuSans-69"/>
      <use x="63.183594" xlink:href="#DejaVuSans-120"/>
      <use x="122.363281" xlink:href="#DejaVuSans-97"/>
      <use x="183.642578" xlink:href="#DejaVuSans-99"/>
      <use x="238.623047" xlink:href="#DejaVuSans-116"/>
      <use x="277.832031" xlink:href="#DejaVuSans-32"/>
      <use x="309.619141" xlink:href="#DejaVuSans-99"/>
      <use x="364.599609" xlink:href="#DejaVuSans-104"/>
      <use x="427.978516" xlink:href="#DejaVuSans-101"/>
      <use x="489.501953" xlink:href="#DejaVuSans-97"/>
      <use x="550.78125" xlink:href="#DejaVuSans-112"/>
      <use x="614.257812" xlink:href="#DejaVuSans-32"/>
      <use x="646.044922" xlink:href="#DejaVuSans-102"/>
      <use x="681.25" xlink:href="#DejaVuSans-117"/>
      <use x="744.628906" xlink:href="#DejaVuSans-110"/>
      <use x="808.007812" xlink:href="#DejaVuSans-99"/>
      <use x="862.988281" xlink:href="#DejaVuSans-116"/>
      <use x="902.197266" xlink:href="#DejaVuSans-105"/>
      <use x="929.980469" xlink:href="#DejaVuSans-111"/>
      <use x="991.162109" xlink:href="#DejaVuSans-110"/>
     </g>
    </g>
    <g id="line2d_39">
     <path d="M 66.6 98.604813 
L 86.6 98.604813 
" style="fill:none;stroke:#ffa500;stroke-dasharray:5.55,2.4;stroke-dashoffset:0;stroke-width:1.5;"/>
    </g>
    <g id="line2d_40"/>
    <g id="text_16">
     <!-- Exact expensive function -->
     <g transform="translate(94.6 102.104813)scale(0.1 -0.1)">
      <use xlink:href="#DejaVuSans-69"/>
      <use x="63.183594" xlink:href="#DejaVuSans-120"/>
      <use x="122.363281" xlink:href="#DejaVuSans-97"/>
      <use x="183.642578" xlink:href="#DejaVuSans-99"/>
      <use x="238.623047" xlink:href="#DejaVuSans-116"/>
      <use x="277.832031" xlink:href="#DejaVuSans-32"/>
      <use x="309.619141" xlink:href="#DejaVuSans-101"/>
      <use x="369.392578" xlink:href="#DejaVuSans-120"/>
      <use x="428.572266" xlink:href="#DejaVuSans-112"/>
      <use x="492.048828" xlink:href="#DejaVuSans-101"/>
      <use x="553.572266" xlink:href="#DejaVuSans-110"/>
      <use x="616.951172" xlink:href="#DejaVuSans-115"/>
      <use x="669.050781" xlink:href="#DejaVuSans-105"/>
      <use x="696.833984" xlink:href="#DejaVuSans-118"/>
      <use x="756.013672" xlink:href="#DejaVuSans-101"/>
      <use x="817.537109" xlink:href="#DejaVuSans-32"/>
      <use x="849.324219" xlink:href="#DejaVuSans-102"/>
      <use x="884.529297" xlink:href="#DejaVuSans-117"/>
      <use x="947.908203" xlink:href="#DejaVuSans-110"/>
      <use x="1011.287109" xlink:href="#DejaVuSans-99"/>
      <use x="1066.267578" xlink:href="#DejaVuSans-116"/>
      <use x="1105.476562" xlink:href="#DejaVuSans-105"/>
      <use x="1133.259766" xlink:href="#DejaVuSans-111"/>
      <use x="1194.441406" xlink:href="#DejaVuSans-110"/>
     </g>
    </g>
   </g>
  </g>
 </g>
 <defs>
  <clipPath id="p3ea8f758ee">
   <rect height="266.112" width="357.12" x="57.6" y="41.472"/>
  </clipPath>
 </defs>
</svg>
