<?xml version="1.0" encoding="utf-8" standalone="no"?>
<!DOCTYPE svg PUBLIC "-//W3C//DTD SVG 1.1//EN"
  "http://www.w3.org/Graphics/SVG/1.1/DTD/svg11.dtd">
<!-- Created with matplotlib (https://matplotlib.org/) -->
<svg height="345.6pt" version="1.1" viewBox="0 0 460.8 345.6" width="460.8pt" xmlns="http://www.w3.org/2000/svg" xmlns:xlink="http://www.w3.org/1999/xlink">
 <metadata>
  <rdf:RDF xmlns:cc="http://creativecommons.org/ns#" xmlns:dc="http://purl.org/dc/elements/1.1/" xmlns:rdf="http://www.w3.org/1999/02/22-rdf-syntax-ns#">
   <cc:Work>
    <dc:type rdf:resource="http://purl.org/dc/dcmitype/StillImage"/>
    <dc:date>2020-11-24T14:03:33.501140</dc:date>
    <dc:format>image/svg+xml</dc:format>
    <dc:creator>
     <cc:Agent>
      <dc:title>Matplotlib v3.3.1, https://matplotlib.org/</dc:title>
     </cc:Agent>
    </dc:creator>
   </cc:Work>
  </rdf:RDF>
 </metadata>
 <defs>
  <style type="text/css">*{stroke-linecap:butt;stroke-linejoin:round;}</style>
 </defs>
 <g id="figure_1">
  <g id="patch_1">
   <path d="M 0 345.6 
L 460.8 345.6 
L 460.8 0 
L 0 0 
z
" style="fill:#ffffff;"/>
  </g>
  <g id="axes_1">
   <g id="patch_2">
    <path d="M 57.6 307.584 
L 414.72 307.584 
L 414.72 41.472 
L 57.6 41.472 
z
" style="fill:#ffffff;"/>
   </g>
   <g id="PolyCollection_1">
    <defs>
     <path d="M 73.832727 -94.335801 
L 73.832727 -69.84695 
L 77.112066 -69.669379 
L 80.391405 -69.225591 
L 83.670744 -68.639331 
L 86.950083 -68.013404 
L 90.229421 -67.428633 
L 93.50876 -66.944151 
L 96.788099 -66.598859 
L 100.067438 -66.413786 
L 103.346777 -66.395074 
L 106.626116 -66.537283 
L 109.905455 -66.826733 
L 113.184793 -67.244635 
L 116.464132 -67.769827 
L 119.743471 -68.380981 
L 123.02281 -69.058216 
L 126.302149 -69.784132 
L 129.581488 -70.544313 
L 132.860826 -71.327386 
L 136.140165 -72.124767 
L 139.419504 -72.930207 
L 142.698843 -73.739263 
L 145.978182 -74.548783 
L 149.257521 -75.356482 
L 152.53686 -76.160648 
L 155.816198 -76.959989 
L 159.095537 -77.753612 
L 162.374876 -78.541094 
L 165.654215 -79.322602 
L 168.933554 -80.099033 
L 172.212893 -80.872099 
L 175.492231 -81.644352 
L 178.77157 -82.419117 
L 182.050909 -83.200325 
L 185.330248 -83.992255 
L 188.609587 -84.799202 
L 191.888926 -85.625102 
L 195.168264 -86.473134 
L 198.447603 -87.34534 
L 201.726942 -88.24229 
L 205.006281 -89.162801 
L 208.28562 -90.103756 
L 211.564959 -91.060002 
L 214.844298 -92.024355 
L 218.123636 -92.987699 
L 221.402975 -93.939175 
L 224.682314 -94.866453 
L 227.961653 -95.756077 
L 231.240992 -96.593861 
L 234.520331 -97.365337 
L 237.799669 -98.056223 
L 241.079008 -98.652916 
L 244.358347 -99.142974 
L 247.637686 -99.515595 
L 250.917025 -99.762057 
L 254.196364 -99.876131 
L 257.475702 -99.85443 
L 260.755041 -99.696712 
L 264.03438 -99.406107 
L 267.313719 -98.989286 
L 270.593058 -98.456555 
L 273.872397 -97.821876 
L 277.151736 -97.102824 
L 280.431074 -96.320472 
L 283.710413 -95.499191 
L 286.989752 -94.666387 
L 290.269091 -93.852141 
L 293.54843 -93.088754 
L 296.827769 -92.410193 
L 300.107107 -91.851427 
L 303.386446 -91.447657 
L 306.665785 -91.233446 
L 309.945124 -91.241773 
L 313.224463 -91.503048 
L 316.503802 -92.044122 
L 319.78314 -92.887365 
L 323.062479 -94.049864 
L 326.341818 -95.542802 
L 329.621157 -97.371096 
L 332.900496 -99.533303 
L 336.179835 -102.021843 
L 339.459174 -104.823512 
L 342.738512 -107.920238 
L 346.017851 -111.29002 
L 349.29719 -114.907916 
L 352.576529 -118.746966 
L 355.855868 -122.778903 
L 359.135207 -126.974518 
L 362.414545 -131.303551 
L 365.693884 -135.734051 
L 368.973223 -140.231154 
L 372.252562 -144.755341 
L 375.531901 -149.260262 
L 378.81124 -153.690308 
L 382.090579 -157.97815 
L 385.369917 -162.04252 
L 388.649256 -165.786508 
L 391.928595 -169.096663 
L 395.207934 -171.843134 
L 398.487273 -173.881028 
L 398.487273 -198.369879 
L 398.487273 -198.369879 
L 395.207934 -194.526412 
L 391.928595 -190.766127 
L 388.649256 -186.995898 
L 385.369917 -183.146284 
L 382.090579 -179.17213 
L 378.81124 -175.051769 
L 375.531901 -170.78501 
L 372.252562 -166.390191 
L 368.973223 -161.90058 
L 365.693884 -157.360441 
L 362.414545 -152.821068 
L 359.135207 -148.337042 
L 355.855868 -143.962918 
L 352.576529 -139.750479 
L 349.29719 -135.746637 
L 346.017851 -131.991985 
L 342.738512 -128.519957 
L 339.459174 -125.356506 
L 336.179835 -122.520187 
L 332.900496 -120.022539 
L 329.621157 -117.868627 
L 326.341818 -116.057657 
L 323.062479 -114.583594 
L 319.78314 -113.435725 
L 316.503802 -112.599147 
L 313.224463 -112.055193 
L 309.945124 -111.781809 
L 306.665785 -111.753909 
L 303.386446 -111.943756 
L 300.107107 -112.321379 
L 296.827769 -112.855063 
L 293.54843 -113.511911 
L 290.269091 -114.258478 
L 286.989752 -115.061456 
L 283.710413 -115.888386 
L 280.431074 -116.708373 
L 277.151736 -117.492751 
L 273.872397 -118.215686 
L 270.593058 -118.854677 
L 267.313719 -119.390941 
L 264.03438 -119.809656 
L 260.755041 -120.100078 
L 257.475702 -120.255517 
L 254.196364 -120.273191 
L 250.917025 -120.153968 
L 247.637686 -119.902017 
L 244.358347 -119.524385 
L 241.079008 -119.030524 
L 237.799669 -118.431783 
L 234.520331 -117.740897 
L 231.240992 -116.971469 
L 227.961653 -116.137488 
L 224.682314 -115.252876 
L 221.402975 -114.331086 
L 218.123636 -113.384759 
L 214.844298 -112.425442 
L 211.564959 -111.463368 
L 208.28562 -110.507305 
L 205.006281 -109.564456 
L 201.726942 -108.640413 
L 198.447603 -107.739151 
L 195.168264 -106.86306 
L 191.888926 -106.013004 
L 188.609587 -105.188398 
L 185.330248 -104.387323 
L 182.050909 -103.606662 
L 178.77157 -102.842274 
L 175.492231 -102.089221 
L 172.212893 -101.34205 
L 168.933554 -100.595132 
L 165.654215 -99.843066 
L 162.374876 -99.081129 
L 159.095537 -98.305758 
L 155.816198 -97.515014 
L 152.53686 -96.709007 
L 149.257521 -95.890213 
L 145.978182 -95.063638 
L 142.698843 -94.236793 
L 139.419504 -93.419443 
L 136.140165 -92.62311 
L 132.860826 -91.86038 
L 129.581488 -91.144033 
L 126.302149 -90.486097 
L 123.02281 -89.896936 
L 119.743471 -89.384494 
L 116.464132 -88.953843 
L 113.184793 -88.607159 
L 109.905455 -88.344249 
L 106.626116 -88.163673 
L 103.346777 -88.0645 
L 100.067438 -88.048636 
L 96.788099 -88.123607 
L 93.50876 -88.305612 
L 90.229421 -88.622613 
L 86.950083 -89.117168 
L 83.670744 -89.848721 
L 80.391405 -90.895055 
L 77.112066 -92.352658 
L 73.832727 -94.335801 
z
" id="m7670d9a323" style="stroke:#0000ff;stroke-opacity:0.2;"/>
    </defs>
    <g clip-path="url(#p704d74a722)">
     <use style="fill:#0000ff;fill-opacity:0.2;stroke:#0000ff;stroke-opacity:0.2;" x="0" xlink:href="#m7670d9a323" y="345.6"/>
    </g>
   </g>
   <g id="PolyCollection_2">
    <defs>
     <path d="M 73.832727 -210.29055 
L 73.832727 -99.819165 
L 77.112066 -100.235873 
L 80.391405 -99.174537 
L 83.670744 -97.170537 
L 86.950083 -94.670468 
L 90.229421 -92.027669 
L 93.50876 -89.503611 
L 96.788099 -87.274312 
L 100.067438 -85.440689 
L 103.346777 -84.041551 
L 106.626116 -83.067941 
L 109.905455 -82.477552 
L 113.184793 -82.208158 
L 116.464132 -82.18921 
L 119.743471 -82.351049 
L 123.02281 -82.631483 
L 126.302149 -82.979749 
L 129.581488 -83.358116 
L 132.860826 -83.741571 
L 136.140165 -84.116113 
L 139.419504 -84.476215 
L 142.698843 -84.822004 
L 145.978182 -85.156585 
L 149.257521 -85.483849 
L 152.53686 -85.806948 
L 155.816198 -86.127509 
L 159.095537 -86.445522 
L 162.374876 -86.759769 
L 165.654215 -87.068599 
L 168.933554 -87.370838 
L 172.212893 -87.666634 
L 175.492231 -87.958091 
L 178.77157 -88.24956 
L 182.050909 -88.547567 
L 185.330248 -88.860367 
L 188.609587 -89.197193 
L 191.888926 -89.567285 
L 195.168264 -89.978803 
L 198.447603 -90.437752 
L 201.726942 -90.946999 
L 205.006281 -91.505485 
L 208.28562 -92.107668 
L 211.564959 -92.743248 
L 214.844298 -93.397169 
L 218.123636 -94.049888 
L 221.402975 -94.677881 
L 224.682314 -95.254349 
L 227.961653 -95.750085 
L 231.240992 -96.134449 
L 234.520331 -96.376415 
L 237.799669 -96.445649 
L 241.079008 -96.313571 
L 244.358347 -95.954385 
L 247.637686 -95.346029 
L 250.917025 -94.471029 
L 254.196364 -93.317238 
L 257.475702 -91.878446 
L 260.755041 -90.154863 
L 264.03438 -88.153469 
L 267.313719 -85.888252 
L 270.593058 -83.380349 
L 273.872397 -80.658098 
L 277.151736 -77.757018 
L 280.431074 -74.719716 
L 283.710413 -71.595701 
L 286.989752 -68.441086 
L 290.269091 -65.318109 
L 293.54843 -62.294443 
L 296.827769 -59.442201 
L 300.107107 -56.836599 
L 303.386446 -54.554242 
L 306.665785 -52.671021 
L 309.945124 -51.25969 
L 313.224463 -50.387203 
L 316.503802 -50.112 
L 319.78314 -50.481418 
L 323.062479 -51.529499 
L 326.341818 -53.275417 
L 329.621157 -55.722758 
L 332.900496 -58.859814 
L 336.179835 -62.66094 
L 339.459174 -67.088942 
L 342.738512 -72.098261 
L 346.017851 -77.638648 
L 349.29719 -83.658826 
L 352.576529 -90.1096 
L 355.855868 -96.945801 
L 359.135207 -104.126487 
L 362.414545 -111.612941 
L 365.693884 -119.364123 
L 368.973223 -127.329549 
L 372.252562 -135.439758 
L 375.531901 -143.594905 
L 378.81124 -151.652258 
L 382.090579 -159.413636 
L 385.369917 -166.61401 
L 388.649256 -172.912552 
L 391.928595 -177.887378 
L 395.207934 -181.035082 
L 398.487273 -181.77586 
L 398.487273 -292.032 
L 398.487273 -292.032 
L 395.207934 -283.27329 
L 391.928595 -275.606012 
L 388.649256 -268.559114 
L 385.369917 -261.7561 
L 382.090579 -254.918568 
L 378.81124 -247.863761 
L 375.531901 -240.496991 
L 372.252562 -232.800055 
L 368.973223 -224.816938 
L 365.693884 -216.63817 
L 362.414545 -208.385083 
L 359.135207 -200.195103 
L 355.855868 -192.208937 
L 352.576529 -184.560225 
L 349.29719 -177.367955 
L 346.017851 -170.73162 
L 342.738512 -164.7289 
L 339.459174 -159.415437 
L 336.179835 -154.826187 
L 332.900496 -150.977785 
L 329.621157 -147.871407 
L 326.341818 -145.495655 
L 323.062479 -143.829157 
L 319.78314 -142.842647 
L 316.503802 -142.500474 
L 313.224463 -142.761548 
L 309.945124 -143.579852 
L 306.665785 -144.904688 
L 303.386446 -146.680827 
L 300.107107 -148.848744 
L 296.827769 -151.345064 
L 293.54843 -154.103299 
L 290.269091 -157.054909 
L 286.989752 -160.130642 
L 283.710413 -163.262092 
L 280.431074 -166.383371 
L 277.151736 -169.432766 
L 273.872397 -172.354285 
L 270.593058 -175.098975 
L 267.313719 -177.625946 
L 264.03438 -179.903045 
L 260.755041 -181.90717 
L 257.475702 -183.624224 
L 254.196364 -185.048749 
L 250.917025 -186.183276 
L 247.637686 -187.037453 
L 244.358347 -187.627018 
L 241.079008 -187.972665 
L 237.799669 -188.098863 
L 234.520331 -188.032695 
L 231.240992 -187.802737 
L 227.961653 -187.438035 
L 224.682314 -186.967201 
L 221.402975 -186.417652 
L 218.123636 -185.815001 
L 214.844298 -185.1826 
L 211.564959 -184.541231 
L 208.28562 -183.908912 
L 205.006281 -183.3008 
L 201.726942 -182.729158 
L 198.447603 -182.203337 
L 195.168264 -181.729764 
L 191.888926 -181.311914 
L 188.609587 -180.950259 
L 185.330248 -180.642236 
L 182.050909 -180.38225 
L 178.77157 -180.161796 
L 175.492231 -179.969755 
L 172.212893 -179.79292 
L 168.933554 -179.616818 
L 165.654215 -179.426825 
L 162.374876 -179.209561 
L 159.095537 -178.954469 
L 155.816198 -178.655455 
L 152.53686 -178.312412 
L 149.257521 -177.932392 
L 145.978182 -177.530244 
L 142.698843 -177.128488 
L 139.419504 -176.756313 
L 136.140165 -176.447648 
L 132.860826 -176.238385 
L 129.581488 -176.162965 
L 126.302149 -176.250681 
L 123.02281 -176.522177 
L 119.743471 -176.986693 
L 116.464132 -177.640666 
L 113.184793 -178.468234 
L 109.905455 -179.444134 
L 106.626116 -180.539239 
L 103.346777 -181.728832 
L 100.067438 -183.003341 
L 96.788099 -184.381039 
L 93.50876 -185.921854 
L 90.229421 -187.741254 
L 86.950083 -190.022931 
L 83.670744 -193.028996 
L 80.391405 -197.10639 
L 77.112066 -202.688418 
L 73.832727 -210.29055 
z
" id="m8583c8180d" style="stroke:#ffa500;stroke-opacity:0.2;"/>
    </defs>
    <g clip-path="url(#p704d74a722)">
     <use style="fill:#ffa500;fill-opacity:0.2;stroke:#ffa500;stroke-opacity:0.2;" x="0" xlink:href="#m8583c8180d" y="345.6"/>
    </g>
   </g>
   <g id="PathCollection_1">
    <defs>
     <path d="M 0 3 
C 0.795609 3 1.55874 2.683901 2.12132 2.12132 
C 2.683901 1.55874 3 0.795609 3 0 
C 3 -0.795609 2.683901 -1.55874 2.12132 -2.12132 
C 1.55874 -2.683901 0.795609 -3 0 -3 
C -0.795609 -3 -1.55874 -2.683901 -2.12132 -2.12132 
C -2.683901 -1.55874 -3 -0.795609 -3 0 
C -3 0.795609 -2.683901 1.55874 -2.12132 2.12132 
C -1.55874 2.683901 -0.795609 3 0 3 
z
" id="m909f9bf49c" style="stroke:#0000ff;"/>
    </defs>
    <g clip-path="url(#p704d74a722)">
     <use style="fill:#0000ff;stroke:#0000ff;" x="73.832727" xlink:href="#m909f9bf49c" y="263.619639"/>
     <use style="fill:#0000ff;stroke:#0000ff;" x="106.298182" xlink:href="#m909f9bf49c" y="269.008973"/>
     <use style="fill:#0000ff;stroke:#0000ff;" x="138.763636" xlink:href="#m909f9bf49c" y="262.553597"/>
     <use style="fill:#0000ff;stroke:#0000ff;" x="171.229091" xlink:href="#m909f9bf49c" y="254.15442"/>
     <use style="fill:#0000ff;stroke:#0000ff;" x="203.694545" xlink:href="#m909f9bf49c" y="247.335749"/>
     <use style="fill:#0000ff;stroke:#0000ff;" x="236.16" xlink:href="#m909f9bf49c" y="238.391265"/>
     <use style="fill:#0000ff;stroke:#0000ff;" x="268.625455" xlink:href="#m909f9bf49c" y="235.378538"/>
     <use style="fill:#0000ff;stroke:#0000ff;" x="301.090909" xlink:href="#m909f9bf49c" y="243.240524"/>
     <use style="fill:#0000ff;stroke:#0000ff;" x="333.556364" xlink:href="#m909f9bf49c" y="237.938132"/>
     <use style="fill:#0000ff;stroke:#0000ff;" x="366.021818" xlink:href="#m909f9bf49c" y="197.413527"/>
     <use style="fill:#0000ff;stroke:#0000ff;" x="398.487273" xlink:href="#m909f9bf49c" y="158.627871"/>
    </g>
   </g>
   <g id="PathCollection_2">
    <defs>
     <path d="M 0 3 
C 0.795609 3 1.55874 2.683901 2.12132 2.12132 
C 2.683901 1.55874 3 0.795609 3 0 
C 3 -0.795609 2.683901 -1.55874 2.12132 -2.12132 
C 1.55874 -2.683901 0.795609 -3 0 -3 
C -0.795609 -3 -1.55874 -2.683901 -2.12132 -2.12132 
C -2.683901 -1.55874 -3 -0.795609 -3 0 
C -3 0.795609 -2.683901 1.55874 -2.12132 2.12132 
C -1.55874 2.683901 -0.795609 3 0 3 
z
" id="m6f7e6ad693" style="stroke:#ffa500;"/>
    </defs>
    <g clip-path="url(#p704d74a722)">
     <use style="fill:#ffa500;stroke:#ffa500;" x="73.832727" xlink:href="#m6f7e6ad693" y="190.876148"/>
     <use style="fill:#ffa500;stroke:#ffa500;" x="203.694545" xlink:href="#m6f7e6ad693" y="209.519928"/>
     <use style="fill:#ffa500;stroke:#ffa500;" x="268.625455" xlink:href="#m6f7e6ad693" y="211.211284"/>
     <use style="fill:#ffa500;stroke:#ffa500;" x="333.556364" xlink:href="#m6f7e6ad693" y="241.936252"/>
     <use style="fill:#ffa500;stroke:#ffa500;" x="398.487273" xlink:href="#m6f7e6ad693" y="108.92151"/>
    </g>
   </g>
   <g id="matplotlib.axis_1">
    <g id="xtick_1">
     <g id="line2d_1">
      <path clip-path="url(#p704d74a722)" d="M 73.832727 307.584 
L 73.832727 41.472 
" style="fill:none;stroke:#b0b0b0;stroke-linecap:square;stroke-width:0.8;"/>
     </g>
     <g id="line2d_2">
      <defs>
       <path d="M 0 0 
L 0 3.5 
" id="mb4df0da719" style="stroke:#000000;stroke-width:0.8;"/>
      </defs>
      <g>
       <use style="stroke:#000000;stroke-width:0.8;" x="73.832727" xlink:href="#mb4df0da719" y="307.584"/>
      </g>
     </g>
     <g id="text_1">
      <!-- 0.0 -->
      <g transform="translate(65.881165 322.182437)scale(0.1 -0.1)">
       <defs>
        <path d="M 31.78125 66.40625 
Q 24.171875 66.40625 20.328125 58.90625 
Q 16.5 51.421875 16.5 36.375 
Q 16.5 21.390625 20.328125 13.890625 
Q 24.171875 6.390625 31.78125 6.390625 
Q 39.453125 6.390625 43.28125 13.890625 
Q 47.125 21.390625 47.125 36.375 
Q 47.125 51.421875 43.28125 58.90625 
Q 39.453125 66.40625 31.78125 66.40625 
z
M 31.78125 74.21875 
Q 44.046875 74.21875 50.515625 64.515625 
Q 56.984375 54.828125 56.984375 36.375 
Q 56.984375 17.96875 50.515625 8.265625 
Q 44.046875 -1.421875 31.78125 -1.421875 
Q 19.53125 -1.421875 13.0625 8.265625 
Q 6.59375 17.96875 6.59375 36.375 
Q 6.59375 54.828125 13.0625 64.515625 
Q 19.53125 74.21875 31.78125 74.21875 
z
" id="DejaVuSans-48"/>
        <path d="M 10.6875 12.40625 
L 21 12.40625 
L 21 0 
L 10.6875 0 
z
" id="DejaVuSans-46"/>
       </defs>
       <use xlink:href="#DejaVuSans-48"/>
       <use x="63.623047" xlink:href="#DejaVuSans-46"/>
       <use x="95.410156" xlink:href="#DejaVuSans-48"/>
      </g>
     </g>
    </g>
    <g id="xtick_2">
     <g id="line2d_3">
      <path clip-path="url(#p704d74a722)" d="M 138.763636 307.584 
L 138.763636 41.472 
" style="fill:none;stroke:#b0b0b0;stroke-linecap:square;stroke-width:0.8;"/>
     </g>
     <g id="line2d_4">
      <g>
       <use style="stroke:#000000;stroke-width:0.8;" x="138.763636" xlink:href="#mb4df0da719" y="307.584"/>
      </g>
     </g>
     <g id="text_2">
      <!-- 0.2 -->
      <g transform="translate(130.812074 322.182437)scale(0.1 -0.1)">
       <defs>
        <path d="M 19.1875 8.296875 
L 53.609375 8.296875 
L 53.609375 0 
L 7.328125 0 
L 7.328125 8.296875 
Q 12.9375 14.109375 22.625 23.890625 
Q 32.328125 33.6875 34.8125 36.53125 
Q 39.546875 41.84375 41.421875 45.53125 
Q 43.3125 49.21875 43.3125 52.78125 
Q 43.3125 58.59375 39.234375 62.25 
Q 35.15625 65.921875 28.609375 65.921875 
Q 23.96875 65.921875 18.8125 64.3125 
Q 13.671875 62.703125 7.8125 59.421875 
L 7.8125 69.390625 
Q 13.765625 71.78125 18.9375 73 
Q 24.125 74.21875 28.421875 74.21875 
Q 39.75 74.21875 46.484375 68.546875 
Q 53.21875 62.890625 53.21875 53.421875 
Q 53.21875 48.921875 51.53125 44.890625 
Q 49.859375 40.875 45.40625 35.40625 
Q 44.1875 33.984375 37.640625 27.21875 
Q 31.109375 20.453125 19.1875 8.296875 
z
" id="DejaVuSans-50"/>
       </defs>
       <use xlink:href="#DejaVuSans-48"/>
       <use x="63.623047" xlink:href="#DejaVuSans-46"/>
       <use x="95.410156" xlink:href="#DejaVuSans-50"/>
      </g>
     </g>
    </g>
    <g id="xtick_3">
     <g id="line2d_5">
      <path clip-path="url(#p704d74a722)" d="M 203.694545 307.584 
L 203.694545 41.472 
" style="fill:none;stroke:#b0b0b0;stroke-linecap:square;stroke-width:0.8;"/>
     </g>
     <g id="line2d_6">
      <g>
       <use style="stroke:#000000;stroke-width:0.8;" x="203.694545" xlink:href="#mb4df0da719" y="307.584"/>
      </g>
     </g>
     <g id="text_3">
      <!-- 0.4 -->
      <g transform="translate(195.742983 322.182437)scale(0.1 -0.1)">
       <defs>
        <path d="M 37.796875 64.3125 
L 12.890625 25.390625 
L 37.796875 25.390625 
z
M 35.203125 72.90625 
L 47.609375 72.90625 
L 47.609375 25.390625 
L 58.015625 25.390625 
L 58.015625 17.1875 
L 47.609375 17.1875 
L 47.609375 0 
L 37.796875 0 
L 37.796875 17.1875 
L 4.890625 17.1875 
L 4.890625 26.703125 
z
" id="DejaVuSans-52"/>
       </defs>
       <use xlink:href="#DejaVuSans-48"/>
       <use x="63.623047" xlink:href="#DejaVuSans-46"/>
       <use x="95.410156" xlink:href="#DejaVuSans-52"/>
      </g>
     </g>
    </g>
    <g id="xtick_4">
     <g id="line2d_7">
      <path clip-path="url(#p704d74a722)" d="M 268.625455 307.584 
L 268.625455 41.472 
" style="fill:none;stroke:#b0b0b0;stroke-linecap:square;stroke-width:0.8;"/>
     </g>
     <g id="line2d_8">
      <g>
       <use style="stroke:#000000;stroke-width:0.8;" x="268.625455" xlink:href="#mb4df0da719" y="307.584"/>
      </g>
     </g>
     <g id="text_4">
      <!-- 0.6 -->
      <g transform="translate(260.673892 322.182437)scale(0.1 -0.1)">
       <defs>
        <path d="M 33.015625 40.375 
Q 26.375 40.375 22.484375 35.828125 
Q 18.609375 31.296875 18.609375 23.390625 
Q 18.609375 15.53125 22.484375 10.953125 
Q 26.375 6.390625 33.015625 6.390625 
Q 39.65625 6.390625 43.53125 10.953125 
Q 47.40625 15.53125 47.40625 23.390625 
Q 47.40625 31.296875 43.53125 35.828125 
Q 39.65625 40.375 33.015625 40.375 
z
M 52.59375 71.296875 
L 52.59375 62.3125 
Q 48.875 64.0625 45.09375 64.984375 
Q 41.3125 65.921875 37.59375 65.921875 
Q 27.828125 65.921875 22.671875 59.328125 
Q 17.53125 52.734375 16.796875 39.40625 
Q 19.671875 43.65625 24.015625 45.921875 
Q 28.375 48.1875 33.59375 48.1875 
Q 44.578125 48.1875 50.953125 41.515625 
Q 57.328125 34.859375 57.328125 23.390625 
Q 57.328125 12.15625 50.6875 5.359375 
Q 44.046875 -1.421875 33.015625 -1.421875 
Q 20.359375 -1.421875 13.671875 8.265625 
Q 6.984375 17.96875 6.984375 36.375 
Q 6.984375 53.65625 15.1875 63.9375 
Q 23.390625 74.21875 37.203125 74.21875 
Q 40.921875 74.21875 44.703125 73.484375 
Q 48.484375 72.75 52.59375 71.296875 
z
" id="DejaVuSans-54"/>
       </defs>
       <use xlink:href="#DejaVuSans-48"/>
       <use x="63.623047" xlink:href="#DejaVuSans-46"/>
       <use x="95.410156" xlink:href="#DejaVuSans-54"/>
      </g>
     </g>
    </g>
    <g id="xtick_5">
     <g id="line2d_9">
      <path clip-path="url(#p704d74a722)" d="M 333.556364 307.584 
L 333.556364 41.472 
" style="fill:none;stroke:#b0b0b0;stroke-linecap:square;stroke-width:0.8;"/>
     </g>
     <g id="line2d_10">
      <g>
       <use style="stroke:#000000;stroke-width:0.8;" x="333.556364" xlink:href="#mb4df0da719" y="307.584"/>
      </g>
     </g>
     <g id="text_5">
      <!-- 0.8 -->
      <g transform="translate(325.604801 322.182437)scale(0.1 -0.1)">
       <defs>
        <path d="M 31.78125 34.625 
Q 24.75 34.625 20.71875 30.859375 
Q 16.703125 27.09375 16.703125 20.515625 
Q 16.703125 13.921875 20.71875 10.15625 
Q 24.75 6.390625 31.78125 6.390625 
Q 38.8125 6.390625 42.859375 10.171875 
Q 46.921875 13.96875 46.921875 20.515625 
Q 46.921875 27.09375 42.890625 30.859375 
Q 38.875 34.625 31.78125 34.625 
z
M 21.921875 38.8125 
Q 15.578125 40.375 12.03125 44.71875 
Q 8.5 49.078125 8.5 55.328125 
Q 8.5 64.0625 14.71875 69.140625 
Q 20.953125 74.21875 31.78125 74.21875 
Q 42.671875 74.21875 48.875 69.140625 
Q 55.078125 64.0625 55.078125 55.328125 
Q 55.078125 49.078125 51.53125 44.71875 
Q 48 40.375 41.703125 38.8125 
Q 48.828125 37.15625 52.796875 32.3125 
Q 56.78125 27.484375 56.78125 20.515625 
Q 56.78125 9.90625 50.3125 4.234375 
Q 43.84375 -1.421875 31.78125 -1.421875 
Q 19.734375 -1.421875 13.25 4.234375 
Q 6.78125 9.90625 6.78125 20.515625 
Q 6.78125 27.484375 10.78125 32.3125 
Q 14.796875 37.15625 21.921875 38.8125 
z
M 18.3125 54.390625 
Q 18.3125 48.734375 21.84375 45.5625 
Q 25.390625 42.390625 31.78125 42.390625 
Q 38.140625 42.390625 41.71875 45.5625 
Q 45.3125 48.734375 45.3125 54.390625 
Q 45.3125 60.0625 41.71875 63.234375 
Q 38.140625 66.40625 31.78125 66.40625 
Q 25.390625 66.40625 21.84375 63.234375 
Q 18.3125 60.0625 18.3125 54.390625 
z
" id="DejaVuSans-56"/>
       </defs>
       <use xlink:href="#DejaVuSans-48"/>
       <use x="63.623047" xlink:href="#DejaVuSans-46"/>
       <use x="95.410156" xlink:href="#DejaVuSans-56"/>
      </g>
     </g>
    </g>
    <g id="xtick_6">
     <g id="line2d_11">
      <path clip-path="url(#p704d74a722)" d="M 398.487273 307.584 
L 398.487273 41.472 
" style="fill:none;stroke:#b0b0b0;stroke-linecap:square;stroke-width:0.8;"/>
     </g>
     <g id="line2d_12">
      <g>
       <use style="stroke:#000000;stroke-width:0.8;" x="398.487273" xlink:href="#mb4df0da719" y="307.584"/>
      </g>
     </g>
     <g id="text_6">
      <!-- 1.0 -->
      <g transform="translate(390.53571 322.182437)scale(0.1 -0.1)">
       <defs>
        <path d="M 12.40625 8.296875 
L 28.515625 8.296875 
L 28.515625 63.921875 
L 10.984375 60.40625 
L 10.984375 69.390625 
L 28.421875 72.90625 
L 38.28125 72.90625 
L 38.28125 8.296875 
L 54.390625 8.296875 
L 54.390625 0 
L 12.40625 0 
z
" id="DejaVuSans-49"/>
       </defs>
       <use xlink:href="#DejaVuSans-49"/>
       <use x="63.623047" xlink:href="#DejaVuSans-46"/>
       <use x="95.410156" xlink:href="#DejaVuSans-48"/>
      </g>
     </g>
    </g>
   </g>
   <g id="matplotlib.axis_2">
    <g id="ytick_1">
     <g id="line2d_13">
      <path clip-path="url(#p704d74a722)" d="M 57.6 306.916484 
L 414.72 306.916484 
" style="fill:none;stroke:#b0b0b0;stroke-linecap:square;stroke-width:0.8;"/>
     </g>
     <g id="line2d_14">
      <defs>
       <path d="M 0 0 
L -3.5 0 
" id="mbffaa73bb4" style="stroke:#000000;stroke-width:0.8;"/>
      </defs>
      <g>
       <use style="stroke:#000000;stroke-width:0.8;" x="57.6" xlink:href="#mbffaa73bb4" y="306.916484"/>
      </g>
     </g>
     <g id="text_7">
      <!-- −15 -->
      <g transform="translate(29.495313 310.715702)scale(0.1 -0.1)">
       <defs>
        <path d="M 10.59375 35.5 
L 73.1875 35.5 
L 73.1875 27.203125 
L 10.59375 27.203125 
z
" id="DejaVuSans-8722"/>
        <path d="M 10.796875 72.90625 
L 49.515625 72.90625 
L 49.515625 64.59375 
L 19.828125 64.59375 
L 19.828125 46.734375 
Q 21.96875 47.46875 24.109375 47.828125 
Q 26.265625 48.1875 28.421875 48.1875 
Q 40.625 48.1875 47.75 41.5 
Q 54.890625 34.8125 54.890625 23.390625 
Q 54.890625 11.625 47.5625 5.09375 
Q 40.234375 -1.421875 26.90625 -1.421875 
Q 22.3125 -1.421875 17.546875 -0.640625 
Q 12.796875 0.140625 7.71875 1.703125 
L 7.71875 11.625 
Q 12.109375 9.234375 16.796875 8.0625 
Q 21.484375 6.890625 26.703125 6.890625 
Q 35.15625 6.890625 40.078125 11.328125 
Q 45.015625 15.765625 45.015625 23.390625 
Q 45.015625 31 40.078125 35.4375 
Q 35.15625 39.890625 26.703125 39.890625 
Q 22.75 39.890625 18.8125 39.015625 
Q 14.890625 38.140625 10.796875 36.28125 
z
" id="DejaVuSans-53"/>
       </defs>
       <use xlink:href="#DejaVuSans-8722"/>
       <use x="83.789062" xlink:href="#DejaVuSans-49"/>
       <use x="147.412109" xlink:href="#DejaVuSans-53"/>
      </g>
     </g>
    </g>
    <g id="ytick_2">
     <g id="line2d_15">
      <path clip-path="url(#p704d74a722)" d="M 57.6 274.909259 
L 414.72 274.909259 
" style="fill:none;stroke:#b0b0b0;stroke-linecap:square;stroke-width:0.8;"/>
     </g>
     <g id="line2d_16">
      <g>
       <use style="stroke:#000000;stroke-width:0.8;" x="57.6" xlink:href="#mbffaa73bb4" y="274.909259"/>
      </g>
     </g>
     <g id="text_8">
      <!-- −10 -->
      <g transform="translate(29.495313 278.708478)scale(0.1 -0.1)">
       <use xlink:href="#DejaVuSans-8722"/>
       <use x="83.789062" xlink:href="#DejaVuSans-49"/>
       <use x="147.412109" xlink:href="#DejaVuSans-48"/>
      </g>
     </g>
    </g>
    <g id="ytick_3">
     <g id="line2d_17">
      <path clip-path="url(#p704d74a722)" d="M 57.6 242.902035 
L 414.72 242.902035 
" style="fill:none;stroke:#b0b0b0;stroke-linecap:square;stroke-width:0.8;"/>
     </g>
     <g id="line2d_18">
      <g>
       <use style="stroke:#000000;stroke-width:0.8;" x="57.6" xlink:href="#mbffaa73bb4" y="242.902035"/>
      </g>
     </g>
     <g id="text_9">
      <!-- −5 -->
      <g transform="translate(35.857813 246.701254)scale(0.1 -0.1)">
       <use xlink:href="#DejaVuSans-8722"/>
       <use x="83.789062" xlink:href="#DejaVuSans-53"/>
      </g>
     </g>
    </g>
    <g id="ytick_4">
     <g id="line2d_19">
      <path clip-path="url(#p704d74a722)" d="M 57.6 210.894811 
L 414.72 210.894811 
" style="fill:none;stroke:#b0b0b0;stroke-linecap:square;stroke-width:0.8;"/>
     </g>
     <g id="line2d_20">
      <g>
       <use style="stroke:#000000;stroke-width:0.8;" x="57.6" xlink:href="#mbffaa73bb4" y="210.894811"/>
      </g>
     </g>
     <g id="text_10">
      <!-- 0 -->
      <g transform="translate(44.2375 214.694029)scale(0.1 -0.1)">
       <use xlink:href="#DejaVuSans-48"/>
      </g>
     </g>
    </g>
    <g id="ytick_5">
     <g id="line2d_21">
      <path clip-path="url(#p704d74a722)" d="M 57.6 178.887586 
L 414.72 178.887586 
" style="fill:none;stroke:#b0b0b0;stroke-linecap:square;stroke-width:0.8;"/>
     </g>
     <g id="line2d_22">
      <g>
       <use style="stroke:#000000;stroke-width:0.8;" x="57.6" xlink:href="#mbffaa73bb4" y="178.887586"/>
      </g>
     </g>
     <g id="text_11">
      <!-- 5 -->
      <g transform="translate(44.2375 182.686805)scale(0.1 -0.1)">
       <use xlink:href="#DejaVuSans-53"/>
      </g>
     </g>
    </g>
    <g id="ytick_6">
     <g id="line2d_23">
      <path clip-path="url(#p704d74a722)" d="M 57.6 146.880362 
L 414.72 146.880362 
" style="fill:none;stroke:#b0b0b0;stroke-linecap:square;stroke-width:0.8;"/>
     </g>
     <g id="line2d_24">
      <g>
       <use style="stroke:#000000;stroke-width:0.8;" x="57.6" xlink:href="#mbffaa73bb4" y="146.880362"/>
      </g>
     </g>
     <g id="text_12">
      <!-- 10 -->
      <g transform="translate(37.875 150.679581)scale(0.1 -0.1)">
       <use xlink:href="#DejaVuSans-49"/>
       <use x="63.623047" xlink:href="#DejaVuSans-48"/>
      </g>
     </g>
    </g>
    <g id="ytick_7">
     <g id="line2d_25">
      <path clip-path="url(#p704d74a722)" d="M 57.6 114.873137 
L 414.72 114.873137 
" style="fill:none;stroke:#b0b0b0;stroke-linecap:square;stroke-width:0.8;"/>
     </g>
     <g id="line2d_26">
      <g>
       <use style="stroke:#000000;stroke-width:0.8;" x="57.6" xlink:href="#mbffaa73bb4" y="114.873137"/>
      </g>
     </g>
     <g id="text_13">
      <!-- 15 -->
      <g transform="translate(37.875 118.672356)scale(0.1 -0.1)">
       <use xlink:href="#DejaVuSans-49"/>
       <use x="63.623047" xlink:href="#DejaVuSans-53"/>
      </g>
     </g>
    </g>
    <g id="ytick_8">
     <g id="line2d_27">
      <path clip-path="url(#p704d74a722)" d="M 57.6 82.865913 
L 414.72 82.865913 
" style="fill:none;stroke:#b0b0b0;stroke-linecap:square;stroke-width:0.8;"/>
     </g>
     <g id="line2d_28">
      <g>
       <use style="stroke:#000000;stroke-width:0.8;" x="57.6" xlink:href="#mbffaa73bb4" y="82.865913"/>
      </g>
     </g>
     <g id="text_14">
      <!-- 20 -->
      <g transform="translate(37.875 86.665132)scale(0.1 -0.1)">
       <use xlink:href="#DejaVuSans-50"/>
       <use x="63.623047" xlink:href="#DejaVuSans-48"/>
      </g>
     </g>
    </g>
    <g id="ytick_9">
     <g id="line2d_29">
      <path clip-path="url(#p704d74a722)" d="M 57.6 50.858689 
L 414.72 50.858689 
" style="fill:none;stroke:#b0b0b0;stroke-linecap:square;stroke-width:0.8;"/>
     </g>
     <g id="line2d_30">
      <g>
       <use style="stroke:#000000;stroke-width:0.8;" x="57.6" xlink:href="#mbffaa73bb4" y="50.858689"/>
      </g>
     </g>
     <g id="text_15">
      <!-- 25 -->
      <g transform="translate(37.875 54.657907)scale(0.1 -0.1)">
       <use xlink:href="#DejaVuSans-50"/>
       <use x="63.623047" xlink:href="#DejaVuSans-53"/>
      </g>
     </g>
    </g>
   </g>
   <g id="line2d_31">
    <path clip-path="url(#p704d74a722)" d="M 73.832727 263.508624 
L 77.112066 264.588982 
L 80.391405 265.539677 
L 83.670744 266.355974 
L 86.950083 267.034714 
L 90.229421 267.574377 
L 93.50876 267.975118 
L 96.788099 268.238767 
L 100.067438 268.368789 
L 103.346777 268.370213 
L 106.626116 268.249522 
L 109.905455 268.014509 
L 113.184793 267.674103 
L 116.464132 267.238165 
L 119.743471 266.717262 
L 123.02281 266.122424 
L 126.302149 265.464885 
L 129.581488 264.755827 
L 132.860826 264.006117 
L 136.140165 263.226062 
L 139.419504 262.425175 
L 142.698843 261.611972 
L 145.978182 260.79379 
L 149.257521 259.976652 
L 152.53686 259.165172 
L 155.816198 258.362498 
L 159.095537 257.570315 
L 162.374876 256.788889 
L 165.654215 256.017166 
L 168.933554 255.252917 
L 172.212893 254.492925 
L 175.492231 253.733213 
L 178.77157 252.969305 
L 182.050909 252.196506 
L 185.330248 251.410211 
L 188.609587 250.6062 
L 191.888926 249.780947 
L 195.168264 248.931903 
L 198.447603 248.057755 
L 201.726942 247.158649 
L 205.006281 246.236372 
L 208.28562 245.29447 
L 211.564959 244.338315 
L 214.844298 243.375102 
L 218.123636 242.413771 
L 221.402975 241.46487 
L 224.682314 240.540335 
L 227.961653 239.653217 
L 231.240992 238.817335 
L 234.520331 238.046883 
L 237.799669 237.355997 
L 241.079008 236.75828 
L 244.358347 236.26632 
L 247.637686 235.891194 
L 250.917025 235.641987 
L 254.196364 235.525339 
L 257.475702 235.545027 
L 260.755041 235.701605 
L 264.03438 235.992119 
L 267.313719 236.409886 
L 270.593058 236.944384 
L 273.872397 237.581219 
L 277.151736 238.302212 
L 280.431074 239.085578 
L 283.710413 239.906212 
L 286.989752 240.736079 
L 290.269091 241.54469 
L 293.54843 242.299667 
L 296.827769 242.967372 
L 300.107107 243.513597 
L 303.386446 243.904293 
L 306.665785 244.106323 
L 309.945124 244.088209 
L 313.224463 243.82088 
L 316.503802 243.278366 
L 319.78314 242.438455 
L 323.062479 241.283271 
L 326.341818 239.799771 
L 329.621157 237.980139 
L 332.900496 235.822079 
L 336.179835 233.328985 
L 339.459174 230.509991 
L 342.738512 227.379902 
L 346.017851 223.958997 
L 349.29719 220.272724 
L 352.576529 216.351278 
L 355.855868 212.229089 
L 359.135207 207.94422 
L 362.414545 203.53769 
L 365.693884 199.052754 
L 368.973223 194.534133 
L 372.252562 190.027234 
L 375.531901 185.577364 
L 378.81124 181.228962 
L 382.090579 177.02486 
L 385.369917 173.005598 
L 388.649256 169.208797 
L 391.928595 165.668605 
L 395.207934 162.415227 
L 398.487273 159.474546 
" style="fill:none;stroke:#0000ff;stroke-linecap:square;stroke-width:1.5;"/>
   </g>
   <g id="line2d_32">
    <path clip-path="url(#p704d74a722)" d="M 73.832727 251.264199 
L 77.112066 253.247342 
L 80.391405 254.704945 
L 83.670744 255.751279 
L 86.950083 256.482832 
L 90.229421 256.977387 
L 93.50876 257.294388 
L 96.788099 257.476393 
L 100.067438 257.551364 
L 103.346777 257.5355 
L 106.626116 257.436327 
L 109.905455 257.255751 
L 113.184793 256.992841 
L 116.464132 256.646157 
L 119.743471 256.215506 
L 123.02281 255.703064 
L 126.302149 255.113903 
L 129.581488 254.455967 
L 132.860826 253.73962 
L 136.140165 252.97689 
L 139.419504 252.180557 
L 142.698843 251.363207 
L 145.978182 250.536362 
L 149.257521 249.709787 
L 152.53686 248.890993 
L 155.816198 248.084986 
L 159.095537 247.294242 
L 162.374876 246.518871 
L 165.654215 245.756934 
L 168.933554 245.004868 
L 172.212893 244.25795 
L 175.492231 243.510779 
L 178.77157 242.757726 
L 182.050909 241.993338 
L 185.330248 241.212677 
L 188.609587 240.411602 
L 191.888926 239.586996 
L 195.168264 238.73694 
L 198.447603 237.860849 
L 201.726942 236.959587 
L 205.006281 236.035544 
L 208.28562 235.092695 
L 211.564959 234.136632 
L 214.844298 233.174558 
L 218.123636 232.215241 
L 221.402975 231.268914 
L 224.682314 230.347124 
L 227.961653 229.462512 
L 231.240992 228.628531 
L 234.520331 227.859103 
L 237.799669 227.168217 
L 241.079008 226.569476 
L 244.358347 226.075615 
L 247.637686 225.697983 
L 250.917025 225.446032 
L 254.196364 225.326809 
L 257.475702 225.344483 
L 260.755041 225.499922 
L 264.03438 225.790344 
L 267.313719 226.209059 
L 270.593058 226.745323 
L 273.872397 227.384314 
L 277.151736 228.107249 
L 280.431074 228.891627 
L 283.710413 229.711614 
L 286.989752 230.538544 
L 290.269091 231.341522 
L 293.54843 232.088089 
L 296.827769 232.744937 
L 300.107107 233.278621 
L 303.386446 233.656244 
L 306.665785 233.846091 
L 309.945124 233.818191 
L 313.224463 233.544807 
L 316.503802 233.000853 
L 319.78314 232.164275 
L 323.062479 231.016406 
L 326.341818 229.542343 
L 329.621157 227.731373 
L 332.900496 225.577461 
L 336.179835 223.079813 
L 339.459174 220.243494 
L 342.738512 217.080043 
L 346.017851 213.608015 
L 349.29719 209.853363 
L 352.576529 205.849521 
L 355.855868 201.637082 
L 359.135207 197.262958 
L 362.414545 192.778932 
L 365.693884 188.239559 
L 368.973223 183.69942 
L 372.252562 179.209809 
L 375.531901 174.81499 
L 378.81124 170.548231 
L 382.090579 166.42787 
L 385.369917 162.453716 
L 388.649256 158.604102 
L 391.928595 154.833873 
L 395.207934 151.073588 
L 398.487273 147.230121 
" style="fill:none;stroke:#000000;stroke-linecap:square;stroke-width:0.5;"/>
   </g>
   <g id="line2d_33">
    <path clip-path="url(#p704d74a722)" d="M 73.832727 275.75305 
L 77.112066 275.930621 
L 80.391405 276.374409 
L 83.670744 276.960669 
L 86.950083 277.586596 
L 90.229421 278.171367 
L 93.50876 278.655849 
L 96.788099 279.001141 
L 100.067438 279.186214 
L 103.346777 279.204926 
L 106.626116 279.062717 
L 109.905455 278.773267 
L 113.184793 278.355365 
L 116.464132 277.830173 
L 119.743471 277.219019 
L 123.02281 276.541784 
L 126.302149 275.815868 
L 129.581488 275.055687 
L 132.860826 274.272614 
L 136.140165 273.475233 
L 139.419504 272.669793 
L 142.698843 271.860737 
L 145.978182 271.051217 
L 149.257521 270.243518 
L 152.53686 269.439352 
L 155.816198 268.640011 
L 159.095537 267.846388 
L 162.374876 267.058906 
L 165.654215 266.277398 
L 168.933554 265.500967 
L 172.212893 264.727901 
L 175.492231 263.955648 
L 178.77157 263.180883 
L 182.050909 262.399675 
L 185.330248 261.607745 
L 188.609587 260.800798 
L 191.888926 259.974898 
L 195.168264 259.126866 
L 198.447603 258.25466 
L 201.726942 257.35771 
L 205.006281 256.437199 
L 208.28562 255.496244 
L 211.564959 254.539998 
L 214.844298 253.575645 
L 218.123636 252.612301 
L 221.402975 251.660825 
L 224.682314 250.733547 
L 227.961653 249.843923 
L 231.240992 249.006139 
L 234.520331 248.234663 
L 237.799669 247.543777 
L 241.079008 246.947084 
L 244.358347 246.457026 
L 247.637686 246.084405 
L 250.917025 245.837943 
L 254.196364 245.723869 
L 257.475702 245.74557 
L 260.755041 245.903288 
L 264.03438 246.193893 
L 267.313719 246.610714 
L 270.593058 247.143445 
L 273.872397 247.778124 
L 277.151736 248.497176 
L 280.431074 249.279528 
L 283.710413 250.100809 
L 286.989752 250.933613 
L 290.269091 251.747859 
L 293.54843 252.511246 
L 296.827769 253.189807 
L 300.107107 253.748573 
L 303.386446 254.152343 
L 306.665785 254.366554 
L 309.945124 254.358227 
L 313.224463 254.096952 
L 316.503802 253.555878 
L 319.78314 252.712635 
L 323.062479 251.550136 
L 326.341818 250.057198 
L 329.621157 248.228904 
L 332.900496 246.066697 
L 336.179835 243.578157 
L 339.459174 240.776488 
L 342.738512 237.679762 
L 346.017851 234.30998 
L 349.29719 230.692084 
L 352.576529 226.853034 
L 355.855868 222.821097 
L 359.135207 218.625482 
L 362.414545 214.296449 
L 365.693884 209.865949 
L 368.973223 205.368846 
L 372.252562 200.844659 
L 375.531901 196.339738 
L 378.81124 191.909692 
L 382.090579 187.62185 
L 385.369917 183.55748 
L 388.649256 179.813492 
L 391.928595 176.503337 
L 395.207934 173.756866 
L 398.487273 171.718972 
" style="fill:none;stroke:#000000;stroke-linecap:square;stroke-width:0.5;"/>
   </g>
   <g id="line2d_34">
    <path clip-path="url(#p704d74a722)" d="M 73.832727 190.545143 
L 77.112066 194.137854 
L 80.391405 197.459536 
L 83.670744 200.500234 
L 86.950083 203.2533 
L 90.229421 205.715538 
L 93.50876 207.887268 
L 96.788099 209.772325 
L 100.067438 211.377985 
L 103.346777 212.714808 
L 106.626116 213.79641 
L 109.905455 214.639157 
L 113.184793 215.261804 
L 116.464132 215.685062 
L 119.743471 215.931129 
L 123.02281 216.02317 
L 126.302149 215.984785 
L 129.581488 215.83946 
L 132.860826 215.610022 
L 136.140165 215.31812 
L 139.419504 214.983736 
L 142.698843 214.624754 
L 145.978182 214.256585 
L 149.257521 213.89188 
L 152.53686 213.54032 
L 155.816198 213.208518 
L 159.095537 212.900005 
L 162.374876 212.615335 
L 165.654215 212.352288 
L 168.933554 212.106172 
L 172.212893 211.870223 
L 175.492231 211.636077 
L 178.77157 211.394322 
L 182.050909 211.135092 
L 185.330248 210.848699 
L 188.609587 210.526274 
L 191.888926 210.160401 
L 195.168264 209.745717 
L 198.447603 209.279456 
L 201.726942 208.761921 
L 205.006281 208.196857 
L 208.28562 207.59171 
L 211.564959 206.95776 
L 214.844298 206.310115 
L 218.123636 205.667555 
L 221.402975 205.052234 
L 224.682314 204.489225 
L 227.961653 204.00594 
L 231.240992 203.631407 
L 234.520331 203.395445 
L 237.799669 203.327744 
L 241.079008 203.456882 
L 244.358347 203.809298 
L 247.637686 204.408259 
L 250.917025 205.272848 
L 254.196364 206.417007 
L 257.475702 207.848665 
L 260.755041 209.568984 
L 264.03438 211.571743 
L 267.313719 213.842901 
L 270.593058 216.360338 
L 273.872397 219.093809 
L 277.151736 222.005108 
L 280.431074 225.048457 
L 283.710413 228.171103 
L 286.989752 231.314136 
L 290.269091 234.413491 
L 293.54843 237.401129 
L 296.827769 240.206368 
L 300.107107 242.757328 
L 303.386446 244.982465 
L 306.665785 246.812145 
L 309.945124 248.180229 
L 313.224463 249.025625 
L 316.503802 249.293763 
L 319.78314 248.937967 
L 323.062479 247.920672 
L 326.341818 246.214464 
L 329.621157 243.802918 
L 332.900496 240.681201 
L 336.179835 236.856436 
L 339.459174 232.347811 
L 342.738512 227.18642 
L 346.017851 221.414866 
L 349.29719 215.086609 
L 352.576529 208.265087 
L 355.855868 201.022631 
L 359.135207 193.439205 
L 362.414545 185.600988 
L 365.693884 177.598853 
L 368.973223 169.526756 
L 372.252562 161.480094 
L 375.531901 153.554052 
L 378.81124 145.84199 
L 382.090579 138.433898 
L 385.369917 131.414945 
L 388.649256 124.864167 
L 391.928595 118.853305 
L 395.207934 113.445814 
L 398.487273 108.69607 
" style="fill:none;stroke:#ffa500;stroke-linecap:square;stroke-width:1.5;"/>
   </g>
   <g id="line2d_35">
    <path clip-path="url(#p704d74a722)" d="M 73.832727 135.30945 
L 77.112066 142.911582 
L 80.391405 148.49361 
L 83.670744 152.571004 
L 86.950083 155.577069 
L 90.229421 157.858746 
L 93.50876 159.678146 
L 96.788099 161.218961 
L 100.067438 162.596659 
L 103.346777 163.871168 
L 106.626116 165.060761 
L 109.905455 166.155866 
L 113.184793 167.131766 
L 116.464132 167.959334 
L 119.743471 168.613307 
L 123.02281 169.077823 
L 126.302149 169.349319 
L 129.581488 169.437035 
L 132.860826 169.361615 
L 136.140165 169.152352 
L 139.419504 168.843687 
L 142.698843 168.471512 
L 145.978182 168.069756 
L 149.257521 167.667608 
L 152.53686 167.287588 
L 155.816198 166.944545 
L 159.095537 166.645531 
L 162.374876 166.390439 
L 165.654215 166.173175 
L 168.933554 165.983182 
L 172.212893 165.80708 
L 175.492231 165.630245 
L 178.77157 165.438204 
L 182.050909 165.21775 
L 185.330248 164.957764 
L 188.609587 164.649741 
L 191.888926 164.288086 
L 195.168264 163.870236 
L 198.447603 163.396663 
L 201.726942 162.870842 
L 205.006281 162.2992 
L 208.28562 161.691088 
L 211.564959 161.058769 
L 214.844298 160.4174 
L 218.123636 159.784999 
L 221.402975 159.182348 
L 224.682314 158.632799 
L 227.961653 158.161965 
L 231.240992 157.797263 
L 234.520331 157.567305 
L 237.799669 157.501137 
L 241.079008 157.627335 
L 244.358347 157.972982 
L 247.637686 158.562547 
L 250.917025 159.416724 
L 254.196364 160.551251 
L 257.475702 161.975776 
L 260.755041 163.69283 
L 264.03438 165.696955 
L 267.313719 167.974054 
L 270.593058 170.501025 
L 273.872397 173.245715 
L 277.151736 176.167234 
L 280.431074 179.216629 
L 283.710413 182.337908 
L 286.989752 185.469358 
L 290.269091 188.545091 
L 293.54843 191.496701 
L 296.827769 194.254936 
L 300.107107 196.751256 
L 303.386446 198.919173 
L 306.665785 200.695312 
L 309.945124 202.020148 
L 313.224463 202.838452 
L 316.503802 203.099526 
L 319.78314 202.757353 
L 323.062479 201.770843 
L 326.341818 200.104345 
L 329.621157 197.728593 
L 332.900496 194.622215 
L 336.179835 190.773813 
L 339.459174 186.184563 
L 342.738512 180.8711 
L 346.017851 174.86838 
L 349.29719 168.232045 
L 352.576529 161.039775 
L 355.855868 153.391063 
L 359.135207 145.404897 
L 362.414545 137.214917 
L 365.693884 128.96183 
L 368.973223 120.783062 
L 372.252562 112.799945 
L 375.531901 105.103009 
L 378.81124 97.736239 
L 382.090579 90.681432 
L 385.369917 83.8439 
L 388.649256 77.040886 
L 391.928595 69.993988 
L 395.207934 62.32671 
L 398.487273 53.568 
" style="fill:none;stroke:#000000;stroke-linecap:square;stroke-width:0.5;"/>
   </g>
   <g id="line2d_36">
    <path clip-path="url(#p704d74a722)" d="M 73.832727 245.780835 
L 77.112066 245.364127 
L 80.391405 246.425463 
L 83.670744 248.429463 
L 86.950083 250.929532 
L 90.229421 253.572331 
L 93.50876 256.096389 
L 96.788099 258.325688 
L 100.067438 260.159311 
L 103.346777 261.558449 
L 106.626116 262.532059 
L 109.905455 263.122448 
L 113.184793 263.391842 
L 116.464132 263.41079 
L 119.743471 263.248951 
L 123.02281 262.968517 
L 126.302149 262.620251 
L 129.581488 262.241884 
L 132.860826 261.858429 
L 136.140165 261.483887 
L 139.419504 261.123785 
L 142.698843 260.777996 
L 145.978182 260.443415 
L 149.257521 260.116151 
L 152.53686 259.793052 
L 155.816198 259.472491 
L 159.095537 259.154478 
L 162.374876 258.840231 
L 165.654215 258.531401 
L 168.933554 258.229162 
L 172.212893 257.933366 
L 175.492231 257.641909 
L 178.77157 257.35044 
L 182.050909 257.052433 
L 185.330248 256.739633 
L 188.609587 256.402807 
L 191.888926 256.032715 
L 195.168264 255.621197 
L 198.447603 255.162248 
L 201.726942 254.653001 
L 205.006281 254.094515 
L 208.28562 253.492332 
L 211.564959 252.856752 
L 214.844298 252.202831 
L 218.123636 251.550112 
L 221.402975 250.922119 
L 224.682314 250.345651 
L 227.961653 249.849915 
L 231.240992 249.465551 
L 234.520331 249.223585 
L 237.799669 249.154351 
L 241.079008 249.286429 
L 244.358347 249.645615 
L 247.637686 250.253971 
L 250.917025 251.128971 
L 254.196364 252.282762 
L 257.475702 253.721554 
L 260.755041 255.445137 
L 264.03438 257.446531 
L 267.313719 259.711748 
L 270.593058 262.219651 
L 273.872397 264.941902 
L 277.151736 267.842982 
L 280.431074 270.880284 
L 283.710413 274.004299 
L 286.989752 277.158914 
L 290.269091 280.281891 
L 293.54843 283.305557 
L 296.827769 286.157799 
L 300.107107 288.763401 
L 303.386446 291.045758 
L 306.665785 292.928979 
L 309.945124 294.34031 
L 313.224463 295.212797 
L 316.503802 295.488 
L 319.78314 295.118582 
L 323.062479 294.070501 
L 326.341818 292.324583 
L 329.621157 289.877242 
L 332.900496 286.740186 
L 336.179835 282.93906 
L 339.459174 278.511058 
L 342.738512 273.501739 
L 346.017851 267.961352 
L 349.29719 261.941174 
L 352.576529 255.4904 
L 355.855868 248.654199 
L 359.135207 241.473513 
L 362.414545 233.987059 
L 365.693884 226.235877 
L 368.973223 218.270451 
L 372.252562 210.160242 
L 375.531901 202.005095 
L 378.81124 193.947742 
L 382.090579 186.186364 
L 385.369917 178.98599 
L 388.649256 172.687448 
L 391.928595 167.712622 
L 395.207934 164.564918 
L 398.487273 163.82414 
" style="fill:none;stroke:#000000;stroke-linecap:square;stroke-width:0.5;"/>
   </g>
   <g id="line2d_37">
    <path clip-path="url(#p704d74a722)" d="M 73.832727 263.619639 
L 77.112066 264.569695 
L 80.391405 265.488101 
L 83.670744 266.344936 
L 86.950083 267.114285 
L 90.229421 267.774537 
L 93.50876 268.30856 
L 96.788099 268.703767 
L 100.067438 268.952066 
L 103.346777 269.049706 
L 106.626116 268.997031 
L 109.905455 268.798142 
L 113.184793 268.460493 
L 116.464132 267.994418 
L 119.743471 267.412626 
L 123.02281 266.729649 
L 126.302149 265.961286 
L 129.581488 265.124047 
L 132.860826 264.234601 
L 136.140165 263.309264 
L 139.419504 262.36352 
L 142.698843 261.411593 
L 145.978182 260.466089 
L 149.257521 259.537695 
L 152.53686 258.634962 
L 155.816198 257.764164 
L 159.095537 256.929237 
L 162.374876 256.131794 
L 165.654215 255.371225 
L 168.933554 254.644862 
L 172.212893 253.948214 
L 175.492231 253.275259 
L 178.77157 252.618781 
L 182.050909 251.970748 
L 185.330248 251.322716 
L 188.609587 250.666238 
L 191.888926 249.993283 
L 195.168264 249.296635 
L 198.447603 248.570272 
L 201.726942 247.809703 
L 205.006281 247.01226 
L 208.28562 246.177332 
L 211.564959 245.306535 
L 214.844298 244.403802 
L 218.123636 243.475408 
L 221.402975 242.529904 
L 224.682314 241.577977 
L 227.961653 240.632233 
L 231.240992 239.706896 
L 234.520331 238.81745 
L 237.799669 237.980211 
L 241.079008 237.211848 
L 244.358347 236.528871 
L 247.637686 235.947078 
L 250.917025 235.481004 
L 254.196364 235.143355 
L 257.475702 234.944466 
L 260.755041 234.891791 
L 264.03438 234.989431 
L 267.313719 235.23773 
L 270.593058 235.632937 
L 273.872397 236.16696 
L 277.151736 236.827212 
L 280.431074 237.596561 
L 283.710413 238.453396 
L 286.989752 239.371802 
L 290.269091 240.321858 
L 293.54843 241.270047 
L 296.827769 242.179779 
L 300.107107 243.012022 
L 303.386446 243.726027 
L 306.665785 244.280138 
L 309.945124 244.632677 
L 313.224463 244.742879 
L 316.503802 244.571866 
L 319.78314 244.083638 
L 323.062479 243.246061 
L 326.341818 242.031823 
L 329.621157 240.419354 
L 332.900496 238.393666 
L 336.179835 235.947106 
L 339.459174 233.08 
L 342.738512 229.80116 
L 346.017851 226.12825 
L 349.29719 222.087988 
L 352.576529 217.716172 
L 355.855868 213.057526 
L 359.135207 208.165354 
L 362.414545 203.101008 
L 365.693884 197.933163 
L 368.973223 192.736911 
L 372.252562 187.592683 
L 375.531901 182.585006 
L 378.81124 177.801122 
L 382.090579 173.329479 
L 385.369917 169.25813 
L 388.649256 165.67305 
L 391.928595 162.656421 
L 395.207934 160.284892 
L 398.487273 158.627871 
" style="fill:none;stroke:#0000ff;stroke-dasharray:5.55,2.4;stroke-dashoffset:0;stroke-width:1.5;"/>
   </g>
   <g id="line2d_38">
    <path clip-path="url(#p704d74a722)" d="M 73.832727 190.876148 
L 77.112066 194.069482 
L 80.391405 197.199515 
L 83.670744 200.206406 
L 86.950083 203.038325 
L 90.229421 205.652049 
L 93.50876 208.013317 
L 96.788099 210.096952 
L 100.067438 211.886771 
L 103.346777 213.375272 
L 106.626116 214.563143 
L 109.905455 215.458587 
L 113.184793 216.076509 
L 116.464132 216.437582 
L 119.743471 216.567219 
L 123.02281 216.494485 
L 126.302149 216.250982 
L 129.581488 215.869724 
L 132.860826 215.384054 
L 136.140165 214.826601 
L 139.419504 214.228333 
L 142.698843 213.617701 
L 145.978182 213.019914 
L 149.257521 212.456346 
L 152.53686 211.944102 
L 155.816198 211.495729 
L 159.095537 211.119095 
L 162.374876 210.81743 
L 165.654215 210.589513 
L 168.933554 210.430008 
L 172.212893 210.329933 
L 175.492231 210.277244 
L 178.77157 210.257509 
L 182.050909 210.254666 
L 185.330248 210.251823 
L 188.609587 210.232088 
L 191.888926 210.179399 
L 195.168264 210.079324 
L 198.447603 209.919819 
L 201.726942 209.691902 
L 205.006281 209.390237 
L 208.28562 209.013604 
L 211.564959 208.56523 
L 214.844298 208.052986 
L 218.123636 207.489419 
L 221.402975 206.891631 
L 224.682314 206.280999 
L 227.961653 205.682731 
L 231.240992 205.125278 
L 234.520331 204.639608 
L 237.799669 204.25835 
L 241.079008 204.014847 
L 244.358347 203.942113 
L 247.637686 204.07175 
L 250.917025 204.432823 
L 254.196364 205.050745 
L 257.475702 205.946189 
L 260.755041 207.13406 
L 264.03438 208.622562 
L 267.313719 210.41238 
L 270.593058 212.496016 
L 273.872397 214.857283 
L 277.151736 217.471007 
L 280.431074 220.302926 
L 283.710413 223.309817 
L 286.989752 226.43985 
L 290.269091 229.633184 
L 293.54843 232.822783 
L 296.827769 235.935469 
L 300.107107 238.893177 
L 303.386446 241.614407 
L 306.665785 244.01585 
L 309.945124 246.014149 
L 313.224463 247.527774 
L 316.503802 248.47897 
L 319.78314 248.795736 
L 323.062479 248.413802 
L 326.341818 247.278547 
L 329.621157 245.34683 
L 332.900496 242.588676 
L 336.179835 238.988778 
L 339.459174 234.547787 
L 342.738512 229.283327 
L 346.017851 223.230728 
L 349.29719 216.443425 
L 352.576529 208.993015 
L 355.855868 200.968943 
L 359.135207 192.477821 
L 362.414545 183.64235 
L 365.693884 174.599881 
L 368.973223 165.500599 
L 372.252562 156.505364 
L 375.531901 147.783232 
L 378.81124 139.508685 
L 382.090579 131.85862 
L 385.369917 125.009143 
L 388.649256 119.132205 
L 391.928595 114.392166 
L 395.207934 110.94233 
L 398.487273 108.92151 
" style="fill:none;stroke:#ffa500;stroke-dasharray:5.55,2.4;stroke-dashoffset:0;stroke-width:1.5;"/>
   </g>
   <g id="patch_3">
    <path d="M 57.6 307.584 
L 57.6 41.472 
" style="fill:none;stroke:#000000;stroke-linecap:square;stroke-linejoin:miter;stroke-width:0.8;"/>
   </g>
   <g id="patch_4">
    <path d="M 414.72 307.584 
L 414.72 41.472 
" style="fill:none;stroke:#000000;stroke-linecap:square;stroke-linejoin:miter;stroke-width:0.8;"/>
   </g>
   <g id="patch_5">
    <path d="M 57.6 307.584 
L 414.72 307.584 
" style="fill:none;stroke:#000000;stroke-linecap:square;stroke-linejoin:miter;stroke-width:0.8;"/>
   </g>
   <g id="patch_6">
    <path d="M 57.6 41.472 
L 414.72 41.472 
" style="fill:none;stroke:#000000;stroke-linecap:square;stroke-linejoin:miter;stroke-width:0.8;"/>
   </g>
   <g id="legend_1">
    <g id="patch_7">
     <path d="M 64.6 108.1845 
L 239.15625 108.1845 
Q 241.15625 108.1845 241.15625 106.1845 
L 241.15625 48.472 
Q 241.15625 46.472 239.15625 46.472 
L 64.6 46.472 
Q 62.6 46.472 62.6 48.472 
L 62.6 106.1845 
Q 62.6 108.1845 64.6 108.1845 
z
" style="fill:#ffffff;opacity:0.8;stroke:#cccccc;stroke-linejoin:miter;"/>
    </g>
    <g id="line2d_39">
     <path d="M 66.6 54.570438 
L 86.6 54.570438 
" style="fill:none;stroke:#0000ff;stroke-linecap:square;stroke-width:1.5;"/>
    </g>
    <g id="line2d_40"/>
    <g id="text_16">
     <!-- MF cheap GPR (regular GPR) -->
     <g transform="translate(94.6 58.070438)scale(0.1 -0.1)">
      <defs>
       <path d="M 9.8125 72.90625 
L 24.515625 72.90625 
L 43.109375 23.296875 
L 61.8125 72.90625 
L 76.515625 72.90625 
L 76.515625 0 
L 66.890625 0 
L 66.890625 64.015625 
L 48.09375 14.015625 
L 38.1875 14.015625 
L 19.390625 64.015625 
L 19.390625 0 
L 9.8125 0 
z
" id="DejaVuSans-77"/>
       <path d="M 9.8125 72.90625 
L 51.703125 72.90625 
L 51.703125 64.59375 
L 19.671875 64.59375 
L 19.671875 43.109375 
L 48.578125 43.109375 
L 48.578125 34.8125 
L 19.671875 34.8125 
L 19.671875 0 
L 9.8125 0 
z
" id="DejaVuSans-70"/>
       <path id="DejaVuSans-32"/>
       <path d="M 48.78125 52.59375 
L 48.78125 44.1875 
Q 44.96875 46.296875 41.140625 47.34375 
Q 37.3125 48.390625 33.40625 48.390625 
Q 24.65625 48.390625 19.8125 42.84375 
Q 14.984375 37.3125 14.984375 27.296875 
Q 14.984375 17.28125 19.8125 11.734375 
Q 24.65625 6.203125 33.40625 6.203125 
Q 37.3125 6.203125 41.140625 7.25 
Q 44.96875 8.296875 48.78125 10.40625 
L 48.78125 2.09375 
Q 45.015625 0.34375 40.984375 -0.53125 
Q 36.96875 -1.421875 32.421875 -1.421875 
Q 20.0625 -1.421875 12.78125 6.34375 
Q 5.515625 14.109375 5.515625 27.296875 
Q 5.515625 40.671875 12.859375 48.328125 
Q 20.21875 56 33.015625 56 
Q 37.15625 56 41.109375 55.140625 
Q 45.0625 54.296875 48.78125 52.59375 
z
" id="DejaVuSans-99"/>
       <path d="M 54.890625 33.015625 
L 54.890625 0 
L 45.90625 0 
L 45.90625 32.71875 
Q 45.90625 40.484375 42.875 44.328125 
Q 39.84375 48.1875 33.796875 48.1875 
Q 26.515625 48.1875 22.3125 43.546875 
Q 18.109375 38.921875 18.109375 30.90625 
L 18.109375 0 
L 9.078125 0 
L 9.078125 75.984375 
L 18.109375 75.984375 
L 18.109375 46.1875 
Q 21.34375 51.125 25.703125 53.5625 
Q 30.078125 56 35.796875 56 
Q 45.21875 56 50.046875 50.171875 
Q 54.890625 44.34375 54.890625 33.015625 
z
" id="DejaVuSans-104"/>
       <path d="M 56.203125 29.59375 
L 56.203125 25.203125 
L 14.890625 25.203125 
Q 15.484375 15.921875 20.484375 11.0625 
Q 25.484375 6.203125 34.421875 6.203125 
Q 39.59375 6.203125 44.453125 7.46875 
Q 49.3125 8.734375 54.109375 11.28125 
L 54.109375 2.78125 
Q 49.265625 0.734375 44.1875 -0.34375 
Q 39.109375 -1.421875 33.890625 -1.421875 
Q 20.796875 -1.421875 13.15625 6.1875 
Q 5.515625 13.8125 5.515625 26.8125 
Q 5.515625 40.234375 12.765625 48.109375 
Q 20.015625 56 32.328125 56 
Q 43.359375 56 49.78125 48.890625 
Q 56.203125 41.796875 56.203125 29.59375 
z
M 47.21875 32.234375 
Q 47.125 39.59375 43.09375 43.984375 
Q 39.0625 48.390625 32.421875 48.390625 
Q 24.90625 48.390625 20.390625 44.140625 
Q 15.875 39.890625 15.1875 32.171875 
z
" id="DejaVuSans-101"/>
       <path d="M 34.28125 27.484375 
Q 23.390625 27.484375 19.1875 25 
Q 14.984375 22.515625 14.984375 16.5 
Q 14.984375 11.71875 18.140625 8.90625 
Q 21.296875 6.109375 26.703125 6.109375 
Q 34.1875 6.109375 38.703125 11.40625 
Q 43.21875 16.703125 43.21875 25.484375 
L 43.21875 27.484375 
z
M 52.203125 31.203125 
L 52.203125 0 
L 43.21875 0 
L 43.21875 8.296875 
Q 40.140625 3.328125 35.546875 0.953125 
Q 30.953125 -1.421875 24.3125 -1.421875 
Q 15.921875 -1.421875 10.953125 3.296875 
Q 6 8.015625 6 15.921875 
Q 6 25.140625 12.171875 29.828125 
Q 18.359375 34.515625 30.609375 34.515625 
L 43.21875 34.515625 
L 43.21875 35.40625 
Q 43.21875 41.609375 39.140625 45 
Q 35.0625 48.390625 27.6875 48.390625 
Q 23 48.390625 18.546875 47.265625 
Q 14.109375 46.140625 10.015625 43.890625 
L 10.015625 52.203125 
Q 14.9375 54.109375 19.578125 55.046875 
Q 24.21875 56 28.609375 56 
Q 40.484375 56 46.34375 49.84375 
Q 52.203125 43.703125 52.203125 31.203125 
z
" id="DejaVuSans-97"/>
       <path d="M 18.109375 8.203125 
L 18.109375 -20.796875 
L 9.078125 -20.796875 
L 9.078125 54.6875 
L 18.109375 54.6875 
L 18.109375 46.390625 
Q 20.953125 51.265625 25.265625 53.625 
Q 29.59375 56 35.59375 56 
Q 45.5625 56 51.78125 48.09375 
Q 58.015625 40.1875 58.015625 27.296875 
Q 58.015625 14.40625 51.78125 6.484375 
Q 45.5625 -1.421875 35.59375 -1.421875 
Q 29.59375 -1.421875 25.265625 0.953125 
Q 20.953125 3.328125 18.109375 8.203125 
z
M 48.6875 27.296875 
Q 48.6875 37.203125 44.609375 42.84375 
Q 40.53125 48.484375 33.40625 48.484375 
Q 26.265625 48.484375 22.1875 42.84375 
Q 18.109375 37.203125 18.109375 27.296875 
Q 18.109375 17.390625 22.1875 11.75 
Q 26.265625 6.109375 33.40625 6.109375 
Q 40.53125 6.109375 44.609375 11.75 
Q 48.6875 17.390625 48.6875 27.296875 
z
" id="DejaVuSans-112"/>
       <path d="M 59.515625 10.40625 
L 59.515625 29.984375 
L 43.40625 29.984375 
L 43.40625 38.09375 
L 69.28125 38.09375 
L 69.28125 6.78125 
Q 63.578125 2.734375 56.6875 0.65625 
Q 49.8125 -1.421875 42 -1.421875 
Q 24.90625 -1.421875 15.25 8.5625 
Q 5.609375 18.5625 5.609375 36.375 
Q 5.609375 54.25 15.25 64.234375 
Q 24.90625 74.21875 42 74.21875 
Q 49.125 74.21875 55.546875 72.453125 
Q 61.96875 70.703125 67.390625 67.28125 
L 67.390625 56.78125 
Q 61.921875 61.421875 55.765625 63.765625 
Q 49.609375 66.109375 42.828125 66.109375 
Q 29.4375 66.109375 22.71875 58.640625 
Q 16.015625 51.171875 16.015625 36.375 
Q 16.015625 21.625 22.71875 14.15625 
Q 29.4375 6.6875 42.828125 6.6875 
Q 48.046875 6.6875 52.140625 7.59375 
Q 56.25 8.5 59.515625 10.40625 
z
" id="DejaVuSans-71"/>
       <path d="M 19.671875 64.796875 
L 19.671875 37.40625 
L 32.078125 37.40625 
Q 38.96875 37.40625 42.71875 40.96875 
Q 46.484375 44.53125 46.484375 51.125 
Q 46.484375 57.671875 42.71875 61.234375 
Q 38.96875 64.796875 32.078125 64.796875 
z
M 9.8125 72.90625 
L 32.078125 72.90625 
Q 44.34375 72.90625 50.609375 67.359375 
Q 56.890625 61.8125 56.890625 51.125 
Q 56.890625 40.328125 50.609375 34.8125 
Q 44.34375 29.296875 32.078125 29.296875 
L 19.671875 29.296875 
L 19.671875 0 
L 9.8125 0 
z
" id="DejaVuSans-80"/>
       <path d="M 44.390625 34.1875 
Q 47.5625 33.109375 50.5625 29.59375 
Q 53.5625 26.078125 56.59375 19.921875 
L 66.609375 0 
L 56 0 
L 46.6875 18.703125 
Q 43.0625 26.03125 39.671875 28.421875 
Q 36.28125 30.8125 30.421875 30.8125 
L 19.671875 30.8125 
L 19.671875 0 
L 9.8125 0 
L 9.8125 72.90625 
L 32.078125 72.90625 
Q 44.578125 72.90625 50.734375 67.671875 
Q 56.890625 62.453125 56.890625 51.90625 
Q 56.890625 45.015625 53.6875 40.46875 
Q 50.484375 35.9375 44.390625 34.1875 
z
M 19.671875 64.796875 
L 19.671875 38.921875 
L 32.078125 38.921875 
Q 39.203125 38.921875 42.84375 42.21875 
Q 46.484375 45.515625 46.484375 51.90625 
Q 46.484375 58.296875 42.84375 61.546875 
Q 39.203125 64.796875 32.078125 64.796875 
z
" id="DejaVuSans-82"/>
       <path d="M 31 75.875 
Q 24.46875 64.65625 21.28125 53.65625 
Q 18.109375 42.671875 18.109375 31.390625 
Q 18.109375 20.125 21.3125 9.0625 
Q 24.515625 -2 31 -13.1875 
L 23.1875 -13.1875 
Q 15.875 -1.703125 12.234375 9.375 
Q 8.59375 20.453125 8.59375 31.390625 
Q 8.59375 42.28125 12.203125 53.3125 
Q 15.828125 64.359375 23.1875 75.875 
z
" id="DejaVuSans-40"/>
       <path d="M 41.109375 46.296875 
Q 39.59375 47.171875 37.8125 47.578125 
Q 36.03125 48 33.890625 48 
Q 26.265625 48 22.1875 43.046875 
Q 18.109375 38.09375 18.109375 28.8125 
L 18.109375 0 
L 9.078125 0 
L 9.078125 54.6875 
L 18.109375 54.6875 
L 18.109375 46.1875 
Q 20.953125 51.171875 25.484375 53.578125 
Q 30.03125 56 36.53125 56 
Q 37.453125 56 38.578125 55.875 
Q 39.703125 55.765625 41.0625 55.515625 
z
" id="DejaVuSans-114"/>
       <path d="M 45.40625 27.984375 
Q 45.40625 37.75 41.375 43.109375 
Q 37.359375 48.484375 30.078125 48.484375 
Q 22.859375 48.484375 18.828125 43.109375 
Q 14.796875 37.75 14.796875 27.984375 
Q 14.796875 18.265625 18.828125 12.890625 
Q 22.859375 7.515625 30.078125 7.515625 
Q 37.359375 7.515625 41.375 12.890625 
Q 45.40625 18.265625 45.40625 27.984375 
z
M 54.390625 6.78125 
Q 54.390625 -7.171875 48.1875 -13.984375 
Q 42 -20.796875 29.203125 -20.796875 
Q 24.46875 -20.796875 20.265625 -20.09375 
Q 16.0625 -19.390625 12.109375 -17.921875 
L 12.109375 -9.1875 
Q 16.0625 -11.328125 19.921875 -12.34375 
Q 23.78125 -13.375 27.78125 -13.375 
Q 36.625 -13.375 41.015625 -8.765625 
Q 45.40625 -4.15625 45.40625 5.171875 
L 45.40625 9.625 
Q 42.625 4.78125 38.28125 2.390625 
Q 33.9375 0 27.875 0 
Q 17.828125 0 11.671875 7.65625 
Q 5.515625 15.328125 5.515625 27.984375 
Q 5.515625 40.671875 11.671875 48.328125 
Q 17.828125 56 27.875 56 
Q 33.9375 56 38.28125 53.609375 
Q 42.625 51.21875 45.40625 46.390625 
L 45.40625 54.6875 
L 54.390625 54.6875 
z
" id="DejaVuSans-103"/>
       <path d="M 8.5 21.578125 
L 8.5 54.6875 
L 17.484375 54.6875 
L 17.484375 21.921875 
Q 17.484375 14.15625 20.5 10.265625 
Q 23.53125 6.390625 29.59375 6.390625 
Q 36.859375 6.390625 41.078125 11.03125 
Q 45.3125 15.671875 45.3125 23.6875 
L 45.3125 54.6875 
L 54.296875 54.6875 
L 54.296875 0 
L 45.3125 0 
L 45.3125 8.40625 
Q 42.046875 3.421875 37.71875 1 
Q 33.40625 -1.421875 27.6875 -1.421875 
Q 18.265625 -1.421875 13.375 4.4375 
Q 8.5 10.296875 8.5 21.578125 
z
M 31.109375 56 
z
" id="DejaVuSans-117"/>
       <path d="M 9.421875 75.984375 
L 18.40625 75.984375 
L 18.40625 0 
L 9.421875 0 
z
" id="DejaVuSans-108"/>
       <path d="M 8.015625 75.875 
L 15.828125 75.875 
Q 23.140625 64.359375 26.78125 53.3125 
Q 30.421875 42.28125 30.421875 31.390625 
Q 30.421875 20.453125 26.78125 9.375 
Q 23.140625 -1.703125 15.828125 -13.1875 
L 8.015625 -13.1875 
Q 14.5 -2 17.703125 9.0625 
Q 20.90625 20.125 20.90625 31.390625 
Q 20.90625 42.671875 17.703125 53.65625 
Q 14.5 64.65625 8.015625 75.875 
z
" id="DejaVuSans-41"/>
      </defs>
      <use xlink:href="#DejaVuSans-77"/>
      <use x="86.279297" xlink:href="#DejaVuSans-70"/>
      <use x="143.798828" xlink:href="#DejaVuSans-32"/>
      <use x="175.585938" xlink:href="#DejaVuSans-99"/>
      <use x="230.566406" xlink:href="#DejaVuSans-104"/>
      <use x="293.945312" xlink:href="#DejaVuSans-101"/>
      <use x="355.46875" xlink:href="#DejaVuSans-97"/>
      <use x="416.748047" xlink:href="#DejaVuSans-112"/>
      <use x="480.224609" xlink:href="#DejaVuSans-32"/>
      <use x="512.011719" xlink:href="#DejaVuSans-71"/>
      <use x="589.501953" xlink:href="#DejaVuSans-80"/>
      <use x="649.804688" xlink:href="#DejaVuSans-82"/>
      <use x="719.287109" xlink:href="#DejaVuSans-32"/>
      <use x="751.074219" xlink:href="#DejaVuSans-40"/>
      <use x="790.087891" xlink:href="#DejaVuSans-114"/>
      <use x="828.951172" xlink:href="#DejaVuSans-101"/>
      <use x="890.474609" xlink:href="#DejaVuSans-103"/>
      <use x="953.951172" xlink:href="#DejaVuSans-117"/>
      <use x="1017.330078" xlink:href="#DejaVuSans-108"/>
      <use x="1045.113281" xlink:href="#DejaVuSans-97"/>
      <use x="1106.392578" xlink:href="#DejaVuSans-114"/>
      <use x="1147.505859" xlink:href="#DejaVuSans-32"/>
      <use x="1179.292969" xlink:href="#DejaVuSans-71"/>
      <use x="1256.783203" xlink:href="#DejaVuSans-80"/>
      <use x="1317.085938" xlink:href="#DejaVuSans-82"/>
      <use x="1386.568359" xlink:href="#DejaVuSans-41"/>
     </g>
    </g>
    <g id="line2d_41">
     <path d="M 66.6 69.248563 
L 86.6 69.248563 
" style="fill:none;stroke:#ffa500;stroke-linecap:square;stroke-width:1.5;"/>
    </g>
    <g id="line2d_42"/>
    <g id="text_17">
     <!-- MF expensive GPR -->
     <g transform="translate(94.6 72.748563)scale(0.1 -0.1)">
      <defs>
       <path d="M 54.890625 54.6875 
L 35.109375 28.078125 
L 55.90625 0 
L 45.3125 0 
L 29.390625 21.484375 
L 13.484375 0 
L 2.875 0 
L 24.125 28.609375 
L 4.6875 54.6875 
L 15.28125 54.6875 
L 29.78125 35.203125 
L 44.28125 54.6875 
z
" id="DejaVuSans-120"/>
       <path d="M 54.890625 33.015625 
L 54.890625 0 
L 45.90625 0 
L 45.90625 32.71875 
Q 45.90625 40.484375 42.875 44.328125 
Q 39.84375 48.1875 33.796875 48.1875 
Q 26.515625 48.1875 22.3125 43.546875 
Q 18.109375 38.921875 18.109375 30.90625 
L 18.109375 0 
L 9.078125 0 
L 9.078125 54.6875 
L 18.109375 54.6875 
L 18.109375 46.1875 
Q 21.34375 51.125 25.703125 53.5625 
Q 30.078125 56 35.796875 56 
Q 45.21875 56 50.046875 50.171875 
Q 54.890625 44.34375 54.890625 33.015625 
z
" id="DejaVuSans-110"/>
       <path d="M 44.28125 53.078125 
L 44.28125 44.578125 
Q 40.484375 46.53125 36.375 47.5 
Q 32.28125 48.484375 27.875 48.484375 
Q 21.1875 48.484375 17.84375 46.4375 
Q 14.5 44.390625 14.5 40.28125 
Q 14.5 37.15625 16.890625 35.375 
Q 19.28125 33.59375 26.515625 31.984375 
L 29.59375 31.296875 
Q 39.15625 29.25 43.1875 25.515625 
Q 47.21875 21.78125 47.21875 15.09375 
Q 47.21875 7.46875 41.1875 3.015625 
Q 35.15625 -1.421875 24.609375 -1.421875 
Q 20.21875 -1.421875 15.453125 -0.5625 
Q 10.6875 0.296875 5.421875 2 
L 5.421875 11.28125 
Q 10.40625 8.6875 15.234375 7.390625 
Q 20.0625 6.109375 24.8125 6.109375 
Q 31.15625 6.109375 34.5625 8.28125 
Q 37.984375 10.453125 37.984375 14.40625 
Q 37.984375 18.0625 35.515625 20.015625 
Q 33.0625 21.96875 24.703125 23.78125 
L 21.578125 24.515625 
Q 13.234375 26.265625 9.515625 29.90625 
Q 5.8125 33.546875 5.8125 39.890625 
Q 5.8125 47.609375 11.28125 51.796875 
Q 16.75 56 26.8125 56 
Q 31.78125 56 36.171875 55.265625 
Q 40.578125 54.546875 44.28125 53.078125 
z
" id="DejaVuSans-115"/>
       <path d="M 9.421875 54.6875 
L 18.40625 54.6875 
L 18.40625 0 
L 9.421875 0 
z
M 9.421875 75.984375 
L 18.40625 75.984375 
L 18.40625 64.59375 
L 9.421875 64.59375 
z
" id="DejaVuSans-105"/>
       <path d="M 2.984375 54.6875 
L 12.5 54.6875 
L 29.59375 8.796875 
L 46.6875 54.6875 
L 56.203125 54.6875 
L 35.6875 0 
L 23.484375 0 
z
" id="DejaVuSans-118"/>
      </defs>
      <use xlink:href="#DejaVuSans-77"/>
      <use x="86.279297" xlink:href="#DejaVuSans-70"/>
      <use x="143.798828" xlink:href="#DejaVuSans-32"/>
      <use x="175.585938" xlink:href="#DejaVuSans-101"/>
      <use x="235.359375" xlink:href="#DejaVuSans-120"/>
      <use x="294.539062" xlink:href="#DejaVuSans-112"/>
      <use x="358.015625" xlink:href="#DejaVuSans-101"/>
      <use x="419.539062" xlink:href="#DejaVuSans-110"/>
      <use x="482.917969" xlink:href="#DejaVuSans-115"/>
      <use x="535.017578" xlink:href="#DejaVuSans-105"/>
      <use x="562.800781" xlink:href="#DejaVuSans-118"/>
      <use x="621.980469" xlink:href="#DejaVuSans-101"/>
      <use x="683.503906" xlink:href="#DejaVuSans-32"/>
      <use x="715.291016" xlink:href="#DejaVuSans-71"/>
      <use x="792.78125" xlink:href="#DejaVuSans-80"/>
      <use x="853.083984" xlink:href="#DejaVuSans-82"/>
     </g>
    </g>
    <g id="line2d_43">
     <path d="M 66.6 83.926688 
L 86.6 83.926688 
" style="fill:none;stroke:#0000ff;stroke-dasharray:5.55,2.4;stroke-dashoffset:0;stroke-width:1.5;"/>
    </g>
    <g id="line2d_44"/>
    <g id="text_18">
     <!-- Exact cheap function -->
     <g transform="translate(94.6 87.426688)scale(0.1 -0.1)">
      <defs>
       <path d="M 9.8125 72.90625 
L 55.90625 72.90625 
L 55.90625 64.59375 
L 19.671875 64.59375 
L 19.671875 43.015625 
L 54.390625 43.015625 
L 54.390625 34.71875 
L 19.671875 34.71875 
L 19.671875 8.296875 
L 56.78125 8.296875 
L 56.78125 0 
L 9.8125 0 
z
" id="DejaVuSans-69"/>
       <path d="M 18.3125 70.21875 
L 18.3125 54.6875 
L 36.8125 54.6875 
L 36.8125 47.703125 
L 18.3125 47.703125 
L 18.3125 18.015625 
Q 18.3125 11.328125 20.140625 9.421875 
Q 21.96875 7.515625 27.59375 7.515625 
L 36.8125 7.515625 
L 36.8125 0 
L 27.59375 0 
Q 17.1875 0 13.234375 3.875 
Q 9.28125 7.765625 9.28125 18.015625 
L 9.28125 47.703125 
L 2.6875 47.703125 
L 2.6875 54.6875 
L 9.28125 54.6875 
L 9.28125 70.21875 
z
" id="DejaVuSans-116"/>
       <path d="M 37.109375 75.984375 
L 37.109375 68.5 
L 28.515625 68.5 
Q 23.6875 68.5 21.796875 66.546875 
Q 19.921875 64.59375 19.921875 59.515625 
L 19.921875 54.6875 
L 34.71875 54.6875 
L 34.71875 47.703125 
L 19.921875 47.703125 
L 19.921875 0 
L 10.890625 0 
L 10.890625 47.703125 
L 2.296875 47.703125 
L 2.296875 54.6875 
L 10.890625 54.6875 
L 10.890625 58.5 
Q 10.890625 67.625 15.140625 71.796875 
Q 19.390625 75.984375 28.609375 75.984375 
z
" id="DejaVuSans-102"/>
       <path d="M 30.609375 48.390625 
Q 23.390625 48.390625 19.1875 42.75 
Q 14.984375 37.109375 14.984375 27.296875 
Q 14.984375 17.484375 19.15625 11.84375 
Q 23.34375 6.203125 30.609375 6.203125 
Q 37.796875 6.203125 41.984375 11.859375 
Q 46.1875 17.53125 46.1875 27.296875 
Q 46.1875 37.015625 41.984375 42.703125 
Q 37.796875 48.390625 30.609375 48.390625 
z
M 30.609375 56 
Q 42.328125 56 49.015625 48.375 
Q 55.71875 40.765625 55.71875 27.296875 
Q 55.71875 13.875 49.015625 6.21875 
Q 42.328125 -1.421875 30.609375 -1.421875 
Q 18.84375 -1.421875 12.171875 6.21875 
Q 5.515625 13.875 5.515625 27.296875 
Q 5.515625 40.765625 12.171875 48.375 
Q 18.84375 56 30.609375 56 
z
" id="DejaVuSans-111"/>
      </defs>
      <use xlink:href="#DejaVuSans-69"/>
      <use x="63.183594" xlink:href="#DejaVuSans-120"/>
      <use x="122.363281" xlink:href="#DejaVuSans-97"/>
      <use x="183.642578" xlink:href="#DejaVuSans-99"/>
      <use x="238.623047" xlink:href="#DejaVuSans-116"/>
      <use x="277.832031" xlink:href="#DejaVuSans-32"/>
      <use x="309.619141" xlink:href="#DejaVuSans-99"/>
      <use x="364.599609" xlink:href="#DejaVuSans-104"/>
      <use x="427.978516" xlink:href="#DejaVuSans-101"/>
      <use x="489.501953" xlink:href="#DejaVuSans-97"/>
      <use x="550.78125" xlink:href="#DejaVuSans-112"/>
      <use x="614.257812" xlink:href="#DejaVuSans-32"/>
      <use x="646.044922" xlink:href="#DejaVuSans-102"/>
      <use x="681.25" xlink:href="#DejaVuSans-117"/>
      <use x="744.628906" xlink:href="#DejaVuSans-110"/>
      <use x="808.007812" xlink:href="#DejaVuSans-99"/>
      <use x="862.988281" xlink:href="#DejaVuSans-116"/>
      <use x="902.197266" xlink:href="#DejaVuSans-105"/>
      <use x="929.980469" xlink:href="#DejaVuSans-111"/>
      <use x="991.162109" xlink:href="#DejaVuSans-110"/>
     </g>
    </g>
    <g id="line2d_45">
     <path d="M 66.6 98.604813 
L 86.6 98.604813 
" style="fill:none;stroke:#ffa500;stroke-dasharray:5.55,2.4;stroke-dashoffset:0;stroke-width:1.5;"/>
    </g>
    <g id="line2d_46"/>
    <g id="text_19">
     <!-- Exact expensive function -->
     <g transform="translate(94.6 102.104813)scale(0.1 -0.1)">
      <use xlink:href="#DejaVuSans-69"/>
      <use x="63.183594" xlink:href="#DejaVuSans-120"/>
      <use x="122.363281" xlink:href="#DejaVuSans-97"/>
      <use x="183.642578" xlink:href="#DejaVuSans-99"/>
      <use x="238.623047" xlink:href="#DejaVuSans-116"/>
      <use x="277.832031" xlink:href="#DejaVuSans-32"/>
      <use x="309.619141" xlink:href="#DejaVuSans-101"/>
      <use x="369.392578" xlink:href="#DejaVuSans-120"/>
      <use x="428.572266" xlink:href="#DejaVuSans-112"/>
      <use x="492.048828" xlink:href="#DejaVuSans-101"/>
      <use x="553.572266" xlink:href="#DejaVuSans-110"/>
      <use x="616.951172" xlink:href="#DejaVuSans-115"/>
      <use x="669.050781" xlink:href="#DejaVuSans-105"/>
      <use x="696.833984" xlink:href="#DejaVuSans-118"/>
      <use x="756.013672" xlink:href="#DejaVuSans-101"/>
      <use x="817.537109" xlink:href="#DejaVuSans-32"/>
      <use x="849.324219" xlink:href="#DejaVuSans-102"/>
      <use x="884.529297" xlink:href="#DejaVuSans-117"/>
      <use x="947.908203" xlink:href="#DejaVuSans-110"/>
      <use x="1011.287109" xlink:href="#DejaVuSans-99"/>
      <use x="1066.267578" xlink:href="#DejaVuSans-116"/>
      <use x="1105.476562" xlink:href="#DejaVuSans-105"/>
      <use x="1133.259766" xlink:href="#DejaVuSans-111"/>
      <use x="1194.441406" xlink:href="#DejaVuSans-110"/>
     </g>
    </g>
   </g>
  </g>
 </g>
 <defs>
  <clipPath id="p704d74a722">
   <rect height="266.112" width="357.12" x="57.6" y="41.472"/>
  </clipPath>
 </defs>
</svg>
