<?xml version="1.0" encoding="utf-8" standalone="no"?>
<!DOCTYPE svg PUBLIC "-//W3C//DTD SVG 1.1//EN"
  "http://www.w3.org/Graphics/SVG/1.1/DTD/svg11.dtd">
<!-- Created with matplotlib (https://matplotlib.org/) -->
<svg height="345.6pt" version="1.1" viewBox="0 0 460.8 345.6" width="460.8pt" xmlns="http://www.w3.org/2000/svg" xmlns:xlink="http://www.w3.org/1999/xlink">
 <metadata>
  <rdf:RDF xmlns:cc="http://creativecommons.org/ns#" xmlns:dc="http://purl.org/dc/elements/1.1/" xmlns:rdf="http://www.w3.org/1999/02/22-rdf-syntax-ns#">
   <cc:Work>
    <dc:type rdf:resource="http://purl.org/dc/dcmitype/StillImage"/>
    <dc:date>2020-11-24T14:03:53.208158</dc:date>
    <dc:format>image/svg+xml</dc:format>
    <dc:creator>
     <cc:Agent>
      <dc:title>Matplotlib v3.3.1, https://matplotlib.org/</dc:title>
     </cc:Agent>
    </dc:creator>
   </cc:Work>
  </rdf:RDF>
 </metadata>
 <defs>
  <style type="text/css">*{stroke-linecap:butt;stroke-linejoin:round;}</style>
 </defs>
 <g id="figure_1">
  <g id="patch_1">
   <path d="M 0 345.6 
L 460.8 345.6 
L 460.8 0 
L 0 0 
z
" style="fill:#ffffff;"/>
  </g>
  <g id="axes_1">
   <g id="patch_2">
    <path d="M 57.6 307.584 
L 414.72 307.584 
L 414.72 41.472 
L 57.6 41.472 
z
" style="fill:#ffffff;"/>
   </g>
   <g id="PolyCollection_1">
    <defs>
     <path d="M 73.832727 -94.315308 
L 73.832727 -69.873882 
L 77.112066 -69.696654 
L 80.391405 -69.253726 
L 83.670744 -68.668601 
L 86.950083 -68.043886 
L 90.229421 -67.460248 
L 93.50876 -66.976704 
L 96.788099 -66.632081 
L 100.067438 -66.447366 
L 103.346777 -66.42869 
L 106.626116 -66.570624 
L 109.905455 -66.859513 
L 113.184793 -67.276606 
L 116.464132 -67.800781 
L 119.743471 -68.410751 
L 123.02281 -69.086675 
L 126.302149 -69.811185 
L 129.581488 -70.569894 
L 132.860826 -71.35145 
L 136.140165 -72.147287 
L 139.419504 -72.951167 
L 142.698843 -73.758657 
L 145.978182 -74.566609 
L 149.257521 -75.372744 
L 152.53686 -76.175352 
L 155.816198 -76.973146 
L 159.095537 -77.765232 
L 162.374876 -78.551188 
L 165.654215 -79.331183 
L 168.933554 -80.106111 
L 172.212893 -80.877679 
L 175.492231 -81.648437 
L 178.77157 -82.421701 
L 182.050909 -83.201397 
L 185.330248 -83.991793 
L 188.609587 -84.797178 
L 191.888926 -85.621478 
L 195.168264 -86.467868 
L 198.447603 -87.338385 
L 201.726942 -88.233597 
L 205.006281 -89.152326 
L 208.28562 -90.091458 
L 211.564959 -91.045853 
L 214.844298 -92.008338 
L 218.123636 -92.969817 
L 221.402975 -93.91945 
L 224.682314 -94.844933 
L 227.961653 -95.732833 
L 231.240992 -96.568995 
L 234.520331 -97.338977 
L 237.799669 -98.028525 
L 241.079008 -98.624062 
L 244.358347 -99.113172 
L 247.637686 -99.485071 
L 250.917025 -99.731056 
L 254.196364 -99.844909 
L 257.475702 -99.82325 
L 260.755041 -99.665837 
L 264.03438 -99.375795 
L 267.313719 -98.959781 
L 270.593058 -98.428082 
L 273.872397 -97.794632 
L 277.151736 -97.076973 
L 280.431074 -96.296135 
L 283.710413 -95.476445 
L 286.989752 -94.645254 
L 290.269091 -93.832585 
L 293.54843 -93.070676 
L 296.827769 -92.393429 
L 300.107107 -91.835745 
L 303.386446 -91.432757 
L 306.665785 -91.218961 
L 309.945124 -91.227272 
L 313.224463 -91.48804 
L 316.503802 -92.028067 
L 319.78314 -92.869677 
L 323.062479 -94.029924 
L 326.341818 -95.519972 
L 329.621157 -97.344725 
L 332.900496 -99.502745 
L 336.179835 -101.986466 
L 339.459174 -104.782708 
L 342.738512 -107.873438 
L 346.017851 -111.236694 
L 349.29719 -114.847584 
L 352.576529 -118.679199 
L 355.855868 -122.703328 
L 359.135207 -126.890817 
L 362.414545 -131.211468 
L 365.693884 -135.633387 
L 368.973223 -140.121781 
L 372.252562 -144.637207 
L 375.531901 -149.133404 
L 378.81124 -153.554871 
L 382.090579 -157.834409 
L 385.369917 -161.890908 
L 388.649256 -165.627646 
L 391.928595 -168.93139 
L 395.207934 -171.672542 
L 398.487273 -173.70649 
L 398.487273 -198.147917 
L 398.487273 -198.147917 
L 395.207934 -194.311893 
L 391.928595 -190.55889 
L 388.649256 -186.795962 
L 385.369917 -182.953803 
L 382.090579 -178.987346 
L 378.81124 -174.874963 
L 375.531901 -170.616467 
L 372.252562 -166.23016 
L 368.973223 -161.749243 
L 365.693884 -157.217896 
L 362.414545 -152.687314 
L 359.135207 -148.211972 
L 355.855868 -143.846319 
L 352.576529 -139.642037 
L 349.29719 -135.645949 
L 346.017851 -131.898568 
L 342.738512 -128.433264 
L 339.459174 -125.275939 
L 336.179835 -122.445113 
L 332.900496 -119.952302 
L 329.621157 -117.802561 
L 326.341818 -115.995098 
L 323.062479 -114.52389 
L 319.78314 -113.378243 
L 316.503802 -112.543285 
L 313.224463 -112.000385 
L 309.945124 -111.72753 
L 306.665785 -111.699685 
L 303.386446 -111.889164 
L 300.107107 -112.266056 
L 296.827769 -112.798706 
L 293.54843 -113.454282 
L 290.269091 -114.199403 
L 286.989752 -115.000826 
L 283.710413 -115.826155 
L 280.431074 -116.644554 
L 277.151736 -117.427413 
L 273.872397 -118.148948 
L 270.593058 -118.786702 
L 267.313719 -119.321927 
L 264.03438 -119.739831 
L 260.755041 -120.02969 
L 257.475702 -120.184828 
L 254.196364 -120.202468 
L 250.917025 -120.083477 
L 247.637686 -119.832014 
L 244.358347 -119.455113 
L 241.079008 -118.962208 
L 237.799669 -118.364627 
L 234.520331 -117.675078 
L 231.240992 -116.90714 
L 227.961653 -116.074775 
L 224.682314 -115.191876 
L 221.402975 -114.271871 
L 218.123636 -113.327377 
L 214.844298 -112.369917 
L 211.564959 -111.409706 
L 208.28562 -110.455495 
L 205.006281 -109.514472 
L 201.726942 -108.592218 
L 198.447603 -107.692701 
L 195.168264 -106.818307 
L 191.888926 -105.969897 
L 188.609587 -105.146888 
L 185.330248 -104.347365 
L 182.050909 -103.568215 
L 178.77157 -102.805307 
L 175.492231 -102.053713 
L 172.212893 -101.307989 
L 168.933554 -100.562518 
L 165.654215 -99.811908 
L 162.374876 -99.051447 
L 159.095537 -98.277577 
L 155.816198 -97.488364 
L 152.53686 -96.683919 
L 149.257521 -95.86671 
L 145.978182 -95.041735 
L 142.698843 -94.216492 
L 139.419504 -93.400724 
L 136.140165 -92.605934 
L 132.860826 -91.844681 
L 129.581488 -91.129721 
L 126.302149 -90.473059 
L 123.02281 -89.885039 
L 119.743471 -89.37359 
L 116.464132 -88.943772 
L 113.184793 -88.59776 
L 109.905455 -88.33536 
L 106.626116 -88.155133 
L 103.346777 -88.056152 
L 100.067438 -88.040319 
L 96.788099 -88.115144 
L 93.50876 -88.296797 
L 90.229421 -88.613184 
L 86.950083 -89.106781 
L 83.670744 -89.836917 
L 80.391405 -90.881226 
L 77.112066 -92.336005 
L 73.832727 -94.315308 
z
" id="m452ca2b576" style="stroke:#0000ff;stroke-opacity:0.2;"/>
    </defs>
    <g clip-path="url(#pce9f24da9a)">
     <use style="fill:#0000ff;fill-opacity:0.2;stroke:#0000ff;stroke-opacity:0.2;" x="0" xlink:href="#m452ca2b576" y="345.6"/>
    </g>
   </g>
   <g id="PolyCollection_2">
    <defs>
     <path d="M 73.832727 -210.633431 
L 73.832727 -99.293132 
L 77.112066 -99.683885 
L 80.391405 -98.616776 
L 83.670744 -96.620407 
L 86.950083 -94.135711 
L 90.229421 -91.511542 
L 93.50876 -89.00604 
L 96.788099 -86.79297 
L 100.067438 -84.971934 
L 103.346777 -83.581207 
L 106.626116 -82.61189 
L 109.905455 -82.022146 
L 113.184793 -81.750464 
L 116.464132 -81.7271 
L 119.743471 -81.883184 
L 123.02281 -82.15721 
L 126.302149 -82.498953 
L 129.581488 -82.871052 
L 132.860826 -83.248707 
L 136.140165 -83.61799 
L 139.419504 -83.973352 
L 142.698843 -84.314835 
L 145.978182 -84.645433 
L 149.257521 -84.96893 
L 152.53686 -85.288398 
L 155.816198 -85.605418 
L 159.095537 -85.919973 
L 162.374876 -86.230867 
L 165.654215 -86.536494 
L 168.933554 -86.835727 
L 172.212893 -87.128761 
L 175.492231 -87.417725 
L 178.77157 -87.706974 
L 182.050909 -88.003012 
L 185.330248 -88.314048 
L 188.609587 -88.649252 
L 191.888926 -89.017792 
L 195.168264 -89.427759 
L 198.447603 -89.8851 
L 201.726942 -90.392652 
L 205.006281 -90.949351 
L 208.28562 -91.549691 
L 211.564959 -92.183445 
L 214.844298 -92.835674 
L 218.123636 -93.486983 
L 221.402975 -94.114033 
L 224.682314 -94.690235 
L 227.961653 -95.186608 
L 231.240992 -95.572748 
L 234.520331 -95.817865 
L 237.799669 -95.891852 
L 241.079008 -95.766341 
L 244.358347 -95.415722 
L 247.637686 -94.818087 
L 250.917025 -93.956082 
L 254.196364 -92.817636 
L 257.475702 -91.396575 
L 260.755041 -89.693095 
L 264.03438 -87.714118 
L 267.313719 -85.473524 
L 270.593058 -82.992296 
L 273.872397 -80.298567 
L 277.151736 -77.427604 
L 280.431074 -74.421709 
L 283.710413 -71.330039 
L 286.989752 -68.208298 
L 290.269091 -65.118271 
L 293.54843 -62.127122 
L 296.827769 -59.306418 
L 300.107107 -56.730792 
L 303.386446 -54.476246 
L 306.665785 -52.618069 
L 309.945124 -51.22843 
L 313.224463 -50.373749 
L 316.503802 -50.112 
L 319.78314 -50.490158 
L 323.062479 -51.542019 
L 326.341818 -53.286649 
L 329.621157 -55.727664 
L 332.900496 -58.853519 
L 336.179835 -62.638847 
L 339.459174 -67.04681 
L 342.738512 -72.03225 
L 346.017851 -77.545317 
L 349.29719 -83.535084 
L 352.576529 -89.952627 
L 355.855868 -96.752946 
L 359.135207 -103.895176 
L 362.414545 -111.340609 
L 365.693884 -119.048223 
L 368.973223 -126.967651 
L 372.252562 -135.029787 
L 375.531901 -143.135532 
L 378.81124 -151.143453 
L 382.090579 -158.8574 
L 385.369917 -166.015256 
L 388.649256 -172.280107 
L 391.928595 -177.235063 
L 395.207934 -180.382795 
L 398.487273 -181.150608 
L 398.487273 -292.032 
L 398.487273 -292.032 
L 395.207934 -283.320341 
L 391.928595 -275.68368 
L 388.649256 -268.657269 
L 385.369917 -261.869757 
L 382.090579 -255.046672 
L 378.81124 -248.008006 
L 375.531901 -240.660725 
L 372.252562 -232.987327 
L 368.973223 -225.031722 
L 365.693884 -216.883777 
L 362.414545 -208.66377 
L 359.135207 -200.507859 
L 355.855868 -192.555425 
L 352.576529 -184.938847 
L 349.29719 -177.776007 
L 346.017851 -171.165499 
L 342.738512 -165.184339 
L 339.459174 -159.88773 
L 336.179835 -155.310396 
L 332.900496 -151.468915 
L 329.621157 -148.364537 
L 326.341818 -145.986037 
L 323.062479 -144.312276 
L 319.78314 -143.314262 
L 316.503802 -142.956639 
L 313.224463 -143.198629 
L 309.945124 -143.99454 
L 306.665785 -145.294018 
L 303.386446 -147.042198 
L 300.107107 -149.179951 
L 296.827769 -151.644324 
L 293.54843 -154.369287 
L 290.269091 -157.286777 
L 286.989752 -160.328039 
L 283.710413 -163.425168 
L 280.431074 -166.512762 
L 277.151736 -169.529575 
L 273.872397 -172.420039 
L 270.593058 -175.135574 
L 267.313719 -177.635601 
L 264.03438 -179.888211 
L 260.755041 -181.870472 
L 257.475702 -183.568389 
L 254.196364 -184.976535 
L 250.917025 -186.097413 
L 247.637686 -186.940588 
L 244.358347 -187.52167 
L 241.079008 -187.861188 
L 237.799669 -187.983425 
L 234.520331 -187.915258 
L 231.240992 -187.685052 
L 227.961653 -187.321642 
L 224.682314 -186.853436 
L 221.402975 -186.307658 
L 218.123636 -185.709744 
L 214.844298 -185.082884 
L 211.564959 -184.447716 
L 208.28562 -183.822131 
L 205.006281 -183.22118 
L 201.726942 -182.657031 
L 198.447603 -182.13896 
L 195.168264 -181.673338 
L 191.888926 -181.263601 
L 188.609587 -180.910207 
L 185.330248 -180.6106 
L 182.050909 -180.359223 
L 178.77157 -180.147642 
L 175.492231 -179.964832 
L 172.212893 -179.79771 
L 168.933554 -179.631945 
L 165.654215 -179.453064 
L 162.374876 -179.247831 
L 159.095537 -179.005807 
L 155.816198 -178.720976 
L 152.53686 -178.393242 
L 149.257521 -178.029601 
L 145.978182 -177.644756 
L 142.698843 -177.261003 
L 139.419504 -176.907238 
L 136.140165 -176.617053 
L 132.860826 -176.425989 
L 129.581488 -176.368168 
L 126.302149 -176.472639 
L 123.02281 -176.75992 
L 119.743471 -177.239274 
L 116.464132 -177.907326 
L 113.184793 -178.748561 
L 109.905455 -179.738173 
L 106.626116 -180.847537 
L 103.346777 -182.052371 
L 100.067438 -183.343333 
L 96.788099 -184.738551 
L 93.50876 -186.297264 
L 90.229421 -188.133516 
L 86.950083 -190.42869 
L 83.670744 -193.441561 
L 80.391405 -197.514632 
L 77.112066 -203.075642 
L 73.832727 -210.633431 
z
" id="m8dea117c5a" style="stroke:#ffa500;stroke-opacity:0.2;"/>
    </defs>
    <g clip-path="url(#pce9f24da9a)">
     <use style="fill:#ffa500;fill-opacity:0.2;stroke:#ffa500;stroke-opacity:0.2;" x="0" xlink:href="#m8dea117c5a" y="345.6"/>
    </g>
   </g>
   <g id="PathCollection_1">
    <defs>
     <path d="M 0 3 
C 0.795609 3 1.55874 2.683901 2.12132 2.12132 
C 2.683901 1.55874 3 0.795609 3 0 
C 3 -0.795609 2.683901 -1.55874 2.12132 -2.12132 
C 1.55874 -2.683901 0.795609 -3 0 -3 
C -0.795609 -3 -1.55874 -2.683901 -2.12132 -2.12132 
C -2.683901 -1.55874 -3 -0.795609 -3 0 
C -3 0.795609 -2.683901 1.55874 -2.12132 2.12132 
C -1.55874 2.683901 -0.795609 3 0 3 
z
" id="mab6cf710ca" style="stroke:#0000ff;"/>
    </defs>
    <g clip-path="url(#pce9f24da9a)">
     <use style="fill:#0000ff;stroke:#0000ff;" x="73.832727" xlink:href="#mab6cf710ca" y="263.616205"/>
     <use style="fill:#0000ff;stroke:#0000ff;" x="106.298182" xlink:href="#mab6cf710ca" y="268.995102"/>
     <use style="fill:#0000ff;stroke:#0000ff;" x="138.763636" xlink:href="#mab6cf710ca" y="262.552227"/>
     <use style="fill:#0000ff;stroke:#0000ff;" x="171.229091" xlink:href="#mab6cf710ca" y="254.169316"/>
     <use style="fill:#0000ff;stroke:#0000ff;" x="203.694545" xlink:href="#mab6cf710ca" y="247.36385"/>
     <use style="fill:#0000ff;stroke:#0000ff;" x="236.16" xlink:href="#mab6cf710ca" y="238.436687"/>
     <use style="fill:#0000ff;stroke:#0000ff;" x="268.625455" xlink:href="#mab6cf710ca" y="235.429794"/>
     <use style="fill:#0000ff;stroke:#0000ff;" x="301.090909" xlink:href="#mab6cf710ca" y="243.276556"/>
     <use style="fill:#0000ff;stroke:#0000ff;" x="333.556364" xlink:href="#mab6cf710ca" y="237.984432"/>
     <use style="fill:#0000ff;stroke:#0000ff;" x="366.021818" xlink:href="#mab6cf710ca" y="197.538305"/>
     <use style="fill:#0000ff;stroke:#0000ff;" x="398.487273" xlink:href="#mab6cf710ca" y="158.827761"/>
    </g>
   </g>
   <g id="PathCollection_2">
    <defs>
     <path d="M 0 3 
C 0.795609 3 1.55874 2.683901 2.12132 2.12132 
C 2.683901 1.55874 3 0.795609 3 0 
C 3 -0.795609 2.683901 -1.55874 2.12132 -2.12132 
C 1.55874 -2.683901 0.795609 -3 0 -3 
C -0.795609 -3 -1.55874 -2.683901 -2.12132 -2.12132 
C -2.683901 -1.55874 -3 -0.795609 -3 0 
C -3 0.795609 -2.683901 1.55874 -2.12132 2.12132 
C -1.55874 2.683901 -0.795609 3 0 3 
z
" id="m15262860ae" style="stroke:#ffa500;"/>
    </defs>
    <g clip-path="url(#pce9f24da9a)">
     <use style="fill:#ffa500;stroke:#ffa500;" x="73.832727" xlink:href="#m15262860ae" y="191.013587"/>
     <use style="fill:#ffa500;stroke:#ffa500;" x="203.694545" xlink:href="#m15262860ae" y="209.621261"/>
     <use style="fill:#ffa500;stroke:#ffa500;" x="268.625455" xlink:href="#m15262860ae" y="211.309342"/>
     <use style="fill:#ffa500;stroke:#ffa500;" x="333.556364" xlink:href="#m15262860ae" y="241.974809"/>
     <use style="fill:#ffa500;stroke:#ffa500;" x="398.487273" xlink:href="#m15262860ae" y="109.217659"/>
    </g>
   </g>
   <g id="matplotlib.axis_1">
    <g id="xtick_1">
     <g id="line2d_1">
      <path clip-path="url(#pce9f24da9a)" d="M 73.832727 307.584 
L 73.832727 41.472 
" style="fill:none;stroke:#b0b0b0;stroke-linecap:square;stroke-width:0.8;"/>
     </g>
     <g id="line2d_2">
      <defs>
       <path d="M 0 0 
L 0 3.5 
" id="m8aebcd49a4" style="stroke:#000000;stroke-width:0.8;"/>
      </defs>
      <g>
       <use style="stroke:#000000;stroke-width:0.8;" x="73.832727" xlink:href="#m8aebcd49a4" y="307.584"/>
      </g>
     </g>
     <g id="text_1">
      <!-- 0.0 -->
      <g transform="translate(65.881165 322.182437)scale(0.1 -0.1)">
       <defs>
        <path d="M 31.78125 66.40625 
Q 24.171875 66.40625 20.328125 58.90625 
Q 16.5 51.421875 16.5 36.375 
Q 16.5 21.390625 20.328125 13.890625 
Q 24.171875 6.390625 31.78125 6.390625 
Q 39.453125 6.390625 43.28125 13.890625 
Q 47.125 21.390625 47.125 36.375 
Q 47.125 51.421875 43.28125 58.90625 
Q 39.453125 66.40625 31.78125 66.40625 
z
M 31.78125 74.21875 
Q 44.046875 74.21875 50.515625 64.515625 
Q 56.984375 54.828125 56.984375 36.375 
Q 56.984375 17.96875 50.515625 8.265625 
Q 44.046875 -1.421875 31.78125 -1.421875 
Q 19.53125 -1.421875 13.0625 8.265625 
Q 6.59375 17.96875 6.59375 36.375 
Q 6.59375 54.828125 13.0625 64.515625 
Q 19.53125 74.21875 31.78125 74.21875 
z
" id="DejaVuSans-48"/>
        <path d="M 10.6875 12.40625 
L 21 12.40625 
L 21 0 
L 10.6875 0 
z
" id="DejaVuSans-46"/>
       </defs>
       <use xlink:href="#DejaVuSans-48"/>
       <use x="63.623047" xlink:href="#DejaVuSans-46"/>
       <use x="95.410156" xlink:href="#DejaVuSans-48"/>
      </g>
     </g>
    </g>
    <g id="xtick_2">
     <g id="line2d_3">
      <path clip-path="url(#pce9f24da9a)" d="M 138.763636 307.584 
L 138.763636 41.472 
" style="fill:none;stroke:#b0b0b0;stroke-linecap:square;stroke-width:0.8;"/>
     </g>
     <g id="line2d_4">
      <g>
       <use style="stroke:#000000;stroke-width:0.8;" x="138.763636" xlink:href="#m8aebcd49a4" y="307.584"/>
      </g>
     </g>
     <g id="text_2">
      <!-- 0.2 -->
      <g transform="translate(130.812074 322.182437)scale(0.1 -0.1)">
       <defs>
        <path d="M 19.1875 8.296875 
L 53.609375 8.296875 
L 53.609375 0 
L 7.328125 0 
L 7.328125 8.296875 
Q 12.9375 14.109375 22.625 23.890625 
Q 32.328125 33.6875 34.8125 36.53125 
Q 39.546875 41.84375 41.421875 45.53125 
Q 43.3125 49.21875 43.3125 52.78125 
Q 43.3125 58.59375 39.234375 62.25 
Q 35.15625 65.921875 28.609375 65.921875 
Q 23.96875 65.921875 18.8125 64.3125 
Q 13.671875 62.703125 7.8125 59.421875 
L 7.8125 69.390625 
Q 13.765625 71.78125 18.9375 73 
Q 24.125 74.21875 28.421875 74.21875 
Q 39.75 74.21875 46.484375 68.546875 
Q 53.21875 62.890625 53.21875 53.421875 
Q 53.21875 48.921875 51.53125 44.890625 
Q 49.859375 40.875 45.40625 35.40625 
Q 44.1875 33.984375 37.640625 27.21875 
Q 31.109375 20.453125 19.1875 8.296875 
z
" id="DejaVuSans-50"/>
       </defs>
       <use xlink:href="#DejaVuSans-48"/>
       <use x="63.623047" xlink:href="#DejaVuSans-46"/>
       <use x="95.410156" xlink:href="#DejaVuSans-50"/>
      </g>
     </g>
    </g>
    <g id="xtick_3">
     <g id="line2d_5">
      <path clip-path="url(#pce9f24da9a)" d="M 203.694545 307.584 
L 203.694545 41.472 
" style="fill:none;stroke:#b0b0b0;stroke-linecap:square;stroke-width:0.8;"/>
     </g>
     <g id="line2d_6">
      <g>
       <use style="stroke:#000000;stroke-width:0.8;" x="203.694545" xlink:href="#m8aebcd49a4" y="307.584"/>
      </g>
     </g>
     <g id="text_3">
      <!-- 0.4 -->
      <g transform="translate(195.742983 322.182437)scale(0.1 -0.1)">
       <defs>
        <path d="M 37.796875 64.3125 
L 12.890625 25.390625 
L 37.796875 25.390625 
z
M 35.203125 72.90625 
L 47.609375 72.90625 
L 47.609375 25.390625 
L 58.015625 25.390625 
L 58.015625 17.1875 
L 47.609375 17.1875 
L 47.609375 0 
L 37.796875 0 
L 37.796875 17.1875 
L 4.890625 17.1875 
L 4.890625 26.703125 
z
" id="DejaVuSans-52"/>
       </defs>
       <use xlink:href="#DejaVuSans-48"/>
       <use x="63.623047" xlink:href="#DejaVuSans-46"/>
       <use x="95.410156" xlink:href="#DejaVuSans-52"/>
      </g>
     </g>
    </g>
    <g id="xtick_4">
     <g id="line2d_7">
      <path clip-path="url(#pce9f24da9a)" d="M 268.625455 307.584 
L 268.625455 41.472 
" style="fill:none;stroke:#b0b0b0;stroke-linecap:square;stroke-width:0.8;"/>
     </g>
     <g id="line2d_8">
      <g>
       <use style="stroke:#000000;stroke-width:0.8;" x="268.625455" xlink:href="#m8aebcd49a4" y="307.584"/>
      </g>
     </g>
     <g id="text_4">
      <!-- 0.6 -->
      <g transform="translate(260.673892 322.182437)scale(0.1 -0.1)">
       <defs>
        <path d="M 33.015625 40.375 
Q 26.375 40.375 22.484375 35.828125 
Q 18.609375 31.296875 18.609375 23.390625 
Q 18.609375 15.53125 22.484375 10.953125 
Q 26.375 6.390625 33.015625 6.390625 
Q 39.65625 6.390625 43.53125 10.953125 
Q 47.40625 15.53125 47.40625 23.390625 
Q 47.40625 31.296875 43.53125 35.828125 
Q 39.65625 40.375 33.015625 40.375 
z
M 52.59375 71.296875 
L 52.59375 62.3125 
Q 48.875 64.0625 45.09375 64.984375 
Q 41.3125 65.921875 37.59375 65.921875 
Q 27.828125 65.921875 22.671875 59.328125 
Q 17.53125 52.734375 16.796875 39.40625 
Q 19.671875 43.65625 24.015625 45.921875 
Q 28.375 48.1875 33.59375 48.1875 
Q 44.578125 48.1875 50.953125 41.515625 
Q 57.328125 34.859375 57.328125 23.390625 
Q 57.328125 12.15625 50.6875 5.359375 
Q 44.046875 -1.421875 33.015625 -1.421875 
Q 20.359375 -1.421875 13.671875 8.265625 
Q 6.984375 17.96875 6.984375 36.375 
Q 6.984375 53.65625 15.1875 63.9375 
Q 23.390625 74.21875 37.203125 74.21875 
Q 40.921875 74.21875 44.703125 73.484375 
Q 48.484375 72.75 52.59375 71.296875 
z
" id="DejaVuSans-54"/>
       </defs>
       <use xlink:href="#DejaVuSans-48"/>
       <use x="63.623047" xlink:href="#DejaVuSans-46"/>
       <use x="95.410156" xlink:href="#DejaVuSans-54"/>
      </g>
     </g>
    </g>
    <g id="xtick_5">
     <g id="line2d_9">
      <path clip-path="url(#pce9f24da9a)" d="M 333.556364 307.584 
L 333.556364 41.472 
" style="fill:none;stroke:#b0b0b0;stroke-linecap:square;stroke-width:0.8;"/>
     </g>
     <g id="line2d_10">
      <g>
       <use style="stroke:#000000;stroke-width:0.8;" x="333.556364" xlink:href="#m8aebcd49a4" y="307.584"/>
      </g>
     </g>
     <g id="text_5">
      <!-- 0.8 -->
      <g transform="translate(325.604801 322.182437)scale(0.1 -0.1)">
       <defs>
        <path d="M 31.78125 34.625 
Q 24.75 34.625 20.71875 30.859375 
Q 16.703125 27.09375 16.703125 20.515625 
Q 16.703125 13.921875 20.71875 10.15625 
Q 24.75 6.390625 31.78125 6.390625 
Q 38.8125 6.390625 42.859375 10.171875 
Q 46.921875 13.96875 46.921875 20.515625 
Q 46.921875 27.09375 42.890625 30.859375 
Q 38.875 34.625 31.78125 34.625 
z
M 21.921875 38.8125 
Q 15.578125 40.375 12.03125 44.71875 
Q 8.5 49.078125 8.5 55.328125 
Q 8.5 64.0625 14.71875 69.140625 
Q 20.953125 74.21875 31.78125 74.21875 
Q 42.671875 74.21875 48.875 69.140625 
Q 55.078125 64.0625 55.078125 55.328125 
Q 55.078125 49.078125 51.53125 44.71875 
Q 48 40.375 41.703125 38.8125 
Q 48.828125 37.15625 52.796875 32.3125 
Q 56.78125 27.484375 56.78125 20.515625 
Q 56.78125 9.90625 50.3125 4.234375 
Q 43.84375 -1.421875 31.78125 -1.421875 
Q 19.734375 -1.421875 13.25 4.234375 
Q 6.78125 9.90625 6.78125 20.515625 
Q 6.78125 27.484375 10.78125 32.3125 
Q 14.796875 37.15625 21.921875 38.8125 
z
M 18.3125 54.390625 
Q 18.3125 48.734375 21.84375 45.5625 
Q 25.390625 42.390625 31.78125 42.390625 
Q 38.140625 42.390625 41.71875 45.5625 
Q 45.3125 48.734375 45.3125 54.390625 
Q 45.3125 60.0625 41.71875 63.234375 
Q 38.140625 66.40625 31.78125 66.40625 
Q 25.390625 66.40625 21.84375 63.234375 
Q 18.3125 60.0625 18.3125 54.390625 
z
" id="DejaVuSans-56"/>
       </defs>
       <use xlink:href="#DejaVuSans-48"/>
       <use x="63.623047" xlink:href="#DejaVuSans-46"/>
       <use x="95.410156" xlink:href="#DejaVuSans-56"/>
      </g>
     </g>
    </g>
    <g id="xtick_6">
     <g id="line2d_11">
      <path clip-path="url(#pce9f24da9a)" d="M 398.487273 307.584 
L 398.487273 41.472 
" style="fill:none;stroke:#b0b0b0;stroke-linecap:square;stroke-width:0.8;"/>
     </g>
     <g id="line2d_12">
      <g>
       <use style="stroke:#000000;stroke-width:0.8;" x="398.487273" xlink:href="#m8aebcd49a4" y="307.584"/>
      </g>
     </g>
     <g id="text_6">
      <!-- 1.0 -->
      <g transform="translate(390.53571 322.182437)scale(0.1 -0.1)">
       <defs>
        <path d="M 12.40625 8.296875 
L 28.515625 8.296875 
L 28.515625 63.921875 
L 10.984375 60.40625 
L 10.984375 69.390625 
L 28.421875 72.90625 
L 38.28125 72.90625 
L 38.28125 8.296875 
L 54.390625 8.296875 
L 54.390625 0 
L 12.40625 0 
z
" id="DejaVuSans-49"/>
       </defs>
       <use xlink:href="#DejaVuSans-49"/>
       <use x="63.623047" xlink:href="#DejaVuSans-46"/>
       <use x="95.410156" xlink:href="#DejaVuSans-48"/>
      </g>
     </g>
    </g>
   </g>
   <g id="matplotlib.axis_2">
    <g id="ytick_1">
     <g id="line2d_13">
      <path clip-path="url(#pce9f24da9a)" d="M 57.6 306.829202 
L 414.72 306.829202 
" style="fill:none;stroke:#b0b0b0;stroke-linecap:square;stroke-width:0.8;"/>
     </g>
     <g id="line2d_14">
      <defs>
       <path d="M 0 0 
L -3.5 0 
" id="m0cf71d4d9e" style="stroke:#000000;stroke-width:0.8;"/>
      </defs>
      <g>
       <use style="stroke:#000000;stroke-width:0.8;" x="57.6" xlink:href="#m0cf71d4d9e" y="306.829202"/>
      </g>
     </g>
     <g id="text_7">
      <!-- −15 -->
      <g transform="translate(29.495313 310.628421)scale(0.1 -0.1)">
       <defs>
        <path d="M 10.59375 35.5 
L 73.1875 35.5 
L 73.1875 27.203125 
L 10.59375 27.203125 
z
" id="DejaVuSans-8722"/>
        <path d="M 10.796875 72.90625 
L 49.515625 72.90625 
L 49.515625 64.59375 
L 19.828125 64.59375 
L 19.828125 46.734375 
Q 21.96875 47.46875 24.109375 47.828125 
Q 26.265625 48.1875 28.421875 48.1875 
Q 40.625 48.1875 47.75 41.5 
Q 54.890625 34.8125 54.890625 23.390625 
Q 54.890625 11.625 47.5625 5.09375 
Q 40.234375 -1.421875 26.90625 -1.421875 
Q 22.3125 -1.421875 17.546875 -0.640625 
Q 12.796875 0.140625 7.71875 1.703125 
L 7.71875 11.625 
Q 12.109375 9.234375 16.796875 8.0625 
Q 21.484375 6.890625 26.703125 6.890625 
Q 35.15625 6.890625 40.078125 11.328125 
Q 45.015625 15.765625 45.015625 23.390625 
Q 45.015625 31 40.078125 35.4375 
Q 35.15625 39.890625 26.703125 39.890625 
Q 22.75 39.890625 18.8125 39.015625 
Q 14.890625 38.140625 10.796875 36.28125 
z
" id="DejaVuSans-53"/>
       </defs>
       <use xlink:href="#DejaVuSans-8722"/>
       <use x="83.789062" xlink:href="#DejaVuSans-49"/>
       <use x="147.412109" xlink:href="#DejaVuSans-53"/>
      </g>
     </g>
    </g>
    <g id="ytick_2">
     <g id="line2d_15">
      <path clip-path="url(#pce9f24da9a)" d="M 57.6 274.883962 
L 414.72 274.883962 
" style="fill:none;stroke:#b0b0b0;stroke-linecap:square;stroke-width:0.8;"/>
     </g>
     <g id="line2d_16">
      <g>
       <use style="stroke:#000000;stroke-width:0.8;" x="57.6" xlink:href="#m0cf71d4d9e" y="274.883962"/>
      </g>
     </g>
     <g id="text_8">
      <!-- −10 -->
      <g transform="translate(29.495313 278.683181)scale(0.1 -0.1)">
       <use xlink:href="#DejaVuSans-8722"/>
       <use x="83.789062" xlink:href="#DejaVuSans-49"/>
       <use x="147.412109" xlink:href="#DejaVuSans-48"/>
      </g>
     </g>
    </g>
    <g id="ytick_3">
     <g id="line2d_17">
      <path clip-path="url(#pce9f24da9a)" d="M 57.6 242.938722 
L 414.72 242.938722 
" style="fill:none;stroke:#b0b0b0;stroke-linecap:square;stroke-width:0.8;"/>
     </g>
     <g id="line2d_18">
      <g>
       <use style="stroke:#000000;stroke-width:0.8;" x="57.6" xlink:href="#m0cf71d4d9e" y="242.938722"/>
      </g>
     </g>
     <g id="text_9">
      <!-- −5 -->
      <g transform="translate(35.857813 246.737941)scale(0.1 -0.1)">
       <use xlink:href="#DejaVuSans-8722"/>
       <use x="83.789062" xlink:href="#DejaVuSans-53"/>
      </g>
     </g>
    </g>
    <g id="ytick_4">
     <g id="line2d_19">
      <path clip-path="url(#pce9f24da9a)" d="M 57.6 210.993482 
L 414.72 210.993482 
" style="fill:none;stroke:#b0b0b0;stroke-linecap:square;stroke-width:0.8;"/>
     </g>
     <g id="line2d_20">
      <g>
       <use style="stroke:#000000;stroke-width:0.8;" x="57.6" xlink:href="#m0cf71d4d9e" y="210.993482"/>
      </g>
     </g>
     <g id="text_10">
      <!-- 0 -->
      <g transform="translate(44.2375 214.7927)scale(0.1 -0.1)">
       <use xlink:href="#DejaVuSans-48"/>
      </g>
     </g>
    </g>
    <g id="ytick_5">
     <g id="line2d_21">
      <path clip-path="url(#pce9f24da9a)" d="M 57.6 179.048242 
L 414.72 179.048242 
" style="fill:none;stroke:#b0b0b0;stroke-linecap:square;stroke-width:0.8;"/>
     </g>
     <g id="line2d_22">
      <g>
       <use style="stroke:#000000;stroke-width:0.8;" x="57.6" xlink:href="#m0cf71d4d9e" y="179.048242"/>
      </g>
     </g>
     <g id="text_11">
      <!-- 5 -->
      <g transform="translate(44.2375 182.84746)scale(0.1 -0.1)">
       <use xlink:href="#DejaVuSans-53"/>
      </g>
     </g>
    </g>
    <g id="ytick_6">
     <g id="line2d_23">
      <path clip-path="url(#pce9f24da9a)" d="M 57.6 147.103001 
L 414.72 147.103001 
" style="fill:none;stroke:#b0b0b0;stroke-linecap:square;stroke-width:0.8;"/>
     </g>
     <g id="line2d_24">
      <g>
       <use style="stroke:#000000;stroke-width:0.8;" x="57.6" xlink:href="#m0cf71d4d9e" y="147.103001"/>
      </g>
     </g>
     <g id="text_12">
      <!-- 10 -->
      <g transform="translate(37.875 150.90222)scale(0.1 -0.1)">
       <use xlink:href="#DejaVuSans-49"/>
       <use x="63.623047" xlink:href="#DejaVuSans-48"/>
      </g>
     </g>
    </g>
    <g id="ytick_7">
     <g id="line2d_25">
      <path clip-path="url(#pce9f24da9a)" d="M 57.6 115.157761 
L 414.72 115.157761 
" style="fill:none;stroke:#b0b0b0;stroke-linecap:square;stroke-width:0.8;"/>
     </g>
     <g id="line2d_26">
      <g>
       <use style="stroke:#000000;stroke-width:0.8;" x="57.6" xlink:href="#m0cf71d4d9e" y="115.157761"/>
      </g>
     </g>
     <g id="text_13">
      <!-- 15 -->
      <g transform="translate(37.875 118.95698)scale(0.1 -0.1)">
       <use xlink:href="#DejaVuSans-49"/>
       <use x="63.623047" xlink:href="#DejaVuSans-53"/>
      </g>
     </g>
    </g>
    <g id="ytick_8">
     <g id="line2d_27">
      <path clip-path="url(#pce9f24da9a)" d="M 57.6 83.212521 
L 414.72 83.212521 
" style="fill:none;stroke:#b0b0b0;stroke-linecap:square;stroke-width:0.8;"/>
     </g>
     <g id="line2d_28">
      <g>
       <use style="stroke:#000000;stroke-width:0.8;" x="57.6" xlink:href="#m0cf71d4d9e" y="83.212521"/>
      </g>
     </g>
     <g id="text_14">
      <!-- 20 -->
      <g transform="translate(37.875 87.01174)scale(0.1 -0.1)">
       <use xlink:href="#DejaVuSans-50"/>
       <use x="63.623047" xlink:href="#DejaVuSans-48"/>
      </g>
     </g>
    </g>
    <g id="ytick_9">
     <g id="line2d_29">
      <path clip-path="url(#pce9f24da9a)" d="M 57.6 51.267281 
L 414.72 51.267281 
" style="fill:none;stroke:#b0b0b0;stroke-linecap:square;stroke-width:0.8;"/>
     </g>
     <g id="line2d_30">
      <g>
       <use style="stroke:#000000;stroke-width:0.8;" x="57.6" xlink:href="#m0cf71d4d9e" y="51.267281"/>
      </g>
     </g>
     <g id="text_15">
      <!-- 25 -->
      <g transform="translate(37.875 55.0665)scale(0.1 -0.1)">
       <use xlink:href="#DejaVuSans-50"/>
       <use x="63.623047" xlink:href="#DejaVuSans-53"/>
      </g>
     </g>
    </g>
   </g>
   <g id="line2d_31">
    <path clip-path="url(#pce9f24da9a)" d="M 73.832727 263.505405 
L 77.112066 264.58367 
L 80.391405 265.532524 
L 83.670744 266.347241 
L 86.950083 267.024666 
L 90.229421 267.563284 
L 93.50876 267.963249 
L 96.788099 268.226388 
L 100.067438 268.356158 
L 103.346777 268.357579 
L 106.626116 268.237122 
L 109.905455 268.002564 
L 113.184793 267.662817 
L 116.464132 267.227723 
L 119.743471 266.707829 
L 123.02281 266.114143 
L 126.302149 265.457878 
L 129.581488 264.750193 
L 132.860826 264.001934 
L 136.140165 263.22339 
L 139.419504 262.424054 
L 142.698843 261.612426 
L 145.978182 260.795828 
L 149.257521 259.980273 
L 152.53686 259.170365 
L 155.816198 258.369245 
L 159.095537 257.578596 
L 162.374876 256.798683 
L 165.654215 256.028455 
L 168.933554 255.265686 
L 172.212893 254.507166 
L 175.492231 253.748925 
L 178.77157 252.986496 
L 182.050909 252.215194 
L 185.330248 251.430421 
L 188.609587 250.627967 
L 191.888926 249.804313 
L 195.168264 248.956913 
L 198.447603 248.084457 
L 201.726942 247.187093 
L 205.006281 246.266601 
L 208.28562 245.326523 
L 211.564959 244.372221 
L 214.844298 243.410872 
L 218.123636 242.451403 
L 221.402975 241.50434 
L 224.682314 240.581596 
L 227.961653 239.696196 
L 231.240992 238.861932 
L 234.520331 238.092972 
L 237.799669 237.403424 
L 241.079008 236.806865 
L 244.358347 236.315858 
L 247.637686 235.941458 
L 250.917025 235.692734 
L 254.196364 235.576311 
L 257.475702 235.595961 
L 260.755041 235.752236 
L 264.03438 236.042187 
L 267.313719 236.459146 
L 270.593058 236.992608 
L 273.872397 237.62821 
L 277.151736 238.347807 
L 280.431074 239.129656 
L 283.710413 239.9487 
L 286.989752 240.77696 
L 290.269091 241.584006 
L 293.54843 242.337521 
L 296.827769 243.003933 
L 300.107107 243.549099 
L 303.386446 243.939039 
L 306.665785 244.140677 
L 309.945124 244.122599 
L 313.224463 243.855787 
L 316.503802 243.314324 
L 319.78314 242.47604 
L 323.062479 241.323093 
L 326.341818 239.842465 
L 329.621157 238.026357 
L 332.900496 235.872477 
L 336.179835 233.384211 
L 339.459174 230.570676 
L 342.738512 227.446649 
L 346.017851 224.032369 
L 349.29719 220.353234 
L 352.576529 216.439382 
L 355.855868 212.325177 
L 359.135207 208.048605 
L 362.414545 203.650609 
L 365.693884 199.174358 
L 368.973223 194.664488 
L 372.252562 190.166317 
L 375.531901 185.725064 
L 378.81124 181.385083 
L 382.090579 177.189122 
L 385.369917 173.177644 
L 388.649256 169.388196 
L 391.928595 165.85486 
L 395.207934 162.607782 
L 398.487273 159.672796 
" style="fill:none;stroke:#0000ff;stroke-linecap:square;stroke-width:1.5;"/>
   </g>
   <g id="line2d_32">
    <path clip-path="url(#pce9f24da9a)" d="M 73.832727 251.284692 
L 77.112066 253.263995 
L 80.391405 254.718774 
L 83.670744 255.763083 
L 86.950083 256.493219 
L 90.229421 256.986816 
L 93.50876 257.303203 
L 96.788099 257.484856 
L 100.067438 257.559681 
L 103.346777 257.543848 
L 106.626116 257.444867 
L 109.905455 257.26464 
L 113.184793 257.00224 
L 116.464132 256.656228 
L 119.743471 256.22641 
L 123.02281 255.714961 
L 126.302149 255.126941 
L 129.581488 254.470279 
L 132.860826 253.755319 
L 136.140165 252.994066 
L 139.419504 252.199276 
L 142.698843 251.383508 
L 145.978182 250.558265 
L 149.257521 249.73329 
L 152.53686 248.916081 
L 155.816198 248.111636 
L 159.095537 247.322423 
L 162.374876 246.548553 
L 165.654215 245.788092 
L 168.933554 245.037482 
L 172.212893 244.292011 
L 175.492231 243.546287 
L 178.77157 242.794693 
L 182.050909 242.031785 
L 185.330248 241.252635 
L 188.609587 240.453112 
L 191.888926 239.630103 
L 195.168264 238.781693 
L 198.447603 237.907299 
L 201.726942 237.007782 
L 205.006281 236.085528 
L 208.28562 235.144505 
L 211.564959 234.190294 
L 214.844298 233.230083 
L 218.123636 232.272623 
L 221.402975 231.328129 
L 224.682314 230.408124 
L 227.961653 229.525225 
L 231.240992 228.69286 
L 234.520331 227.924922 
L 237.799669 227.235373 
L 241.079008 226.637792 
L 244.358347 226.144887 
L 247.637686 225.767986 
L 250.917025 225.516523 
L 254.196364 225.397532 
L 257.475702 225.415172 
L 260.755041 225.57031 
L 264.03438 225.860169 
L 267.313719 226.278073 
L 270.593058 226.813298 
L 273.872397 227.451052 
L 277.151736 228.172587 
L 280.431074 228.955446 
L 283.710413 229.773845 
L 286.989752 230.599174 
L 290.269091 231.400597 
L 293.54843 232.145718 
L 296.827769 232.801294 
L 300.107107 233.333944 
L 303.386446 233.710836 
L 306.665785 233.900315 
L 309.945124 233.87247 
L 313.224463 233.599615 
L 316.503802 233.056715 
L 319.78314 232.221757 
L 323.062479 231.07611 
L 326.341818 229.604902 
L 329.621157 227.797439 
L 332.900496 225.647698 
L 336.179835 223.154887 
L 339.459174 220.324061 
L 342.738512 217.166736 
L 346.017851 213.701432 
L 349.29719 209.954051 
L 352.576529 205.957963 
L 355.855868 201.753681 
L 359.135207 197.388028 
L 362.414545 192.912686 
L 365.693884 188.382104 
L 368.973223 183.850757 
L 372.252562 179.36984 
L 375.531901 174.983533 
L 378.81124 170.725037 
L 382.090579 166.612654 
L 385.369917 162.646197 
L 388.649256 158.804038 
L 391.928595 155.04111 
L 395.207934 151.288107 
L 398.487273 147.452083 
" style="fill:none;stroke:#000000;stroke-linecap:square;stroke-width:0.5;"/>
   </g>
   <g id="line2d_33">
    <path clip-path="url(#pce9f24da9a)" d="M 73.832727 275.726118 
L 77.112066 275.903346 
L 80.391405 276.346274 
L 83.670744 276.931399 
L 86.950083 277.556114 
L 90.229421 278.139752 
L 93.50876 278.623296 
L 96.788099 278.967919 
L 100.067438 279.152634 
L 103.346777 279.17131 
L 106.626116 279.029376 
L 109.905455 278.740487 
L 113.184793 278.323394 
L 116.464132 277.799219 
L 119.743471 277.189249 
L 123.02281 276.513325 
L 126.302149 275.788815 
L 129.581488 275.030106 
L 132.860826 274.24855 
L 136.140165 273.452713 
L 139.419504 272.648833 
L 142.698843 271.841343 
L 145.978182 271.033391 
L 149.257521 270.227256 
L 152.53686 269.424648 
L 155.816198 268.626854 
L 159.095537 267.834768 
L 162.374876 267.048812 
L 165.654215 266.268817 
L 168.933554 265.493889 
L 172.212893 264.722321 
L 175.492231 263.951563 
L 178.77157 263.178299 
L 182.050909 262.398603 
L 185.330248 261.608207 
L 188.609587 260.802822 
L 191.888926 259.978522 
L 195.168264 259.132132 
L 198.447603 258.261615 
L 201.726942 257.366403 
L 205.006281 256.447674 
L 208.28562 255.508542 
L 211.564959 254.554147 
L 214.844298 253.591662 
L 218.123636 252.630183 
L 221.402975 251.68055 
L 224.682314 250.755067 
L 227.961653 249.867167 
L 231.240992 249.031005 
L 234.520331 248.261023 
L 237.799669 247.571475 
L 241.079008 246.975938 
L 244.358347 246.486828 
L 247.637686 246.114929 
L 250.917025 245.868944 
L 254.196364 245.755091 
L 257.475702 245.77675 
L 260.755041 245.934163 
L 264.03438 246.224205 
L 267.313719 246.640219 
L 270.593058 247.171918 
L 273.872397 247.805368 
L 277.151736 248.523027 
L 280.431074 249.303865 
L 283.710413 250.123555 
L 286.989752 250.954746 
L 290.269091 251.767415 
L 293.54843 252.529324 
L 296.827769 253.206571 
L 300.107107 253.764255 
L 303.386446 254.167243 
L 306.665785 254.381039 
L 309.945124 254.372728 
L 313.224463 254.11196 
L 316.503802 253.571933 
L 319.78314 252.730323 
L 323.062479 251.570076 
L 326.341818 250.080028 
L 329.621157 248.255275 
L 332.900496 246.097255 
L 336.179835 243.613534 
L 339.459174 240.817292 
L 342.738512 237.726562 
L 346.017851 234.363306 
L 349.29719 230.752416 
L 352.576529 226.920801 
L 355.855868 222.896672 
L 359.135207 218.709183 
L 362.414545 214.388532 
L 365.693884 209.966613 
L 368.973223 205.478219 
L 372.252562 200.962793 
L 375.531901 196.466596 
L 378.81124 192.045129 
L 382.090579 187.765591 
L 385.369917 183.709092 
L 388.649256 179.972354 
L 391.928595 176.66861 
L 395.207934 173.927458 
L 398.487273 171.89351 
" style="fill:none;stroke:#000000;stroke-linecap:square;stroke-width:0.5;"/>
   </g>
   <g id="line2d_34">
    <path clip-path="url(#pce9f24da9a)" d="M 73.832727 190.636719 
L 77.112066 194.220236 
L 80.391405 197.534296 
L 83.670744 200.569016 
L 86.950083 203.317799 
L 90.229421 205.777471 
L 93.50876 207.948348 
L 96.788099 209.83424 
L 100.067438 211.442367 
L 103.346777 212.783211 
L 106.626116 213.870287 
L 109.905455 214.71984 
L 113.184793 215.350487 
L 116.464132 215.782787 
L 119.743471 216.038771 
L 123.02281 216.141435 
L 126.302149 216.114204 
L 129.581488 215.98039 
L 132.860826 215.762652 
L 136.140165 215.482479 
L 139.419504 215.159705 
L 142.698843 214.812081 
L 145.978182 214.454906 
L 149.257521 214.100735 
L 152.53686 213.75918 
L 155.816198 213.436803 
L 159.095537 213.13711 
L 162.374876 212.860651 
L 165.654215 212.605221 
L 168.933554 212.366164 
L 172.212893 212.136765 
L 175.492231 211.908722 
L 178.77157 211.672692 
L 182.050909 211.418882 
L 185.330248 211.137676 
L 188.609587 210.82027 
L 191.888926 210.459304 
L 195.168264 210.049452 
L 198.447603 209.58797 
L 201.726942 209.075158 
L 205.006281 208.514734 
L 208.28562 207.914089 
L 211.564959 207.284419 
L 214.844298 206.640721 
L 218.123636 206.001636 
L 221.402975 205.389154 
L 224.682314 204.828165 
L 227.961653 204.345875 
L 231.240992 203.9711 
L 234.520331 203.733439 
L 237.799669 203.662362 
L 241.079008 203.786235 
L 244.358347 204.131304 
L 247.637686 204.720662 
L 250.917025 205.573253 
L 254.196364 206.702914 
L 257.475702 208.117518 
L 260.755041 209.818216 
L 264.03438 211.798836 
L 267.313719 214.045437 
L 270.593058 216.536065 
L 273.872397 219.240697 
L 277.151736 222.121411 
L 280.431074 225.132764 
L 283.710413 228.222397 
L 286.989752 231.331831 
L 290.269091 234.397476 
L 293.54843 237.351795 
L 296.827769 240.124629 
L 300.107107 242.644629 
L 303.386446 244.840778 
L 306.665785 246.643957 
L 309.945124 247.988515 
L 313.224463 248.813811 
L 316.503802 249.06568 
L 319.78314 248.69779 
L 323.062479 247.672853 
L 326.341818 245.963657 
L 329.621157 243.553899 
L 332.900496 240.438783 
L 336.179835 236.625378 
L 339.459174 232.13273 
L 342.738512 226.991705 
L 346.017851 221.244592 
L 349.29719 214.944455 
L 352.576529 208.154263 
L 355.855868 200.945815 
L 359.135207 193.398483 
L 362.414545 185.597811 
L 365.693884 177.634 
L 368.973223 169.600313 
L 372.252562 161.591443 
L 375.531901 153.701872 
L 378.81124 146.024271 
L 382.090579 138.647964 
L 385.369917 131.657494 
L 388.649256 125.131312 
L 391.928595 119.140628 
L 395.207934 113.748432 
L 398.487273 109.008696 
" style="fill:none;stroke:#ffa500;stroke-linecap:square;stroke-width:1.5;"/>
   </g>
   <g id="line2d_35">
    <path clip-path="url(#pce9f24da9a)" d="M 73.832727 134.966569 
L 77.112066 142.524358 
L 80.391405 148.085368 
L 83.670744 152.158439 
L 86.950083 155.17131 
L 90.229421 157.466484 
L 93.50876 159.302736 
L 96.788099 160.861449 
L 100.067438 162.256667 
L 103.346777 163.547629 
L 106.626116 164.752463 
L 109.905455 165.861827 
L 113.184793 166.851439 
L 116.464132 167.692674 
L 119.743471 168.360726 
L 123.02281 168.84008 
L 126.302149 169.127361 
L 129.581488 169.231832 
L 132.860826 169.174011 
L 136.140165 168.982947 
L 139.419504 168.692762 
L 142.698843 168.338997 
L 145.978182 167.955244 
L 149.257521 167.570399 
L 152.53686 167.206758 
L 155.816198 166.879024 
L 159.095537 166.594193 
L 162.374876 166.352169 
L 165.654215 166.146936 
L 168.933554 165.968055 
L 172.212893 165.80229 
L 175.492231 165.635168 
L 178.77157 165.452358 
L 182.050909 165.240777 
L 185.330248 164.9894 
L 188.609587 164.689793 
L 191.888926 164.336399 
L 195.168264 163.926662 
L 198.447603 163.46104 
L 201.726942 162.942969 
L 205.006281 162.37882 
L 208.28562 161.777869 
L 211.564959 161.152284 
L 214.844298 160.517116 
L 218.123636 159.890256 
L 221.402975 159.292342 
L 224.682314 158.746564 
L 227.961653 158.278358 
L 231.240992 157.914948 
L 234.520331 157.684742 
L 237.799669 157.616575 
L 241.079008 157.738812 
L 244.358347 158.07833 
L 247.637686 158.659412 
L 250.917025 159.502587 
L 254.196364 160.623465 
L 257.475702 162.031611 
L 260.755041 163.729528 
L 264.03438 165.711789 
L 267.313719 167.964399 
L 270.593058 170.464426 
L 273.872397 173.179961 
L 277.151736 176.070425 
L 280.431074 179.087238 
L 283.710413 182.174832 
L 286.989752 185.271961 
L 290.269091 188.313223 
L 293.54843 191.230713 
L 296.827769 193.955676 
L 300.107107 196.420049 
L 303.386446 198.557802 
L 306.665785 200.305982 
L 309.945124 201.60546 
L 313.224463 202.401371 
L 316.503802 202.643361 
L 319.78314 202.285738 
L 323.062479 201.287724 
L 326.341818 199.613963 
L 329.621157 197.235463 
L 332.900496 194.131085 
L 336.179835 190.289604 
L 339.459174 185.71227 
L 342.738512 180.415661 
L 346.017851 174.434501 
L 349.29719 167.823993 
L 352.576529 160.661153 
L 355.855868 153.044575 
L 359.135207 145.092141 
L 362.414545 136.93623 
L 365.693884 128.716223 
L 368.973223 120.568278 
L 372.252562 112.612673 
L 375.531901 104.939275 
L 378.81124 97.591994 
L 382.090579 90.553328 
L 385.369917 83.730243 
L 388.649256 76.942731 
L 391.928595 69.91632 
L 395.207934 62.279659 
L 398.487273 53.568 
" style="fill:none;stroke:#000000;stroke-linecap:square;stroke-width:0.5;"/>
   </g>
   <g id="line2d_36">
    <path clip-path="url(#pce9f24da9a)" d="M 73.832727 246.306868 
L 77.112066 245.916115 
L 80.391405 246.983224 
L 83.670744 248.979593 
L 86.950083 251.464289 
L 90.229421 254.088458 
L 93.50876 256.59396 
L 96.788099 258.80703 
L 100.067438 260.628066 
L 103.346777 262.018793 
L 106.626116 262.98811 
L 109.905455 263.577854 
L 113.184793 263.849536 
L 116.464132 263.8729 
L 119.743471 263.716816 
L 123.02281 263.44279 
L 126.302149 263.101047 
L 129.581488 262.728948 
L 132.860826 262.351293 
L 136.140165 261.98201 
L 139.419504 261.626648 
L 142.698843 261.285165 
L 145.978182 260.954567 
L 149.257521 260.63107 
L 152.53686 260.311602 
L 155.816198 259.994582 
L 159.095537 259.680027 
L 162.374876 259.369133 
L 165.654215 259.063506 
L 168.933554 258.764273 
L 172.212893 258.471239 
L 175.492231 258.182275 
L 178.77157 257.893026 
L 182.050909 257.596988 
L 185.330248 257.285952 
L 188.609587 256.950748 
L 191.888926 256.582208 
L 195.168264 256.172241 
L 198.447603 255.7149 
L 201.726942 255.207348 
L 205.006281 254.650649 
L 208.28562 254.050309 
L 211.564959 253.416555 
L 214.844298 252.764326 
L 218.123636 252.113017 
L 221.402975 251.485967 
L 224.682314 250.909765 
L 227.961653 250.413392 
L 231.240992 250.027252 
L 234.520331 249.782135 
L 237.799669 249.708148 
L 241.079008 249.833659 
L 244.358347 250.184278 
L 247.637686 250.781913 
L 250.917025 251.643918 
L 254.196364 252.782364 
L 257.475702 254.203425 
L 260.755041 255.906905 
L 264.03438 257.885882 
L 267.313719 260.126476 
L 270.593058 262.607704 
L 273.872397 265.301433 
L 277.151736 268.172396 
L 280.431074 271.178291 
L 283.710413 274.269961 
L 286.989752 277.391702 
L 290.269091 280.481729 
L 293.54843 283.472878 
L 296.827769 286.293582 
L 300.107107 288.869208 
L 303.386446 291.123754 
L 306.665785 292.981931 
L 309.945124 294.37157 
L 313.224463 295.226251 
L 316.503802 295.488 
L 319.78314 295.109842 
L 323.062479 294.057981 
L 326.341818 292.313351 
L 329.621157 289.872336 
L 332.900496 286.746481 
L 336.179835 282.961153 
L 339.459174 278.55319 
L 342.738512 273.56775 
L 346.017851 268.054683 
L 349.29719 262.064916 
L 352.576529 255.647373 
L 355.855868 248.847054 
L 359.135207 241.704824 
L 362.414545 234.259391 
L 365.693884 226.551777 
L 368.973223 218.632349 
L 372.252562 210.570213 
L 375.531901 202.464468 
L 378.81124 194.456547 
L 382.090579 186.7426 
L 385.369917 179.584744 
L 388.649256 173.319893 
L 391.928595 168.364937 
L 395.207934 165.217205 
L 398.487273 164.449392 
" style="fill:none;stroke:#000000;stroke-linecap:square;stroke-width:0.5;"/>
   </g>
   <g id="line2d_37">
    <path clip-path="url(#pce9f24da9a)" d="M 73.832727 263.616205 
L 77.112066 264.564421 
L 80.391405 265.481049 
L 83.670744 266.336224 
L 86.950083 267.104083 
L 90.229421 267.763056 
L 93.50876 268.296045 
L 96.788099 268.690487 
L 100.067438 268.938305 
L 103.346777 269.035756 
L 106.626116 268.983183 
L 109.905455 268.784679 
L 113.184793 268.447684 
L 116.464132 267.982512 
L 119.743471 267.401847 
L 123.02281 266.720192 
L 126.302149 265.953317 
L 129.581488 265.117699 
L 132.860826 264.229976 
L 136.140165 263.306431 
L 139.419504 262.362518 
L 142.698843 261.412435 
L 145.978182 260.468762 
L 149.257521 259.542165 
L 152.53686 258.641181 
L 155.816198 257.77207 
L 159.095537 256.938759 
L 162.374876 256.142861 
L 165.654215 255.383764 
L 168.933554 254.658808 
L 172.212893 253.963509 
L 175.492231 253.291857 
L 178.77157 252.63665 
L 182.050909 251.989873 
L 185.330248 251.343096 
L 188.609587 250.687889 
L 191.888926 250.016237 
L 195.168264 249.320939 
L 198.447603 248.595982 
L 201.726942 247.836886 
L 205.006281 247.040987 
L 208.28562 246.207677 
L 211.564959 245.338566 
L 214.844298 244.437581 
L 218.123636 243.510985 
L 221.402975 242.567311 
L 224.682314 241.617228 
L 227.961653 240.673315 
L 231.240992 239.74977 
L 234.520331 238.862047 
L 237.799669 238.026429 
L 241.079008 237.259554 
L 244.358347 236.5779 
L 247.637686 235.997234 
L 250.917025 235.532063 
L 254.196364 235.195067 
L 257.475702 234.996564 
L 260.755041 234.94399 
L 264.03438 235.041442 
L 267.313719 235.28926 
L 270.593058 235.683701 
L 273.872397 236.21669 
L 277.151736 236.875663 
L 280.431074 237.643522 
L 283.710413 238.498698 
L 286.989752 239.415325 
L 290.269091 240.363541 
L 293.54843 241.309894 
L 296.827769 242.217865 
L 300.107107 243.048496 
L 303.386446 243.761118 
L 306.665785 244.314156 
L 309.945124 244.666012 
L 313.224463 244.776001 
L 316.503802 244.605319 
L 319.78314 244.118037 
L 323.062479 243.282081 
L 326.341818 242.070195 
L 329.621157 240.460849 
L 332.900496 238.439084 
L 336.179835 235.997262 
L 339.459174 233.135708 
L 342.738512 229.863218 
L 346.017851 226.197421 
L 349.29719 222.164983 
L 352.576529 217.801633 
L 355.855868 213.152009 
L 359.135207 208.269311 
L 362.414545 203.214772 
L 365.693884 198.056935 
L 368.973223 192.870746 
L 372.252562 187.736481 
L 375.531901 182.738501 
L 378.81124 177.963882 
L 382.090579 173.500899 
L 385.369917 169.437434 
L 388.649256 165.859297 
L 391.928595 162.848509 
L 395.207934 160.481573 
L 398.487273 158.827761 
" style="fill:none;stroke:#0000ff;stroke-dasharray:5.55,2.4;stroke-dashoffset:0;stroke-width:1.5;"/>
   </g>
   <g id="line2d_38">
    <path clip-path="url(#pce9f24da9a)" d="M 73.832727 191.013587 
L 77.112066 194.200736 
L 80.391405 197.324708 
L 83.670744 200.325776 
L 86.950083 203.152211 
L 90.229421 205.760873 
L 93.50876 208.117568 
L 96.788099 210.197168 
L 100.067438 211.983521 
L 103.346777 213.46914 
L 106.626116 214.65471 
L 109.905455 215.54842 
L 113.184793 216.165146 
L 116.464132 216.52552 
L 119.743471 216.654905 
L 123.02281 216.582312 
L 126.302149 216.33928 
L 129.581488 215.958761 
L 132.860826 215.474031 
L 136.140165 214.917658 
L 139.419504 214.320549 
L 142.698843 213.711099 
L 145.978182 213.114469 
L 149.257521 212.551993 
L 152.53686 212.040741 
L 155.816198 211.593236 
L 159.095537 211.217332 
L 162.374876 210.916251 
L 165.654215 210.688775 
L 168.933554 210.529579 
L 172.212893 210.429698 
L 175.492231 210.377111 
L 178.77157 210.357414 
L 182.050909 210.354577 
L 185.330248 210.351739 
L 188.609587 210.332043 
L 191.888926 210.279455 
L 195.168264 210.179575 
L 198.447603 210.020379 
L 201.726942 209.792903 
L 205.006281 209.491822 
L 208.28562 209.115918 
L 211.564959 208.668413 
L 214.844298 208.15716 
L 218.123636 207.594684 
L 221.402975 206.998055 
L 224.682314 206.388605 
L 227.961653 205.791496 
L 231.240992 205.235123 
L 234.520331 204.750393 
L 237.799669 204.369874 
L 241.079008 204.126841 
L 244.358347 204.054248 
L 247.637686 204.183634 
L 250.917025 204.544008 
L 254.196364 205.160734 
L 257.475702 206.054443 
L 260.755041 207.240014 
L 264.03438 208.725633 
L 267.313719 210.511986 
L 270.593058 212.591586 
L 273.872397 214.948281 
L 277.151736 217.556943 
L 280.431074 220.383378 
L 283.710413 223.384446 
L 286.989752 226.508417 
L 290.269091 229.695567 
L 293.54843 232.878989 
L 296.827769 235.985647 
L 300.107107 238.937627 
L 303.386446 241.653587 
L 306.665785 244.05038 
L 309.945124 246.044809 
L 313.224463 247.555503 
L 316.503802 248.504856 
L 319.78314 248.821009 
L 323.062479 248.439815 
L 326.341818 247.306759 
L 329.621157 245.378783 
L 332.900496 242.625969 
L 336.179835 239.033043 
L 339.459174 234.600652 
L 342.738512 229.346388 
L 346.017851 223.30551 
L 349.29719 216.531351 
L 352.576529 209.095369 
L 355.855868 201.086837 
L 359.135207 192.612158 
L 362.414545 183.793797 
L 365.693884 174.768839 
L 368.973223 165.687179 
L 372.252562 156.709364 
L 375.531901 148.004123 
L 378.81124 139.7456 
L 382.090579 132.110351 
L 385.369917 125.274138 
L 388.649256 119.408581 
L 391.928595 114.677722 
L 395.207934 111.234566 
L 398.487273 109.217659 
" style="fill:none;stroke:#ffa500;stroke-dasharray:5.55,2.4;stroke-dashoffset:0;stroke-width:1.5;"/>
   </g>
   <g id="patch_3">
    <path d="M 57.6 307.584 
L 57.6 41.472 
" style="fill:none;stroke:#000000;stroke-linecap:square;stroke-linejoin:miter;stroke-width:0.8;"/>
   </g>
   <g id="patch_4">
    <path d="M 414.72 307.584 
L 414.72 41.472 
" style="fill:none;stroke:#000000;stroke-linecap:square;stroke-linejoin:miter;stroke-width:0.8;"/>
   </g>
   <g id="patch_5">
    <path d="M 57.6 307.584 
L 414.72 307.584 
" style="fill:none;stroke:#000000;stroke-linecap:square;stroke-linejoin:miter;stroke-width:0.8;"/>
   </g>
   <g id="patch_6">
    <path d="M 57.6 41.472 
L 414.72 41.472 
" style="fill:none;stroke:#000000;stroke-linecap:square;stroke-linejoin:miter;stroke-width:0.8;"/>
   </g>
   <g id="legend_1">
    <g id="patch_7">
     <path d="M 64.6 108.1845 
L 239.15625 108.1845 
Q 241.15625 108.1845 241.15625 106.1845 
L 241.15625 48.472 
Q 241.15625 46.472 239.15625 46.472 
L 64.6 46.472 
Q 62.6 46.472 62.6 48.472 
L 62.6 106.1845 
Q 62.6 108.1845 64.6 108.1845 
z
" style="fill:#ffffff;opacity:0.8;stroke:#cccccc;stroke-linejoin:miter;"/>
    </g>
    <g id="line2d_39">
     <path d="M 66.6 54.570438 
L 86.6 54.570438 
" style="fill:none;stroke:#0000ff;stroke-linecap:square;stroke-width:1.5;"/>
    </g>
    <g id="line2d_40"/>
    <g id="text_16">
     <!-- MF cheap GPR (regular GPR) -->
     <g transform="translate(94.6 58.070438)scale(0.1 -0.1)">
      <defs>
       <path d="M 9.8125 72.90625 
L 24.515625 72.90625 
L 43.109375 23.296875 
L 61.8125 72.90625 
L 76.515625 72.90625 
L 76.515625 0 
L 66.890625 0 
L 66.890625 64.015625 
L 48.09375 14.015625 
L 38.1875 14.015625 
L 19.390625 64.015625 
L 19.390625 0 
L 9.8125 0 
z
" id="DejaVuSans-77"/>
       <path d="M 9.8125 72.90625 
L 51.703125 72.90625 
L 51.703125 64.59375 
L 19.671875 64.59375 
L 19.671875 43.109375 
L 48.578125 43.109375 
L 48.578125 34.8125 
L 19.671875 34.8125 
L 19.671875 0 
L 9.8125 0 
z
" id="DejaVuSans-70"/>
       <path id="DejaVuSans-32"/>
       <path d="M 48.78125 52.59375 
L 48.78125 44.1875 
Q 44.96875 46.296875 41.140625 47.34375 
Q 37.3125 48.390625 33.40625 48.390625 
Q 24.65625 48.390625 19.8125 42.84375 
Q 14.984375 37.3125 14.984375 27.296875 
Q 14.984375 17.28125 19.8125 11.734375 
Q 24.65625 6.203125 33.40625 6.203125 
Q 37.3125 6.203125 41.140625 7.25 
Q 44.96875 8.296875 48.78125 10.40625 
L 48.78125 2.09375 
Q 45.015625 0.34375 40.984375 -0.53125 
Q 36.96875 -1.421875 32.421875 -1.421875 
Q 20.0625 -1.421875 12.78125 6.34375 
Q 5.515625 14.109375 5.515625 27.296875 
Q 5.515625 40.671875 12.859375 48.328125 
Q 20.21875 56 33.015625 56 
Q 37.15625 56 41.109375 55.140625 
Q 45.0625 54.296875 48.78125 52.59375 
z
" id="DejaVuSans-99"/>
       <path d="M 54.890625 33.015625 
L 54.890625 0 
L 45.90625 0 
L 45.90625 32.71875 
Q 45.90625 40.484375 42.875 44.328125 
Q 39.84375 48.1875 33.796875 48.1875 
Q 26.515625 48.1875 22.3125 43.546875 
Q 18.109375 38.921875 18.109375 30.90625 
L 18.109375 0 
L 9.078125 0 
L 9.078125 75.984375 
L 18.109375 75.984375 
L 18.109375 46.1875 
Q 21.34375 51.125 25.703125 53.5625 
Q 30.078125 56 35.796875 56 
Q 45.21875 56 50.046875 50.171875 
Q 54.890625 44.34375 54.890625 33.015625 
z
" id="DejaVuSans-104"/>
       <path d="M 56.203125 29.59375 
L 56.203125 25.203125 
L 14.890625 25.203125 
Q 15.484375 15.921875 20.484375 11.0625 
Q 25.484375 6.203125 34.421875 6.203125 
Q 39.59375 6.203125 44.453125 7.46875 
Q 49.3125 8.734375 54.109375 11.28125 
L 54.109375 2.78125 
Q 49.265625 0.734375 44.1875 -0.34375 
Q 39.109375 -1.421875 33.890625 -1.421875 
Q 20.796875 -1.421875 13.15625 6.1875 
Q 5.515625 13.8125 5.515625 26.8125 
Q 5.515625 40.234375 12.765625 48.109375 
Q 20.015625 56 32.328125 56 
Q 43.359375 56 49.78125 48.890625 
Q 56.203125 41.796875 56.203125 29.59375 
z
M 47.21875 32.234375 
Q 47.125 39.59375 43.09375 43.984375 
Q 39.0625 48.390625 32.421875 48.390625 
Q 24.90625 48.390625 20.390625 44.140625 
Q 15.875 39.890625 15.1875 32.171875 
z
" id="DejaVuSans-101"/>
       <path d="M 34.28125 27.484375 
Q 23.390625 27.484375 19.1875 25 
Q 14.984375 22.515625 14.984375 16.5 
Q 14.984375 11.71875 18.140625 8.90625 
Q 21.296875 6.109375 26.703125 6.109375 
Q 34.1875 6.109375 38.703125 11.40625 
Q 43.21875 16.703125 43.21875 25.484375 
L 43.21875 27.484375 
z
M 52.203125 31.203125 
L 52.203125 0 
L 43.21875 0 
L 43.21875 8.296875 
Q 40.140625 3.328125 35.546875 0.953125 
Q 30.953125 -1.421875 24.3125 -1.421875 
Q 15.921875 -1.421875 10.953125 3.296875 
Q 6 8.015625 6 15.921875 
Q 6 25.140625 12.171875 29.828125 
Q 18.359375 34.515625 30.609375 34.515625 
L 43.21875 34.515625 
L 43.21875 35.40625 
Q 43.21875 41.609375 39.140625 45 
Q 35.0625 48.390625 27.6875 48.390625 
Q 23 48.390625 18.546875 47.265625 
Q 14.109375 46.140625 10.015625 43.890625 
L 10.015625 52.203125 
Q 14.9375 54.109375 19.578125 55.046875 
Q 24.21875 56 28.609375 56 
Q 40.484375 56 46.34375 49.84375 
Q 52.203125 43.703125 52.203125 31.203125 
z
" id="DejaVuSans-97"/>
       <path d="M 18.109375 8.203125 
L 18.109375 -20.796875 
L 9.078125 -20.796875 
L 9.078125 54.6875 
L 18.109375 54.6875 
L 18.109375 46.390625 
Q 20.953125 51.265625 25.265625 53.625 
Q 29.59375 56 35.59375 56 
Q 45.5625 56 51.78125 48.09375 
Q 58.015625 40.1875 58.015625 27.296875 
Q 58.015625 14.40625 51.78125 6.484375 
Q 45.5625 -1.421875 35.59375 -1.421875 
Q 29.59375 -1.421875 25.265625 0.953125 
Q 20.953125 3.328125 18.109375 8.203125 
z
M 48.6875 27.296875 
Q 48.6875 37.203125 44.609375 42.84375 
Q 40.53125 48.484375 33.40625 48.484375 
Q 26.265625 48.484375 22.1875 42.84375 
Q 18.109375 37.203125 18.109375 27.296875 
Q 18.109375 17.390625 22.1875 11.75 
Q 26.265625 6.109375 33.40625 6.109375 
Q 40.53125 6.109375 44.609375 11.75 
Q 48.6875 17.390625 48.6875 27.296875 
z
" id="DejaVuSans-112"/>
       <path d="M 59.515625 10.40625 
L 59.515625 29.984375 
L 43.40625 29.984375 
L 43.40625 38.09375 
L 69.28125 38.09375 
L 69.28125 6.78125 
Q 63.578125 2.734375 56.6875 0.65625 
Q 49.8125 -1.421875 42 -1.421875 
Q 24.90625 -1.421875 15.25 8.5625 
Q 5.609375 18.5625 5.609375 36.375 
Q 5.609375 54.25 15.25 64.234375 
Q 24.90625 74.21875 42 74.21875 
Q 49.125 74.21875 55.546875 72.453125 
Q 61.96875 70.703125 67.390625 67.28125 
L 67.390625 56.78125 
Q 61.921875 61.421875 55.765625 63.765625 
Q 49.609375 66.109375 42.828125 66.109375 
Q 29.4375 66.109375 22.71875 58.640625 
Q 16.015625 51.171875 16.015625 36.375 
Q 16.015625 21.625 22.71875 14.15625 
Q 29.4375 6.6875 42.828125 6.6875 
Q 48.046875 6.6875 52.140625 7.59375 
Q 56.25 8.5 59.515625 10.40625 
z
" id="DejaVuSans-71"/>
       <path d="M 19.671875 64.796875 
L 19.671875 37.40625 
L 32.078125 37.40625 
Q 38.96875 37.40625 42.71875 40.96875 
Q 46.484375 44.53125 46.484375 51.125 
Q 46.484375 57.671875 42.71875 61.234375 
Q 38.96875 64.796875 32.078125 64.796875 
z
M 9.8125 72.90625 
L 32.078125 72.90625 
Q 44.34375 72.90625 50.609375 67.359375 
Q 56.890625 61.8125 56.890625 51.125 
Q 56.890625 40.328125 50.609375 34.8125 
Q 44.34375 29.296875 32.078125 29.296875 
L 19.671875 29.296875 
L 19.671875 0 
L 9.8125 0 
z
" id="DejaVuSans-80"/>
       <path d="M 44.390625 34.1875 
Q 47.5625 33.109375 50.5625 29.59375 
Q 53.5625 26.078125 56.59375 19.921875 
L 66.609375 0 
L 56 0 
L 46.6875 18.703125 
Q 43.0625 26.03125 39.671875 28.421875 
Q 36.28125 30.8125 30.421875 30.8125 
L 19.671875 30.8125 
L 19.671875 0 
L 9.8125 0 
L 9.8125 72.90625 
L 32.078125 72.90625 
Q 44.578125 72.90625 50.734375 67.671875 
Q 56.890625 62.453125 56.890625 51.90625 
Q 56.890625 45.015625 53.6875 40.46875 
Q 50.484375 35.9375 44.390625 34.1875 
z
M 19.671875 64.796875 
L 19.671875 38.921875 
L 32.078125 38.921875 
Q 39.203125 38.921875 42.84375 42.21875 
Q 46.484375 45.515625 46.484375 51.90625 
Q 46.484375 58.296875 42.84375 61.546875 
Q 39.203125 64.796875 32.078125 64.796875 
z
" id="DejaVuSans-82"/>
       <path d="M 31 75.875 
Q 24.46875 64.65625 21.28125 53.65625 
Q 18.109375 42.671875 18.109375 31.390625 
Q 18.109375 20.125 21.3125 9.0625 
Q 24.515625 -2 31 -13.1875 
L 23.1875 -13.1875 
Q 15.875 -1.703125 12.234375 9.375 
Q 8.59375 20.453125 8.59375 31.390625 
Q 8.59375 42.28125 12.203125 53.3125 
Q 15.828125 64.359375 23.1875 75.875 
z
" id="DejaVuSans-40"/>
       <path d="M 41.109375 46.296875 
Q 39.59375 47.171875 37.8125 47.578125 
Q 36.03125 48 33.890625 48 
Q 26.265625 48 22.1875 43.046875 
Q 18.109375 38.09375 18.109375 28.8125 
L 18.109375 0 
L 9.078125 0 
L 9.078125 54.6875 
L 18.109375 54.6875 
L 18.109375 46.1875 
Q 20.953125 51.171875 25.484375 53.578125 
Q 30.03125 56 36.53125 56 
Q 37.453125 56 38.578125 55.875 
Q 39.703125 55.765625 41.0625 55.515625 
z
" id="DejaVuSans-114"/>
       <path d="M 45.40625 27.984375 
Q 45.40625 37.75 41.375 43.109375 
Q 37.359375 48.484375 30.078125 48.484375 
Q 22.859375 48.484375 18.828125 43.109375 
Q 14.796875 37.75 14.796875 27.984375 
Q 14.796875 18.265625 18.828125 12.890625 
Q 22.859375 7.515625 30.078125 7.515625 
Q 37.359375 7.515625 41.375 12.890625 
Q 45.40625 18.265625 45.40625 27.984375 
z
M 54.390625 6.78125 
Q 54.390625 -7.171875 48.1875 -13.984375 
Q 42 -20.796875 29.203125 -20.796875 
Q 24.46875 -20.796875 20.265625 -20.09375 
Q 16.0625 -19.390625 12.109375 -17.921875 
L 12.109375 -9.1875 
Q 16.0625 -11.328125 19.921875 -12.34375 
Q 23.78125 -13.375 27.78125 -13.375 
Q 36.625 -13.375 41.015625 -8.765625 
Q 45.40625 -4.15625 45.40625 5.171875 
L 45.40625 9.625 
Q 42.625 4.78125 38.28125 2.390625 
Q 33.9375 0 27.875 0 
Q 17.828125 0 11.671875 7.65625 
Q 5.515625 15.328125 5.515625 27.984375 
Q 5.515625 40.671875 11.671875 48.328125 
Q 17.828125 56 27.875 56 
Q 33.9375 56 38.28125 53.609375 
Q 42.625 51.21875 45.40625 46.390625 
L 45.40625 54.6875 
L 54.390625 54.6875 
z
" id="DejaVuSans-103"/>
       <path d="M 8.5 21.578125 
L 8.5 54.6875 
L 17.484375 54.6875 
L 17.484375 21.921875 
Q 17.484375 14.15625 20.5 10.265625 
Q 23.53125 6.390625 29.59375 6.390625 
Q 36.859375 6.390625 41.078125 11.03125 
Q 45.3125 15.671875 45.3125 23.6875 
L 45.3125 54.6875 
L 54.296875 54.6875 
L 54.296875 0 
L 45.3125 0 
L 45.3125 8.40625 
Q 42.046875 3.421875 37.71875 1 
Q 33.40625 -1.421875 27.6875 -1.421875 
Q 18.265625 -1.421875 13.375 4.4375 
Q 8.5 10.296875 8.5 21.578125 
z
M 31.109375 56 
z
" id="DejaVuSans-117"/>
       <path d="M 9.421875 75.984375 
L 18.40625 75.984375 
L 18.40625 0 
L 9.421875 0 
z
" id="DejaVuSans-108"/>
       <path d="M 8.015625 75.875 
L 15.828125 75.875 
Q 23.140625 64.359375 26.78125 53.3125 
Q 30.421875 42.28125 30.421875 31.390625 
Q 30.421875 20.453125 26.78125 9.375 
Q 23.140625 -1.703125 15.828125 -13.1875 
L 8.015625 -13.1875 
Q 14.5 -2 17.703125 9.0625 
Q 20.90625 20.125 20.90625 31.390625 
Q 20.90625 42.671875 17.703125 53.65625 
Q 14.5 64.65625 8.015625 75.875 
z
" id="DejaVuSans-41"/>
      </defs>
      <use xlink:href="#DejaVuSans-77"/>
      <use x="86.279297" xlink:href="#DejaVuSans-70"/>
      <use x="143.798828" xlink:href="#DejaVuSans-32"/>
      <use x="175.585938" xlink:href="#DejaVuSans-99"/>
      <use x="230.566406" xlink:href="#DejaVuSans-104"/>
      <use x="293.945312" xlink:href="#DejaVuSans-101"/>
      <use x="355.46875" xlink:href="#DejaVuSans-97"/>
      <use x="416.748047" xlink:href="#DejaVuSans-112"/>
      <use x="480.224609" xlink:href="#DejaVuSans-32"/>
      <use x="512.011719" xlink:href="#DejaVuSans-71"/>
      <use x="589.501953" xlink:href="#DejaVuSans-80"/>
      <use x="649.804688" xlink:href="#DejaVuSans-82"/>
      <use x="719.287109" xlink:href="#DejaVuSans-32"/>
      <use x="751.074219" xlink:href="#DejaVuSans-40"/>
      <use x="790.087891" xlink:href="#DejaVuSans-114"/>
      <use x="828.951172" xlink:href="#DejaVuSans-101"/>
      <use x="890.474609" xlink:href="#DejaVuSans-103"/>
      <use x="953.951172" xlink:href="#DejaVuSans-117"/>
      <use x="1017.330078" xlink:href="#DejaVuSans-108"/>
      <use x="1045.113281" xlink:href="#DejaVuSans-97"/>
      <use x="1106.392578" xlink:href="#DejaVuSans-114"/>
      <use x="1147.505859" xlink:href="#DejaVuSans-32"/>
      <use x="1179.292969" xlink:href="#DejaVuSans-71"/>
      <use x="1256.783203" xlink:href="#DejaVuSans-80"/>
      <use x="1317.085938" xlink:href="#DejaVuSans-82"/>
      <use x="1386.568359" xlink:href="#DejaVuSans-41"/>
     </g>
    </g>
    <g id="line2d_41">
     <path d="M 66.6 69.248563 
L 86.6 69.248563 
" style="fill:none;stroke:#ffa500;stroke-linecap:square;stroke-width:1.5;"/>
    </g>
    <g id="line2d_42"/>
    <g id="text_17">
     <!-- MF expensive GPR -->
     <g transform="translate(94.6 72.748563)scale(0.1 -0.1)">
      <defs>
       <path d="M 54.890625 54.6875 
L 35.109375 28.078125 
L 55.90625 0 
L 45.3125 0 
L 29.390625 21.484375 
L 13.484375 0 
L 2.875 0 
L 24.125 28.609375 
L 4.6875 54.6875 
L 15.28125 54.6875 
L 29.78125 35.203125 
L 44.28125 54.6875 
z
" id="DejaVuSans-120"/>
       <path d="M 54.890625 33.015625 
L 54.890625 0 
L 45.90625 0 
L 45.90625 32.71875 
Q 45.90625 40.484375 42.875 44.328125 
Q 39.84375 48.1875 33.796875 48.1875 
Q 26.515625 48.1875 22.3125 43.546875 
Q 18.109375 38.921875 18.109375 30.90625 
L 18.109375 0 
L 9.078125 0 
L 9.078125 54.6875 
L 18.109375 54.6875 
L 18.109375 46.1875 
Q 21.34375 51.125 25.703125 53.5625 
Q 30.078125 56 35.796875 56 
Q 45.21875 56 50.046875 50.171875 
Q 54.890625 44.34375 54.890625 33.015625 
z
" id="DejaVuSans-110"/>
       <path d="M 44.28125 53.078125 
L 44.28125 44.578125 
Q 40.484375 46.53125 36.375 47.5 
Q 32.28125 48.484375 27.875 48.484375 
Q 21.1875 48.484375 17.84375 46.4375 
Q 14.5 44.390625 14.5 40.28125 
Q 14.5 37.15625 16.890625 35.375 
Q 19.28125 33.59375 26.515625 31.984375 
L 29.59375 31.296875 
Q 39.15625 29.25 43.1875 25.515625 
Q 47.21875 21.78125 47.21875 15.09375 
Q 47.21875 7.46875 41.1875 3.015625 
Q 35.15625 -1.421875 24.609375 -1.421875 
Q 20.21875 -1.421875 15.453125 -0.5625 
Q 10.6875 0.296875 5.421875 2 
L 5.421875 11.28125 
Q 10.40625 8.6875 15.234375 7.390625 
Q 20.0625 6.109375 24.8125 6.109375 
Q 31.15625 6.109375 34.5625 8.28125 
Q 37.984375 10.453125 37.984375 14.40625 
Q 37.984375 18.0625 35.515625 20.015625 
Q 33.0625 21.96875 24.703125 23.78125 
L 21.578125 24.515625 
Q 13.234375 26.265625 9.515625 29.90625 
Q 5.8125 33.546875 5.8125 39.890625 
Q 5.8125 47.609375 11.28125 51.796875 
Q 16.75 56 26.8125 56 
Q 31.78125 56 36.171875 55.265625 
Q 40.578125 54.546875 44.28125 53.078125 
z
" id="DejaVuSans-115"/>
       <path d="M 9.421875 54.6875 
L 18.40625 54.6875 
L 18.40625 0 
L 9.421875 0 
z
M 9.421875 75.984375 
L 18.40625 75.984375 
L 18.40625 64.59375 
L 9.421875 64.59375 
z
" id="DejaVuSans-105"/>
       <path d="M 2.984375 54.6875 
L 12.5 54.6875 
L 29.59375 8.796875 
L 46.6875 54.6875 
L 56.203125 54.6875 
L 35.6875 0 
L 23.484375 0 
z
" id="DejaVuSans-118"/>
      </defs>
      <use xlink:href="#DejaVuSans-77"/>
      <use x="86.279297" xlink:href="#DejaVuSans-70"/>
      <use x="143.798828" xlink:href="#DejaVuSans-32"/>
      <use x="175.585938" xlink:href="#DejaVuSans-101"/>
      <use x="235.359375" xlink:href="#DejaVuSans-120"/>
      <use x="294.539062" xlink:href="#DejaVuSans-112"/>
      <use x="358.015625" xlink:href="#DejaVuSans-101"/>
      <use x="419.539062" xlink:href="#DejaVuSans-110"/>
      <use x="482.917969" xlink:href="#DejaVuSans-115"/>
      <use x="535.017578" xlink:href="#DejaVuSans-105"/>
      <use x="562.800781" xlink:href="#DejaVuSans-118"/>
      <use x="621.980469" xlink:href="#DejaVuSans-101"/>
      <use x="683.503906" xlink:href="#DejaVuSans-32"/>
      <use x="715.291016" xlink:href="#DejaVuSans-71"/>
      <use x="792.78125" xlink:href="#DejaVuSans-80"/>
      <use x="853.083984" xlink:href="#DejaVuSans-82"/>
     </g>
    </g>
    <g id="line2d_43">
     <path d="M 66.6 83.926688 
L 86.6 83.926688 
" style="fill:none;stroke:#0000ff;stroke-dasharray:5.55,2.4;stroke-dashoffset:0;stroke-width:1.5;"/>
    </g>
    <g id="line2d_44"/>
    <g id="text_18">
     <!-- Exact cheap function -->
     <g transform="translate(94.6 87.426688)scale(0.1 -0.1)">
      <defs>
       <path d="M 9.8125 72.90625 
L 55.90625 72.90625 
L 55.90625 64.59375 
L 19.671875 64.59375 
L 19.671875 43.015625 
L 54.390625 43.015625 
L 54.390625 34.71875 
L 19.671875 34.71875 
L 19.671875 8.296875 
L 56.78125 8.296875 
L 56.78125 0 
L 9.8125 0 
z
" id="DejaVuSans-69"/>
       <path d="M 18.3125 70.21875 
L 18.3125 54.6875 
L 36.8125 54.6875 
L 36.8125 47.703125 
L 18.3125 47.703125 
L 18.3125 18.015625 
Q 18.3125 11.328125 20.140625 9.421875 
Q 21.96875 7.515625 27.59375 7.515625 
L 36.8125 7.515625 
L 36.8125 0 
L 27.59375 0 
Q 17.1875 0 13.234375 3.875 
Q 9.28125 7.765625 9.28125 18.015625 
L 9.28125 47.703125 
L 2.6875 47.703125 
L 2.6875 54.6875 
L 9.28125 54.6875 
L 9.28125 70.21875 
z
" id="DejaVuSans-116"/>
       <path d="M 37.109375 75.984375 
L 37.109375 68.5 
L 28.515625 68.5 
Q 23.6875 68.5 21.796875 66.546875 
Q 19.921875 64.59375 19.921875 59.515625 
L 19.921875 54.6875 
L 34.71875 54.6875 
L 34.71875 47.703125 
L 19.921875 47.703125 
L 19.921875 0 
L 10.890625 0 
L 10.890625 47.703125 
L 2.296875 47.703125 
L 2.296875 54.6875 
L 10.890625 54.6875 
L 10.890625 58.5 
Q 10.890625 67.625 15.140625 71.796875 
Q 19.390625 75.984375 28.609375 75.984375 
z
" id="DejaVuSans-102"/>
       <path d="M 30.609375 48.390625 
Q 23.390625 48.390625 19.1875 42.75 
Q 14.984375 37.109375 14.984375 27.296875 
Q 14.984375 17.484375 19.15625 11.84375 
Q 23.34375 6.203125 30.609375 6.203125 
Q 37.796875 6.203125 41.984375 11.859375 
Q 46.1875 17.53125 46.1875 27.296875 
Q 46.1875 37.015625 41.984375 42.703125 
Q 37.796875 48.390625 30.609375 48.390625 
z
M 30.609375 56 
Q 42.328125 56 49.015625 48.375 
Q 55.71875 40.765625 55.71875 27.296875 
Q 55.71875 13.875 49.015625 6.21875 
Q 42.328125 -1.421875 30.609375 -1.421875 
Q 18.84375 -1.421875 12.171875 6.21875 
Q 5.515625 13.875 5.515625 27.296875 
Q 5.515625 40.765625 12.171875 48.375 
Q 18.84375 56 30.609375 56 
z
" id="DejaVuSans-111"/>
      </defs>
      <use xlink:href="#DejaVuSans-69"/>
      <use x="63.183594" xlink:href="#DejaVuSans-120"/>
      <use x="122.363281" xlink:href="#DejaVuSans-97"/>
      <use x="183.642578" xlink:href="#DejaVuSans-99"/>
      <use x="238.623047" xlink:href="#DejaVuSans-116"/>
      <use x="277.832031" xlink:href="#DejaVuSans-32"/>
      <use x="309.619141" xlink:href="#DejaVuSans-99"/>
      <use x="364.599609" xlink:href="#DejaVuSans-104"/>
      <use x="427.978516" xlink:href="#DejaVuSans-101"/>
      <use x="489.501953" xlink:href="#DejaVuSans-97"/>
      <use x="550.78125" xlink:href="#DejaVuSans-112"/>
      <use x="614.257812" xlink:href="#DejaVuSans-32"/>
      <use x="646.044922" xlink:href="#DejaVuSans-102"/>
      <use x="681.25" xlink:href="#DejaVuSans-117"/>
      <use x="744.628906" xlink:href="#DejaVuSans-110"/>
      <use x="808.007812" xlink:href="#DejaVuSans-99"/>
      <use x="862.988281" xlink:href="#DejaVuSans-116"/>
      <use x="902.197266" xlink:href="#DejaVuSans-105"/>
      <use x="929.980469" xlink:href="#DejaVuSans-111"/>
      <use x="991.162109" xlink:href="#DejaVuSans-110"/>
     </g>
    </g>
    <g id="line2d_45">
     <path d="M 66.6 98.604813 
L 86.6 98.604813 
" style="fill:none;stroke:#ffa500;stroke-dasharray:5.55,2.4;stroke-dashoffset:0;stroke-width:1.5;"/>
    </g>
    <g id="line2d_46"/>
    <g id="text_19">
     <!-- Exact expensive function -->
     <g transform="translate(94.6 102.104813)scale(0.1 -0.1)">
      <use xlink:href="#DejaVuSans-69"/>
      <use x="63.183594" xlink:href="#DejaVuSans-120"/>
      <use x="122.363281" xlink:href="#DejaVuSans-97"/>
      <use x="183.642578" xlink:href="#DejaVuSans-99"/>
      <use x="238.623047" xlink:href="#DejaVuSans-116"/>
      <use x="277.832031" xlink:href="#DejaVuSans-32"/>
      <use x="309.619141" xlink:href="#DejaVuSans-101"/>
      <use x="369.392578" xlink:href="#DejaVuSans-120"/>
      <use x="428.572266" xlink:href="#DejaVuSans-112"/>
      <use x="492.048828" xlink:href="#DejaVuSans-101"/>
      <use x="553.572266" xlink:href="#DejaVuSans-110"/>
      <use x="616.951172" xlink:href="#DejaVuSans-115"/>
      <use x="669.050781" xlink:href="#DejaVuSans-105"/>
      <use x="696.833984" xlink:href="#DejaVuSans-118"/>
      <use x="756.013672" xlink:href="#DejaVuSans-101"/>
      <use x="817.537109" xlink:href="#DejaVuSans-32"/>
      <use x="849.324219" xlink:href="#DejaVuSans-102"/>
      <use x="884.529297" xlink:href="#DejaVuSans-117"/>
      <use x="947.908203" xlink:href="#DejaVuSans-110"/>
      <use x="1011.287109" xlink:href="#DejaVuSans-99"/>
      <use x="1066.267578" xlink:href="#DejaVuSans-116"/>
      <use x="1105.476562" xlink:href="#DejaVuSans-105"/>
      <use x="1133.259766" xlink:href="#DejaVuSans-111"/>
      <use x="1194.441406" xlink:href="#DejaVuSans-110"/>
     </g>
    </g>
   </g>
  </g>
 </g>
 <defs>
  <clipPath id="pce9f24da9a">
   <rect height="266.112" width="357.12" x="57.6" y="41.472"/>
  </clipPath>
 </defs>
</svg>
