<?xml version="1.0" encoding="utf-8" standalone="no"?>
<!DOCTYPE svg PUBLIC "-//W3C//DTD SVG 1.1//EN"
  "http://www.w3.org/Graphics/SVG/1.1/DTD/svg11.dtd">
<!-- Created with matplotlib (https://matplotlib.org/) -->
<svg height="345.6pt" version="1.1" viewBox="0 0 460.8 345.6" width="460.8pt" xmlns="http://www.w3.org/2000/svg" xmlns:xlink="http://www.w3.org/1999/xlink">
 <metadata>
  <rdf:RDF xmlns:cc="http://creativecommons.org/ns#" xmlns:dc="http://purl.org/dc/elements/1.1/" xmlns:rdf="http://www.w3.org/1999/02/22-rdf-syntax-ns#">
   <cc:Work>
    <dc:type rdf:resource="http://purl.org/dc/dcmitype/StillImage"/>
    <dc:date>2020-11-24T13:56:16.608007</dc:date>
    <dc:format>image/svg+xml</dc:format>
    <dc:creator>
     <cc:Agent>
      <dc:title>Matplotlib v3.3.1, https://matplotlib.org/</dc:title>
     </cc:Agent>
    </dc:creator>
   </cc:Work>
  </rdf:RDF>
 </metadata>
 <defs>
  <style type="text/css">*{stroke-linecap:butt;stroke-linejoin:round;}</style>
 </defs>
 <g id="figure_1">
  <g id="patch_1">
   <path d="M 0 345.6 
L 460.8 345.6 
L 460.8 0 
L 0 0 
z
" style="fill:#ffffff;"/>
  </g>
  <g id="axes_1">
   <g id="patch_2">
    <path d="M 57.6 307.584 
L 414.72 307.584 
L 414.72 41.472 
L 57.6 41.472 
z
" style="fill:#ffffff;"/>
   </g>
   <g id="PolyCollection_1">
    <defs>
     <path d="M 73.832727 -93.544788 
L 73.832727 -50.112 
L 77.112066 -50.863667 
L 80.391405 -51.544305 
L 83.670744 -52.159072 
L 86.950083 -52.713033 
L 90.229421 -53.211138 
L 93.50876 -53.658214 
L 96.788099 -54.058944 
L 100.067438 -54.417859 
L 103.346777 -54.739325 
L 106.626116 -55.027535 
L 109.905455 -55.286499 
L 113.184793 -55.520041 
L 116.464132 -55.73179 
L 119.743471 -55.925181 
L 123.02281 -56.10345 
L 126.302149 -56.269638 
L 129.581488 -56.426586 
L 132.860826 -56.576944 
L 136.140165 -56.723169 
L 139.419504 -56.867535 
L 142.698843 -57.012137 
L 145.978182 -57.158895 
L 149.257521 -57.309567 
L 152.53686 -57.465755 
L 155.816198 -57.628915 
L 159.095537 -57.800367 
L 162.374876 -57.981306 
L 165.654215 -58.172812 
L 168.933554 -58.375862 
L 172.212893 -58.591341 
L 175.492231 -58.820054 
L 178.77157 -59.062738 
L 182.050909 -59.32007 
L 185.330248 -59.592684 
L 188.609587 -59.881175 
L 191.888926 -60.186114 
L 195.168264 -60.508058 
L 198.447603 -60.847557 
L 201.726942 -61.205161 
L 205.006281 -61.581435 
L 208.28562 -61.976958 
L 211.564959 -62.392336 
L 214.844298 -62.828201 
L 218.123636 -63.285224 
L 221.402975 -63.764108 
L 224.682314 -64.2656 
L 227.961653 -64.790488 
L 231.240992 -65.339603 
L 234.520331 -65.913816 
L 237.799669 -66.51404 
L 241.079008 -67.141225 
L 244.358347 -67.796355 
L 247.637686 -68.480442 
L 250.917025 -69.194525 
L 254.196364 -69.939657 
L 257.475702 -70.7169 
L 260.755041 -71.527318 
L 264.03438 -72.371965 
L 267.313719 -73.251876 
L 270.593058 -74.168055 
L 273.872397 -75.121464 
L 277.151736 -76.113011 
L 280.431074 -77.143535 
L 283.710413 -78.213793 
L 286.989752 -79.324449 
L 290.269091 -80.476053 
L 293.54843 -81.669035 
L 296.827769 -82.903683 
L 300.107107 -84.180131 
L 303.386446 -85.498345 
L 306.665785 -86.858106 
L 309.945124 -88.258998 
L 313.224463 -89.700393 
L 316.503802 -91.181437 
L 319.78314 -92.701037 
L 323.062479 -94.25785 
L 326.341818 -95.85027 
L 329.621157 -97.476416 
L 332.900496 -99.134128 
L 336.179835 -100.820951 
L 339.459174 -102.534134 
L 342.738512 -104.270621 
L 346.017851 -106.027047 
L 349.29719 -107.799733 
L 352.576529 -109.584689 
L 355.855868 -111.377611 
L 359.135207 -113.173883 
L 362.414545 -114.96858 
L 365.693884 -116.756476 
L 368.973223 -118.532049 
L 372.252562 -120.289489 
L 375.531901 -122.022712 
L 378.81124 -123.725372 
L 382.090579 -125.390872 
L 385.369917 -127.012386 
L 388.649256 -128.582873 
L 391.928595 -130.095096 
L 395.207934 -131.54165 
L 398.487273 -132.914978 
L 398.487273 -176.347766 
L 398.487273 -176.347766 
L 395.207934 -173.670921 
L 391.928595 -171.069963 
L 388.649256 -168.541577 
L 385.369917 -166.082532 
L 382.090579 -163.689706 
L 378.81124 -161.36009 
L 375.531901 -159.090807 
L 372.252562 -156.879117 
L 368.973223 -154.722428 
L 365.693884 -152.618306 
L 362.414545 -150.564474 
L 359.135207 -148.558824 
L 355.855868 -146.599415 
L 352.576529 -144.684474 
L 349.29719 -142.8124 
L 346.017851 -140.981758 
L 342.738512 -139.19128 
L 339.459174 -137.439858 
L 336.179835 -135.72654 
L 332.900496 -134.050525 
L 329.621157 -132.411153 
L 326.341818 -130.807899 
L 323.062479 -129.24036 
L 319.78314 -127.708253 
L 316.503802 -126.211394 
L 313.224463 -124.749697 
L 309.945124 -123.323154 
L 306.665785 -121.931831 
L 303.386446 -120.57585 
L 300.107107 -119.255378 
L 296.827769 -117.970618 
L 293.54843 -116.721793 
L 290.269091 -115.509136 
L 286.989752 -114.332881 
L 283.710413 -113.193244 
L 280.431074 -112.090422 
L 277.151736 -111.024574 
L 273.872397 -109.995818 
L 270.593058 -109.004218 
L 267.313719 -108.049778 
L 264.03438 -107.132431 
L 260.755041 -106.252039 
L 257.475702 -105.408379 
L 254.196364 -104.601146 
L 250.917025 -103.829945 
L 247.637686 -103.094288 
L 244.358347 -102.393595 
L 241.079008 -101.727191 
L 237.799669 -101.094307 
L 234.520331 -100.494083 
L 231.240992 -99.925569 
L 227.961653 -99.387729 
L 224.682314 -98.879446 
L 221.402975 -98.399528 
L 218.123636 -97.946713 
L 214.844298 -97.51968 
L 211.564959 -97.117056 
L 208.28562 -96.737424 
L 205.006281 -96.379337 
L 201.726942 -96.041325 
L 198.447603 -95.721911 
L 195.168264 -95.419621 
L 191.888926 -95.133001 
L 188.609587 -94.860626 
L 185.330248 -94.601116 
L 182.050909 -94.353153 
L 178.77157 -94.115495 
L 175.492231 -93.886989 
L 172.212893 -93.666588 
L 168.933554 -93.453367 
L 165.654215 -93.246538 
L 162.374876 -93.045463 
L 159.095537 -92.849671 
L 155.816198 -92.658872 
L 152.53686 -92.47297 
L 149.257521 -92.292077 
L 145.978182 -92.116524 
L 142.698843 -91.946874 
L 139.419504 -91.783933 
L 136.140165 -91.628758 
L 132.860826 -91.482667 
L 129.581488 -91.347244 
L 126.302149 -91.224349 
L 123.02281 -91.116117 
L 119.743471 -91.024965 
L 116.464132 -90.953593 
L 113.184793 -90.904982 
L 109.905455 -90.882393 
L 106.626116 -90.889364 
L 103.346777 -90.929704 
L 100.067438 -91.007486 
L 96.788099 -91.127038 
L 93.50876 -91.292932 
L 90.229421 -91.509971 
L 86.950083 -91.783179 
L 83.670744 -92.117776 
L 80.391405 -92.519172 
L 77.112066 -92.992937 
L 73.832727 -93.544788 
z
" id="mf8fd4d0ce5" style="stroke:#0000ff;stroke-opacity:0.2;"/>
    </defs>
    <g clip-path="url(#p962000c6da)">
     <use style="fill:#0000ff;fill-opacity:0.2;stroke:#0000ff;stroke-opacity:0.2;" x="0" xlink:href="#mf8fd4d0ce5" y="345.6"/>
    </g>
   </g>
   <g id="PolyCollection_2">
    <defs>
     <path d="M 73.832727 -214.435774 
L 73.832727 -63.613519 
L 77.112066 -65.288157 
L 80.391405 -66.710467 
L 83.670744 -67.89881 
L 86.950083 -68.871178 
L 90.229421 -69.645134 
L 93.50876 -70.237752 
L 96.788099 -70.665572 
L 100.067438 -70.944544 
L 103.346777 -71.089998 
L 106.626116 -71.116601 
L 109.905455 -71.038329 
L 113.184793 -70.868448 
L 116.464132 -70.619487 
L 119.743471 -70.303236 
L 123.02281 -69.930727 
L 126.302149 -69.512241 
L 129.581488 -69.057307 
L 132.860826 -68.574711 
L 136.140165 -68.072507 
L 139.419504 -67.558036 
L 142.698843 -67.037942 
L 145.978182 -66.518205 
L 149.257521 -66.004162 
L 152.53686 -65.500539 
L 155.816198 -65.011488 
L 159.095537 -64.540621 
L 162.374876 -64.091047 
L 165.654215 -63.665416 
L 168.933554 -63.265954 
L 172.212893 -62.894512 
L 175.492231 -62.552601 
L 178.77157 -62.241443 
L 182.050909 -61.962005 
L 185.330248 -61.715046 
L 188.609587 -61.501159 
L 191.888926 -61.320806 
L 195.168264 -61.174361 
L 198.447603 -61.062144 
L 201.726942 -60.984457 
L 205.006281 -60.941617 
L 208.28562 -60.933984 
L 211.564959 -60.961989 
L 214.844298 -61.026159 
L 218.123636 -61.127137 
L 221.402975 -61.2657 
L 224.682314 -61.442777 
L 227.961653 -61.659453 
L 231.240992 -61.916987 
L 234.520331 -62.216805 
L 237.799669 -62.560508 
L 241.079008 -62.949867 
L 244.358347 -63.386815 
L 247.637686 -63.873437 
L 250.917025 -64.411957 
L 254.196364 -65.004719 
L 257.475702 -65.654166 
L 260.755041 -66.362817 
L 264.03438 -67.133238 
L 267.313719 -67.968012 
L 270.593058 -68.869708 
L 273.872397 -69.840838 
L 277.151736 -70.883827 
L 280.431074 -72.000964 
L 283.710413 -73.194367 
L 286.989752 -74.465931 
L 290.269091 -75.817287 
L 293.54843 -77.249752 
L 296.827769 -78.764283 
L 300.107107 -80.361427 
L 303.386446 -82.04127 
L 306.665785 -83.803393 
L 309.945124 -85.646822 
L 313.224463 -87.569977 
L 316.503802 -89.570633 
L 319.78314 -91.645869 
L 323.062479 -93.792029 
L 326.341818 -96.004683 
L 329.621157 -98.278586 
L 332.900496 -100.607647 
L 336.179835 -102.984898 
L 339.459174 -105.402467 
L 342.738512 -107.851554 
L 346.017851 -110.322415 
L 349.29719 -112.804347 
L 352.576529 -115.285682 
L 355.855868 -117.753782 
L 359.135207 -120.195042 
L 362.414545 -122.5949 
L 365.693884 -124.937848 
L 368.973223 -127.207456 
L 372.252562 -129.386396 
L 375.531901 -131.456474 
L 378.81124 -133.398673 
L 382.090579 -135.193191 
L 385.369917 -136.819497 
L 388.649256 -138.256386 
L 391.928595 -139.482042 
L 395.207934 -140.474105 
L 398.487273 -141.209746 
L 398.487273 -292.032 
L 398.487273 -292.032 
L 395.207934 -286.769839 
L 391.928595 -281.76906 
L 388.649256 -277.014733 
L 385.369917 -272.492286 
L 382.090579 -268.187563 
L 378.81124 -264.086876 
L 375.531901 -260.177052 
L 372.252562 -256.445477 
L 368.973223 -252.88013 
L 365.693884 -249.469618 
L 362.414545 -246.203197 
L 359.135207 -243.070797 
L 355.855868 -240.063033 
L 352.576529 -237.171218 
L 349.29719 -234.387362 
L 346.017851 -231.704177 
L 342.738512 -229.115066 
L 339.459174 -226.614117 
L 336.179835 -224.196082 
L 332.900496 -221.856364 
L 329.621157 -219.590988 
L 326.341818 -217.396577 
L 323.062479 -215.270324 
L 319.78314 -213.209954 
L 316.503802 -211.213689 
L 313.224463 -209.280216 
L 309.945124 -207.408637 
L 306.665785 -205.598439 
L 303.386446 -203.84944 
L 300.107107 -202.161754 
L 296.827769 -200.535746 
L 293.54843 -198.971984 
L 290.269091 -197.471199 
L 286.989752 -196.034241 
L 283.710413 -194.662039 
L 280.431074 -193.355556 
L 277.151736 -192.115755 
L 273.872397 -190.943557 
L 270.593058 -189.839808 
L 267.313719 -188.805248 
L 264.03438 -187.840476 
L 260.755041 -186.945926 
L 257.475702 -186.121842 
L 254.196364 -185.368256 
L 250.917025 -184.684966 
L 247.637686 -184.07153 
L 244.358347 -183.527245 
L 241.079008 -183.051146 
L 237.799669 -182.641996 
L 234.520331 -182.298293 
L 231.240992 -182.018265 
L 227.961653 -181.799884 
L 224.682314 -181.640869 
L 221.402975 -181.538709 
L 218.123636 -181.490674 
L 214.844298 -181.493836 
L 211.564959 -181.545099 
L 208.28562 -181.641222 
L 205.006281 -181.778852 
L 201.726942 -181.954557 
L 198.447603 -182.164862 
L 195.168264 -182.406289 
L 191.888926 -182.675398 
L 188.609587 -182.968831 
L 185.330248 -183.283357 
L 182.050909 -183.615917 
L 178.77157 -183.963675 
L 175.492231 -184.324064 
L 172.212893 -184.694839 
L 168.933554 -185.074124 
L 165.654215 -185.460461 
L 162.374876 -185.852863 
L 159.095537 -186.25086 
L 155.816198 -186.654545 
L 152.53686 -187.064624 
L 149.257521 -187.482457 
L 145.978182 -187.9101 
L 142.698843 -188.350344 
L 139.419504 -188.806752 
L 136.140165 -189.283691 
L 132.860826 -189.786361 
L 129.581488 -190.32082 
L 126.302149 -190.894003 
L 123.02281 -191.513742 
L 119.743471 -192.188771 
L 116.464132 -192.928739 
L 113.184793 -193.744203 
L 109.905455 -194.646627 
L 106.626116 -195.648371 
L 103.346777 -196.762672 
L 100.067438 -198.003625 
L 96.788099 -199.386149 
L 93.50876 -200.925955 
L 90.229421 -202.639506 
L 86.950083 -204.543967 
L 83.670744 -206.657156 
L 80.391405 -208.997484 
L 77.112066 -211.58389 
L 73.832727 -214.435774 
z
" id="m0240aa3831" style="stroke:#ffa500;stroke-opacity:0.2;"/>
    </defs>
    <g clip-path="url(#p962000c6da)">
     <use style="fill:#ffa500;fill-opacity:0.2;stroke:#ffa500;stroke-opacity:0.2;" x="0" xlink:href="#m0240aa3831" y="345.6"/>
    </g>
   </g>
   <g id="PathCollection_1">
    <defs>
     <path d="M 0 3 
C 0.795609 3 1.55874 2.683901 2.12132 2.12132 
C 2.683901 1.55874 3 0.795609 3 0 
C 3 -0.795609 2.683901 -1.55874 2.12132 -2.12132 
C 1.55874 -2.683901 0.795609 -3 0 -3 
C -0.795609 -3 -1.55874 -2.683901 -2.12132 -2.12132 
C -2.683901 -1.55874 -3 -0.795609 -3 0 
C -3 0.795609 -2.683901 1.55874 -2.12132 2.12132 
C -1.55874 2.683901 -0.795609 3 0 3 
z
" id="m8ed8b23295" style="stroke:#0000ff;"/>
    </defs>
    <g clip-path="url(#p962000c6da)">
     <use style="fill:#0000ff;stroke:#0000ff;" x="73.832727" xlink:href="#m8ed8b23295" y="275.42885"/>
     <use style="fill:#0000ff;stroke:#0000ff;" x="138.763636" xlink:href="#m8ed8b23295" y="274.419641"/>
     <use style="fill:#0000ff;stroke:#0000ff;" x="203.694545" xlink:href="#m8ed8b23295" y="260.013091"/>
     <use style="fill:#0000ff;stroke:#0000ff;" x="268.625455" xlink:href="#m8ed8b23295" y="248.693346"/>
     <use style="fill:#0000ff;stroke:#0000ff;" x="333.556364" xlink:href="#m8ed8b23295" y="251.116482"/>
     <use style="fill:#0000ff;stroke:#0000ff;" x="398.487273" xlink:href="#m8ed8b23295" y="176.034432"/>
    </g>
   </g>
   <g id="PathCollection_2">
    <defs>
     <path d="M 0 3 
C 0.795609 3 1.55874 2.683901 2.12132 2.12132 
C 2.683901 1.55874 3 0.795609 3 0 
C 3 -0.795609 2.683901 -1.55874 2.12132 -2.12132 
C 1.55874 -2.683901 0.795609 -3 0 -3 
C -0.795609 -3 -1.55874 -2.683901 -2.12132 -2.12132 
C -2.683901 -1.55874 -3 -0.795609 -3 0 
C -3 0.795609 -2.683901 1.55874 -2.12132 2.12132 
C -1.55874 2.683901 -0.795609 3 0 3 
z
" id="mfdf514deb9" style="stroke:#ffa500;"/>
    </defs>
    <g clip-path="url(#p962000c6da)">
     <use style="fill:#ffa500;stroke:#ffa500;" x="73.832727" xlink:href="#mfdf514deb9" y="206.56348"/>
     <use style="fill:#ffa500;stroke:#ffa500;" x="203.694545" xlink:href="#mfdf514deb9" y="224.213317"/>
     <use style="fill:#ffa500;stroke:#ffa500;" x="398.487273" xlink:href="#mfdf514deb9" y="128.978029"/>
    </g>
   </g>
   <g id="matplotlib.axis_1">
    <g id="xtick_1">
     <g id="line2d_1">
      <path clip-path="url(#p962000c6da)" d="M 73.832727 307.584 
L 73.832727 41.472 
" style="fill:none;stroke:#b0b0b0;stroke-linecap:square;stroke-width:0.8;"/>
     </g>
     <g id="line2d_2">
      <defs>
       <path d="M 0 0 
L 0 3.5 
" id="mf9207f4fec" style="stroke:#000000;stroke-width:0.8;"/>
      </defs>
      <g>
       <use style="stroke:#000000;stroke-width:0.8;" x="73.832727" xlink:href="#mf9207f4fec" y="307.584"/>
      </g>
     </g>
     <g id="text_1">
      <!-- 0.0 -->
      <g transform="translate(65.881165 322.182437)scale(0.1 -0.1)">
       <defs>
        <path d="M 31.78125 66.40625 
Q 24.171875 66.40625 20.328125 58.90625 
Q 16.5 51.421875 16.5 36.375 
Q 16.5 21.390625 20.328125 13.890625 
Q 24.171875 6.390625 31.78125 6.390625 
Q 39.453125 6.390625 43.28125 13.890625 
Q 47.125 21.390625 47.125 36.375 
Q 47.125 51.421875 43.28125 58.90625 
Q 39.453125 66.40625 31.78125 66.40625 
z
M 31.78125 74.21875 
Q 44.046875 74.21875 50.515625 64.515625 
Q 56.984375 54.828125 56.984375 36.375 
Q 56.984375 17.96875 50.515625 8.265625 
Q 44.046875 -1.421875 31.78125 -1.421875 
Q 19.53125 -1.421875 13.0625 8.265625 
Q 6.59375 17.96875 6.59375 36.375 
Q 6.59375 54.828125 13.0625 64.515625 
Q 19.53125 74.21875 31.78125 74.21875 
z
" id="DejaVuSans-48"/>
        <path d="M 10.6875 12.40625 
L 21 12.40625 
L 21 0 
L 10.6875 0 
z
" id="DejaVuSans-46"/>
       </defs>
       <use xlink:href="#DejaVuSans-48"/>
       <use x="63.623047" xlink:href="#DejaVuSans-46"/>
       <use x="95.410156" xlink:href="#DejaVuSans-48"/>
      </g>
     </g>
    </g>
    <g id="xtick_2">
     <g id="line2d_3">
      <path clip-path="url(#p962000c6da)" d="M 138.763636 307.584 
L 138.763636 41.472 
" style="fill:none;stroke:#b0b0b0;stroke-linecap:square;stroke-width:0.8;"/>
     </g>
     <g id="line2d_4">
      <g>
       <use style="stroke:#000000;stroke-width:0.8;" x="138.763636" xlink:href="#mf9207f4fec" y="307.584"/>
      </g>
     </g>
     <g id="text_2">
      <!-- 0.2 -->
      <g transform="translate(130.812074 322.182437)scale(0.1 -0.1)">
       <defs>
        <path d="M 19.1875 8.296875 
L 53.609375 8.296875 
L 53.609375 0 
L 7.328125 0 
L 7.328125 8.296875 
Q 12.9375 14.109375 22.625 23.890625 
Q 32.328125 33.6875 34.8125 36.53125 
Q 39.546875 41.84375 41.421875 45.53125 
Q 43.3125 49.21875 43.3125 52.78125 
Q 43.3125 58.59375 39.234375 62.25 
Q 35.15625 65.921875 28.609375 65.921875 
Q 23.96875 65.921875 18.8125 64.3125 
Q 13.671875 62.703125 7.8125 59.421875 
L 7.8125 69.390625 
Q 13.765625 71.78125 18.9375 73 
Q 24.125 74.21875 28.421875 74.21875 
Q 39.75 74.21875 46.484375 68.546875 
Q 53.21875 62.890625 53.21875 53.421875 
Q 53.21875 48.921875 51.53125 44.890625 
Q 49.859375 40.875 45.40625 35.40625 
Q 44.1875 33.984375 37.640625 27.21875 
Q 31.109375 20.453125 19.1875 8.296875 
z
" id="DejaVuSans-50"/>
       </defs>
       <use xlink:href="#DejaVuSans-48"/>
       <use x="63.623047" xlink:href="#DejaVuSans-46"/>
       <use x="95.410156" xlink:href="#DejaVuSans-50"/>
      </g>
     </g>
    </g>
    <g id="xtick_3">
     <g id="line2d_5">
      <path clip-path="url(#p962000c6da)" d="M 203.694545 307.584 
L 203.694545 41.472 
" style="fill:none;stroke:#b0b0b0;stroke-linecap:square;stroke-width:0.8;"/>
     </g>
     <g id="line2d_6">
      <g>
       <use style="stroke:#000000;stroke-width:0.8;" x="203.694545" xlink:href="#mf9207f4fec" y="307.584"/>
      </g>
     </g>
     <g id="text_3">
      <!-- 0.4 -->
      <g transform="translate(195.742983 322.182437)scale(0.1 -0.1)">
       <defs>
        <path d="M 37.796875 64.3125 
L 12.890625 25.390625 
L 37.796875 25.390625 
z
M 35.203125 72.90625 
L 47.609375 72.90625 
L 47.609375 25.390625 
L 58.015625 25.390625 
L 58.015625 17.1875 
L 47.609375 17.1875 
L 47.609375 0 
L 37.796875 0 
L 37.796875 17.1875 
L 4.890625 17.1875 
L 4.890625 26.703125 
z
" id="DejaVuSans-52"/>
       </defs>
       <use xlink:href="#DejaVuSans-48"/>
       <use x="63.623047" xlink:href="#DejaVuSans-46"/>
       <use x="95.410156" xlink:href="#DejaVuSans-52"/>
      </g>
     </g>
    </g>
    <g id="xtick_4">
     <g id="line2d_7">
      <path clip-path="url(#p962000c6da)" d="M 268.625455 307.584 
L 268.625455 41.472 
" style="fill:none;stroke:#b0b0b0;stroke-linecap:square;stroke-width:0.8;"/>
     </g>
     <g id="line2d_8">
      <g>
       <use style="stroke:#000000;stroke-width:0.8;" x="268.625455" xlink:href="#mf9207f4fec" y="307.584"/>
      </g>
     </g>
     <g id="text_4">
      <!-- 0.6 -->
      <g transform="translate(260.673892 322.182437)scale(0.1 -0.1)">
       <defs>
        <path d="M 33.015625 40.375 
Q 26.375 40.375 22.484375 35.828125 
Q 18.609375 31.296875 18.609375 23.390625 
Q 18.609375 15.53125 22.484375 10.953125 
Q 26.375 6.390625 33.015625 6.390625 
Q 39.65625 6.390625 43.53125 10.953125 
Q 47.40625 15.53125 47.40625 23.390625 
Q 47.40625 31.296875 43.53125 35.828125 
Q 39.65625 40.375 33.015625 40.375 
z
M 52.59375 71.296875 
L 52.59375 62.3125 
Q 48.875 64.0625 45.09375 64.984375 
Q 41.3125 65.921875 37.59375 65.921875 
Q 27.828125 65.921875 22.671875 59.328125 
Q 17.53125 52.734375 16.796875 39.40625 
Q 19.671875 43.65625 24.015625 45.921875 
Q 28.375 48.1875 33.59375 48.1875 
Q 44.578125 48.1875 50.953125 41.515625 
Q 57.328125 34.859375 57.328125 23.390625 
Q 57.328125 12.15625 50.6875 5.359375 
Q 44.046875 -1.421875 33.015625 -1.421875 
Q 20.359375 -1.421875 13.671875 8.265625 
Q 6.984375 17.96875 6.984375 36.375 
Q 6.984375 53.65625 15.1875 63.9375 
Q 23.390625 74.21875 37.203125 74.21875 
Q 40.921875 74.21875 44.703125 73.484375 
Q 48.484375 72.75 52.59375 71.296875 
z
" id="DejaVuSans-54"/>
       </defs>
       <use xlink:href="#DejaVuSans-48"/>
       <use x="63.623047" xlink:href="#DejaVuSans-46"/>
       <use x="95.410156" xlink:href="#DejaVuSans-54"/>
      </g>
     </g>
    </g>
    <g id="xtick_5">
     <g id="line2d_9">
      <path clip-path="url(#p962000c6da)" d="M 333.556364 307.584 
L 333.556364 41.472 
" style="fill:none;stroke:#b0b0b0;stroke-linecap:square;stroke-width:0.8;"/>
     </g>
     <g id="line2d_10">
      <g>
       <use style="stroke:#000000;stroke-width:0.8;" x="333.556364" xlink:href="#mf9207f4fec" y="307.584"/>
      </g>
     </g>
     <g id="text_5">
      <!-- 0.8 -->
      <g transform="translate(325.604801 322.182437)scale(0.1 -0.1)">
       <defs>
        <path d="M 31.78125 34.625 
Q 24.75 34.625 20.71875 30.859375 
Q 16.703125 27.09375 16.703125 20.515625 
Q 16.703125 13.921875 20.71875 10.15625 
Q 24.75 6.390625 31.78125 6.390625 
Q 38.8125 6.390625 42.859375 10.171875 
Q 46.921875 13.96875 46.921875 20.515625 
Q 46.921875 27.09375 42.890625 30.859375 
Q 38.875 34.625 31.78125 34.625 
z
M 21.921875 38.8125 
Q 15.578125 40.375 12.03125 44.71875 
Q 8.5 49.078125 8.5 55.328125 
Q 8.5 64.0625 14.71875 69.140625 
Q 20.953125 74.21875 31.78125 74.21875 
Q 42.671875 74.21875 48.875 69.140625 
Q 55.078125 64.0625 55.078125 55.328125 
Q 55.078125 49.078125 51.53125 44.71875 
Q 48 40.375 41.703125 38.8125 
Q 48.828125 37.15625 52.796875 32.3125 
Q 56.78125 27.484375 56.78125 20.515625 
Q 56.78125 9.90625 50.3125 4.234375 
Q 43.84375 -1.421875 31.78125 -1.421875 
Q 19.734375 -1.421875 13.25 4.234375 
Q 6.78125 9.90625 6.78125 20.515625 
Q 6.78125 27.484375 10.78125 32.3125 
Q 14.796875 37.15625 21.921875 38.8125 
z
M 18.3125 54.390625 
Q 18.3125 48.734375 21.84375 45.5625 
Q 25.390625 42.390625 31.78125 42.390625 
Q 38.140625 42.390625 41.71875 45.5625 
Q 45.3125 48.734375 45.3125 54.390625 
Q 45.3125 60.0625 41.71875 63.234375 
Q 38.140625 66.40625 31.78125 66.40625 
Q 25.390625 66.40625 21.84375 63.234375 
Q 18.3125 60.0625 18.3125 54.390625 
z
" id="DejaVuSans-56"/>
       </defs>
       <use xlink:href="#DejaVuSans-48"/>
       <use x="63.623047" xlink:href="#DejaVuSans-46"/>
       <use x="95.410156" xlink:href="#DejaVuSans-56"/>
      </g>
     </g>
    </g>
    <g id="xtick_6">
     <g id="line2d_11">
      <path clip-path="url(#p962000c6da)" d="M 398.487273 307.584 
L 398.487273 41.472 
" style="fill:none;stroke:#b0b0b0;stroke-linecap:square;stroke-width:0.8;"/>
     </g>
     <g id="line2d_12">
      <g>
       <use style="stroke:#000000;stroke-width:0.8;" x="398.487273" xlink:href="#mf9207f4fec" y="307.584"/>
      </g>
     </g>
     <g id="text_6">
      <!-- 1.0 -->
      <g transform="translate(390.53571 322.182437)scale(0.1 -0.1)">
       <defs>
        <path d="M 12.40625 8.296875 
L 28.515625 8.296875 
L 28.515625 63.921875 
L 10.984375 60.40625 
L 10.984375 69.390625 
L 28.421875 72.90625 
L 38.28125 72.90625 
L 38.28125 8.296875 
L 54.390625 8.296875 
L 54.390625 0 
L 12.40625 0 
z
" id="DejaVuSans-49"/>
       </defs>
       <use xlink:href="#DejaVuSans-49"/>
       <use x="63.623047" xlink:href="#DejaVuSans-46"/>
       <use x="95.410156" xlink:href="#DejaVuSans-48"/>
      </g>
     </g>
    </g>
   </g>
   <g id="matplotlib.axis_2">
    <g id="ytick_1">
     <g id="line2d_13">
      <path clip-path="url(#p962000c6da)" d="M 57.6 286.116594 
L 414.72 286.116594 
" style="fill:none;stroke:#b0b0b0;stroke-linecap:square;stroke-width:0.8;"/>
     </g>
     <g id="line2d_14">
      <defs>
       <path d="M 0 0 
L -3.5 0 
" id="m87659da124" style="stroke:#000000;stroke-width:0.8;"/>
      </defs>
      <g>
       <use style="stroke:#000000;stroke-width:0.8;" x="57.6" xlink:href="#m87659da124" y="286.116594"/>
      </g>
     </g>
     <g id="text_7">
      <!-- −10 -->
      <g transform="translate(29.495313 289.915813)scale(0.1 -0.1)">
       <defs>
        <path d="M 10.59375 35.5 
L 73.1875 35.5 
L 73.1875 27.203125 
L 10.59375 27.203125 
z
" id="DejaVuSans-8722"/>
       </defs>
       <use xlink:href="#DejaVuSans-8722"/>
       <use x="83.789062" xlink:href="#DejaVuSans-49"/>
       <use x="147.412109" xlink:href="#DejaVuSans-48"/>
      </g>
     </g>
    </g>
    <g id="ytick_2">
     <g id="line2d_15">
      <path clip-path="url(#p962000c6da)" d="M 57.6 255.815748 
L 414.72 255.815748 
" style="fill:none;stroke:#b0b0b0;stroke-linecap:square;stroke-width:0.8;"/>
     </g>
     <g id="line2d_16">
      <g>
       <use style="stroke:#000000;stroke-width:0.8;" x="57.6" xlink:href="#m87659da124" y="255.815748"/>
      </g>
     </g>
     <g id="text_8">
      <!-- −5 -->
      <g transform="translate(35.857813 259.614967)scale(0.1 -0.1)">
       <defs>
        <path d="M 10.796875 72.90625 
L 49.515625 72.90625 
L 49.515625 64.59375 
L 19.828125 64.59375 
L 19.828125 46.734375 
Q 21.96875 47.46875 24.109375 47.828125 
Q 26.265625 48.1875 28.421875 48.1875 
Q 40.625 48.1875 47.75 41.5 
Q 54.890625 34.8125 54.890625 23.390625 
Q 54.890625 11.625 47.5625 5.09375 
Q 40.234375 -1.421875 26.90625 -1.421875 
Q 22.3125 -1.421875 17.546875 -0.640625 
Q 12.796875 0.140625 7.71875 1.703125 
L 7.71875 11.625 
Q 12.109375 9.234375 16.796875 8.0625 
Q 21.484375 6.890625 26.703125 6.890625 
Q 35.15625 6.890625 40.078125 11.328125 
Q 45.015625 15.765625 45.015625 23.390625 
Q 45.015625 31 40.078125 35.4375 
Q 35.15625 39.890625 26.703125 39.890625 
Q 22.75 39.890625 18.8125 39.015625 
Q 14.890625 38.140625 10.796875 36.28125 
z
" id="DejaVuSans-53"/>
       </defs>
       <use xlink:href="#DejaVuSans-8722"/>
       <use x="83.789062" xlink:href="#DejaVuSans-53"/>
      </g>
     </g>
    </g>
    <g id="ytick_3">
     <g id="line2d_17">
      <path clip-path="url(#p962000c6da)" d="M 57.6 225.514902 
L 414.72 225.514902 
" style="fill:none;stroke:#b0b0b0;stroke-linecap:square;stroke-width:0.8;"/>
     </g>
     <g id="line2d_18">
      <g>
       <use style="stroke:#000000;stroke-width:0.8;" x="57.6" xlink:href="#m87659da124" y="225.514902"/>
      </g>
     </g>
     <g id="text_9">
      <!-- 0 -->
      <g transform="translate(44.2375 229.31412)scale(0.1 -0.1)">
       <use xlink:href="#DejaVuSans-48"/>
      </g>
     </g>
    </g>
    <g id="ytick_4">
     <g id="line2d_19">
      <path clip-path="url(#p962000c6da)" d="M 57.6 195.214055 
L 414.72 195.214055 
" style="fill:none;stroke:#b0b0b0;stroke-linecap:square;stroke-width:0.8;"/>
     </g>
     <g id="line2d_20">
      <g>
       <use style="stroke:#000000;stroke-width:0.8;" x="57.6" xlink:href="#m87659da124" y="195.214055"/>
      </g>
     </g>
     <g id="text_10">
      <!-- 5 -->
      <g transform="translate(44.2375 199.013274)scale(0.1 -0.1)">
       <use xlink:href="#DejaVuSans-53"/>
      </g>
     </g>
    </g>
    <g id="ytick_5">
     <g id="line2d_21">
      <path clip-path="url(#p962000c6da)" d="M 57.6 164.913209 
L 414.72 164.913209 
" style="fill:none;stroke:#b0b0b0;stroke-linecap:square;stroke-width:0.8;"/>
     </g>
     <g id="line2d_22">
      <g>
       <use style="stroke:#000000;stroke-width:0.8;" x="57.6" xlink:href="#m87659da124" y="164.913209"/>
      </g>
     </g>
     <g id="text_11">
      <!-- 10 -->
      <g transform="translate(37.875 168.712428)scale(0.1 -0.1)">
       <use xlink:href="#DejaVuSans-49"/>
       <use x="63.623047" xlink:href="#DejaVuSans-48"/>
      </g>
     </g>
    </g>
    <g id="ytick_6">
     <g id="line2d_23">
      <path clip-path="url(#p962000c6da)" d="M 57.6 134.612362 
L 414.72 134.612362 
" style="fill:none;stroke:#b0b0b0;stroke-linecap:square;stroke-width:0.8;"/>
     </g>
     <g id="line2d_24">
      <g>
       <use style="stroke:#000000;stroke-width:0.8;" x="57.6" xlink:href="#m87659da124" y="134.612362"/>
      </g>
     </g>
     <g id="text_12">
      <!-- 15 -->
      <g transform="translate(37.875 138.411581)scale(0.1 -0.1)">
       <use xlink:href="#DejaVuSans-49"/>
       <use x="63.623047" xlink:href="#DejaVuSans-53"/>
      </g>
     </g>
    </g>
    <g id="ytick_7">
     <g id="line2d_25">
      <path clip-path="url(#p962000c6da)" d="M 57.6 104.311516 
L 414.72 104.311516 
" style="fill:none;stroke:#b0b0b0;stroke-linecap:square;stroke-width:0.8;"/>
     </g>
     <g id="line2d_26">
      <g>
       <use style="stroke:#000000;stroke-width:0.8;" x="57.6" xlink:href="#m87659da124" y="104.311516"/>
      </g>
     </g>
     <g id="text_13">
      <!-- 20 -->
      <g transform="translate(37.875 108.110735)scale(0.1 -0.1)">
       <use xlink:href="#DejaVuSans-50"/>
       <use x="63.623047" xlink:href="#DejaVuSans-48"/>
      </g>
     </g>
    </g>
    <g id="ytick_8">
     <g id="line2d_27">
      <path clip-path="url(#p962000c6da)" d="M 57.6 74.01067 
L 414.72 74.01067 
" style="fill:none;stroke:#b0b0b0;stroke-linecap:square;stroke-width:0.8;"/>
     </g>
     <g id="line2d_28">
      <g>
       <use style="stroke:#000000;stroke-width:0.8;" x="57.6" xlink:href="#m87659da124" y="74.01067"/>
      </g>
     </g>
     <g id="text_14">
      <!-- 25 -->
      <g transform="translate(37.875 77.809888)scale(0.1 -0.1)">
       <use xlink:href="#DejaVuSans-50"/>
       <use x="63.623047" xlink:href="#DejaVuSans-53"/>
      </g>
     </g>
    </g>
    <g id="ytick_9">
     <g id="line2d_29">
      <path clip-path="url(#p962000c6da)" d="M 57.6 43.709823 
L 414.72 43.709823 
" style="fill:none;stroke:#b0b0b0;stroke-linecap:square;stroke-width:0.8;"/>
     </g>
     <g id="line2d_30">
      <g>
       <use style="stroke:#000000;stroke-width:0.8;" x="57.6" xlink:href="#m87659da124" y="43.709823"/>
      </g>
     </g>
     <g id="text_15">
      <!-- 30 -->
      <g transform="translate(37.875 47.509042)scale(0.1 -0.1)">
       <defs>
        <path d="M 40.578125 39.3125 
Q 47.65625 37.796875 51.625 33 
Q 55.609375 28.21875 55.609375 21.1875 
Q 55.609375 10.40625 48.1875 4.484375 
Q 40.765625 -1.421875 27.09375 -1.421875 
Q 22.515625 -1.421875 17.65625 -0.515625 
Q 12.796875 0.390625 7.625 2.203125 
L 7.625 11.71875 
Q 11.71875 9.328125 16.59375 8.109375 
Q 21.484375 6.890625 26.8125 6.890625 
Q 36.078125 6.890625 40.9375 10.546875 
Q 45.796875 14.203125 45.796875 21.1875 
Q 45.796875 27.640625 41.28125 31.265625 
Q 36.765625 34.90625 28.71875 34.90625 
L 20.21875 34.90625 
L 20.21875 43.015625 
L 29.109375 43.015625 
Q 36.375 43.015625 40.234375 45.921875 
Q 44.09375 48.828125 44.09375 54.296875 
Q 44.09375 59.90625 40.109375 62.90625 
Q 36.140625 65.921875 28.71875 65.921875 
Q 24.65625 65.921875 20.015625 65.03125 
Q 15.375 64.15625 9.8125 62.3125 
L 9.8125 71.09375 
Q 15.4375 72.65625 20.34375 73.4375 
Q 25.25 74.21875 29.59375 74.21875 
Q 40.828125 74.21875 47.359375 69.109375 
Q 53.90625 64.015625 53.90625 55.328125 
Q 53.90625 49.265625 50.4375 45.09375 
Q 46.96875 40.921875 40.578125 39.3125 
z
" id="DejaVuSans-51"/>
       </defs>
       <use xlink:href="#DejaVuSans-51"/>
       <use x="63.623047" xlink:href="#DejaVuSans-48"/>
      </g>
     </g>
    </g>
   </g>
   <g id="line2d_31">
    <path clip-path="url(#p962000c6da)" d="M 73.832727 273.771606 
L 77.112066 273.671698 
L 80.391405 273.568262 
L 83.670744 273.461576 
L 86.950083 273.351894 
L 90.229421 273.239445 
L 93.50876 273.124427 
L 96.788099 273.007009 
L 100.067438 272.887327 
L 103.346777 272.765485 
L 106.626116 272.64155 
L 109.905455 272.515554 
L 113.184793 272.387489 
L 116.464132 272.257309 
L 119.743471 272.124927 
L 123.02281 271.990216 
L 126.302149 271.853007 
L 129.581488 271.713085 
L 132.860826 271.570195 
L 136.140165 271.424036 
L 139.419504 271.274266 
L 142.698843 271.120495 
L 145.978182 270.962291 
L 149.257521 270.799178 
L 152.53686 270.630638 
L 155.816198 270.456107 
L 159.095537 270.274981 
L 162.374876 270.086616 
L 165.654215 269.890325 
L 168.933554 269.685385 
L 172.212893 269.471035 
L 175.492231 269.246478 
L 178.77157 269.010883 
L 182.050909 268.763388 
L 185.330248 268.5031 
L 188.609587 268.2291 
L 191.888926 267.940442 
L 195.168264 267.63616 
L 198.447603 267.315266 
L 201.726942 266.976757 
L 205.006281 266.619614 
L 208.28562 266.242809 
L 211.564959 265.845304 
L 214.844298 265.426059 
L 218.123636 264.984032 
L 221.402975 264.518182 
L 224.682314 264.027477 
L 227.961653 263.510891 
L 231.240992 262.967414 
L 234.520331 262.39605 
L 237.799669 261.795826 
L 241.079008 261.165792 
L 244.358347 260.505025 
L 247.637686 259.812635 
L 250.917025 259.087765 
L 254.196364 258.329598 
L 257.475702 257.53736 
L 260.755041 256.710322 
L 264.03438 255.847802 
L 267.313719 254.949173 
L 270.593058 254.013864 
L 273.872397 253.041359 
L 277.151736 252.031208 
L 280.431074 250.983022 
L 283.710413 249.896481 
L 286.989752 248.771335 
L 290.269091 247.607405 
L 293.54843 246.404586 
L 296.827769 245.162849 
L 300.107107 243.882245 
L 303.386446 242.562903 
L 306.665785 241.205031 
L 309.945124 239.808924 
L 313.224463 238.374955 
L 316.503802 236.903584 
L 319.78314 235.395355 
L 323.062479 233.850895 
L 326.341818 232.270916 
L 329.621157 230.656215 
L 332.900496 229.007673 
L 336.179835 227.326254 
L 339.459174 225.613004 
L 342.738512 223.86905 
L 346.017851 222.095598 
L 349.29719 220.293934 
L 352.576529 218.465418 
L 355.855868 216.611487 
L 359.135207 214.733646 
L 362.414545 212.833473 
L 365.693884 210.912609 
L 368.973223 208.972761 
L 372.252562 207.015697 
L 375.531901 205.04324 
L 378.81124 203.057269 
L 382.090579 201.059711 
L 385.369917 199.052541 
L 388.649256 197.037775 
L 391.928595 195.01747 
L 395.207934 192.993715 
L 398.487273 190.968628 
" style="fill:none;stroke:#0000ff;stroke-linecap:square;stroke-width:1.5;"/>
   </g>
   <g id="line2d_32">
    <path clip-path="url(#p962000c6da)" d="M 73.832727 252.055212 
L 77.112066 252.607063 
L 80.391405 253.080828 
L 83.670744 253.482224 
L 86.950083 253.816821 
L 90.229421 254.090029 
L 93.50876 254.307068 
L 96.788099 254.472962 
L 100.067438 254.592514 
L 103.346777 254.670296 
L 106.626116 254.710636 
L 109.905455 254.717607 
L 113.184793 254.695018 
L 116.464132 254.646407 
L 119.743471 254.575035 
L 123.02281 254.483883 
L 126.302149 254.375651 
L 129.581488 254.252756 
L 132.860826 254.117333 
L 136.140165 253.971242 
L 139.419504 253.816067 
L 142.698843 253.653126 
L 145.978182 253.483476 
L 149.257521 253.307923 
L 152.53686 253.12703 
L 155.816198 252.941128 
L 159.095537 252.750329 
L 162.374876 252.554537 
L 165.654215 252.353462 
L 168.933554 252.146633 
L 172.212893 251.933412 
L 175.492231 251.713011 
L 178.77157 251.484505 
L 182.050909 251.246847 
L 185.330248 250.998884 
L 188.609587 250.739374 
L 191.888926 250.466999 
L 195.168264 250.180379 
L 198.447603 249.878089 
L 201.726942 249.558675 
L 205.006281 249.220663 
L 208.28562 248.862576 
L 211.564959 248.482944 
L 214.844298 248.08032 
L 218.123636 247.653287 
L 221.402975 247.200472 
L 224.682314 246.720554 
L 227.961653 246.212271 
L 231.240992 245.674431 
L 234.520331 245.105917 
L 237.799669 244.505693 
L 241.079008 243.872809 
L 244.358347 243.206405 
L 247.637686 242.505712 
L 250.917025 241.770055 
L 254.196364 240.998854 
L 257.475702 240.191621 
L 260.755041 239.347961 
L 264.03438 238.467569 
L 267.313719 237.550222 
L 270.593058 236.595782 
L 273.872397 235.604182 
L 277.151736 234.575426 
L 280.431074 233.509578 
L 283.710413 232.406756 
L 286.989752 231.267119 
L 290.269091 230.090864 
L 293.54843 228.878207 
L 296.827769 227.629382 
L 300.107107 226.344622 
L 303.386446 225.02415 
L 306.665785 223.668169 
L 309.945124 222.276846 
L 313.224463 220.850303 
L 316.503802 219.388606 
L 319.78314 217.891747 
L 323.062479 216.35964 
L 326.341818 214.792101 
L 329.621157 213.188847 
L 332.900496 211.549475 
L 336.179835 209.87346 
L 339.459174 208.160142 
L 342.738512 206.40872 
L 346.017851 204.618242 
L 349.29719 202.7876 
L 352.576529 200.915526 
L 355.855868 199.000585 
L 359.135207 197.041176 
L 362.414545 195.035526 
L 365.693884 192.981694 
L 368.973223 190.877572 
L 372.252562 188.720883 
L 375.531901 186.509193 
L 378.81124 184.23991 
L 382.090579 181.910294 
L 385.369917 179.517468 
L 388.649256 177.058423 
L 391.928595 174.530037 
L 395.207934 171.929079 
L 398.487273 169.252234 
" style="fill:none;stroke:#000000;stroke-linecap:square;stroke-width:0.5;"/>
   </g>
   <g id="line2d_33">
    <path clip-path="url(#p962000c6da)" d="M 73.832727 295.488 
L 77.112066 294.736333 
L 80.391405 294.055695 
L 83.670744 293.440928 
L 86.950083 292.886967 
L 90.229421 292.388862 
L 93.50876 291.941786 
L 96.788099 291.541056 
L 100.067438 291.182141 
L 103.346777 290.860675 
L 106.626116 290.572465 
L 109.905455 290.313501 
L 113.184793 290.079959 
L 116.464132 289.86821 
L 119.743471 289.674819 
L 123.02281 289.49655 
L 126.302149 289.330362 
L 129.581488 289.173414 
L 132.860826 289.023056 
L 136.140165 288.876831 
L 139.419504 288.732465 
L 142.698843 288.587863 
L 145.978182 288.441105 
L 149.257521 288.290433 
L 152.53686 288.134245 
L 155.816198 287.971085 
L 159.095537 287.799633 
L 162.374876 287.618694 
L 165.654215 287.427188 
L 168.933554 287.224138 
L 172.212893 287.008659 
L 175.492231 286.779946 
L 178.77157 286.537262 
L 182.050909 286.27993 
L 185.330248 286.007316 
L 188.609587 285.718825 
L 191.888926 285.413886 
L 195.168264 285.091942 
L 198.447603 284.752443 
L 201.726942 284.394839 
L 205.006281 284.018565 
L 208.28562 283.623042 
L 211.564959 283.207664 
L 214.844298 282.771799 
L 218.123636 282.314776 
L 221.402975 281.835892 
L 224.682314 281.3344 
L 227.961653 280.809512 
L 231.240992 280.260397 
L 234.520331 279.686184 
L 237.799669 279.08596 
L 241.079008 278.458775 
L 244.358347 277.803645 
L 247.637686 277.119558 
L 250.917025 276.405475 
L 254.196364 275.660343 
L 257.475702 274.8831 
L 260.755041 274.072682 
L 264.03438 273.228035 
L 267.313719 272.348124 
L 270.593058 271.431945 
L 273.872397 270.478536 
L 277.151736 269.486989 
L 280.431074 268.456465 
L 283.710413 267.386207 
L 286.989752 266.275551 
L 290.269091 265.123947 
L 293.54843 263.930965 
L 296.827769 262.696317 
L 300.107107 261.419869 
L 303.386446 260.101655 
L 306.665785 258.741894 
L 309.945124 257.341002 
L 313.224463 255.899607 
L 316.503802 254.418563 
L 319.78314 252.898963 
L 323.062479 251.34215 
L 326.341818 249.74973 
L 329.621157 248.123584 
L 332.900496 246.465872 
L 336.179835 244.779049 
L 339.459174 243.065866 
L 342.738512 241.329379 
L 346.017851 239.572953 
L 349.29719 237.800267 
L 352.576529 236.015311 
L 355.855868 234.222389 
L 359.135207 232.426117 
L 362.414545 230.63142 
L 365.693884 228.843524 
L 368.973223 227.067951 
L 372.252562 225.310511 
L 375.531901 223.577288 
L 378.81124 221.874628 
L 382.090579 220.209128 
L 385.369917 218.587614 
L 388.649256 217.017127 
L 391.928595 215.504904 
L 395.207934 214.05835 
L 398.487273 212.685022 
" style="fill:none;stroke:#000000;stroke-linecap:square;stroke-width:0.5;"/>
   </g>
   <g id="line2d_34">
    <path clip-path="url(#p962000c6da)" d="M 73.832727 206.575354 
L 77.112066 207.163977 
L 80.391405 207.746024 
L 83.670744 208.322017 
L 86.950083 208.892427 
L 90.229421 209.45768 
L 93.50876 210.018146 
L 96.788099 210.57414 
L 100.067438 211.125915 
L 103.346777 211.673665 
L 106.626116 212.217514 
L 109.905455 212.757522 
L 113.184793 213.293675 
L 116.464132 213.825887 
L 119.743471 214.353996 
L 123.02281 214.877766 
L 126.302149 215.396878 
L 129.581488 215.910936 
L 132.860826 216.419464 
L 136.140165 216.921901 
L 139.419504 217.417606 
L 142.698843 217.905857 
L 145.978182 218.385847 
L 149.257521 218.85669 
L 152.53686 219.317418 
L 155.816198 219.766983 
L 159.095537 220.20426 
L 162.374876 220.628045 
L 165.654215 221.037062 
L 168.933554 221.429961 
L 172.212893 221.805325 
L 175.492231 222.161667 
L 178.77157 222.497441 
L 182.050909 222.811039 
L 185.330248 223.100798 
L 188.609587 223.365005 
L 191.888926 223.601898 
L 195.168264 223.809675 
L 198.447603 223.986497 
L 201.726942 224.130493 
L 205.006281 224.239765 
L 208.28562 224.312397 
L 211.564959 224.346456 
L 214.844298 224.340002 
L 218.123636 224.291095 
L 221.402975 224.197795 
L 224.682314 224.058177 
L 227.961653 223.870331 
L 231.240992 223.632374 
L 234.520331 223.342451 
L 237.799669 222.998748 
L 241.079008 222.599494 
L 244.358347 222.14297 
L 247.637686 221.627516 
L 250.917025 221.051538 
L 254.196364 220.413513 
L 257.475702 219.711996 
L 260.755041 218.945629 
L 264.03438 218.113143 
L 267.313719 217.21337 
L 270.593058 216.245242 
L 273.872397 215.207803 
L 277.151736 214.100209 
L 280.431074 212.92174 
L 283.710413 211.671797 
L 286.989752 210.349914 
L 290.269091 208.955757 
L 293.54843 207.489132 
L 296.827769 205.949985 
L 300.107107 204.338409 
L 303.386446 202.654645 
L 306.665785 200.899084 
L 309.945124 199.072271 
L 313.224463 197.174904 
L 316.503802 195.207839 
L 319.78314 193.172089 
L 323.062479 191.068823 
L 326.341818 188.89937 
L 329.621157 186.665213 
L 332.900496 184.367995 
L 336.179835 182.00951 
L 339.459174 179.591708 
L 342.738512 177.11669 
L 346.017851 174.586704 
L 349.29719 172.004145 
L 352.576529 169.37155 
L 355.855868 166.691592 
L 359.135207 163.96708 
L 362.414545 161.200951 
L 365.693884 158.396267 
L 368.973223 155.556207 
L 372.252562 152.684064 
L 375.531901 149.783237 
L 378.81124 146.857226 
L 382.090579 143.909623 
L 385.369917 140.944109 
L 388.649256 137.964441 
L 391.928595 134.974449 
L 395.207934 131.978028 
L 398.487273 128.979127 
" style="fill:none;stroke:#ffa500;stroke-linecap:square;stroke-width:1.5;"/>
   </g>
   <g id="line2d_35">
    <path clip-path="url(#p962000c6da)" d="M 73.832727 131.164226 
L 77.112066 134.01611 
L 80.391405 136.602516 
L 83.670744 138.942844 
L 86.950083 141.056033 
L 90.229421 142.960494 
L 93.50876 144.674045 
L 96.788099 146.213851 
L 100.067438 147.596375 
L 103.346777 148.837328 
L 106.626116 149.951629 
L 109.905455 150.953373 
L 113.184793 151.855797 
L 116.464132 152.671261 
L 119.743471 153.411229 
L 123.02281 154.086258 
L 126.302149 154.705997 
L 129.581488 155.27918 
L 132.860826 155.813639 
L 136.140165 156.316309 
L 139.419504 156.793248 
L 142.698843 157.249656 
L 145.978182 157.6899 
L 149.257521 158.117543 
L 152.53686 158.535376 
L 155.816198 158.945455 
L 159.095537 159.34914 
L 162.374876 159.747137 
L 165.654215 160.139539 
L 168.933554 160.525876 
L 172.212893 160.905161 
L 175.492231 161.275936 
L 178.77157 161.636325 
L 182.050909 161.984083 
L 185.330248 162.316643 
L 188.609587 162.631169 
L 191.888926 162.924602 
L 195.168264 163.193711 
L 198.447603 163.435138 
L 201.726942 163.645443 
L 205.006281 163.821148 
L 208.28562 163.958778 
L 211.564959 164.054901 
L 214.844298 164.106164 
L 218.123636 164.109326 
L 221.402975 164.061291 
L 224.682314 163.959131 
L 227.961653 163.800116 
L 231.240992 163.581735 
L 234.520331 163.301707 
L 237.799669 162.958004 
L 241.079008 162.548854 
L 244.358347 162.072755 
L 247.637686 161.52847 
L 250.917025 160.915034 
L 254.196364 160.231744 
L 257.475702 159.478158 
L 260.755041 158.654074 
L 264.03438 157.759524 
L 267.313719 156.794752 
L 270.593058 155.760192 
L 273.872397 154.656443 
L 277.151736 153.484245 
L 280.431074 152.244444 
L 283.710413 150.937961 
L 286.989752 149.565759 
L 290.269091 148.128801 
L 293.54843 146.628016 
L 296.827769 145.064254 
L 300.107107 143.438246 
L 303.386446 141.75056 
L 306.665785 140.001561 
L 309.945124 138.191363 
L 313.224463 136.319784 
L 316.503802 134.386311 
L 319.78314 132.390046 
L 323.062479 130.329676 
L 326.341818 128.203423 
L 329.621157 126.009012 
L 332.900496 123.743636 
L 336.179835 121.403918 
L 339.459174 118.985883 
L 342.738512 116.484934 
L 346.017851 113.895823 
L 349.29719 111.212638 
L 352.576529 108.428782 
L 355.855868 105.536967 
L 359.135207 102.529203 
L 362.414545 99.396803 
L 365.693884 96.130382 
L 368.973223 92.71987 
L 372.252562 89.154523 
L 375.531901 85.422948 
L 378.81124 81.513124 
L 382.090579 77.412437 
L 385.369917 73.107714 
L 388.649256 68.585267 
L 391.928595 63.83094 
L 395.207934 58.830161 
L 398.487273 53.568 
" style="fill:none;stroke:#000000;stroke-linecap:square;stroke-width:0.5;"/>
   </g>
   <g id="line2d_36">
    <path clip-path="url(#p962000c6da)" d="M 73.832727 281.986481 
L 77.112066 280.311843 
L 80.391405 278.889533 
L 83.670744 277.70119 
L 86.950083 276.728822 
L 90.229421 275.954866 
L 93.50876 275.362248 
L 96.788099 274.934428 
L 100.067438 274.655456 
L 103.346777 274.510002 
L 106.626116 274.483399 
L 109.905455 274.561671 
L 113.184793 274.731552 
L 116.464132 274.980513 
L 119.743471 275.296764 
L 123.02281 275.669273 
L 126.302149 276.087759 
L 129.581488 276.542693 
L 132.860826 277.025289 
L 136.140165 277.527493 
L 139.419504 278.041964 
L 142.698843 278.562058 
L 145.978182 279.081795 
L 149.257521 279.595838 
L 152.53686 280.099461 
L 155.816198 280.588512 
L 159.095537 281.059379 
L 162.374876 281.508953 
L 165.654215 281.934584 
L 168.933554 282.334046 
L 172.212893 282.705488 
L 175.492231 283.047399 
L 178.77157 283.358557 
L 182.050909 283.637995 
L 185.330248 283.884954 
L 188.609587 284.098841 
L 191.888926 284.279194 
L 195.168264 284.425639 
L 198.447603 284.537856 
L 201.726942 284.615543 
L 205.006281 284.658383 
L 208.28562 284.666016 
L 211.564959 284.638011 
L 214.844298 284.573841 
L 218.123636 284.472863 
L 221.402975 284.3343 
L 224.682314 284.157223 
L 227.961653 283.940547 
L 231.240992 283.683013 
L 234.520331 283.383195 
L 237.799669 283.039492 
L 241.079008 282.650133 
L 244.358347 282.213185 
L 247.637686 281.726563 
L 250.917025 281.188043 
L 254.196364 280.595281 
L 257.475702 279.945834 
L 260.755041 279.237183 
L 264.03438 278.466762 
L 267.313719 277.631988 
L 270.593058 276.730292 
L 273.872397 275.759162 
L 277.151736 274.716173 
L 280.431074 273.599036 
L 283.710413 272.405633 
L 286.989752 271.134069 
L 290.269091 269.782713 
L 293.54843 268.350248 
L 296.827769 266.835717 
L 300.107107 265.238573 
L 303.386446 263.55873 
L 306.665785 261.796607 
L 309.945124 259.953178 
L 313.224463 258.030023 
L 316.503802 256.029367 
L 319.78314 253.954131 
L 323.062479 251.807971 
L 326.341818 249.595317 
L 329.621157 247.321414 
L 332.900496 244.992353 
L 336.179835 242.615102 
L 339.459174 240.197533 
L 342.738512 237.748446 
L 346.017851 235.277585 
L 349.29719 232.795653 
L 352.576529 230.314318 
L 355.855868 227.846218 
L 359.135207 225.404958 
L 362.414545 223.0051 
L 365.693884 220.662152 
L 368.973223 218.392544 
L 372.252562 216.213604 
L 375.531901 214.143526 
L 378.81124 212.201327 
L 382.090579 210.406809 
L 385.369917 208.780503 
L 388.649256 207.343614 
L 391.928595 206.117958 
L 395.207934 205.125895 
L 398.487273 204.390254 
" style="fill:none;stroke:#000000;stroke-linecap:square;stroke-width:0.5;"/>
   </g>
   <g id="line2d_37">
    <path clip-path="url(#p962000c6da)" d="M 73.832727 275.42885 
L 77.112066 276.328256 
L 80.391405 277.1977 
L 83.670744 278.008855 
L 86.950083 278.737188 
L 90.229421 279.36224 
L 93.50876 279.867793 
L 96.788099 280.241931 
L 100.067438 280.476992 
L 103.346777 280.569427 
L 106.626116 280.51956 
L 109.905455 280.331275 
L 113.184793 280.011626 
L 116.464132 279.5704 
L 119.743471 279.019624 
L 123.02281 278.373058 
L 126.302149 277.645658 
L 129.581488 276.853054 
L 132.860826 276.011027 
L 136.140165 275.135022 
L 139.419504 274.239697 
L 142.698843 273.33852 
L 145.978182 272.443422 
L 149.257521 271.564523 
L 152.53686 270.709917 
L 155.816198 269.885544 
L 159.095537 269.095128 
L 162.374876 268.340199 
L 165.654215 267.620177 
L 168.933554 266.932538 
L 172.212893 266.27303 
L 175.492231 265.635952 
L 178.77157 265.014472 
L 182.050909 264.400988 
L 185.330248 263.787504 
L 188.609587 263.166024 
L 191.888926 262.528946 
L 195.168264 261.869438 
L 198.447603 261.181799 
L 201.726942 260.461777 
L 205.006281 259.706847 
L 208.28562 258.916432 
L 211.564959 258.092059 
L 214.844298 257.237453 
L 218.123636 256.358553 
L 221.402975 255.463456 
L 224.682314 254.562279 
L 227.961653 253.666954 
L 231.240992 252.790949 
L 234.520331 251.948922 
L 237.799669 251.156317 
L 241.079008 250.428918 
L 244.358347 249.782352 
L 247.637686 249.231576 
L 250.917025 248.79035 
L 254.196364 248.470701 
L 257.475702 248.282415 
L 260.755041 248.232549 
L 264.03438 248.324983 
L 267.313719 248.560045 
L 270.593058 248.934182 
L 273.872397 249.439736 
L 277.151736 250.064788 
L 280.431074 250.793121 
L 283.710413 251.604276 
L 286.989752 252.473719 
L 290.269091 253.373126 
L 293.54843 254.270765 
L 296.827769 255.131997 
L 300.107107 255.919872 
L 303.386446 256.595811 
L 306.665785 257.120381 
L 309.945124 257.454125 
L 313.224463 257.558452 
L 316.503802 257.396557 
L 319.78314 256.934358 
L 323.062479 256.141433 
L 326.341818 254.991929 
L 329.621157 253.465424 
L 332.900496 251.54773 
L 336.179835 249.231603 
L 339.459174 246.517348 
L 342.738512 243.41331 
L 346.017851 239.936212 
L 349.29719 236.111345 
L 352.576529 231.972601 
L 355.855868 227.562318 
L 359.135207 222.930958 
L 362.414545 218.136604 
L 365.693884 213.244269 
L 368.973223 208.325041 
L 372.252562 203.455064 
L 375.531901 198.714358 
L 378.81124 194.185513 
L 382.090579 189.952264 
L 385.369917 186.097967 
L 388.649256 182.704016 
L 391.928595 179.84821 
L 395.207934 177.603113 
L 398.487273 176.034432 
" style="fill:none;stroke:#0000ff;stroke-dasharray:5.55,2.4;stroke-dashoffset:0;stroke-width:1.5;"/>
   </g>
   <g id="line2d_38">
    <path clip-path="url(#p962000c6da)" d="M 73.832727 206.56348 
L 77.112066 209.586569 
L 80.391405 212.549734 
L 83.670744 215.39632 
L 86.950083 218.077263 
L 90.229421 220.551644 
L 93.50876 222.787027 
L 96.788099 224.759579 
L 100.067438 226.453978 
L 103.346777 227.863124 
L 106.626116 228.987667 
L 109.905455 229.835373 
L 113.184793 230.420352 
L 116.464132 230.762176 
L 119.743471 230.884901 
L 123.02281 230.816045 
L 126.302149 230.585523 
L 129.581488 230.224591 
L 132.860826 229.764813 
L 136.140165 229.23708 
L 139.419504 228.670707 
L 142.698843 228.092629 
L 145.978182 227.526711 
L 149.257521 226.993188 
L 152.53686 226.508253 
L 155.816198 226.083783 
L 159.095537 225.727229 
L 162.374876 225.441647 
L 165.654215 225.22588 
L 168.933554 225.074879 
L 172.212893 224.980139 
L 175.492231 224.930259 
L 178.77157 224.911576 
L 182.050909 224.908885 
L 185.330248 224.906193 
L 188.609587 224.88751 
L 191.888926 224.83763 
L 195.168264 224.742891 
L 198.447603 224.591889 
L 201.726942 224.376123 
L 205.006281 224.09054 
L 208.28562 223.733986 
L 211.564959 223.309516 
L 214.844298 222.824581 
L 218.123636 222.291059 
L 221.402975 221.725141 
L 224.682314 221.147063 
L 227.961653 220.58069 
L 231.240992 220.052956 
L 234.520331 219.593178 
L 237.799669 219.232246 
L 241.079008 219.001724 
L 244.358347 218.932868 
L 247.637686 219.055594 
L 250.917025 219.397417 
L 254.196364 219.982397 
L 257.475702 220.830102 
L 260.755041 221.954645 
L 264.03438 223.363791 
L 267.313719 225.058191 
L 270.593058 227.030743 
L 273.872397 229.266126 
L 277.151736 231.740506 
L 280.431074 234.421449 
L 283.710413 237.268036 
L 286.989752 240.2312 
L 290.269091 243.25429 
L 293.54843 246.273844 
L 296.827769 249.220586 
L 300.107107 252.020611 
L 303.386446 254.596766 
L 306.665785 256.870183 
L 309.945124 258.761948 
L 313.224463 260.194878 
L 316.503802 261.095364 
L 319.78314 261.395242 
L 323.062479 261.03367 
L 326.341818 259.958938 
L 329.621157 258.130206 
L 332.900496 255.519095 
L 336.179835 252.111116 
L 339.459174 247.906884 
L 342.738512 242.923085 
L 346.017851 237.193164 
L 349.29719 230.767707 
L 352.576529 223.714495 
L 355.855868 216.118205 
L 359.135207 208.079763 
L 362.414545 199.715331 
L 365.693884 191.154937 
L 368.973223 182.540759 
L 372.252562 174.02508 
L 375.531901 165.767945 
L 378.81124 157.934532 
L 382.090579 150.692311 
L 385.369917 144.207994 
L 388.649256 138.644369 
L 391.928595 134.157033 
L 395.207934 130.891115 
L 398.487273 128.978029 
" style="fill:none;stroke:#ffa500;stroke-dasharray:5.55,2.4;stroke-dashoffset:0;stroke-width:1.5;"/>
   </g>
   <g id="patch_3">
    <path d="M 57.6 307.584 
L 57.6 41.472 
" style="fill:none;stroke:#000000;stroke-linecap:square;stroke-linejoin:miter;stroke-width:0.8;"/>
   </g>
   <g id="patch_4">
    <path d="M 414.72 307.584 
L 414.72 41.472 
" style="fill:none;stroke:#000000;stroke-linecap:square;stroke-linejoin:miter;stroke-width:0.8;"/>
   </g>
   <g id="patch_5">
    <path d="M 57.6 307.584 
L 414.72 307.584 
" style="fill:none;stroke:#000000;stroke-linecap:square;stroke-linejoin:miter;stroke-width:0.8;"/>
   </g>
   <g id="patch_6">
    <path d="M 57.6 41.472 
L 414.72 41.472 
" style="fill:none;stroke:#000000;stroke-linecap:square;stroke-linejoin:miter;stroke-width:0.8;"/>
   </g>
   <g id="legend_1">
    <g id="patch_7">
     <path d="M 64.6 108.1845 
L 239.15625 108.1845 
Q 241.15625 108.1845 241.15625 106.1845 
L 241.15625 48.472 
Q 241.15625 46.472 239.15625 46.472 
L 64.6 46.472 
Q 62.6 46.472 62.6 48.472 
L 62.6 106.1845 
Q 62.6 108.1845 64.6 108.1845 
z
" style="fill:#ffffff;opacity:0.8;stroke:#cccccc;stroke-linejoin:miter;"/>
    </g>
    <g id="line2d_39">
     <path d="M 66.6 54.570438 
L 86.6 54.570438 
" style="fill:none;stroke:#0000ff;stroke-linecap:square;stroke-width:1.5;"/>
    </g>
    <g id="line2d_40"/>
    <g id="text_16">
     <!-- MF cheap GPR (regular GPR) -->
     <g transform="translate(94.6 58.070438)scale(0.1 -0.1)">
      <defs>
       <path d="M 9.8125 72.90625 
L 24.515625 72.90625 
L 43.109375 23.296875 
L 61.8125 72.90625 
L 76.515625 72.90625 
L 76.515625 0 
L 66.890625 0 
L 66.890625 64.015625 
L 48.09375 14.015625 
L 38.1875 14.015625 
L 19.390625 64.015625 
L 19.390625 0 
L 9.8125 0 
z
" id="DejaVuSans-77"/>
       <path d="M 9.8125 72.90625 
L 51.703125 72.90625 
L 51.703125 64.59375 
L 19.671875 64.59375 
L 19.671875 43.109375 
L 48.578125 43.109375 
L 48.578125 34.8125 
L 19.671875 34.8125 
L 19.671875 0 
L 9.8125 0 
z
" id="DejaVuSans-70"/>
       <path id="DejaVuSans-32"/>
       <path d="M 48.78125 52.59375 
L 48.78125 44.1875 
Q 44.96875 46.296875 41.140625 47.34375 
Q 37.3125 48.390625 33.40625 48.390625 
Q 24.65625 48.390625 19.8125 42.84375 
Q 14.984375 37.3125 14.984375 27.296875 
Q 14.984375 17.28125 19.8125 11.734375 
Q 24.65625 6.203125 33.40625 6.203125 
Q 37.3125 6.203125 41.140625 7.25 
Q 44.96875 8.296875 48.78125 10.40625 
L 48.78125 2.09375 
Q 45.015625 0.34375 40.984375 -0.53125 
Q 36.96875 -1.421875 32.421875 -1.421875 
Q 20.0625 -1.421875 12.78125 6.34375 
Q 5.515625 14.109375 5.515625 27.296875 
Q 5.515625 40.671875 12.859375 48.328125 
Q 20.21875 56 33.015625 56 
Q 37.15625 56 41.109375 55.140625 
Q 45.0625 54.296875 48.78125 52.59375 
z
" id="DejaVuSans-99"/>
       <path d="M 54.890625 33.015625 
L 54.890625 0 
L 45.90625 0 
L 45.90625 32.71875 
Q 45.90625 40.484375 42.875 44.328125 
Q 39.84375 48.1875 33.796875 48.1875 
Q 26.515625 48.1875 22.3125 43.546875 
Q 18.109375 38.921875 18.109375 30.90625 
L 18.109375 0 
L 9.078125 0 
L 9.078125 75.984375 
L 18.109375 75.984375 
L 18.109375 46.1875 
Q 21.34375 51.125 25.703125 53.5625 
Q 30.078125 56 35.796875 56 
Q 45.21875 56 50.046875 50.171875 
Q 54.890625 44.34375 54.890625 33.015625 
z
" id="DejaVuSans-104"/>
       <path d="M 56.203125 29.59375 
L 56.203125 25.203125 
L 14.890625 25.203125 
Q 15.484375 15.921875 20.484375 11.0625 
Q 25.484375 6.203125 34.421875 6.203125 
Q 39.59375 6.203125 44.453125 7.46875 
Q 49.3125 8.734375 54.109375 11.28125 
L 54.109375 2.78125 
Q 49.265625 0.734375 44.1875 -0.34375 
Q 39.109375 -1.421875 33.890625 -1.421875 
Q 20.796875 -1.421875 13.15625 6.1875 
Q 5.515625 13.8125 5.515625 26.8125 
Q 5.515625 40.234375 12.765625 48.109375 
Q 20.015625 56 32.328125 56 
Q 43.359375 56 49.78125 48.890625 
Q 56.203125 41.796875 56.203125 29.59375 
z
M 47.21875 32.234375 
Q 47.125 39.59375 43.09375 43.984375 
Q 39.0625 48.390625 32.421875 48.390625 
Q 24.90625 48.390625 20.390625 44.140625 
Q 15.875 39.890625 15.1875 32.171875 
z
" id="DejaVuSans-101"/>
       <path d="M 34.28125 27.484375 
Q 23.390625 27.484375 19.1875 25 
Q 14.984375 22.515625 14.984375 16.5 
Q 14.984375 11.71875 18.140625 8.90625 
Q 21.296875 6.109375 26.703125 6.109375 
Q 34.1875 6.109375 38.703125 11.40625 
Q 43.21875 16.703125 43.21875 25.484375 
L 43.21875 27.484375 
z
M 52.203125 31.203125 
L 52.203125 0 
L 43.21875 0 
L 43.21875 8.296875 
Q 40.140625 3.328125 35.546875 0.953125 
Q 30.953125 -1.421875 24.3125 -1.421875 
Q 15.921875 -1.421875 10.953125 3.296875 
Q 6 8.015625 6 15.921875 
Q 6 25.140625 12.171875 29.828125 
Q 18.359375 34.515625 30.609375 34.515625 
L 43.21875 34.515625 
L 43.21875 35.40625 
Q 43.21875 41.609375 39.140625 45 
Q 35.0625 48.390625 27.6875 48.390625 
Q 23 48.390625 18.546875 47.265625 
Q 14.109375 46.140625 10.015625 43.890625 
L 10.015625 52.203125 
Q 14.9375 54.109375 19.578125 55.046875 
Q 24.21875 56 28.609375 56 
Q 40.484375 56 46.34375 49.84375 
Q 52.203125 43.703125 52.203125 31.203125 
z
" id="DejaVuSans-97"/>
       <path d="M 18.109375 8.203125 
L 18.109375 -20.796875 
L 9.078125 -20.796875 
L 9.078125 54.6875 
L 18.109375 54.6875 
L 18.109375 46.390625 
Q 20.953125 51.265625 25.265625 53.625 
Q 29.59375 56 35.59375 56 
Q 45.5625 56 51.78125 48.09375 
Q 58.015625 40.1875 58.015625 27.296875 
Q 58.015625 14.40625 51.78125 6.484375 
Q 45.5625 -1.421875 35.59375 -1.421875 
Q 29.59375 -1.421875 25.265625 0.953125 
Q 20.953125 3.328125 18.109375 8.203125 
z
M 48.6875 27.296875 
Q 48.6875 37.203125 44.609375 42.84375 
Q 40.53125 48.484375 33.40625 48.484375 
Q 26.265625 48.484375 22.1875 42.84375 
Q 18.109375 37.203125 18.109375 27.296875 
Q 18.109375 17.390625 22.1875 11.75 
Q 26.265625 6.109375 33.40625 6.109375 
Q 40.53125 6.109375 44.609375 11.75 
Q 48.6875 17.390625 48.6875 27.296875 
z
" id="DejaVuSans-112"/>
       <path d="M 59.515625 10.40625 
L 59.515625 29.984375 
L 43.40625 29.984375 
L 43.40625 38.09375 
L 69.28125 38.09375 
L 69.28125 6.78125 
Q 63.578125 2.734375 56.6875 0.65625 
Q 49.8125 -1.421875 42 -1.421875 
Q 24.90625 -1.421875 15.25 8.5625 
Q 5.609375 18.5625 5.609375 36.375 
Q 5.609375 54.25 15.25 64.234375 
Q 24.90625 74.21875 42 74.21875 
Q 49.125 74.21875 55.546875 72.453125 
Q 61.96875 70.703125 67.390625 67.28125 
L 67.390625 56.78125 
Q 61.921875 61.421875 55.765625 63.765625 
Q 49.609375 66.109375 42.828125 66.109375 
Q 29.4375 66.109375 22.71875 58.640625 
Q 16.015625 51.171875 16.015625 36.375 
Q 16.015625 21.625 22.71875 14.15625 
Q 29.4375 6.6875 42.828125 6.6875 
Q 48.046875 6.6875 52.140625 7.59375 
Q 56.25 8.5 59.515625 10.40625 
z
" id="DejaVuSans-71"/>
       <path d="M 19.671875 64.796875 
L 19.671875 37.40625 
L 32.078125 37.40625 
Q 38.96875 37.40625 42.71875 40.96875 
Q 46.484375 44.53125 46.484375 51.125 
Q 46.484375 57.671875 42.71875 61.234375 
Q 38.96875 64.796875 32.078125 64.796875 
z
M 9.8125 72.90625 
L 32.078125 72.90625 
Q 44.34375 72.90625 50.609375 67.359375 
Q 56.890625 61.8125 56.890625 51.125 
Q 56.890625 40.328125 50.609375 34.8125 
Q 44.34375 29.296875 32.078125 29.296875 
L 19.671875 29.296875 
L 19.671875 0 
L 9.8125 0 
z
" id="DejaVuSans-80"/>
       <path d="M 44.390625 34.1875 
Q 47.5625 33.109375 50.5625 29.59375 
Q 53.5625 26.078125 56.59375 19.921875 
L 66.609375 0 
L 56 0 
L 46.6875 18.703125 
Q 43.0625 26.03125 39.671875 28.421875 
Q 36.28125 30.8125 30.421875 30.8125 
L 19.671875 30.8125 
L 19.671875 0 
L 9.8125 0 
L 9.8125 72.90625 
L 32.078125 72.90625 
Q 44.578125 72.90625 50.734375 67.671875 
Q 56.890625 62.453125 56.890625 51.90625 
Q 56.890625 45.015625 53.6875 40.46875 
Q 50.484375 35.9375 44.390625 34.1875 
z
M 19.671875 64.796875 
L 19.671875 38.921875 
L 32.078125 38.921875 
Q 39.203125 38.921875 42.84375 42.21875 
Q 46.484375 45.515625 46.484375 51.90625 
Q 46.484375 58.296875 42.84375 61.546875 
Q 39.203125 64.796875 32.078125 64.796875 
z
" id="DejaVuSans-82"/>
       <path d="M 31 75.875 
Q 24.46875 64.65625 21.28125 53.65625 
Q 18.109375 42.671875 18.109375 31.390625 
Q 18.109375 20.125 21.3125 9.0625 
Q 24.515625 -2 31 -13.1875 
L 23.1875 -13.1875 
Q 15.875 -1.703125 12.234375 9.375 
Q 8.59375 20.453125 8.59375 31.390625 
Q 8.59375 42.28125 12.203125 53.3125 
Q 15.828125 64.359375 23.1875 75.875 
z
" id="DejaVuSans-40"/>
       <path d="M 41.109375 46.296875 
Q 39.59375 47.171875 37.8125 47.578125 
Q 36.03125 48 33.890625 48 
Q 26.265625 48 22.1875 43.046875 
Q 18.109375 38.09375 18.109375 28.8125 
L 18.109375 0 
L 9.078125 0 
L 9.078125 54.6875 
L 18.109375 54.6875 
L 18.109375 46.1875 
Q 20.953125 51.171875 25.484375 53.578125 
Q 30.03125 56 36.53125 56 
Q 37.453125 56 38.578125 55.875 
Q 39.703125 55.765625 41.0625 55.515625 
z
" id="DejaVuSans-114"/>
       <path d="M 45.40625 27.984375 
Q 45.40625 37.75 41.375 43.109375 
Q 37.359375 48.484375 30.078125 48.484375 
Q 22.859375 48.484375 18.828125 43.109375 
Q 14.796875 37.75 14.796875 27.984375 
Q 14.796875 18.265625 18.828125 12.890625 
Q 22.859375 7.515625 30.078125 7.515625 
Q 37.359375 7.515625 41.375 12.890625 
Q 45.40625 18.265625 45.40625 27.984375 
z
M 54.390625 6.78125 
Q 54.390625 -7.171875 48.1875 -13.984375 
Q 42 -20.796875 29.203125 -20.796875 
Q 24.46875 -20.796875 20.265625 -20.09375 
Q 16.0625 -19.390625 12.109375 -17.921875 
L 12.109375 -9.1875 
Q 16.0625 -11.328125 19.921875 -12.34375 
Q 23.78125 -13.375 27.78125 -13.375 
Q 36.625 -13.375 41.015625 -8.765625 
Q 45.40625 -4.15625 45.40625 5.171875 
L 45.40625 9.625 
Q 42.625 4.78125 38.28125 2.390625 
Q 33.9375 0 27.875 0 
Q 17.828125 0 11.671875 7.65625 
Q 5.515625 15.328125 5.515625 27.984375 
Q 5.515625 40.671875 11.671875 48.328125 
Q 17.828125 56 27.875 56 
Q 33.9375 56 38.28125 53.609375 
Q 42.625 51.21875 45.40625 46.390625 
L 45.40625 54.6875 
L 54.390625 54.6875 
z
" id="DejaVuSans-103"/>
       <path d="M 8.5 21.578125 
L 8.5 54.6875 
L 17.484375 54.6875 
L 17.484375 21.921875 
Q 17.484375 14.15625 20.5 10.265625 
Q 23.53125 6.390625 29.59375 6.390625 
Q 36.859375 6.390625 41.078125 11.03125 
Q 45.3125 15.671875 45.3125 23.6875 
L 45.3125 54.6875 
L 54.296875 54.6875 
L 54.296875 0 
L 45.3125 0 
L 45.3125 8.40625 
Q 42.046875 3.421875 37.71875 1 
Q 33.40625 -1.421875 27.6875 -1.421875 
Q 18.265625 -1.421875 13.375 4.4375 
Q 8.5 10.296875 8.5 21.578125 
z
M 31.109375 56 
z
" id="DejaVuSans-117"/>
       <path d="M 9.421875 75.984375 
L 18.40625 75.984375 
L 18.40625 0 
L 9.421875 0 
z
" id="DejaVuSans-108"/>
       <path d="M 8.015625 75.875 
L 15.828125 75.875 
Q 23.140625 64.359375 26.78125 53.3125 
Q 30.421875 42.28125 30.421875 31.390625 
Q 30.421875 20.453125 26.78125 9.375 
Q 23.140625 -1.703125 15.828125 -13.1875 
L 8.015625 -13.1875 
Q 14.5 -2 17.703125 9.0625 
Q 20.90625 20.125 20.90625 31.390625 
Q 20.90625 42.671875 17.703125 53.65625 
Q 14.5 64.65625 8.015625 75.875 
z
" id="DejaVuSans-41"/>
      </defs>
      <use xlink:href="#DejaVuSans-77"/>
      <use x="86.279297" xlink:href="#DejaVuSans-70"/>
      <use x="143.798828" xlink:href="#DejaVuSans-32"/>
      <use x="175.585938" xlink:href="#DejaVuSans-99"/>
      <use x="230.566406" xlink:href="#DejaVuSans-104"/>
      <use x="293.945312" xlink:href="#DejaVuSans-101"/>
      <use x="355.46875" xlink:href="#DejaVuSans-97"/>
      <use x="416.748047" xlink:href="#DejaVuSans-112"/>
      <use x="480.224609" xlink:href="#DejaVuSans-32"/>
      <use x="512.011719" xlink:href="#DejaVuSans-71"/>
      <use x="589.501953" xlink:href="#DejaVuSans-80"/>
      <use x="649.804688" xlink:href="#DejaVuSans-82"/>
      <use x="719.287109" xlink:href="#DejaVuSans-32"/>
      <use x="751.074219" xlink:href="#DejaVuSans-40"/>
      <use x="790.087891" xlink:href="#DejaVuSans-114"/>
      <use x="828.951172" xlink:href="#DejaVuSans-101"/>
      <use x="890.474609" xlink:href="#DejaVuSans-103"/>
      <use x="953.951172" xlink:href="#DejaVuSans-117"/>
      <use x="1017.330078" xlink:href="#DejaVuSans-108"/>
      <use x="1045.113281" xlink:href="#DejaVuSans-97"/>
      <use x="1106.392578" xlink:href="#DejaVuSans-114"/>
      <use x="1147.505859" xlink:href="#DejaVuSans-32"/>
      <use x="1179.292969" xlink:href="#DejaVuSans-71"/>
      <use x="1256.783203" xlink:href="#DejaVuSans-80"/>
      <use x="1317.085938" xlink:href="#DejaVuSans-82"/>
      <use x="1386.568359" xlink:href="#DejaVuSans-41"/>
     </g>
    </g>
    <g id="line2d_41">
     <path d="M 66.6 69.248563 
L 86.6 69.248563 
" style="fill:none;stroke:#ffa500;stroke-linecap:square;stroke-width:1.5;"/>
    </g>
    <g id="line2d_42"/>
    <g id="text_17">
     <!-- MF expensive GPR -->
     <g transform="translate(94.6 72.748563)scale(0.1 -0.1)">
      <defs>
       <path d="M 54.890625 54.6875 
L 35.109375 28.078125 
L 55.90625 0 
L 45.3125 0 
L 29.390625 21.484375 
L 13.484375 0 
L 2.875 0 
L 24.125 28.609375 
L 4.6875 54.6875 
L 15.28125 54.6875 
L 29.78125 35.203125 
L 44.28125 54.6875 
z
" id="DejaVuSans-120"/>
       <path d="M 54.890625 33.015625 
L 54.890625 0 
L 45.90625 0 
L 45.90625 32.71875 
Q 45.90625 40.484375 42.875 44.328125 
Q 39.84375 48.1875 33.796875 48.1875 
Q 26.515625 48.1875 22.3125 43.546875 
Q 18.109375 38.921875 18.109375 30.90625 
L 18.109375 0 
L 9.078125 0 
L 9.078125 54.6875 
L 18.109375 54.6875 
L 18.109375 46.1875 
Q 21.34375 51.125 25.703125 53.5625 
Q 30.078125 56 35.796875 56 
Q 45.21875 56 50.046875 50.171875 
Q 54.890625 44.34375 54.890625 33.015625 
z
" id="DejaVuSans-110"/>
       <path d="M 44.28125 53.078125 
L 44.28125 44.578125 
Q 40.484375 46.53125 36.375 47.5 
Q 32.28125 48.484375 27.875 48.484375 
Q 21.1875 48.484375 17.84375 46.4375 
Q 14.5 44.390625 14.5 40.28125 
Q 14.5 37.15625 16.890625 35.375 
Q 19.28125 33.59375 26.515625 31.984375 
L 29.59375 31.296875 
Q 39.15625 29.25 43.1875 25.515625 
Q 47.21875 21.78125 47.21875 15.09375 
Q 47.21875 7.46875 41.1875 3.015625 
Q 35.15625 -1.421875 24.609375 -1.421875 
Q 20.21875 -1.421875 15.453125 -0.5625 
Q 10.6875 0.296875 5.421875 2 
L 5.421875 11.28125 
Q 10.40625 8.6875 15.234375 7.390625 
Q 20.0625 6.109375 24.8125 6.109375 
Q 31.15625 6.109375 34.5625 8.28125 
Q 37.984375 10.453125 37.984375 14.40625 
Q 37.984375 18.0625 35.515625 20.015625 
Q 33.0625 21.96875 24.703125 23.78125 
L 21.578125 24.515625 
Q 13.234375 26.265625 9.515625 29.90625 
Q 5.8125 33.546875 5.8125 39.890625 
Q 5.8125 47.609375 11.28125 51.796875 
Q 16.75 56 26.8125 56 
Q 31.78125 56 36.171875 55.265625 
Q 40.578125 54.546875 44.28125 53.078125 
z
" id="DejaVuSans-115"/>
       <path d="M 9.421875 54.6875 
L 18.40625 54.6875 
L 18.40625 0 
L 9.421875 0 
z
M 9.421875 75.984375 
L 18.40625 75.984375 
L 18.40625 64.59375 
L 9.421875 64.59375 
z
" id="DejaVuSans-105"/>
       <path d="M 2.984375 54.6875 
L 12.5 54.6875 
L 29.59375 8.796875 
L 46.6875 54.6875 
L 56.203125 54.6875 
L 35.6875 0 
L 23.484375 0 
z
" id="DejaVuSans-118"/>
      </defs>
      <use xlink:href="#DejaVuSans-77"/>
      <use x="86.279297" xlink:href="#DejaVuSans-70"/>
      <use x="143.798828" xlink:href="#DejaVuSans-32"/>
      <use x="175.585938" xlink:href="#DejaVuSans-101"/>
      <use x="235.359375" xlink:href="#DejaVuSans-120"/>
      <use x="294.539062" xlink:href="#DejaVuSans-112"/>
      <use x="358.015625" xlink:href="#DejaVuSans-101"/>
      <use x="419.539062" xlink:href="#DejaVuSans-110"/>
      <use x="482.917969" xlink:href="#DejaVuSans-115"/>
      <use x="535.017578" xlink:href="#DejaVuSans-105"/>
      <use x="562.800781" xlink:href="#DejaVuSans-118"/>
      <use x="621.980469" xlink:href="#DejaVuSans-101"/>
      <use x="683.503906" xlink:href="#DejaVuSans-32"/>
      <use x="715.291016" xlink:href="#DejaVuSans-71"/>
      <use x="792.78125" xlink:href="#DejaVuSans-80"/>
      <use x="853.083984" xlink:href="#DejaVuSans-82"/>
     </g>
    </g>
    <g id="line2d_43">
     <path d="M 66.6 83.926688 
L 86.6 83.926688 
" style="fill:none;stroke:#0000ff;stroke-dasharray:5.55,2.4;stroke-dashoffset:0;stroke-width:1.5;"/>
    </g>
    <g id="line2d_44"/>
    <g id="text_18">
     <!-- Exact cheap function -->
     <g transform="translate(94.6 87.426688)scale(0.1 -0.1)">
      <defs>
       <path d="M 9.8125 72.90625 
L 55.90625 72.90625 
L 55.90625 64.59375 
L 19.671875 64.59375 
L 19.671875 43.015625 
L 54.390625 43.015625 
L 54.390625 34.71875 
L 19.671875 34.71875 
L 19.671875 8.296875 
L 56.78125 8.296875 
L 56.78125 0 
L 9.8125 0 
z
" id="DejaVuSans-69"/>
       <path d="M 18.3125 70.21875 
L 18.3125 54.6875 
L 36.8125 54.6875 
L 36.8125 47.703125 
L 18.3125 47.703125 
L 18.3125 18.015625 
Q 18.3125 11.328125 20.140625 9.421875 
Q 21.96875 7.515625 27.59375 7.515625 
L 36.8125 7.515625 
L 36.8125 0 
L 27.59375 0 
Q 17.1875 0 13.234375 3.875 
Q 9.28125 7.765625 9.28125 18.015625 
L 9.28125 47.703125 
L 2.6875 47.703125 
L 2.6875 54.6875 
L 9.28125 54.6875 
L 9.28125 70.21875 
z
" id="DejaVuSans-116"/>
       <path d="M 37.109375 75.984375 
L 37.109375 68.5 
L 28.515625 68.5 
Q 23.6875 68.5 21.796875 66.546875 
Q 19.921875 64.59375 19.921875 59.515625 
L 19.921875 54.6875 
L 34.71875 54.6875 
L 34.71875 47.703125 
L 19.921875 47.703125 
L 19.921875 0 
L 10.890625 0 
L 10.890625 47.703125 
L 2.296875 47.703125 
L 2.296875 54.6875 
L 10.890625 54.6875 
L 10.890625 58.5 
Q 10.890625 67.625 15.140625 71.796875 
Q 19.390625 75.984375 28.609375 75.984375 
z
" id="DejaVuSans-102"/>
       <path d="M 30.609375 48.390625 
Q 23.390625 48.390625 19.1875 42.75 
Q 14.984375 37.109375 14.984375 27.296875 
Q 14.984375 17.484375 19.15625 11.84375 
Q 23.34375 6.203125 30.609375 6.203125 
Q 37.796875 6.203125 41.984375 11.859375 
Q 46.1875 17.53125 46.1875 27.296875 
Q 46.1875 37.015625 41.984375 42.703125 
Q 37.796875 48.390625 30.609375 48.390625 
z
M 30.609375 56 
Q 42.328125 56 49.015625 48.375 
Q 55.71875 40.765625 55.71875 27.296875 
Q 55.71875 13.875 49.015625 6.21875 
Q 42.328125 -1.421875 30.609375 -1.421875 
Q 18.84375 -1.421875 12.171875 6.21875 
Q 5.515625 13.875 5.515625 27.296875 
Q 5.515625 40.765625 12.171875 48.375 
Q 18.84375 56 30.609375 56 
z
" id="DejaVuSans-111"/>
      </defs>
      <use xlink:href="#DejaVuSans-69"/>
      <use x="63.183594" xlink:href="#DejaVuSans-120"/>
      <use x="122.363281" xlink:href="#DejaVuSans-97"/>
      <use x="183.642578" xlink:href="#DejaVuSans-99"/>
      <use x="238.623047" xlink:href="#DejaVuSans-116"/>
      <use x="277.832031" xlink:href="#DejaVuSans-32"/>
      <use x="309.619141" xlink:href="#DejaVuSans-99"/>
      <use x="364.599609" xlink:href="#DejaVuSans-104"/>
      <use x="427.978516" xlink:href="#DejaVuSans-101"/>
      <use x="489.501953" xlink:href="#DejaVuSans-97"/>
      <use x="550.78125" xlink:href="#DejaVuSans-112"/>
      <use x="614.257812" xlink:href="#DejaVuSans-32"/>
      <use x="646.044922" xlink:href="#DejaVuSans-102"/>
      <use x="681.25" xlink:href="#DejaVuSans-117"/>
      <use x="744.628906" xlink:href="#DejaVuSans-110"/>
      <use x="808.007812" xlink:href="#DejaVuSans-99"/>
      <use x="862.988281" xlink:href="#DejaVuSans-116"/>
      <use x="902.197266" xlink:href="#DejaVuSans-105"/>
      <use x="929.980469" xlink:href="#DejaVuSans-111"/>
      <use x="991.162109" xlink:href="#DejaVuSans-110"/>
     </g>
    </g>
    <g id="line2d_45">
     <path d="M 66.6 98.604813 
L 86.6 98.604813 
" style="fill:none;stroke:#ffa500;stroke-dasharray:5.55,2.4;stroke-dashoffset:0;stroke-width:1.5;"/>
    </g>
    <g id="line2d_46"/>
    <g id="text_19">
     <!-- Exact expensive function -->
     <g transform="translate(94.6 102.104813)scale(0.1 -0.1)">
      <use xlink:href="#DejaVuSans-69"/>
      <use x="63.183594" xlink:href="#DejaVuSans-120"/>
      <use x="122.363281" xlink:href="#DejaVuSans-97"/>
      <use x="183.642578" xlink:href="#DejaVuSans-99"/>
      <use x="238.623047" xlink:href="#DejaVuSans-116"/>
      <use x="277.832031" xlink:href="#DejaVuSans-32"/>
      <use x="309.619141" xlink:href="#DejaVuSans-101"/>
      <use x="369.392578" xlink:href="#DejaVuSans-120"/>
      <use x="428.572266" xlink:href="#DejaVuSans-112"/>
      <use x="492.048828" xlink:href="#DejaVuSans-101"/>
      <use x="553.572266" xlink:href="#DejaVuSans-110"/>
      <use x="616.951172" xlink:href="#DejaVuSans-115"/>
      <use x="669.050781" xlink:href="#DejaVuSans-105"/>
      <use x="696.833984" xlink:href="#DejaVuSans-118"/>
      <use x="756.013672" xlink:href="#DejaVuSans-101"/>
      <use x="817.537109" xlink:href="#DejaVuSans-32"/>
      <use x="849.324219" xlink:href="#DejaVuSans-102"/>
      <use x="884.529297" xlink:href="#DejaVuSans-117"/>
      <use x="947.908203" xlink:href="#DejaVuSans-110"/>
      <use x="1011.287109" xlink:href="#DejaVuSans-99"/>
      <use x="1066.267578" xlink:href="#DejaVuSans-116"/>
      <use x="1105.476562" xlink:href="#DejaVuSans-105"/>
      <use x="1133.259766" xlink:href="#DejaVuSans-111"/>
      <use x="1194.441406" xlink:href="#DejaVuSans-110"/>
     </g>
    </g>
   </g>
  </g>
 </g>
 <defs>
  <clipPath id="p962000c6da">
   <rect height="266.112" width="357.12" x="57.6" y="41.472"/>
  </clipPath>
 </defs>
</svg>
