<?xml version="1.0" encoding="utf-8" standalone="no"?>
<!DOCTYPE svg PUBLIC "-//W3C//DTD SVG 1.1//EN"
  "http://www.w3.org/Graphics/SVG/1.1/DTD/svg11.dtd">
<!-- Created with matplotlib (https://matplotlib.org/) -->
<svg height="345.6pt" version="1.1" viewBox="0 0 460.8 345.6" width="460.8pt" xmlns="http://www.w3.org/2000/svg" xmlns:xlink="http://www.w3.org/1999/xlink">
 <metadata>
  <rdf:RDF xmlns:cc="http://creativecommons.org/ns#" xmlns:dc="http://purl.org/dc/elements/1.1/" xmlns:rdf="http://www.w3.org/1999/02/22-rdf-syntax-ns#">
   <cc:Work>
    <dc:type rdf:resource="http://purl.org/dc/dcmitype/StillImage"/>
    <dc:date>2020-11-24T13:54:48.871249</dc:date>
    <dc:format>image/svg+xml</dc:format>
    <dc:creator>
     <cc:Agent>
      <dc:title>Matplotlib v3.3.1, https://matplotlib.org/</dc:title>
     </cc:Agent>
    </dc:creator>
   </cc:Work>
  </rdf:RDF>
 </metadata>
 <defs>
  <style type="text/css">*{stroke-linecap:butt;stroke-linejoin:round;}</style>
 </defs>
 <g id="figure_1">
  <g id="patch_1">
   <path d="M 0 345.6 
L 460.8 345.6 
L 460.8 0 
L 0 0 
z
" style="fill:#ffffff;"/>
  </g>
  <g id="axes_1">
   <g id="patch_2">
    <path d="M 57.6 307.584 
L 414.72 307.584 
L 414.72 41.472 
L 57.6 41.472 
z
" style="fill:#ffffff;"/>
   </g>
   <g id="PolyCollection_1">
    <defs>
     <path d="M 73.832727 -89.807122 
L 73.832727 -55.016049 
L 77.112066 -54.763775 
L 80.391405 -54.13329 
L 83.670744 -53.300395 
L 86.950083 -52.411147 
L 90.229421 -51.580368 
L 93.50876 -50.892069 
L 96.788099 -50.401516 
L 100.067438 -50.138584 
L 103.346777 -50.112 
L 106.626116 -50.314035 
L 109.905455 -50.725254 
L 113.184793 -51.318963 
L 116.464132 -52.0651 
L 119.743471 -52.93336 
L 123.02281 -53.895501 
L 126.302149 -54.926804 
L 129.581488 -56.006786 
L 132.860826 -57.11929 
L 136.140165 -58.25212 
L 139.419504 -59.396401 
L 142.698843 -60.54582 
L 145.978182 -61.695898 
L 149.257521 -62.843388 
L 152.53686 -63.985858 
L 155.816198 -65.121475 
L 159.095537 -66.248968 
L 162.374876 -67.367734 
L 165.654215 -68.478016 
L 168.933554 -69.581084 
L 172.212893 -70.679371 
L 175.492231 -71.776503 
L 178.77157 -72.877204 
L 182.050909 -73.987059 
L 185.330248 -75.112146 
L 188.609587 -76.258568 
L 191.888926 -77.431916 
L 195.168264 -78.636706 
L 198.447603 -79.875841 
L 201.726942 -81.150128 
L 205.006281 -82.457889 
L 208.28562 -83.794695 
L 211.564959 -85.153224 
L 214.844298 -86.523271 
L 218.123636 -87.891885 
L 221.402975 -89.243637 
L 224.682314 -90.561013 
L 227.961653 -91.824893 
L 231.240992 -93.015125 
L 234.520331 -94.111153 
L 237.799669 -95.092689 
L 241.079008 -95.940405 
L 244.358347 -96.636626 
L 247.637686 -97.166004 
L 250.917025 -97.516151 
L 254.196364 -97.678215 
L 257.475702 -97.647385 
L 260.755041 -97.423316 
L 264.03438 -97.010457 
L 267.313719 -96.418284 
L 270.593058 -95.661437 
L 273.872397 -94.759755 
L 277.151736 -93.738206 
L 280.431074 -92.626725 
L 283.710413 -91.459939 
L 286.989752 -90.276783 
L 290.269091 -89.119991 
L 293.54843 -88.035454 
L 296.827769 -87.071429 
L 300.107107 -86.277596 
L 303.386446 -85.703963 
L 306.665785 -85.399635 
L 309.945124 -85.411465 
L 313.224463 -85.782655 
L 316.503802 -86.551353 
L 319.78314 -87.749341 
L 323.062479 -89.400891 
L 326.341818 -91.521895 
L 329.621157 -94.119334 
L 332.900496 -97.19116 
L 336.179835 -100.726605 
L 339.459174 -104.706908 
L 342.738512 -109.106398 
L 346.017851 -113.893815 
L 349.29719 -119.033725 
L 352.576529 -124.487825 
L 355.855868 -130.21596 
L 359.135207 -136.176629 
L 362.414545 -142.326845 
L 365.693884 -148.621213 
L 368.973223 -155.010204 
L 372.252562 -161.437673 
L 375.531901 -167.837771 
L 378.81124 -174.131494 
L 382.090579 -180.223191 
L 385.369917 -185.997402 
L 388.649256 -191.316449 
L 391.928595 -196.019154 
L 395.207934 -199.921039 
L 398.487273 -202.816256 
L 398.487273 -237.607329 
L 398.487273 -237.607329 
L 395.207934 -232.146953 
L 391.928595 -226.804752 
L 388.649256 -221.448425 
L 385.369917 -215.979315 
L 382.090579 -210.333274 
L 378.81124 -204.479516 
L 375.531901 -198.417773 
L 372.252562 -192.174097 
L 368.973223 -185.79575 
L 365.693884 -179.345618 
L 362.414545 -172.896574 
L 359.135207 -166.526162 
L 355.855868 -160.311886 
L 352.576529 -154.327314 
L 349.29719 -148.639094 
L 346.017851 -143.304896 
L 342.738512 -138.37222 
L 339.459174 -133.877935 
L 336.179835 -129.848404 
L 332.900496 -126.300021 
L 329.621157 -123.239978 
L 326.341818 -120.66715 
L 323.062479 -118.572964 
L 319.78314 -116.942197 
L 316.503802 -115.753679 
L 313.224463 -114.98089 
L 309.945124 -114.592495 
L 306.665785 -114.552859 
L 303.386446 -114.822573 
L 300.107107 -115.359058 
L 296.827769 -116.117258 
L 293.54843 -117.050436 
L 290.269091 -118.111077 
L 286.989752 -119.25186 
L 283.710413 -120.426672 
L 280.431074 -121.59162 
L 277.151736 -122.705977 
L 273.872397 -123.733044 
L 270.593058 -124.640854 
L 267.313719 -125.402718 
L 264.03438 -125.997582 
L 260.755041 -126.410182 
L 257.475702 -126.631012 
L 254.196364 -126.656122 
L 250.917025 -126.486743 
L 247.637686 -126.128798 
L 244.358347 -125.5923 
L 241.079008 -124.890675 
L 237.799669 -124.04005 
L 234.520331 -123.058515 
L 231.240992 -121.965396 
L 227.961653 -120.780567 
L 224.682314 -119.523807 
L 221.402975 -118.214229 
L 218.123636 -116.869791 
L 214.844298 -115.506898 
L 211.564959 -114.140089 
L 208.28562 -112.78182 
L 205.006281 -111.442324 
L 201.726942 -110.129544 
L 198.447603 -108.84913 
L 195.168264 -107.604477 
L 191.888926 -106.39681 
L 188.609587 -105.225301 
L 185.330248 -104.087223 
L 182.050909 -102.978145 
L 178.77157 -101.892186 
L 175.492231 -100.822332 
L 172.212893 -99.760833 
L 168.933554 -98.699694 
L 165.654215 -97.631241 
L 162.374876 -96.548765 
L 159.095537 -95.447202 
L 155.816198 -94.3238 
L 152.53686 -93.178715 
L 149.257521 -92.015461 
L 145.978182 -90.841153 
L 142.698843 -89.666464 
L 139.419504 -88.505262 
L 136.140165 -87.373919 
L 132.860826 -86.290316 
L 129.581488 -85.272608 
L 126.302149 -84.337885 
L 123.02281 -83.50087 
L 119.743471 -82.772848 
L 116.464132 -82.161026 
L 113.184793 -81.668496 
L 109.905455 -81.294983 
L 106.626116 -81.03844 
L 103.346777 -80.897546 
L 100.067438 -80.875008 
L 96.788099 -80.981518 
L 93.50876 -81.240091 
L 90.229421 -81.690451 
L 86.950083 -82.39306 
L 83.670744 -83.43237 
L 80.391405 -84.918888 
L 77.112066 -86.989689 
L 73.832727 -89.807122 
z
" id="m883cbb927a" style="stroke:#0000ff;stroke-opacity:0.2;"/>
    </defs>
    <g clip-path="url(#pdce3dfe653)">
     <use style="fill:#0000ff;fill-opacity:0.2;stroke:#0000ff;stroke-opacity:0.2;" x="0" xlink:href="#m883cbb927a" y="345.6"/>
    </g>
   </g>
   <g id="PolyCollection_2">
    <defs>
     <path d="M 73.832727 -141.722065 
L 73.832727 -103.768038 
L 77.112066 -103.527485 
L 80.391405 -102.895509 
L 83.670744 -102.052748 
L 86.950083 -101.149292 
L 90.229421 -100.303154 
L 93.50876 -99.600703 
L 96.788099 -99.098793 
L 100.067438 -98.828206 
L 103.346777 -98.798014 
L 106.626116 -99.000403 
L 109.905455 -99.415547 
L 113.184793 -100.016185 
L 116.464132 -100.771607 
L 119.743471 -101.650871 
L 123.02281 -102.625165 
L 126.302149 -103.669301 
L 129.581488 -104.762447 
L 132.860826 -105.88821 
L 136.140165 -107.034259 
L 139.419504 -108.19166 
L 142.698843 -109.354094 
L 145.978182 -110.517104 
L 149.257521 -111.677474 
L 152.53686 -112.832795 
L 155.816198 -113.981244 
L 159.095537 -115.121552 
L 162.374876 -116.253102 
L 165.654215 -117.376123 
L 168.933554 -118.491876 
L 172.212893 -119.602797 
L 175.492231 -120.712535 
L 178.77157 -121.825857 
L 182.050909 -122.94841 
L 185.330248 -124.086349 
L 188.609587 -125.245865 
L 191.888926 -126.432634 
L 195.168264 -127.651248 
L 198.447603 -128.904666 
L 201.726942 -130.193719 
L 205.006281 -131.516719 
L 208.28562 -132.869182 
L 211.564959 -134.243692 
L 214.844298 -135.629899 
L 218.123636 -137.014668 
L 221.402975 -138.382351 
L 224.682314 -139.715179 
L 227.961653 -140.993762 
L 231.240992 -142.197657 
L 234.520331 -143.306016 
L 237.799669 -144.298267 
L 241.079008 -145.154812 
L 244.358347 -145.857733 
L 247.637686 -146.391474 
L 250.917025 -146.743481 
L 254.196364 -146.904787 
L 257.475702 -146.870523 
L 260.755041 -146.640344 
L 264.03438 -146.218766 
L 267.313719 -145.615395 
L 270.593058 -144.845073 
L 273.872397 -143.927904 
L 277.151736 -142.889192 
L 280.431074 -141.759276 
L 283.710413 -140.57325 
L 286.989752 -139.370579 
L 290.269091 -138.194583 
L 293.54843 -137.091791 
L 296.827769 -136.111139 
L 300.107107 -135.303013 
L 303.386446 -134.718142 
L 306.665785 -134.406343 
L 309.945124 -134.415152 
L 313.224463 -134.788399 
L 316.503802 -135.564781 
L 319.78314 -136.776526 
L 323.062479 -138.448228 
L 326.341818 -140.595963 
L 329.621157 -143.226751 
L 332.900496 -146.338442 
L 336.179835 -149.920032 
L 339.459174 -153.952417 
L 342.738512 -158.409504 
L 346.017851 -163.259564 
L 349.29719 -168.466677 
L 352.576529 -173.992074 
L 355.855868 -179.795162 
L 359.135207 -185.834042 
L 362.414545 -192.065344 
L 365.693884 -198.443265 
L 368.973223 -204.917786 
L 372.252562 -211.432098 
L 375.531901 -217.919414 
L 378.81124 -224.299406 
L 382.090579 -230.474597 
L 385.369917 -236.327105 
L 388.649256 -241.716145 
L 391.928595 -246.476701 
L 395.207934 -250.419727 
L 398.487273 -253.334122 
L 398.487273 -291.286391 
L 398.487273 -291.286391 
L 395.207934 -285.73476 
L 391.928595 -280.310894 
L 388.649256 -274.878259 
L 385.369917 -269.334829 
L 382.090579 -263.613969 
L 378.81124 -257.683276 
L 375.531901 -251.541661 
L 372.252562 -245.215046 
L 368.973223 -238.751129 
L 365.693884 -232.21365 
L 362.414545 -225.676615 
L 359.135207 -219.218846 
L 355.855868 -212.919153 
L 352.576529 -206.852345 
L 349.29719 -201.086175 
L 346.017851 -195.679241 
L 342.738512 -190.679767 
L 339.459174 -186.125148 
L 336.179835 -182.042079 
L 332.900496 -178.447116 
L 329.621157 -175.34747 
L 326.341818 -172.741918 
L 323.062479 -170.621689 
L 319.78314 -168.971294 
L 316.503802 -167.769227 
L 313.224463 -166.988585 
L 309.945124 -166.5976 
L 306.665785 -166.560158 
L 303.386446 -166.836327 
L 300.107107 -167.382966 
L 296.827769 -168.154419 
L 293.54843 -169.103324 
L 290.269091 -170.181516 
L 286.989752 -171.341024 
L 283.710413 -172.53509 
L 280.431074 -173.719202 
L 277.151736 -174.852055 
L 273.872397 -175.89642 
L 270.593058 -176.819873 
L 267.313719 -177.595343 
L 264.03438 -178.20147 
L 260.755041 -178.622776 
L 257.475702 -178.849622 
L 254.196364 -178.878005 
L 250.917025 -178.709181 
L 247.637686 -178.349164 
L 244.358347 -177.808112 
L 241.079008 -177.099647 
L 237.799669 -176.240126 
L 234.520331 -175.247894 
L 231.240992 -174.142546 
L 227.961653 -172.944229 
L 224.682314 -171.672994 
L 221.402975 -170.348211 
L 218.123636 -168.98808 
L 214.844298 -167.609228 
L 211.564959 -166.226389 
L 208.28562 -164.852189 
L 205.006281 -163.497004 
L 201.726942 -162.168893 
L 198.447603 -160.873591 
L 195.168264 -159.614555 
L 191.888926 -158.393039 
L 188.609587 -157.20822 
L 185.330248 -156.057344 
L 182.050909 -154.935929 
L 178.77157 -153.838011 
L 175.492231 -152.756473 
L 172.212893 -151.683443 
L 168.933554 -150.610788 
L 165.654215 -149.530701 
L 162.374876 -148.43635 
L 159.095537 -147.322572 
L 155.816198 -146.18656 
L 152.53686 -145.028468 
L 149.257521 -143.851876 
L 145.978182 -142.664036 
L 142.698843 -141.475825 
L 139.419504 -140.301381 
L 136.140165 -139.157389 
L 132.860826 -138.062059 
L 129.581488 -137.033864 
L 126.302149 -136.090168 
L 123.02281 -135.245888 
L 119.743471 -134.512403 
L 116.464132 -133.896894 
L 113.184793 -133.402321 
L 109.905455 -133.028186 
L 106.626116 -132.772191 
L 103.346777 -132.632796 
L 100.067438 -132.612628 
L 96.788099 -132.722549 
L 93.50876 -132.986119 
L 90.229421 -133.444106 
L 86.950083 -134.158632 
L 83.670744 -135.216514 
L 80.391405 -136.731388 
L 77.112066 -138.84424 
L 73.832727 -141.722065 
z
" id="m357844e4ba" style="stroke:#ffa500;stroke-opacity:0.2;"/>
    </defs>
    <g clip-path="url(#pdce3dfe653)">
     <use style="fill:#ffa500;fill-opacity:0.2;stroke:#ffa500;stroke-opacity:0.2;" x="0" xlink:href="#m357844e4ba" y="345.6"/>
    </g>
   </g>
   <g id="PathCollection_1">
    <defs>
     <path d="M 0 3 
C 0.795609 3 1.55874 2.683901 2.12132 2.12132 
C 2.683901 1.55874 3 0.795609 3 0 
C 3 -0.795609 2.683901 -1.55874 2.12132 -2.12132 
C 1.55874 -2.683901 0.795609 -3 0 -3 
C -0.795609 -3 -1.55874 -2.683901 -2.12132 -2.12132 
C -2.683901 -1.55874 -3 -0.795609 -3 0 
C -3 0.795609 -2.683901 1.55874 -2.12132 2.12132 
C -1.55874 2.683901 -0.795609 3 0 3 
z
" id="ma7a6a272ad" style="stroke:#0000ff;"/>
    </defs>
    <g clip-path="url(#pdce3dfe653)">
     <use style="fill:#0000ff;stroke:#0000ff;" x="73.832727" xlink:href="#ma7a6a272ad" y="273.346132"/>
     <use style="fill:#0000ff;stroke:#0000ff;" x="106.298182" xlink:href="#ma7a6a272ad" y="281.002707"/>
     <use style="fill:#0000ff;stroke:#0000ff;" x="138.763636" xlink:href="#ma7a6a272ad" y="271.831617"/>
     <use style="fill:#0000ff;stroke:#0000ff;" x="171.229091" xlink:href="#ma7a6a272ad" y="259.898987"/>
     <use style="fill:#0000ff;stroke:#0000ff;" x="203.694545" xlink:href="#ma7a6a272ad" y="250.211768"/>
     <use style="fill:#0000ff;stroke:#0000ff;" x="236.16" xlink:href="#ma7a6a272ad" y="237.504426"/>
     <use style="fill:#0000ff;stroke:#0000ff;" x="268.625455" xlink:href="#ma7a6a272ad" y="233.224273"/>
     <use style="fill:#0000ff;stroke:#0000ff;" x="301.090909" xlink:href="#ma7a6a272ad" y="244.393721"/>
     <use style="fill:#0000ff;stroke:#0000ff;" x="333.556364" xlink:href="#ma7a6a272ad" y="236.860664"/>
     <use style="fill:#0000ff;stroke:#0000ff;" x="366.021818" xlink:href="#ma7a6a272ad" y="179.28775"/>
     <use style="fill:#0000ff;stroke:#0000ff;" x="398.487273" xlink:href="#ma7a6a272ad" y="124.185346"/>
    </g>
   </g>
   <g id="PathCollection_2">
    <defs>
     <path d="M 0 3 
C 0.795609 3 1.55874 2.683901 2.12132 2.12132 
C 2.683901 1.55874 3 0.795609 3 0 
C 3 -0.795609 2.683901 -1.55874 2.12132 -2.12132 
C 1.55874 -2.683901 0.795609 -3 0 -3 
C -0.795609 -3 -1.55874 -2.683901 -2.12132 -2.12132 
C -2.683901 -1.55874 -3 -0.795609 -3 0 
C -3 0.795609 -2.683901 1.55874 -2.12132 2.12132 
C -1.55874 2.683901 -0.795609 3 0 3 
z
" id="m501c64ef18" style="stroke:#ffa500;"/>
    </defs>
    <g clip-path="url(#pdce3dfe653)">
     <use style="fill:#ffa500;stroke:#ffa500;" x="73.832727" xlink:href="#m501c64ef18" y="170.00016"/>
     <use style="fill:#ffa500;stroke:#ffa500;" x="203.694545" xlink:href="#m501c64ef18" y="196.487197"/>
     <use style="fill:#ffa500;stroke:#ffa500;" x="268.625455" xlink:href="#m501c64ef18" y="198.89009"/>
     <use style="fill:#ffa500;stroke:#ffa500;" x="333.556364" xlink:href="#m501c64ef18" y="242.540754"/>
     <use style="fill:#ffa500;stroke:#ffa500;" x="398.487273" xlink:href="#m501c64ef18" y="53.568"/>
    </g>
   </g>
   <g id="matplotlib.axis_1">
    <g id="xtick_1">
     <g id="line2d_1">
      <path clip-path="url(#pdce3dfe653)" d="M 73.832727 307.584 
L 73.832727 41.472 
" style="fill:none;stroke:#b0b0b0;stroke-linecap:square;stroke-width:0.8;"/>
     </g>
     <g id="line2d_2">
      <defs>
       <path d="M 0 0 
L 0 3.5 
" id="mb49720066e" style="stroke:#000000;stroke-width:0.8;"/>
      </defs>
      <g>
       <use style="stroke:#000000;stroke-width:0.8;" x="73.832727" xlink:href="#mb49720066e" y="307.584"/>
      </g>
     </g>
     <g id="text_1">
      <!-- 0.0 -->
      <g transform="translate(65.881165 322.182437)scale(0.1 -0.1)">
       <defs>
        <path d="M 31.78125 66.40625 
Q 24.171875 66.40625 20.328125 58.90625 
Q 16.5 51.421875 16.5 36.375 
Q 16.5 21.390625 20.328125 13.890625 
Q 24.171875 6.390625 31.78125 6.390625 
Q 39.453125 6.390625 43.28125 13.890625 
Q 47.125 21.390625 47.125 36.375 
Q 47.125 51.421875 43.28125 58.90625 
Q 39.453125 66.40625 31.78125 66.40625 
z
M 31.78125 74.21875 
Q 44.046875 74.21875 50.515625 64.515625 
Q 56.984375 54.828125 56.984375 36.375 
Q 56.984375 17.96875 50.515625 8.265625 
Q 44.046875 -1.421875 31.78125 -1.421875 
Q 19.53125 -1.421875 13.0625 8.265625 
Q 6.59375 17.96875 6.59375 36.375 
Q 6.59375 54.828125 13.0625 64.515625 
Q 19.53125 74.21875 31.78125 74.21875 
z
" id="DejaVuSans-48"/>
        <path d="M 10.6875 12.40625 
L 21 12.40625 
L 21 0 
L 10.6875 0 
z
" id="DejaVuSans-46"/>
       </defs>
       <use xlink:href="#DejaVuSans-48"/>
       <use x="63.623047" xlink:href="#DejaVuSans-46"/>
       <use x="95.410156" xlink:href="#DejaVuSans-48"/>
      </g>
     </g>
    </g>
    <g id="xtick_2">
     <g id="line2d_3">
      <path clip-path="url(#pdce3dfe653)" d="M 138.763636 307.584 
L 138.763636 41.472 
" style="fill:none;stroke:#b0b0b0;stroke-linecap:square;stroke-width:0.8;"/>
     </g>
     <g id="line2d_4">
      <g>
       <use style="stroke:#000000;stroke-width:0.8;" x="138.763636" xlink:href="#mb49720066e" y="307.584"/>
      </g>
     </g>
     <g id="text_2">
      <!-- 0.2 -->
      <g transform="translate(130.812074 322.182437)scale(0.1 -0.1)">
       <defs>
        <path d="M 19.1875 8.296875 
L 53.609375 8.296875 
L 53.609375 0 
L 7.328125 0 
L 7.328125 8.296875 
Q 12.9375 14.109375 22.625 23.890625 
Q 32.328125 33.6875 34.8125 36.53125 
Q 39.546875 41.84375 41.421875 45.53125 
Q 43.3125 49.21875 43.3125 52.78125 
Q 43.3125 58.59375 39.234375 62.25 
Q 35.15625 65.921875 28.609375 65.921875 
Q 23.96875 65.921875 18.8125 64.3125 
Q 13.671875 62.703125 7.8125 59.421875 
L 7.8125 69.390625 
Q 13.765625 71.78125 18.9375 73 
Q 24.125 74.21875 28.421875 74.21875 
Q 39.75 74.21875 46.484375 68.546875 
Q 53.21875 62.890625 53.21875 53.421875 
Q 53.21875 48.921875 51.53125 44.890625 
Q 49.859375 40.875 45.40625 35.40625 
Q 44.1875 33.984375 37.640625 27.21875 
Q 31.109375 20.453125 19.1875 8.296875 
z
" id="DejaVuSans-50"/>
       </defs>
       <use xlink:href="#DejaVuSans-48"/>
       <use x="63.623047" xlink:href="#DejaVuSans-46"/>
       <use x="95.410156" xlink:href="#DejaVuSans-50"/>
      </g>
     </g>
    </g>
    <g id="xtick_3">
     <g id="line2d_5">
      <path clip-path="url(#pdce3dfe653)" d="M 203.694545 307.584 
L 203.694545 41.472 
" style="fill:none;stroke:#b0b0b0;stroke-linecap:square;stroke-width:0.8;"/>
     </g>
     <g id="line2d_6">
      <g>
       <use style="stroke:#000000;stroke-width:0.8;" x="203.694545" xlink:href="#mb49720066e" y="307.584"/>
      </g>
     </g>
     <g id="text_3">
      <!-- 0.4 -->
      <g transform="translate(195.742983 322.182437)scale(0.1 -0.1)">
       <defs>
        <path d="M 37.796875 64.3125 
L 12.890625 25.390625 
L 37.796875 25.390625 
z
M 35.203125 72.90625 
L 47.609375 72.90625 
L 47.609375 25.390625 
L 58.015625 25.390625 
L 58.015625 17.1875 
L 47.609375 17.1875 
L 47.609375 0 
L 37.796875 0 
L 37.796875 17.1875 
L 4.890625 17.1875 
L 4.890625 26.703125 
z
" id="DejaVuSans-52"/>
       </defs>
       <use xlink:href="#DejaVuSans-48"/>
       <use x="63.623047" xlink:href="#DejaVuSans-46"/>
       <use x="95.410156" xlink:href="#DejaVuSans-52"/>
      </g>
     </g>
    </g>
    <g id="xtick_4">
     <g id="line2d_7">
      <path clip-path="url(#pdce3dfe653)" d="M 268.625455 307.584 
L 268.625455 41.472 
" style="fill:none;stroke:#b0b0b0;stroke-linecap:square;stroke-width:0.8;"/>
     </g>
     <g id="line2d_8">
      <g>
       <use style="stroke:#000000;stroke-width:0.8;" x="268.625455" xlink:href="#mb49720066e" y="307.584"/>
      </g>
     </g>
     <g id="text_4">
      <!-- 0.6 -->
      <g transform="translate(260.673892 322.182437)scale(0.1 -0.1)">
       <defs>
        <path d="M 33.015625 40.375 
Q 26.375 40.375 22.484375 35.828125 
Q 18.609375 31.296875 18.609375 23.390625 
Q 18.609375 15.53125 22.484375 10.953125 
Q 26.375 6.390625 33.015625 6.390625 
Q 39.65625 6.390625 43.53125 10.953125 
Q 47.40625 15.53125 47.40625 23.390625 
Q 47.40625 31.296875 43.53125 35.828125 
Q 39.65625 40.375 33.015625 40.375 
z
M 52.59375 71.296875 
L 52.59375 62.3125 
Q 48.875 64.0625 45.09375 64.984375 
Q 41.3125 65.921875 37.59375 65.921875 
Q 27.828125 65.921875 22.671875 59.328125 
Q 17.53125 52.734375 16.796875 39.40625 
Q 19.671875 43.65625 24.015625 45.921875 
Q 28.375 48.1875 33.59375 48.1875 
Q 44.578125 48.1875 50.953125 41.515625 
Q 57.328125 34.859375 57.328125 23.390625 
Q 57.328125 12.15625 50.6875 5.359375 
Q 44.046875 -1.421875 33.015625 -1.421875 
Q 20.359375 -1.421875 13.671875 8.265625 
Q 6.984375 17.96875 6.984375 36.375 
Q 6.984375 53.65625 15.1875 63.9375 
Q 23.390625 74.21875 37.203125 74.21875 
Q 40.921875 74.21875 44.703125 73.484375 
Q 48.484375 72.75 52.59375 71.296875 
z
" id="DejaVuSans-54"/>
       </defs>
       <use xlink:href="#DejaVuSans-48"/>
       <use x="63.623047" xlink:href="#DejaVuSans-46"/>
       <use x="95.410156" xlink:href="#DejaVuSans-54"/>
      </g>
     </g>
    </g>
    <g id="xtick_5">
     <g id="line2d_9">
      <path clip-path="url(#pdce3dfe653)" d="M 333.556364 307.584 
L 333.556364 41.472 
" style="fill:none;stroke:#b0b0b0;stroke-linecap:square;stroke-width:0.8;"/>
     </g>
     <g id="line2d_10">
      <g>
       <use style="stroke:#000000;stroke-width:0.8;" x="333.556364" xlink:href="#mb49720066e" y="307.584"/>
      </g>
     </g>
     <g id="text_5">
      <!-- 0.8 -->
      <g transform="translate(325.604801 322.182437)scale(0.1 -0.1)">
       <defs>
        <path d="M 31.78125 34.625 
Q 24.75 34.625 20.71875 30.859375 
Q 16.703125 27.09375 16.703125 20.515625 
Q 16.703125 13.921875 20.71875 10.15625 
Q 24.75 6.390625 31.78125 6.390625 
Q 38.8125 6.390625 42.859375 10.171875 
Q 46.921875 13.96875 46.921875 20.515625 
Q 46.921875 27.09375 42.890625 30.859375 
Q 38.875 34.625 31.78125 34.625 
z
M 21.921875 38.8125 
Q 15.578125 40.375 12.03125 44.71875 
Q 8.5 49.078125 8.5 55.328125 
Q 8.5 64.0625 14.71875 69.140625 
Q 20.953125 74.21875 31.78125 74.21875 
Q 42.671875 74.21875 48.875 69.140625 
Q 55.078125 64.0625 55.078125 55.328125 
Q 55.078125 49.078125 51.53125 44.71875 
Q 48 40.375 41.703125 38.8125 
Q 48.828125 37.15625 52.796875 32.3125 
Q 56.78125 27.484375 56.78125 20.515625 
Q 56.78125 9.90625 50.3125 4.234375 
Q 43.84375 -1.421875 31.78125 -1.421875 
Q 19.734375 -1.421875 13.25 4.234375 
Q 6.78125 9.90625 6.78125 20.515625 
Q 6.78125 27.484375 10.78125 32.3125 
Q 14.796875 37.15625 21.921875 38.8125 
z
M 18.3125 54.390625 
Q 18.3125 48.734375 21.84375 45.5625 
Q 25.390625 42.390625 31.78125 42.390625 
Q 38.140625 42.390625 41.71875 45.5625 
Q 45.3125 48.734375 45.3125 54.390625 
Q 45.3125 60.0625 41.71875 63.234375 
Q 38.140625 66.40625 31.78125 66.40625 
Q 25.390625 66.40625 21.84375 63.234375 
Q 18.3125 60.0625 18.3125 54.390625 
z
" id="DejaVuSans-56"/>
       </defs>
       <use xlink:href="#DejaVuSans-48"/>
       <use x="63.623047" xlink:href="#DejaVuSans-46"/>
       <use x="95.410156" xlink:href="#DejaVuSans-56"/>
      </g>
     </g>
    </g>
    <g id="xtick_6">
     <g id="line2d_11">
      <path clip-path="url(#pdce3dfe653)" d="M 398.487273 307.584 
L 398.487273 41.472 
" style="fill:none;stroke:#b0b0b0;stroke-linecap:square;stroke-width:0.8;"/>
     </g>
     <g id="line2d_12">
      <g>
       <use style="stroke:#000000;stroke-width:0.8;" x="398.487273" xlink:href="#mb49720066e" y="307.584"/>
      </g>
     </g>
     <g id="text_6">
      <!-- 1.0 -->
      <g transform="translate(390.53571 322.182437)scale(0.1 -0.1)">
       <defs>
        <path d="M 12.40625 8.296875 
L 28.515625 8.296875 
L 28.515625 63.921875 
L 10.984375 60.40625 
L 10.984375 69.390625 
L 28.421875 72.90625 
L 38.28125 72.90625 
L 38.28125 8.296875 
L 54.390625 8.296875 
L 54.390625 0 
L 12.40625 0 
z
" id="DejaVuSans-49"/>
       </defs>
       <use xlink:href="#DejaVuSans-49"/>
       <use x="63.623047" xlink:href="#DejaVuSans-46"/>
       <use x="95.410156" xlink:href="#DejaVuSans-48"/>
      </g>
     </g>
    </g>
   </g>
   <g id="matplotlib.axis_2">
    <g id="ytick_1">
     <g id="line2d_13">
      <path clip-path="url(#pdce3dfe653)" d="M 57.6 289.385186 
L 414.72 289.385186 
" style="fill:none;stroke:#b0b0b0;stroke-linecap:square;stroke-width:0.8;"/>
     </g>
     <g id="line2d_14">
      <defs>
       <path d="M 0 0 
L -3.5 0 
" id="m072e59405e" style="stroke:#000000;stroke-width:0.8;"/>
      </defs>
      <g>
       <use style="stroke:#000000;stroke-width:0.8;" x="57.6" xlink:href="#m072e59405e" y="289.385186"/>
      </g>
     </g>
     <g id="text_7">
      <!-- −10 -->
      <g transform="translate(29.495313 293.184405)scale(0.1 -0.1)">
       <defs>
        <path d="M 10.59375 35.5 
L 73.1875 35.5 
L 73.1875 27.203125 
L 10.59375 27.203125 
z
" id="DejaVuSans-8722"/>
       </defs>
       <use xlink:href="#DejaVuSans-8722"/>
       <use x="83.789062" xlink:href="#DejaVuSans-49"/>
       <use x="147.412109" xlink:href="#DejaVuSans-48"/>
      </g>
     </g>
    </g>
    <g id="ytick_2">
     <g id="line2d_15">
      <path clip-path="url(#pdce3dfe653)" d="M 57.6 243.912833 
L 414.72 243.912833 
" style="fill:none;stroke:#b0b0b0;stroke-linecap:square;stroke-width:0.8;"/>
     </g>
     <g id="line2d_16">
      <g>
       <use style="stroke:#000000;stroke-width:0.8;" x="57.6" xlink:href="#m072e59405e" y="243.912833"/>
      </g>
     </g>
     <g id="text_8">
      <!-- −5 -->
      <g transform="translate(35.857813 247.712051)scale(0.1 -0.1)">
       <defs>
        <path d="M 10.796875 72.90625 
L 49.515625 72.90625 
L 49.515625 64.59375 
L 19.828125 64.59375 
L 19.828125 46.734375 
Q 21.96875 47.46875 24.109375 47.828125 
Q 26.265625 48.1875 28.421875 48.1875 
Q 40.625 48.1875 47.75 41.5 
Q 54.890625 34.8125 54.890625 23.390625 
Q 54.890625 11.625 47.5625 5.09375 
Q 40.234375 -1.421875 26.90625 -1.421875 
Q 22.3125 -1.421875 17.546875 -0.640625 
Q 12.796875 0.140625 7.71875 1.703125 
L 7.71875 11.625 
Q 12.109375 9.234375 16.796875 8.0625 
Q 21.484375 6.890625 26.703125 6.890625 
Q 35.15625 6.890625 40.078125 11.328125 
Q 45.015625 15.765625 45.015625 23.390625 
Q 45.015625 31 40.078125 35.4375 
Q 35.15625 39.890625 26.703125 39.890625 
Q 22.75 39.890625 18.8125 39.015625 
Q 14.890625 38.140625 10.796875 36.28125 
z
" id="DejaVuSans-53"/>
       </defs>
       <use xlink:href="#DejaVuSans-8722"/>
       <use x="83.789062" xlink:href="#DejaVuSans-53"/>
      </g>
     </g>
    </g>
    <g id="ytick_3">
     <g id="line2d_17">
      <path clip-path="url(#pdce3dfe653)" d="M 57.6 198.440479 
L 414.72 198.440479 
" style="fill:none;stroke:#b0b0b0;stroke-linecap:square;stroke-width:0.8;"/>
     </g>
     <g id="line2d_18">
      <g>
       <use style="stroke:#000000;stroke-width:0.8;" x="57.6" xlink:href="#m072e59405e" y="198.440479"/>
      </g>
     </g>
     <g id="text_9">
      <!-- 0 -->
      <g transform="translate(44.2375 202.239698)scale(0.1 -0.1)">
       <use xlink:href="#DejaVuSans-48"/>
      </g>
     </g>
    </g>
    <g id="ytick_4">
     <g id="line2d_19">
      <path clip-path="url(#pdce3dfe653)" d="M 57.6 152.968126 
L 414.72 152.968126 
" style="fill:none;stroke:#b0b0b0;stroke-linecap:square;stroke-width:0.8;"/>
     </g>
     <g id="line2d_20">
      <g>
       <use style="stroke:#000000;stroke-width:0.8;" x="57.6" xlink:href="#m072e59405e" y="152.968126"/>
      </g>
     </g>
     <g id="text_10">
      <!-- 5 -->
      <g transform="translate(44.2375 156.767345)scale(0.1 -0.1)">
       <use xlink:href="#DejaVuSans-53"/>
      </g>
     </g>
    </g>
    <g id="ytick_5">
     <g id="line2d_21">
      <path clip-path="url(#pdce3dfe653)" d="M 57.6 107.495773 
L 414.72 107.495773 
" style="fill:none;stroke:#b0b0b0;stroke-linecap:square;stroke-width:0.8;"/>
     </g>
     <g id="line2d_22">
      <g>
       <use style="stroke:#000000;stroke-width:0.8;" x="57.6" xlink:href="#m072e59405e" y="107.495773"/>
      </g>
     </g>
     <g id="text_11">
      <!-- 10 -->
      <g transform="translate(37.875 111.294992)scale(0.1 -0.1)">
       <use xlink:href="#DejaVuSans-49"/>
       <use x="63.623047" xlink:href="#DejaVuSans-48"/>
      </g>
     </g>
    </g>
    <g id="ytick_6">
     <g id="line2d_23">
      <path clip-path="url(#pdce3dfe653)" d="M 57.6 62.02342 
L 414.72 62.02342 
" style="fill:none;stroke:#b0b0b0;stroke-linecap:square;stroke-width:0.8;"/>
     </g>
     <g id="line2d_24">
      <g>
       <use style="stroke:#000000;stroke-width:0.8;" x="57.6" xlink:href="#m072e59405e" y="62.02342"/>
      </g>
     </g>
     <g id="text_12">
      <!-- 15 -->
      <g transform="translate(37.875 65.822639)scale(0.1 -0.1)">
       <use xlink:href="#DejaVuSans-49"/>
       <use x="63.623047" xlink:href="#DejaVuSans-53"/>
      </g>
     </g>
    </g>
   </g>
   <g id="line2d_25">
    <path clip-path="url(#pdce3dfe653)" d="M 73.832727 273.188415 
L 77.112066 274.723268 
L 80.391405 276.073911 
L 83.670744 277.233617 
L 86.950083 278.197897 
L 90.229421 278.964591 
L 93.50876 279.53392 
L 96.788099 279.908483 
L 100.067438 280.093204 
L 103.346777 280.095227 
L 106.626116 279.923762 
L 109.905455 279.589882 
L 113.184793 279.10627 
L 116.464132 278.486937 
L 119.743471 277.746896 
L 123.02281 276.901815 
L 126.302149 275.967656 
L 129.581488 274.960303 
L 132.860826 273.895197 
L 136.140165 272.78698 
L 139.419504 271.649169 
L 142.698843 270.493858 
L 145.978182 269.331475 
L 149.257521 268.170576 
L 152.53686 267.017714 
L 155.816198 265.877362 
L 159.095537 264.751915 
L 162.374876 263.64175 
L 165.654215 262.545372 
L 168.933554 261.459611 
L 172.212893 260.379898 
L 175.492231 259.300583 
L 178.77157 258.215305 
L 182.050909 257.117398 
L 185.330248 256.000316 
L 188.609587 254.858065 
L 191.888926 253.685637 
L 195.168264 252.479408 
L 198.447603 251.237514 
L 201.726942 249.960164 
L 205.006281 248.649893 
L 208.28562 247.311743 
L 211.564959 245.953343 
L 214.844298 244.584915 
L 218.123636 243.219162 
L 221.402975 241.871067 
L 224.682314 240.55759 
L 227.961653 239.29727 
L 231.240992 238.10974 
L 234.520331 237.015166 
L 237.799669 236.03363 
L 241.079008 235.18446 
L 244.358347 234.485537 
L 247.637686 233.952599 
L 250.917025 233.598553 
L 254.196364 233.432832 
L 257.475702 233.460801 
L 260.755041 233.683251 
L 264.03438 234.095981 
L 267.313719 234.689499 
L 270.593058 235.448854 
L 273.872397 236.3536 
L 277.151736 237.377908 
L 280.431074 238.490828 
L 283.710413 239.656695 
L 286.989752 240.835679 
L 290.269091 241.984466 
L 293.54843 243.057055 
L 296.827769 244.005656 
L 300.107107 244.781673 
L 303.386446 245.336732 
L 306.665785 245.623753 
L 309.945124 245.59802 
L 313.224463 245.218228 
L 316.503802 244.447484 
L 319.78314 243.254231 
L 323.062479 241.613073 
L 326.341818 239.505478 
L 329.621157 236.920344 
L 332.900496 233.85441 
L 336.179835 230.312495 
L 339.459174 226.307578 
L 342.738512 221.860691 
L 346.017851 217.000644 
L 349.29719 211.763591 
L 352.576529 206.19243 
L 355.855868 200.336077 
L 359.135207 194.248604 
L 362.414545 187.98829 
L 365.693884 181.616584 
L 368.973223 175.197023 
L 372.252562 168.794115 
L 375.531901 162.472228 
L 378.81124 156.294495 
L 382.090579 150.321767 
L 385.369917 144.611641 
L 388.649256 139.217563 
L 391.928595 134.188047 
L 395.207934 129.566004 
L 398.487273 125.388207 
" style="fill:none;stroke:#0000ff;stroke-linecap:square;stroke-width:1.5;"/>
   </g>
   <g id="line2d_26">
    <path clip-path="url(#pdce3dfe653)" d="M 73.832727 255.792878 
L 77.112066 258.610311 
L 80.391405 260.681112 
L 83.670744 262.16763 
L 86.950083 263.20694 
L 90.229421 263.909549 
L 93.50876 264.359909 
L 96.788099 264.618482 
L 100.067438 264.724992 
L 103.346777 264.702454 
L 106.626116 264.56156 
L 109.905455 264.305017 
L 113.184793 263.931504 
L 116.464132 263.438974 
L 119.743471 262.827152 
L 123.02281 262.09913 
L 126.302149 261.262115 
L 129.581488 260.327392 
L 132.860826 259.309684 
L 136.140165 258.226081 
L 139.419504 257.094738 
L 142.698843 255.933536 
L 145.978182 254.758847 
L 149.257521 253.584539 
L 152.53686 252.421285 
L 155.816198 251.2762 
L 159.095537 250.152798 
L 162.374876 249.051235 
L 165.654215 247.968759 
L 168.933554 246.900306 
L 172.212893 245.839167 
L 175.492231 244.777668 
L 178.77157 243.707814 
L 182.050909 242.621855 
L 185.330248 241.512777 
L 188.609587 240.374699 
L 191.888926 239.20319 
L 195.168264 237.995523 
L 198.447603 236.75087 
L 201.726942 235.470456 
L 205.006281 234.157676 
L 208.28562 232.81818 
L 211.564959 231.459911 
L 214.844298 230.093102 
L 218.123636 228.730209 
L 221.402975 227.385771 
L 224.682314 226.076193 
L 227.961653 224.819433 
L 231.240992 223.634604 
L 234.520331 222.541485 
L 237.799669 221.55995 
L 241.079008 220.709325 
L 244.358347 220.0077 
L 247.637686 219.471202 
L 250.917025 219.113257 
L 254.196364 218.943878 
L 257.475702 218.968988 
L 260.755041 219.189818 
L 264.03438 219.602418 
L 267.313719 220.197282 
L 270.593058 220.959146 
L 273.872397 221.866956 
L 277.151736 222.894023 
L 280.431074 224.00838 
L 283.710413 225.173328 
L 286.989752 226.34814 
L 290.269091 227.488923 
L 293.54843 228.549564 
L 296.827769 229.482742 
L 300.107107 230.240942 
L 303.386446 230.777427 
L 306.665785 231.047141 
L 309.945124 231.007505 
L 313.224463 230.61911 
L 316.503802 229.846321 
L 319.78314 228.657803 
L 323.062479 227.027036 
L 326.341818 224.93285 
L 329.621157 222.360022 
L 332.900496 219.299979 
L 336.179835 215.751596 
L 339.459174 211.722065 
L 342.738512 207.22778 
L 346.017851 202.295104 
L 349.29719 196.960906 
L 352.576529 191.272686 
L 355.855868 185.288114 
L 359.135207 179.073838 
L 362.414545 172.703426 
L 365.693884 166.254382 
L 368.973223 159.80425 
L 372.252562 153.425903 
L 375.531901 147.182227 
L 378.81124 141.120484 
L 382.090579 135.266726 
L 385.369917 129.620685 
L 388.649256 124.151575 
L 391.928595 118.795248 
L 395.207934 113.453047 
L 398.487273 107.992671 
" style="fill:none;stroke:#000000;stroke-linecap:square;stroke-width:0.5;"/>
   </g>
   <g id="line2d_27">
    <path clip-path="url(#pdce3dfe653)" d="M 73.832727 290.583951 
L 77.112066 290.836225 
L 80.391405 291.46671 
L 83.670744 292.299605 
L 86.950083 293.188853 
L 90.229421 294.019632 
L 93.50876 294.707931 
L 96.788099 295.198484 
L 100.067438 295.461416 
L 103.346777 295.488 
L 106.626116 295.285965 
L 109.905455 294.874746 
L 113.184793 294.281037 
L 116.464132 293.5349 
L 119.743471 292.66664 
L 123.02281 291.704499 
L 126.302149 290.673196 
L 129.581488 289.593214 
L 132.860826 288.48071 
L 136.140165 287.34788 
L 139.419504 286.203599 
L 142.698843 285.05418 
L 145.978182 283.904102 
L 149.257521 282.756612 
L 152.53686 281.614142 
L 155.816198 280.478525 
L 159.095537 279.351032 
L 162.374876 278.232266 
L 165.654215 277.121984 
L 168.933554 276.018916 
L 172.212893 274.920629 
L 175.492231 273.823497 
L 178.77157 272.722796 
L 182.050909 271.612941 
L 185.330248 270.487854 
L 188.609587 269.341432 
L 191.888926 268.168084 
L 195.168264 266.963294 
L 198.447603 265.724159 
L 201.726942 264.449872 
L 205.006281 263.142111 
L 208.28562 261.805305 
L 211.564959 260.446776 
L 214.844298 259.076729 
L 218.123636 257.708115 
L 221.402975 256.356363 
L 224.682314 255.038987 
L 227.961653 253.775107 
L 231.240992 252.584875 
L 234.520331 251.488847 
L 237.799669 250.507311 
L 241.079008 249.659595 
L 244.358347 248.963374 
L 247.637686 248.433996 
L 250.917025 248.083849 
L 254.196364 247.921785 
L 257.475702 247.952615 
L 260.755041 248.176684 
L 264.03438 248.589543 
L 267.313719 249.181716 
L 270.593058 249.938563 
L 273.872397 250.840245 
L 277.151736 251.861794 
L 280.431074 252.973275 
L 283.710413 254.140061 
L 286.989752 255.323217 
L 290.269091 256.480009 
L 293.54843 257.564546 
L 296.827769 258.528571 
L 300.107107 259.322404 
L 303.386446 259.896037 
L 306.665785 260.200365 
L 309.945124 260.188535 
L 313.224463 259.817345 
L 316.503802 259.048647 
L 319.78314 257.850659 
L 323.062479 256.199109 
L 326.341818 254.078105 
L 329.621157 251.480666 
L 332.900496 248.40884 
L 336.179835 244.873395 
L 339.459174 240.893092 
L 342.738512 236.493602 
L 346.017851 231.706185 
L 349.29719 226.566275 
L 352.576529 221.112175 
L 355.855868 215.38404 
L 359.135207 209.423371 
L 362.414545 203.273155 
L 365.693884 196.978787 
L 368.973223 190.589796 
L 372.252562 184.162327 
L 375.531901 177.762229 
L 378.81124 171.468506 
L 382.090579 165.376809 
L 385.369917 159.602598 
L 388.649256 154.283551 
L 391.928595 149.580846 
L 395.207934 145.678961 
L 398.487273 142.783744 
" style="fill:none;stroke:#000000;stroke-linecap:square;stroke-width:0.5;"/>
   </g>
   <g id="line2d_28">
    <path clip-path="url(#pdce3dfe653)" d="M 73.832727 222.854948 
L 77.112066 224.414138 
L 80.391405 225.786551 
L 83.670744 226.965369 
L 86.950083 227.946038 
L 90.229421 228.72637 
L 93.50876 229.306589 
L 96.788099 229.689329 
L 100.067438 229.879583 
L 103.346777 229.884595 
L 106.626116 229.713703 
L 109.905455 229.378133 
L 113.184793 228.890747 
L 116.464132 228.26575 
L 119.743471 227.518363 
L 123.02281 226.664473 
L 126.302149 225.720265 
L 129.581488 224.701844 
L 132.860826 223.624866 
L 136.140165 222.504176 
L 139.419504 221.353479 
L 142.698843 220.185041 
L 145.978182 219.00943 
L 149.257521 217.835325 
L 152.53686 216.669369 
L 155.816198 215.516098 
L 159.095537 214.377938 
L 162.374876 213.255274 
L 165.654215 212.146588 
L 168.933554 211.048668 
L 172.212893 209.95688 
L 175.492231 208.865496 
L 178.77157 207.768066 
L 182.050909 206.657831 
L 185.330248 205.528153 
L 188.609587 204.372957 
L 191.888926 203.187163 
L 195.168264 201.967098 
L 198.447603 200.710871 
L 201.726942 199.418694 
L 205.006281 198.093139 
L 208.28562 196.739314 
L 211.564959 195.36496 
L 214.844298 193.980437 
L 218.123636 192.598626 
L 221.402975 191.234719 
L 224.682314 189.905913 
L 227.961653 188.631004 
L 231.240992 187.429899 
L 234.520331 186.323045 
L 237.799669 185.330803 
L 241.079008 184.472771 
L 244.358347 183.767078 
L 247.637686 183.229681 
L 250.917025 182.873669 
L 254.196364 182.708604 
L 257.475702 182.739927 
L 260.755041 182.96844 
L 264.03438 183.389882 
L 267.313719 183.994631 
L 270.593058 184.767527 
L 273.872397 185.687838 
L 277.151736 186.729377 
L 280.431074 187.860761 
L 283.710413 189.04583 
L 286.989752 190.244199 
L 290.269091 191.41195 
L 293.54843 192.502443 
L 296.827769 193.467221 
L 300.107107 194.257011 
L 303.386446 194.822765 
L 306.665785 195.11675 
L 309.945124 195.093624 
L 313.224463 194.711508 
L 316.503802 193.932996 
L 319.78314 192.72609 
L 323.062479 191.065041 
L 326.341818 188.93106 
L 329.621157 186.312889 
L 332.900496 183.207221 
L 336.179835 179.618945 
L 339.459174 175.561218 
L 342.738512 171.055364 
L 346.017851 166.130598 
L 349.29719 160.823574 
L 352.576529 155.177791 
L 355.855868 149.242842 
L 359.135207 143.073556 
L 362.414545 136.729021 
L 365.693884 130.271542 
L 368.973223 123.765542 
L 372.252562 117.276428 
L 375.531901 110.869463 
L 378.81124 104.608659 
L 382.090579 98.555717 
L 385.369917 92.769033 
L 388.649256 87.302798 
L 391.928595 82.206203 
L 395.207934 77.522757 
L 398.487273 73.289743 
" style="fill:none;stroke:#ffa500;stroke-linecap:square;stroke-width:1.5;"/>
   </g>
   <g id="line2d_29">
    <path clip-path="url(#pdce3dfe653)" d="M 73.832727 203.877935 
L 77.112066 206.75576 
L 80.391405 208.868612 
L 83.670744 210.383486 
L 86.950083 211.441368 
L 90.229421 212.155894 
L 93.50876 212.613881 
L 96.788099 212.877451 
L 100.067438 212.987372 
L 103.346777 212.967204 
L 106.626116 212.827809 
L 109.905455 212.571814 
L 113.184793 212.197679 
L 116.464132 211.703106 
L 119.743471 211.087597 
L 123.02281 210.354112 
L 126.302149 209.509832 
L 129.581488 208.566136 
L 132.860826 207.537941 
L 136.140165 206.442611 
L 139.419504 205.298619 
L 142.698843 204.124175 
L 145.978182 202.935964 
L 149.257521 201.748124 
L 152.53686 200.571532 
L 155.816198 199.41344 
L 159.095537 198.277428 
L 162.374876 197.16365 
L 165.654215 196.069299 
L 168.933554 194.989212 
L 172.212893 193.916557 
L 175.492231 192.843527 
L 178.77157 191.761989 
L 182.050909 190.664071 
L 185.330248 189.542656 
L 188.609587 188.39178 
L 191.888926 187.206961 
L 195.168264 185.985445 
L 198.447603 184.726409 
L 201.726942 183.431107 
L 205.006281 182.102996 
L 208.28562 180.747811 
L 211.564959 179.373611 
L 214.844298 177.990772 
L 218.123636 176.61192 
L 221.402975 175.251789 
L 224.682314 173.927006 
L 227.961653 172.655771 
L 231.240992 171.457454 
L 234.520331 170.352106 
L 237.799669 169.359874 
L 241.079008 168.500353 
L 244.358347 167.791888 
L 247.637686 167.250836 
L 250.917025 166.890819 
L 254.196364 166.721995 
L 257.475702 166.750378 
L 260.755041 166.977224 
L 264.03438 167.39853 
L 267.313719 168.004657 
L 270.593058 168.780127 
L 273.872397 169.70358 
L 277.151736 170.747945 
L 280.431074 171.880798 
L 283.710413 173.06491 
L 286.989752 174.258976 
L 290.269091 175.418484 
L 293.54843 176.496676 
L 296.827769 177.445581 
L 300.107107 178.217034 
L 303.386446 178.763673 
L 306.665785 179.039842 
L 309.945124 179.0024 
L 313.224463 178.611415 
L 316.503802 177.830773 
L 319.78314 176.628706 
L 323.062479 174.978311 
L 326.341818 172.858082 
L 329.621157 170.25253 
L 332.900496 167.152884 
L 336.179835 163.557921 
L 339.459174 159.474852 
L 342.738512 154.920233 
L 346.017851 149.920759 
L 349.29719 144.513825 
L 352.576529 138.747655 
L 355.855868 132.680847 
L 359.135207 126.381154 
L 362.414545 119.923385 
L 365.693884 113.38635 
L 368.973223 106.848871 
L 372.252562 100.384954 
L 375.531901 94.058339 
L 378.81124 87.916724 
L 382.090579 81.986031 
L 385.369917 76.265171 
L 388.649256 70.721741 
L 391.928595 65.289106 
L 395.207934 59.86524 
L 398.487273 54.313609 
" style="fill:none;stroke:#000000;stroke-linecap:square;stroke-width:0.5;"/>
   </g>
   <g id="line2d_30">
    <path clip-path="url(#pdce3dfe653)" d="M 73.832727 241.831962 
L 77.112066 242.072515 
L 80.391405 242.704491 
L 83.670744 243.547252 
L 86.950083 244.450708 
L 90.229421 245.296846 
L 93.50876 245.999297 
L 96.788099 246.501207 
L 100.067438 246.771794 
L 103.346777 246.801986 
L 106.626116 246.599597 
L 109.905455 246.184453 
L 113.184793 245.583815 
L 116.464132 244.828393 
L 119.743471 243.949129 
L 123.02281 242.974835 
L 126.302149 241.930699 
L 129.581488 240.837553 
L 132.860826 239.71179 
L 136.140165 238.565741 
L 139.419504 237.40834 
L 142.698843 236.245906 
L 145.978182 235.082896 
L 149.257521 233.922526 
L 152.53686 232.767205 
L 155.816198 231.618756 
L 159.095537 230.478448 
L 162.374876 229.346898 
L 165.654215 228.223877 
L 168.933554 227.108124 
L 172.212893 225.997203 
L 175.492231 224.887465 
L 178.77157 223.774143 
L 182.050909 222.65159 
L 185.330248 221.513651 
L 188.609587 220.354135 
L 191.888926 219.167366 
L 195.168264 217.948752 
L 198.447603 216.695334 
L 201.726942 215.406281 
L 205.006281 214.083281 
L 208.28562 212.730818 
L 211.564959 211.356308 
L 214.844298 209.970101 
L 218.123636 208.585332 
L 221.402975 207.217649 
L 224.682314 205.884821 
L 227.961653 204.606238 
L 231.240992 203.402343 
L 234.520331 202.293984 
L 237.799669 201.301733 
L 241.079008 200.445188 
L 244.358347 199.742267 
L 247.637686 199.208526 
L 250.917025 198.856519 
L 254.196364 198.695213 
L 257.475702 198.729477 
L 260.755041 198.959656 
L 264.03438 199.381234 
L 267.313719 199.984605 
L 270.593058 200.754927 
L 273.872397 201.672096 
L 277.151736 202.710808 
L 280.431074 203.840724 
L 283.710413 205.02675 
L 286.989752 206.229421 
L 290.269091 207.405417 
L 293.54843 208.508209 
L 296.827769 209.488861 
L 300.107107 210.296987 
L 303.386446 210.881858 
L 306.665785 211.193657 
L 309.945124 211.184848 
L 313.224463 210.811601 
L 316.503802 210.035219 
L 319.78314 208.823474 
L 323.062479 207.151772 
L 326.341818 205.004037 
L 329.621157 202.373249 
L 332.900496 199.261558 
L 336.179835 195.679968 
L 339.459174 191.647583 
L 342.738512 187.190496 
L 346.017851 182.340436 
L 349.29719 177.133323 
L 352.576529 171.607926 
L 355.855868 165.804838 
L 359.135207 159.765958 
L 362.414545 153.534656 
L 365.693884 147.156735 
L 368.973223 140.682214 
L 372.252562 134.167902 
L 375.531901 127.680586 
L 378.81124 121.300594 
L 382.090579 115.125403 
L 385.369917 109.272895 
L 388.649256 103.883855 
L 391.928595 99.123299 
L 395.207934 95.180273 
L 398.487273 92.265878 
" style="fill:none;stroke:#000000;stroke-linecap:square;stroke-width:0.5;"/>
   </g>
   <g id="line2d_31">
    <path clip-path="url(#pdce3dfe653)" d="M 73.832727 273.346132 
L 77.112066 274.695868 
L 80.391405 276.000638 
L 83.670744 277.217935 
L 86.950083 278.310942 
L 90.229421 279.248955 
L 93.50876 280.007636 
L 96.788099 280.569103 
L 100.067438 280.921859 
L 103.346777 281.060575 
L 106.626116 280.98574 
L 109.905455 280.703181 
L 113.184793 280.223486 
L 116.464132 279.561339 
L 119.743471 278.734792 
L 123.02281 277.764493 
L 126.302149 276.672888 
L 129.581488 275.48343 
L 132.860826 274.219803 
L 136.140165 272.905186 
L 139.419504 271.561575 
L 142.698843 270.209182 
L 145.978182 268.865914 
L 149.257521 267.546953 
L 152.53686 266.264449 
L 155.816198 265.027316 
L 159.095537 263.841143 
L 162.374876 262.708223 
L 165.654215 261.62769 
L 168.933554 260.595753 
L 172.212893 259.606032 
L 175.492231 258.649971 
L 178.77157 257.717319 
L 182.050909 256.796666 
L 185.330248 255.876013 
L 188.609587 254.943361 
L 191.888926 253.9873 
L 195.168264 252.997579 
L 198.447603 251.965642 
L 201.726942 250.885109 
L 205.006281 249.752189 
L 208.28562 248.566016 
L 211.564959 247.328883 
L 214.844298 246.046379 
L 218.123636 244.727419 
L 221.402975 243.38415 
L 224.682314 242.031757 
L 227.961653 240.688147 
L 231.240992 239.37353 
L 234.520331 238.109903 
L 237.799669 236.920445 
L 241.079008 235.82884 
L 244.358347 234.85854 
L 247.637686 234.031993 
L 250.917025 233.369847 
L 254.196364 232.890151 
L 257.475702 232.607592 
L 260.755041 232.532757 
L 264.03438 232.671474 
L 267.313719 233.024229 
L 270.593058 233.585696 
L 273.872397 234.344378 
L 277.151736 235.282391 
L 280.431074 236.375397 
L 283.710413 237.592694 
L 286.989752 238.897464 
L 290.269091 240.2472 
L 293.54843 241.594283 
L 296.827769 242.886731 
L 300.107107 244.069091 
L 303.386446 245.08347 
L 306.665785 245.87069 
L 309.945124 246.371539 
L 313.224463 246.528102 
L 316.503802 246.285145 
L 319.78314 245.591525 
L 323.062479 244.401587 
L 326.341818 242.676531 
L 329.621157 240.385712 
L 332.900496 237.507837 
L 336.179835 234.032033 
L 339.459174 229.958763 
L 342.738512 225.300547 
L 346.017851 220.082479 
L 349.29719 214.342518 
L 352.576529 208.131522 
L 355.855868 201.513028 
L 359.135207 194.562767 
L 362.414545 187.367899 
L 365.693884 180.025992 
L 368.973223 172.643728 
L 372.252562 165.335373 
L 375.531901 158.221015 
L 378.81124 151.424597 
L 382.090579 145.071778 
L 385.369917 139.287651 
L 388.649256 134.194364 
L 391.928595 129.908667 
L 395.207934 126.539459 
L 398.487273 124.185346 
" style="fill:none;stroke:#0000ff;stroke-dasharray:5.55,2.4;stroke-dashoffset:0;stroke-width:1.5;"/>
   </g>
   <g id="line2d_32">
    <path clip-path="url(#pdce3dfe653)" d="M 73.832727 170.00016 
L 77.112066 174.536898 
L 80.391405 178.983706 
L 83.670744 183.255566 
L 86.950083 187.278846 
L 90.229421 190.992139 
L 93.50876 194.346769 
L 96.788099 197.306969 
L 100.067438 199.849747 
L 103.346777 201.964447 
L 106.626116 203.652044 
L 109.905455 204.924192 
L 113.184793 205.802069 
L 116.464132 206.315042 
L 119.743471 206.499215 
L 123.02281 206.395883 
L 126.302149 206.04994 
L 129.581488 205.508291 
L 132.860826 204.818304 
L 136.140165 204.026336 
L 139.419504 203.176383 
L 142.698843 202.308864 
L 145.978182 201.459593 
L 149.257521 200.658938 
L 152.53686 199.931198 
L 155.816198 199.294198 
L 159.095537 198.759118 
L 162.374876 198.330546 
L 165.654215 198.006746 
L 168.933554 197.780139 
L 172.212893 197.637964 
L 175.492231 197.563109 
L 178.77157 197.535072 
L 182.050909 197.531032 
L 185.330248 197.526993 
L 188.609587 197.498956 
L 191.888926 197.424101 
L 195.168264 197.281926 
L 198.447603 197.055319 
L 201.726942 196.731519 
L 205.006281 196.302947 
L 208.28562 195.767867 
L 211.564959 195.130867 
L 214.844298 194.403127 
L 218.123636 193.602472 
L 221.402975 192.753201 
L 224.682314 191.885682 
L 227.961653 191.035729 
L 231.240992 190.243761 
L 234.520331 189.553774 
L 237.799669 189.012125 
L 241.079008 188.666182 
L 244.358347 188.562849 
L 247.637686 188.747023 
L 250.917025 189.259996 
L 254.196364 190.137872 
L 257.475702 191.410021 
L 260.755041 193.097617 
L 264.03438 195.212317 
L 267.313719 197.755095 
L 270.593058 200.715296 
L 273.872397 204.069926 
L 277.151736 207.783218 
L 280.431074 211.806499 
L 283.710413 216.078359 
L 286.989752 220.525167 
L 290.269091 225.061905 
L 293.54843 229.593338 
L 296.827769 234.0155 
L 300.107107 238.217487 
L 303.386446 242.083512 
L 306.665785 245.495219 
L 309.945124 248.334183 
L 313.224463 250.484575 
L 316.503802 251.83593 
L 319.78314 252.285956 
L 323.062479 251.743346 
L 326.341818 250.130501 
L 329.621157 247.38613 
L 332.900496 243.467646 
L 336.179835 238.353306 
L 339.459174 232.044033 
L 342.738512 224.564867 
L 346.017851 215.965998 
L 349.29719 206.323343 
L 352.576529 195.738617 
L 355.855868 184.338896 
L 359.135207 172.275641 
L 362.414545 159.723173 
L 365.693884 146.876625 
L 368.973223 133.949363 
L 372.252562 121.169921 
L 375.531901 108.778472 
L 378.81124 97.022903 
L 382.090579 86.154531 
L 385.369917 76.423544 
L 388.649256 68.074235 
L 391.928595 61.340109 
L 395.207934 56.438959 
L 398.487273 53.568 
" style="fill:none;stroke:#ffa500;stroke-dasharray:5.55,2.4;stroke-dashoffset:0;stroke-width:1.5;"/>
   </g>
   <g id="patch_3">
    <path d="M 57.6 307.584 
L 57.6 41.472 
" style="fill:none;stroke:#000000;stroke-linecap:square;stroke-linejoin:miter;stroke-width:0.8;"/>
   </g>
   <g id="patch_4">
    <path d="M 414.72 307.584 
L 414.72 41.472 
" style="fill:none;stroke:#000000;stroke-linecap:square;stroke-linejoin:miter;stroke-width:0.8;"/>
   </g>
   <g id="patch_5">
    <path d="M 57.6 307.584 
L 414.72 307.584 
" style="fill:none;stroke:#000000;stroke-linecap:square;stroke-linejoin:miter;stroke-width:0.8;"/>
   </g>
   <g id="patch_6">
    <path d="M 57.6 41.472 
L 414.72 41.472 
" style="fill:none;stroke:#000000;stroke-linecap:square;stroke-linejoin:miter;stroke-width:0.8;"/>
   </g>
   <g id="legend_1">
    <g id="patch_7">
     <path d="M 64.6 108.1845 
L 239.15625 108.1845 
Q 241.15625 108.1845 241.15625 106.1845 
L 241.15625 48.472 
Q 241.15625 46.472 239.15625 46.472 
L 64.6 46.472 
Q 62.6 46.472 62.6 48.472 
L 62.6 106.1845 
Q 62.6 108.1845 64.6 108.1845 
z
" style="fill:#ffffff;opacity:0.8;stroke:#cccccc;stroke-linejoin:miter;"/>
    </g>
    <g id="line2d_33">
     <path d="M 66.6 54.570438 
L 86.6 54.570438 
" style="fill:none;stroke:#0000ff;stroke-linecap:square;stroke-width:1.5;"/>
    </g>
    <g id="line2d_34"/>
    <g id="text_13">
     <!-- MF cheap GPR (regular GPR) -->
     <g transform="translate(94.6 58.070438)scale(0.1 -0.1)">
      <defs>
       <path d="M 9.8125 72.90625 
L 24.515625 72.90625 
L 43.109375 23.296875 
L 61.8125 72.90625 
L 76.515625 72.90625 
L 76.515625 0 
L 66.890625 0 
L 66.890625 64.015625 
L 48.09375 14.015625 
L 38.1875 14.015625 
L 19.390625 64.015625 
L 19.390625 0 
L 9.8125 0 
z
" id="DejaVuSans-77"/>
       <path d="M 9.8125 72.90625 
L 51.703125 72.90625 
L 51.703125 64.59375 
L 19.671875 64.59375 
L 19.671875 43.109375 
L 48.578125 43.109375 
L 48.578125 34.8125 
L 19.671875 34.8125 
L 19.671875 0 
L 9.8125 0 
z
" id="DejaVuSans-70"/>
       <path id="DejaVuSans-32"/>
       <path d="M 48.78125 52.59375 
L 48.78125 44.1875 
Q 44.96875 46.296875 41.140625 47.34375 
Q 37.3125 48.390625 33.40625 48.390625 
Q 24.65625 48.390625 19.8125 42.84375 
Q 14.984375 37.3125 14.984375 27.296875 
Q 14.984375 17.28125 19.8125 11.734375 
Q 24.65625 6.203125 33.40625 6.203125 
Q 37.3125 6.203125 41.140625 7.25 
Q 44.96875 8.296875 48.78125 10.40625 
L 48.78125 2.09375 
Q 45.015625 0.34375 40.984375 -0.53125 
Q 36.96875 -1.421875 32.421875 -1.421875 
Q 20.0625 -1.421875 12.78125 6.34375 
Q 5.515625 14.109375 5.515625 27.296875 
Q 5.515625 40.671875 12.859375 48.328125 
Q 20.21875 56 33.015625 56 
Q 37.15625 56 41.109375 55.140625 
Q 45.0625 54.296875 48.78125 52.59375 
z
" id="DejaVuSans-99"/>
       <path d="M 54.890625 33.015625 
L 54.890625 0 
L 45.90625 0 
L 45.90625 32.71875 
Q 45.90625 40.484375 42.875 44.328125 
Q 39.84375 48.1875 33.796875 48.1875 
Q 26.515625 48.1875 22.3125 43.546875 
Q 18.109375 38.921875 18.109375 30.90625 
L 18.109375 0 
L 9.078125 0 
L 9.078125 75.984375 
L 18.109375 75.984375 
L 18.109375 46.1875 
Q 21.34375 51.125 25.703125 53.5625 
Q 30.078125 56 35.796875 56 
Q 45.21875 56 50.046875 50.171875 
Q 54.890625 44.34375 54.890625 33.015625 
z
" id="DejaVuSans-104"/>
       <path d="M 56.203125 29.59375 
L 56.203125 25.203125 
L 14.890625 25.203125 
Q 15.484375 15.921875 20.484375 11.0625 
Q 25.484375 6.203125 34.421875 6.203125 
Q 39.59375 6.203125 44.453125 7.46875 
Q 49.3125 8.734375 54.109375 11.28125 
L 54.109375 2.78125 
Q 49.265625 0.734375 44.1875 -0.34375 
Q 39.109375 -1.421875 33.890625 -1.421875 
Q 20.796875 -1.421875 13.15625 6.1875 
Q 5.515625 13.8125 5.515625 26.8125 
Q 5.515625 40.234375 12.765625 48.109375 
Q 20.015625 56 32.328125 56 
Q 43.359375 56 49.78125 48.890625 
Q 56.203125 41.796875 56.203125 29.59375 
z
M 47.21875 32.234375 
Q 47.125 39.59375 43.09375 43.984375 
Q 39.0625 48.390625 32.421875 48.390625 
Q 24.90625 48.390625 20.390625 44.140625 
Q 15.875 39.890625 15.1875 32.171875 
z
" id="DejaVuSans-101"/>
       <path d="M 34.28125 27.484375 
Q 23.390625 27.484375 19.1875 25 
Q 14.984375 22.515625 14.984375 16.5 
Q 14.984375 11.71875 18.140625 8.90625 
Q 21.296875 6.109375 26.703125 6.109375 
Q 34.1875 6.109375 38.703125 11.40625 
Q 43.21875 16.703125 43.21875 25.484375 
L 43.21875 27.484375 
z
M 52.203125 31.203125 
L 52.203125 0 
L 43.21875 0 
L 43.21875 8.296875 
Q 40.140625 3.328125 35.546875 0.953125 
Q 30.953125 -1.421875 24.3125 -1.421875 
Q 15.921875 -1.421875 10.953125 3.296875 
Q 6 8.015625 6 15.921875 
Q 6 25.140625 12.171875 29.828125 
Q 18.359375 34.515625 30.609375 34.515625 
L 43.21875 34.515625 
L 43.21875 35.40625 
Q 43.21875 41.609375 39.140625 45 
Q 35.0625 48.390625 27.6875 48.390625 
Q 23 48.390625 18.546875 47.265625 
Q 14.109375 46.140625 10.015625 43.890625 
L 10.015625 52.203125 
Q 14.9375 54.109375 19.578125 55.046875 
Q 24.21875 56 28.609375 56 
Q 40.484375 56 46.34375 49.84375 
Q 52.203125 43.703125 52.203125 31.203125 
z
" id="DejaVuSans-97"/>
       <path d="M 18.109375 8.203125 
L 18.109375 -20.796875 
L 9.078125 -20.796875 
L 9.078125 54.6875 
L 18.109375 54.6875 
L 18.109375 46.390625 
Q 20.953125 51.265625 25.265625 53.625 
Q 29.59375 56 35.59375 56 
Q 45.5625 56 51.78125 48.09375 
Q 58.015625 40.1875 58.015625 27.296875 
Q 58.015625 14.40625 51.78125 6.484375 
Q 45.5625 -1.421875 35.59375 -1.421875 
Q 29.59375 -1.421875 25.265625 0.953125 
Q 20.953125 3.328125 18.109375 8.203125 
z
M 48.6875 27.296875 
Q 48.6875 37.203125 44.609375 42.84375 
Q 40.53125 48.484375 33.40625 48.484375 
Q 26.265625 48.484375 22.1875 42.84375 
Q 18.109375 37.203125 18.109375 27.296875 
Q 18.109375 17.390625 22.1875 11.75 
Q 26.265625 6.109375 33.40625 6.109375 
Q 40.53125 6.109375 44.609375 11.75 
Q 48.6875 17.390625 48.6875 27.296875 
z
" id="DejaVuSans-112"/>
       <path d="M 59.515625 10.40625 
L 59.515625 29.984375 
L 43.40625 29.984375 
L 43.40625 38.09375 
L 69.28125 38.09375 
L 69.28125 6.78125 
Q 63.578125 2.734375 56.6875 0.65625 
Q 49.8125 -1.421875 42 -1.421875 
Q 24.90625 -1.421875 15.25 8.5625 
Q 5.609375 18.5625 5.609375 36.375 
Q 5.609375 54.25 15.25 64.234375 
Q 24.90625 74.21875 42 74.21875 
Q 49.125 74.21875 55.546875 72.453125 
Q 61.96875 70.703125 67.390625 67.28125 
L 67.390625 56.78125 
Q 61.921875 61.421875 55.765625 63.765625 
Q 49.609375 66.109375 42.828125 66.109375 
Q 29.4375 66.109375 22.71875 58.640625 
Q 16.015625 51.171875 16.015625 36.375 
Q 16.015625 21.625 22.71875 14.15625 
Q 29.4375 6.6875 42.828125 6.6875 
Q 48.046875 6.6875 52.140625 7.59375 
Q 56.25 8.5 59.515625 10.40625 
z
" id="DejaVuSans-71"/>
       <path d="M 19.671875 64.796875 
L 19.671875 37.40625 
L 32.078125 37.40625 
Q 38.96875 37.40625 42.71875 40.96875 
Q 46.484375 44.53125 46.484375 51.125 
Q 46.484375 57.671875 42.71875 61.234375 
Q 38.96875 64.796875 32.078125 64.796875 
z
M 9.8125 72.90625 
L 32.078125 72.90625 
Q 44.34375 72.90625 50.609375 67.359375 
Q 56.890625 61.8125 56.890625 51.125 
Q 56.890625 40.328125 50.609375 34.8125 
Q 44.34375 29.296875 32.078125 29.296875 
L 19.671875 29.296875 
L 19.671875 0 
L 9.8125 0 
z
" id="DejaVuSans-80"/>
       <path d="M 44.390625 34.1875 
Q 47.5625 33.109375 50.5625 29.59375 
Q 53.5625 26.078125 56.59375 19.921875 
L 66.609375 0 
L 56 0 
L 46.6875 18.703125 
Q 43.0625 26.03125 39.671875 28.421875 
Q 36.28125 30.8125 30.421875 30.8125 
L 19.671875 30.8125 
L 19.671875 0 
L 9.8125 0 
L 9.8125 72.90625 
L 32.078125 72.90625 
Q 44.578125 72.90625 50.734375 67.671875 
Q 56.890625 62.453125 56.890625 51.90625 
Q 56.890625 45.015625 53.6875 40.46875 
Q 50.484375 35.9375 44.390625 34.1875 
z
M 19.671875 64.796875 
L 19.671875 38.921875 
L 32.078125 38.921875 
Q 39.203125 38.921875 42.84375 42.21875 
Q 46.484375 45.515625 46.484375 51.90625 
Q 46.484375 58.296875 42.84375 61.546875 
Q 39.203125 64.796875 32.078125 64.796875 
z
" id="DejaVuSans-82"/>
       <path d="M 31 75.875 
Q 24.46875 64.65625 21.28125 53.65625 
Q 18.109375 42.671875 18.109375 31.390625 
Q 18.109375 20.125 21.3125 9.0625 
Q 24.515625 -2 31 -13.1875 
L 23.1875 -13.1875 
Q 15.875 -1.703125 12.234375 9.375 
Q 8.59375 20.453125 8.59375 31.390625 
Q 8.59375 42.28125 12.203125 53.3125 
Q 15.828125 64.359375 23.1875 75.875 
z
" id="DejaVuSans-40"/>
       <path d="M 41.109375 46.296875 
Q 39.59375 47.171875 37.8125 47.578125 
Q 36.03125 48 33.890625 48 
Q 26.265625 48 22.1875 43.046875 
Q 18.109375 38.09375 18.109375 28.8125 
L 18.109375 0 
L 9.078125 0 
L 9.078125 54.6875 
L 18.109375 54.6875 
L 18.109375 46.1875 
Q 20.953125 51.171875 25.484375 53.578125 
Q 30.03125 56 36.53125 56 
Q 37.453125 56 38.578125 55.875 
Q 39.703125 55.765625 41.0625 55.515625 
z
" id="DejaVuSans-114"/>
       <path d="M 45.40625 27.984375 
Q 45.40625 37.75 41.375 43.109375 
Q 37.359375 48.484375 30.078125 48.484375 
Q 22.859375 48.484375 18.828125 43.109375 
Q 14.796875 37.75 14.796875 27.984375 
Q 14.796875 18.265625 18.828125 12.890625 
Q 22.859375 7.515625 30.078125 7.515625 
Q 37.359375 7.515625 41.375 12.890625 
Q 45.40625 18.265625 45.40625 27.984375 
z
M 54.390625 6.78125 
Q 54.390625 -7.171875 48.1875 -13.984375 
Q 42 -20.796875 29.203125 -20.796875 
Q 24.46875 -20.796875 20.265625 -20.09375 
Q 16.0625 -19.390625 12.109375 -17.921875 
L 12.109375 -9.1875 
Q 16.0625 -11.328125 19.921875 -12.34375 
Q 23.78125 -13.375 27.78125 -13.375 
Q 36.625 -13.375 41.015625 -8.765625 
Q 45.40625 -4.15625 45.40625 5.171875 
L 45.40625 9.625 
Q 42.625 4.78125 38.28125 2.390625 
Q 33.9375 0 27.875 0 
Q 17.828125 0 11.671875 7.65625 
Q 5.515625 15.328125 5.515625 27.984375 
Q 5.515625 40.671875 11.671875 48.328125 
Q 17.828125 56 27.875 56 
Q 33.9375 56 38.28125 53.609375 
Q 42.625 51.21875 45.40625 46.390625 
L 45.40625 54.6875 
L 54.390625 54.6875 
z
" id="DejaVuSans-103"/>
       <path d="M 8.5 21.578125 
L 8.5 54.6875 
L 17.484375 54.6875 
L 17.484375 21.921875 
Q 17.484375 14.15625 20.5 10.265625 
Q 23.53125 6.390625 29.59375 6.390625 
Q 36.859375 6.390625 41.078125 11.03125 
Q 45.3125 15.671875 45.3125 23.6875 
L 45.3125 54.6875 
L 54.296875 54.6875 
L 54.296875 0 
L 45.3125 0 
L 45.3125 8.40625 
Q 42.046875 3.421875 37.71875 1 
Q 33.40625 -1.421875 27.6875 -1.421875 
Q 18.265625 -1.421875 13.375 4.4375 
Q 8.5 10.296875 8.5 21.578125 
z
M 31.109375 56 
z
" id="DejaVuSans-117"/>
       <path d="M 9.421875 75.984375 
L 18.40625 75.984375 
L 18.40625 0 
L 9.421875 0 
z
" id="DejaVuSans-108"/>
       <path d="M 8.015625 75.875 
L 15.828125 75.875 
Q 23.140625 64.359375 26.78125 53.3125 
Q 30.421875 42.28125 30.421875 31.390625 
Q 30.421875 20.453125 26.78125 9.375 
Q 23.140625 -1.703125 15.828125 -13.1875 
L 8.015625 -13.1875 
Q 14.5 -2 17.703125 9.0625 
Q 20.90625 20.125 20.90625 31.390625 
Q 20.90625 42.671875 17.703125 53.65625 
Q 14.5 64.65625 8.015625 75.875 
z
" id="DejaVuSans-41"/>
      </defs>
      <use xlink:href="#DejaVuSans-77"/>
      <use x="86.279297" xlink:href="#DejaVuSans-70"/>
      <use x="143.798828" xlink:href="#DejaVuSans-32"/>
      <use x="175.585938" xlink:href="#DejaVuSans-99"/>
      <use x="230.566406" xlink:href="#DejaVuSans-104"/>
      <use x="293.945312" xlink:href="#DejaVuSans-101"/>
      <use x="355.46875" xlink:href="#DejaVuSans-97"/>
      <use x="416.748047" xlink:href="#DejaVuSans-112"/>
      <use x="480.224609" xlink:href="#DejaVuSans-32"/>
      <use x="512.011719" xlink:href="#DejaVuSans-71"/>
      <use x="589.501953" xlink:href="#DejaVuSans-80"/>
      <use x="649.804688" xlink:href="#DejaVuSans-82"/>
      <use x="719.287109" xlink:href="#DejaVuSans-32"/>
      <use x="751.074219" xlink:href="#DejaVuSans-40"/>
      <use x="790.087891" xlink:href="#DejaVuSans-114"/>
      <use x="828.951172" xlink:href="#DejaVuSans-101"/>
      <use x="890.474609" xlink:href="#DejaVuSans-103"/>
      <use x="953.951172" xlink:href="#DejaVuSans-117"/>
      <use x="1017.330078" xlink:href="#DejaVuSans-108"/>
      <use x="1045.113281" xlink:href="#DejaVuSans-97"/>
      <use x="1106.392578" xlink:href="#DejaVuSans-114"/>
      <use x="1147.505859" xlink:href="#DejaVuSans-32"/>
      <use x="1179.292969" xlink:href="#DejaVuSans-71"/>
      <use x="1256.783203" xlink:href="#DejaVuSans-80"/>
      <use x="1317.085938" xlink:href="#DejaVuSans-82"/>
      <use x="1386.568359" xlink:href="#DejaVuSans-41"/>
     </g>
    </g>
    <g id="line2d_35">
     <path d="M 66.6 69.248563 
L 86.6 69.248563 
" style="fill:none;stroke:#ffa500;stroke-linecap:square;stroke-width:1.5;"/>
    </g>
    <g id="line2d_36"/>
    <g id="text_14">
     <!-- MF expensive GPR -->
     <g transform="translate(94.6 72.748563)scale(0.1 -0.1)">
      <defs>
       <path d="M 54.890625 54.6875 
L 35.109375 28.078125 
L 55.90625 0 
L 45.3125 0 
L 29.390625 21.484375 
L 13.484375 0 
L 2.875 0 
L 24.125 28.609375 
L 4.6875 54.6875 
L 15.28125 54.6875 
L 29.78125 35.203125 
L 44.28125 54.6875 
z
" id="DejaVuSans-120"/>
       <path d="M 54.890625 33.015625 
L 54.890625 0 
L 45.90625 0 
L 45.90625 32.71875 
Q 45.90625 40.484375 42.875 44.328125 
Q 39.84375 48.1875 33.796875 48.1875 
Q 26.515625 48.1875 22.3125 43.546875 
Q 18.109375 38.921875 18.109375 30.90625 
L 18.109375 0 
L 9.078125 0 
L 9.078125 54.6875 
L 18.109375 54.6875 
L 18.109375 46.1875 
Q 21.34375 51.125 25.703125 53.5625 
Q 30.078125 56 35.796875 56 
Q 45.21875 56 50.046875 50.171875 
Q 54.890625 44.34375 54.890625 33.015625 
z
" id="DejaVuSans-110"/>
       <path d="M 44.28125 53.078125 
L 44.28125 44.578125 
Q 40.484375 46.53125 36.375 47.5 
Q 32.28125 48.484375 27.875 48.484375 
Q 21.1875 48.484375 17.84375 46.4375 
Q 14.5 44.390625 14.5 40.28125 
Q 14.5 37.15625 16.890625 35.375 
Q 19.28125 33.59375 26.515625 31.984375 
L 29.59375 31.296875 
Q 39.15625 29.25 43.1875 25.515625 
Q 47.21875 21.78125 47.21875 15.09375 
Q 47.21875 7.46875 41.1875 3.015625 
Q 35.15625 -1.421875 24.609375 -1.421875 
Q 20.21875 -1.421875 15.453125 -0.5625 
Q 10.6875 0.296875 5.421875 2 
L 5.421875 11.28125 
Q 10.40625 8.6875 15.234375 7.390625 
Q 20.0625 6.109375 24.8125 6.109375 
Q 31.15625 6.109375 34.5625 8.28125 
Q 37.984375 10.453125 37.984375 14.40625 
Q 37.984375 18.0625 35.515625 20.015625 
Q 33.0625 21.96875 24.703125 23.78125 
L 21.578125 24.515625 
Q 13.234375 26.265625 9.515625 29.90625 
Q 5.8125 33.546875 5.8125 39.890625 
Q 5.8125 47.609375 11.28125 51.796875 
Q 16.75 56 26.8125 56 
Q 31.78125 56 36.171875 55.265625 
Q 40.578125 54.546875 44.28125 53.078125 
z
" id="DejaVuSans-115"/>
       <path d="M 9.421875 54.6875 
L 18.40625 54.6875 
L 18.40625 0 
L 9.421875 0 
z
M 9.421875 75.984375 
L 18.40625 75.984375 
L 18.40625 64.59375 
L 9.421875 64.59375 
z
" id="DejaVuSans-105"/>
       <path d="M 2.984375 54.6875 
L 12.5 54.6875 
L 29.59375 8.796875 
L 46.6875 54.6875 
L 56.203125 54.6875 
L 35.6875 0 
L 23.484375 0 
z
" id="DejaVuSans-118"/>
      </defs>
      <use xlink:href="#DejaVuSans-77"/>
      <use x="86.279297" xlink:href="#DejaVuSans-70"/>
      <use x="143.798828" xlink:href="#DejaVuSans-32"/>
      <use x="175.585938" xlink:href="#DejaVuSans-101"/>
      <use x="235.359375" xlink:href="#DejaVuSans-120"/>
      <use x="294.539062" xlink:href="#DejaVuSans-112"/>
      <use x="358.015625" xlink:href="#DejaVuSans-101"/>
      <use x="419.539062" xlink:href="#DejaVuSans-110"/>
      <use x="482.917969" xlink:href="#DejaVuSans-115"/>
      <use x="535.017578" xlink:href="#DejaVuSans-105"/>
      <use x="562.800781" xlink:href="#DejaVuSans-118"/>
      <use x="621.980469" xlink:href="#DejaVuSans-101"/>
      <use x="683.503906" xlink:href="#DejaVuSans-32"/>
      <use x="715.291016" xlink:href="#DejaVuSans-71"/>
      <use x="792.78125" xlink:href="#DejaVuSans-80"/>
      <use x="853.083984" xlink:href="#DejaVuSans-82"/>
     </g>
    </g>
    <g id="line2d_37">
     <path d="M 66.6 83.926688 
L 86.6 83.926688 
" style="fill:none;stroke:#0000ff;stroke-dasharray:5.55,2.4;stroke-dashoffset:0;stroke-width:1.5;"/>
    </g>
    <g id="line2d_38"/>
    <g id="text_15">
     <!-- Exact cheap function -->
     <g transform="translate(94.6 87.426688)scale(0.1 -0.1)">
      <defs>
       <path d="M 9.8125 72.90625 
L 55.90625 72.90625 
L 55.90625 64.59375 
L 19.671875 64.59375 
L 19.671875 43.015625 
L 54.390625 43.015625 
L 54.390625 34.71875 
L 19.671875 34.71875 
L 19.671875 8.296875 
L 56.78125 8.296875 
L 56.78125 0 
L 9.8125 0 
z
" id="DejaVuSans-69"/>
       <path d="M 18.3125 70.21875 
L 18.3125 54.6875 
L 36.8125 54.6875 
L 36.8125 47.703125 
L 18.3125 47.703125 
L 18.3125 18.015625 
Q 18.3125 11.328125 20.140625 9.421875 
Q 21.96875 7.515625 27.59375 7.515625 
L 36.8125 7.515625 
L 36.8125 0 
L 27.59375 0 
Q 17.1875 0 13.234375 3.875 
Q 9.28125 7.765625 9.28125 18.015625 
L 9.28125 47.703125 
L 2.6875 47.703125 
L 2.6875 54.6875 
L 9.28125 54.6875 
L 9.28125 70.21875 
z
" id="DejaVuSans-116"/>
       <path d="M 37.109375 75.984375 
L 37.109375 68.5 
L 28.515625 68.5 
Q 23.6875 68.5 21.796875 66.546875 
Q 19.921875 64.59375 19.921875 59.515625 
L 19.921875 54.6875 
L 34.71875 54.6875 
L 34.71875 47.703125 
L 19.921875 47.703125 
L 19.921875 0 
L 10.890625 0 
L 10.890625 47.703125 
L 2.296875 47.703125 
L 2.296875 54.6875 
L 10.890625 54.6875 
L 10.890625 58.5 
Q 10.890625 67.625 15.140625 71.796875 
Q 19.390625 75.984375 28.609375 75.984375 
z
" id="DejaVuSans-102"/>
       <path d="M 30.609375 48.390625 
Q 23.390625 48.390625 19.1875 42.75 
Q 14.984375 37.109375 14.984375 27.296875 
Q 14.984375 17.484375 19.15625 11.84375 
Q 23.34375 6.203125 30.609375 6.203125 
Q 37.796875 6.203125 41.984375 11.859375 
Q 46.1875 17.53125 46.1875 27.296875 
Q 46.1875 37.015625 41.984375 42.703125 
Q 37.796875 48.390625 30.609375 48.390625 
z
M 30.609375 56 
Q 42.328125 56 49.015625 48.375 
Q 55.71875 40.765625 55.71875 27.296875 
Q 55.71875 13.875 49.015625 6.21875 
Q 42.328125 -1.421875 30.609375 -1.421875 
Q 18.84375 -1.421875 12.171875 6.21875 
Q 5.515625 13.875 5.515625 27.296875 
Q 5.515625 40.765625 12.171875 48.375 
Q 18.84375 56 30.609375 56 
z
" id="DejaVuSans-111"/>
      </defs>
      <use xlink:href="#DejaVuSans-69"/>
      <use x="63.183594" xlink:href="#DejaVuSans-120"/>
      <use x="122.363281" xlink:href="#DejaVuSans-97"/>
      <use x="183.642578" xlink:href="#DejaVuSans-99"/>
      <use x="238.623047" xlink:href="#DejaVuSans-116"/>
      <use x="277.832031" xlink:href="#DejaVuSans-32"/>
      <use x="309.619141" xlink:href="#DejaVuSans-99"/>
      <use x="364.599609" xlink:href="#DejaVuSans-104"/>
      <use x="427.978516" xlink:href="#DejaVuSans-101"/>
      <use x="489.501953" xlink:href="#DejaVuSans-97"/>
      <use x="550.78125" xlink:href="#DejaVuSans-112"/>
      <use x="614.257812" xlink:href="#DejaVuSans-32"/>
      <use x="646.044922" xlink:href="#DejaVuSans-102"/>
      <use x="681.25" xlink:href="#DejaVuSans-117"/>
      <use x="744.628906" xlink:href="#DejaVuSans-110"/>
      <use x="808.007812" xlink:href="#DejaVuSans-99"/>
      <use x="862.988281" xlink:href="#DejaVuSans-116"/>
      <use x="902.197266" xlink:href="#DejaVuSans-105"/>
      <use x="929.980469" xlink:href="#DejaVuSans-111"/>
      <use x="991.162109" xlink:href="#DejaVuSans-110"/>
     </g>
    </g>
    <g id="line2d_39">
     <path d="M 66.6 98.604813 
L 86.6 98.604813 
" style="fill:none;stroke:#ffa500;stroke-dasharray:5.55,2.4;stroke-dashoffset:0;stroke-width:1.5;"/>
    </g>
    <g id="line2d_40"/>
    <g id="text_16">
     <!-- Exact expensive function -->
     <g transform="translate(94.6 102.104813)scale(0.1 -0.1)">
      <use xlink:href="#DejaVuSans-69"/>
      <use x="63.183594" xlink:href="#DejaVuSans-120"/>
      <use x="122.363281" xlink:href="#DejaVuSans-97"/>
      <use x="183.642578" xlink:href="#DejaVuSans-99"/>
      <use x="238.623047" xlink:href="#DejaVuSans-116"/>
      <use x="277.832031" xlink:href="#DejaVuSans-32"/>
      <use x="309.619141" xlink:href="#DejaVuSans-101"/>
      <use x="369.392578" xlink:href="#DejaVuSans-120"/>
      <use x="428.572266" xlink:href="#DejaVuSans-112"/>
      <use x="492.048828" xlink:href="#DejaVuSans-101"/>
      <use x="553.572266" xlink:href="#DejaVuSans-110"/>
      <use x="616.951172" xlink:href="#DejaVuSans-115"/>
      <use x="669.050781" xlink:href="#DejaVuSans-105"/>
      <use x="696.833984" xlink:href="#DejaVuSans-118"/>
      <use x="756.013672" xlink:href="#DejaVuSans-101"/>
      <use x="817.537109" xlink:href="#DejaVuSans-32"/>
      <use x="849.324219" xlink:href="#DejaVuSans-102"/>
      <use x="884.529297" xlink:href="#DejaVuSans-117"/>
      <use x="947.908203" xlink:href="#DejaVuSans-110"/>
      <use x="1011.287109" xlink:href="#DejaVuSans-99"/>
      <use x="1066.267578" xlink:href="#DejaVuSans-116"/>
      <use x="1105.476562" xlink:href="#DejaVuSans-105"/>
      <use x="1133.259766" xlink:href="#DejaVuSans-111"/>
      <use x="1194.441406" xlink:href="#DejaVuSans-110"/>
     </g>
    </g>
   </g>
  </g>
 </g>
 <defs>
  <clipPath id="pdce3dfe653">
   <rect height="266.112" width="357.12" x="57.6" y="41.472"/>
  </clipPath>
 </defs>
</svg>
