<?xml version="1.0" encoding="utf-8" standalone="no"?>
<!DOCTYPE svg PUBLIC "-//W3C//DTD SVG 1.1//EN"
  "http://www.w3.org/Graphics/SVG/1.1/DTD/svg11.dtd">
<!-- Created with matplotlib (https://matplotlib.org/) -->
<svg height="345.6pt" version="1.1" viewBox="0 0 460.8 345.6" width="460.8pt" xmlns="http://www.w3.org/2000/svg" xmlns:xlink="http://www.w3.org/1999/xlink">
 <metadata>
  <rdf:RDF xmlns:cc="http://creativecommons.org/ns#" xmlns:dc="http://purl.org/dc/elements/1.1/" xmlns:rdf="http://www.w3.org/1999/02/22-rdf-syntax-ns#">
   <cc:Work>
    <dc:type rdf:resource="http://purl.org/dc/dcmitype/StillImage"/>
    <dc:date>2020-11-24T13:55:27.148272</dc:date>
    <dc:format>image/svg+xml</dc:format>
    <dc:creator>
     <cc:Agent>
      <dc:title>Matplotlib v3.3.1, https://matplotlib.org/</dc:title>
     </cc:Agent>
    </dc:creator>
   </cc:Work>
  </rdf:RDF>
 </metadata>
 <defs>
  <style type="text/css">*{stroke-linecap:butt;stroke-linejoin:round;}</style>
 </defs>
 <g id="figure_1">
  <g id="patch_1">
   <path d="M 0 345.6 
L 460.8 345.6 
L 460.8 0 
L 0 0 
z
" style="fill:#ffffff;"/>
  </g>
  <g id="axes_1">
   <g id="patch_2">
    <path d="M 57.6 307.584 
L 414.72 307.584 
L 414.72 41.472 
L 57.6 41.472 
z
" style="fill:#ffffff;"/>
   </g>
   <g id="PolyCollection_1">
    <defs>
     <path d="M 73.832727 -112.493103 
L 73.832727 -51.826795 
L 77.112066 -52.53887 
L 80.391405 -52.6966 
L 83.670744 -52.475211 
L 86.950083 -52.0294 
L 90.229421 -51.489882 
L 93.50876 -50.961585 
L 96.788099 -50.523451 
L 100.067438 -50.229656 
L 103.346777 -50.112 
L 106.626116 -50.183161 
L 109.905455 -50.440475 
L 113.184793 -50.869918 
L 116.464132 -51.449982 
L 119.743471 -52.155203 
L 123.02281 -52.959144 
L 126.302149 -53.836726 
L 129.581488 -54.765869 
L 132.860826 -55.728449 
L 136.140165 -56.710662 
L 139.419504 -57.702902 
L 142.698843 -58.699281 
L 145.978182 -59.696947 
L 149.257521 -60.695301 
L 152.53686 -61.695248 
L 155.816198 -62.698545 
L 159.095537 -63.707294 
L 162.374876 -64.723605 
L 165.654215 -65.749415 
L 168.933554 -66.786424 
L 172.212893 -67.83613 
L 175.492231 -68.899887 
L 178.77157 -69.978964 
L 182.050909 -71.074561 
L 185.330248 -72.187757 
L 188.609587 -73.319385 
L 191.888926 -74.469834 
L 195.168264 -75.638794 
L 198.447603 -76.824973 
L 201.726942 -78.025816 
L 205.006281 -79.237243 
L 208.28562 -80.453462 
L 211.564959 -81.666851 
L 214.844298 -82.86795 
L 218.123636 -84.045553 
L 221.402975 -85.186915 
L 224.682314 -86.278049 
L 227.961653 -87.30412 
L 231.240992 -88.249893 
L 234.520331 -89.100234 
L 237.799669 -89.84063 
L 241.079008 -90.457711 
L 244.358347 -90.939755 
L 247.637686 -91.277163 
L 250.917025 -91.462891 
L 254.196364 -91.492834 
L 257.475702 -91.366154 
L 260.755041 -91.085562 
L 264.03438 -90.657535 
L 267.313719 -90.092488 
L 270.593058 -89.404876 
L 273.872397 -88.613239 
L 277.151736 -87.740165 
L 280.431074 -86.812169 
L 283.710413 -85.859458 
L 286.989752 -84.915586 
L 290.269091 -84.016959 
L 293.54843 -83.202199 
L 296.827769 -82.511366 
L 300.107107 -81.985028 
L 303.386446 -81.663226 
L 306.665785 -81.584359 
L 309.945124 -81.784048 
L 313.224463 -82.29403 
L 316.503802 -83.141176 
L 319.78314 -84.34668 
L 323.062479 -85.9255 
L 326.341818 -87.886091 
L 329.621157 -90.230457 
L 332.900496 -92.954519 
L 336.179835 -96.048755 
L 339.459174 -99.499034 
L 342.738512 -103.287537 
L 346.017851 -107.393633 
L 349.29719 -111.794551 
L 352.576529 -116.465711 
L 355.855868 -121.380578 
L 359.135207 -126.509943 
L 362.414545 -131.820589 
L 365.693884 -137.273359 
L 368.973223 -142.820714 
L 372.252562 -148.403951 
L 375.531901 -153.95029 
L 378.81124 -159.370129 
L 382.090579 -164.55476 
L 385.369917 -169.374863 
L 388.649256 -173.680072 
L 391.928595 -177.299856 
L 395.207934 -180.045862 
L 398.487273 -181.715802 
L 398.487273 -242.382109 
L 398.487273 -242.382109 
L 395.207934 -236.735336 
L 391.928595 -231.425894 
L 388.649256 -226.314669 
L 385.369917 -221.286183 
L 382.090579 -216.251551 
L 378.81124 -211.149715 
L 375.531901 -205.947029 
L 372.252562 -200.635387 
L 368.973223 -195.229151 
L 365.693884 -189.761201 
L 362.414545 -184.278467 
L 359.135207 -178.837271 
L 355.855868 -173.498805 
L 352.576529 -168.325004 
L 349.29719 -163.37502 
L 346.017851 -158.702412 
L 342.738512 -154.353113 
L 339.459174 -150.364156 
L 336.179835 -146.763094 
L 332.900496 -143.567992 
L 329.621157 -140.787879 
L 326.341818 -138.423497 
L 323.062479 -136.468235 
L 319.78314 -134.909119 
L 316.503802 -133.727783 
L 313.224463 -132.901359 
L 309.945124 -132.403254 
L 306.665785 -132.203825 
L 303.386446 -132.27095 
L 300.107107 -132.570544 
L 296.827769 -133.06704 
L 293.54843 -133.723874 
L 290.269091 -134.503993 
L 286.989752 -135.370411 
L 283.710413 -136.286795 
L 280.431074 -137.218095 
L 277.151736 -138.131171 
L 273.872397 -138.995414 
L 270.593058 -139.783307 
L 267.313719 -140.470914 
L 264.03438 -141.038261 
L 260.755041 -141.469587 
L 257.475702 -141.753462 
L 254.196364 -141.882757 
L 250.917025 -141.854489 
L 247.637686 -141.669533 
L 244.358347 -141.33225 
L 241.079008 -140.850025 
L 237.799669 -140.232763 
L 234.520331 -139.492367 
L 231.240992 -138.642207 
L 227.961653 -137.696615 
L 224.682314 -136.670419 
L 221.402975 -135.578512 
L 218.123636 -134.435477 
L 214.844298 -133.255258 
L 211.564959 -132.050877 
L 208.28562 -130.834188 
L 205.006281 -129.615669 
L 201.726942 -128.404247 
L 198.447603 -127.207149 
L 195.168264 -126.0298 
L 191.888926 -124.87576 
L 188.609587 -123.746722 
L 185.330248 -122.642582 
L 182.050909 -121.561596 
L 178.77157 -120.500638 
L 175.492231 -119.455561 
L 172.212893 -118.421646 
L 168.933554 -117.394148 
L 165.654215 -116.36888 
L 162.374876 -115.342811 
L 159.095537 -114.314622 
L 155.816198 -113.285152 
L 152.53686 -112.257687 
L 149.257521 -111.238036 
L 145.978182 -110.234353 
L 142.698843 -109.256704 
L 139.419504 -108.316375 
L 136.140165 -107.425001 
L 132.860826 -106.593572 
L 129.581488 -105.831445 
L 126.302149 -105.145505 
L 123.02281 -104.539613 
L 119.743471 -104.014497 
L 116.464132 -103.56821 
L 113.184793 -103.197246 
L 109.905455 -102.898353 
L 106.626116 -102.671003 
L 103.346777 -102.520437 
L 100.067438 -102.461092 
L 96.788099 -102.52019 
L 93.50876 -102.74117 
L 90.229421 -103.186672 
L 86.950083 -103.94072 
L 83.670744 -105.109807 
L 80.391405 -106.822638 
L 77.112066 -109.228343 
L 73.832727 -112.493103 
z
" id="m35fd7c7b8f" style="stroke:#0000ff;stroke-opacity:0.2;"/>
    </defs>
    <g clip-path="url(#p711cad84f3)">
     <use style="fill:#0000ff;fill-opacity:0.2;stroke:#0000ff;stroke-opacity:0.2;" x="0" xlink:href="#m35fd7c7b8f" y="345.6"/>
    </g>
   </g>
   <g id="PolyCollection_2">
    <defs>
     <path d="M 73.832727 -159.361646 
L 73.832727 -93.869424 
L 77.112066 -94.643298 
L 80.391405 -94.832895 
L 83.670744 -94.621638 
L 86.950083 -94.171492 
L 90.229421 -93.619342 
L 93.50876 -93.07511 
L 96.788099 -92.621542 
L 100.067438 -92.315483 
L 103.346777 -92.19038 
L 106.626116 -92.259685 
L 109.905455 -92.520815 
L 113.184793 -92.95931 
L 116.464132 -93.552896 
L 119.743471 -94.275166 
L 123.02281 -95.098706 
L 126.302149 -95.997526 
L 129.581488 -96.948771 
L 132.860826 -97.933723 
L 136.140165 -98.938172 
L 139.419504 -99.952281 
L 142.698843 -100.970089 
L 145.978182 -101.98878 
L 149.257521 -103.00787 
L 152.53686 -104.028417 
L 155.816198 -105.052337 
L 159.095537 -106.081877 
L 162.374876 -107.119261 
L 165.654215 -108.166504 
L 168.933554 -109.225351 
L 172.212893 -110.297317 
L 175.492231 -111.383752 
L 178.77157 -112.485915 
L 182.050909 -113.604992 
L 185.330248 -114.742049 
L 188.609587 -115.897912 
L 191.888926 -117.072962 
L 195.168264 -118.266878 
L 198.447603 -119.478343 
L 201.726942 -120.704752 
L 205.006281 -121.941947 
L 208.28562 -123.184017 
L 211.564959 -124.423178 
L 214.844298 -125.649759 
L 218.123636 -126.852301 
L 221.402975 -128.017761 
L 224.682314 -129.131828 
L 227.961653 -130.179313 
L 231.240992 -131.144621 
L 234.520331 -132.01226 
L 237.799669 -132.767375 
L 241.079008 -133.396282 
L 244.358347 -133.886987 
L 247.637686 -134.22967 
L 250.917025 -134.417126 
L 254.196364 -134.445157 
L 257.475702 -134.312905 
L 260.755041 -134.023142 
L 264.03438 -133.582489 
L 267.313719 -133.001593 
L 270.593058 -132.295231 
L 273.872397 -131.48236 
L 277.151736 -130.586083 
L 280.431074 -129.633522 
L 283.710413 -128.655589 
L 286.989752 -127.686627 
L 290.269091 -126.763911 
L 293.54843 -125.926998 
L 296.827769 -125.216921 
L 300.107107 -124.67524 
L 303.386446 -124.342978 
L 306.665785 -124.259467 
L 309.945124 -124.461179 
L 313.224463 -124.980592 
L 316.503802 -125.845172 
L 319.78314 -127.076546 
L 323.062479 -128.689927 
L 326.341818 -130.693848 
L 329.621157 -133.09023 
L 332.900496 -135.874771 
L 336.179835 -139.037619 
L 339.459174 -142.564251 
L 342.738512 -146.436435 
L 346.017851 -150.633137 
L 349.29719 -155.131226 
L 352.576529 -159.905801 
L 355.855868 -164.930029 
L 359.135207 -170.174376 
L 362.414545 -175.605192 
L 365.693884 -181.182666 
L 368.973223 -186.858251 
L 372.252562 -192.571726 
L 375.531901 -198.24813 
L 378.81124 -203.794859 
L 382.090579 -209.099256 
L 385.369917 -214.02702 
L 388.649256 -218.421727 
L 391.928595 -222.105741 
L 395.207934 -224.882654 
L 398.487273 -226.541346 
L 398.487273 -292.032 
L 398.487273 -292.032 
L 395.207934 -286.207843 
L 391.928595 -280.745865 
L 388.649256 -275.499601 
L 385.369917 -270.347224 
L 382.090579 -265.194657 
L 378.81124 -259.976878 
L 375.531901 -254.657498 
L 372.252562 -249.226821 
L 368.973223 -243.698643 
L 365.693884 -238.106137 
L 362.414545 -232.497191 
L 359.135207 -226.929551 
L 355.855868 -221.466107 
L 352.576529 -216.170591 
L 349.29719 -211.103897 
L 346.017851 -206.321165 
L 342.738512 -201.869658 
L 339.459174 -197.787449 
L 336.179835 -194.102819 
L 332.900496 -190.83426 
L 329.621157 -187.990949 
L 326.341818 -185.573544 
L 323.062479 -183.575147 
L 319.78314 -181.982351 
L 316.503802 -180.77624 
L 313.224463 -179.933316 
L 309.945124 -179.426298 
L 306.665785 -179.224815 
L 303.386446 -179.295987 
L 300.107107 -179.604952 
L 296.827769 -180.115341 
L 293.54843 -180.789775 
L 290.269091 -181.590376 
L 286.989752 -182.479328 
L 283.710413 -183.419476 
L 280.431074 -184.374962 
L 277.151736 -185.311877 
L 273.872397 -186.198888 
L 270.593058 -187.007823 
L 267.313719 -187.714169 
L 264.03438 -188.297466 
L 260.755041 -188.74157 
L 257.475702 -189.034768 
L 254.196364 -189.169759 
L 250.917025 -189.143485 
L 247.637686 -188.956843 
L 244.358347 -188.614299 
L 241.079008 -188.123414 
L 237.799669 -187.494331 
L 234.520331 -186.739232 
L 231.240992 -185.8718 
L 227.961653 -184.906704 
L 224.682314 -183.859111 
L 221.402975 -182.744262 
L 218.123636 -181.577077 
L 214.844298 -180.371828 
L 211.564959 -179.141843 
L 208.28562 -177.899263 
L 205.006281 -176.654824 
L 201.726942 -175.417676 
L 198.447603 -174.195235 
L 195.168264 -172.993067 
L 191.888926 -171.814829 
L 188.609587 -170.662258 
L 185.330248 -169.535241 
L 182.050909 -168.431979 
L 178.77157 -167.349246 
L 175.492231 -166.282758 
L 172.212893 -165.227645 
L 168.933554 -164.17901 
L 165.654215 -163.132532 
L 162.374876 -162.085093 
L 159.095537 -161.035345 
L 155.816198 -159.984181 
L 152.53686 -158.93503 
L 149.257521 -157.89393 
L 145.978182 -156.869347 
L 142.698843 -155.871711 
L 139.419504 -154.912704 
L 136.140165 -154.004338 
L 132.860826 -153.157919 
L 129.581488 -152.383024 
L 126.302149 -151.686614 
L 123.02281 -151.07247 
L 119.743471 -150.541081 
L 116.464132 -150.09013 
L 113.184793 -149.715672 
L 109.905455 -149.414033 
L 106.626116 -149.184408 
L 103.346777 -149.032055 
L 100.067438 -148.971892 
L 96.788099 -149.032256 
L 93.50876 -149.258507 
L 90.229421 -149.716152 
L 86.950083 -150.493136 
L 83.670744 -151.700984 
L 80.391405 -153.474524 
L 77.112066 -155.970022 
L 73.832727 -159.361646 
z
" id="m36f738b2cf" style="stroke:#ffa500;stroke-opacity:0.2;"/>
    </defs>
    <g clip-path="url(#p711cad84f3)">
     <use style="fill:#ffa500;fill-opacity:0.2;stroke:#ffa500;stroke-opacity:0.2;" x="0" xlink:href="#m36f738b2cf" y="345.6"/>
    </g>
   </g>
   <g id="PathCollection_1">
    <defs>
     <path d="M 0 3 
C 0.795609 3 1.55874 2.683901 2.12132 2.12132 
C 2.683901 1.55874 3 0.795609 3 0 
C 3 -0.795609 2.683901 -1.55874 2.12132 -2.12132 
C 1.55874 -2.683901 0.795609 -3 0 -3 
C -0.795609 -3 -1.55874 -2.683901 -2.12132 -2.12132 
C -2.683901 -1.55874 -3 -0.795609 -3 0 
C -3 0.795609 -2.683901 1.55874 -2.12132 2.12132 
C -1.55874 2.683901 -0.795609 3 0 3 
z
" id="ma9106250e3" style="stroke:#0000ff;"/>
    </defs>
    <g clip-path="url(#p711cad84f3)">
     <use style="fill:#0000ff;stroke:#0000ff;" x="73.832727" xlink:href="#ma9106250e3" y="263.92832"/>
     <use style="fill:#0000ff;stroke:#0000ff;" x="106.298182" xlink:href="#ma9106250e3" y="270.75512"/>
     <use style="fill:#0000ff;stroke:#0000ff;" x="138.763636" xlink:href="#ma9106250e3" y="262.577938"/>
     <use style="fill:#0000ff;stroke:#0000ff;" x="171.229091" xlink:href="#ma9106250e3" y="251.938496"/>
     <use style="fill:#0000ff;stroke:#0000ff;" x="203.694545" xlink:href="#ma9106250e3" y="243.30112"/>
     <use style="fill:#0000ff;stroke:#0000ff;" x="236.16" xlink:href="#ma9106250e3" y="231.970923"/>
     <use style="fill:#0000ff;stroke:#0000ff;" x="268.625455" xlink:href="#ma9106250e3" y="228.154628"/>
     <use style="fill:#0000ff;stroke:#0000ff;" x="301.090909" xlink:href="#ma9106250e3" y="238.113598"/>
     <use style="fill:#0000ff;stroke:#0000ff;" x="333.556364" xlink:href="#ma9106250e3" y="231.396929"/>
     <use style="fill:#0000ff;stroke:#0000ff;" x="366.021818" xlink:href="#ma9106250e3" y="180.063423"/>
     <use style="fill:#0000ff;stroke:#0000ff;" x="398.487273" xlink:href="#ma9106250e3" y="130.932688"/>
    </g>
   </g>
   <g id="PathCollection_2">
    <defs>
     <path d="M 0 3 
C 0.795609 3 1.55874 2.683901 2.12132 2.12132 
C 2.683901 1.55874 3 0.795609 3 0 
C 3 -0.795609 2.683901 -1.55874 2.12132 -2.12132 
C 1.55874 -2.683901 0.795609 -3 0 -3 
C -0.795609 -3 -1.55874 -2.683901 -2.12132 -2.12132 
C -2.683901 -1.55874 -3 -0.795609 -3 0 
C -3 0.795609 -2.683901 1.55874 -2.12132 2.12132 
C -1.55874 2.683901 -0.795609 3 0 3 
z
" id="m45adb06416" style="stroke:#ffa500;"/>
    </defs>
    <g clip-path="url(#p711cad84f3)">
     <use style="fill:#ffa500;stroke:#ffa500;" x="73.832727" xlink:href="#m45adb06416" y="171.782367"/>
     <use style="fill:#ffa500;stroke:#ffa500;" x="203.694545" xlink:href="#m45adb06416" y="195.398897"/>
     <use style="fill:#ffa500;stroke:#ffa500;" x="268.625455" xlink:href="#m45adb06416" y="197.541379"/>
     <use style="fill:#ffa500;stroke:#ffa500;" x="333.556364" xlink:href="#m45adb06416" y="236.461444"/>
     <use style="fill:#ffa500;stroke:#ffa500;" x="398.487273" xlink:href="#m45adb06416" y="67.968429"/>
    </g>
   </g>
   <g id="matplotlib.axis_1">
    <g id="xtick_1">
     <g id="line2d_1">
      <path clip-path="url(#p711cad84f3)" d="M 73.832727 307.584 
L 73.832727 41.472 
" style="fill:none;stroke:#b0b0b0;stroke-linecap:square;stroke-width:0.8;"/>
     </g>
     <g id="line2d_2">
      <defs>
       <path d="M 0 0 
L 0 3.5 
" id="md34c4b58ff" style="stroke:#000000;stroke-width:0.8;"/>
      </defs>
      <g>
       <use style="stroke:#000000;stroke-width:0.8;" x="73.832727" xlink:href="#md34c4b58ff" y="307.584"/>
      </g>
     </g>
     <g id="text_1">
      <!-- 0.0 -->
      <g transform="translate(65.881165 322.182437)scale(0.1 -0.1)">
       <defs>
        <path d="M 31.78125 66.40625 
Q 24.171875 66.40625 20.328125 58.90625 
Q 16.5 51.421875 16.5 36.375 
Q 16.5 21.390625 20.328125 13.890625 
Q 24.171875 6.390625 31.78125 6.390625 
Q 39.453125 6.390625 43.28125 13.890625 
Q 47.125 21.390625 47.125 36.375 
Q 47.125 51.421875 43.28125 58.90625 
Q 39.453125 66.40625 31.78125 66.40625 
z
M 31.78125 74.21875 
Q 44.046875 74.21875 50.515625 64.515625 
Q 56.984375 54.828125 56.984375 36.375 
Q 56.984375 17.96875 50.515625 8.265625 
Q 44.046875 -1.421875 31.78125 -1.421875 
Q 19.53125 -1.421875 13.0625 8.265625 
Q 6.59375 17.96875 6.59375 36.375 
Q 6.59375 54.828125 13.0625 64.515625 
Q 19.53125 74.21875 31.78125 74.21875 
z
" id="DejaVuSans-48"/>
        <path d="M 10.6875 12.40625 
L 21 12.40625 
L 21 0 
L 10.6875 0 
z
" id="DejaVuSans-46"/>
       </defs>
       <use xlink:href="#DejaVuSans-48"/>
       <use x="63.623047" xlink:href="#DejaVuSans-46"/>
       <use x="95.410156" xlink:href="#DejaVuSans-48"/>
      </g>
     </g>
    </g>
    <g id="xtick_2">
     <g id="line2d_3">
      <path clip-path="url(#p711cad84f3)" d="M 138.763636 307.584 
L 138.763636 41.472 
" style="fill:none;stroke:#b0b0b0;stroke-linecap:square;stroke-width:0.8;"/>
     </g>
     <g id="line2d_4">
      <g>
       <use style="stroke:#000000;stroke-width:0.8;" x="138.763636" xlink:href="#md34c4b58ff" y="307.584"/>
      </g>
     </g>
     <g id="text_2">
      <!-- 0.2 -->
      <g transform="translate(130.812074 322.182437)scale(0.1 -0.1)">
       <defs>
        <path d="M 19.1875 8.296875 
L 53.609375 8.296875 
L 53.609375 0 
L 7.328125 0 
L 7.328125 8.296875 
Q 12.9375 14.109375 22.625 23.890625 
Q 32.328125 33.6875 34.8125 36.53125 
Q 39.546875 41.84375 41.421875 45.53125 
Q 43.3125 49.21875 43.3125 52.78125 
Q 43.3125 58.59375 39.234375 62.25 
Q 35.15625 65.921875 28.609375 65.921875 
Q 23.96875 65.921875 18.8125 64.3125 
Q 13.671875 62.703125 7.8125 59.421875 
L 7.8125 69.390625 
Q 13.765625 71.78125 18.9375 73 
Q 24.125 74.21875 28.421875 74.21875 
Q 39.75 74.21875 46.484375 68.546875 
Q 53.21875 62.890625 53.21875 53.421875 
Q 53.21875 48.921875 51.53125 44.890625 
Q 49.859375 40.875 45.40625 35.40625 
Q 44.1875 33.984375 37.640625 27.21875 
Q 31.109375 20.453125 19.1875 8.296875 
z
" id="DejaVuSans-50"/>
       </defs>
       <use xlink:href="#DejaVuSans-48"/>
       <use x="63.623047" xlink:href="#DejaVuSans-46"/>
       <use x="95.410156" xlink:href="#DejaVuSans-50"/>
      </g>
     </g>
    </g>
    <g id="xtick_3">
     <g id="line2d_5">
      <path clip-path="url(#p711cad84f3)" d="M 203.694545 307.584 
L 203.694545 41.472 
" style="fill:none;stroke:#b0b0b0;stroke-linecap:square;stroke-width:0.8;"/>
     </g>
     <g id="line2d_6">
      <g>
       <use style="stroke:#000000;stroke-width:0.8;" x="203.694545" xlink:href="#md34c4b58ff" y="307.584"/>
      </g>
     </g>
     <g id="text_3">
      <!-- 0.4 -->
      <g transform="translate(195.742983 322.182437)scale(0.1 -0.1)">
       <defs>
        <path d="M 37.796875 64.3125 
L 12.890625 25.390625 
L 37.796875 25.390625 
z
M 35.203125 72.90625 
L 47.609375 72.90625 
L 47.609375 25.390625 
L 58.015625 25.390625 
L 58.015625 17.1875 
L 47.609375 17.1875 
L 47.609375 0 
L 37.796875 0 
L 37.796875 17.1875 
L 4.890625 17.1875 
L 4.890625 26.703125 
z
" id="DejaVuSans-52"/>
       </defs>
       <use xlink:href="#DejaVuSans-48"/>
       <use x="63.623047" xlink:href="#DejaVuSans-46"/>
       <use x="95.410156" xlink:href="#DejaVuSans-52"/>
      </g>
     </g>
    </g>
    <g id="xtick_4">
     <g id="line2d_7">
      <path clip-path="url(#p711cad84f3)" d="M 268.625455 307.584 
L 268.625455 41.472 
" style="fill:none;stroke:#b0b0b0;stroke-linecap:square;stroke-width:0.8;"/>
     </g>
     <g id="line2d_8">
      <g>
       <use style="stroke:#000000;stroke-width:0.8;" x="268.625455" xlink:href="#md34c4b58ff" y="307.584"/>
      </g>
     </g>
     <g id="text_4">
      <!-- 0.6 -->
      <g transform="translate(260.673892 322.182437)scale(0.1 -0.1)">
       <defs>
        <path d="M 33.015625 40.375 
Q 26.375 40.375 22.484375 35.828125 
Q 18.609375 31.296875 18.609375 23.390625 
Q 18.609375 15.53125 22.484375 10.953125 
Q 26.375 6.390625 33.015625 6.390625 
Q 39.65625 6.390625 43.53125 10.953125 
Q 47.40625 15.53125 47.40625 23.390625 
Q 47.40625 31.296875 43.53125 35.828125 
Q 39.65625 40.375 33.015625 40.375 
z
M 52.59375 71.296875 
L 52.59375 62.3125 
Q 48.875 64.0625 45.09375 64.984375 
Q 41.3125 65.921875 37.59375 65.921875 
Q 27.828125 65.921875 22.671875 59.328125 
Q 17.53125 52.734375 16.796875 39.40625 
Q 19.671875 43.65625 24.015625 45.921875 
Q 28.375 48.1875 33.59375 48.1875 
Q 44.578125 48.1875 50.953125 41.515625 
Q 57.328125 34.859375 57.328125 23.390625 
Q 57.328125 12.15625 50.6875 5.359375 
Q 44.046875 -1.421875 33.015625 -1.421875 
Q 20.359375 -1.421875 13.671875 8.265625 
Q 6.984375 17.96875 6.984375 36.375 
Q 6.984375 53.65625 15.1875 63.9375 
Q 23.390625 74.21875 37.203125 74.21875 
Q 40.921875 74.21875 44.703125 73.484375 
Q 48.484375 72.75 52.59375 71.296875 
z
" id="DejaVuSans-54"/>
       </defs>
       <use xlink:href="#DejaVuSans-48"/>
       <use x="63.623047" xlink:href="#DejaVuSans-46"/>
       <use x="95.410156" xlink:href="#DejaVuSans-54"/>
      </g>
     </g>
    </g>
    <g id="xtick_5">
     <g id="line2d_9">
      <path clip-path="url(#p711cad84f3)" d="M 333.556364 307.584 
L 333.556364 41.472 
" style="fill:none;stroke:#b0b0b0;stroke-linecap:square;stroke-width:0.8;"/>
     </g>
     <g id="line2d_10">
      <g>
       <use style="stroke:#000000;stroke-width:0.8;" x="333.556364" xlink:href="#md34c4b58ff" y="307.584"/>
      </g>
     </g>
     <g id="text_5">
      <!-- 0.8 -->
      <g transform="translate(325.604801 322.182437)scale(0.1 -0.1)">
       <defs>
        <path d="M 31.78125 34.625 
Q 24.75 34.625 20.71875 30.859375 
Q 16.703125 27.09375 16.703125 20.515625 
Q 16.703125 13.921875 20.71875 10.15625 
Q 24.75 6.390625 31.78125 6.390625 
Q 38.8125 6.390625 42.859375 10.171875 
Q 46.921875 13.96875 46.921875 20.515625 
Q 46.921875 27.09375 42.890625 30.859375 
Q 38.875 34.625 31.78125 34.625 
z
M 21.921875 38.8125 
Q 15.578125 40.375 12.03125 44.71875 
Q 8.5 49.078125 8.5 55.328125 
Q 8.5 64.0625 14.71875 69.140625 
Q 20.953125 74.21875 31.78125 74.21875 
Q 42.671875 74.21875 48.875 69.140625 
Q 55.078125 64.0625 55.078125 55.328125 
Q 55.078125 49.078125 51.53125 44.71875 
Q 48 40.375 41.703125 38.8125 
Q 48.828125 37.15625 52.796875 32.3125 
Q 56.78125 27.484375 56.78125 20.515625 
Q 56.78125 9.90625 50.3125 4.234375 
Q 43.84375 -1.421875 31.78125 -1.421875 
Q 19.734375 -1.421875 13.25 4.234375 
Q 6.78125 9.90625 6.78125 20.515625 
Q 6.78125 27.484375 10.78125 32.3125 
Q 14.796875 37.15625 21.921875 38.8125 
z
M 18.3125 54.390625 
Q 18.3125 48.734375 21.84375 45.5625 
Q 25.390625 42.390625 31.78125 42.390625 
Q 38.140625 42.390625 41.71875 45.5625 
Q 45.3125 48.734375 45.3125 54.390625 
Q 45.3125 60.0625 41.71875 63.234375 
Q 38.140625 66.40625 31.78125 66.40625 
Q 25.390625 66.40625 21.84375 63.234375 
Q 18.3125 60.0625 18.3125 54.390625 
z
" id="DejaVuSans-56"/>
       </defs>
       <use xlink:href="#DejaVuSans-48"/>
       <use x="63.623047" xlink:href="#DejaVuSans-46"/>
       <use x="95.410156" xlink:href="#DejaVuSans-56"/>
      </g>
     </g>
    </g>
    <g id="xtick_6">
     <g id="line2d_11">
      <path clip-path="url(#p711cad84f3)" d="M 398.487273 307.584 
L 398.487273 41.472 
" style="fill:none;stroke:#b0b0b0;stroke-linecap:square;stroke-width:0.8;"/>
     </g>
     <g id="line2d_12">
      <g>
       <use style="stroke:#000000;stroke-width:0.8;" x="398.487273" xlink:href="#md34c4b58ff" y="307.584"/>
      </g>
     </g>
     <g id="text_6">
      <!-- 1.0 -->
      <g transform="translate(390.53571 322.182437)scale(0.1 -0.1)">
       <defs>
        <path d="M 12.40625 8.296875 
L 28.515625 8.296875 
L 28.515625 63.921875 
L 10.984375 60.40625 
L 10.984375 69.390625 
L 28.421875 72.90625 
L 38.28125 72.90625 
L 38.28125 8.296875 
L 54.390625 8.296875 
L 54.390625 0 
L 12.40625 0 
z
" id="DejaVuSans-49"/>
       </defs>
       <use xlink:href="#DejaVuSans-49"/>
       <use x="63.623047" xlink:href="#DejaVuSans-46"/>
       <use x="95.410156" xlink:href="#DejaVuSans-48"/>
      </g>
     </g>
    </g>
   </g>
   <g id="matplotlib.axis_2">
    <g id="ytick_1">
     <g id="line2d_13">
      <path clip-path="url(#p711cad84f3)" d="M 57.6 278.229157 
L 414.72 278.229157 
" style="fill:none;stroke:#b0b0b0;stroke-linecap:square;stroke-width:0.8;"/>
     </g>
     <g id="line2d_14">
      <defs>
       <path d="M 0 0 
L -3.5 0 
" id="m8924f6851c" style="stroke:#000000;stroke-width:0.8;"/>
      </defs>
      <g>
       <use style="stroke:#000000;stroke-width:0.8;" x="57.6" xlink:href="#m8924f6851c" y="278.229157"/>
      </g>
     </g>
     <g id="text_7">
      <!-- −10 -->
      <g transform="translate(29.495313 282.028375)scale(0.1 -0.1)">
       <defs>
        <path d="M 10.59375 35.5 
L 73.1875 35.5 
L 73.1875 27.203125 
L 10.59375 27.203125 
z
" id="DejaVuSans-8722"/>
       </defs>
       <use xlink:href="#DejaVuSans-8722"/>
       <use x="83.789062" xlink:href="#DejaVuSans-49"/>
       <use x="147.412109" xlink:href="#DejaVuSans-48"/>
      </g>
     </g>
    </g>
    <g id="ytick_2">
     <g id="line2d_15">
      <path clip-path="url(#p711cad84f3)" d="M 57.6 237.684825 
L 414.72 237.684825 
" style="fill:none;stroke:#b0b0b0;stroke-linecap:square;stroke-width:0.8;"/>
     </g>
     <g id="line2d_16">
      <g>
       <use style="stroke:#000000;stroke-width:0.8;" x="57.6" xlink:href="#m8924f6851c" y="237.684825"/>
      </g>
     </g>
     <g id="text_8">
      <!-- −5 -->
      <g transform="translate(35.857813 241.484044)scale(0.1 -0.1)">
       <defs>
        <path d="M 10.796875 72.90625 
L 49.515625 72.90625 
L 49.515625 64.59375 
L 19.828125 64.59375 
L 19.828125 46.734375 
Q 21.96875 47.46875 24.109375 47.828125 
Q 26.265625 48.1875 28.421875 48.1875 
Q 40.625 48.1875 47.75 41.5 
Q 54.890625 34.8125 54.890625 23.390625 
Q 54.890625 11.625 47.5625 5.09375 
Q 40.234375 -1.421875 26.90625 -1.421875 
Q 22.3125 -1.421875 17.546875 -0.640625 
Q 12.796875 0.140625 7.71875 1.703125 
L 7.71875 11.625 
Q 12.109375 9.234375 16.796875 8.0625 
Q 21.484375 6.890625 26.703125 6.890625 
Q 35.15625 6.890625 40.078125 11.328125 
Q 45.015625 15.765625 45.015625 23.390625 
Q 45.015625 31 40.078125 35.4375 
Q 35.15625 39.890625 26.703125 39.890625 
Q 22.75 39.890625 18.8125 39.015625 
Q 14.890625 38.140625 10.796875 36.28125 
z
" id="DejaVuSans-53"/>
       </defs>
       <use xlink:href="#DejaVuSans-8722"/>
       <use x="83.789062" xlink:href="#DejaVuSans-53"/>
      </g>
     </g>
    </g>
    <g id="ytick_3">
     <g id="line2d_17">
      <path clip-path="url(#p711cad84f3)" d="M 57.6 197.140494 
L 414.72 197.140494 
" style="fill:none;stroke:#b0b0b0;stroke-linecap:square;stroke-width:0.8;"/>
     </g>
     <g id="line2d_18">
      <g>
       <use style="stroke:#000000;stroke-width:0.8;" x="57.6" xlink:href="#m8924f6851c" y="197.140494"/>
      </g>
     </g>
     <g id="text_9">
      <!-- 0 -->
      <g transform="translate(44.2375 200.939713)scale(0.1 -0.1)">
       <use xlink:href="#DejaVuSans-48"/>
      </g>
     </g>
    </g>
    <g id="ytick_4">
     <g id="line2d_19">
      <path clip-path="url(#p711cad84f3)" d="M 57.6 156.596163 
L 414.72 156.596163 
" style="fill:none;stroke:#b0b0b0;stroke-linecap:square;stroke-width:0.8;"/>
     </g>
     <g id="line2d_20">
      <g>
       <use style="stroke:#000000;stroke-width:0.8;" x="57.6" xlink:href="#m8924f6851c" y="156.596163"/>
      </g>
     </g>
     <g id="text_10">
      <!-- 5 -->
      <g transform="translate(44.2375 160.395382)scale(0.1 -0.1)">
       <use xlink:href="#DejaVuSans-53"/>
      </g>
     </g>
    </g>
    <g id="ytick_5">
     <g id="line2d_21">
      <path clip-path="url(#p711cad84f3)" d="M 57.6 116.051832 
L 414.72 116.051832 
" style="fill:none;stroke:#b0b0b0;stroke-linecap:square;stroke-width:0.8;"/>
     </g>
     <g id="line2d_22">
      <g>
       <use style="stroke:#000000;stroke-width:0.8;" x="57.6" xlink:href="#m8924f6851c" y="116.051832"/>
      </g>
     </g>
     <g id="text_11">
      <!-- 10 -->
      <g transform="translate(37.875 119.851051)scale(0.1 -0.1)">
       <use xlink:href="#DejaVuSans-49"/>
       <use x="63.623047" xlink:href="#DejaVuSans-48"/>
      </g>
     </g>
    </g>
    <g id="ytick_6">
     <g id="line2d_23">
      <path clip-path="url(#p711cad84f3)" d="M 57.6 75.507501 
L 414.72 75.507501 
" style="fill:none;stroke:#b0b0b0;stroke-linecap:square;stroke-width:0.8;"/>
     </g>
     <g id="line2d_24">
      <g>
       <use style="stroke:#000000;stroke-width:0.8;" x="57.6" xlink:href="#m8924f6851c" y="75.507501"/>
      </g>
     </g>
     <g id="text_12">
      <!-- 15 -->
      <g transform="translate(37.875 79.30672)scale(0.1 -0.1)">
       <use xlink:href="#DejaVuSans-49"/>
       <use x="63.623047" xlink:href="#DejaVuSans-53"/>
      </g>
     </g>
    </g>
   </g>
   <g id="line2d_25">
    <path clip-path="url(#p711cad84f3)" d="M 73.832727 263.440051 
L 77.112066 264.716394 
L 80.391405 265.840381 
L 83.670744 266.807491 
L 86.950083 267.61494 
L 90.229421 268.261723 
L 93.50876 268.748623 
L 96.788099 269.07818 
L 100.067438 269.254626 
L 103.346777 269.283782 
L 106.626116 269.172918 
L 109.905455 268.930586 
L 113.184793 268.566418 
L 116.464132 268.090904 
L 119.743471 267.51515 
L 123.02281 266.850622 
L 126.302149 266.108884 
L 129.581488 265.301343 
L 132.860826 264.438989 
L 136.140165 263.532168 
L 139.419504 262.590362 
L 142.698843 261.622008 
L 145.978182 260.63435 
L 149.257521 259.633332 
L 152.53686 258.623532 
L 155.816198 257.608152 
L 159.095537 256.589042 
L 162.374876 255.566792 
L 165.654215 254.540853 
L 168.933554 253.509714 
L 172.212893 252.471112 
L 175.492231 251.422276 
L 178.77157 250.360199 
L 182.050909 249.281922 
L 185.330248 248.184831 
L 188.609587 247.066946 
L 191.888926 245.927203 
L 195.168264 244.765703 
L 198.447603 243.583939 
L 201.726942 242.384969 
L 205.006281 241.173544 
L 208.28562 239.956175 
L 211.564959 238.741136 
L 214.844298 237.538396 
L 218.123636 236.359485 
L 221.402975 235.217287 
L 224.682314 234.125766 
L 227.961653 233.099632 
L 231.240992 232.15395 
L 234.520331 231.3037 
L 237.799669 230.563303 
L 241.079008 229.946132 
L 244.358347 229.463997 
L 247.637686 229.126652 
L 250.917025 228.94131 
L 254.196364 228.912204 
L 257.475702 229.040192 
L 260.755041 229.322426 
L 264.03438 229.752102 
L 267.313719 230.318299 
L 270.593058 231.005909 
L 273.872397 231.795674 
L 277.151736 232.664332 
L 280.431074 233.584868 
L 283.710413 234.526873 
L 286.989752 235.457001 
L 290.269091 236.339524 
L 293.54843 237.136963 
L 296.827769 237.810797 
L 300.107107 238.322214 
L 303.386446 238.632912 
L 306.665785 238.705908 
L 309.945124 238.506349 
L 313.224463 238.002306 
L 316.503802 237.165521 
L 319.78314 235.9721 
L 323.062479 234.403132 
L 326.341818 232.445206 
L 329.621157 230.090832 
L 332.900496 227.338745 
L 336.179835 224.194076 
L 339.459174 220.668405 
L 342.738512 216.779675 
L 346.017851 212.551977 
L 349.29719 208.015214 
L 352.576529 203.204643 
L 355.855868 198.160309 
L 359.135207 192.926393 
L 362.414545 187.550472 
L 365.693884 182.08272 
L 368.973223 176.575067 
L 372.252562 171.080331 
L 375.531901 165.651341 
L 378.81124 160.340078 
L 382.090579 155.196844 
L 385.369917 150.269477 
L 388.649256 145.60263 
L 391.928595 141.237125 
L 395.207934 137.209401 
L 398.487273 133.551044 
" style="fill:none;stroke:#0000ff;stroke-linecap:square;stroke-width:1.5;"/>
   </g>
   <g id="line2d_26">
    <path clip-path="url(#p711cad84f3)" d="M 73.832727 233.106897 
L 77.112066 236.371657 
L 80.391405 238.777362 
L 83.670744 240.490193 
L 86.950083 241.65928 
L 90.229421 242.413328 
L 93.50876 242.85883 
L 96.788099 243.07981 
L 100.067438 243.138908 
L 103.346777 243.079563 
L 106.626116 242.928997 
L 109.905455 242.701647 
L 113.184793 242.402754 
L 116.464132 242.03179 
L 119.743471 241.585503 
L 123.02281 241.060387 
L 126.302149 240.454495 
L 129.581488 239.768555 
L 132.860826 239.006428 
L 136.140165 238.174999 
L 139.419504 237.283625 
L 142.698843 236.343296 
L 145.978182 235.365647 
L 149.257521 234.361964 
L 152.53686 233.342313 
L 155.816198 232.314848 
L 159.095537 231.285378 
L 162.374876 230.257189 
L 165.654215 229.23112 
L 168.933554 228.205852 
L 172.212893 227.178354 
L 175.492231 226.144439 
L 178.77157 225.099362 
L 182.050909 224.038404 
L 185.330248 222.957418 
L 188.609587 221.853278 
L 191.888926 220.72424 
L 195.168264 219.5702 
L 198.447603 218.392851 
L 201.726942 217.195753 
L 205.006281 215.984331 
L 208.28562 214.765812 
L 211.564959 213.549123 
L 214.844298 212.344742 
L 218.123636 211.164523 
L 221.402975 210.021488 
L 224.682314 208.929581 
L 227.961653 207.903385 
L 231.240992 206.957793 
L 234.520331 206.107633 
L 237.799669 205.367237 
L 241.079008 204.749975 
L 244.358347 204.26775 
L 247.637686 203.930467 
L 250.917025 203.745511 
L 254.196364 203.717243 
L 257.475702 203.846538 
L 260.755041 204.130413 
L 264.03438 204.561739 
L 267.313719 205.129086 
L 270.593058 205.816693 
L 273.872397 206.604586 
L 277.151736 207.468829 
L 280.431074 208.381905 
L 283.710413 209.313205 
L 286.989752 210.229589 
L 290.269091 211.096007 
L 293.54843 211.876126 
L 296.827769 212.53296 
L 300.107107 213.029456 
L 303.386446 213.32905 
L 306.665785 213.396175 
L 309.945124 213.196746 
L 313.224463 212.698641 
L 316.503802 211.872217 
L 319.78314 210.690881 
L 323.062479 209.131765 
L 326.341818 207.176503 
L 329.621157 204.812121 
L 332.900496 202.032008 
L 336.179835 198.836906 
L 339.459174 195.235844 
L 342.738512 191.246887 
L 346.017851 186.897588 
L 349.29719 182.22498 
L 352.576529 177.274996 
L 355.855868 172.101195 
L 359.135207 166.762729 
L 362.414545 161.321533 
L 365.693884 155.838799 
L 368.973223 150.370849 
L 372.252562 144.964613 
L 375.531901 139.652971 
L 378.81124 134.450285 
L 382.090579 129.348449 
L 385.369917 124.313817 
L 388.649256 119.285331 
L 391.928595 114.174106 
L 395.207934 108.864664 
L 398.487273 103.217891 
" style="fill:none;stroke:#000000;stroke-linecap:square;stroke-width:0.5;"/>
   </g>
   <g id="line2d_27">
    <path clip-path="url(#p711cad84f3)" d="M 73.832727 293.773205 
L 77.112066 293.06113 
L 80.391405 292.9034 
L 83.670744 293.124789 
L 86.950083 293.5706 
L 90.229421 294.110118 
L 93.50876 294.638415 
L 96.788099 295.076549 
L 100.067438 295.370344 
L 103.346777 295.488 
L 106.626116 295.416839 
L 109.905455 295.159525 
L 113.184793 294.730082 
L 116.464132 294.150018 
L 119.743471 293.444797 
L 123.02281 292.640856 
L 126.302149 291.763274 
L 129.581488 290.834131 
L 132.860826 289.871551 
L 136.140165 288.889338 
L 139.419504 287.897098 
L 142.698843 286.900719 
L 145.978182 285.903053 
L 149.257521 284.904699 
L 152.53686 283.904752 
L 155.816198 282.901455 
L 159.095537 281.892706 
L 162.374876 280.876395 
L 165.654215 279.850585 
L 168.933554 278.813576 
L 172.212893 277.76387 
L 175.492231 276.700113 
L 178.77157 275.621036 
L 182.050909 274.525439 
L 185.330248 273.412243 
L 188.609587 272.280615 
L 191.888926 271.130166 
L 195.168264 269.961206 
L 198.447603 268.775027 
L 201.726942 267.574184 
L 205.006281 266.362757 
L 208.28562 265.146538 
L 211.564959 263.933149 
L 214.844298 262.73205 
L 218.123636 261.554447 
L 221.402975 260.413085 
L 224.682314 259.321951 
L 227.961653 258.29588 
L 231.240992 257.350107 
L 234.520331 256.499766 
L 237.799669 255.75937 
L 241.079008 255.142289 
L 244.358347 254.660245 
L 247.637686 254.322837 
L 250.917025 254.137109 
L 254.196364 254.107166 
L 257.475702 254.233846 
L 260.755041 254.514438 
L 264.03438 254.942465 
L 267.313719 255.507512 
L 270.593058 256.195124 
L 273.872397 256.986761 
L 277.151736 257.859835 
L 280.431074 258.787831 
L 283.710413 259.740542 
L 286.989752 260.684414 
L 290.269091 261.583041 
L 293.54843 262.397801 
L 296.827769 263.088634 
L 300.107107 263.614972 
L 303.386446 263.936774 
L 306.665785 264.015641 
L 309.945124 263.815952 
L 313.224463 263.30597 
L 316.503802 262.458824 
L 319.78314 261.25332 
L 323.062479 259.6745 
L 326.341818 257.713909 
L 329.621157 255.369543 
L 332.900496 252.645481 
L 336.179835 249.551245 
L 339.459174 246.100966 
L 342.738512 242.312463 
L 346.017851 238.206367 
L 349.29719 233.805449 
L 352.576529 229.134289 
L 355.855868 224.219422 
L 359.135207 219.090057 
L 362.414545 213.779411 
L 365.693884 208.326641 
L 368.973223 202.779286 
L 372.252562 197.196049 
L 375.531901 191.64971 
L 378.81124 186.229871 
L 382.090579 181.04524 
L 385.369917 176.225137 
L 388.649256 171.919928 
L 391.928595 168.300144 
L 395.207934 165.554138 
L 398.487273 163.884198 
" style="fill:none;stroke:#000000;stroke-linecap:square;stroke-width:0.5;"/>
   </g>
   <g id="line2d_28">
    <path clip-path="url(#p711cad84f3)" d="M 73.832727 218.984465 
L 77.112066 220.29334 
L 80.391405 221.446291 
L 83.670744 222.438689 
L 86.950083 223.267686 
L 90.229421 223.932253 
L 93.50876 224.433191 
L 96.788099 224.773101 
L 100.067438 224.956312 
L 103.346777 224.988783 
L 106.626116 224.877954 
L 109.905455 224.632576 
L 113.184793 224.262509 
L 116.464132 223.778487 
L 119.743471 223.191877 
L 123.02281 222.514412 
L 126.302149 221.75793 
L 129.581488 220.934102 
L 132.860826 220.054179 
L 136.140165 219.128745 
L 139.419504 218.167507 
L 142.698843 217.1791 
L 145.978182 216.170936 
L 149.257521 215.1491 
L 152.53686 214.118276 
L 155.816198 213.081741 
L 159.095537 212.041389 
L 162.374876 210.997823 
L 165.654215 209.950482 
L 168.933554 208.89782 
L 172.212893 207.837519 
L 175.492231 206.766745 
L 178.77157 205.682419 
L 182.050909 204.581514 
L 185.330248 203.461355 
L 188.609587 202.319915 
L 191.888926 201.156104 
L 195.168264 199.970027 
L 198.447603 198.763211 
L 201.726942 197.538786 
L 205.006281 196.301614 
L 208.28562 195.05836 
L 211.564959 193.81749 
L 214.844298 192.589207 
L 218.123636 191.385311 
L 221.402975 190.218988 
L 224.682314 189.10453 
L 227.961653 188.056992 
L 231.240992 187.091789 
L 234.520331 186.224254 
L 237.799669 185.469147 
L 241.079008 184.840152 
L 244.358347 184.349357 
L 247.637686 184.006743 
L 250.917025 183.819694 
L 254.196364 183.792542 
L 257.475702 183.926163 
L 260.755041 184.217644 
L 264.03438 184.660022 
L 267.313719 185.242119 
L 270.593058 185.948473 
L 273.872397 186.759376 
L 277.151736 187.65102 
L 280.431074 188.595758 
L 283.710413 189.562468 
L 286.989752 190.517022 
L 290.269091 191.422856 
L 293.54843 192.241614 
L 296.827769 192.933869 
L 300.107107 193.459904 
L 303.386446 193.780517 
L 306.665785 193.857859 
L 309.945124 193.656262 
L 313.224463 193.143046 
L 316.503802 192.289294 
L 319.78314 191.070551 
L 323.062479 189.467463 
L 326.341818 187.466304 
L 329.621157 185.05941 
L 332.900496 182.245485 
L 336.179835 179.029781 
L 339.459174 175.42415 
L 342.738512 171.446954 
L 346.017851 167.122849 
L 349.29719 162.482438 
L 352.576529 157.561804 
L 355.855868 152.401932 
L 359.135207 147.048036 
L 362.414545 141.548808 
L 365.693884 135.955598 
L 368.973223 130.321553 
L 372.252562 124.700726 
L 375.531901 119.147186 
L 378.81124 113.714132 
L 382.090579 108.453043 
L 385.369917 103.412878 
L 388.649256 98.639336 
L 391.928595 94.174197 
L 395.207934 90.054752 
L 398.487273 86.313327 
" style="fill:none;stroke:#ffa500;stroke-linecap:square;stroke-width:1.5;"/>
   </g>
   <g id="line2d_29">
    <path clip-path="url(#p711cad84f3)" d="M 73.832727 186.238354 
L 77.112066 189.629978 
L 80.391405 192.125476 
L 83.670744 193.899016 
L 86.950083 195.106864 
L 90.229421 195.883848 
L 93.50876 196.341493 
L 96.788099 196.567744 
L 100.067438 196.628108 
L 103.346777 196.567945 
L 106.626116 196.415592 
L 109.905455 196.185967 
L 113.184793 195.884328 
L 116.464132 195.50987 
L 119.743471 195.058919 
L 123.02281 194.52753 
L 126.302149 193.913386 
L 129.581488 193.216976 
L 132.860826 192.442081 
L 136.140165 191.595662 
L 139.419504 190.687296 
L 142.698843 189.728289 
L 145.978182 188.730653 
L 149.257521 187.70607 
L 152.53686 186.66497 
L 155.816198 185.615819 
L 159.095537 184.564655 
L 162.374876 183.514907 
L 165.654215 182.467468 
L 168.933554 181.42099 
L 172.212893 180.372355 
L 175.492231 179.317242 
L 178.77157 178.250754 
L 182.050909 177.168021 
L 185.330248 176.064759 
L 188.609587 174.937742 
L 191.888926 173.785171 
L 195.168264 172.606933 
L 198.447603 171.404765 
L 201.726942 170.182324 
L 205.006281 168.945176 
L 208.28562 167.700737 
L 211.564959 166.458157 
L 214.844298 165.228172 
L 218.123636 164.022923 
L 221.402975 162.855738 
L 224.682314 161.740889 
L 227.961653 160.693296 
L 231.240992 159.7282 
L 234.520331 158.860768 
L 237.799669 158.105669 
L 241.079008 157.476586 
L 244.358347 156.985701 
L 247.637686 156.643157 
L 250.917025 156.456515 
L 254.196364 156.430241 
L 257.475702 156.565232 
L 260.755041 156.85843 
L 264.03438 157.302534 
L 267.313719 157.885831 
L 270.593058 158.592177 
L 273.872397 159.401112 
L 277.151736 160.288123 
L 280.431074 161.225038 
L 283.710413 162.180524 
L 286.989752 163.120672 
L 290.269091 164.009624 
L 293.54843 164.810225 
L 296.827769 165.484659 
L 300.107107 165.995048 
L 303.386446 166.304013 
L 306.665785 166.375185 
L 309.945124 166.173702 
L 313.224463 165.666684 
L 316.503802 164.82376 
L 319.78314 163.617649 
L 323.062479 162.024853 
L 326.341818 160.026456 
L 329.621157 157.609051 
L 332.900496 154.76574 
L 336.179835 151.497181 
L 339.459174 147.812551 
L 342.738512 143.730342 
L 346.017851 139.278835 
L 349.29719 134.496103 
L 352.576529 129.429409 
L 355.855868 124.133893 
L 359.135207 118.670449 
L 362.414545 113.102809 
L 365.693884 107.493863 
L 368.973223 101.901357 
L 372.252562 96.373179 
L 375.531901 90.942502 
L 378.81124 85.623122 
L 382.090579 80.405343 
L 385.369917 75.252776 
L 388.649256 70.100399 
L 391.928595 64.854135 
L 395.207934 59.392157 
L 398.487273 53.568 
" style="fill:none;stroke:#000000;stroke-linecap:square;stroke-width:0.5;"/>
   </g>
   <g id="line2d_30">
    <path clip-path="url(#p711cad84f3)" d="M 73.832727 251.730576 
L 77.112066 250.956702 
L 80.391405 250.767105 
L 83.670744 250.978362 
L 86.950083 251.428508 
L 90.229421 251.980658 
L 93.50876 252.52489 
L 96.788099 252.978458 
L 100.067438 253.284517 
L 103.346777 253.40962 
L 106.626116 253.340315 
L 109.905455 253.079185 
L 113.184793 252.64069 
L 116.464132 252.047104 
L 119.743471 251.324834 
L 123.02281 250.501294 
L 126.302149 249.602474 
L 129.581488 248.651229 
L 132.860826 247.666277 
L 136.140165 246.661828 
L 139.419504 245.647719 
L 142.698843 244.629911 
L 145.978182 243.61122 
L 149.257521 242.59213 
L 152.53686 241.571583 
L 155.816198 240.547663 
L 159.095537 239.518123 
L 162.374876 238.480739 
L 165.654215 237.433496 
L 168.933554 236.374649 
L 172.212893 235.302683 
L 175.492231 234.216248 
L 178.77157 233.114085 
L 182.050909 231.995008 
L 185.330248 230.857951 
L 188.609587 229.702088 
L 191.888926 228.527038 
L 195.168264 227.333122 
L 198.447603 226.121657 
L 201.726942 224.895248 
L 205.006281 223.658053 
L 208.28562 222.415983 
L 211.564959 221.176822 
L 214.844298 219.950241 
L 218.123636 218.747699 
L 221.402975 217.582239 
L 224.682314 216.468172 
L 227.961653 215.420687 
L 231.240992 214.455379 
L 234.520331 213.58774 
L 237.799669 212.832625 
L 241.079008 212.203718 
L 244.358347 211.713013 
L 247.637686 211.37033 
L 250.917025 211.182874 
L 254.196364 211.154843 
L 257.475702 211.287095 
L 260.755041 211.576858 
L 264.03438 212.017511 
L 267.313719 212.598407 
L 270.593058 213.304769 
L 273.872397 214.11764 
L 277.151736 215.013917 
L 280.431074 215.966478 
L 283.710413 216.944411 
L 286.989752 217.913373 
L 290.269091 218.836089 
L 293.54843 219.673002 
L 296.827769 220.383079 
L 300.107107 220.92476 
L 303.386446 221.257022 
L 306.665785 221.340533 
L 309.945124 221.138821 
L 313.224463 220.619408 
L 316.503802 219.754828 
L 319.78314 218.523454 
L 323.062479 216.910073 
L 326.341818 214.906152 
L 329.621157 212.50977 
L 332.900496 209.725229 
L 336.179835 206.562381 
L 339.459174 203.035749 
L 342.738512 199.163565 
L 346.017851 194.966863 
L 349.29719 190.468774 
L 352.576529 185.694199 
L 355.855868 180.669971 
L 359.135207 175.425624 
L 362.414545 169.994808 
L 365.693884 164.417334 
L 368.973223 158.741749 
L 372.252562 153.028274 
L 375.531901 147.35187 
L 378.81124 141.805141 
L 382.090579 136.500744 
L 385.369917 131.57298 
L 388.649256 127.178273 
L 391.928595 123.494259 
L 395.207934 120.717346 
L 398.487273 119.058654 
" style="fill:none;stroke:#000000;stroke-linecap:square;stroke-width:0.5;"/>
   </g>
   <g id="line2d_31">
    <path clip-path="url(#p711cad84f3)" d="M 73.832727 263.92832 
L 77.112066 265.131779 
L 80.391405 266.295146 
L 83.670744 267.38052 
L 86.950083 268.355073 
L 90.229421 269.19143 
L 93.50876 269.86789 
L 96.788099 270.368508 
L 100.067438 270.683034 
L 103.346777 270.806717 
L 106.626116 270.739993 
L 109.905455 270.488055 
L 113.184793 270.060347 
L 116.464132 269.469959 
L 119.743471 268.732989 
L 123.02281 267.867845 
L 126.302149 266.894541 
L 129.581488 265.83399 
L 132.860826 264.707307 
L 136.140165 263.53516 
L 139.419504 262.337163 
L 142.698843 261.131334 
L 145.978182 259.933641 
L 149.257521 258.757621 
L 152.53686 257.614107 
L 155.816198 256.511047 
L 159.095537 255.453424 
L 162.374876 254.443284 
L 165.654215 253.479852 
L 168.933554 252.55975 
L 172.212893 251.67729 
L 175.492231 250.824841 
L 178.77157 249.993264 
L 182.050909 249.172386 
L 185.330248 248.351508 
L 188.609587 247.519931 
L 191.888926 246.667482 
L 195.168264 245.785022 
L 198.447603 244.86492 
L 201.726942 243.901488 
L 205.006281 242.891348 
L 208.28562 241.833725 
L 211.564959 240.730664 
L 214.844298 239.587151 
L 218.123636 238.411131 
L 221.402975 237.213438 
L 224.682314 236.007609 
L 227.961653 234.809612 
L 231.240992 233.637465 
L 234.520331 232.510782 
L 237.799669 231.450231 
L 241.079008 230.476927 
L 244.358347 229.611783 
L 247.637686 228.874813 
L 250.917025 228.284425 
L 254.196364 227.856717 
L 257.475702 227.604779 
L 260.755041 227.538054 
L 264.03438 227.661738 
L 267.313719 227.976264 
L 270.593058 228.476882 
L 273.872397 229.153342 
L 277.151736 229.989699 
L 280.431074 230.964252 
L 283.710413 232.049626 
L 286.989752 233.212993 
L 290.269091 234.416452 
L 293.54843 235.617546 
L 296.827769 236.769927 
L 300.107107 237.824149 
L 303.386446 238.728596 
L 306.665785 239.430502 
L 309.945124 239.877072 
L 313.224463 240.016667 
L 316.503802 239.800041 
L 319.78314 239.181591 
L 323.062479 238.120611 
L 326.341818 236.582507 
L 329.621157 234.539953 
L 332.900496 231.973965 
L 336.179835 228.874848 
L 339.459174 225.243015 
L 342.738512 221.089628 
L 346.017851 216.437063 
L 349.29719 211.319165 
L 352.576529 205.781279 
L 355.855868 199.880058 
L 359.135207 193.683025 
L 362.414545 187.267894 
L 365.693884 180.721659 
L 368.973223 174.139441 
L 372.252562 167.623122 
L 375.531901 161.279776 
L 378.81124 155.219913 
L 382.090579 149.555574 
L 385.369917 144.398297 
L 388.649256 139.856989 
L 391.928595 136.03575 
L 395.207934 133.031677 
L 398.487273 130.932688 
" style="fill:none;stroke:#0000ff;stroke-dasharray:5.55,2.4;stroke-dashoffset:0;stroke-width:1.5;"/>
   </g>
   <g id="line2d_32">
    <path clip-path="url(#p711cad84f3)" d="M 73.832727 171.782367 
L 77.112066 175.82744 
L 80.391405 179.79233 
L 83.670744 183.601231 
L 86.950083 187.188492 
L 90.229421 190.499361 
L 93.50876 193.490436 
L 96.788099 196.129827 
L 100.067438 198.397034 
L 103.346777 200.282556 
L 106.626116 201.787261 
L 109.905455 202.921541 
L 113.184793 203.704278 
L 116.464132 204.161658 
L 119.743471 204.325873 
L 123.02281 204.233739 
L 126.302149 203.925287 
L 129.581488 203.442339 
L 132.860826 202.827128 
L 136.140165 202.120989 
L 139.419504 201.363149 
L 142.698843 200.589646 
L 145.978182 199.832414 
L 149.257521 199.11853 
L 152.53686 198.469658 
L 155.816198 197.901692 
L 159.095537 197.424601 
L 162.374876 197.042475 
L 165.654215 196.753766 
L 168.933554 196.551717 
L 172.212893 196.424951 
L 175.492231 196.358208 
L 178.77157 196.333209 
L 182.050909 196.329608 
L 185.330248 196.326006 
L 188.609587 196.301008 
L 191.888926 196.234265 
L 195.168264 196.107498 
L 198.447603 195.905449 
L 201.726942 195.616741 
L 205.006281 195.234614 
L 208.28562 194.757524 
L 211.564959 194.189558 
L 214.844298 193.540686 
L 218.123636 192.826801 
L 221.402975 192.069569 
L 224.682314 191.296067 
L 227.961653 190.538226 
L 231.240992 189.832087 
L 234.520331 189.216877 
L 237.799669 188.733929 
L 241.079008 188.425476 
L 244.358347 188.333343 
L 247.637686 188.497557 
L 250.917025 188.954937 
L 254.196364 189.737674 
L 257.475702 190.871955 
L 260.755041 192.37666 
L 264.03438 194.262181 
L 267.313719 196.529388 
L 270.593058 199.16878 
L 273.872397 202.159855 
L 277.151736 205.470723 
L 280.431074 209.057984 
L 283.710413 212.866885 
L 286.989752 216.831775 
L 290.269091 220.876848 
L 293.54843 224.917192 
L 296.827769 228.860107 
L 300.107107 232.606707 
L 303.386446 236.053756 
L 306.665785 239.095722 
L 309.945124 241.627016 
L 313.224463 243.544362 
L 316.503802 244.749264 
L 319.78314 245.15052 
L 323.062479 244.666715 
L 326.341818 243.22866 
L 329.621157 240.781708 
L 332.900496 237.287886 
L 336.179835 232.727807 
L 339.459174 227.102295 
L 342.738512 220.433676 
L 346.017851 212.766702 
L 349.29719 204.16906 
L 352.576529 194.731443 
L 355.855868 184.567157 
L 359.135207 173.811244 
L 362.414545 162.619138 
L 365.693884 151.164822 
L 368.973223 139.63854 
L 372.252562 128.244057 
L 375.531901 117.19552 
L 378.81124 106.713949 
L 382.090579 97.023426 
L 385.369917 88.347026 
L 388.649256 80.902565 
L 391.928595 74.898243 
L 395.207934 70.528251 
L 398.487273 67.968429 
" style="fill:none;stroke:#ffa500;stroke-dasharray:5.55,2.4;stroke-dashoffset:0;stroke-width:1.5;"/>
   </g>
   <g id="patch_3">
    <path d="M 57.6 307.584 
L 57.6 41.472 
" style="fill:none;stroke:#000000;stroke-linecap:square;stroke-linejoin:miter;stroke-width:0.8;"/>
   </g>
   <g id="patch_4">
    <path d="M 414.72 307.584 
L 414.72 41.472 
" style="fill:none;stroke:#000000;stroke-linecap:square;stroke-linejoin:miter;stroke-width:0.8;"/>
   </g>
   <g id="patch_5">
    <path d="M 57.6 307.584 
L 414.72 307.584 
" style="fill:none;stroke:#000000;stroke-linecap:square;stroke-linejoin:miter;stroke-width:0.8;"/>
   </g>
   <g id="patch_6">
    <path d="M 57.6 41.472 
L 414.72 41.472 
" style="fill:none;stroke:#000000;stroke-linecap:square;stroke-linejoin:miter;stroke-width:0.8;"/>
   </g>
   <g id="legend_1">
    <g id="patch_7">
     <path d="M 64.6 108.1845 
L 239.15625 108.1845 
Q 241.15625 108.1845 241.15625 106.1845 
L 241.15625 48.472 
Q 241.15625 46.472 239.15625 46.472 
L 64.6 46.472 
Q 62.6 46.472 62.6 48.472 
L 62.6 106.1845 
Q 62.6 108.1845 64.6 108.1845 
z
" style="fill:#ffffff;opacity:0.8;stroke:#cccccc;stroke-linejoin:miter;"/>
    </g>
    <g id="line2d_33">
     <path d="M 66.6 54.570438 
L 86.6 54.570438 
" style="fill:none;stroke:#0000ff;stroke-linecap:square;stroke-width:1.5;"/>
    </g>
    <g id="line2d_34"/>
    <g id="text_13">
     <!-- MF cheap GPR (regular GPR) -->
     <g transform="translate(94.6 58.070438)scale(0.1 -0.1)">
      <defs>
       <path d="M 9.8125 72.90625 
L 24.515625 72.90625 
L 43.109375 23.296875 
L 61.8125 72.90625 
L 76.515625 72.90625 
L 76.515625 0 
L 66.890625 0 
L 66.890625 64.015625 
L 48.09375 14.015625 
L 38.1875 14.015625 
L 19.390625 64.015625 
L 19.390625 0 
L 9.8125 0 
z
" id="DejaVuSans-77"/>
       <path d="M 9.8125 72.90625 
L 51.703125 72.90625 
L 51.703125 64.59375 
L 19.671875 64.59375 
L 19.671875 43.109375 
L 48.578125 43.109375 
L 48.578125 34.8125 
L 19.671875 34.8125 
L 19.671875 0 
L 9.8125 0 
z
" id="DejaVuSans-70"/>
       <path id="DejaVuSans-32"/>
       <path d="M 48.78125 52.59375 
L 48.78125 44.1875 
Q 44.96875 46.296875 41.140625 47.34375 
Q 37.3125 48.390625 33.40625 48.390625 
Q 24.65625 48.390625 19.8125 42.84375 
Q 14.984375 37.3125 14.984375 27.296875 
Q 14.984375 17.28125 19.8125 11.734375 
Q 24.65625 6.203125 33.40625 6.203125 
Q 37.3125 6.203125 41.140625 7.25 
Q 44.96875 8.296875 48.78125 10.40625 
L 48.78125 2.09375 
Q 45.015625 0.34375 40.984375 -0.53125 
Q 36.96875 -1.421875 32.421875 -1.421875 
Q 20.0625 -1.421875 12.78125 6.34375 
Q 5.515625 14.109375 5.515625 27.296875 
Q 5.515625 40.671875 12.859375 48.328125 
Q 20.21875 56 33.015625 56 
Q 37.15625 56 41.109375 55.140625 
Q 45.0625 54.296875 48.78125 52.59375 
z
" id="DejaVuSans-99"/>
       <path d="M 54.890625 33.015625 
L 54.890625 0 
L 45.90625 0 
L 45.90625 32.71875 
Q 45.90625 40.484375 42.875 44.328125 
Q 39.84375 48.1875 33.796875 48.1875 
Q 26.515625 48.1875 22.3125 43.546875 
Q 18.109375 38.921875 18.109375 30.90625 
L 18.109375 0 
L 9.078125 0 
L 9.078125 75.984375 
L 18.109375 75.984375 
L 18.109375 46.1875 
Q 21.34375 51.125 25.703125 53.5625 
Q 30.078125 56 35.796875 56 
Q 45.21875 56 50.046875 50.171875 
Q 54.890625 44.34375 54.890625 33.015625 
z
" id="DejaVuSans-104"/>
       <path d="M 56.203125 29.59375 
L 56.203125 25.203125 
L 14.890625 25.203125 
Q 15.484375 15.921875 20.484375 11.0625 
Q 25.484375 6.203125 34.421875 6.203125 
Q 39.59375 6.203125 44.453125 7.46875 
Q 49.3125 8.734375 54.109375 11.28125 
L 54.109375 2.78125 
Q 49.265625 0.734375 44.1875 -0.34375 
Q 39.109375 -1.421875 33.890625 -1.421875 
Q 20.796875 -1.421875 13.15625 6.1875 
Q 5.515625 13.8125 5.515625 26.8125 
Q 5.515625 40.234375 12.765625 48.109375 
Q 20.015625 56 32.328125 56 
Q 43.359375 56 49.78125 48.890625 
Q 56.203125 41.796875 56.203125 29.59375 
z
M 47.21875 32.234375 
Q 47.125 39.59375 43.09375 43.984375 
Q 39.0625 48.390625 32.421875 48.390625 
Q 24.90625 48.390625 20.390625 44.140625 
Q 15.875 39.890625 15.1875 32.171875 
z
" id="DejaVuSans-101"/>
       <path d="M 34.28125 27.484375 
Q 23.390625 27.484375 19.1875 25 
Q 14.984375 22.515625 14.984375 16.5 
Q 14.984375 11.71875 18.140625 8.90625 
Q 21.296875 6.109375 26.703125 6.109375 
Q 34.1875 6.109375 38.703125 11.40625 
Q 43.21875 16.703125 43.21875 25.484375 
L 43.21875 27.484375 
z
M 52.203125 31.203125 
L 52.203125 0 
L 43.21875 0 
L 43.21875 8.296875 
Q 40.140625 3.328125 35.546875 0.953125 
Q 30.953125 -1.421875 24.3125 -1.421875 
Q 15.921875 -1.421875 10.953125 3.296875 
Q 6 8.015625 6 15.921875 
Q 6 25.140625 12.171875 29.828125 
Q 18.359375 34.515625 30.609375 34.515625 
L 43.21875 34.515625 
L 43.21875 35.40625 
Q 43.21875 41.609375 39.140625 45 
Q 35.0625 48.390625 27.6875 48.390625 
Q 23 48.390625 18.546875 47.265625 
Q 14.109375 46.140625 10.015625 43.890625 
L 10.015625 52.203125 
Q 14.9375 54.109375 19.578125 55.046875 
Q 24.21875 56 28.609375 56 
Q 40.484375 56 46.34375 49.84375 
Q 52.203125 43.703125 52.203125 31.203125 
z
" id="DejaVuSans-97"/>
       <path d="M 18.109375 8.203125 
L 18.109375 -20.796875 
L 9.078125 -20.796875 
L 9.078125 54.6875 
L 18.109375 54.6875 
L 18.109375 46.390625 
Q 20.953125 51.265625 25.265625 53.625 
Q 29.59375 56 35.59375 56 
Q 45.5625 56 51.78125 48.09375 
Q 58.015625 40.1875 58.015625 27.296875 
Q 58.015625 14.40625 51.78125 6.484375 
Q 45.5625 -1.421875 35.59375 -1.421875 
Q 29.59375 -1.421875 25.265625 0.953125 
Q 20.953125 3.328125 18.109375 8.203125 
z
M 48.6875 27.296875 
Q 48.6875 37.203125 44.609375 42.84375 
Q 40.53125 48.484375 33.40625 48.484375 
Q 26.265625 48.484375 22.1875 42.84375 
Q 18.109375 37.203125 18.109375 27.296875 
Q 18.109375 17.390625 22.1875 11.75 
Q 26.265625 6.109375 33.40625 6.109375 
Q 40.53125 6.109375 44.609375 11.75 
Q 48.6875 17.390625 48.6875 27.296875 
z
" id="DejaVuSans-112"/>
       <path d="M 59.515625 10.40625 
L 59.515625 29.984375 
L 43.40625 29.984375 
L 43.40625 38.09375 
L 69.28125 38.09375 
L 69.28125 6.78125 
Q 63.578125 2.734375 56.6875 0.65625 
Q 49.8125 -1.421875 42 -1.421875 
Q 24.90625 -1.421875 15.25 8.5625 
Q 5.609375 18.5625 5.609375 36.375 
Q 5.609375 54.25 15.25 64.234375 
Q 24.90625 74.21875 42 74.21875 
Q 49.125 74.21875 55.546875 72.453125 
Q 61.96875 70.703125 67.390625 67.28125 
L 67.390625 56.78125 
Q 61.921875 61.421875 55.765625 63.765625 
Q 49.609375 66.109375 42.828125 66.109375 
Q 29.4375 66.109375 22.71875 58.640625 
Q 16.015625 51.171875 16.015625 36.375 
Q 16.015625 21.625 22.71875 14.15625 
Q 29.4375 6.6875 42.828125 6.6875 
Q 48.046875 6.6875 52.140625 7.59375 
Q 56.25 8.5 59.515625 10.40625 
z
" id="DejaVuSans-71"/>
       <path d="M 19.671875 64.796875 
L 19.671875 37.40625 
L 32.078125 37.40625 
Q 38.96875 37.40625 42.71875 40.96875 
Q 46.484375 44.53125 46.484375 51.125 
Q 46.484375 57.671875 42.71875 61.234375 
Q 38.96875 64.796875 32.078125 64.796875 
z
M 9.8125 72.90625 
L 32.078125 72.90625 
Q 44.34375 72.90625 50.609375 67.359375 
Q 56.890625 61.8125 56.890625 51.125 
Q 56.890625 40.328125 50.609375 34.8125 
Q 44.34375 29.296875 32.078125 29.296875 
L 19.671875 29.296875 
L 19.671875 0 
L 9.8125 0 
z
" id="DejaVuSans-80"/>
       <path d="M 44.390625 34.1875 
Q 47.5625 33.109375 50.5625 29.59375 
Q 53.5625 26.078125 56.59375 19.921875 
L 66.609375 0 
L 56 0 
L 46.6875 18.703125 
Q 43.0625 26.03125 39.671875 28.421875 
Q 36.28125 30.8125 30.421875 30.8125 
L 19.671875 30.8125 
L 19.671875 0 
L 9.8125 0 
L 9.8125 72.90625 
L 32.078125 72.90625 
Q 44.578125 72.90625 50.734375 67.671875 
Q 56.890625 62.453125 56.890625 51.90625 
Q 56.890625 45.015625 53.6875 40.46875 
Q 50.484375 35.9375 44.390625 34.1875 
z
M 19.671875 64.796875 
L 19.671875 38.921875 
L 32.078125 38.921875 
Q 39.203125 38.921875 42.84375 42.21875 
Q 46.484375 45.515625 46.484375 51.90625 
Q 46.484375 58.296875 42.84375 61.546875 
Q 39.203125 64.796875 32.078125 64.796875 
z
" id="DejaVuSans-82"/>
       <path d="M 31 75.875 
Q 24.46875 64.65625 21.28125 53.65625 
Q 18.109375 42.671875 18.109375 31.390625 
Q 18.109375 20.125 21.3125 9.0625 
Q 24.515625 -2 31 -13.1875 
L 23.1875 -13.1875 
Q 15.875 -1.703125 12.234375 9.375 
Q 8.59375 20.453125 8.59375 31.390625 
Q 8.59375 42.28125 12.203125 53.3125 
Q 15.828125 64.359375 23.1875 75.875 
z
" id="DejaVuSans-40"/>
       <path d="M 41.109375 46.296875 
Q 39.59375 47.171875 37.8125 47.578125 
Q 36.03125 48 33.890625 48 
Q 26.265625 48 22.1875 43.046875 
Q 18.109375 38.09375 18.109375 28.8125 
L 18.109375 0 
L 9.078125 0 
L 9.078125 54.6875 
L 18.109375 54.6875 
L 18.109375 46.1875 
Q 20.953125 51.171875 25.484375 53.578125 
Q 30.03125 56 36.53125 56 
Q 37.453125 56 38.578125 55.875 
Q 39.703125 55.765625 41.0625 55.515625 
z
" id="DejaVuSans-114"/>
       <path d="M 45.40625 27.984375 
Q 45.40625 37.75 41.375 43.109375 
Q 37.359375 48.484375 30.078125 48.484375 
Q 22.859375 48.484375 18.828125 43.109375 
Q 14.796875 37.75 14.796875 27.984375 
Q 14.796875 18.265625 18.828125 12.890625 
Q 22.859375 7.515625 30.078125 7.515625 
Q 37.359375 7.515625 41.375 12.890625 
Q 45.40625 18.265625 45.40625 27.984375 
z
M 54.390625 6.78125 
Q 54.390625 -7.171875 48.1875 -13.984375 
Q 42 -20.796875 29.203125 -20.796875 
Q 24.46875 -20.796875 20.265625 -20.09375 
Q 16.0625 -19.390625 12.109375 -17.921875 
L 12.109375 -9.1875 
Q 16.0625 -11.328125 19.921875 -12.34375 
Q 23.78125 -13.375 27.78125 -13.375 
Q 36.625 -13.375 41.015625 -8.765625 
Q 45.40625 -4.15625 45.40625 5.171875 
L 45.40625 9.625 
Q 42.625 4.78125 38.28125 2.390625 
Q 33.9375 0 27.875 0 
Q 17.828125 0 11.671875 7.65625 
Q 5.515625 15.328125 5.515625 27.984375 
Q 5.515625 40.671875 11.671875 48.328125 
Q 17.828125 56 27.875 56 
Q 33.9375 56 38.28125 53.609375 
Q 42.625 51.21875 45.40625 46.390625 
L 45.40625 54.6875 
L 54.390625 54.6875 
z
" id="DejaVuSans-103"/>
       <path d="M 8.5 21.578125 
L 8.5 54.6875 
L 17.484375 54.6875 
L 17.484375 21.921875 
Q 17.484375 14.15625 20.5 10.265625 
Q 23.53125 6.390625 29.59375 6.390625 
Q 36.859375 6.390625 41.078125 11.03125 
Q 45.3125 15.671875 45.3125 23.6875 
L 45.3125 54.6875 
L 54.296875 54.6875 
L 54.296875 0 
L 45.3125 0 
L 45.3125 8.40625 
Q 42.046875 3.421875 37.71875 1 
Q 33.40625 -1.421875 27.6875 -1.421875 
Q 18.265625 -1.421875 13.375 4.4375 
Q 8.5 10.296875 8.5 21.578125 
z
M 31.109375 56 
z
" id="DejaVuSans-117"/>
       <path d="M 9.421875 75.984375 
L 18.40625 75.984375 
L 18.40625 0 
L 9.421875 0 
z
" id="DejaVuSans-108"/>
       <path d="M 8.015625 75.875 
L 15.828125 75.875 
Q 23.140625 64.359375 26.78125 53.3125 
Q 30.421875 42.28125 30.421875 31.390625 
Q 30.421875 20.453125 26.78125 9.375 
Q 23.140625 -1.703125 15.828125 -13.1875 
L 8.015625 -13.1875 
Q 14.5 -2 17.703125 9.0625 
Q 20.90625 20.125 20.90625 31.390625 
Q 20.90625 42.671875 17.703125 53.65625 
Q 14.5 64.65625 8.015625 75.875 
z
" id="DejaVuSans-41"/>
      </defs>
      <use xlink:href="#DejaVuSans-77"/>
      <use x="86.279297" xlink:href="#DejaVuSans-70"/>
      <use x="143.798828" xlink:href="#DejaVuSans-32"/>
      <use x="175.585938" xlink:href="#DejaVuSans-99"/>
      <use x="230.566406" xlink:href="#DejaVuSans-104"/>
      <use x="293.945312" xlink:href="#DejaVuSans-101"/>
      <use x="355.46875" xlink:href="#DejaVuSans-97"/>
      <use x="416.748047" xlink:href="#DejaVuSans-112"/>
      <use x="480.224609" xlink:href="#DejaVuSans-32"/>
      <use x="512.011719" xlink:href="#DejaVuSans-71"/>
      <use x="589.501953" xlink:href="#DejaVuSans-80"/>
      <use x="649.804688" xlink:href="#DejaVuSans-82"/>
      <use x="719.287109" xlink:href="#DejaVuSans-32"/>
      <use x="751.074219" xlink:href="#DejaVuSans-40"/>
      <use x="790.087891" xlink:href="#DejaVuSans-114"/>
      <use x="828.951172" xlink:href="#DejaVuSans-101"/>
      <use x="890.474609" xlink:href="#DejaVuSans-103"/>
      <use x="953.951172" xlink:href="#DejaVuSans-117"/>
      <use x="1017.330078" xlink:href="#DejaVuSans-108"/>
      <use x="1045.113281" xlink:href="#DejaVuSans-97"/>
      <use x="1106.392578" xlink:href="#DejaVuSans-114"/>
      <use x="1147.505859" xlink:href="#DejaVuSans-32"/>
      <use x="1179.292969" xlink:href="#DejaVuSans-71"/>
      <use x="1256.783203" xlink:href="#DejaVuSans-80"/>
      <use x="1317.085938" xlink:href="#DejaVuSans-82"/>
      <use x="1386.568359" xlink:href="#DejaVuSans-41"/>
     </g>
    </g>
    <g id="line2d_35">
     <path d="M 66.6 69.248563 
L 86.6 69.248563 
" style="fill:none;stroke:#ffa500;stroke-linecap:square;stroke-width:1.5;"/>
    </g>
    <g id="line2d_36"/>
    <g id="text_14">
     <!-- MF expensive GPR -->
     <g transform="translate(94.6 72.748563)scale(0.1 -0.1)">
      <defs>
       <path d="M 54.890625 54.6875 
L 35.109375 28.078125 
L 55.90625 0 
L 45.3125 0 
L 29.390625 21.484375 
L 13.484375 0 
L 2.875 0 
L 24.125 28.609375 
L 4.6875 54.6875 
L 15.28125 54.6875 
L 29.78125 35.203125 
L 44.28125 54.6875 
z
" id="DejaVuSans-120"/>
       <path d="M 54.890625 33.015625 
L 54.890625 0 
L 45.90625 0 
L 45.90625 32.71875 
Q 45.90625 40.484375 42.875 44.328125 
Q 39.84375 48.1875 33.796875 48.1875 
Q 26.515625 48.1875 22.3125 43.546875 
Q 18.109375 38.921875 18.109375 30.90625 
L 18.109375 0 
L 9.078125 0 
L 9.078125 54.6875 
L 18.109375 54.6875 
L 18.109375 46.1875 
Q 21.34375 51.125 25.703125 53.5625 
Q 30.078125 56 35.796875 56 
Q 45.21875 56 50.046875 50.171875 
Q 54.890625 44.34375 54.890625 33.015625 
z
" id="DejaVuSans-110"/>
       <path d="M 44.28125 53.078125 
L 44.28125 44.578125 
Q 40.484375 46.53125 36.375 47.5 
Q 32.28125 48.484375 27.875 48.484375 
Q 21.1875 48.484375 17.84375 46.4375 
Q 14.5 44.390625 14.5 40.28125 
Q 14.5 37.15625 16.890625 35.375 
Q 19.28125 33.59375 26.515625 31.984375 
L 29.59375 31.296875 
Q 39.15625 29.25 43.1875 25.515625 
Q 47.21875 21.78125 47.21875 15.09375 
Q 47.21875 7.46875 41.1875 3.015625 
Q 35.15625 -1.421875 24.609375 -1.421875 
Q 20.21875 -1.421875 15.453125 -0.5625 
Q 10.6875 0.296875 5.421875 2 
L 5.421875 11.28125 
Q 10.40625 8.6875 15.234375 7.390625 
Q 20.0625 6.109375 24.8125 6.109375 
Q 31.15625 6.109375 34.5625 8.28125 
Q 37.984375 10.453125 37.984375 14.40625 
Q 37.984375 18.0625 35.515625 20.015625 
Q 33.0625 21.96875 24.703125 23.78125 
L 21.578125 24.515625 
Q 13.234375 26.265625 9.515625 29.90625 
Q 5.8125 33.546875 5.8125 39.890625 
Q 5.8125 47.609375 11.28125 51.796875 
Q 16.75 56 26.8125 56 
Q 31.78125 56 36.171875 55.265625 
Q 40.578125 54.546875 44.28125 53.078125 
z
" id="DejaVuSans-115"/>
       <path d="M 9.421875 54.6875 
L 18.40625 54.6875 
L 18.40625 0 
L 9.421875 0 
z
M 9.421875 75.984375 
L 18.40625 75.984375 
L 18.40625 64.59375 
L 9.421875 64.59375 
z
" id="DejaVuSans-105"/>
       <path d="M 2.984375 54.6875 
L 12.5 54.6875 
L 29.59375 8.796875 
L 46.6875 54.6875 
L 56.203125 54.6875 
L 35.6875 0 
L 23.484375 0 
z
" id="DejaVuSans-118"/>
      </defs>
      <use xlink:href="#DejaVuSans-77"/>
      <use x="86.279297" xlink:href="#DejaVuSans-70"/>
      <use x="143.798828" xlink:href="#DejaVuSans-32"/>
      <use x="175.585938" xlink:href="#DejaVuSans-101"/>
      <use x="235.359375" xlink:href="#DejaVuSans-120"/>
      <use x="294.539062" xlink:href="#DejaVuSans-112"/>
      <use x="358.015625" xlink:href="#DejaVuSans-101"/>
      <use x="419.539062" xlink:href="#DejaVuSans-110"/>
      <use x="482.917969" xlink:href="#DejaVuSans-115"/>
      <use x="535.017578" xlink:href="#DejaVuSans-105"/>
      <use x="562.800781" xlink:href="#DejaVuSans-118"/>
      <use x="621.980469" xlink:href="#DejaVuSans-101"/>
      <use x="683.503906" xlink:href="#DejaVuSans-32"/>
      <use x="715.291016" xlink:href="#DejaVuSans-71"/>
      <use x="792.78125" xlink:href="#DejaVuSans-80"/>
      <use x="853.083984" xlink:href="#DejaVuSans-82"/>
     </g>
    </g>
    <g id="line2d_37">
     <path d="M 66.6 83.926688 
L 86.6 83.926688 
" style="fill:none;stroke:#0000ff;stroke-dasharray:5.55,2.4;stroke-dashoffset:0;stroke-width:1.5;"/>
    </g>
    <g id="line2d_38"/>
    <g id="text_15">
     <!-- Exact cheap function -->
     <g transform="translate(94.6 87.426688)scale(0.1 -0.1)">
      <defs>
       <path d="M 9.8125 72.90625 
L 55.90625 72.90625 
L 55.90625 64.59375 
L 19.671875 64.59375 
L 19.671875 43.015625 
L 54.390625 43.015625 
L 54.390625 34.71875 
L 19.671875 34.71875 
L 19.671875 8.296875 
L 56.78125 8.296875 
L 56.78125 0 
L 9.8125 0 
z
" id="DejaVuSans-69"/>
       <path d="M 18.3125 70.21875 
L 18.3125 54.6875 
L 36.8125 54.6875 
L 36.8125 47.703125 
L 18.3125 47.703125 
L 18.3125 18.015625 
Q 18.3125 11.328125 20.140625 9.421875 
Q 21.96875 7.515625 27.59375 7.515625 
L 36.8125 7.515625 
L 36.8125 0 
L 27.59375 0 
Q 17.1875 0 13.234375 3.875 
Q 9.28125 7.765625 9.28125 18.015625 
L 9.28125 47.703125 
L 2.6875 47.703125 
L 2.6875 54.6875 
L 9.28125 54.6875 
L 9.28125 70.21875 
z
" id="DejaVuSans-116"/>
       <path d="M 37.109375 75.984375 
L 37.109375 68.5 
L 28.515625 68.5 
Q 23.6875 68.5 21.796875 66.546875 
Q 19.921875 64.59375 19.921875 59.515625 
L 19.921875 54.6875 
L 34.71875 54.6875 
L 34.71875 47.703125 
L 19.921875 47.703125 
L 19.921875 0 
L 10.890625 0 
L 10.890625 47.703125 
L 2.296875 47.703125 
L 2.296875 54.6875 
L 10.890625 54.6875 
L 10.890625 58.5 
Q 10.890625 67.625 15.140625 71.796875 
Q 19.390625 75.984375 28.609375 75.984375 
z
" id="DejaVuSans-102"/>
       <path d="M 30.609375 48.390625 
Q 23.390625 48.390625 19.1875 42.75 
Q 14.984375 37.109375 14.984375 27.296875 
Q 14.984375 17.484375 19.15625 11.84375 
Q 23.34375 6.203125 30.609375 6.203125 
Q 37.796875 6.203125 41.984375 11.859375 
Q 46.1875 17.53125 46.1875 27.296875 
Q 46.1875 37.015625 41.984375 42.703125 
Q 37.796875 48.390625 30.609375 48.390625 
z
M 30.609375 56 
Q 42.328125 56 49.015625 48.375 
Q 55.71875 40.765625 55.71875 27.296875 
Q 55.71875 13.875 49.015625 6.21875 
Q 42.328125 -1.421875 30.609375 -1.421875 
Q 18.84375 -1.421875 12.171875 6.21875 
Q 5.515625 13.875 5.515625 27.296875 
Q 5.515625 40.765625 12.171875 48.375 
Q 18.84375 56 30.609375 56 
z
" id="DejaVuSans-111"/>
      </defs>
      <use xlink:href="#DejaVuSans-69"/>
      <use x="63.183594" xlink:href="#DejaVuSans-120"/>
      <use x="122.363281" xlink:href="#DejaVuSans-97"/>
      <use x="183.642578" xlink:href="#DejaVuSans-99"/>
      <use x="238.623047" xlink:href="#DejaVuSans-116"/>
      <use x="277.832031" xlink:href="#DejaVuSans-32"/>
      <use x="309.619141" xlink:href="#DejaVuSans-99"/>
      <use x="364.599609" xlink:href="#DejaVuSans-104"/>
      <use x="427.978516" xlink:href="#DejaVuSans-101"/>
      <use x="489.501953" xlink:href="#DejaVuSans-97"/>
      <use x="550.78125" xlink:href="#DejaVuSans-112"/>
      <use x="614.257812" xlink:href="#DejaVuSans-32"/>
      <use x="646.044922" xlink:href="#DejaVuSans-102"/>
      <use x="681.25" xlink:href="#DejaVuSans-117"/>
      <use x="744.628906" xlink:href="#DejaVuSans-110"/>
      <use x="808.007812" xlink:href="#DejaVuSans-99"/>
      <use x="862.988281" xlink:href="#DejaVuSans-116"/>
      <use x="902.197266" xlink:href="#DejaVuSans-105"/>
      <use x="929.980469" xlink:href="#DejaVuSans-111"/>
      <use x="991.162109" xlink:href="#DejaVuSans-110"/>
     </g>
    </g>
    <g id="line2d_39">
     <path d="M 66.6 98.604813 
L 86.6 98.604813 
" style="fill:none;stroke:#ffa500;stroke-dasharray:5.55,2.4;stroke-dashoffset:0;stroke-width:1.5;"/>
    </g>
    <g id="line2d_40"/>
    <g id="text_16">
     <!-- Exact expensive function -->
     <g transform="translate(94.6 102.104813)scale(0.1 -0.1)">
      <use xlink:href="#DejaVuSans-69"/>
      <use x="63.183594" xlink:href="#DejaVuSans-120"/>
      <use x="122.363281" xlink:href="#DejaVuSans-97"/>
      <use x="183.642578" xlink:href="#DejaVuSans-99"/>
      <use x="238.623047" xlink:href="#DejaVuSans-116"/>
      <use x="277.832031" xlink:href="#DejaVuSans-32"/>
      <use x="309.619141" xlink:href="#DejaVuSans-101"/>
      <use x="369.392578" xlink:href="#DejaVuSans-120"/>
      <use x="428.572266" xlink:href="#DejaVuSans-112"/>
      <use x="492.048828" xlink:href="#DejaVuSans-101"/>
      <use x="553.572266" xlink:href="#DejaVuSans-110"/>
      <use x="616.951172" xlink:href="#DejaVuSans-115"/>
      <use x="669.050781" xlink:href="#DejaVuSans-105"/>
      <use x="696.833984" xlink:href="#DejaVuSans-118"/>
      <use x="756.013672" xlink:href="#DejaVuSans-101"/>
      <use x="817.537109" xlink:href="#DejaVuSans-32"/>
      <use x="849.324219" xlink:href="#DejaVuSans-102"/>
      <use x="884.529297" xlink:href="#DejaVuSans-117"/>
      <use x="947.908203" xlink:href="#DejaVuSans-110"/>
      <use x="1011.287109" xlink:href="#DejaVuSans-99"/>
      <use x="1066.267578" xlink:href="#DejaVuSans-116"/>
      <use x="1105.476562" xlink:href="#DejaVuSans-105"/>
      <use x="1133.259766" xlink:href="#DejaVuSans-111"/>
      <use x="1194.441406" xlink:href="#DejaVuSans-110"/>
     </g>
    </g>
   </g>
  </g>
 </g>
 <defs>
  <clipPath id="p711cad84f3">
   <rect height="266.112" width="357.12" x="57.6" y="41.472"/>
  </clipPath>
 </defs>
</svg>
