<?xml version="1.0" encoding="utf-8" standalone="no"?>
<!DOCTYPE svg PUBLIC "-//W3C//DTD SVG 1.1//EN"
  "http://www.w3.org/Graphics/SVG/1.1/DTD/svg11.dtd">
<!-- Created with matplotlib (https://matplotlib.org/) -->
<svg height="345.6pt" version="1.1" viewBox="0 0 460.8 345.6" width="460.8pt" xmlns="http://www.w3.org/2000/svg" xmlns:xlink="http://www.w3.org/1999/xlink">
 <metadata>
  <rdf:RDF xmlns:cc="http://creativecommons.org/ns#" xmlns:dc="http://purl.org/dc/elements/1.1/" xmlns:rdf="http://www.w3.org/1999/02/22-rdf-syntax-ns#">
   <cc:Work>
    <dc:type rdf:resource="http://purl.org/dc/dcmitype/StillImage"/>
    <dc:date>2020-11-24T13:55:32.931875</dc:date>
    <dc:format>image/svg+xml</dc:format>
    <dc:creator>
     <cc:Agent>
      <dc:title>Matplotlib v3.3.1, https://matplotlib.org/</dc:title>
     </cc:Agent>
    </dc:creator>
   </cc:Work>
  </rdf:RDF>
 </metadata>
 <defs>
  <style type="text/css">*{stroke-linecap:butt;stroke-linejoin:round;}</style>
 </defs>
 <g id="figure_1">
  <g id="patch_1">
   <path d="M 0 345.6 
L 460.8 345.6 
L 460.8 0 
L 0 0 
z
" style="fill:#ffffff;"/>
  </g>
  <g id="axes_1">
   <g id="patch_2">
    <path d="M 57.6 307.584 
L 414.72 307.584 
L 414.72 41.472 
L 57.6 41.472 
z
" style="fill:#ffffff;"/>
   </g>
   <g id="PolyCollection_1">
    <defs>
     <path d="M 73.832727 -112.271847 
L 73.832727 -51.820713 
L 77.112066 -52.530262 
L 80.391405 -52.687433 
L 83.670744 -52.466829 
L 86.950083 -52.022599 
L 90.229421 -51.484995 
L 93.50876 -50.958571 
L 96.788099 -50.521991 
L 100.067438 -50.229238 
L 103.346777 -50.112 
L 106.626116 -50.182909 
L 109.905455 -50.43931 
L 113.184793 -50.86723 
L 116.464132 -51.445237 
L 119.743471 -52.147956 
L 123.02281 -52.949045 
L 126.302149 -53.823515 
L 129.581488 -54.749363 
L 132.860826 -55.708528 
L 136.140165 -56.687258 
L 139.419504 -57.675978 
L 142.698843 -58.668824 
L 145.978182 -59.662951 
L 149.257521 -60.657764 
L 152.53686 -61.654164 
L 155.816198 -62.653902 
L 159.095537 -63.659073 
L 162.374876 -64.67178 
L 165.654215 -65.693951 
L 168.933554 -66.727283 
L 172.212893 -67.773266 
L 175.492231 -68.833249 
L 178.77157 -69.908499 
L 182.050909 -71.00021 
L 185.330248 -72.109458 
L 188.609587 -73.237073 
L 191.888926 -74.383441 
L 195.168264 -75.548254 
L 198.447603 -76.730227 
L 201.726942 -77.92681 
L 205.006281 -79.133941 
L 208.28562 -80.345846 
L 211.564959 -81.554931 
L 214.844298 -82.75177 
L 218.123636 -83.925197 
L 221.402975 -85.06251 
L 224.682314 -86.149774 
L 227.961653 -87.172206 
L 231.240992 -88.114624 
L 234.520331 -88.961949 
L 237.799669 -89.699719 
L 241.079008 -90.314611 
L 244.358347 -90.794946 
L 247.637686 -91.131157 
L 250.917025 -91.316226 
L 254.196364 -91.346063 
L 257.475702 -91.219832 
L 260.755041 -90.940235 
L 264.03438 -90.513727 
L 267.313719 -89.950684 
L 270.593058 -89.265511 
L 273.872397 -88.476681 
L 277.151736 -87.606704 
L 280.431074 -86.681999 
L 283.710413 -85.732668 
L 286.989752 -84.792144 
L 290.269091 -83.896703 
L 293.54843 -83.084834 
L 296.827769 -82.396451 
L 300.107107 -81.87198 
L 303.386446 -81.551319 
L 306.665785 -81.472732 
L 309.945124 -81.671712 
L 313.224463 -82.179885 
L 316.503802 -83.024027 
L 319.78314 -84.225255 
L 323.062479 -85.798476 
L 326.341818 -87.752112 
L 329.621157 -90.088163 
L 332.900496 -92.802563 
L 336.179835 -95.885824 
L 339.459174 -99.323866 
L 342.738512 -103.098932 
L 346.017851 -107.190465 
L 349.29719 -111.575773 
L 352.576529 -116.230365 
L 355.855868 -121.1278 
L 359.135207 -126.238972 
L 362.414545 -131.530782 
L 365.693884 -136.964211 
L 368.973223 -142.491891 
L 372.252562 -148.055325 
L 375.531901 -153.581992 
L 378.81124 -158.982609 
L 382.090579 -164.148851 
L 385.369917 -168.951857 
L 388.649256 -173.241796 
L 391.928595 -176.848741 
L 395.207934 -179.585008 
L 398.487273 -181.249025 
L 398.487273 -241.700159 
L 398.487273 -241.700159 
L 395.207934 -236.073413 
L 391.928595 -230.782803 
L 388.649256 -225.689706 
L 385.369917 -220.679056 
L 382.090579 -215.662281 
L 378.81124 -210.57854 
L 375.531901 -205.394307 
L 372.252562 -200.101505 
L 368.973223 -194.714444 
L 365.693884 -189.265888 
L 362.414545 -183.802601 
L 359.135207 -178.380704 
L 355.855868 -173.061172 
L 352.576529 -167.905722 
L 349.29719 -162.973295 
L 346.017851 -158.31726 
L 342.738512 -153.983387 
L 339.459174 -150.008578 
L 336.179835 -146.420288 
L 332.900496 -143.236519 
L 329.621157 -140.466266 
L 326.341818 -138.110271 
L 323.062479 -136.161943 
L 319.78314 -134.608357 
L 316.503802 -133.431211 
L 313.224463 -132.607718 
L 309.945124 -132.11138 
L 306.665785 -131.912658 
L 303.386446 -131.979545 
L 300.107107 -132.278077 
L 296.827769 -132.772812 
L 293.54843 -133.427316 
L 290.269091 -134.204669 
L 286.989752 -135.068013 
L 283.710413 -135.981147 
L 280.431074 -136.909144 
L 277.151736 -137.818982 
L 273.872397 -138.680159 
L 270.593058 -139.465257 
L 267.313719 -140.150425 
L 264.03438 -140.71576 
L 260.755041 -141.145557 
L 257.475702 -141.428425 
L 254.196364 -141.557261 
L 250.917025 -141.529093 
L 247.637686 -141.344794 
L 244.358347 -141.008707 
L 241.079008 -140.528192 
L 237.799669 -139.913119 
L 234.520331 -139.175349 
L 231.240992 -138.328204 
L 227.961653 -137.385967 
L 224.682314 -136.363411 
L 221.402975 -135.275376 
L 218.123636 -134.136395 
L 214.844298 -132.960362 
L 211.564959 -131.760253 
L 208.28562 -130.547879 
L 205.006281 -129.333683 
L 201.726942 -128.126557 
L 198.447603 -126.933705 
L 195.168264 -125.760532 
L 191.888926 -124.610585 
L 188.609587 -123.485552 
L 185.330248 -122.385327 
L 182.050909 -121.308175 
L 178.77157 -120.250981 
L 175.492231 -119.20961 
L 172.212893 -118.179363 
L 168.933554 -117.155509 
L 165.654215 -116.133877 
L 162.374876 -115.111448 
L 159.095537 -114.086906 
L 155.816198 -113.061087 
L 152.53686 -112.037266 
L 149.257521 -111.021231 
L 145.978182 -110.021109 
L 142.698843 -109.046927 
L 139.419504 -108.109934 
L 136.140165 -107.221721 
L 132.860826 -106.393241 
L 129.581488 -105.633817 
L 126.302149 -104.95031 
L 123.02281 -104.346567 
L 119.743471 -103.823313 
L 116.464132 -103.378609 
L 113.184793 -103.008962 
L 109.905455 -102.711129 
L 106.626116 -102.484585 
L 103.346777 -102.334553 
L 100.067438 -102.275419 
L 96.788099 -102.334306 
L 93.50876 -102.554503 
L 90.229421 -102.998425 
L 86.950083 -103.749798 
L 83.670744 -104.914739 
L 80.391405 -106.621495 
L 77.112066 -109.018667 
L 73.832727 -112.271847 
z
" id="md6a55b85b4" style="stroke:#0000ff;stroke-opacity:0.2;"/>
    </defs>
    <g clip-path="url(#pd403d980cc)">
     <use style="fill:#0000ff;fill-opacity:0.2;stroke:#0000ff;stroke-opacity:0.2;" x="0" xlink:href="#md6a55b85b4" y="345.6"/>
    </g>
   </g>
   <g id="PolyCollection_2">
    <defs>
     <path d="M 73.832727 -159.835149 
L 73.832727 -92.763318 
L 77.112066 -93.532903 
L 80.391405 -93.721608 
L 83.670744 -93.511842 
L 86.950083 -93.064674 
L 90.229421 -92.516232 
L 93.50876 -91.975828 
L 96.788099 -91.525746 
L 100.067438 -91.222511 
L 103.346777 -91.099379 
L 106.626116 -91.169721 
L 109.905455 -91.430958 
L 113.184793 -91.868701 
L 116.464132 -92.460789 
L 119.743471 -93.18095 
L 123.02281 -94.001909 
L 126.302149 -94.897811 
L 129.581488 -95.845915 
L 132.860826 -96.827594 
L 136.140165 -97.828706 
L 139.419504 -98.839463 
L 142.698843 -99.853924 
L 145.978182 -100.869283 
L 149.257521 -101.885053 
L 152.53686 -102.90228 
L 155.816198 -103.922868 
L 159.095537 -104.949047 
L 162.374876 -105.983031 
L 165.654215 -107.026823 
L 168.933554 -108.08216 
L 172.212893 -109.15055 
L 175.492231 -110.233341 
L 178.77157 -111.331785 
L 182.050909 -112.447065 
L 185.330248 -113.580246 
L 188.609587 -114.73215 
L 191.888926 -115.903157 
L 195.168264 -117.092947 
L 198.447603 -118.300209 
L 201.726942 -119.52235 
L 205.006281 -120.75523 
L 208.28562 -121.992964 
L 211.564959 -123.227803 
L 214.844298 -124.450119 
L 218.123636 -125.648505 
L 221.402975 -126.809978 
L 224.682314 -127.920289 
L 227.961653 -128.964322 
L 231.240992 -129.926551 
L 234.520331 -130.791556 
L 237.799669 -131.544547 
L 241.079008 -132.171905 
L 244.358347 -132.661689 
L 247.637686 -133.004124 
L 250.917025 -133.192037 
L 254.196364 -133.221249 
L 257.475702 -133.090907 
L 260.755041 -132.80377 
L 264.03438 -132.366428 
L 267.313719 -131.789481 
L 270.593058 -131.08764 
L 273.872397 -130.279777 
L 277.151736 -129.38889 
L 280.431074 -128.441977 
L 283.710413 -127.469811 
L 286.989752 -126.506578 
L 290.269091 -125.589384 
L 293.54843 -124.757604 
L 296.827769 -124.052082 
L 300.107107 -123.51419 
L 303.386446 -123.18476 
L 306.665785 -123.102944 
L 309.945124 -123.305048 
L 313.224463 -123.823403 
L 316.503802 -124.685352 
L 319.78314 -125.912425 
L 323.062479 -127.51977 
L 326.341818 -129.515888 
L 329.621157 -131.902695 
L 332.900496 -134.675915 
L 336.179835 -137.825746 
L 339.459174 -141.337733 
L 342.738512 -145.193727 
L 346.017851 -149.372787 
L 349.29719 -153.851877 
L 352.576529 -158.6062 
L 355.855868 -163.609031 
L 359.135207 -168.830955 
L 362.414545 -174.238458 
L 365.693884 -179.7919 
L 368.973223 -185.442949 
L 372.252562 -191.131666 
L 375.531901 -196.783449 
L 378.81124 -202.306157 
L 382.090579 -207.587705 
L 385.369917 -212.494486 
L 388.649256 -216.870901 
L 391.928595 -220.540256 
L 395.207934 -223.307194 
L 398.487273 -224.961734 
L 398.487273 -292.032 
L 398.487273 -292.032 
L 395.207934 -286.235092 
L 391.928595 -280.797976 
L 388.649256 -275.575034 
L 385.369917 -270.44515 
L 382.090579 -265.314811 
L 378.81124 -260.1194 
L 375.531901 -254.822781 
L 372.252562 -249.415362 
L 368.973223 -243.910915 
L 365.693884 -238.342483 
L 362.414545 -232.757743 
L 359.135207 -227.214174 
L 355.855868 -221.774369 
L 352.576529 -216.501753 
L 349.29719 -211.456931 
L 346.017851 -206.694774 
L 342.738512 -202.262323 
L 339.459174 -198.197469 
L 336.179835 -194.528359 
L 332.900496 -191.273403 
L 329.621157 -188.441739 
L 326.341818 -186.034024 
L 323.062479 -184.0434 
L 319.78314 -182.456526 
L 316.503802 -181.254576 
L 313.224463 -180.414163 
L 309.945124 -179.908134 
L 306.665785 -179.706256 
L 303.386446 -179.775802 
L 300.107107 -180.082063 
L 296.827769 -180.588838 
L 293.54843 -181.258913 
L 290.269091 -182.054584 
L 286.989752 -182.938201 
L 283.710413 -183.872778 
L 280.431074 -184.822622 
L 277.151736 -185.753975 
L 273.872397 -186.635649 
L 270.593058 -187.439598 
L 267.313719 -188.141423 
L 264.03438 -188.720757 
L 260.755041 -189.16153 
L 257.475702 -189.452084 
L 254.196364 -189.58515 
L 250.917025 -189.557684 
L 247.637686 -189.370581 
L 244.358347 -189.028284 
L 241.079008 -188.538321 
L 237.799669 -187.910788 
L 234.520331 -187.157813 
L 231.240992 -186.293015 
L 227.961653 -185.330996 
L 224.682314 -184.286857 
L 221.402975 -183.175767 
L 218.123636 -182.01258 
L 214.844298 -180.811501 
L 211.564959 -179.585801 
L 208.28562 -178.347562 
L 205.006281 -177.107472 
L 201.726942 -175.874639 
L 198.447603 -174.656444 
L 195.168264 -173.458427 
L 191.888926 -172.284229 
L 188.609587 -171.135576 
L 185.330248 -170.012359 
L 182.050909 -168.912787 
L 178.77157 -167.833648 
L 175.492231 -166.770681 
L 172.212893 -165.71904 
L 168.933554 -164.673851 
L 165.654215 -163.630815 
L 162.374876 -162.586828 
L 159.095537 -161.54055 
L 155.816198 -160.492866 
L 152.53686 -159.447187 
L 149.257521 -158.409521 
L 145.978182 -157.388289 
L 142.698843 -156.393869 
L 139.419504 -155.437883 
L 136.140165 -154.532284 
L 132.860826 -153.688325 
L 129.581488 -152.915538 
L 126.302149 -152.220858 
L 123.02281 -151.608054 
L 119.743471 -151.077625 
L 116.464132 -150.62728 
L 113.184793 -150.253106 
L 109.905455 -149.95146 
L 106.626116 -149.721553 
L 103.346777 -149.568625 
L 100.067438 -149.507519 
L 96.788099 -149.566421 
L 93.50876 -149.790447 
L 90.229421 -150.244745 
L 86.950083 -151.016776 
L 83.670744 -152.217444 
L 80.391405 -153.980831 
L 77.112066 -156.462334 
L 73.832727 -159.835149 
z
" id="md73883d159" style="stroke:#ffa500;stroke-opacity:0.2;"/>
    </defs>
    <g clip-path="url(#pd403d980cc)">
     <use style="fill:#ffa500;fill-opacity:0.2;stroke:#ffa500;stroke-opacity:0.2;" x="0" xlink:href="#md73883d159" y="345.6"/>
    </g>
   </g>
   <g id="PathCollection_1">
    <defs>
     <path d="M 0 3 
C 0.795609 3 1.55874 2.683901 2.12132 2.12132 
C 2.683901 1.55874 3 0.795609 3 0 
C 3 -0.795609 2.683901 -1.55874 2.12132 -2.12132 
C 1.55874 -2.683901 0.795609 -3 0 -3 
C -0.795609 -3 -1.55874 -2.683901 -2.12132 -2.12132 
C -2.683901 -1.55874 -3 -0.795609 -3 0 
C -3 0.795609 -2.683901 1.55874 -2.12132 2.12132 
C -1.55874 2.683901 -0.795609 3 0 3 
z
" id="m7f46015f55" style="stroke:#0000ff;"/>
    </defs>
    <g clip-path="url(#pd403d980cc)">
     <use style="fill:#0000ff;stroke:#0000ff;" x="73.832727" xlink:href="#m7f46015f55" y="264.040257"/>
     <use style="fill:#0000ff;stroke:#0000ff;" x="106.298182" xlink:href="#m7f46015f55" y="270.842844"/>
     <use style="fill:#0000ff;stroke:#0000ff;" x="138.763636" xlink:href="#m7f46015f55" y="262.694665"/>
     <use style="fill:#0000ff;stroke:#0000ff;" x="171.229091" xlink:href="#m7f46015f55" y="252.092959"/>
     <use style="fill:#0000ff;stroke:#0000ff;" x="203.694545" xlink:href="#m7f46015f55" y="243.486218"/>
     <use style="fill:#0000ff;stroke:#0000ff;" x="236.16" xlink:href="#m7f46015f55" y="232.196208"/>
     <use style="fill:#0000ff;stroke:#0000ff;" x="268.625455" xlink:href="#m7f46015f55" y="228.393449"/>
     <use style="fill:#0000ff;stroke:#0000ff;" x="301.090909" xlink:href="#m7f46015f55" y="238.317096"/>
     <use style="fill:#0000ff;stroke:#0000ff;" x="333.556364" xlink:href="#m7f46015f55" y="231.624249"/>
     <use style="fill:#0000ff;stroke:#0000ff;" x="366.021818" xlink:href="#m7f46015f55" y="180.472816"/>
     <use style="fill:#0000ff;stroke:#0000ff;" x="398.487273" xlink:href="#m7f46015f55" y="131.516339"/>
    </g>
   </g>
   <g id="PathCollection_2">
    <defs>
     <path d="M 0 3 
C 0.795609 3 1.55874 2.683901 2.12132 2.12132 
C 2.683901 1.55874 3 0.795609 3 0 
C 3 -0.795609 2.683901 -1.55874 2.12132 -2.12132 
C 1.55874 -2.683901 0.795609 -3 0 -3 
C -0.795609 -3 -1.55874 -2.683901 -2.12132 -2.12132 
C -2.683901 -1.55874 -3 -0.795609 -3 0 
C -3 0.795609 -2.683901 1.55874 -2.12132 2.12132 
C -1.55874 2.683901 -0.795609 3 0 3 
z
" id="md14b9429ef" style="stroke:#ffa500;"/>
    </defs>
    <g clip-path="url(#pd403d980cc)">
     <use style="fill:#ffa500;stroke:#ffa500;" x="73.832727" xlink:href="#md14b9429ef" y="172.221131"/>
     <use style="fill:#ffa500;stroke:#ffa500;" x="203.694545" xlink:href="#md14b9429ef" y="195.753896"/>
     <use style="fill:#ffa500;stroke:#ffa500;" x="268.625455" xlink:href="#md14b9429ef" y="197.88878"/>
     <use style="fill:#ffa500;stroke:#ffa500;" x="333.556364" xlink:href="#md14b9429ef" y="236.670802"/>
     <use style="fill:#ffa500;stroke:#ffa500;" x="398.487273" xlink:href="#md14b9429ef" y="68.775404"/>
    </g>
   </g>
   <g id="matplotlib.axis_1">
    <g id="xtick_1">
     <g id="line2d_1">
      <path clip-path="url(#pd403d980cc)" d="M 73.832727 307.584 
L 73.832727 41.472 
" style="fill:none;stroke:#b0b0b0;stroke-linecap:square;stroke-width:0.8;"/>
     </g>
     <g id="line2d_2">
      <defs>
       <path d="M 0 0 
L 0 3.5 
" id="mc57ebbe736" style="stroke:#000000;stroke-width:0.8;"/>
      </defs>
      <g>
       <use style="stroke:#000000;stroke-width:0.8;" x="73.832727" xlink:href="#mc57ebbe736" y="307.584"/>
      </g>
     </g>
     <g id="text_1">
      <!-- 0.0 -->
      <g transform="translate(65.881165 322.182437)scale(0.1 -0.1)">
       <defs>
        <path d="M 31.78125 66.40625 
Q 24.171875 66.40625 20.328125 58.90625 
Q 16.5 51.421875 16.5 36.375 
Q 16.5 21.390625 20.328125 13.890625 
Q 24.171875 6.390625 31.78125 6.390625 
Q 39.453125 6.390625 43.28125 13.890625 
Q 47.125 21.390625 47.125 36.375 
Q 47.125 51.421875 43.28125 58.90625 
Q 39.453125 66.40625 31.78125 66.40625 
z
M 31.78125 74.21875 
Q 44.046875 74.21875 50.515625 64.515625 
Q 56.984375 54.828125 56.984375 36.375 
Q 56.984375 17.96875 50.515625 8.265625 
Q 44.046875 -1.421875 31.78125 -1.421875 
Q 19.53125 -1.421875 13.0625 8.265625 
Q 6.59375 17.96875 6.59375 36.375 
Q 6.59375 54.828125 13.0625 64.515625 
Q 19.53125 74.21875 31.78125 74.21875 
z
" id="DejaVuSans-48"/>
        <path d="M 10.6875 12.40625 
L 21 12.40625 
L 21 0 
L 10.6875 0 
z
" id="DejaVuSans-46"/>
       </defs>
       <use xlink:href="#DejaVuSans-48"/>
       <use x="63.623047" xlink:href="#DejaVuSans-46"/>
       <use x="95.410156" xlink:href="#DejaVuSans-48"/>
      </g>
     </g>
    </g>
    <g id="xtick_2">
     <g id="line2d_3">
      <path clip-path="url(#pd403d980cc)" d="M 138.763636 307.584 
L 138.763636 41.472 
" style="fill:none;stroke:#b0b0b0;stroke-linecap:square;stroke-width:0.8;"/>
     </g>
     <g id="line2d_4">
      <g>
       <use style="stroke:#000000;stroke-width:0.8;" x="138.763636" xlink:href="#mc57ebbe736" y="307.584"/>
      </g>
     </g>
     <g id="text_2">
      <!-- 0.2 -->
      <g transform="translate(130.812074 322.182437)scale(0.1 -0.1)">
       <defs>
        <path d="M 19.1875 8.296875 
L 53.609375 8.296875 
L 53.609375 0 
L 7.328125 0 
L 7.328125 8.296875 
Q 12.9375 14.109375 22.625 23.890625 
Q 32.328125 33.6875 34.8125 36.53125 
Q 39.546875 41.84375 41.421875 45.53125 
Q 43.3125 49.21875 43.3125 52.78125 
Q 43.3125 58.59375 39.234375 62.25 
Q 35.15625 65.921875 28.609375 65.921875 
Q 23.96875 65.921875 18.8125 64.3125 
Q 13.671875 62.703125 7.8125 59.421875 
L 7.8125 69.390625 
Q 13.765625 71.78125 18.9375 73 
Q 24.125 74.21875 28.421875 74.21875 
Q 39.75 74.21875 46.484375 68.546875 
Q 53.21875 62.890625 53.21875 53.421875 
Q 53.21875 48.921875 51.53125 44.890625 
Q 49.859375 40.875 45.40625 35.40625 
Q 44.1875 33.984375 37.640625 27.21875 
Q 31.109375 20.453125 19.1875 8.296875 
z
" id="DejaVuSans-50"/>
       </defs>
       <use xlink:href="#DejaVuSans-48"/>
       <use x="63.623047" xlink:href="#DejaVuSans-46"/>
       <use x="95.410156" xlink:href="#DejaVuSans-50"/>
      </g>
     </g>
    </g>
    <g id="xtick_3">
     <g id="line2d_5">
      <path clip-path="url(#pd403d980cc)" d="M 203.694545 307.584 
L 203.694545 41.472 
" style="fill:none;stroke:#b0b0b0;stroke-linecap:square;stroke-width:0.8;"/>
     </g>
     <g id="line2d_6">
      <g>
       <use style="stroke:#000000;stroke-width:0.8;" x="203.694545" xlink:href="#mc57ebbe736" y="307.584"/>
      </g>
     </g>
     <g id="text_3">
      <!-- 0.4 -->
      <g transform="translate(195.742983 322.182437)scale(0.1 -0.1)">
       <defs>
        <path d="M 37.796875 64.3125 
L 12.890625 25.390625 
L 37.796875 25.390625 
z
M 35.203125 72.90625 
L 47.609375 72.90625 
L 47.609375 25.390625 
L 58.015625 25.390625 
L 58.015625 17.1875 
L 47.609375 17.1875 
L 47.609375 0 
L 37.796875 0 
L 37.796875 17.1875 
L 4.890625 17.1875 
L 4.890625 26.703125 
z
" id="DejaVuSans-52"/>
       </defs>
       <use xlink:href="#DejaVuSans-48"/>
       <use x="63.623047" xlink:href="#DejaVuSans-46"/>
       <use x="95.410156" xlink:href="#DejaVuSans-52"/>
      </g>
     </g>
    </g>
    <g id="xtick_4">
     <g id="line2d_7">
      <path clip-path="url(#pd403d980cc)" d="M 268.625455 307.584 
L 268.625455 41.472 
" style="fill:none;stroke:#b0b0b0;stroke-linecap:square;stroke-width:0.8;"/>
     </g>
     <g id="line2d_8">
      <g>
       <use style="stroke:#000000;stroke-width:0.8;" x="268.625455" xlink:href="#mc57ebbe736" y="307.584"/>
      </g>
     </g>
     <g id="text_4">
      <!-- 0.6 -->
      <g transform="translate(260.673892 322.182437)scale(0.1 -0.1)">
       <defs>
        <path d="M 33.015625 40.375 
Q 26.375 40.375 22.484375 35.828125 
Q 18.609375 31.296875 18.609375 23.390625 
Q 18.609375 15.53125 22.484375 10.953125 
Q 26.375 6.390625 33.015625 6.390625 
Q 39.65625 6.390625 43.53125 10.953125 
Q 47.40625 15.53125 47.40625 23.390625 
Q 47.40625 31.296875 43.53125 35.828125 
Q 39.65625 40.375 33.015625 40.375 
z
M 52.59375 71.296875 
L 52.59375 62.3125 
Q 48.875 64.0625 45.09375 64.984375 
Q 41.3125 65.921875 37.59375 65.921875 
Q 27.828125 65.921875 22.671875 59.328125 
Q 17.53125 52.734375 16.796875 39.40625 
Q 19.671875 43.65625 24.015625 45.921875 
Q 28.375 48.1875 33.59375 48.1875 
Q 44.578125 48.1875 50.953125 41.515625 
Q 57.328125 34.859375 57.328125 23.390625 
Q 57.328125 12.15625 50.6875 5.359375 
Q 44.046875 -1.421875 33.015625 -1.421875 
Q 20.359375 -1.421875 13.671875 8.265625 
Q 6.984375 17.96875 6.984375 36.375 
Q 6.984375 53.65625 15.1875 63.9375 
Q 23.390625 74.21875 37.203125 74.21875 
Q 40.921875 74.21875 44.703125 73.484375 
Q 48.484375 72.75 52.59375 71.296875 
z
" id="DejaVuSans-54"/>
       </defs>
       <use xlink:href="#DejaVuSans-48"/>
       <use x="63.623047" xlink:href="#DejaVuSans-46"/>
       <use x="95.410156" xlink:href="#DejaVuSans-54"/>
      </g>
     </g>
    </g>
    <g id="xtick_5">
     <g id="line2d_9">
      <path clip-path="url(#pd403d980cc)" d="M 333.556364 307.584 
L 333.556364 41.472 
" style="fill:none;stroke:#b0b0b0;stroke-linecap:square;stroke-width:0.8;"/>
     </g>
     <g id="line2d_10">
      <g>
       <use style="stroke:#000000;stroke-width:0.8;" x="333.556364" xlink:href="#mc57ebbe736" y="307.584"/>
      </g>
     </g>
     <g id="text_5">
      <!-- 0.8 -->
      <g transform="translate(325.604801 322.182437)scale(0.1 -0.1)">
       <defs>
        <path d="M 31.78125 34.625 
Q 24.75 34.625 20.71875 30.859375 
Q 16.703125 27.09375 16.703125 20.515625 
Q 16.703125 13.921875 20.71875 10.15625 
Q 24.75 6.390625 31.78125 6.390625 
Q 38.8125 6.390625 42.859375 10.171875 
Q 46.921875 13.96875 46.921875 20.515625 
Q 46.921875 27.09375 42.890625 30.859375 
Q 38.875 34.625 31.78125 34.625 
z
M 21.921875 38.8125 
Q 15.578125 40.375 12.03125 44.71875 
Q 8.5 49.078125 8.5 55.328125 
Q 8.5 64.0625 14.71875 69.140625 
Q 20.953125 74.21875 31.78125 74.21875 
Q 42.671875 74.21875 48.875 69.140625 
Q 55.078125 64.0625 55.078125 55.328125 
Q 55.078125 49.078125 51.53125 44.71875 
Q 48 40.375 41.703125 38.8125 
Q 48.828125 37.15625 52.796875 32.3125 
Q 56.78125 27.484375 56.78125 20.515625 
Q 56.78125 9.90625 50.3125 4.234375 
Q 43.84375 -1.421875 31.78125 -1.421875 
Q 19.734375 -1.421875 13.25 4.234375 
Q 6.78125 9.90625 6.78125 20.515625 
Q 6.78125 27.484375 10.78125 32.3125 
Q 14.796875 37.15625 21.921875 38.8125 
z
M 18.3125 54.390625 
Q 18.3125 48.734375 21.84375 45.5625 
Q 25.390625 42.390625 31.78125 42.390625 
Q 38.140625 42.390625 41.71875 45.5625 
Q 45.3125 48.734375 45.3125 54.390625 
Q 45.3125 60.0625 41.71875 63.234375 
Q 38.140625 66.40625 31.78125 66.40625 
Q 25.390625 66.40625 21.84375 63.234375 
Q 18.3125 60.0625 18.3125 54.390625 
z
" id="DejaVuSans-56"/>
       </defs>
       <use xlink:href="#DejaVuSans-48"/>
       <use x="63.623047" xlink:href="#DejaVuSans-46"/>
       <use x="95.410156" xlink:href="#DejaVuSans-56"/>
      </g>
     </g>
    </g>
    <g id="xtick_6">
     <g id="line2d_11">
      <path clip-path="url(#pd403d980cc)" d="M 398.487273 307.584 
L 398.487273 41.472 
" style="fill:none;stroke:#b0b0b0;stroke-linecap:square;stroke-width:0.8;"/>
     </g>
     <g id="line2d_12">
      <g>
       <use style="stroke:#000000;stroke-width:0.8;" x="398.487273" xlink:href="#mc57ebbe736" y="307.584"/>
      </g>
     </g>
     <g id="text_6">
      <!-- 1.0 -->
      <g transform="translate(390.53571 322.182437)scale(0.1 -0.1)">
       <defs>
        <path d="M 12.40625 8.296875 
L 28.515625 8.296875 
L 28.515625 63.921875 
L 10.984375 60.40625 
L 10.984375 69.390625 
L 28.421875 72.90625 
L 38.28125 72.90625 
L 38.28125 8.296875 
L 54.390625 8.296875 
L 54.390625 0 
L 12.40625 0 
z
" id="DejaVuSans-49"/>
       </defs>
       <use xlink:href="#DejaVuSans-49"/>
       <use x="63.623047" xlink:href="#DejaVuSans-46"/>
       <use x="95.410156" xlink:href="#DejaVuSans-48"/>
      </g>
     </g>
    </g>
   </g>
   <g id="matplotlib.axis_2">
    <g id="ytick_1">
     <g id="line2d_13">
      <path clip-path="url(#pd403d980cc)" d="M 57.6 278.290371 
L 414.72 278.290371 
" style="fill:none;stroke:#b0b0b0;stroke-linecap:square;stroke-width:0.8;"/>
     </g>
     <g id="line2d_14">
      <defs>
       <path d="M 0 0 
L -3.5 0 
" id="m80b2203f3c" style="stroke:#000000;stroke-width:0.8;"/>
      </defs>
      <g>
       <use style="stroke:#000000;stroke-width:0.8;" x="57.6" xlink:href="#m80b2203f3c" y="278.290371"/>
      </g>
     </g>
     <g id="text_7">
      <!-- −10 -->
      <g transform="translate(29.495313 282.08959)scale(0.1 -0.1)">
       <defs>
        <path d="M 10.59375 35.5 
L 73.1875 35.5 
L 73.1875 27.203125 
L 10.59375 27.203125 
z
" id="DejaVuSans-8722"/>
       </defs>
       <use xlink:href="#DejaVuSans-8722"/>
       <use x="83.789062" xlink:href="#DejaVuSans-49"/>
       <use x="147.412109" xlink:href="#DejaVuSans-48"/>
      </g>
     </g>
    </g>
    <g id="ytick_2">
     <g id="line2d_15">
      <path clip-path="url(#pd403d980cc)" d="M 57.6 237.889844 
L 414.72 237.889844 
" style="fill:none;stroke:#b0b0b0;stroke-linecap:square;stroke-width:0.8;"/>
     </g>
     <g id="line2d_16">
      <g>
       <use style="stroke:#000000;stroke-width:0.8;" x="57.6" xlink:href="#m80b2203f3c" y="237.889844"/>
      </g>
     </g>
     <g id="text_8">
      <!-- −5 -->
      <g transform="translate(35.857813 241.689063)scale(0.1 -0.1)">
       <defs>
        <path d="M 10.796875 72.90625 
L 49.515625 72.90625 
L 49.515625 64.59375 
L 19.828125 64.59375 
L 19.828125 46.734375 
Q 21.96875 47.46875 24.109375 47.828125 
Q 26.265625 48.1875 28.421875 48.1875 
Q 40.625 48.1875 47.75 41.5 
Q 54.890625 34.8125 54.890625 23.390625 
Q 54.890625 11.625 47.5625 5.09375 
Q 40.234375 -1.421875 26.90625 -1.421875 
Q 22.3125 -1.421875 17.546875 -0.640625 
Q 12.796875 0.140625 7.71875 1.703125 
L 7.71875 11.625 
Q 12.109375 9.234375 16.796875 8.0625 
Q 21.484375 6.890625 26.703125 6.890625 
Q 35.15625 6.890625 40.078125 11.328125 
Q 45.015625 15.765625 45.015625 23.390625 
Q 45.015625 31 40.078125 35.4375 
Q 35.15625 39.890625 26.703125 39.890625 
Q 22.75 39.890625 18.8125 39.015625 
Q 14.890625 38.140625 10.796875 36.28125 
z
" id="DejaVuSans-53"/>
       </defs>
       <use xlink:href="#DejaVuSans-8722"/>
       <use x="83.789062" xlink:href="#DejaVuSans-53"/>
      </g>
     </g>
    </g>
    <g id="ytick_3">
     <g id="line2d_17">
      <path clip-path="url(#pd403d980cc)" d="M 57.6 197.489317 
L 414.72 197.489317 
" style="fill:none;stroke:#b0b0b0;stroke-linecap:square;stroke-width:0.8;"/>
     </g>
     <g id="line2d_18">
      <g>
       <use style="stroke:#000000;stroke-width:0.8;" x="57.6" xlink:href="#m80b2203f3c" y="197.489317"/>
      </g>
     </g>
     <g id="text_9">
      <!-- 0 -->
      <g transform="translate(44.2375 201.288536)scale(0.1 -0.1)">
       <use xlink:href="#DejaVuSans-48"/>
      </g>
     </g>
    </g>
    <g id="ytick_4">
     <g id="line2d_19">
      <path clip-path="url(#pd403d980cc)" d="M 57.6 157.08879 
L 414.72 157.08879 
" style="fill:none;stroke:#b0b0b0;stroke-linecap:square;stroke-width:0.8;"/>
     </g>
     <g id="line2d_20">
      <g>
       <use style="stroke:#000000;stroke-width:0.8;" x="57.6" xlink:href="#m80b2203f3c" y="157.08879"/>
      </g>
     </g>
     <g id="text_10">
      <!-- 5 -->
      <g transform="translate(44.2375 160.888009)scale(0.1 -0.1)">
       <use xlink:href="#DejaVuSans-53"/>
      </g>
     </g>
    </g>
    <g id="ytick_5">
     <g id="line2d_21">
      <path clip-path="url(#pd403d980cc)" d="M 57.6 116.688263 
L 414.72 116.688263 
" style="fill:none;stroke:#b0b0b0;stroke-linecap:square;stroke-width:0.8;"/>
     </g>
     <g id="line2d_22">
      <g>
       <use style="stroke:#000000;stroke-width:0.8;" x="57.6" xlink:href="#m80b2203f3c" y="116.688263"/>
      </g>
     </g>
     <g id="text_11">
      <!-- 10 -->
      <g transform="translate(37.875 120.487482)scale(0.1 -0.1)">
       <use xlink:href="#DejaVuSans-49"/>
       <use x="63.623047" xlink:href="#DejaVuSans-48"/>
      </g>
     </g>
    </g>
    <g id="ytick_6">
     <g id="line2d_23">
      <path clip-path="url(#pd403d980cc)" d="M 57.6 76.287736 
L 414.72 76.287736 
" style="fill:none;stroke:#b0b0b0;stroke-linecap:square;stroke-width:0.8;"/>
     </g>
     <g id="line2d_24">
      <g>
       <use style="stroke:#000000;stroke-width:0.8;" x="57.6" xlink:href="#m80b2203f3c" y="76.287736"/>
      </g>
     </g>
     <g id="text_12">
      <!-- 15 -->
      <g transform="translate(37.875 80.086955)scale(0.1 -0.1)">
       <use xlink:href="#DejaVuSans-49"/>
       <use x="63.623047" xlink:href="#DejaVuSans-53"/>
      </g>
     </g>
    </g>
   </g>
   <g id="line2d_25">
    <path clip-path="url(#pd403d980cc)" d="M 73.832727 263.55372 
L 77.112066 264.825536 
L 80.391405 265.945536 
L 83.670744 266.909216 
L 86.950083 267.713801 
L 90.229421 268.35829 
L 93.50876 268.843463 
L 96.788099 269.171851 
L 100.067438 269.347671 
L 103.346777 269.376724 
L 106.626116 269.266253 
L 109.905455 269.024781 
L 113.184793 268.661904 
L 116.464132 268.188077 
L 119.743471 267.614365 
L 123.02281 266.952194 
L 126.302149 266.213087 
L 129.581488 265.40841 
L 132.860826 264.549115 
L 136.140165 263.64551 
L 139.419504 262.707044 
L 142.698843 261.742125 
L 145.978182 260.75797 
L 149.257521 259.760502 
L 152.53686 258.754285 
L 155.816198 257.742505 
L 159.095537 256.72701 
L 162.374876 255.708386 
L 165.654215 254.686086 
L 168.933554 253.658604 
L 172.212893 252.623686 
L 175.492231 251.57857 
L 178.77157 250.52026 
L 182.050909 249.445807 
L 185.330248 248.352607 
L 188.609587 247.238688 
L 191.888926 246.102987 
L 195.168264 244.945607 
L 198.447603 243.768034 
L 201.726942 242.573317 
L 205.006281 241.366188 
L 208.28562 240.153137 
L 211.564959 238.942408 
L 214.844298 237.743934 
L 218.123636 236.569204 
L 221.402975 235.431057 
L 224.682314 234.343408 
L 227.961653 233.320914 
L 231.240992 232.378586 
L 234.520331 231.531351 
L 237.799669 230.793581 
L 241.079008 230.178599 
L 244.358347 229.698174 
L 247.637686 229.362025 
L 250.917025 229.17734 
L 254.196364 229.148338 
L 257.475702 229.275872 
L 260.755041 229.557104 
L 264.03438 229.985257 
L 267.313719 230.549445 
L 270.593058 231.234616 
L 273.872397 232.02158 
L 277.151736 232.887157 
L 280.431074 233.804428 
L 283.710413 234.743092 
L 286.989752 235.669922 
L 290.269091 236.549314 
L 293.54843 237.343925 
L 296.827769 238.015368 
L 300.107107 238.524972 
L 303.386446 238.834568 
L 306.665785 238.907305 
L 309.945124 238.708454 
L 313.224463 238.206198 
L 316.503802 237.372381 
L 319.78314 236.183194 
L 323.062479 234.61979 
L 326.341818 232.668808 
L 329.621157 230.322785 
L 332.900496 227.580459 
L 336.179835 224.446944 
L 339.459174 220.933778 
L 342.738512 217.058841 
L 346.017851 212.846138 
L 349.29719 208.325466 
L 352.576529 203.531957 
L 355.855868 198.505514 
L 359.135207 193.290162 
L 362.414545 187.933309 
L 365.693884 182.48495 
L 368.973223 176.996832 
L 372.252562 171.521585 
L 375.531901 166.11185 
L 378.81124 160.819426 
L 382.090579 155.694434 
L 385.369917 150.784544 
L 388.649256 146.134249 
L 391.928595 141.784228 
L 395.207934 137.770789 
L 398.487273 134.125408 
" style="fill:none;stroke:#0000ff;stroke-linecap:square;stroke-width:1.5;"/>
   </g>
   <g id="line2d_26">
    <path clip-path="url(#pd403d980cc)" d="M 73.832727 233.328153 
L 77.112066 236.581333 
L 80.391405 238.978505 
L 83.670744 240.685261 
L 86.950083 241.850202 
L 90.229421 242.601575 
L 93.50876 243.045497 
L 96.788099 243.265694 
L 100.067438 243.324581 
L 103.346777 243.265447 
L 106.626116 243.115415 
L 109.905455 242.888871 
L 113.184793 242.591038 
L 116.464132 242.221391 
L 119.743471 241.776687 
L 123.02281 241.253433 
L 126.302149 240.64969 
L 129.581488 239.966183 
L 132.860826 239.206759 
L 136.140165 238.378279 
L 139.419504 237.490066 
L 142.698843 236.553073 
L 145.978182 235.578891 
L 149.257521 234.578769 
L 152.53686 233.562734 
L 155.816198 232.538913 
L 159.095537 231.513094 
L 162.374876 230.488552 
L 165.654215 229.466123 
L 168.933554 228.444491 
L 172.212893 227.420637 
L 175.492231 226.39039 
L 178.77157 225.349019 
L 182.050909 224.291825 
L 185.330248 223.214673 
L 188.609587 222.114448 
L 191.888926 220.989415 
L 195.168264 219.839468 
L 198.447603 218.666295 
L 201.726942 217.473443 
L 205.006281 216.266317 
L 208.28562 215.052121 
L 211.564959 213.839747 
L 214.844298 212.639638 
L 218.123636 211.463605 
L 221.402975 210.324624 
L 224.682314 209.236589 
L 227.961653 208.214033 
L 231.240992 207.271796 
L 234.520331 206.424651 
L 237.799669 205.686881 
L 241.079008 205.071808 
L 244.358347 204.591293 
L 247.637686 204.255206 
L 250.917025 204.070907 
L 254.196364 204.042739 
L 257.475702 204.171575 
L 260.755041 204.454443 
L 264.03438 204.88424 
L 267.313719 205.449575 
L 270.593058 206.134743 
L 273.872397 206.919841 
L 277.151736 207.781018 
L 280.431074 208.690856 
L 283.710413 209.618853 
L 286.989752 210.531987 
L 290.269091 211.395331 
L 293.54843 212.172684 
L 296.827769 212.827188 
L 300.107107 213.321923 
L 303.386446 213.620455 
L 306.665785 213.687342 
L 309.945124 213.48862 
L 313.224463 212.992282 
L 316.503802 212.168789 
L 319.78314 210.991643 
L 323.062479 209.438057 
L 326.341818 207.489729 
L 329.621157 205.133734 
L 332.900496 202.363481 
L 336.179835 199.179712 
L 339.459174 195.591422 
L 342.738512 191.616613 
L 346.017851 187.28274 
L 349.29719 182.626705 
L 352.576529 177.694278 
L 355.855868 172.538828 
L 359.135207 167.219296 
L 362.414545 161.797399 
L 365.693884 156.334112 
L 368.973223 150.885556 
L 372.252562 145.498495 
L 375.531901 140.205693 
L 378.81124 135.02146 
L 382.090579 129.937719 
L 385.369917 124.920944 
L 388.649256 119.910294 
L 391.928595 114.817197 
L 395.207934 109.526587 
L 398.487273 103.899841 
" style="fill:none;stroke:#000000;stroke-linecap:square;stroke-width:0.5;"/>
   </g>
   <g id="line2d_27">
    <path clip-path="url(#pd403d980cc)" d="M 73.832727 293.779287 
L 77.112066 293.069738 
L 80.391405 292.912567 
L 83.670744 293.133171 
L 86.950083 293.577401 
L 90.229421 294.115005 
L 93.50876 294.641429 
L 96.788099 295.078009 
L 100.067438 295.370762 
L 103.346777 295.488 
L 106.626116 295.417091 
L 109.905455 295.16069 
L 113.184793 294.73277 
L 116.464132 294.154763 
L 119.743471 293.452044 
L 123.02281 292.650955 
L 126.302149 291.776485 
L 129.581488 290.850637 
L 132.860826 289.891472 
L 136.140165 288.912742 
L 139.419504 287.924022 
L 142.698843 286.931176 
L 145.978182 285.937049 
L 149.257521 284.942236 
L 152.53686 283.945836 
L 155.816198 282.946098 
L 159.095537 281.940927 
L 162.374876 280.92822 
L 165.654215 279.906049 
L 168.933554 278.872717 
L 172.212893 277.826734 
L 175.492231 276.766751 
L 178.77157 275.691501 
L 182.050909 274.59979 
L 185.330248 273.490542 
L 188.609587 272.362927 
L 191.888926 271.216559 
L 195.168264 270.051746 
L 198.447603 268.869773 
L 201.726942 267.67319 
L 205.006281 266.466059 
L 208.28562 265.254154 
L 211.564959 264.045069 
L 214.844298 262.84823 
L 218.123636 261.674803 
L 221.402975 260.53749 
L 224.682314 259.450226 
L 227.961653 258.427794 
L 231.240992 257.485376 
L 234.520331 256.638051 
L 237.799669 255.900281 
L 241.079008 255.285389 
L 244.358347 254.805054 
L 247.637686 254.468843 
L 250.917025 254.283774 
L 254.196364 254.253937 
L 257.475702 254.380168 
L 260.755041 254.659765 
L 264.03438 255.086273 
L 267.313719 255.649316 
L 270.593058 256.334489 
L 273.872397 257.123319 
L 277.151736 257.993296 
L 280.431074 258.918001 
L 283.710413 259.867332 
L 286.989752 260.807856 
L 290.269091 261.703297 
L 293.54843 262.515166 
L 296.827769 263.203549 
L 300.107107 263.72802 
L 303.386446 264.048681 
L 306.665785 264.127268 
L 309.945124 263.928288 
L 313.224463 263.420115 
L 316.503802 262.575973 
L 319.78314 261.374745 
L 323.062479 259.801524 
L 326.341818 257.847888 
L 329.621157 255.511837 
L 332.900496 252.797437 
L 336.179835 249.714176 
L 339.459174 246.276134 
L 342.738512 242.501068 
L 346.017851 238.409535 
L 349.29719 234.024227 
L 352.576529 229.369635 
L 355.855868 224.4722 
L 359.135207 219.361028 
L 362.414545 214.069218 
L 365.693884 208.635789 
L 368.973223 203.108109 
L 372.252562 197.544675 
L 375.531901 192.018008 
L 378.81124 186.617391 
L 382.090579 181.451149 
L 385.369917 176.648143 
L 388.649256 172.358204 
L 391.928595 168.751259 
L 395.207934 166.014992 
L 398.487273 164.350975 
" style="fill:none;stroke:#000000;stroke-linecap:square;stroke-width:0.5;"/>
   </g>
   <g id="line2d_28">
    <path clip-path="url(#pd403d980cc)" d="M 73.832727 219.300766 
L 77.112066 220.602381 
L 80.391405 221.74878 
L 83.670744 222.735357 
L 86.950083 223.559275 
L 90.229421 224.219511 
L 93.50876 224.716862 
L 96.788099 225.053916 
L 100.067438 225.234985 
L 103.346777 225.265998 
L 106.626116 225.154363 
L 109.905455 224.908791 
L 113.184793 224.539097 
L 116.464132 224.055966 
L 119.743471 223.470712 
L 123.02281 222.795018 
L 126.302149 222.040666 
L 129.581488 221.219274 
L 132.860826 220.34204 
L 136.140165 219.419505 
L 139.419504 218.461327 
L 142.698843 217.476103 
L 145.978182 216.471214 
L 149.257521 215.452713 
L 152.53686 214.425266 
L 155.816198 213.392133 
L 159.095537 212.355201 
L 162.374876 211.31507 
L 165.654215 210.271181 
L 168.933554 209.221995 
L 172.212893 208.165205 
L 175.492231 207.097989 
L 178.77157 206.017283 
L 182.050909 204.920074 
L 185.330248 203.803697 
L 188.609587 202.666137 
L 191.888926 201.506307 
L 195.168264 200.324313 
L 198.447603 199.121674 
L 201.726942 197.901506 
L 205.006281 196.668649 
L 208.28562 195.429737 
L 211.564959 194.193198 
L 214.844298 192.96919 
L 218.123636 191.769458 
L 221.402975 190.607128 
L 224.682314 189.496427 
L 227.961653 188.452341 
L 231.240992 187.490217 
L 234.520331 186.625316 
L 237.799669 185.872332 
L 241.079008 185.244887 
L 244.358347 184.755013 
L 247.637686 184.412647 
L 250.917025 184.225139 
L 254.196364 184.1968 
L 257.475702 184.328504 
L 260.755041 184.61735 
L 264.03438 185.056407 
L 267.313719 185.634548 
L 270.593058 186.336381 
L 273.872397 187.142287 
L 277.151736 188.028568 
L 280.431074 188.967701 
L 283.710413 189.928705 
L 286.989752 190.877611 
L 290.269091 191.778016 
L 293.54843 192.591741 
L 296.827769 193.27954 
L 300.107107 193.801873 
L 303.386446 194.119719 
L 306.665785 194.1954 
L 309.945124 193.993409 
L 313.224463 193.481217 
L 316.503802 192.630036 
L 319.78314 191.415525 
L 323.062479 189.818415 
L 326.341818 187.825044 
L 329.621157 185.427783 
L 332.900496 182.625341 
L 336.179835 179.422948 
L 339.459174 175.832399 
L 342.738512 171.871975 
L 346.017851 167.56622 
L 349.29719 162.945596 
L 352.576529 158.046024 
L 355.855868 152.9083 
L 359.135207 147.577436 
L 362.414545 142.1019 
L 365.693884 136.532809 
L 368.973223 130.923068 
L 372.252562 125.326486 
L 375.531901 119.796885 
L 378.81124 114.387222 
L 382.090579 109.148742 
L 385.369917 104.130182 
L 388.649256 99.377033 
L 391.928595 94.930884 
L 395.207934 90.828857 
L 398.487273 87.103133 
" style="fill:none;stroke:#ffa500;stroke-linecap:square;stroke-width:1.5;"/>
   </g>
   <g id="line2d_29">
    <path clip-path="url(#pd403d980cc)" d="M 73.832727 185.764851 
L 77.112066 189.137666 
L 80.391405 191.619169 
L 83.670744 193.382556 
L 86.950083 194.583224 
L 90.229421 195.355255 
L 93.50876 195.809553 
L 96.788099 196.033579 
L 100.067438 196.092481 
L 103.346777 196.031375 
L 106.626116 195.878447 
L 109.905455 195.64854 
L 113.184793 195.346894 
L 116.464132 194.97272 
L 119.743471 194.522375 
L 123.02281 193.991946 
L 126.302149 193.379142 
L 129.581488 192.684462 
L 132.860826 191.911675 
L 136.140165 191.067716 
L 139.419504 190.162117 
L 142.698843 189.206131 
L 145.978182 188.211711 
L 149.257521 187.190479 
L 152.53686 186.152813 
L 155.816198 185.107134 
L 159.095537 184.05945 
L 162.374876 183.013172 
L 165.654215 181.969185 
L 168.933554 180.926149 
L 172.212893 179.88096 
L 175.492231 178.829319 
L 178.77157 177.766352 
L 182.050909 176.687213 
L 185.330248 175.587641 
L 188.609587 174.464424 
L 191.888926 173.315771 
L 195.168264 172.141573 
L 198.447603 170.943556 
L 201.726942 169.725361 
L 205.006281 168.492528 
L 208.28562 167.252438 
L 211.564959 166.014199 
L 214.844298 164.788499 
L 218.123636 163.58742 
L 221.402975 162.424233 
L 224.682314 161.313143 
L 227.961653 160.269004 
L 231.240992 159.306985 
L 234.520331 158.442187 
L 237.799669 157.689212 
L 241.079008 157.061679 
L 244.358347 156.571716 
L 247.637686 156.229419 
L 250.917025 156.042316 
L 254.196364 156.01485 
L 257.475702 156.147916 
L 260.755041 156.43847 
L 264.03438 156.879243 
L 267.313719 157.458577 
L 270.593058 158.160402 
L 273.872397 158.964351 
L 277.151736 159.846025 
L 280.431074 160.777378 
L 283.710413 161.727222 
L 286.989752 162.661799 
L 290.269091 163.545416 
L 293.54843 164.341087 
L 296.827769 165.011162 
L 300.107107 165.517937 
L 303.386446 165.824198 
L 306.665785 165.893744 
L 309.945124 165.691866 
L 313.224463 165.185837 
L 316.503802 164.345424 
L 319.78314 163.143474 
L 323.062479 161.5566 
L 326.341818 159.565976 
L 329.621157 157.158261 
L 332.900496 154.326597 
L 336.179835 151.071641 
L 339.459174 147.402531 
L 342.738512 143.337677 
L 346.017851 138.905226 
L 349.29719 134.143069 
L 352.576529 129.098247 
L 355.855868 123.825631 
L 359.135207 118.385826 
L 362.414545 112.842257 
L 365.693884 107.257517 
L 368.973223 101.689085 
L 372.252562 96.184638 
L 375.531901 90.777219 
L 378.81124 85.4806 
L 382.090579 80.285189 
L 385.369917 75.15485 
L 388.649256 70.024966 
L 391.928595 64.802024 
L 395.207934 59.364908 
L 398.487273 53.568 
" style="fill:none;stroke:#000000;stroke-linecap:square;stroke-width:0.5;"/>
   </g>
   <g id="line2d_30">
    <path clip-path="url(#pd403d980cc)" d="M 73.832727 252.836682 
L 77.112066 252.067097 
L 80.391405 251.878392 
L 83.670744 252.088158 
L 86.950083 252.535326 
L 90.229421 253.083768 
L 93.50876 253.624172 
L 96.788099 254.074254 
L 100.067438 254.377489 
L 103.346777 254.500621 
L 106.626116 254.430279 
L 109.905455 254.169042 
L 113.184793 253.731299 
L 116.464132 253.139211 
L 119.743471 252.41905 
L 123.02281 251.598091 
L 126.302149 250.702189 
L 129.581488 249.754085 
L 132.860826 248.772406 
L 136.140165 247.771294 
L 139.419504 246.760537 
L 142.698843 245.746076 
L 145.978182 244.730717 
L 149.257521 243.714947 
L 152.53686 242.69772 
L 155.816198 241.677132 
L 159.095537 240.650953 
L 162.374876 239.616969 
L 165.654215 238.573177 
L 168.933554 237.51784 
L 172.212893 236.44945 
L 175.492231 235.366659 
L 178.77157 234.268215 
L 182.050909 233.152935 
L 185.330248 232.019754 
L 188.609587 230.86785 
L 191.888926 229.696843 
L 195.168264 228.507053 
L 198.447603 227.299791 
L 201.726942 226.07765 
L 205.006281 224.84477 
L 208.28562 223.607036 
L 211.564959 222.372197 
L 214.844298 221.149881 
L 218.123636 219.951495 
L 221.402975 218.790022 
L 224.682314 217.679711 
L 227.961653 216.635678 
L 231.240992 215.673449 
L 234.520331 214.808444 
L 237.799669 214.055453 
L 241.079008 213.428095 
L 244.358347 212.938311 
L 247.637686 212.595876 
L 250.917025 212.407963 
L 254.196364 212.378751 
L 257.475702 212.509093 
L 260.755041 212.79623 
L 264.03438 213.233572 
L 267.313719 213.810519 
L 270.593058 214.51236 
L 273.872397 215.320223 
L 277.151736 216.21111 
L 280.431074 217.158023 
L 283.710413 218.130189 
L 286.989752 219.093422 
L 290.269091 220.010616 
L 293.54843 220.842396 
L 296.827769 221.547918 
L 300.107107 222.08581 
L 303.386446 222.41524 
L 306.665785 222.497056 
L 309.945124 222.294952 
L 313.224463 221.776597 
L 316.503802 220.914648 
L 319.78314 219.687575 
L 323.062479 218.08023 
L 326.341818 216.084112 
L 329.621157 213.697305 
L 332.900496 210.924085 
L 336.179835 207.774254 
L 339.459174 204.262267 
L 342.738512 200.406273 
L 346.017851 196.227213 
L 349.29719 191.748123 
L 352.576529 186.9938 
L 355.855868 181.990969 
L 359.135207 176.769045 
L 362.414545 171.361542 
L 365.693884 165.8081 
L 368.973223 160.157051 
L 372.252562 154.468334 
L 375.531901 148.816551 
L 378.81124 143.293843 
L 382.090579 138.012295 
L 385.369917 133.105514 
L 388.649256 128.729099 
L 391.928595 125.059744 
L 395.207934 122.292806 
L 398.487273 120.638266 
" style="fill:none;stroke:#000000;stroke-linecap:square;stroke-width:0.5;"/>
   </g>
   <g id="line2d_31">
    <path clip-path="url(#pd403d980cc)" d="M 73.832727 264.040257 
L 77.112066 265.239448 
L 80.391405 266.398689 
L 83.670744 267.480212 
L 86.950083 268.451309 
L 90.229421 269.284699 
L 93.50876 269.95876 
L 96.788099 270.457603 
L 100.067438 270.771013 
L 103.346777 270.894258 
L 106.626116 270.82777 
L 109.905455 270.576726 
L 113.184793 270.150534 
L 116.464132 269.562241 
L 119.743471 268.827885 
L 123.02281 267.965809 
L 126.302149 266.995958 
L 129.581488 265.939168 
L 132.860826 264.816481 
L 136.140165 263.648492 
L 139.419504 262.454743 
L 142.698843 261.253191 
L 145.978182 260.059746 
L 149.257521 258.887898 
L 152.53686 257.74844 
L 155.816198 256.649292 
L 159.095537 255.59542 
L 162.374876 254.588863 
L 165.654215 253.628848 
L 168.933554 252.71201 
L 172.212893 251.832679 
L 175.492231 250.983254 
L 178.77157 250.154626 
L 182.050909 249.33666 
L 185.330248 248.518693 
L 188.609587 247.690066 
L 191.888926 246.840641 
L 195.168264 245.96131 
L 198.447603 245.044472 
L 201.726942 244.084457 
L 205.006281 243.077899 
L 208.28562 242.024028 
L 211.564959 240.92488 
L 214.844298 239.785422 
L 218.123636 238.613574 
L 221.402975 237.420128 
L 224.682314 236.218577 
L 227.961653 235.024828 
L 231.240992 233.856839 
L 234.520331 232.734152 
L 237.799669 231.677362 
L 241.079008 230.707511 
L 244.358347 229.845435 
L 247.637686 229.111079 
L 250.917025 228.522785 
L 254.196364 228.096594 
L 257.475702 227.84555 
L 260.755041 227.779062 
L 264.03438 227.902307 
L 267.313719 228.215717 
L 270.593058 228.71456 
L 273.872397 229.388621 
L 277.151736 230.222011 
L 280.431074 231.193107 
L 283.710413 232.274631 
L 286.989752 233.433872 
L 290.269091 234.633063 
L 293.54843 235.829897 
L 296.827769 236.97819 
L 300.107107 238.028674 
L 303.386446 238.929913 
L 306.665785 239.629329 
L 309.945124 240.074315 
L 313.224463 240.213415 
L 316.503802 239.997557 
L 319.78314 239.381301 
L 323.062479 238.324084 
L 326.341818 236.791435 
L 329.621157 234.756126 
L 332.900496 232.199239 
L 336.179835 229.111114 
L 339.459174 225.492162 
L 342.738512 221.353507 
L 346.017851 216.717444 
L 349.29719 211.617698 
L 352.576529 206.099454 
L 355.855868 200.219164 
L 359.135207 194.044111 
L 362.414545 187.651733 
L 365.693884 181.128717 
L 368.973223 174.569844 
L 372.252562 168.076638 
L 375.531901 161.75579 
L 378.81124 155.717421 
L 382.090579 150.073173 
L 385.369917 144.934187 
L 388.649256 140.408987 
L 391.928595 136.601302 
L 395.207934 133.607883 
L 398.487273 131.516339 
" style="fill:none;stroke:#0000ff;stroke-dasharray:5.55,2.4;stroke-dashoffset:0;stroke-width:1.5;"/>
   </g>
   <g id="line2d_32">
    <path clip-path="url(#pd403d980cc)" d="M 73.832727 172.221131 
L 77.112066 176.251857 
L 80.391405 180.202684 
L 83.670744 183.998076 
L 86.950083 187.572613 
L 90.229421 190.871738 
L 93.50876 193.852204 
L 96.788099 196.482235 
L 100.067438 198.7414 
L 103.346777 200.620234 
L 106.626116 202.119602 
L 109.905455 203.249859 
L 113.184793 204.02982 
L 116.464132 204.485578 
L 119.743471 204.64921 
L 123.02281 204.557403 
L 126.302149 204.250045 
L 129.581488 203.76881 
L 132.860826 203.155781 
L 136.140165 202.452147 
L 139.419504 201.696994 
L 142.698843 200.926235 
L 145.978182 200.171689 
L 149.257521 199.460337 
L 152.53686 198.813766 
L 155.816198 198.247815 
L 159.095537 197.772416 
L 162.374876 197.391645 
L 165.654215 197.103961 
L 168.933554 196.902628 
L 172.212893 196.776311 
L 175.492231 196.709805 
L 178.77157 196.684895 
L 182.050909 196.681306 
L 185.330248 196.677718 
L 188.609587 196.652808 
L 191.888926 196.586302 
L 195.168264 196.459985 
L 198.447603 196.258652 
L 201.726942 195.970968 
L 205.006281 195.590197 
L 208.28562 195.114798 
L 211.564959 194.548847 
L 214.844298 193.902276 
L 218.123636 193.190924 
L 221.402975 192.436378 
L 224.682314 191.665619 
L 227.961653 190.910466 
L 231.240992 190.206832 
L 234.520331 189.593803 
L 237.799669 189.112568 
L 241.079008 188.80521 
L 244.358347 188.713403 
L 247.637686 188.877035 
L 250.917025 189.332793 
L 254.196364 190.112753 
L 257.475702 191.243011 
L 260.755041 192.742379 
L 264.03438 194.621213 
L 267.313719 196.880378 
L 270.593058 199.510408 
L 273.872397 202.490874 
L 277.151736 205.79 
L 280.431074 209.364537 
L 283.710413 213.159929 
L 286.989752 217.110756 
L 290.269091 221.141482 
L 293.54843 225.167495 
L 296.827769 229.096425 
L 300.107107 232.829737 
L 303.386446 236.264559 
L 306.665785 239.295736 
L 309.945124 241.818052 
L 313.224463 243.728597 
L 316.503802 244.929227 
L 319.78314 245.329059 
L 323.062479 244.846969 
L 326.341818 243.414015 
L 329.621157 240.975742 
L 332.900496 237.494312 
L 336.179835 232.950408 
L 339.459174 227.344848 
L 342.738512 220.699882 
L 346.017851 213.060101 
L 349.29719 204.492953 
L 352.576529 195.08881 
L 355.855868 184.960575 
L 359.135207 174.242812 
L 362.414545 163.090402 
L 365.693884 151.676713 
L 368.973223 140.191313 
L 372.252562 128.837244 
L 375.531901 117.827894 
L 378.81124 107.3835 
L 382.090579 97.727348 
L 385.369917 89.081721 
L 388.649256 81.663665 
L 391.928595 75.680639 
L 395.207934 71.326146 
L 398.487273 68.775404 
" style="fill:none;stroke:#ffa500;stroke-dasharray:5.55,2.4;stroke-dashoffset:0;stroke-width:1.5;"/>
   </g>
   <g id="patch_3">
    <path d="M 57.6 307.584 
L 57.6 41.472 
" style="fill:none;stroke:#000000;stroke-linecap:square;stroke-linejoin:miter;stroke-width:0.8;"/>
   </g>
   <g id="patch_4">
    <path d="M 414.72 307.584 
L 414.72 41.472 
" style="fill:none;stroke:#000000;stroke-linecap:square;stroke-linejoin:miter;stroke-width:0.8;"/>
   </g>
   <g id="patch_5">
    <path d="M 57.6 307.584 
L 414.72 307.584 
" style="fill:none;stroke:#000000;stroke-linecap:square;stroke-linejoin:miter;stroke-width:0.8;"/>
   </g>
   <g id="patch_6">
    <path d="M 57.6 41.472 
L 414.72 41.472 
" style="fill:none;stroke:#000000;stroke-linecap:square;stroke-linejoin:miter;stroke-width:0.8;"/>
   </g>
   <g id="legend_1">
    <g id="patch_7">
     <path d="M 64.6 108.1845 
L 239.15625 108.1845 
Q 241.15625 108.1845 241.15625 106.1845 
L 241.15625 48.472 
Q 241.15625 46.472 239.15625 46.472 
L 64.6 46.472 
Q 62.6 46.472 62.6 48.472 
L 62.6 106.1845 
Q 62.6 108.1845 64.6 108.1845 
z
" style="fill:#ffffff;opacity:0.8;stroke:#cccccc;stroke-linejoin:miter;"/>
    </g>
    <g id="line2d_33">
     <path d="M 66.6 54.570438 
L 86.6 54.570438 
" style="fill:none;stroke:#0000ff;stroke-linecap:square;stroke-width:1.5;"/>
    </g>
    <g id="line2d_34"/>
    <g id="text_13">
     <!-- MF cheap GPR (regular GPR) -->
     <g transform="translate(94.6 58.070438)scale(0.1 -0.1)">
      <defs>
       <path d="M 9.8125 72.90625 
L 24.515625 72.90625 
L 43.109375 23.296875 
L 61.8125 72.90625 
L 76.515625 72.90625 
L 76.515625 0 
L 66.890625 0 
L 66.890625 64.015625 
L 48.09375 14.015625 
L 38.1875 14.015625 
L 19.390625 64.015625 
L 19.390625 0 
L 9.8125 0 
z
" id="DejaVuSans-77"/>
       <path d="M 9.8125 72.90625 
L 51.703125 72.90625 
L 51.703125 64.59375 
L 19.671875 64.59375 
L 19.671875 43.109375 
L 48.578125 43.109375 
L 48.578125 34.8125 
L 19.671875 34.8125 
L 19.671875 0 
L 9.8125 0 
z
" id="DejaVuSans-70"/>
       <path id="DejaVuSans-32"/>
       <path d="M 48.78125 52.59375 
L 48.78125 44.1875 
Q 44.96875 46.296875 41.140625 47.34375 
Q 37.3125 48.390625 33.40625 48.390625 
Q 24.65625 48.390625 19.8125 42.84375 
Q 14.984375 37.3125 14.984375 27.296875 
Q 14.984375 17.28125 19.8125 11.734375 
Q 24.65625 6.203125 33.40625 6.203125 
Q 37.3125 6.203125 41.140625 7.25 
Q 44.96875 8.296875 48.78125 10.40625 
L 48.78125 2.09375 
Q 45.015625 0.34375 40.984375 -0.53125 
Q 36.96875 -1.421875 32.421875 -1.421875 
Q 20.0625 -1.421875 12.78125 6.34375 
Q 5.515625 14.109375 5.515625 27.296875 
Q 5.515625 40.671875 12.859375 48.328125 
Q 20.21875 56 33.015625 56 
Q 37.15625 56 41.109375 55.140625 
Q 45.0625 54.296875 48.78125 52.59375 
z
" id="DejaVuSans-99"/>
       <path d="M 54.890625 33.015625 
L 54.890625 0 
L 45.90625 0 
L 45.90625 32.71875 
Q 45.90625 40.484375 42.875 44.328125 
Q 39.84375 48.1875 33.796875 48.1875 
Q 26.515625 48.1875 22.3125 43.546875 
Q 18.109375 38.921875 18.109375 30.90625 
L 18.109375 0 
L 9.078125 0 
L 9.078125 75.984375 
L 18.109375 75.984375 
L 18.109375 46.1875 
Q 21.34375 51.125 25.703125 53.5625 
Q 30.078125 56 35.796875 56 
Q 45.21875 56 50.046875 50.171875 
Q 54.890625 44.34375 54.890625 33.015625 
z
" id="DejaVuSans-104"/>
       <path d="M 56.203125 29.59375 
L 56.203125 25.203125 
L 14.890625 25.203125 
Q 15.484375 15.921875 20.484375 11.0625 
Q 25.484375 6.203125 34.421875 6.203125 
Q 39.59375 6.203125 44.453125 7.46875 
Q 49.3125 8.734375 54.109375 11.28125 
L 54.109375 2.78125 
Q 49.265625 0.734375 44.1875 -0.34375 
Q 39.109375 -1.421875 33.890625 -1.421875 
Q 20.796875 -1.421875 13.15625 6.1875 
Q 5.515625 13.8125 5.515625 26.8125 
Q 5.515625 40.234375 12.765625 48.109375 
Q 20.015625 56 32.328125 56 
Q 43.359375 56 49.78125 48.890625 
Q 56.203125 41.796875 56.203125 29.59375 
z
M 47.21875 32.234375 
Q 47.125 39.59375 43.09375 43.984375 
Q 39.0625 48.390625 32.421875 48.390625 
Q 24.90625 48.390625 20.390625 44.140625 
Q 15.875 39.890625 15.1875 32.171875 
z
" id="DejaVuSans-101"/>
       <path d="M 34.28125 27.484375 
Q 23.390625 27.484375 19.1875 25 
Q 14.984375 22.515625 14.984375 16.5 
Q 14.984375 11.71875 18.140625 8.90625 
Q 21.296875 6.109375 26.703125 6.109375 
Q 34.1875 6.109375 38.703125 11.40625 
Q 43.21875 16.703125 43.21875 25.484375 
L 43.21875 27.484375 
z
M 52.203125 31.203125 
L 52.203125 0 
L 43.21875 0 
L 43.21875 8.296875 
Q 40.140625 3.328125 35.546875 0.953125 
Q 30.953125 -1.421875 24.3125 -1.421875 
Q 15.921875 -1.421875 10.953125 3.296875 
Q 6 8.015625 6 15.921875 
Q 6 25.140625 12.171875 29.828125 
Q 18.359375 34.515625 30.609375 34.515625 
L 43.21875 34.515625 
L 43.21875 35.40625 
Q 43.21875 41.609375 39.140625 45 
Q 35.0625 48.390625 27.6875 48.390625 
Q 23 48.390625 18.546875 47.265625 
Q 14.109375 46.140625 10.015625 43.890625 
L 10.015625 52.203125 
Q 14.9375 54.109375 19.578125 55.046875 
Q 24.21875 56 28.609375 56 
Q 40.484375 56 46.34375 49.84375 
Q 52.203125 43.703125 52.203125 31.203125 
z
" id="DejaVuSans-97"/>
       <path d="M 18.109375 8.203125 
L 18.109375 -20.796875 
L 9.078125 -20.796875 
L 9.078125 54.6875 
L 18.109375 54.6875 
L 18.109375 46.390625 
Q 20.953125 51.265625 25.265625 53.625 
Q 29.59375 56 35.59375 56 
Q 45.5625 56 51.78125 48.09375 
Q 58.015625 40.1875 58.015625 27.296875 
Q 58.015625 14.40625 51.78125 6.484375 
Q 45.5625 -1.421875 35.59375 -1.421875 
Q 29.59375 -1.421875 25.265625 0.953125 
Q 20.953125 3.328125 18.109375 8.203125 
z
M 48.6875 27.296875 
Q 48.6875 37.203125 44.609375 42.84375 
Q 40.53125 48.484375 33.40625 48.484375 
Q 26.265625 48.484375 22.1875 42.84375 
Q 18.109375 37.203125 18.109375 27.296875 
Q 18.109375 17.390625 22.1875 11.75 
Q 26.265625 6.109375 33.40625 6.109375 
Q 40.53125 6.109375 44.609375 11.75 
Q 48.6875 17.390625 48.6875 27.296875 
z
" id="DejaVuSans-112"/>
       <path d="M 59.515625 10.40625 
L 59.515625 29.984375 
L 43.40625 29.984375 
L 43.40625 38.09375 
L 69.28125 38.09375 
L 69.28125 6.78125 
Q 63.578125 2.734375 56.6875 0.65625 
Q 49.8125 -1.421875 42 -1.421875 
Q 24.90625 -1.421875 15.25 8.5625 
Q 5.609375 18.5625 5.609375 36.375 
Q 5.609375 54.25 15.25 64.234375 
Q 24.90625 74.21875 42 74.21875 
Q 49.125 74.21875 55.546875 72.453125 
Q 61.96875 70.703125 67.390625 67.28125 
L 67.390625 56.78125 
Q 61.921875 61.421875 55.765625 63.765625 
Q 49.609375 66.109375 42.828125 66.109375 
Q 29.4375 66.109375 22.71875 58.640625 
Q 16.015625 51.171875 16.015625 36.375 
Q 16.015625 21.625 22.71875 14.15625 
Q 29.4375 6.6875 42.828125 6.6875 
Q 48.046875 6.6875 52.140625 7.59375 
Q 56.25 8.5 59.515625 10.40625 
z
" id="DejaVuSans-71"/>
       <path d="M 19.671875 64.796875 
L 19.671875 37.40625 
L 32.078125 37.40625 
Q 38.96875 37.40625 42.71875 40.96875 
Q 46.484375 44.53125 46.484375 51.125 
Q 46.484375 57.671875 42.71875 61.234375 
Q 38.96875 64.796875 32.078125 64.796875 
z
M 9.8125 72.90625 
L 32.078125 72.90625 
Q 44.34375 72.90625 50.609375 67.359375 
Q 56.890625 61.8125 56.890625 51.125 
Q 56.890625 40.328125 50.609375 34.8125 
Q 44.34375 29.296875 32.078125 29.296875 
L 19.671875 29.296875 
L 19.671875 0 
L 9.8125 0 
z
" id="DejaVuSans-80"/>
       <path d="M 44.390625 34.1875 
Q 47.5625 33.109375 50.5625 29.59375 
Q 53.5625 26.078125 56.59375 19.921875 
L 66.609375 0 
L 56 0 
L 46.6875 18.703125 
Q 43.0625 26.03125 39.671875 28.421875 
Q 36.28125 30.8125 30.421875 30.8125 
L 19.671875 30.8125 
L 19.671875 0 
L 9.8125 0 
L 9.8125 72.90625 
L 32.078125 72.90625 
Q 44.578125 72.90625 50.734375 67.671875 
Q 56.890625 62.453125 56.890625 51.90625 
Q 56.890625 45.015625 53.6875 40.46875 
Q 50.484375 35.9375 44.390625 34.1875 
z
M 19.671875 64.796875 
L 19.671875 38.921875 
L 32.078125 38.921875 
Q 39.203125 38.921875 42.84375 42.21875 
Q 46.484375 45.515625 46.484375 51.90625 
Q 46.484375 58.296875 42.84375 61.546875 
Q 39.203125 64.796875 32.078125 64.796875 
z
" id="DejaVuSans-82"/>
       <path d="M 31 75.875 
Q 24.46875 64.65625 21.28125 53.65625 
Q 18.109375 42.671875 18.109375 31.390625 
Q 18.109375 20.125 21.3125 9.0625 
Q 24.515625 -2 31 -13.1875 
L 23.1875 -13.1875 
Q 15.875 -1.703125 12.234375 9.375 
Q 8.59375 20.453125 8.59375 31.390625 
Q 8.59375 42.28125 12.203125 53.3125 
Q 15.828125 64.359375 23.1875 75.875 
z
" id="DejaVuSans-40"/>
       <path d="M 41.109375 46.296875 
Q 39.59375 47.171875 37.8125 47.578125 
Q 36.03125 48 33.890625 48 
Q 26.265625 48 22.1875 43.046875 
Q 18.109375 38.09375 18.109375 28.8125 
L 18.109375 0 
L 9.078125 0 
L 9.078125 54.6875 
L 18.109375 54.6875 
L 18.109375 46.1875 
Q 20.953125 51.171875 25.484375 53.578125 
Q 30.03125 56 36.53125 56 
Q 37.453125 56 38.578125 55.875 
Q 39.703125 55.765625 41.0625 55.515625 
z
" id="DejaVuSans-114"/>
       <path d="M 45.40625 27.984375 
Q 45.40625 37.75 41.375 43.109375 
Q 37.359375 48.484375 30.078125 48.484375 
Q 22.859375 48.484375 18.828125 43.109375 
Q 14.796875 37.75 14.796875 27.984375 
Q 14.796875 18.265625 18.828125 12.890625 
Q 22.859375 7.515625 30.078125 7.515625 
Q 37.359375 7.515625 41.375 12.890625 
Q 45.40625 18.265625 45.40625 27.984375 
z
M 54.390625 6.78125 
Q 54.390625 -7.171875 48.1875 -13.984375 
Q 42 -20.796875 29.203125 -20.796875 
Q 24.46875 -20.796875 20.265625 -20.09375 
Q 16.0625 -19.390625 12.109375 -17.921875 
L 12.109375 -9.1875 
Q 16.0625 -11.328125 19.921875 -12.34375 
Q 23.78125 -13.375 27.78125 -13.375 
Q 36.625 -13.375 41.015625 -8.765625 
Q 45.40625 -4.15625 45.40625 5.171875 
L 45.40625 9.625 
Q 42.625 4.78125 38.28125 2.390625 
Q 33.9375 0 27.875 0 
Q 17.828125 0 11.671875 7.65625 
Q 5.515625 15.328125 5.515625 27.984375 
Q 5.515625 40.671875 11.671875 48.328125 
Q 17.828125 56 27.875 56 
Q 33.9375 56 38.28125 53.609375 
Q 42.625 51.21875 45.40625 46.390625 
L 45.40625 54.6875 
L 54.390625 54.6875 
z
" id="DejaVuSans-103"/>
       <path d="M 8.5 21.578125 
L 8.5 54.6875 
L 17.484375 54.6875 
L 17.484375 21.921875 
Q 17.484375 14.15625 20.5 10.265625 
Q 23.53125 6.390625 29.59375 6.390625 
Q 36.859375 6.390625 41.078125 11.03125 
Q 45.3125 15.671875 45.3125 23.6875 
L 45.3125 54.6875 
L 54.296875 54.6875 
L 54.296875 0 
L 45.3125 0 
L 45.3125 8.40625 
Q 42.046875 3.421875 37.71875 1 
Q 33.40625 -1.421875 27.6875 -1.421875 
Q 18.265625 -1.421875 13.375 4.4375 
Q 8.5 10.296875 8.5 21.578125 
z
M 31.109375 56 
z
" id="DejaVuSans-117"/>
       <path d="M 9.421875 75.984375 
L 18.40625 75.984375 
L 18.40625 0 
L 9.421875 0 
z
" id="DejaVuSans-108"/>
       <path d="M 8.015625 75.875 
L 15.828125 75.875 
Q 23.140625 64.359375 26.78125 53.3125 
Q 30.421875 42.28125 30.421875 31.390625 
Q 30.421875 20.453125 26.78125 9.375 
Q 23.140625 -1.703125 15.828125 -13.1875 
L 8.015625 -13.1875 
Q 14.5 -2 17.703125 9.0625 
Q 20.90625 20.125 20.90625 31.390625 
Q 20.90625 42.671875 17.703125 53.65625 
Q 14.5 64.65625 8.015625 75.875 
z
" id="DejaVuSans-41"/>
      </defs>
      <use xlink:href="#DejaVuSans-77"/>
      <use x="86.279297" xlink:href="#DejaVuSans-70"/>
      <use x="143.798828" xlink:href="#DejaVuSans-32"/>
      <use x="175.585938" xlink:href="#DejaVuSans-99"/>
      <use x="230.566406" xlink:href="#DejaVuSans-104"/>
      <use x="293.945312" xlink:href="#DejaVuSans-101"/>
      <use x="355.46875" xlink:href="#DejaVuSans-97"/>
      <use x="416.748047" xlink:href="#DejaVuSans-112"/>
      <use x="480.224609" xlink:href="#DejaVuSans-32"/>
      <use x="512.011719" xlink:href="#DejaVuSans-71"/>
      <use x="589.501953" xlink:href="#DejaVuSans-80"/>
      <use x="649.804688" xlink:href="#DejaVuSans-82"/>
      <use x="719.287109" xlink:href="#DejaVuSans-32"/>
      <use x="751.074219" xlink:href="#DejaVuSans-40"/>
      <use x="790.087891" xlink:href="#DejaVuSans-114"/>
      <use x="828.951172" xlink:href="#DejaVuSans-101"/>
      <use x="890.474609" xlink:href="#DejaVuSans-103"/>
      <use x="953.951172" xlink:href="#DejaVuSans-117"/>
      <use x="1017.330078" xlink:href="#DejaVuSans-108"/>
      <use x="1045.113281" xlink:href="#DejaVuSans-97"/>
      <use x="1106.392578" xlink:href="#DejaVuSans-114"/>
      <use x="1147.505859" xlink:href="#DejaVuSans-32"/>
      <use x="1179.292969" xlink:href="#DejaVuSans-71"/>
      <use x="1256.783203" xlink:href="#DejaVuSans-80"/>
      <use x="1317.085938" xlink:href="#DejaVuSans-82"/>
      <use x="1386.568359" xlink:href="#DejaVuSans-41"/>
     </g>
    </g>
    <g id="line2d_35">
     <path d="M 66.6 69.248563 
L 86.6 69.248563 
" style="fill:none;stroke:#ffa500;stroke-linecap:square;stroke-width:1.5;"/>
    </g>
    <g id="line2d_36"/>
    <g id="text_14">
     <!-- MF expensive GPR -->
     <g transform="translate(94.6 72.748563)scale(0.1 -0.1)">
      <defs>
       <path d="M 54.890625 54.6875 
L 35.109375 28.078125 
L 55.90625 0 
L 45.3125 0 
L 29.390625 21.484375 
L 13.484375 0 
L 2.875 0 
L 24.125 28.609375 
L 4.6875 54.6875 
L 15.28125 54.6875 
L 29.78125 35.203125 
L 44.28125 54.6875 
z
" id="DejaVuSans-120"/>
       <path d="M 54.890625 33.015625 
L 54.890625 0 
L 45.90625 0 
L 45.90625 32.71875 
Q 45.90625 40.484375 42.875 44.328125 
Q 39.84375 48.1875 33.796875 48.1875 
Q 26.515625 48.1875 22.3125 43.546875 
Q 18.109375 38.921875 18.109375 30.90625 
L 18.109375 0 
L 9.078125 0 
L 9.078125 54.6875 
L 18.109375 54.6875 
L 18.109375 46.1875 
Q 21.34375 51.125 25.703125 53.5625 
Q 30.078125 56 35.796875 56 
Q 45.21875 56 50.046875 50.171875 
Q 54.890625 44.34375 54.890625 33.015625 
z
" id="DejaVuSans-110"/>
       <path d="M 44.28125 53.078125 
L 44.28125 44.578125 
Q 40.484375 46.53125 36.375 47.5 
Q 32.28125 48.484375 27.875 48.484375 
Q 21.1875 48.484375 17.84375 46.4375 
Q 14.5 44.390625 14.5 40.28125 
Q 14.5 37.15625 16.890625 35.375 
Q 19.28125 33.59375 26.515625 31.984375 
L 29.59375 31.296875 
Q 39.15625 29.25 43.1875 25.515625 
Q 47.21875 21.78125 47.21875 15.09375 
Q 47.21875 7.46875 41.1875 3.015625 
Q 35.15625 -1.421875 24.609375 -1.421875 
Q 20.21875 -1.421875 15.453125 -0.5625 
Q 10.6875 0.296875 5.421875 2 
L 5.421875 11.28125 
Q 10.40625 8.6875 15.234375 7.390625 
Q 20.0625 6.109375 24.8125 6.109375 
Q 31.15625 6.109375 34.5625 8.28125 
Q 37.984375 10.453125 37.984375 14.40625 
Q 37.984375 18.0625 35.515625 20.015625 
Q 33.0625 21.96875 24.703125 23.78125 
L 21.578125 24.515625 
Q 13.234375 26.265625 9.515625 29.90625 
Q 5.8125 33.546875 5.8125 39.890625 
Q 5.8125 47.609375 11.28125 51.796875 
Q 16.75 56 26.8125 56 
Q 31.78125 56 36.171875 55.265625 
Q 40.578125 54.546875 44.28125 53.078125 
z
" id="DejaVuSans-115"/>
       <path d="M 9.421875 54.6875 
L 18.40625 54.6875 
L 18.40625 0 
L 9.421875 0 
z
M 9.421875 75.984375 
L 18.40625 75.984375 
L 18.40625 64.59375 
L 9.421875 64.59375 
z
" id="DejaVuSans-105"/>
       <path d="M 2.984375 54.6875 
L 12.5 54.6875 
L 29.59375 8.796875 
L 46.6875 54.6875 
L 56.203125 54.6875 
L 35.6875 0 
L 23.484375 0 
z
" id="DejaVuSans-118"/>
      </defs>
      <use xlink:href="#DejaVuSans-77"/>
      <use x="86.279297" xlink:href="#DejaVuSans-70"/>
      <use x="143.798828" xlink:href="#DejaVuSans-32"/>
      <use x="175.585938" xlink:href="#DejaVuSans-101"/>
      <use x="235.359375" xlink:href="#DejaVuSans-120"/>
      <use x="294.539062" xlink:href="#DejaVuSans-112"/>
      <use x="358.015625" xlink:href="#DejaVuSans-101"/>
      <use x="419.539062" xlink:href="#DejaVuSans-110"/>
      <use x="482.917969" xlink:href="#DejaVuSans-115"/>
      <use x="535.017578" xlink:href="#DejaVuSans-105"/>
      <use x="562.800781" xlink:href="#DejaVuSans-118"/>
      <use x="621.980469" xlink:href="#DejaVuSans-101"/>
      <use x="683.503906" xlink:href="#DejaVuSans-32"/>
      <use x="715.291016" xlink:href="#DejaVuSans-71"/>
      <use x="792.78125" xlink:href="#DejaVuSans-80"/>
      <use x="853.083984" xlink:href="#DejaVuSans-82"/>
     </g>
    </g>
    <g id="line2d_37">
     <path d="M 66.6 83.926688 
L 86.6 83.926688 
" style="fill:none;stroke:#0000ff;stroke-dasharray:5.55,2.4;stroke-dashoffset:0;stroke-width:1.5;"/>
    </g>
    <g id="line2d_38"/>
    <g id="text_15">
     <!-- Exact cheap function -->
     <g transform="translate(94.6 87.426688)scale(0.1 -0.1)">
      <defs>
       <path d="M 9.8125 72.90625 
L 55.90625 72.90625 
L 55.90625 64.59375 
L 19.671875 64.59375 
L 19.671875 43.015625 
L 54.390625 43.015625 
L 54.390625 34.71875 
L 19.671875 34.71875 
L 19.671875 8.296875 
L 56.78125 8.296875 
L 56.78125 0 
L 9.8125 0 
z
" id="DejaVuSans-69"/>
       <path d="M 18.3125 70.21875 
L 18.3125 54.6875 
L 36.8125 54.6875 
L 36.8125 47.703125 
L 18.3125 47.703125 
L 18.3125 18.015625 
Q 18.3125 11.328125 20.140625 9.421875 
Q 21.96875 7.515625 27.59375 7.515625 
L 36.8125 7.515625 
L 36.8125 0 
L 27.59375 0 
Q 17.1875 0 13.234375 3.875 
Q 9.28125 7.765625 9.28125 18.015625 
L 9.28125 47.703125 
L 2.6875 47.703125 
L 2.6875 54.6875 
L 9.28125 54.6875 
L 9.28125 70.21875 
z
" id="DejaVuSans-116"/>
       <path d="M 37.109375 75.984375 
L 37.109375 68.5 
L 28.515625 68.5 
Q 23.6875 68.5 21.796875 66.546875 
Q 19.921875 64.59375 19.921875 59.515625 
L 19.921875 54.6875 
L 34.71875 54.6875 
L 34.71875 47.703125 
L 19.921875 47.703125 
L 19.921875 0 
L 10.890625 0 
L 10.890625 47.703125 
L 2.296875 47.703125 
L 2.296875 54.6875 
L 10.890625 54.6875 
L 10.890625 58.5 
Q 10.890625 67.625 15.140625 71.796875 
Q 19.390625 75.984375 28.609375 75.984375 
z
" id="DejaVuSans-102"/>
       <path d="M 30.609375 48.390625 
Q 23.390625 48.390625 19.1875 42.75 
Q 14.984375 37.109375 14.984375 27.296875 
Q 14.984375 17.484375 19.15625 11.84375 
Q 23.34375 6.203125 30.609375 6.203125 
Q 37.796875 6.203125 41.984375 11.859375 
Q 46.1875 17.53125 46.1875 27.296875 
Q 46.1875 37.015625 41.984375 42.703125 
Q 37.796875 48.390625 30.609375 48.390625 
z
M 30.609375 56 
Q 42.328125 56 49.015625 48.375 
Q 55.71875 40.765625 55.71875 27.296875 
Q 55.71875 13.875 49.015625 6.21875 
Q 42.328125 -1.421875 30.609375 -1.421875 
Q 18.84375 -1.421875 12.171875 6.21875 
Q 5.515625 13.875 5.515625 27.296875 
Q 5.515625 40.765625 12.171875 48.375 
Q 18.84375 56 30.609375 56 
z
" id="DejaVuSans-111"/>
      </defs>
      <use xlink:href="#DejaVuSans-69"/>
      <use x="63.183594" xlink:href="#DejaVuSans-120"/>
      <use x="122.363281" xlink:href="#DejaVuSans-97"/>
      <use x="183.642578" xlink:href="#DejaVuSans-99"/>
      <use x="238.623047" xlink:href="#DejaVuSans-116"/>
      <use x="277.832031" xlink:href="#DejaVuSans-32"/>
      <use x="309.619141" xlink:href="#DejaVuSans-99"/>
      <use x="364.599609" xlink:href="#DejaVuSans-104"/>
      <use x="427.978516" xlink:href="#DejaVuSans-101"/>
      <use x="489.501953" xlink:href="#DejaVuSans-97"/>
      <use x="550.78125" xlink:href="#DejaVuSans-112"/>
      <use x="614.257812" xlink:href="#DejaVuSans-32"/>
      <use x="646.044922" xlink:href="#DejaVuSans-102"/>
      <use x="681.25" xlink:href="#DejaVuSans-117"/>
      <use x="744.628906" xlink:href="#DejaVuSans-110"/>
      <use x="808.007812" xlink:href="#DejaVuSans-99"/>
      <use x="862.988281" xlink:href="#DejaVuSans-116"/>
      <use x="902.197266" xlink:href="#DejaVuSans-105"/>
      <use x="929.980469" xlink:href="#DejaVuSans-111"/>
      <use x="991.162109" xlink:href="#DejaVuSans-110"/>
     </g>
    </g>
    <g id="line2d_39">
     <path d="M 66.6 98.604813 
L 86.6 98.604813 
" style="fill:none;stroke:#ffa500;stroke-dasharray:5.55,2.4;stroke-dashoffset:0;stroke-width:1.5;"/>
    </g>
    <g id="line2d_40"/>
    <g id="text_16">
     <!-- Exact expensive function -->
     <g transform="translate(94.6 102.104813)scale(0.1 -0.1)">
      <use xlink:href="#DejaVuSans-69"/>
      <use x="63.183594" xlink:href="#DejaVuSans-120"/>
      <use x="122.363281" xlink:href="#DejaVuSans-97"/>
      <use x="183.642578" xlink:href="#DejaVuSans-99"/>
      <use x="238.623047" xlink:href="#DejaVuSans-116"/>
      <use x="277.832031" xlink:href="#DejaVuSans-32"/>
      <use x="309.619141" xlink:href="#DejaVuSans-101"/>
      <use x="369.392578" xlink:href="#DejaVuSans-120"/>
      <use x="428.572266" xlink:href="#DejaVuSans-112"/>
      <use x="492.048828" xlink:href="#DejaVuSans-101"/>
      <use x="553.572266" xlink:href="#DejaVuSans-110"/>
      <use x="616.951172" xlink:href="#DejaVuSans-115"/>
      <use x="669.050781" xlink:href="#DejaVuSans-105"/>
      <use x="696.833984" xlink:href="#DejaVuSans-118"/>
      <use x="756.013672" xlink:href="#DejaVuSans-101"/>
      <use x="817.537109" xlink:href="#DejaVuSans-32"/>
      <use x="849.324219" xlink:href="#DejaVuSans-102"/>
      <use x="884.529297" xlink:href="#DejaVuSans-117"/>
      <use x="947.908203" xlink:href="#DejaVuSans-110"/>
      <use x="1011.287109" xlink:href="#DejaVuSans-99"/>
      <use x="1066.267578" xlink:href="#DejaVuSans-116"/>
      <use x="1105.476562" xlink:href="#DejaVuSans-105"/>
      <use x="1133.259766" xlink:href="#DejaVuSans-111"/>
      <use x="1194.441406" xlink:href="#DejaVuSans-110"/>
     </g>
    </g>
   </g>
  </g>
 </g>
 <defs>
  <clipPath id="pd403d980cc">
   <rect height="266.112" width="357.12" x="57.6" y="41.472"/>
  </clipPath>
 </defs>
</svg>
