<?xml version="1.0" encoding="utf-8" standalone="no"?>
<!DOCTYPE svg PUBLIC "-//W3C//DTD SVG 1.1//EN"
  "http://www.w3.org/Graphics/SVG/1.1/DTD/svg11.dtd">
<!-- Created with matplotlib (https://matplotlib.org/) -->
<svg height="345.6pt" version="1.1" viewBox="0 0 460.8 345.6" width="460.8pt" xmlns="http://www.w3.org/2000/svg" xmlns:xlink="http://www.w3.org/1999/xlink">
 <metadata>
  <rdf:RDF xmlns:cc="http://creativecommons.org/ns#" xmlns:dc="http://purl.org/dc/elements/1.1/" xmlns:rdf="http://www.w3.org/1999/02/22-rdf-syntax-ns#">
   <cc:Work>
    <dc:type rdf:resource="http://purl.org/dc/dcmitype/StillImage"/>
    <dc:date>2020-11-24T14:02:48.558042</dc:date>
    <dc:format>image/svg+xml</dc:format>
    <dc:creator>
     <cc:Agent>
      <dc:title>Matplotlib v3.3.1, https://matplotlib.org/</dc:title>
     </cc:Agent>
    </dc:creator>
   </cc:Work>
  </rdf:RDF>
 </metadata>
 <defs>
  <style type="text/css">*{stroke-linecap:butt;stroke-linejoin:round;}</style>
 </defs>
 <g id="figure_1">
  <g id="patch_1">
   <path d="M 0 345.6 
L 460.8 345.6 
L 460.8 0 
L 0 0 
z
" style="fill:#ffffff;"/>
  </g>
  <g id="axes_1">
   <g id="patch_2">
    <path d="M 57.6 307.584 
L 414.72 307.584 
L 414.72 41.472 
L 57.6 41.472 
z
" style="fill:#ffffff;"/>
   </g>
   <g id="PolyCollection_1">
    <defs>
     <path d="M 73.832727 -102.672478 
L 73.832727 -80.927669 
L 77.112066 -80.769994 
L 80.391405 -80.375934 
L 83.670744 -79.855366 
L 86.950083 -79.299576 
L 90.229421 -78.78033 
L 93.50876 -78.350136 
L 96.788099 -78.043534 
L 100.067438 -77.879199 
L 103.346777 -77.862584 
L 106.626116 -77.988858 
L 109.905455 -78.245874 
L 113.184793 -78.616949 
L 116.464132 -79.083293 
L 119.743471 -79.625965 
L 123.02281 -80.227314 
L 126.302149 -80.871889 
L 129.581488 -81.54689 
L 132.860826 -82.242217 
L 136.140165 -82.950249 
L 139.419504 -83.665438 
L 142.698843 -84.383837 
L 145.978182 -85.102648 
L 149.257521 -85.819843 
L 152.53686 -86.533899 
L 155.816198 -87.243672 
L 159.095537 -87.948368 
L 162.374876 -88.64761 
L 165.654215 -89.341548 
L 168.933554 -90.030978 
L 172.212893 -90.71742 
L 175.492231 -91.40314 
L 178.77157 -92.09109 
L 182.050909 -92.784762 
L 185.330248 -93.487954 
L 188.609587 -94.204481 
L 191.888926 -94.937836 
L 195.168264 -95.690844 
L 198.447603 -96.465317 
L 201.726942 -97.261761 
L 205.006281 -98.079127 
L 208.28562 -98.914645 
L 211.564959 -99.763741 
L 214.844298 -100.620036 
L 218.123636 -101.475435 
L 221.402975 -102.320295 
L 224.682314 -103.143669 
L 227.961653 -103.933609 
L 231.240992 -104.677517 
L 234.520331 -105.362547 
L 237.799669 -105.976017 
L 241.079008 -106.505849 
L 244.358347 -106.940995 
L 247.637686 -107.271862 
L 250.917025 -107.490708 
L 254.196364 -107.591999 
L 257.475702 -107.57273 
L 260.755041 -107.432685 
L 264.03438 -107.174643 
L 267.313719 -106.804528 
L 270.593058 -106.33149 
L 273.872397 -105.767929 
L 277.151736 -105.129449 
L 280.431074 -104.434761 
L 283.710413 -103.705507 
L 286.989752 -102.966021 
L 290.269091 -102.243014 
L 293.54843 -101.565166 
L 296.827769 -100.96264 
L 300.107107 -100.466485 
L 303.386446 -100.107959 
L 306.665785 -99.91775 
L 309.945124 -99.925144 
L 313.224463 -100.157142 
L 316.503802 -100.637588 
L 319.78314 -101.386343 
L 323.062479 -102.418581 
L 326.341818 -103.744232 
L 329.621157 -105.367661 
L 332.900496 -107.287586 
L 336.179835 -109.497279 
L 339.459174 -111.985013 
L 342.738512 -114.734743 
L 346.017851 -117.726932 
L 349.29719 -120.939433 
L 352.576529 -124.348307 
L 355.855868 -127.928455 
L 359.135207 -131.65394 
L 362.414545 -135.497894 
L 365.693884 -139.431944 
L 368.973223 -143.425135 
L 372.252562 -147.442374 
L 375.531901 -151.442507 
L 378.81124 -155.376155 
L 382.090579 -159.183533 
L 385.369917 -162.792479 
L 388.649256 -166.116943 
L 391.928595 -169.056187 
L 395.207934 -171.494908 
L 398.487273 -173.304451 
L 398.487273 -195.049261 
L 398.487273 -195.049261 
L 395.207934 -191.636465 
L 391.928595 -188.29753 
L 388.649256 -184.949764 
L 385.369917 -181.53151 
L 382.090579 -178.002671 
L 378.81124 -174.344007 
L 375.531901 -170.55535 
L 372.252562 -166.652982 
L 368.973223 -162.666444 
L 365.693884 -158.63504 
L 362.414545 -154.604315 
L 359.135207 -150.622737 
L 355.855868 -146.738745 
L 352.576529 -142.998321 
L 349.29719 -139.443119 
L 346.017851 -136.109187 
L 342.738512 -133.026209 
L 339.459174 -130.21723 
L 336.179835 -127.698729 
L 332.900496 -125.480949 
L 329.621157 -123.568388 
L 326.341818 -121.960342 
L 323.062479 -120.651452 
L 319.78314 -119.632205 
L 316.503802 -118.889367 
L 313.224463 -118.406365 
L 309.945124 -118.163614 
L 306.665785 -118.138841 
L 303.386446 -118.307415 
L 300.107107 -118.642724 
L 296.827769 -119.116607 
L 293.54843 -119.699854 
L 290.269091 -120.362766 
L 286.989752 -121.075768 
L 283.710413 -121.810039 
L 280.431074 -122.538144 
L 277.151736 -123.23463 
L 273.872397 -123.876558 
L 270.593058 -124.443949 
L 267.313719 -124.920123 
L 264.03438 -125.29192 
L 260.755041 -125.549799 
L 257.475702 -125.687821 
L 254.196364 -125.703515 
L 250.917025 -125.597651 
L 247.637686 -125.373932 
L 244.358347 -125.038615 
L 241.079008 -124.600091 
L 237.799669 -124.068441 
L 234.520331 -123.454971 
L 231.240992 -122.771759 
L 227.961653 -122.031228 
L 224.682314 -121.245739 
L 221.402975 -120.427238 
L 218.123636 -119.58695 
L 214.844298 -118.735127 
L 211.564959 -117.880856 
L 208.28562 -117.031922 
L 205.006281 -116.194722 
L 201.726942 -115.37422 
L 198.447603 -114.573947 
L 195.168264 -113.796025 
L 191.888926 -113.041219 
L 188.609587 -112.309013 
L 185.330248 -111.597701 
L 182.050909 -110.904515 
L 178.77157 -110.225778 
L 175.492231 -109.557107 
L 172.212893 -108.893659 
L 168.933554 -108.230435 
L 165.654215 -107.562639 
L 162.374876 -106.88608 
L 159.095537 -106.197591 
L 155.816198 -105.495452 
L 152.53686 -104.779761 
L 149.257521 -104.052714 
L 145.978182 -103.318759 
L 142.698843 -102.584565 
L 139.419504 -101.8588 
L 136.140165 -101.151699 
L 132.860826 -100.474435 
L 129.581488 -99.838356 
L 126.302149 -99.254144 
L 123.02281 -98.731 
L 119.743471 -98.275979 
L 116.464132 -97.893583 
L 113.184793 -97.585746 
L 109.905455 -97.352296 
L 106.626116 -97.191954 
L 103.346777 -97.103894 
L 100.067438 -97.089807 
L 96.788099 -97.156377 
L 93.50876 -97.317988 
L 90.229421 -97.599468 
L 86.950083 -98.038607 
L 83.670744 -98.688187 
L 80.391405 -99.617277 
L 77.112066 -100.911551 
L 73.832727 -102.672478 
z
" id="m1d5b8e61d9" style="stroke:#0000ff;stroke-opacity:0.2;"/>
    </defs>
    <g clip-path="url(#p22fa84f08b)">
     <use style="fill:#0000ff;fill-opacity:0.2;stroke:#0000ff;stroke-opacity:0.2;" x="0" xlink:href="#m1d5b8e61d9" y="345.6"/>
    </g>
   </g>
   <g id="PolyCollection_2">
    <defs>
     <path d="M 73.832727 -219.25843 
L 73.832727 -93.326136 
L 77.112066 -93.877776 
L 80.391405 -92.705423 
L 83.670744 -90.430293 
L 86.950083 -87.570669 
L 90.229421 -84.536706 
L 93.50876 -81.63207 
L 96.788099 -79.061403 
L 100.067438 -76.942365 
L 103.346777 -75.320762 
L 106.626116 -74.1872 
L 109.905455 -73.493856 
L 113.184793 -73.170049 
L 116.464132 -73.135693 
L 119.743471 -73.311965 
L 123.02281 -73.62888 
L 126.302149 -74.029828 
L 129.581488 -74.473374 
L 132.860826 -74.932799 
L 136.140165 -75.394032 
L 139.419504 -75.852638 
L 142.698843 -76.31045 
L 145.978182 -76.772413 
L 149.257521 -77.243975 
L 152.53686 -77.72929 
L 155.816198 -78.230284 
L 159.095537 -78.74651 
L 162.374876 -79.275694 
L 165.654215 -79.814628 
L 168.933554 -80.360313 
L 172.212893 -80.910978 
L 175.492231 -81.466891 
L 178.77157 -82.030791 
L 182.050909 -82.607881 
L 185.330248 -83.205408 
L 188.609587 -83.831876 
L 191.888926 -84.49602 
L 195.168264 -85.205618 
L 198.447603 -85.966327 
L 201.726942 -86.780595 
L 205.006281 -87.646819 
L 208.28562 -88.558712 
L 211.564959 -89.505016 
L 214.844298 -90.469505 
L 218.123636 -91.431265 
L 221.402975 -92.365247 
L 224.682314 -93.24302 
L 227.961653 -94.033698 
L 231.240992 -94.70496 
L 234.520331 -95.224161 
L 237.799669 -95.559437 
L 241.079008 -95.680814 
L 244.358347 -95.561237 
L 247.637686 -95.177541 
L 250.917025 -94.51128 
L 254.196364 -93.549464 
L 257.475702 -92.285128 
L 260.755041 -90.717786 
L 264.03438 -88.853749 
L 267.313719 -86.706339 
L 270.593058 -84.296008 
L 273.872397 -81.6504 
L 277.151736 -78.804353 
L 280.431074 -75.799836 
L 283.710413 -72.685837 
L 286.989752 -69.518117 
L 290.269091 -66.358828 
L 293.54843 -63.275853 
L 296.827769 -60.341862 
L 300.107107 -57.632971 
L 303.386446 -55.226955 
L 306.665785 -53.201053 
L 309.945124 -51.629355 
L 313.224463 -50.579962 
L 316.503802 -50.112 
L 319.78314 -50.272852 
L 323.062479 -51.095747 
L 326.341818 -52.598103 
L 329.621157 -54.78081 
L 332.900496 -57.628653 
L 336.179835 -61.111956 
L 339.459174 -65.189369 
L 342.738512 -69.811569 
L 346.017851 -74.925463 
L 349.29719 -80.478379 
L 352.576529 -86.421541 
L 355.855868 -92.712177 
L 359.135207 -99.313581 
L 362.414545 -106.192549 
L 365.693884 -113.313872 
L 368.973223 -120.631796 
L 372.252562 -128.078678 
L 375.531901 -135.551452 
L 378.81124 -142.896824 
L 382.090579 -149.896409 
L 385.369917 -156.253247 
L 388.649256 -161.581169 
L 391.928595 -165.398511 
L 395.207934 -167.12742 
L 398.487273 -166.099706 
L 398.487273 -292.032 
L 398.487273 -292.032 
L 395.207934 -283.774679 
L 391.928595 -276.832296 
L 388.649256 -270.649052 
L 385.369917 -264.777954 
L 382.090579 -258.885048 
L 378.81124 -252.746723 
L 375.531901 -246.241044 
L 372.252562 -239.334466 
L 368.973223 -232.065388 
L 365.693884 -224.526152 
L 362.414545 -216.844955 
L 359.135207 -209.168951 
L 355.855868 -201.649574 
L 352.576529 -194.430718 
L 349.29719 -187.64012 
L 346.017851 -181.383947 
L 342.738512 -175.744263 
L 339.459174 -170.778932 
L 336.179835 -166.523332 
L 332.900496 -162.993194 
L 329.621157 -160.188005 
L 326.341818 -158.094383 
L 323.062479 -156.689097 
L 319.78314 -155.941431 
L 316.503802 -155.814856 
L 313.224463 -156.26801 
L 309.945124 -157.25513 
L 306.665785 -158.726179 
L 303.386446 -160.626788 
L 300.107107 -162.898343 
L 296.827769 -165.478253 
L 293.54843 -168.300586 
L 290.269091 -171.297065 
L 286.989752 -174.398406 
L 283.710413 -177.535925 
L 280.431074 -180.64327 
L 277.151736 -183.6582 
L 273.872397 -186.524218 
L 270.593058 -189.192005 
L 267.313719 -191.6205 
L 264.03438 -193.777651 
L 260.755041 -195.640746 
L 257.475702 -197.196366 
L 254.196364 -198.439996 
L 250.917025 -199.375334 
L 247.637686 -200.013371 
L 244.358347 -200.371295 
L 241.079008 -200.471313 
L 237.799669 -200.339406 
L 234.520331 -200.004129 
L 231.240992 -199.49546 
L 227.961653 -198.843757 
L 224.682314 -198.07885 
L 221.402975 -197.229301 
L 218.123636 -196.321797 
L 214.844298 -195.380743 
L 211.564959 -194.427976 
L 208.28562 -193.482614 
L 205.006281 -192.56098 
L 201.726942 -191.676592 
L 198.447603 -190.840146 
L 195.168264 -190.059465 
L 191.888926 -189.339454 
L 188.609587 -188.681965 
L 185.330248 -188.085697 
L 182.050909 -187.546118 
L 178.77157 -187.055524 
L 175.492231 -186.603282 
L 172.212893 -186.176351 
L 168.933554 -185.760146 
L 165.654215 -185.339754 
L 162.374876 -184.901469 
L 159.095537 -184.434558 
L 155.816198 -183.933139 
L 152.53686 -183.39787 
L 149.257521 -182.837326 
L 145.978182 -182.268694 
L 142.698843 -181.717645 
L 139.419504 -181.217179 
L 136.140165 -180.805408 
L 132.860826 -180.522362 
L 129.581488 -180.406069 
L 126.302149 -180.488312 
L 123.02281 -180.790621 
L 119.743471 -181.321142 
L 116.464132 -182.07309 
L 113.184793 -183.025419 
L 109.905455 -184.146263 
L 106.626116 -185.39948 
L 103.346777 -186.754354 
L 100.067438 -188.198153 
L 96.788099 -189.750995 
L 93.50876 -191.481969 
L 90.229421 -193.525345 
L 86.950083 -196.095376 
L 83.670744 -199.498177 
L 80.391405 -204.139208 
L 77.112066 -210.525035 
L 73.832727 -219.25843 
z
" id="mcc6d8c8810" style="stroke:#ffa500;stroke-opacity:0.2;"/>
    </defs>
    <g clip-path="url(#p22fa84f08b)">
     <use style="fill:#ffa500;fill-opacity:0.2;stroke:#ffa500;stroke-opacity:0.2;" x="0" xlink:href="#mcc6d8c8810" y="345.6"/>
    </g>
   </g>
   <g id="PathCollection_1">
    <defs>
     <path d="M 0 3 
C 0.795609 3 1.55874 2.683901 2.12132 2.12132 
C 2.683901 1.55874 3 0.795609 3 0 
C 3 -0.795609 2.683901 -1.55874 2.12132 -2.12132 
C 1.55874 -2.683901 0.795609 -3 0 -3 
C -0.795609 -3 -1.55874 -2.683901 -2.12132 -2.12132 
C -2.683901 -1.55874 -3 -0.795609 -3 0 
C -3 0.795609 -2.683901 1.55874 -2.12132 2.12132 
C -1.55874 2.683901 -0.795609 3 0 3 
z
" id="med0db01893" style="stroke:#0000ff;"/>
    </defs>
    <g clip-path="url(#p22fa84f08b)">
     <use style="fill:#0000ff;stroke:#0000ff;" x="73.832727" xlink:href="#med0db01893" y="253.898502"/>
     <use style="fill:#0000ff;stroke:#0000ff;" x="106.298182" xlink:href="#med0db01893" y="258.683947"/>
     <use style="fill:#0000ff;stroke:#0000ff;" x="138.763636" xlink:href="#med0db01893" y="252.951913"/>
     <use style="fill:#0000ff;stroke:#0000ff;" x="171.229091" xlink:href="#med0db01893" y="245.493886"/>
     <use style="fill:#0000ff;stroke:#0000ff;" x="203.694545" xlink:href="#med0db01893" y="239.439265"/>
     <use style="fill:#0000ff;stroke:#0000ff;" x="236.16" xlink:href="#med0db01893" y="231.497034"/>
     <use style="fill:#0000ff;stroke:#0000ff;" x="268.625455" xlink:href="#med0db01893" y="228.821891"/>
     <use style="fill:#0000ff;stroke:#0000ff;" x="301.090909" xlink:href="#med0db01893" y="235.802921"/>
     <use style="fill:#0000ff;stroke:#0000ff;" x="333.556364" xlink:href="#med0db01893" y="231.094676"/>
     <use style="fill:#0000ff;stroke:#0000ff;" x="366.021818" xlink:href="#med0db01893" y="195.11096"/>
     <use style="fill:#0000ff;stroke:#0000ff;" x="398.487273" xlink:href="#med0db01893" y="160.671341"/>
    </g>
   </g>
   <g id="PathCollection_2">
    <defs>
     <path d="M 0 3 
C 0.795609 3 1.55874 2.683901 2.12132 2.12132 
C 2.683901 1.55874 3 0.795609 3 0 
C 3 -0.795609 2.683901 -1.55874 2.12132 -2.12132 
C 1.55874 -2.683901 0.795609 -3 0 -3 
C -0.795609 -3 -1.55874 -2.683901 -2.12132 -2.12132 
C -2.683901 -1.55874 -3 -0.795609 -3 0 
C -3 0.795609 -2.683901 1.55874 -2.12132 2.12132 
C -1.55874 2.683901 -0.795609 3 0 3 
z
" id="mdb7630b1bc" style="stroke:#ffa500;"/>
    </defs>
    <g clip-path="url(#p22fa84f08b)">
     <use style="fill:#ffa500;stroke:#ffa500;" x="73.832727" xlink:href="#mdb7630b1bc" y="189.306113"/>
     <use style="fill:#ffa500;stroke:#ffa500;" x="203.694545" xlink:href="#mdb7630b1bc" y="205.860807"/>
     <use style="fill:#ffa500;stroke:#ffa500;" x="268.625455" xlink:href="#mdb7630b1bc" y="207.362642"/>
     <use style="fill:#ffa500;stroke:#ffa500;" x="333.556364" xlink:href="#mdb7630b1bc" y="234.644796"/>
     <use style="fill:#ffa500;stroke:#ffa500;" x="398.487273" xlink:href="#mdb7630b1bc" y="116.53471"/>
    </g>
   </g>
   <g id="matplotlib.axis_1">
    <g id="xtick_1">
     <g id="line2d_1">
      <path clip-path="url(#p22fa84f08b)" d="M 73.832727 307.584 
L 73.832727 41.472 
" style="fill:none;stroke:#b0b0b0;stroke-linecap:square;stroke-width:0.8;"/>
     </g>
     <g id="line2d_2">
      <defs>
       <path d="M 0 0 
L 0 3.5 
" id="m68bfbf740c" style="stroke:#000000;stroke-width:0.8;"/>
      </defs>
      <g>
       <use style="stroke:#000000;stroke-width:0.8;" x="73.832727" xlink:href="#m68bfbf740c" y="307.584"/>
      </g>
     </g>
     <g id="text_1">
      <!-- 0.0 -->
      <g transform="translate(65.881165 322.182437)scale(0.1 -0.1)">
       <defs>
        <path d="M 31.78125 66.40625 
Q 24.171875 66.40625 20.328125 58.90625 
Q 16.5 51.421875 16.5 36.375 
Q 16.5 21.390625 20.328125 13.890625 
Q 24.171875 6.390625 31.78125 6.390625 
Q 39.453125 6.390625 43.28125 13.890625 
Q 47.125 21.390625 47.125 36.375 
Q 47.125 51.421875 43.28125 58.90625 
Q 39.453125 66.40625 31.78125 66.40625 
z
M 31.78125 74.21875 
Q 44.046875 74.21875 50.515625 64.515625 
Q 56.984375 54.828125 56.984375 36.375 
Q 56.984375 17.96875 50.515625 8.265625 
Q 44.046875 -1.421875 31.78125 -1.421875 
Q 19.53125 -1.421875 13.0625 8.265625 
Q 6.59375 17.96875 6.59375 36.375 
Q 6.59375 54.828125 13.0625 64.515625 
Q 19.53125 74.21875 31.78125 74.21875 
z
" id="DejaVuSans-48"/>
        <path d="M 10.6875 12.40625 
L 21 12.40625 
L 21 0 
L 10.6875 0 
z
" id="DejaVuSans-46"/>
       </defs>
       <use xlink:href="#DejaVuSans-48"/>
       <use x="63.623047" xlink:href="#DejaVuSans-46"/>
       <use x="95.410156" xlink:href="#DejaVuSans-48"/>
      </g>
     </g>
    </g>
    <g id="xtick_2">
     <g id="line2d_3">
      <path clip-path="url(#p22fa84f08b)" d="M 138.763636 307.584 
L 138.763636 41.472 
" style="fill:none;stroke:#b0b0b0;stroke-linecap:square;stroke-width:0.8;"/>
     </g>
     <g id="line2d_4">
      <g>
       <use style="stroke:#000000;stroke-width:0.8;" x="138.763636" xlink:href="#m68bfbf740c" y="307.584"/>
      </g>
     </g>
     <g id="text_2">
      <!-- 0.2 -->
      <g transform="translate(130.812074 322.182437)scale(0.1 -0.1)">
       <defs>
        <path d="M 19.1875 8.296875 
L 53.609375 8.296875 
L 53.609375 0 
L 7.328125 0 
L 7.328125 8.296875 
Q 12.9375 14.109375 22.625 23.890625 
Q 32.328125 33.6875 34.8125 36.53125 
Q 39.546875 41.84375 41.421875 45.53125 
Q 43.3125 49.21875 43.3125 52.78125 
Q 43.3125 58.59375 39.234375 62.25 
Q 35.15625 65.921875 28.609375 65.921875 
Q 23.96875 65.921875 18.8125 64.3125 
Q 13.671875 62.703125 7.8125 59.421875 
L 7.8125 69.390625 
Q 13.765625 71.78125 18.9375 73 
Q 24.125 74.21875 28.421875 74.21875 
Q 39.75 74.21875 46.484375 68.546875 
Q 53.21875 62.890625 53.21875 53.421875 
Q 53.21875 48.921875 51.53125 44.890625 
Q 49.859375 40.875 45.40625 35.40625 
Q 44.1875 33.984375 37.640625 27.21875 
Q 31.109375 20.453125 19.1875 8.296875 
z
" id="DejaVuSans-50"/>
       </defs>
       <use xlink:href="#DejaVuSans-48"/>
       <use x="63.623047" xlink:href="#DejaVuSans-46"/>
       <use x="95.410156" xlink:href="#DejaVuSans-50"/>
      </g>
     </g>
    </g>
    <g id="xtick_3">
     <g id="line2d_5">
      <path clip-path="url(#p22fa84f08b)" d="M 203.694545 307.584 
L 203.694545 41.472 
" style="fill:none;stroke:#b0b0b0;stroke-linecap:square;stroke-width:0.8;"/>
     </g>
     <g id="line2d_6">
      <g>
       <use style="stroke:#000000;stroke-width:0.8;" x="203.694545" xlink:href="#m68bfbf740c" y="307.584"/>
      </g>
     </g>
     <g id="text_3">
      <!-- 0.4 -->
      <g transform="translate(195.742983 322.182437)scale(0.1 -0.1)">
       <defs>
        <path d="M 37.796875 64.3125 
L 12.890625 25.390625 
L 37.796875 25.390625 
z
M 35.203125 72.90625 
L 47.609375 72.90625 
L 47.609375 25.390625 
L 58.015625 25.390625 
L 58.015625 17.1875 
L 47.609375 17.1875 
L 47.609375 0 
L 37.796875 0 
L 37.796875 17.1875 
L 4.890625 17.1875 
L 4.890625 26.703125 
z
" id="DejaVuSans-52"/>
       </defs>
       <use xlink:href="#DejaVuSans-48"/>
       <use x="63.623047" xlink:href="#DejaVuSans-46"/>
       <use x="95.410156" xlink:href="#DejaVuSans-52"/>
      </g>
     </g>
    </g>
    <g id="xtick_4">
     <g id="line2d_7">
      <path clip-path="url(#p22fa84f08b)" d="M 268.625455 307.584 
L 268.625455 41.472 
" style="fill:none;stroke:#b0b0b0;stroke-linecap:square;stroke-width:0.8;"/>
     </g>
     <g id="line2d_8">
      <g>
       <use style="stroke:#000000;stroke-width:0.8;" x="268.625455" xlink:href="#m68bfbf740c" y="307.584"/>
      </g>
     </g>
     <g id="text_4">
      <!-- 0.6 -->
      <g transform="translate(260.673892 322.182437)scale(0.1 -0.1)">
       <defs>
        <path d="M 33.015625 40.375 
Q 26.375 40.375 22.484375 35.828125 
Q 18.609375 31.296875 18.609375 23.390625 
Q 18.609375 15.53125 22.484375 10.953125 
Q 26.375 6.390625 33.015625 6.390625 
Q 39.65625 6.390625 43.53125 10.953125 
Q 47.40625 15.53125 47.40625 23.390625 
Q 47.40625 31.296875 43.53125 35.828125 
Q 39.65625 40.375 33.015625 40.375 
z
M 52.59375 71.296875 
L 52.59375 62.3125 
Q 48.875 64.0625 45.09375 64.984375 
Q 41.3125 65.921875 37.59375 65.921875 
Q 27.828125 65.921875 22.671875 59.328125 
Q 17.53125 52.734375 16.796875 39.40625 
Q 19.671875 43.65625 24.015625 45.921875 
Q 28.375 48.1875 33.59375 48.1875 
Q 44.578125 48.1875 50.953125 41.515625 
Q 57.328125 34.859375 57.328125 23.390625 
Q 57.328125 12.15625 50.6875 5.359375 
Q 44.046875 -1.421875 33.015625 -1.421875 
Q 20.359375 -1.421875 13.671875 8.265625 
Q 6.984375 17.96875 6.984375 36.375 
Q 6.984375 53.65625 15.1875 63.9375 
Q 23.390625 74.21875 37.203125 74.21875 
Q 40.921875 74.21875 44.703125 73.484375 
Q 48.484375 72.75 52.59375 71.296875 
z
" id="DejaVuSans-54"/>
       </defs>
       <use xlink:href="#DejaVuSans-48"/>
       <use x="63.623047" xlink:href="#DejaVuSans-46"/>
       <use x="95.410156" xlink:href="#DejaVuSans-54"/>
      </g>
     </g>
    </g>
    <g id="xtick_5">
     <g id="line2d_9">
      <path clip-path="url(#p22fa84f08b)" d="M 333.556364 307.584 
L 333.556364 41.472 
" style="fill:none;stroke:#b0b0b0;stroke-linecap:square;stroke-width:0.8;"/>
     </g>
     <g id="line2d_10">
      <g>
       <use style="stroke:#000000;stroke-width:0.8;" x="333.556364" xlink:href="#m68bfbf740c" y="307.584"/>
      </g>
     </g>
     <g id="text_5">
      <!-- 0.8 -->
      <g transform="translate(325.604801 322.182437)scale(0.1 -0.1)">
       <defs>
        <path d="M 31.78125 34.625 
Q 24.75 34.625 20.71875 30.859375 
Q 16.703125 27.09375 16.703125 20.515625 
Q 16.703125 13.921875 20.71875 10.15625 
Q 24.75 6.390625 31.78125 6.390625 
Q 38.8125 6.390625 42.859375 10.171875 
Q 46.921875 13.96875 46.921875 20.515625 
Q 46.921875 27.09375 42.890625 30.859375 
Q 38.875 34.625 31.78125 34.625 
z
M 21.921875 38.8125 
Q 15.578125 40.375 12.03125 44.71875 
Q 8.5 49.078125 8.5 55.328125 
Q 8.5 64.0625 14.71875 69.140625 
Q 20.953125 74.21875 31.78125 74.21875 
Q 42.671875 74.21875 48.875 69.140625 
Q 55.078125 64.0625 55.078125 55.328125 
Q 55.078125 49.078125 51.53125 44.71875 
Q 48 40.375 41.703125 38.8125 
Q 48.828125 37.15625 52.796875 32.3125 
Q 56.78125 27.484375 56.78125 20.515625 
Q 56.78125 9.90625 50.3125 4.234375 
Q 43.84375 -1.421875 31.78125 -1.421875 
Q 19.734375 -1.421875 13.25 4.234375 
Q 6.78125 9.90625 6.78125 20.515625 
Q 6.78125 27.484375 10.78125 32.3125 
Q 14.796875 37.15625 21.921875 38.8125 
z
M 18.3125 54.390625 
Q 18.3125 48.734375 21.84375 45.5625 
Q 25.390625 42.390625 31.78125 42.390625 
Q 38.140625 42.390625 41.71875 45.5625 
Q 45.3125 48.734375 45.3125 54.390625 
Q 45.3125 60.0625 41.71875 63.234375 
Q 38.140625 66.40625 31.78125 66.40625 
Q 25.390625 66.40625 21.84375 63.234375 
Q 18.3125 60.0625 18.3125 54.390625 
z
" id="DejaVuSans-56"/>
       </defs>
       <use xlink:href="#DejaVuSans-48"/>
       <use x="63.623047" xlink:href="#DejaVuSans-46"/>
       <use x="95.410156" xlink:href="#DejaVuSans-56"/>
      </g>
     </g>
    </g>
    <g id="xtick_6">
     <g id="line2d_11">
      <path clip-path="url(#p22fa84f08b)" d="M 398.487273 307.584 
L 398.487273 41.472 
" style="fill:none;stroke:#b0b0b0;stroke-linecap:square;stroke-width:0.8;"/>
     </g>
     <g id="line2d_12">
      <g>
       <use style="stroke:#000000;stroke-width:0.8;" x="398.487273" xlink:href="#m68bfbf740c" y="307.584"/>
      </g>
     </g>
     <g id="text_6">
      <!-- 1.0 -->
      <g transform="translate(390.53571 322.182437)scale(0.1 -0.1)">
       <defs>
        <path d="M 12.40625 8.296875 
L 28.515625 8.296875 
L 28.515625 63.921875 
L 10.984375 60.40625 
L 10.984375 69.390625 
L 28.421875 72.90625 
L 38.28125 72.90625 
L 38.28125 8.296875 
L 54.390625 8.296875 
L 54.390625 0 
L 12.40625 0 
z
" id="DejaVuSans-49"/>
       </defs>
       <use xlink:href="#DejaVuSans-49"/>
       <use x="63.623047" xlink:href="#DejaVuSans-46"/>
       <use x="95.410156" xlink:href="#DejaVuSans-48"/>
      </g>
     </g>
    </g>
   </g>
   <g id="matplotlib.axis_2">
    <g id="ytick_1">
     <g id="line2d_13">
      <path clip-path="url(#p22fa84f08b)" d="M 57.6 263.92309 
L 414.72 263.92309 
" style="fill:none;stroke:#b0b0b0;stroke-linecap:square;stroke-width:0.8;"/>
     </g>
     <g id="line2d_14">
      <defs>
       <path d="M 0 0 
L -3.5 0 
" id="m5e6d353ceb" style="stroke:#000000;stroke-width:0.8;"/>
      </defs>
      <g>
       <use style="stroke:#000000;stroke-width:0.8;" x="57.6" xlink:href="#m5e6d353ceb" y="263.92309"/>
      </g>
     </g>
     <g id="text_7">
      <!-- −10 -->
      <g transform="translate(29.495313 267.722309)scale(0.1 -0.1)">
       <defs>
        <path d="M 10.59375 35.5 
L 73.1875 35.5 
L 73.1875 27.203125 
L 10.59375 27.203125 
z
" id="DejaVuSans-8722"/>
       </defs>
       <use xlink:href="#DejaVuSans-8722"/>
       <use x="83.789062" xlink:href="#DejaVuSans-49"/>
       <use x="147.412109" xlink:href="#DejaVuSans-48"/>
      </g>
     </g>
    </g>
    <g id="ytick_2">
     <g id="line2d_15">
      <path clip-path="url(#p22fa84f08b)" d="M 57.6 207.081631 
L 414.72 207.081631 
" style="fill:none;stroke:#b0b0b0;stroke-linecap:square;stroke-width:0.8;"/>
     </g>
     <g id="line2d_16">
      <g>
       <use style="stroke:#000000;stroke-width:0.8;" x="57.6" xlink:href="#m5e6d353ceb" y="207.081631"/>
      </g>
     </g>
     <g id="text_8">
      <!-- 0 -->
      <g transform="translate(44.2375 210.880849)scale(0.1 -0.1)">
       <use xlink:href="#DejaVuSans-48"/>
      </g>
     </g>
    </g>
    <g id="ytick_3">
     <g id="line2d_17">
      <path clip-path="url(#p22fa84f08b)" d="M 57.6 150.240171 
L 414.72 150.240171 
" style="fill:none;stroke:#b0b0b0;stroke-linecap:square;stroke-width:0.8;"/>
     </g>
     <g id="line2d_18">
      <g>
       <use style="stroke:#000000;stroke-width:0.8;" x="57.6" xlink:href="#m5e6d353ceb" y="150.240171"/>
      </g>
     </g>
     <g id="text_9">
      <!-- 10 -->
      <g transform="translate(37.875 154.03939)scale(0.1 -0.1)">
       <use xlink:href="#DejaVuSans-49"/>
       <use x="63.623047" xlink:href="#DejaVuSans-48"/>
      </g>
     </g>
    </g>
    <g id="ytick_4">
     <g id="line2d_19">
      <path clip-path="url(#p22fa84f08b)" d="M 57.6 93.398712 
L 414.72 93.398712 
" style="fill:none;stroke:#b0b0b0;stroke-linecap:square;stroke-width:0.8;"/>
     </g>
     <g id="line2d_20">
      <g>
       <use style="stroke:#000000;stroke-width:0.8;" x="57.6" xlink:href="#m5e6d353ceb" y="93.398712"/>
      </g>
     </g>
     <g id="text_10">
      <!-- 20 -->
      <g transform="translate(37.875 97.197931)scale(0.1 -0.1)">
       <use xlink:href="#DejaVuSans-50"/>
       <use x="63.623047" xlink:href="#DejaVuSans-48"/>
      </g>
     </g>
    </g>
   </g>
   <g id="line2d_21">
    <path clip-path="url(#p22fa84f08b)" d="M 73.832727 253.799927 
L 77.112066 254.759227 
L 80.391405 255.603394 
L 83.670744 256.328223 
L 86.950083 256.930909 
L 90.229421 257.410101 
L 93.50876 257.765938 
L 96.788099 258.000044 
L 100.067438 258.115497 
L 103.346777 258.116761 
L 106.626116 258.009594 
L 109.905455 257.800915 
L 113.184793 257.498652 
L 116.464132 257.111562 
L 119.743471 256.649028 
L 123.02281 256.120843 
L 126.302149 255.536983 
L 129.581488 254.907377 
L 132.860826 254.241674 
L 136.140165 253.549026 
L 139.419504 252.837881 
L 142.698843 252.115799 
L 145.978182 251.389296 
L 149.257521 250.663722 
L 152.53686 249.94317 
L 155.816198 249.230438 
L 159.095537 248.527021 
L 162.374876 247.833155 
L 165.654215 247.147906 
L 168.933554 246.469294 
L 172.212893 245.794461 
L 175.492231 245.119877 
L 178.77157 244.441566 
L 182.050909 243.755362 
L 185.330248 243.057172 
L 188.609587 242.343253 
L 191.888926 241.610472 
L 195.168264 240.856566 
L 198.447603 240.080368 
L 201.726942 239.282009 
L 205.006281 238.463076 
L 208.28562 237.626716 
L 211.564959 236.777702 
L 214.844298 235.922419 
L 218.123636 235.068808 
L 221.402975 234.226233 
L 224.682314 233.405296 
L 227.961653 232.617582 
L 231.240992 231.875362 
L 234.520331 231.191241 
L 237.799669 230.577771 
L 241.079008 230.04703 
L 244.358347 229.610195 
L 247.637686 229.277103 
L 250.917025 229.05582 
L 254.196364 228.952243 
L 257.475702 228.969724 
L 260.755041 229.108758 
L 264.03438 229.366719 
L 267.313719 229.737674 
L 270.593058 230.21228 
L 273.872397 230.777756 
L 277.151736 231.41796 
L 280.431074 232.113547 
L 283.710413 232.842227 
L 286.989752 233.579105 
L 290.269091 234.29711 
L 293.54843 234.96749 
L 296.827769 235.560376 
L 300.107107 236.045395 
L 303.386446 236.392313 
L 306.665785 236.571704 
L 309.945124 236.555621 
L 313.224463 236.318246 
L 316.503802 235.836523 
L 319.78314 235.090726 
L 323.062479 234.064984 
L 326.341818 232.747713 
L 329.621157 231.131976 
L 332.900496 229.215732 
L 336.179835 227.001996 
L 339.459174 224.498878 
L 342.738512 221.719524 
L 346.017851 218.681941 
L 349.29719 215.408724 
L 352.576529 211.926686 
L 355.855868 208.2664 
L 359.135207 204.461662 
L 362.414545 200.548895 
L 365.693884 196.566508 
L 368.973223 192.554211 
L 372.252562 188.552322 
L 375.531901 184.601072 
L 378.81124 180.739919 
L 382.090579 177.006898 
L 385.369917 173.438005 
L 388.649256 170.066646 
L 391.928595 166.923142 
L 395.207934 164.034314 
L 398.487273 161.423144 
" style="fill:none;stroke:#0000ff;stroke-linecap:square;stroke-width:1.5;"/>
   </g>
   <g id="line2d_22">
    <path clip-path="url(#p22fa84f08b)" d="M 73.832727 242.927522 
L 77.112066 244.688449 
L 80.391405 245.982723 
L 83.670744 246.911813 
L 86.950083 247.561393 
L 90.229421 248.000532 
L 93.50876 248.282012 
L 96.788099 248.443623 
L 100.067438 248.510193 
L 103.346777 248.496106 
L 106.626116 248.408046 
L 109.905455 248.247704 
L 113.184793 248.014254 
L 116.464132 247.706417 
L 119.743471 247.324021 
L 123.02281 246.869 
L 126.302149 246.345856 
L 129.581488 245.761644 
L 132.860826 245.125565 
L 136.140165 244.448301 
L 139.419504 243.7412 
L 142.698843 243.015435 
L 145.978182 242.281241 
L 149.257521 241.547286 
L 152.53686 240.820239 
L 155.816198 240.104548 
L 159.095537 239.402409 
L 162.374876 238.71392 
L 165.654215 238.037361 
L 168.933554 237.369565 
L 172.212893 236.706341 
L 175.492231 236.042893 
L 178.77157 235.374222 
L 182.050909 234.695485 
L 185.330248 234.002299 
L 188.609587 233.290987 
L 191.888926 232.558781 
L 195.168264 231.803975 
L 198.447603 231.026053 
L 201.726942 230.22578 
L 205.006281 229.405278 
L 208.28562 228.568078 
L 211.564959 227.719144 
L 214.844298 226.864873 
L 218.123636 226.01305 
L 221.402975 225.172762 
L 224.682314 224.354261 
L 227.961653 223.568772 
L 231.240992 222.828241 
L 234.520331 222.145029 
L 237.799669 221.531559 
L 241.079008 220.999909 
L 244.358347 220.561385 
L 247.637686 220.226068 
L 250.917025 220.002349 
L 254.196364 219.896485 
L 257.475702 219.912179 
L 260.755041 220.050201 
L 264.03438 220.30808 
L 267.313719 220.679877 
L 270.593058 221.156051 
L 273.872397 221.723442 
L 277.151736 222.36537 
L 280.431074 223.061856 
L 283.710413 223.789961 
L 286.989752 224.524232 
L 290.269091 225.237234 
L 293.54843 225.900146 
L 296.827769 226.483393 
L 300.107107 226.957276 
L 303.386446 227.292585 
L 306.665785 227.461159 
L 309.945124 227.436386 
L 313.224463 227.193635 
L 316.503802 226.710633 
L 319.78314 225.967795 
L 323.062479 224.948548 
L 326.341818 223.639658 
L 329.621157 222.031612 
L 332.900496 220.119051 
L 336.179835 217.901271 
L 339.459174 215.38277 
L 342.738512 212.573791 
L 346.017851 209.490813 
L 349.29719 206.156881 
L 352.576529 202.601679 
L 355.855868 198.861255 
L 359.135207 194.977263 
L 362.414545 190.995685 
L 365.693884 186.96496 
L 368.973223 182.933556 
L 372.252562 178.947018 
L 375.531901 175.04465 
L 378.81124 171.255993 
L 382.090579 167.597329 
L 385.369917 164.06849 
L 388.649256 160.650236 
L 391.928595 157.30247 
L 395.207934 153.963535 
L 398.487273 150.550739 
" style="fill:none;stroke:#000000;stroke-linecap:square;stroke-width:0.5;"/>
   </g>
   <g id="line2d_23">
    <path clip-path="url(#p22fa84f08b)" d="M 73.832727 264.672331 
L 77.112066 264.830006 
L 80.391405 265.224066 
L 83.670744 265.744634 
L 86.950083 266.300424 
L 90.229421 266.81967 
L 93.50876 267.249864 
L 96.788099 267.556466 
L 100.067438 267.720801 
L 103.346777 267.737416 
L 106.626116 267.611142 
L 109.905455 267.354126 
L 113.184793 266.983051 
L 116.464132 266.516707 
L 119.743471 265.974035 
L 123.02281 265.372686 
L 126.302149 264.728111 
L 129.581488 264.05311 
L 132.860826 263.357783 
L 136.140165 262.649751 
L 139.419504 261.934562 
L 142.698843 261.216163 
L 145.978182 260.497352 
L 149.257521 259.780157 
L 152.53686 259.066101 
L 155.816198 258.356328 
L 159.095537 257.651632 
L 162.374876 256.95239 
L 165.654215 256.258452 
L 168.933554 255.569022 
L 172.212893 254.88258 
L 175.492231 254.19686 
L 178.77157 253.50891 
L 182.050909 252.815238 
L 185.330248 252.112046 
L 188.609587 251.395519 
L 191.888926 250.662164 
L 195.168264 249.909156 
L 198.447603 249.134683 
L 201.726942 248.338239 
L 205.006281 247.520873 
L 208.28562 246.685355 
L 211.564959 245.836259 
L 214.844298 244.979964 
L 218.123636 244.124565 
L 221.402975 243.279705 
L 224.682314 242.456331 
L 227.961653 241.666391 
L 231.240992 240.922483 
L 234.520331 240.237453 
L 237.799669 239.623983 
L 241.079008 239.094151 
L 244.358347 238.659005 
L 247.637686 238.328138 
L 250.917025 238.109292 
L 254.196364 238.008001 
L 257.475702 238.02727 
L 260.755041 238.167315 
L 264.03438 238.425357 
L 267.313719 238.795472 
L 270.593058 239.26851 
L 273.872397 239.832071 
L 277.151736 240.470551 
L 280.431074 241.165239 
L 283.710413 241.894493 
L 286.989752 242.633979 
L 290.269091 243.356986 
L 293.54843 244.034834 
L 296.827769 244.63736 
L 300.107107 245.133515 
L 303.386446 245.492041 
L 306.665785 245.68225 
L 309.945124 245.674856 
L 313.224463 245.442858 
L 316.503802 244.962412 
L 319.78314 244.213657 
L 323.062479 243.181419 
L 326.341818 241.855768 
L 329.621157 240.232339 
L 332.900496 238.312414 
L 336.179835 236.102721 
L 339.459174 233.614987 
L 342.738512 230.865257 
L 346.017851 227.873068 
L 349.29719 224.660567 
L 352.576529 221.251693 
L 355.855868 217.671545 
L 359.135207 213.94606 
L 362.414545 210.102106 
L 365.693884 206.168056 
L 368.973223 202.174865 
L 372.252562 198.157626 
L 375.531901 194.157493 
L 378.81124 190.223845 
L 382.090579 186.416467 
L 385.369917 182.807521 
L 388.649256 179.483057 
L 391.928595 176.543813 
L 395.207934 174.105092 
L 398.487273 172.295549 
" style="fill:none;stroke:#000000;stroke-linecap:square;stroke-width:0.5;"/>
   </g>
   <g id="line2d_24">
    <path clip-path="url(#p22fa84f08b)" d="M 73.832727 189.307717 
L 77.112066 193.398595 
L 80.391405 197.177684 
L 83.670744 200.635765 
L 86.950083 203.766978 
L 90.229421 206.568974 
L 93.50876 209.04298 
L 96.788099 211.193801 
L 100.067438 213.029741 
L 103.346777 214.562442 
L 106.626116 215.80666 
L 109.905455 216.77994 
L 113.184793 217.502266 
L 116.464132 217.995608 
L 119.743471 218.283447 
L 123.02281 218.39025 
L 126.302149 218.34093 
L 129.581488 218.160279 
L 132.860826 217.87242 
L 136.140165 217.50028 
L 139.419504 217.065091 
L 142.698843 216.585952 
L 145.978182 216.079447 
L 149.257521 215.559349 
L 152.53686 215.03642 
L 155.816198 214.518288 
L 159.095537 214.009466 
L 162.374876 213.511419 
L 165.654215 213.022809 
L 168.933554 212.53977 
L 172.212893 212.056336 
L 175.492231 211.564914 
L 178.77157 211.056842 
L 182.050909 210.523 
L 185.330248 209.954447 
L 188.609587 209.343079 
L 191.888926 208.682263 
L 195.168264 207.967458 
L 198.447603 207.196763 
L 201.726942 206.371406 
L 205.006281 205.496101 
L 208.28562 204.579337 
L 211.564959 203.633504 
L 214.844298 202.674876 
L 218.123636 201.723469 
L 221.402975 200.802726 
L 224.682314 199.939065 
L 227.961653 199.161272 
L 231.240992 198.49979 
L 234.520331 197.985855 
L 237.799669 197.650578 
L 241.079008 197.523936 
L 244.358347 197.633734 
L 247.637686 198.004544 
L 250.917025 198.656693 
L 254.196364 199.60527 
L 257.475702 200.859253 
L 260.755041 202.420734 
L 264.03438 204.2843 
L 267.313719 206.436581 
L 270.593058 208.855994 
L 273.872397 211.512691 
L 277.151736 214.368724 
L 280.431074 217.378447 
L 283.710413 220.489119 
L 286.989752 223.641738 
L 290.269091 226.772054 
L 293.54843 229.811781 
L 296.827769 232.689942 
L 300.107107 235.334343 
L 303.386446 237.673129 
L 306.665785 239.636384 
L 309.945124 241.157758 
L 313.224463 242.176014 
L 316.503802 242.636572 
L 319.78314 242.492858 
L 323.062479 241.707578 
L 326.341818 240.253757 
L 329.621157 238.115593 
L 332.900496 235.289077 
L 336.179835 231.782356 
L 339.459174 227.61585 
L 342.738512 222.822084 
L 346.017851 217.445295 
L 349.29719 211.54075 
L 352.576529 205.173871 
L 355.855868 198.419125 
L 359.135207 191.358734 
L 362.414545 184.081248 
L 365.693884 176.679988 
L 368.973223 169.251408 
L 372.252562 161.893428 
L 375.531901 154.703752 
L 378.81124 147.778227 
L 382.090579 141.209272 
L 385.369917 135.0844 
L 388.649256 129.484889 
L 391.928595 124.484596 
L 395.207934 120.14895 
L 398.487273 116.534147 
" style="fill:none;stroke:#ffa500;stroke-linecap:square;stroke-width:1.5;"/>
   </g>
   <g id="line2d_25">
    <path clip-path="url(#p22fa84f08b)" d="M 73.832727 126.34157 
L 77.112066 135.074965 
L 80.391405 141.460792 
L 83.670744 146.101823 
L 86.950083 149.504624 
L 90.229421 152.074655 
L 93.50876 154.118031 
L 96.788099 155.849005 
L 100.067438 157.401847 
L 103.346777 158.845646 
L 106.626116 160.20052 
L 109.905455 161.453737 
L 113.184793 162.574581 
L 116.464132 163.52691 
L 119.743471 164.278858 
L 123.02281 164.809379 
L 126.302149 165.111688 
L 129.581488 165.193931 
L 132.860826 165.077638 
L 136.140165 164.794592 
L 139.419504 164.382821 
L 142.698843 163.882355 
L 145.978182 163.331306 
L 149.257521 162.762674 
L 152.53686 162.20213 
L 155.816198 161.666861 
L 159.095537 161.165442 
L 162.374876 160.698531 
L 165.654215 160.260246 
L 168.933554 159.839854 
L 172.212893 159.423649 
L 175.492231 158.996718 
L 178.77157 158.544476 
L 182.050909 158.053882 
L 185.330248 157.514303 
L 188.609587 156.918035 
L 191.888926 156.260546 
L 195.168264 155.540535 
L 198.447603 154.759854 
L 201.726942 153.923408 
L 205.006281 153.03902 
L 208.28562 152.117386 
L 211.564959 151.172024 
L 214.844298 150.219257 
L 218.123636 149.278203 
L 221.402975 148.370699 
L 224.682314 147.52115 
L 227.961653 146.756243 
L 231.240992 146.10454 
L 234.520331 145.595871 
L 237.799669 145.260594 
L 241.079008 145.128687 
L 244.358347 145.228705 
L 247.637686 145.586629 
L 250.917025 146.224666 
L 254.196364 147.160004 
L 257.475702 148.403634 
L 260.755041 149.959254 
L 264.03438 151.822349 
L 267.313719 153.9795 
L 270.593058 156.407995 
L 273.872397 159.075782 
L 277.151736 161.9418 
L 280.431074 164.95673 
L 283.710413 168.064075 
L 286.989752 171.201594 
L 290.269091 174.302935 
L 293.54843 177.299414 
L 296.827769 180.121747 
L 300.107107 182.701657 
L 303.386446 184.973212 
L 306.665785 186.873821 
L 309.945124 188.34487 
L 313.224463 189.33199 
L 316.503802 189.785144 
L 319.78314 189.658569 
L 323.062479 188.910903 
L 326.341818 187.505617 
L 329.621157 185.411995 
L 332.900496 182.606806 
L 336.179835 179.076668 
L 339.459174 174.821068 
L 342.738512 169.855737 
L 346.017851 164.216053 
L 349.29719 157.95988 
L 352.576529 151.169282 
L 355.855868 143.950426 
L 359.135207 136.431049 
L 362.414545 128.755045 
L 365.693884 121.073848 
L 368.973223 113.534612 
L 372.252562 106.265534 
L 375.531901 99.358956 
L 378.81124 92.853277 
L 382.090579 86.714952 
L 385.369917 80.822046 
L 388.649256 74.950948 
L 391.928595 68.767704 
L 395.207934 61.825321 
L 398.487273 53.568 
" style="fill:none;stroke:#000000;stroke-linecap:square;stroke-width:0.5;"/>
   </g>
   <g id="line2d_26">
    <path clip-path="url(#p22fa84f08b)" d="M 73.832727 252.273864 
L 77.112066 251.722224 
L 80.391405 252.894577 
L 83.670744 255.169707 
L 86.950083 258.029331 
L 90.229421 261.063294 
L 93.50876 263.96793 
L 96.788099 266.538597 
L 100.067438 268.657635 
L 103.346777 270.279238 
L 106.626116 271.4128 
L 109.905455 272.106144 
L 113.184793 272.429951 
L 116.464132 272.464307 
L 119.743471 272.288035 
L 123.02281 271.97112 
L 126.302149 271.570172 
L 129.581488 271.126626 
L 132.860826 270.667201 
L 136.140165 270.205968 
L 139.419504 269.747362 
L 142.698843 269.28955 
L 145.978182 268.827587 
L 149.257521 268.356025 
L 152.53686 267.87071 
L 155.816198 267.369716 
L 159.095537 266.85349 
L 162.374876 266.324306 
L 165.654215 265.785372 
L 168.933554 265.239687 
L 172.212893 264.689022 
L 175.492231 264.133109 
L 178.77157 263.569209 
L 182.050909 262.992119 
L 185.330248 262.394592 
L 188.609587 261.768124 
L 191.888926 261.10398 
L 195.168264 260.394382 
L 198.447603 259.633673 
L 201.726942 258.819405 
L 205.006281 257.953181 
L 208.28562 257.041288 
L 211.564959 256.094984 
L 214.844298 255.130495 
L 218.123636 254.168735 
L 221.402975 253.234753 
L 224.682314 252.35698 
L 227.961653 251.566302 
L 231.240992 250.89504 
L 234.520331 250.375839 
L 237.799669 250.040563 
L 241.079008 249.919186 
L 244.358347 250.038763 
L 247.637686 250.422459 
L 250.917025 251.08872 
L 254.196364 252.050536 
L 257.475702 253.314872 
L 260.755041 254.882214 
L 264.03438 256.746251 
L 267.313719 258.893661 
L 270.593058 261.303992 
L 273.872397 263.9496 
L 277.151736 266.795647 
L 280.431074 269.800164 
L 283.710413 272.914163 
L 286.989752 276.081883 
L 290.269091 279.241172 
L 293.54843 282.324147 
L 296.827769 285.258138 
L 300.107107 287.967029 
L 303.386446 290.373045 
L 306.665785 292.398947 
L 309.945124 293.970645 
L 313.224463 295.020038 
L 316.503802 295.488 
L 319.78314 295.327148 
L 323.062479 294.504253 
L 326.341818 293.001897 
L 329.621157 290.81919 
L 332.900496 287.971347 
L 336.179835 284.488044 
L 339.459174 280.410631 
L 342.738512 275.788431 
L 346.017851 270.674537 
L 349.29719 265.121621 
L 352.576529 259.178459 
L 355.855868 252.887823 
L 359.135207 246.286419 
L 362.414545 239.407451 
L 365.693884 232.286128 
L 368.973223 224.968204 
L 372.252562 217.521322 
L 375.531901 210.048548 
L 378.81124 202.703176 
L 382.090579 195.703591 
L 385.369917 189.346753 
L 388.649256 184.018831 
L 391.928595 180.201489 
L 395.207934 178.47258 
L 398.487273 179.500294 
" style="fill:none;stroke:#000000;stroke-linecap:square;stroke-width:0.5;"/>
   </g>
   <g id="line2d_27">
    <path clip-path="url(#p22fa84f08b)" d="M 73.832727 253.898502 
L 77.112066 254.742102 
L 80.391405 255.557598 
L 83.670744 256.318422 
L 86.950083 257.001563 
L 90.229421 257.587832 
L 93.50876 258.062016 
L 96.788099 258.41294 
L 100.067438 258.633416 
L 103.346777 258.720115 
L 106.626116 258.673342 
L 109.905455 258.49674 
L 113.184793 258.196925 
L 116.464132 257.783076 
L 119.743471 257.266475 
L 123.02281 256.660027 
L 126.302149 255.977761 
L 129.581488 255.234337 
L 132.860826 254.444556 
L 136.140165 253.622905 
L 139.419504 252.783134 
L 142.698843 251.937873 
L 145.978182 251.098315 
L 149.257521 250.27395 
L 152.53686 249.472371 
L 155.816198 248.699149 
L 159.095537 247.957777 
L 162.374876 247.24969 
L 165.654215 246.574344 
L 168.933554 245.929372 
L 172.212893 245.310786 
L 175.492231 244.713237 
L 178.77157 244.130319 
L 182.050909 243.5549 
L 185.330248 242.979482 
L 188.609587 242.396564 
L 191.888926 241.799015 
L 195.168264 241.180429 
L 198.447603 240.535457 
L 201.726942 239.860111 
L 205.006281 239.152024 
L 208.28562 238.410652 
L 211.564959 237.63743 
L 214.844298 236.835851 
L 218.123636 236.011486 
L 221.402975 235.171928 
L 224.682314 234.326667 
L 227.961653 233.486895 
L 231.240992 232.665245 
L 234.520331 231.875464 
L 237.799669 231.13204 
L 241.079008 230.449774 
L 244.358347 229.843326 
L 247.637686 229.326725 
L 250.917025 228.912876 
L 254.196364 228.613061 
L 257.475702 228.436458 
L 260.755041 228.389686 
L 264.03438 228.476385 
L 267.313719 228.696861 
L 270.593058 229.047784 
L 273.872397 229.521969 
L 277.151736 230.108237 
L 280.431074 230.791379 
L 283.710413 231.552203 
L 286.989752 232.367699 
L 290.269091 233.211299 
L 293.54843 234.053241 
L 296.827769 234.861035 
L 300.107107 235.600024 
L 303.386446 236.234022 
L 306.665785 236.726043 
L 309.945124 237.039079 
L 313.224463 237.136933 
L 316.503802 236.985082 
L 319.78314 236.551562 
L 323.062479 235.807837 
L 326.341818 234.729658 
L 329.621157 233.29787 
L 332.900496 231.499166 
L 336.179835 229.32675 
L 339.459174 226.780911 
L 342.738512 223.869473 
L 346.017851 220.608123 
L 349.29719 217.020583 
L 352.576529 213.13864 
L 355.855868 209.002008 
L 359.135207 204.658017 
L 362.414545 200.161144 
L 365.693884 195.57237 
L 368.973223 190.958372 
L 372.252562 186.390569 
L 375.531901 181.944015 
L 378.81124 177.696178 
L 382.090579 173.725595 
L 385.369917 170.110451 
L 388.649256 166.927089 
L 391.928595 164.248481 
L 395.207934 162.142688 
L 398.487273 160.671341 
" style="fill:none;stroke:#0000ff;stroke-dasharray:5.55,2.4;stroke-dashoffset:0;stroke-width:1.5;"/>
   </g>
   <g id="line2d_28">
    <path clip-path="url(#p22fa84f08b)" d="M 73.832727 189.306113 
L 77.112066 192.141625 
L 80.391405 194.92093 
L 83.670744 197.59089 
L 86.950083 200.105485 
L 90.229421 202.426335 
L 93.50876 204.523016 
L 96.788099 206.373174 
L 100.067438 207.962439 
L 103.346777 209.28415 
L 106.626116 210.338917 
L 109.905455 211.134024 
L 113.184793 211.682706 
L 116.464132 212.00332 
L 119.743471 212.118431 
L 123.02281 212.053847 
L 126.302149 211.837629 
L 129.581488 211.499092 
L 132.860826 211.067842 
L 136.140165 210.572854 
L 139.419504 210.041623 
L 142.698843 209.499414 
L 145.978182 208.96861 
L 149.257521 208.468192 
L 152.53686 208.013346 
L 155.816198 207.615214 
L 159.095537 207.280784 
L 162.374876 207.012921 
L 165.654215 206.810542 
L 168.933554 206.66891 
L 172.212893 206.580049 
L 175.492231 206.533264 
L 178.77157 206.515741 
L 182.050909 206.513216 
L 185.330248 206.510692 
L 188.609587 206.493168 
L 191.888926 206.446383 
L 195.168264 206.357522 
L 198.447603 206.21589 
L 201.726942 206.013511 
L 205.006281 205.745649 
L 208.28562 205.411218 
L 211.564959 205.013086 
L 214.844298 204.55824 
L 218.123636 204.057822 
L 221.402975 203.527018 
L 224.682314 202.984809 
L 227.961653 202.453578 
L 231.240992 201.95859 
L 234.520331 201.52734 
L 237.799669 201.188804 
L 241.079008 200.972585 
L 244.358347 200.908001 
L 247.637686 201.023112 
L 250.917025 201.343726 
L 254.196364 201.892408 
L 257.475702 202.687515 
L 260.755041 203.742282 
L 264.03438 205.063993 
L 267.313719 206.653258 
L 270.593058 208.503416 
L 273.872397 210.600098 
L 277.151736 212.920947 
L 280.431074 215.435542 
L 283.710413 218.105503 
L 286.989752 220.884807 
L 290.269091 223.720319 
L 293.54843 226.552516 
L 296.827769 229.316417 
L 300.107107 231.942705 
L 303.386446 234.359015 
L 306.665785 236.49137 
L 309.945124 238.265754 
L 313.224463 239.609773 
L 316.503802 240.454385 
L 319.78314 240.735656 
L 323.062479 240.396519 
L 326.341818 239.388473 
L 329.621157 237.67321 
L 332.900496 235.224114 
L 336.179835 232.027594 
L 339.459174 228.084228 
L 342.738512 223.409665 
L 346.017851 218.035276 
L 349.29719 212.008509 
L 352.576529 205.392936 
L 355.855868 198.267983 
L 359.135207 190.728314 
L 362.414545 182.882881 
L 365.693884 174.853644 
L 368.973223 166.773961 
L 372.252562 158.786667 
L 375.531901 151.041872 
L 378.81124 143.69451 
L 382.090579 136.901656 
L 385.369917 130.819681 
L 388.649256 125.601269 
L 391.928595 121.392365 
L 395.207934 118.329091 
L 398.487273 116.53471 
" style="fill:none;stroke:#ffa500;stroke-dasharray:5.55,2.4;stroke-dashoffset:0;stroke-width:1.5;"/>
   </g>
   <g id="patch_3">
    <path d="M 57.6 307.584 
L 57.6 41.472 
" style="fill:none;stroke:#000000;stroke-linecap:square;stroke-linejoin:miter;stroke-width:0.8;"/>
   </g>
   <g id="patch_4">
    <path d="M 414.72 307.584 
L 414.72 41.472 
" style="fill:none;stroke:#000000;stroke-linecap:square;stroke-linejoin:miter;stroke-width:0.8;"/>
   </g>
   <g id="patch_5">
    <path d="M 57.6 307.584 
L 414.72 307.584 
" style="fill:none;stroke:#000000;stroke-linecap:square;stroke-linejoin:miter;stroke-width:0.8;"/>
   </g>
   <g id="patch_6">
    <path d="M 57.6 41.472 
L 414.72 41.472 
" style="fill:none;stroke:#000000;stroke-linecap:square;stroke-linejoin:miter;stroke-width:0.8;"/>
   </g>
   <g id="legend_1">
    <g id="patch_7">
     <path d="M 64.6 108.1845 
L 239.15625 108.1845 
Q 241.15625 108.1845 241.15625 106.1845 
L 241.15625 48.472 
Q 241.15625 46.472 239.15625 46.472 
L 64.6 46.472 
Q 62.6 46.472 62.6 48.472 
L 62.6 106.1845 
Q 62.6 108.1845 64.6 108.1845 
z
" style="fill:#ffffff;opacity:0.8;stroke:#cccccc;stroke-linejoin:miter;"/>
    </g>
    <g id="line2d_29">
     <path d="M 66.6 54.570438 
L 86.6 54.570438 
" style="fill:none;stroke:#0000ff;stroke-linecap:square;stroke-width:1.5;"/>
    </g>
    <g id="line2d_30"/>
    <g id="text_11">
     <!-- MF cheap GPR (regular GPR) -->
     <g transform="translate(94.6 58.070438)scale(0.1 -0.1)">
      <defs>
       <path d="M 9.8125 72.90625 
L 24.515625 72.90625 
L 43.109375 23.296875 
L 61.8125 72.90625 
L 76.515625 72.90625 
L 76.515625 0 
L 66.890625 0 
L 66.890625 64.015625 
L 48.09375 14.015625 
L 38.1875 14.015625 
L 19.390625 64.015625 
L 19.390625 0 
L 9.8125 0 
z
" id="DejaVuSans-77"/>
       <path d="M 9.8125 72.90625 
L 51.703125 72.90625 
L 51.703125 64.59375 
L 19.671875 64.59375 
L 19.671875 43.109375 
L 48.578125 43.109375 
L 48.578125 34.8125 
L 19.671875 34.8125 
L 19.671875 0 
L 9.8125 0 
z
" id="DejaVuSans-70"/>
       <path id="DejaVuSans-32"/>
       <path d="M 48.78125 52.59375 
L 48.78125 44.1875 
Q 44.96875 46.296875 41.140625 47.34375 
Q 37.3125 48.390625 33.40625 48.390625 
Q 24.65625 48.390625 19.8125 42.84375 
Q 14.984375 37.3125 14.984375 27.296875 
Q 14.984375 17.28125 19.8125 11.734375 
Q 24.65625 6.203125 33.40625 6.203125 
Q 37.3125 6.203125 41.140625 7.25 
Q 44.96875 8.296875 48.78125 10.40625 
L 48.78125 2.09375 
Q 45.015625 0.34375 40.984375 -0.53125 
Q 36.96875 -1.421875 32.421875 -1.421875 
Q 20.0625 -1.421875 12.78125 6.34375 
Q 5.515625 14.109375 5.515625 27.296875 
Q 5.515625 40.671875 12.859375 48.328125 
Q 20.21875 56 33.015625 56 
Q 37.15625 56 41.109375 55.140625 
Q 45.0625 54.296875 48.78125 52.59375 
z
" id="DejaVuSans-99"/>
       <path d="M 54.890625 33.015625 
L 54.890625 0 
L 45.90625 0 
L 45.90625 32.71875 
Q 45.90625 40.484375 42.875 44.328125 
Q 39.84375 48.1875 33.796875 48.1875 
Q 26.515625 48.1875 22.3125 43.546875 
Q 18.109375 38.921875 18.109375 30.90625 
L 18.109375 0 
L 9.078125 0 
L 9.078125 75.984375 
L 18.109375 75.984375 
L 18.109375 46.1875 
Q 21.34375 51.125 25.703125 53.5625 
Q 30.078125 56 35.796875 56 
Q 45.21875 56 50.046875 50.171875 
Q 54.890625 44.34375 54.890625 33.015625 
z
" id="DejaVuSans-104"/>
       <path d="M 56.203125 29.59375 
L 56.203125 25.203125 
L 14.890625 25.203125 
Q 15.484375 15.921875 20.484375 11.0625 
Q 25.484375 6.203125 34.421875 6.203125 
Q 39.59375 6.203125 44.453125 7.46875 
Q 49.3125 8.734375 54.109375 11.28125 
L 54.109375 2.78125 
Q 49.265625 0.734375 44.1875 -0.34375 
Q 39.109375 -1.421875 33.890625 -1.421875 
Q 20.796875 -1.421875 13.15625 6.1875 
Q 5.515625 13.8125 5.515625 26.8125 
Q 5.515625 40.234375 12.765625 48.109375 
Q 20.015625 56 32.328125 56 
Q 43.359375 56 49.78125 48.890625 
Q 56.203125 41.796875 56.203125 29.59375 
z
M 47.21875 32.234375 
Q 47.125 39.59375 43.09375 43.984375 
Q 39.0625 48.390625 32.421875 48.390625 
Q 24.90625 48.390625 20.390625 44.140625 
Q 15.875 39.890625 15.1875 32.171875 
z
" id="DejaVuSans-101"/>
       <path d="M 34.28125 27.484375 
Q 23.390625 27.484375 19.1875 25 
Q 14.984375 22.515625 14.984375 16.5 
Q 14.984375 11.71875 18.140625 8.90625 
Q 21.296875 6.109375 26.703125 6.109375 
Q 34.1875 6.109375 38.703125 11.40625 
Q 43.21875 16.703125 43.21875 25.484375 
L 43.21875 27.484375 
z
M 52.203125 31.203125 
L 52.203125 0 
L 43.21875 0 
L 43.21875 8.296875 
Q 40.140625 3.328125 35.546875 0.953125 
Q 30.953125 -1.421875 24.3125 -1.421875 
Q 15.921875 -1.421875 10.953125 3.296875 
Q 6 8.015625 6 15.921875 
Q 6 25.140625 12.171875 29.828125 
Q 18.359375 34.515625 30.609375 34.515625 
L 43.21875 34.515625 
L 43.21875 35.40625 
Q 43.21875 41.609375 39.140625 45 
Q 35.0625 48.390625 27.6875 48.390625 
Q 23 48.390625 18.546875 47.265625 
Q 14.109375 46.140625 10.015625 43.890625 
L 10.015625 52.203125 
Q 14.9375 54.109375 19.578125 55.046875 
Q 24.21875 56 28.609375 56 
Q 40.484375 56 46.34375 49.84375 
Q 52.203125 43.703125 52.203125 31.203125 
z
" id="DejaVuSans-97"/>
       <path d="M 18.109375 8.203125 
L 18.109375 -20.796875 
L 9.078125 -20.796875 
L 9.078125 54.6875 
L 18.109375 54.6875 
L 18.109375 46.390625 
Q 20.953125 51.265625 25.265625 53.625 
Q 29.59375 56 35.59375 56 
Q 45.5625 56 51.78125 48.09375 
Q 58.015625 40.1875 58.015625 27.296875 
Q 58.015625 14.40625 51.78125 6.484375 
Q 45.5625 -1.421875 35.59375 -1.421875 
Q 29.59375 -1.421875 25.265625 0.953125 
Q 20.953125 3.328125 18.109375 8.203125 
z
M 48.6875 27.296875 
Q 48.6875 37.203125 44.609375 42.84375 
Q 40.53125 48.484375 33.40625 48.484375 
Q 26.265625 48.484375 22.1875 42.84375 
Q 18.109375 37.203125 18.109375 27.296875 
Q 18.109375 17.390625 22.1875 11.75 
Q 26.265625 6.109375 33.40625 6.109375 
Q 40.53125 6.109375 44.609375 11.75 
Q 48.6875 17.390625 48.6875 27.296875 
z
" id="DejaVuSans-112"/>
       <path d="M 59.515625 10.40625 
L 59.515625 29.984375 
L 43.40625 29.984375 
L 43.40625 38.09375 
L 69.28125 38.09375 
L 69.28125 6.78125 
Q 63.578125 2.734375 56.6875 0.65625 
Q 49.8125 -1.421875 42 -1.421875 
Q 24.90625 -1.421875 15.25 8.5625 
Q 5.609375 18.5625 5.609375 36.375 
Q 5.609375 54.25 15.25 64.234375 
Q 24.90625 74.21875 42 74.21875 
Q 49.125 74.21875 55.546875 72.453125 
Q 61.96875 70.703125 67.390625 67.28125 
L 67.390625 56.78125 
Q 61.921875 61.421875 55.765625 63.765625 
Q 49.609375 66.109375 42.828125 66.109375 
Q 29.4375 66.109375 22.71875 58.640625 
Q 16.015625 51.171875 16.015625 36.375 
Q 16.015625 21.625 22.71875 14.15625 
Q 29.4375 6.6875 42.828125 6.6875 
Q 48.046875 6.6875 52.140625 7.59375 
Q 56.25 8.5 59.515625 10.40625 
z
" id="DejaVuSans-71"/>
       <path d="M 19.671875 64.796875 
L 19.671875 37.40625 
L 32.078125 37.40625 
Q 38.96875 37.40625 42.71875 40.96875 
Q 46.484375 44.53125 46.484375 51.125 
Q 46.484375 57.671875 42.71875 61.234375 
Q 38.96875 64.796875 32.078125 64.796875 
z
M 9.8125 72.90625 
L 32.078125 72.90625 
Q 44.34375 72.90625 50.609375 67.359375 
Q 56.890625 61.8125 56.890625 51.125 
Q 56.890625 40.328125 50.609375 34.8125 
Q 44.34375 29.296875 32.078125 29.296875 
L 19.671875 29.296875 
L 19.671875 0 
L 9.8125 0 
z
" id="DejaVuSans-80"/>
       <path d="M 44.390625 34.1875 
Q 47.5625 33.109375 50.5625 29.59375 
Q 53.5625 26.078125 56.59375 19.921875 
L 66.609375 0 
L 56 0 
L 46.6875 18.703125 
Q 43.0625 26.03125 39.671875 28.421875 
Q 36.28125 30.8125 30.421875 30.8125 
L 19.671875 30.8125 
L 19.671875 0 
L 9.8125 0 
L 9.8125 72.90625 
L 32.078125 72.90625 
Q 44.578125 72.90625 50.734375 67.671875 
Q 56.890625 62.453125 56.890625 51.90625 
Q 56.890625 45.015625 53.6875 40.46875 
Q 50.484375 35.9375 44.390625 34.1875 
z
M 19.671875 64.796875 
L 19.671875 38.921875 
L 32.078125 38.921875 
Q 39.203125 38.921875 42.84375 42.21875 
Q 46.484375 45.515625 46.484375 51.90625 
Q 46.484375 58.296875 42.84375 61.546875 
Q 39.203125 64.796875 32.078125 64.796875 
z
" id="DejaVuSans-82"/>
       <path d="M 31 75.875 
Q 24.46875 64.65625 21.28125 53.65625 
Q 18.109375 42.671875 18.109375 31.390625 
Q 18.109375 20.125 21.3125 9.0625 
Q 24.515625 -2 31 -13.1875 
L 23.1875 -13.1875 
Q 15.875 -1.703125 12.234375 9.375 
Q 8.59375 20.453125 8.59375 31.390625 
Q 8.59375 42.28125 12.203125 53.3125 
Q 15.828125 64.359375 23.1875 75.875 
z
" id="DejaVuSans-40"/>
       <path d="M 41.109375 46.296875 
Q 39.59375 47.171875 37.8125 47.578125 
Q 36.03125 48 33.890625 48 
Q 26.265625 48 22.1875 43.046875 
Q 18.109375 38.09375 18.109375 28.8125 
L 18.109375 0 
L 9.078125 0 
L 9.078125 54.6875 
L 18.109375 54.6875 
L 18.109375 46.1875 
Q 20.953125 51.171875 25.484375 53.578125 
Q 30.03125 56 36.53125 56 
Q 37.453125 56 38.578125 55.875 
Q 39.703125 55.765625 41.0625 55.515625 
z
" id="DejaVuSans-114"/>
       <path d="M 45.40625 27.984375 
Q 45.40625 37.75 41.375 43.109375 
Q 37.359375 48.484375 30.078125 48.484375 
Q 22.859375 48.484375 18.828125 43.109375 
Q 14.796875 37.75 14.796875 27.984375 
Q 14.796875 18.265625 18.828125 12.890625 
Q 22.859375 7.515625 30.078125 7.515625 
Q 37.359375 7.515625 41.375 12.890625 
Q 45.40625 18.265625 45.40625 27.984375 
z
M 54.390625 6.78125 
Q 54.390625 -7.171875 48.1875 -13.984375 
Q 42 -20.796875 29.203125 -20.796875 
Q 24.46875 -20.796875 20.265625 -20.09375 
Q 16.0625 -19.390625 12.109375 -17.921875 
L 12.109375 -9.1875 
Q 16.0625 -11.328125 19.921875 -12.34375 
Q 23.78125 -13.375 27.78125 -13.375 
Q 36.625 -13.375 41.015625 -8.765625 
Q 45.40625 -4.15625 45.40625 5.171875 
L 45.40625 9.625 
Q 42.625 4.78125 38.28125 2.390625 
Q 33.9375 0 27.875 0 
Q 17.828125 0 11.671875 7.65625 
Q 5.515625 15.328125 5.515625 27.984375 
Q 5.515625 40.671875 11.671875 48.328125 
Q 17.828125 56 27.875 56 
Q 33.9375 56 38.28125 53.609375 
Q 42.625 51.21875 45.40625 46.390625 
L 45.40625 54.6875 
L 54.390625 54.6875 
z
" id="DejaVuSans-103"/>
       <path d="M 8.5 21.578125 
L 8.5 54.6875 
L 17.484375 54.6875 
L 17.484375 21.921875 
Q 17.484375 14.15625 20.5 10.265625 
Q 23.53125 6.390625 29.59375 6.390625 
Q 36.859375 6.390625 41.078125 11.03125 
Q 45.3125 15.671875 45.3125 23.6875 
L 45.3125 54.6875 
L 54.296875 54.6875 
L 54.296875 0 
L 45.3125 0 
L 45.3125 8.40625 
Q 42.046875 3.421875 37.71875 1 
Q 33.40625 -1.421875 27.6875 -1.421875 
Q 18.265625 -1.421875 13.375 4.4375 
Q 8.5 10.296875 8.5 21.578125 
z
M 31.109375 56 
z
" id="DejaVuSans-117"/>
       <path d="M 9.421875 75.984375 
L 18.40625 75.984375 
L 18.40625 0 
L 9.421875 0 
z
" id="DejaVuSans-108"/>
       <path d="M 8.015625 75.875 
L 15.828125 75.875 
Q 23.140625 64.359375 26.78125 53.3125 
Q 30.421875 42.28125 30.421875 31.390625 
Q 30.421875 20.453125 26.78125 9.375 
Q 23.140625 -1.703125 15.828125 -13.1875 
L 8.015625 -13.1875 
Q 14.5 -2 17.703125 9.0625 
Q 20.90625 20.125 20.90625 31.390625 
Q 20.90625 42.671875 17.703125 53.65625 
Q 14.5 64.65625 8.015625 75.875 
z
" id="DejaVuSans-41"/>
      </defs>
      <use xlink:href="#DejaVuSans-77"/>
      <use x="86.279297" xlink:href="#DejaVuSans-70"/>
      <use x="143.798828" xlink:href="#DejaVuSans-32"/>
      <use x="175.585938" xlink:href="#DejaVuSans-99"/>
      <use x="230.566406" xlink:href="#DejaVuSans-104"/>
      <use x="293.945312" xlink:href="#DejaVuSans-101"/>
      <use x="355.46875" xlink:href="#DejaVuSans-97"/>
      <use x="416.748047" xlink:href="#DejaVuSans-112"/>
      <use x="480.224609" xlink:href="#DejaVuSans-32"/>
      <use x="512.011719" xlink:href="#DejaVuSans-71"/>
      <use x="589.501953" xlink:href="#DejaVuSans-80"/>
      <use x="649.804688" xlink:href="#DejaVuSans-82"/>
      <use x="719.287109" xlink:href="#DejaVuSans-32"/>
      <use x="751.074219" xlink:href="#DejaVuSans-40"/>
      <use x="790.087891" xlink:href="#DejaVuSans-114"/>
      <use x="828.951172" xlink:href="#DejaVuSans-101"/>
      <use x="890.474609" xlink:href="#DejaVuSans-103"/>
      <use x="953.951172" xlink:href="#DejaVuSans-117"/>
      <use x="1017.330078" xlink:href="#DejaVuSans-108"/>
      <use x="1045.113281" xlink:href="#DejaVuSans-97"/>
      <use x="1106.392578" xlink:href="#DejaVuSans-114"/>
      <use x="1147.505859" xlink:href="#DejaVuSans-32"/>
      <use x="1179.292969" xlink:href="#DejaVuSans-71"/>
      <use x="1256.783203" xlink:href="#DejaVuSans-80"/>
      <use x="1317.085938" xlink:href="#DejaVuSans-82"/>
      <use x="1386.568359" xlink:href="#DejaVuSans-41"/>
     </g>
    </g>
    <g id="line2d_31">
     <path d="M 66.6 69.248563 
L 86.6 69.248563 
" style="fill:none;stroke:#ffa500;stroke-linecap:square;stroke-width:1.5;"/>
    </g>
    <g id="line2d_32"/>
    <g id="text_12">
     <!-- MF expensive GPR -->
     <g transform="translate(94.6 72.748563)scale(0.1 -0.1)">
      <defs>
       <path d="M 54.890625 54.6875 
L 35.109375 28.078125 
L 55.90625 0 
L 45.3125 0 
L 29.390625 21.484375 
L 13.484375 0 
L 2.875 0 
L 24.125 28.609375 
L 4.6875 54.6875 
L 15.28125 54.6875 
L 29.78125 35.203125 
L 44.28125 54.6875 
z
" id="DejaVuSans-120"/>
       <path d="M 54.890625 33.015625 
L 54.890625 0 
L 45.90625 0 
L 45.90625 32.71875 
Q 45.90625 40.484375 42.875 44.328125 
Q 39.84375 48.1875 33.796875 48.1875 
Q 26.515625 48.1875 22.3125 43.546875 
Q 18.109375 38.921875 18.109375 30.90625 
L 18.109375 0 
L 9.078125 0 
L 9.078125 54.6875 
L 18.109375 54.6875 
L 18.109375 46.1875 
Q 21.34375 51.125 25.703125 53.5625 
Q 30.078125 56 35.796875 56 
Q 45.21875 56 50.046875 50.171875 
Q 54.890625 44.34375 54.890625 33.015625 
z
" id="DejaVuSans-110"/>
       <path d="M 44.28125 53.078125 
L 44.28125 44.578125 
Q 40.484375 46.53125 36.375 47.5 
Q 32.28125 48.484375 27.875 48.484375 
Q 21.1875 48.484375 17.84375 46.4375 
Q 14.5 44.390625 14.5 40.28125 
Q 14.5 37.15625 16.890625 35.375 
Q 19.28125 33.59375 26.515625 31.984375 
L 29.59375 31.296875 
Q 39.15625 29.25 43.1875 25.515625 
Q 47.21875 21.78125 47.21875 15.09375 
Q 47.21875 7.46875 41.1875 3.015625 
Q 35.15625 -1.421875 24.609375 -1.421875 
Q 20.21875 -1.421875 15.453125 -0.5625 
Q 10.6875 0.296875 5.421875 2 
L 5.421875 11.28125 
Q 10.40625 8.6875 15.234375 7.390625 
Q 20.0625 6.109375 24.8125 6.109375 
Q 31.15625 6.109375 34.5625 8.28125 
Q 37.984375 10.453125 37.984375 14.40625 
Q 37.984375 18.0625 35.515625 20.015625 
Q 33.0625 21.96875 24.703125 23.78125 
L 21.578125 24.515625 
Q 13.234375 26.265625 9.515625 29.90625 
Q 5.8125 33.546875 5.8125 39.890625 
Q 5.8125 47.609375 11.28125 51.796875 
Q 16.75 56 26.8125 56 
Q 31.78125 56 36.171875 55.265625 
Q 40.578125 54.546875 44.28125 53.078125 
z
" id="DejaVuSans-115"/>
       <path d="M 9.421875 54.6875 
L 18.40625 54.6875 
L 18.40625 0 
L 9.421875 0 
z
M 9.421875 75.984375 
L 18.40625 75.984375 
L 18.40625 64.59375 
L 9.421875 64.59375 
z
" id="DejaVuSans-105"/>
       <path d="M 2.984375 54.6875 
L 12.5 54.6875 
L 29.59375 8.796875 
L 46.6875 54.6875 
L 56.203125 54.6875 
L 35.6875 0 
L 23.484375 0 
z
" id="DejaVuSans-118"/>
      </defs>
      <use xlink:href="#DejaVuSans-77"/>
      <use x="86.279297" xlink:href="#DejaVuSans-70"/>
      <use x="143.798828" xlink:href="#DejaVuSans-32"/>
      <use x="175.585938" xlink:href="#DejaVuSans-101"/>
      <use x="235.359375" xlink:href="#DejaVuSans-120"/>
      <use x="294.539062" xlink:href="#DejaVuSans-112"/>
      <use x="358.015625" xlink:href="#DejaVuSans-101"/>
      <use x="419.539062" xlink:href="#DejaVuSans-110"/>
      <use x="482.917969" xlink:href="#DejaVuSans-115"/>
      <use x="535.017578" xlink:href="#DejaVuSans-105"/>
      <use x="562.800781" xlink:href="#DejaVuSans-118"/>
      <use x="621.980469" xlink:href="#DejaVuSans-101"/>
      <use x="683.503906" xlink:href="#DejaVuSans-32"/>
      <use x="715.291016" xlink:href="#DejaVuSans-71"/>
      <use x="792.78125" xlink:href="#DejaVuSans-80"/>
      <use x="853.083984" xlink:href="#DejaVuSans-82"/>
     </g>
    </g>
    <g id="line2d_33">
     <path d="M 66.6 83.926688 
L 86.6 83.926688 
" style="fill:none;stroke:#0000ff;stroke-dasharray:5.55,2.4;stroke-dashoffset:0;stroke-width:1.5;"/>
    </g>
    <g id="line2d_34"/>
    <g id="text_13">
     <!-- Exact cheap function -->
     <g transform="translate(94.6 87.426688)scale(0.1 -0.1)">
      <defs>
       <path d="M 9.8125 72.90625 
L 55.90625 72.90625 
L 55.90625 64.59375 
L 19.671875 64.59375 
L 19.671875 43.015625 
L 54.390625 43.015625 
L 54.390625 34.71875 
L 19.671875 34.71875 
L 19.671875 8.296875 
L 56.78125 8.296875 
L 56.78125 0 
L 9.8125 0 
z
" id="DejaVuSans-69"/>
       <path d="M 18.3125 70.21875 
L 18.3125 54.6875 
L 36.8125 54.6875 
L 36.8125 47.703125 
L 18.3125 47.703125 
L 18.3125 18.015625 
Q 18.3125 11.328125 20.140625 9.421875 
Q 21.96875 7.515625 27.59375 7.515625 
L 36.8125 7.515625 
L 36.8125 0 
L 27.59375 0 
Q 17.1875 0 13.234375 3.875 
Q 9.28125 7.765625 9.28125 18.015625 
L 9.28125 47.703125 
L 2.6875 47.703125 
L 2.6875 54.6875 
L 9.28125 54.6875 
L 9.28125 70.21875 
z
" id="DejaVuSans-116"/>
       <path d="M 37.109375 75.984375 
L 37.109375 68.5 
L 28.515625 68.5 
Q 23.6875 68.5 21.796875 66.546875 
Q 19.921875 64.59375 19.921875 59.515625 
L 19.921875 54.6875 
L 34.71875 54.6875 
L 34.71875 47.703125 
L 19.921875 47.703125 
L 19.921875 0 
L 10.890625 0 
L 10.890625 47.703125 
L 2.296875 47.703125 
L 2.296875 54.6875 
L 10.890625 54.6875 
L 10.890625 58.5 
Q 10.890625 67.625 15.140625 71.796875 
Q 19.390625 75.984375 28.609375 75.984375 
z
" id="DejaVuSans-102"/>
       <path d="M 30.609375 48.390625 
Q 23.390625 48.390625 19.1875 42.75 
Q 14.984375 37.109375 14.984375 27.296875 
Q 14.984375 17.484375 19.15625 11.84375 
Q 23.34375 6.203125 30.609375 6.203125 
Q 37.796875 6.203125 41.984375 11.859375 
Q 46.1875 17.53125 46.1875 27.296875 
Q 46.1875 37.015625 41.984375 42.703125 
Q 37.796875 48.390625 30.609375 48.390625 
z
M 30.609375 56 
Q 42.328125 56 49.015625 48.375 
Q 55.71875 40.765625 55.71875 27.296875 
Q 55.71875 13.875 49.015625 6.21875 
Q 42.328125 -1.421875 30.609375 -1.421875 
Q 18.84375 -1.421875 12.171875 6.21875 
Q 5.515625 13.875 5.515625 27.296875 
Q 5.515625 40.765625 12.171875 48.375 
Q 18.84375 56 30.609375 56 
z
" id="DejaVuSans-111"/>
      </defs>
      <use xlink:href="#DejaVuSans-69"/>
      <use x="63.183594" xlink:href="#DejaVuSans-120"/>
      <use x="122.363281" xlink:href="#DejaVuSans-97"/>
      <use x="183.642578" xlink:href="#DejaVuSans-99"/>
      <use x="238.623047" xlink:href="#DejaVuSans-116"/>
      <use x="277.832031" xlink:href="#DejaVuSans-32"/>
      <use x="309.619141" xlink:href="#DejaVuSans-99"/>
      <use x="364.599609" xlink:href="#DejaVuSans-104"/>
      <use x="427.978516" xlink:href="#DejaVuSans-101"/>
      <use x="489.501953" xlink:href="#DejaVuSans-97"/>
      <use x="550.78125" xlink:href="#DejaVuSans-112"/>
      <use x="614.257812" xlink:href="#DejaVuSans-32"/>
      <use x="646.044922" xlink:href="#DejaVuSans-102"/>
      <use x="681.25" xlink:href="#DejaVuSans-117"/>
      <use x="744.628906" xlink:href="#DejaVuSans-110"/>
      <use x="808.007812" xlink:href="#DejaVuSans-99"/>
      <use x="862.988281" xlink:href="#DejaVuSans-116"/>
      <use x="902.197266" xlink:href="#DejaVuSans-105"/>
      <use x="929.980469" xlink:href="#DejaVuSans-111"/>
      <use x="991.162109" xlink:href="#DejaVuSans-110"/>
     </g>
    </g>
    <g id="line2d_35">
     <path d="M 66.6 98.604813 
L 86.6 98.604813 
" style="fill:none;stroke:#ffa500;stroke-dasharray:5.55,2.4;stroke-dashoffset:0;stroke-width:1.5;"/>
    </g>
    <g id="line2d_36"/>
    <g id="text_14">
     <!-- Exact expensive function -->
     <g transform="translate(94.6 102.104813)scale(0.1 -0.1)">
      <use xlink:href="#DejaVuSans-69"/>
      <use x="63.183594" xlink:href="#DejaVuSans-120"/>
      <use x="122.363281" xlink:href="#DejaVuSans-97"/>
      <use x="183.642578" xlink:href="#DejaVuSans-99"/>
      <use x="238.623047" xlink:href="#DejaVuSans-116"/>
      <use x="277.832031" xlink:href="#DejaVuSans-32"/>
      <use x="309.619141" xlink:href="#DejaVuSans-101"/>
      <use x="369.392578" xlink:href="#DejaVuSans-120"/>
      <use x="428.572266" xlink:href="#DejaVuSans-112"/>
      <use x="492.048828" xlink:href="#DejaVuSans-101"/>
      <use x="553.572266" xlink:href="#DejaVuSans-110"/>
      <use x="616.951172" xlink:href="#DejaVuSans-115"/>
      <use x="669.050781" xlink:href="#DejaVuSans-105"/>
      <use x="696.833984" xlink:href="#DejaVuSans-118"/>
      <use x="756.013672" xlink:href="#DejaVuSans-101"/>
      <use x="817.537109" xlink:href="#DejaVuSans-32"/>
      <use x="849.324219" xlink:href="#DejaVuSans-102"/>
      <use x="884.529297" xlink:href="#DejaVuSans-117"/>
      <use x="947.908203" xlink:href="#DejaVuSans-110"/>
      <use x="1011.287109" xlink:href="#DejaVuSans-99"/>
      <use x="1066.267578" xlink:href="#DejaVuSans-116"/>
      <use x="1105.476562" xlink:href="#DejaVuSans-105"/>
      <use x="1133.259766" xlink:href="#DejaVuSans-111"/>
      <use x="1194.441406" xlink:href="#DejaVuSans-110"/>
     </g>
    </g>
   </g>
  </g>
 </g>
 <defs>
  <clipPath id="p22fa84f08b">
   <rect height="266.112" width="357.12" x="57.6" y="41.472"/>
  </clipPath>
 </defs>
</svg>
