<?xml version="1.0" encoding="utf-8" standalone="no"?>
<!DOCTYPE svg PUBLIC "-//W3C//DTD SVG 1.1//EN"
  "http://www.w3.org/Graphics/SVG/1.1/DTD/svg11.dtd">
<!-- Created with matplotlib (https://matplotlib.org/) -->
<svg height="345.6pt" version="1.1" viewBox="0 0 460.8 345.6" width="460.8pt" xmlns="http://www.w3.org/2000/svg" xmlns:xlink="http://www.w3.org/1999/xlink">
 <metadata>
  <rdf:RDF xmlns:cc="http://creativecommons.org/ns#" xmlns:dc="http://purl.org/dc/elements/1.1/" xmlns:rdf="http://www.w3.org/1999/02/22-rdf-syntax-ns#">
   <cc:Work>
    <dc:type rdf:resource="http://purl.org/dc/dcmitype/StillImage"/>
    <dc:date>2020-11-24T13:55:57.729832</dc:date>
    <dc:format>image/svg+xml</dc:format>
    <dc:creator>
     <cc:Agent>
      <dc:title>Matplotlib v3.3.1, https://matplotlib.org/</dc:title>
     </cc:Agent>
    </dc:creator>
   </cc:Work>
  </rdf:RDF>
 </metadata>
 <defs>
  <style type="text/css">*{stroke-linecap:butt;stroke-linejoin:round;}</style>
 </defs>
 <g id="figure_1">
  <g id="patch_1">
   <path d="M 0 345.6 
L 460.8 345.6 
L 460.8 0 
L 0 0 
z
" style="fill:#ffffff;"/>
  </g>
  <g id="axes_1">
   <g id="patch_2">
    <path d="M 57.6 307.584 
L 414.72 307.584 
L 414.72 41.472 
L 57.6 41.472 
z
" style="fill:#ffffff;"/>
   </g>
   <g id="PolyCollection_1">
    <defs>
     <path d="M 73.832727 -104.898743 
L 73.832727 -50.112 
L 77.112066 -51.060163 
L 80.391405 -51.91873 
L 83.670744 -52.694206 
L 86.950083 -53.39298 
L 90.229421 -54.021298 
L 93.50876 -54.585245 
L 96.788099 -55.090732 
L 100.067438 -55.543472 
L 103.346777 -55.948974 
L 106.626116 -56.312526 
L 109.905455 -56.639188 
L 113.184793 -56.93378 
L 116.464132 -57.200884 
L 119.743471 -57.44483 
L 123.02281 -57.669701 
L 126.302149 -57.879333 
L 129.581488 -58.07731 
L 132.860826 -58.266973 
L 136.140165 -58.451424 
L 139.419504 -58.633529 
L 142.698843 -58.815932 
L 145.978182 -59.001054 
L 149.257521 -59.191114 
L 152.53686 -59.388132 
L 155.816198 -59.593944 
L 159.095537 -59.810217 
L 162.374876 -60.038456 
L 165.654215 -60.280024 
L 168.933554 -60.536154 
L 172.212893 -60.807963 
L 175.492231 -61.096465 
L 178.77157 -61.40259 
L 182.050909 -61.727192 
L 185.330248 -62.071071 
L 188.609587 -62.434977 
L 191.888926 -62.819633 
L 195.168264 -63.225737 
L 198.447603 -63.653985 
L 201.726942 -64.105073 
L 205.006281 -64.57971 
L 208.28562 -65.078629 
L 211.564959 -65.602592 
L 214.844298 -66.152399 
L 218.123636 -66.728893 
L 221.402975 -67.332965 
L 224.682314 -67.965555 
L 227.961653 -68.627656 
L 231.240992 -69.320317 
L 234.520331 -70.044638 
L 237.799669 -70.801769 
L 241.079008 -71.592909 
L 244.358347 -72.419299 
L 247.637686 -73.282217 
L 250.917025 -74.182972 
L 254.196364 -75.122892 
L 257.475702 -76.103317 
L 260.755041 -77.12559 
L 264.03438 -78.19104 
L 267.313719 -79.300972 
L 270.593058 -80.456653 
L 273.872397 -81.659297 
L 277.151736 -82.910049 
L 280.431074 -84.209966 
L 283.710413 -85.560006 
L 286.989752 -86.961002 
L 290.269091 -88.413653 
L 293.54843 -89.918498 
L 296.827769 -91.4759 
L 300.107107 -93.08603 
L 303.386446 -94.748844 
L 306.665785 -96.464066 
L 309.945124 -98.231171 
L 313.224463 -100.049368 
L 316.503802 -101.917578 
L 319.78314 -103.834424 
L 323.062479 -105.79821 
L 326.341818 -107.80691 
L 329.621157 -109.858155 
L 332.900496 -111.949216 
L 336.179835 -114.076999 
L 339.459174 -116.238033 
L 342.738512 -118.428463 
L 346.017851 -120.644043 
L 349.29719 -122.880135 
L 352.576529 -125.131705 
L 355.855868 -127.393322 
L 359.135207 -129.659165 
L 362.414545 -131.923022 
L 365.693884 -134.1783 
L 368.973223 -136.418033 
L 372.252562 -138.634893 
L 375.531901 -140.821206 
L 378.81124 -142.968965 
L 382.090579 -145.069851 
L 385.369917 -147.115252 
L 388.649256 -149.096286 
L 391.928595 -151.003827 
L 395.207934 -152.828531 
L 398.487273 -154.560866 
L 398.487273 -209.347609 
L 398.487273 -209.347609 
L 395.207934 -205.970998 
L 391.928595 -202.690113 
L 388.649256 -199.500769 
L 385.369917 -196.398895 
L 382.090579 -193.38055 
L 378.81124 -190.441939 
L 375.531901 -187.579432 
L 372.252562 -184.789575 
L 368.973223 -182.069097 
L 365.693884 -179.414927 
L 362.414545 -176.824194 
L 359.135207 -174.294239 
L 355.855868 -171.822611 
L 352.576529 -169.407077 
L 349.29719 -167.045616 
L 346.017851 -164.736418 
L 342.738512 -162.477883 
L 339.459174 -160.268614 
L 336.179835 -158.107411 
L 332.900496 -155.993262 
L 329.621157 -153.925334 
L 326.341818 -151.902966 
L 323.062479 -149.925651 
L 319.78314 -147.993028 
L 316.503802 -146.104869 
L 313.224463 -144.261063 
L 309.945124 -142.461602 
L 306.665785 -140.706567 
L 303.386446 -138.996113 
L 300.107107 -137.330451 
L 296.827769 -135.709835 
L 293.54843 -134.134549 
L 290.269091 -132.604887 
L 286.989752 -131.121141 
L 283.710413 -129.683588 
L 280.431074 -128.292471 
L 277.151736 -126.947996 
L 273.872397 -125.650308 
L 270.593058 -124.39949 
L 267.313719 -123.195545 
L 264.03438 -122.038391 
L 260.755041 -120.927851 
L 257.475702 -119.863647 
L 254.196364 -118.845392 
L 250.917025 -117.872588 
L 247.637686 -116.94462 
L 244.358347 -116.060755 
L 241.079008 -115.220143 
L 237.799669 -114.421815 
L 234.520331 -113.664684 
L 231.240992 -112.947552 
L 227.961653 -112.269113 
L 224.682314 -111.627957 
L 221.402975 -111.022581 
L 218.123636 -110.451394 
L 214.844298 -109.912729 
L 211.564959 -109.404853 
L 208.28562 -108.92598 
L 205.006281 -108.474283 
L 201.726942 -108.04791 
L 198.447603 -107.644996 
L 195.168264 -107.263685 
L 191.888926 -106.902138 
L 188.609587 -106.558559 
L 185.330248 -106.23121 
L 182.050909 -105.918427 
L 178.77157 -105.618641 
L 175.492231 -105.3304 
L 172.212893 -105.052383 
L 168.933554 -104.783423 
L 165.654215 -104.522526 
L 162.374876 -104.268887 
L 159.095537 -104.021912 
L 155.816198 -103.781235 
L 152.53686 -103.546736 
L 149.257521 -103.318555 
L 145.978182 -103.09711 
L 142.698843 -102.883111 
L 139.419504 -102.677575 
L 136.140165 -102.481835 
L 132.860826 -102.297554 
L 129.581488 -102.12673 
L 126.302149 -101.971708 
L 123.02281 -101.835182 
L 119.743471 -101.720202 
L 116.464132 -101.630172 
L 113.184793 -101.568854 
L 109.905455 -101.54036 
L 106.626116 -101.549153 
L 103.346777 -101.600039 
L 100.067438 -101.698154 
L 96.788099 -101.848958 
L 93.50876 -102.058219 
L 90.229421 -102.331996 
L 86.950083 -102.676623 
L 83.670744 -103.09869 
L 80.391405 -103.605016 
L 77.112066 -104.20263 
L 73.832727 -104.898743 
z
" id="mf67fc3fbf1" style="stroke:#0000ff;stroke-opacity:0.2;"/>
    </defs>
    <g clip-path="url(#p109c4aee6b)">
     <use style="fill:#0000ff;fill-opacity:0.2;stroke:#0000ff;stroke-opacity:0.2;" x="0" xlink:href="#mf67fc3fbf1" y="345.6"/>
    </g>
   </g>
   <g id="PolyCollection_2">
    <defs>
     <path d="M 73.832727 -180.433978 
L 73.832727 -113.801928 
L 77.112066 -114.875215 
L 80.391405 -115.845876 
L 83.670744 -116.721367 
L 86.950083 -117.509003 
L 90.229421 -118.215937 
L 93.50876 -118.849138 
L 96.788099 -119.415367 
L 100.067438 -119.921163 
L 103.346777 -120.372822 
L 106.626116 -120.776391 
L 109.905455 -121.137647 
L 113.184793 -121.462096 
L 116.464132 -121.754963 
L 119.743471 -122.021186 
L 123.02281 -122.265414 
L 126.302149 -122.49201 
L 129.581488 -122.705048 
L 132.860826 -122.908318 
L 136.140165 -123.105335 
L 139.419504 -123.29934 
L 142.698843 -123.493313 
L 145.978182 -123.689982 
L 149.257521 -123.891835 
L 152.53686 -124.10113 
L 155.816198 -124.319912 
L 159.095537 -124.550027 
L 162.374876 -124.793137 
L 165.654215 -125.050732 
L 168.933554 -125.324154 
L 172.212893 -125.614608 
L 175.492231 -125.923178 
L 178.77157 -126.250849 
L 182.050909 -126.598517 
L 185.330248 -126.967012 
L 188.609587 -127.357107 
L 191.888926 -127.769538 
L 195.168264 -128.205015 
L 198.447603 -128.664239 
L 201.726942 -129.147914 
L 205.006281 -129.656754 
L 208.28562 -130.191502 
L 211.564959 -130.752932 
L 214.844298 -131.341861 
L 218.123636 -131.959155 
L 221.402975 -132.605735 
L 224.682314 -133.282579 
L 227.961653 -133.990729 
L 231.240992 -134.731285 
L 234.520331 -135.505412 
L 237.799669 -136.314335 
L 241.079008 -137.159334 
L 244.358347 -138.041741 
L 247.637686 -138.962932 
L 250.917025 -139.924323 
L 254.196364 -140.927356 
L 257.475702 -141.973489 
L 260.755041 -143.064186 
L 264.03438 -144.200903 
L 267.313719 -145.385073 
L 270.593058 -146.618088 
L 273.872397 -147.901289 
L 277.151736 -149.235938 
L 280.431074 -150.623209 
L 283.710413 -152.064165 
L 286.989752 -153.559735 
L 290.269091 -155.110699 
L 293.54843 -156.717664 
L 296.827769 -158.381042 
L 300.107107 -160.101031 
L 303.386446 -161.877594 
L 306.665785 -163.710436 
L 309.945124 -165.598984 
L 313.224463 -167.542368 
L 316.503802 -169.5394 
L 319.78314 -171.588558 
L 323.062479 -173.687964 
L 326.341818 -175.83537 
L 329.621157 -178.028143 
L 332.900496 -180.263251 
L 336.179835 -182.537249 
L 339.459174 -184.846271 
L 342.738512 -187.186019 
L 346.017851 -189.551758 
L 349.29719 -191.93831 
L 352.576529 -194.340053 
L 355.855868 -196.750919 
L 359.135207 -199.164401 
L 362.414545 -201.573551 
L 365.693884 -203.970994 
L 368.973223 -206.348934 
L 372.252562 -208.699167 
L 375.531901 -211.0131 
L 378.81124 -213.281764 
L 382.090579 -215.495839 
L 385.369917 -217.645673 
L 388.649256 -219.721313 
L 391.928595 -221.712527 
L 395.207934 -223.608842 
L 398.487273 -225.399569 
L 398.487273 -292.032 
L 398.487273 -292.032 
L 395.207934 -288.363821 
L 391.928595 -284.804818 
L 388.649256 -281.350015 
L 385.369917 -277.994572 
L 382.090579 -274.733798 
L 378.81124 -271.563176 
L 375.531901 -268.478378 
L 372.252562 -265.475281 
L 368.973223 -262.549979 
L 365.693884 -259.698795 
L 362.414545 -256.918289 
L 359.135207 -254.205265 
L 355.855868 -251.556777 
L 352.576529 -248.970127 
L 349.29719 -246.442868 
L 346.017851 -243.972802 
L 342.738512 -241.557976 
L 339.459174 -239.196677 
L 336.179835 -236.887422 
L 332.900496 -234.628951 
L 329.621157 -232.420219 
L 326.341818 -230.260379 
L 323.062479 -228.148773 
L 319.78314 -226.084915 
L 316.503802 -224.068478 
L 313.224463 -222.099277 
L 309.945124 -220.177254 
L 306.665785 -218.302459 
L 303.386446 -216.475032 
L 300.107107 -214.695189 
L 296.827769 -212.963202 
L 293.54843 -211.27938 
L 290.269091 -209.644056 
L 286.989752 -208.057566 
L 283.710413 -206.520234 
L 280.431074 -205.032358 
L 277.151736 -203.594192 
L 273.872397 -202.205935 
L 270.593058 -200.867714 
L 267.313719 -199.579577 
L 264.03438 -198.341476 
L 260.755041 -197.153263 
L 257.475702 -196.014677 
L 254.196364 -194.925341 
L 250.917025 -193.884752 
L 247.637686 -192.892281 
L 244.358347 -191.947166 
L 241.079008 -191.048515 
L 237.799669 -190.195303 
L 234.520331 -189.386377 
L 231.240992 -188.620454 
L 227.961653 -187.896135 
L 224.682314 -187.211901 
L 221.402975 -186.566129 
L 218.123636 -185.957098 
L 214.844298 -185.383 
L 211.564959 -184.841951 
L 208.28562 -184.332009 
L 205.006281 -183.851185 
L 201.726942 -183.397459 
L 198.447603 -182.968797 
L 195.168264 -182.563173 
L 191.888926 -182.178583 
L 188.609587 -181.813065 
L 185.330248 -181.464724 
L 182.050909 -181.131747 
L 178.77157 -180.81243 
L 175.492231 -180.505195 
L 172.212893 -180.208615 
L 168.933554 -179.921434 
L 165.654215 -179.642589 
L 162.374876 -179.371234 
L 159.095537 -179.106756 
L 155.816198 -178.8488 
L 152.53686 -178.59729 
L 149.257521 -178.35244 
L 145.978182 -178.11478 
L 142.698843 -177.88517 
L 139.419504 -177.664813 
L 136.140165 -177.455272 
L 132.860826 -177.258481 
L 129.581488 -177.076754 
L 126.302149 -176.912796 
L 123.02281 -176.769706 
L 119.743471 -176.650986 
L 116.464132 -176.56054 
L 113.184793 -176.502672 
L 109.905455 -176.482087 
L 106.626116 -176.503886 
L 103.346777 -176.573555 
L 100.067438 -176.696956 
L 96.788099 -176.880318 
L 93.50876 -177.130215 
L 90.229421 -177.453554 
L 86.950083 -177.857551 
L 83.670744 -178.349711 
L 80.391405 -178.9378 
L 77.112066 -179.62982 
L 73.832727 -180.433978 
z
" id="mfa8c84e8af" style="stroke:#ffa500;stroke-opacity:0.2;"/>
    </defs>
    <g clip-path="url(#p109c4aee6b)">
     <use style="fill:#ffa500;fill-opacity:0.2;stroke:#ffa500;stroke-opacity:0.2;" x="0" xlink:href="#mfa8c84e8af" y="345.6"/>
    </g>
   </g>
   <g id="PathCollection_1">
    <defs>
     <path d="M 0 3 
C 0.795609 3 1.55874 2.683901 2.12132 2.12132 
C 2.683901 1.55874 3 0.795609 3 0 
C 3 -0.795609 2.683901 -1.55874 2.12132 -2.12132 
C 1.55874 -2.683901 0.795609 -3 0 -3 
C -0.795609 -3 -1.55874 -2.683901 -2.12132 -2.12132 
C -2.683901 -1.55874 -3 -0.795609 -3 0 
C -3 0.795609 -2.683901 1.55874 -2.12132 2.12132 
C -1.55874 2.683901 -0.795609 3 0 3 
z
" id="m4ec7346e6c" style="stroke:#0000ff;"/>
    </defs>
    <g clip-path="url(#p109c4aee6b)">
     <use style="fill:#0000ff;stroke:#0000ff;" x="73.832727" xlink:href="#m4ec7346e6c" y="270.1851"/>
     <use style="fill:#0000ff;stroke:#0000ff;" x="138.763636" xlink:href="#m4ec7346e6c" y="268.912069"/>
     <use style="fill:#0000ff;stroke:#0000ff;" x="203.694545" xlink:href="#m4ec7346e6c" y="250.73944"/>
     <use style="fill:#0000ff;stroke:#0000ff;" x="268.625455" xlink:href="#m4ec7346e6c" y="236.460551"/>
     <use style="fill:#0000ff;stroke:#0000ff;" x="333.556364" xlink:href="#m4ec7346e6c" y="239.51713"/>
     <use style="fill:#0000ff;stroke:#0000ff;" x="398.487273" xlink:href="#m4ec7346e6c" y="144.807553"/>
    </g>
   </g>
   <g id="PathCollection_2">
    <defs>
     <path d="M 0 3 
C 0.795609 3 1.55874 2.683901 2.12132 2.12132 
C 2.683901 1.55874 3 0.795609 3 0 
C 3 -0.795609 2.683901 -1.55874 2.12132 -2.12132 
C 1.55874 -2.683901 0.795609 -3 0 -3 
C -0.795609 -3 -1.55874 -2.683901 -2.12132 -2.12132 
C -2.683901 -1.55874 -3 -0.795609 -3 0 
C -3 0.795609 -2.683901 1.55874 -2.12132 2.12132 
C -1.55874 2.683901 -0.795609 3 0 3 
z
" id="mffed1f8f08" style="stroke:#ffa500;"/>
    </defs>
    <g clip-path="url(#p109c4aee6b)">
     <use style="fill:#ffa500;stroke:#ffa500;" x="73.832727" xlink:href="#mffed1f8f08" y="183.317333"/>
     <use style="fill:#ffa500;stroke:#ffa500;" x="203.694545" xlink:href="#mffed1f8f08" y="205.581091"/>
     <use style="fill:#ffa500;stroke:#ffa500;" x="398.487273" xlink:href="#mffed1f8f08" y="85.449931"/>
    </g>
   </g>
   <g id="matplotlib.axis_1">
    <g id="xtick_1">
     <g id="line2d_1">
      <path clip-path="url(#p109c4aee6b)" d="M 73.832727 307.584 
L 73.832727 41.472 
" style="fill:none;stroke:#b0b0b0;stroke-linecap:square;stroke-width:0.8;"/>
     </g>
     <g id="line2d_2">
      <defs>
       <path d="M 0 0 
L 0 3.5 
" id="m8ea356124b" style="stroke:#000000;stroke-width:0.8;"/>
      </defs>
      <g>
       <use style="stroke:#000000;stroke-width:0.8;" x="73.832727" xlink:href="#m8ea356124b" y="307.584"/>
      </g>
     </g>
     <g id="text_1">
      <!-- 0.0 -->
      <g transform="translate(65.881165 322.182437)scale(0.1 -0.1)">
       <defs>
        <path d="M 31.78125 66.40625 
Q 24.171875 66.40625 20.328125 58.90625 
Q 16.5 51.421875 16.5 36.375 
Q 16.5 21.390625 20.328125 13.890625 
Q 24.171875 6.390625 31.78125 6.390625 
Q 39.453125 6.390625 43.28125 13.890625 
Q 47.125 21.390625 47.125 36.375 
Q 47.125 51.421875 43.28125 58.90625 
Q 39.453125 66.40625 31.78125 66.40625 
z
M 31.78125 74.21875 
Q 44.046875 74.21875 50.515625 64.515625 
Q 56.984375 54.828125 56.984375 36.375 
Q 56.984375 17.96875 50.515625 8.265625 
Q 44.046875 -1.421875 31.78125 -1.421875 
Q 19.53125 -1.421875 13.0625 8.265625 
Q 6.59375 17.96875 6.59375 36.375 
Q 6.59375 54.828125 13.0625 64.515625 
Q 19.53125 74.21875 31.78125 74.21875 
z
" id="DejaVuSans-48"/>
        <path d="M 10.6875 12.40625 
L 21 12.40625 
L 21 0 
L 10.6875 0 
z
" id="DejaVuSans-46"/>
       </defs>
       <use xlink:href="#DejaVuSans-48"/>
       <use x="63.623047" xlink:href="#DejaVuSans-46"/>
       <use x="95.410156" xlink:href="#DejaVuSans-48"/>
      </g>
     </g>
    </g>
    <g id="xtick_2">
     <g id="line2d_3">
      <path clip-path="url(#p109c4aee6b)" d="M 138.763636 307.584 
L 138.763636 41.472 
" style="fill:none;stroke:#b0b0b0;stroke-linecap:square;stroke-width:0.8;"/>
     </g>
     <g id="line2d_4">
      <g>
       <use style="stroke:#000000;stroke-width:0.8;" x="138.763636" xlink:href="#m8ea356124b" y="307.584"/>
      </g>
     </g>
     <g id="text_2">
      <!-- 0.2 -->
      <g transform="translate(130.812074 322.182437)scale(0.1 -0.1)">
       <defs>
        <path d="M 19.1875 8.296875 
L 53.609375 8.296875 
L 53.609375 0 
L 7.328125 0 
L 7.328125 8.296875 
Q 12.9375 14.109375 22.625 23.890625 
Q 32.328125 33.6875 34.8125 36.53125 
Q 39.546875 41.84375 41.421875 45.53125 
Q 43.3125 49.21875 43.3125 52.78125 
Q 43.3125 58.59375 39.234375 62.25 
Q 35.15625 65.921875 28.609375 65.921875 
Q 23.96875 65.921875 18.8125 64.3125 
Q 13.671875 62.703125 7.8125 59.421875 
L 7.8125 69.390625 
Q 13.765625 71.78125 18.9375 73 
Q 24.125 74.21875 28.421875 74.21875 
Q 39.75 74.21875 46.484375 68.546875 
Q 53.21875 62.890625 53.21875 53.421875 
Q 53.21875 48.921875 51.53125 44.890625 
Q 49.859375 40.875 45.40625 35.40625 
Q 44.1875 33.984375 37.640625 27.21875 
Q 31.109375 20.453125 19.1875 8.296875 
z
" id="DejaVuSans-50"/>
       </defs>
       <use xlink:href="#DejaVuSans-48"/>
       <use x="63.623047" xlink:href="#DejaVuSans-46"/>
       <use x="95.410156" xlink:href="#DejaVuSans-50"/>
      </g>
     </g>
    </g>
    <g id="xtick_3">
     <g id="line2d_5">
      <path clip-path="url(#p109c4aee6b)" d="M 203.694545 307.584 
L 203.694545 41.472 
" style="fill:none;stroke:#b0b0b0;stroke-linecap:square;stroke-width:0.8;"/>
     </g>
     <g id="line2d_6">
      <g>
       <use style="stroke:#000000;stroke-width:0.8;" x="203.694545" xlink:href="#m8ea356124b" y="307.584"/>
      </g>
     </g>
     <g id="text_3">
      <!-- 0.4 -->
      <g transform="translate(195.742983 322.182437)scale(0.1 -0.1)">
       <defs>
        <path d="M 37.796875 64.3125 
L 12.890625 25.390625 
L 37.796875 25.390625 
z
M 35.203125 72.90625 
L 47.609375 72.90625 
L 47.609375 25.390625 
L 58.015625 25.390625 
L 58.015625 17.1875 
L 47.609375 17.1875 
L 47.609375 0 
L 37.796875 0 
L 37.796875 17.1875 
L 4.890625 17.1875 
L 4.890625 26.703125 
z
" id="DejaVuSans-52"/>
       </defs>
       <use xlink:href="#DejaVuSans-48"/>
       <use x="63.623047" xlink:href="#DejaVuSans-46"/>
       <use x="95.410156" xlink:href="#DejaVuSans-52"/>
      </g>
     </g>
    </g>
    <g id="xtick_4">
     <g id="line2d_7">
      <path clip-path="url(#p109c4aee6b)" d="M 268.625455 307.584 
L 268.625455 41.472 
" style="fill:none;stroke:#b0b0b0;stroke-linecap:square;stroke-width:0.8;"/>
     </g>
     <g id="line2d_8">
      <g>
       <use style="stroke:#000000;stroke-width:0.8;" x="268.625455" xlink:href="#m8ea356124b" y="307.584"/>
      </g>
     </g>
     <g id="text_4">
      <!-- 0.6 -->
      <g transform="translate(260.673892 322.182437)scale(0.1 -0.1)">
       <defs>
        <path d="M 33.015625 40.375 
Q 26.375 40.375 22.484375 35.828125 
Q 18.609375 31.296875 18.609375 23.390625 
Q 18.609375 15.53125 22.484375 10.953125 
Q 26.375 6.390625 33.015625 6.390625 
Q 39.65625 6.390625 43.53125 10.953125 
Q 47.40625 15.53125 47.40625 23.390625 
Q 47.40625 31.296875 43.53125 35.828125 
Q 39.65625 40.375 33.015625 40.375 
z
M 52.59375 71.296875 
L 52.59375 62.3125 
Q 48.875 64.0625 45.09375 64.984375 
Q 41.3125 65.921875 37.59375 65.921875 
Q 27.828125 65.921875 22.671875 59.328125 
Q 17.53125 52.734375 16.796875 39.40625 
Q 19.671875 43.65625 24.015625 45.921875 
Q 28.375 48.1875 33.59375 48.1875 
Q 44.578125 48.1875 50.953125 41.515625 
Q 57.328125 34.859375 57.328125 23.390625 
Q 57.328125 12.15625 50.6875 5.359375 
Q 44.046875 -1.421875 33.015625 -1.421875 
Q 20.359375 -1.421875 13.671875 8.265625 
Q 6.984375 17.96875 6.984375 36.375 
Q 6.984375 53.65625 15.1875 63.9375 
Q 23.390625 74.21875 37.203125 74.21875 
Q 40.921875 74.21875 44.703125 73.484375 
Q 48.484375 72.75 52.59375 71.296875 
z
" id="DejaVuSans-54"/>
       </defs>
       <use xlink:href="#DejaVuSans-48"/>
       <use x="63.623047" xlink:href="#DejaVuSans-46"/>
       <use x="95.410156" xlink:href="#DejaVuSans-54"/>
      </g>
     </g>
    </g>
    <g id="xtick_5">
     <g id="line2d_9">
      <path clip-path="url(#p109c4aee6b)" d="M 333.556364 307.584 
L 333.556364 41.472 
" style="fill:none;stroke:#b0b0b0;stroke-linecap:square;stroke-width:0.8;"/>
     </g>
     <g id="line2d_10">
      <g>
       <use style="stroke:#000000;stroke-width:0.8;" x="333.556364" xlink:href="#m8ea356124b" y="307.584"/>
      </g>
     </g>
     <g id="text_5">
      <!-- 0.8 -->
      <g transform="translate(325.604801 322.182437)scale(0.1 -0.1)">
       <defs>
        <path d="M 31.78125 34.625 
Q 24.75 34.625 20.71875 30.859375 
Q 16.703125 27.09375 16.703125 20.515625 
Q 16.703125 13.921875 20.71875 10.15625 
Q 24.75 6.390625 31.78125 6.390625 
Q 38.8125 6.390625 42.859375 10.171875 
Q 46.921875 13.96875 46.921875 20.515625 
Q 46.921875 27.09375 42.890625 30.859375 
Q 38.875 34.625 31.78125 34.625 
z
M 21.921875 38.8125 
Q 15.578125 40.375 12.03125 44.71875 
Q 8.5 49.078125 8.5 55.328125 
Q 8.5 64.0625 14.71875 69.140625 
Q 20.953125 74.21875 31.78125 74.21875 
Q 42.671875 74.21875 48.875 69.140625 
Q 55.078125 64.0625 55.078125 55.328125 
Q 55.078125 49.078125 51.53125 44.71875 
Q 48 40.375 41.703125 38.8125 
Q 48.828125 37.15625 52.796875 32.3125 
Q 56.78125 27.484375 56.78125 20.515625 
Q 56.78125 9.90625 50.3125 4.234375 
Q 43.84375 -1.421875 31.78125 -1.421875 
Q 19.734375 -1.421875 13.25 4.234375 
Q 6.78125 9.90625 6.78125 20.515625 
Q 6.78125 27.484375 10.78125 32.3125 
Q 14.796875 37.15625 21.921875 38.8125 
z
M 18.3125 54.390625 
Q 18.3125 48.734375 21.84375 45.5625 
Q 25.390625 42.390625 31.78125 42.390625 
Q 38.140625 42.390625 41.71875 45.5625 
Q 45.3125 48.734375 45.3125 54.390625 
Q 45.3125 60.0625 41.71875 63.234375 
Q 38.140625 66.40625 31.78125 66.40625 
Q 25.390625 66.40625 21.84375 63.234375 
Q 18.3125 60.0625 18.3125 54.390625 
z
" id="DejaVuSans-56"/>
       </defs>
       <use xlink:href="#DejaVuSans-48"/>
       <use x="63.623047" xlink:href="#DejaVuSans-46"/>
       <use x="95.410156" xlink:href="#DejaVuSans-56"/>
      </g>
     </g>
    </g>
    <g id="xtick_6">
     <g id="line2d_11">
      <path clip-path="url(#p109c4aee6b)" d="M 398.487273 307.584 
L 398.487273 41.472 
" style="fill:none;stroke:#b0b0b0;stroke-linecap:square;stroke-width:0.8;"/>
     </g>
     <g id="line2d_12">
      <g>
       <use style="stroke:#000000;stroke-width:0.8;" x="398.487273" xlink:href="#m8ea356124b" y="307.584"/>
      </g>
     </g>
     <g id="text_6">
      <!-- 1.0 -->
      <g transform="translate(390.53571 322.182437)scale(0.1 -0.1)">
       <defs>
        <path d="M 12.40625 8.296875 
L 28.515625 8.296875 
L 28.515625 63.921875 
L 10.984375 60.40625 
L 10.984375 69.390625 
L 28.421875 72.90625 
L 38.28125 72.90625 
L 38.28125 8.296875 
L 54.390625 8.296875 
L 54.390625 0 
L 12.40625 0 
z
" id="DejaVuSans-49"/>
       </defs>
       <use xlink:href="#DejaVuSans-49"/>
       <use x="63.623047" xlink:href="#DejaVuSans-46"/>
       <use x="95.410156" xlink:href="#DejaVuSans-48"/>
      </g>
     </g>
    </g>
   </g>
   <g id="matplotlib.axis_2">
    <g id="ytick_1">
     <g id="line2d_13">
      <path clip-path="url(#p109c4aee6b)" d="M 57.6 283.666774 
L 414.72 283.666774 
" style="fill:none;stroke:#b0b0b0;stroke-linecap:square;stroke-width:0.8;"/>
     </g>
     <g id="line2d_14">
      <defs>
       <path d="M 0 0 
L -3.5 0 
" id="m7f4b95cf42" style="stroke:#000000;stroke-width:0.8;"/>
      </defs>
      <g>
       <use style="stroke:#000000;stroke-width:0.8;" x="57.6" xlink:href="#m7f4b95cf42" y="283.666774"/>
      </g>
     </g>
     <g id="text_7">
      <!-- −10 -->
      <g transform="translate(29.495313 287.465993)scale(0.1 -0.1)">
       <defs>
        <path d="M 10.59375 35.5 
L 73.1875 35.5 
L 73.1875 27.203125 
L 10.59375 27.203125 
z
" id="DejaVuSans-8722"/>
       </defs>
       <use xlink:href="#DejaVuSans-8722"/>
       <use x="83.789062" xlink:href="#DejaVuSans-49"/>
       <use x="147.412109" xlink:href="#DejaVuSans-48"/>
      </g>
     </g>
    </g>
    <g id="ytick_2">
     <g id="line2d_15">
      <path clip-path="url(#p109c4aee6b)" d="M 57.6 245.444851 
L 414.72 245.444851 
" style="fill:none;stroke:#b0b0b0;stroke-linecap:square;stroke-width:0.8;"/>
     </g>
     <g id="line2d_16">
      <g>
       <use style="stroke:#000000;stroke-width:0.8;" x="57.6" xlink:href="#m7f4b95cf42" y="245.444851"/>
      </g>
     </g>
     <g id="text_8">
      <!-- −5 -->
      <g transform="translate(35.857813 249.24407)scale(0.1 -0.1)">
       <defs>
        <path d="M 10.796875 72.90625 
L 49.515625 72.90625 
L 49.515625 64.59375 
L 19.828125 64.59375 
L 19.828125 46.734375 
Q 21.96875 47.46875 24.109375 47.828125 
Q 26.265625 48.1875 28.421875 48.1875 
Q 40.625 48.1875 47.75 41.5 
Q 54.890625 34.8125 54.890625 23.390625 
Q 54.890625 11.625 47.5625 5.09375 
Q 40.234375 -1.421875 26.90625 -1.421875 
Q 22.3125 -1.421875 17.546875 -0.640625 
Q 12.796875 0.140625 7.71875 1.703125 
L 7.71875 11.625 
Q 12.109375 9.234375 16.796875 8.0625 
Q 21.484375 6.890625 26.703125 6.890625 
Q 35.15625 6.890625 40.078125 11.328125 
Q 45.015625 15.765625 45.015625 23.390625 
Q 45.015625 31 40.078125 35.4375 
Q 35.15625 39.890625 26.703125 39.890625 
Q 22.75 39.890625 18.8125 39.015625 
Q 14.890625 38.140625 10.796875 36.28125 
z
" id="DejaVuSans-53"/>
       </defs>
       <use xlink:href="#DejaVuSans-8722"/>
       <use x="83.789062" xlink:href="#DejaVuSans-53"/>
      </g>
     </g>
    </g>
    <g id="ytick_3">
     <g id="line2d_17">
      <path clip-path="url(#p109c4aee6b)" d="M 57.6 207.222928 
L 414.72 207.222928 
" style="fill:none;stroke:#b0b0b0;stroke-linecap:square;stroke-width:0.8;"/>
     </g>
     <g id="line2d_18">
      <g>
       <use style="stroke:#000000;stroke-width:0.8;" x="57.6" xlink:href="#m7f4b95cf42" y="207.222928"/>
      </g>
     </g>
     <g id="text_9">
      <!-- 0 -->
      <g transform="translate(44.2375 211.022147)scale(0.1 -0.1)">
       <use xlink:href="#DejaVuSans-48"/>
      </g>
     </g>
    </g>
    <g id="ytick_4">
     <g id="line2d_19">
      <path clip-path="url(#p109c4aee6b)" d="M 57.6 169.001005 
L 414.72 169.001005 
" style="fill:none;stroke:#b0b0b0;stroke-linecap:square;stroke-width:0.8;"/>
     </g>
     <g id="line2d_20">
      <g>
       <use style="stroke:#000000;stroke-width:0.8;" x="57.6" xlink:href="#m7f4b95cf42" y="169.001005"/>
      </g>
     </g>
     <g id="text_10">
      <!-- 5 -->
      <g transform="translate(44.2375 172.800224)scale(0.1 -0.1)">
       <use xlink:href="#DejaVuSans-53"/>
      </g>
     </g>
    </g>
    <g id="ytick_5">
     <g id="line2d_21">
      <path clip-path="url(#p109c4aee6b)" d="M 57.6 130.779082 
L 414.72 130.779082 
" style="fill:none;stroke:#b0b0b0;stroke-linecap:square;stroke-width:0.8;"/>
     </g>
     <g id="line2d_22">
      <g>
       <use style="stroke:#000000;stroke-width:0.8;" x="57.6" xlink:href="#m7f4b95cf42" y="130.779082"/>
      </g>
     </g>
     <g id="text_11">
      <!-- 10 -->
      <g transform="translate(37.875 134.578301)scale(0.1 -0.1)">
       <use xlink:href="#DejaVuSans-49"/>
       <use x="63.623047" xlink:href="#DejaVuSans-48"/>
      </g>
     </g>
    </g>
    <g id="ytick_6">
     <g id="line2d_23">
      <path clip-path="url(#p109c4aee6b)" d="M 57.6 92.557159 
L 414.72 92.557159 
" style="fill:none;stroke:#b0b0b0;stroke-linecap:square;stroke-width:0.8;"/>
     </g>
     <g id="line2d_24">
      <g>
       <use style="stroke:#000000;stroke-width:0.8;" x="57.6" xlink:href="#m7f4b95cf42" y="92.557159"/>
      </g>
     </g>
     <g id="text_12">
      <!-- 15 -->
      <g transform="translate(37.875 96.356378)scale(0.1 -0.1)">
       <use xlink:href="#DejaVuSans-49"/>
       <use x="63.623047" xlink:href="#DejaVuSans-53"/>
      </g>
     </g>
    </g>
    <g id="ytick_7">
     <g id="line2d_25">
      <path clip-path="url(#p109c4aee6b)" d="M 57.6 54.335236 
L 414.72 54.335236 
" style="fill:none;stroke:#b0b0b0;stroke-linecap:square;stroke-width:0.8;"/>
     </g>
     <g id="line2d_26">
      <g>
       <use style="stroke:#000000;stroke-width:0.8;" x="57.6" xlink:href="#m7f4b95cf42" y="54.335236"/>
      </g>
     </g>
     <g id="text_13">
      <!-- 20 -->
      <g transform="translate(37.875 58.134455)scale(0.1 -0.1)">
       <use xlink:href="#DejaVuSans-50"/>
       <use x="63.623047" xlink:href="#DejaVuSans-48"/>
      </g>
     </g>
    </g>
   </g>
   <g id="line2d_27">
    <path clip-path="url(#p109c4aee6b)" d="M 73.832727 268.094629 
L 77.112066 267.968603 
L 80.391405 267.838127 
L 83.670744 267.703552 
L 86.950083 267.565198 
L 90.229421 267.423353 
L 93.50876 267.278268 
L 96.788099 267.130155 
L 100.067438 266.979187 
L 103.346777 266.825494 
L 106.626116 266.66916 
L 109.905455 266.510226 
L 113.184793 266.348683 
L 116.464132 266.184472 
L 119.743471 266.017484 
L 123.02281 265.847558 
L 126.302149 265.67448 
L 129.581488 265.49798 
L 132.860826 265.317737 
L 136.140165 265.133371 
L 139.419504 264.944448 
L 142.698843 264.750479 
L 145.978182 264.550918 
L 149.257521 264.345166 
L 152.53686 264.132566 
L 155.816198 263.91241 
L 159.095537 263.683936 
L 162.374876 263.446329 
L 165.654215 263.198725 
L 168.933554 262.940211 
L 172.212893 262.669827 
L 175.492231 262.386567 
L 178.77157 262.089385 
L 182.050909 261.77719 
L 185.330248 261.44886 
L 188.609587 261.103232 
L 191.888926 260.739115 
L 195.168264 260.355289 
L 198.447603 259.950509 
L 201.726942 259.523509 
L 205.006281 259.073003 
L 208.28562 258.597695 
L 211.564959 258.096277 
L 214.844298 257.567436 
L 218.123636 257.009856 
L 221.402975 256.422227 
L 224.682314 255.803244 
L 227.961653 255.151616 
L 231.240992 254.466065 
L 234.520331 253.745339 
L 237.799669 252.988208 
L 241.079008 252.193474 
L 244.358347 251.359973 
L 247.637686 250.486581 
L 250.917025 249.57222 
L 254.196364 248.615858 
L 257.475702 247.616518 
L 260.755041 246.573279 
L 264.03438 245.485285 
L 267.313719 244.351742 
L 270.593058 243.171928 
L 273.872397 241.945197 
L 277.151736 240.670978 
L 280.431074 239.348781 
L 283.710413 237.978203 
L 286.989752 236.558928 
L 290.269091 235.09073 
L 293.54843 233.573476 
L 296.827769 232.007132 
L 300.107107 230.39176 
L 303.386446 228.727522 
L 306.665785 227.014683 
L 309.945124 225.253613 
L 313.224463 223.444785 
L 316.503802 221.588777 
L 319.78314 219.686274 
L 323.062479 217.73807 
L 326.341818 215.745062 
L 329.621157 213.708255 
L 332.900496 211.628761 
L 336.179835 209.507795 
L 339.459174 207.346676 
L 342.738512 205.146827 
L 346.017851 202.90977 
L 349.29719 200.637125 
L 352.576529 198.330609 
L 355.855868 195.992033 
L 359.135207 193.623298 
L 362.414545 191.226392 
L 365.693884 188.803387 
L 368.973223 186.356435 
L 372.252562 183.887766 
L 375.531901 181.399681 
L 378.81124 178.894548 
L 382.090579 176.3748 
L 385.369917 173.842926 
L 388.649256 171.301472 
L 391.928595 168.75303 
L 395.207934 166.200236 
L 398.487273 163.645763 
" style="fill:none;stroke:#0000ff;stroke-linecap:square;stroke-width:1.5;"/>
   </g>
   <g id="line2d_28">
    <path clip-path="url(#p109c4aee6b)" d="M 73.832727 240.701257 
L 77.112066 241.39737 
L 80.391405 241.994984 
L 83.670744 242.50131 
L 86.950083 242.923377 
L 90.229421 243.268004 
L 93.50876 243.541781 
L 96.788099 243.751042 
L 100.067438 243.901846 
L 103.346777 243.999961 
L 106.626116 244.050847 
L 109.905455 244.05964 
L 113.184793 244.031146 
L 116.464132 243.969828 
L 119.743471 243.879798 
L 123.02281 243.764818 
L 126.302149 243.628292 
L 129.581488 243.47327 
L 132.860826 243.302446 
L 136.140165 243.118165 
L 139.419504 242.922425 
L 142.698843 242.716889 
L 145.978182 242.50289 
L 149.257521 242.281445 
L 152.53686 242.053264 
L 155.816198 241.818765 
L 159.095537 241.578088 
L 162.374876 241.331113 
L 165.654215 241.077474 
L 168.933554 240.816577 
L 172.212893 240.547617 
L 175.492231 240.2696 
L 178.77157 239.981359 
L 182.050909 239.681573 
L 185.330248 239.36879 
L 188.609587 239.041441 
L 191.888926 238.697862 
L 195.168264 238.336315 
L 198.447603 237.955004 
L 201.726942 237.55209 
L 205.006281 237.125717 
L 208.28562 236.67402 
L 211.564959 236.195147 
L 214.844298 235.687271 
L 218.123636 235.148606 
L 221.402975 234.577419 
L 224.682314 233.972043 
L 227.961653 233.330887 
L 231.240992 232.652448 
L 234.520331 231.935316 
L 237.799669 231.178185 
L 241.079008 230.379857 
L 244.358347 229.539245 
L 247.637686 228.65538 
L 250.917025 227.727412 
L 254.196364 226.754608 
L 257.475702 225.736353 
L 260.755041 224.672149 
L 264.03438 223.561609 
L 267.313719 222.404455 
L 270.593058 221.20051 
L 273.872397 219.949692 
L 277.151736 218.652004 
L 280.431074 217.307529 
L 283.710413 215.916412 
L 286.989752 214.478859 
L 290.269091 212.995113 
L 293.54843 211.465451 
L 296.827769 209.890165 
L 300.107107 208.269549 
L 303.386446 206.603887 
L 306.665785 204.893433 
L 309.945124 203.138398 
L 313.224463 201.338937 
L 316.503802 199.495131 
L 319.78314 197.606972 
L 323.062479 195.674349 
L 326.341818 193.697034 
L 329.621157 191.674666 
L 332.900496 189.606738 
L 336.179835 187.492589 
L 339.459174 185.331386 
L 342.738512 183.122117 
L 346.017851 180.863582 
L 349.29719 178.554384 
L 352.576529 176.192923 
L 355.855868 173.777389 
L 359.135207 171.305761 
L 362.414545 168.775806 
L 365.693884 166.185073 
L 368.973223 163.530903 
L 372.252562 160.810425 
L 375.531901 158.020568 
L 378.81124 155.158061 
L 382.090579 152.21945 
L 385.369917 149.201105 
L 388.649256 146.099231 
L 391.928595 142.909887 
L 395.207934 139.629002 
L 398.487273 136.252391 
" style="fill:none;stroke:#000000;stroke-linecap:square;stroke-width:0.5;"/>
   </g>
   <g id="line2d_29">
    <path clip-path="url(#p109c4aee6b)" d="M 73.832727 295.488 
L 77.112066 294.539837 
L 80.391405 293.68127 
L 83.670744 292.905794 
L 86.950083 292.20702 
L 90.229421 291.578702 
L 93.50876 291.014755 
L 96.788099 290.509268 
L 100.067438 290.056528 
L 103.346777 289.651026 
L 106.626116 289.287474 
L 109.905455 288.960812 
L 113.184793 288.66622 
L 116.464132 288.399116 
L 119.743471 288.15517 
L 123.02281 287.930299 
L 126.302149 287.720667 
L 129.581488 287.52269 
L 132.860826 287.333027 
L 136.140165 287.148576 
L 139.419504 286.966471 
L 142.698843 286.784068 
L 145.978182 286.598946 
L 149.257521 286.408886 
L 152.53686 286.211868 
L 155.816198 286.006056 
L 159.095537 285.789783 
L 162.374876 285.561544 
L 165.654215 285.319976 
L 168.933554 285.063846 
L 172.212893 284.792037 
L 175.492231 284.503535 
L 178.77157 284.19741 
L 182.050909 283.872808 
L 185.330248 283.528929 
L 188.609587 283.165023 
L 191.888926 282.780367 
L 195.168264 282.374263 
L 198.447603 281.946015 
L 201.726942 281.494927 
L 205.006281 281.02029 
L 208.28562 280.521371 
L 211.564959 279.997408 
L 214.844298 279.447601 
L 218.123636 278.871107 
L 221.402975 278.267035 
L 224.682314 277.634445 
L 227.961653 276.972344 
L 231.240992 276.279683 
L 234.520331 275.555362 
L 237.799669 274.798231 
L 241.079008 274.007091 
L 244.358347 273.180701 
L 247.637686 272.317783 
L 250.917025 271.417028 
L 254.196364 270.477108 
L 257.475702 269.496683 
L 260.755041 268.47441 
L 264.03438 267.40896 
L 267.313719 266.299028 
L 270.593058 265.143347 
L 273.872397 263.940703 
L 277.151736 262.689951 
L 280.431074 261.390034 
L 283.710413 260.039994 
L 286.989752 258.638998 
L 290.269091 257.186347 
L 293.54843 255.681502 
L 296.827769 254.1241 
L 300.107107 252.51397 
L 303.386446 250.851156 
L 306.665785 249.135934 
L 309.945124 247.368829 
L 313.224463 245.550632 
L 316.503802 243.682422 
L 319.78314 241.765576 
L 323.062479 239.80179 
L 326.341818 237.79309 
L 329.621157 235.741845 
L 332.900496 233.650784 
L 336.179835 231.523001 
L 339.459174 229.361967 
L 342.738512 227.171537 
L 346.017851 224.955957 
L 349.29719 222.719865 
L 352.576529 220.468295 
L 355.855868 218.206678 
L 359.135207 215.940835 
L 362.414545 213.676978 
L 365.693884 211.4217 
L 368.973223 209.181967 
L 372.252562 206.965107 
L 375.531901 204.778794 
L 378.81124 202.631035 
L 382.090579 200.530149 
L 385.369917 198.484748 
L 388.649256 196.503714 
L 391.928595 194.596173 
L 395.207934 192.771469 
L 398.487273 191.039134 
" style="fill:none;stroke:#000000;stroke-linecap:square;stroke-width:0.5;"/>
   </g>
   <g id="line2d_30">
    <path clip-path="url(#p109c4aee6b)" d="M 73.832727 198.482047 
L 77.112066 198.347482 
L 80.391405 198.208162 
L 83.670744 198.064461 
L 86.950083 197.916723 
L 90.229421 197.765255 
L 93.50876 197.610323 
L 96.788099 197.452157 
L 100.067438 197.29094 
L 103.346777 197.126811 
L 106.626116 196.959862 
L 109.905455 196.790133 
L 113.184793 196.617616 
L 116.464132 196.442249 
L 119.743471 196.263914 
L 123.02281 196.08244 
L 126.302149 195.897597 
L 129.581488 195.709099 
L 132.860826 195.5166 
L 136.140165 195.319696 
L 139.419504 195.117924 
L 142.698843 194.910759 
L 145.978182 194.697619 
L 149.257521 194.477863 
L 152.53686 194.25079 
L 155.816198 194.015644 
L 159.095537 193.771608 
L 162.374876 193.517815 
L 165.654215 193.253339 
L 168.933554 192.977206 
L 172.212893 192.688389 
L 175.492231 192.385813 
L 178.77157 192.068361 
L 182.050909 191.734868 
L 185.330248 191.384132 
L 188.609587 191.014914 
L 191.888926 190.62594 
L 195.168264 190.215906 
L 198.447603 189.783482 
L 201.726942 189.327314 
L 205.006281 188.84603 
L 208.28562 188.338244 
L 211.564959 187.802559 
L 214.844298 187.23757 
L 218.123636 186.641873 
L 221.402975 186.014068 
L 224.682314 185.35276 
L 227.961653 184.656568 
L 231.240992 183.92413 
L 234.520331 183.154106 
L 237.799669 182.345181 
L 241.079008 181.496076 
L 244.358347 180.605547 
L 247.637686 179.672393 
L 250.917025 178.695462 
L 254.196364 177.673651 
L 257.475702 176.605917 
L 260.755041 175.491276 
L 264.03438 174.32881 
L 267.313719 173.117675 
L 270.593058 171.857099 
L 273.872397 170.546388 
L 277.151736 169.184935 
L 280.431074 167.772216 
L 283.710413 166.3078 
L 286.989752 164.791349 
L 290.269091 163.222622 
L 293.54843 161.601478 
L 296.827769 159.927878 
L 300.107107 158.20189 
L 303.386446 156.423687 
L 306.665785 154.593553 
L 309.945124 152.711881 
L 313.224463 150.779178 
L 316.503802 148.796061 
L 319.78314 146.763264 
L 323.062479 144.681632 
L 326.341818 142.552126 
L 329.621157 140.375819 
L 332.900496 138.153899 
L 336.179835 135.887665 
L 339.459174 133.578526 
L 342.738512 131.228002 
L 346.017851 128.83772 
L 349.29719 126.409411 
L 352.576529 123.94491 
L 355.855868 121.446152 
L 359.135207 118.915167 
L 362.414545 116.35408 
L 365.693884 113.765106 
L 368.973223 111.150544 
L 372.252562 108.512776 
L 375.531901 105.854261 
L 378.81124 103.17753 
L 382.090579 100.485182 
L 385.369917 97.779877 
L 388.649256 95.064336 
L 391.928595 92.341327 
L 395.207934 89.613668 
L 398.487273 86.884216 
" style="fill:none;stroke:#ffa500;stroke-linecap:square;stroke-width:1.5;"/>
   </g>
   <g id="line2d_31">
    <path clip-path="url(#p109c4aee6b)" d="M 73.832727 165.166022 
L 77.112066 165.97018 
L 80.391405 166.6622 
L 83.670744 167.250289 
L 86.950083 167.742449 
L 90.229421 168.146446 
L 93.50876 168.469785 
L 96.788099 168.719682 
L 100.067438 168.903044 
L 103.346777 169.026445 
L 106.626116 169.096114 
L 109.905455 169.117913 
L 113.184793 169.097328 
L 116.464132 169.03946 
L 119.743471 168.949014 
L 123.02281 168.830294 
L 126.302149 168.687204 
L 129.581488 168.523246 
L 132.860826 168.341519 
L 136.140165 168.144728 
L 139.419504 167.935187 
L 142.698843 167.71483 
L 145.978182 167.48522 
L 149.257521 167.24756 
L 152.53686 167.00271 
L 155.816198 166.7512 
L 159.095537 166.493244 
L 162.374876 166.228766 
L 165.654215 165.957411 
L 168.933554 165.678566 
L 172.212893 165.391385 
L 175.492231 165.094805 
L 178.77157 164.78757 
L 182.050909 164.468253 
L 185.330248 164.135276 
L 188.609587 163.786935 
L 191.888926 163.421417 
L 195.168264 163.036827 
L 198.447603 162.631203 
L 201.726942 162.202541 
L 205.006281 161.748815 
L 208.28562 161.267991 
L 211.564959 160.758049 
L 214.844298 160.217 
L 218.123636 159.642902 
L 221.402975 159.033871 
L 224.682314 158.388099 
L 227.961653 157.703865 
L 231.240992 156.979546 
L 234.520331 156.213623 
L 237.799669 155.404697 
L 241.079008 154.551485 
L 244.358347 153.652834 
L 247.637686 152.707719 
L 250.917025 151.715248 
L 254.196364 150.674659 
L 257.475702 149.585323 
L 260.755041 148.446737 
L 264.03438 147.258524 
L 267.313719 146.020423 
L 270.593058 144.732286 
L 273.872397 143.394065 
L 277.151736 142.005808 
L 280.431074 140.567642 
L 283.710413 139.079766 
L 286.989752 137.542434 
L 290.269091 135.955944 
L 293.54843 134.32062 
L 296.827769 132.636798 
L 300.107107 130.904811 
L 303.386446 129.124968 
L 306.665785 127.297541 
L 309.945124 125.422746 
L 313.224463 123.500723 
L 316.503802 121.531522 
L 319.78314 119.515085 
L 323.062479 117.451227 
L 326.341818 115.339621 
L 329.621157 113.179781 
L 332.900496 110.971049 
L 336.179835 108.712578 
L 339.459174 106.403323 
L 342.738512 104.042024 
L 346.017851 101.627198 
L 349.29719 99.157132 
L 352.576529 96.629873 
L 355.855868 94.043223 
L 359.135207 91.394735 
L 362.414545 88.681711 
L 365.693884 85.901205 
L 368.973223 83.050021 
L 372.252562 80.124719 
L 375.531901 77.121622 
L 378.81124 74.036824 
L 382.090579 70.866202 
L 385.369917 67.605428 
L 388.649256 64.249985 
L 391.928595 60.795182 
L 395.207934 57.236179 
L 398.487273 53.568 
" style="fill:none;stroke:#000000;stroke-linecap:square;stroke-width:0.5;"/>
   </g>
   <g id="line2d_32">
    <path clip-path="url(#p109c4aee6b)" d="M 73.832727 231.798072 
L 77.112066 230.724785 
L 80.391405 229.754124 
L 83.670744 228.878633 
L 86.950083 228.090997 
L 90.229421 227.384063 
L 93.50876 226.750862 
L 96.788099 226.184633 
L 100.067438 225.678837 
L 103.346777 225.227178 
L 106.626116 224.823609 
L 109.905455 224.462353 
L 113.184793 224.137904 
L 116.464132 223.845037 
L 119.743471 223.578814 
L 123.02281 223.334586 
L 126.302149 223.10799 
L 129.581488 222.894952 
L 132.860826 222.691682 
L 136.140165 222.494665 
L 139.419504 222.30066 
L 142.698843 222.106687 
L 145.978182 221.910018 
L 149.257521 221.708165 
L 152.53686 221.49887 
L 155.816198 221.280088 
L 159.095537 221.049973 
L 162.374876 220.806863 
L 165.654215 220.549268 
L 168.933554 220.275846 
L 172.212893 219.985392 
L 175.492231 219.676822 
L 178.77157 219.349151 
L 182.050909 219.001483 
L 185.330248 218.632988 
L 188.609587 218.242893 
L 191.888926 217.830462 
L 195.168264 217.394985 
L 198.447603 216.935761 
L 201.726942 216.452086 
L 205.006281 215.943246 
L 208.28562 215.408498 
L 211.564959 214.847068 
L 214.844298 214.258139 
L 218.123636 213.640845 
L 221.402975 212.994265 
L 224.682314 212.317421 
L 227.961653 211.609271 
L 231.240992 210.868715 
L 234.520331 210.094588 
L 237.799669 209.285665 
L 241.079008 208.440666 
L 244.358347 207.558259 
L 247.637686 206.637068 
L 250.917025 205.675677 
L 254.196364 204.672644 
L 257.475702 203.626511 
L 260.755041 202.535814 
L 264.03438 201.399097 
L 267.313719 200.214927 
L 270.593058 198.981912 
L 273.872397 197.698711 
L 277.151736 196.364062 
L 280.431074 194.976791 
L 283.710413 193.535835 
L 286.989752 192.040265 
L 290.269091 190.489301 
L 293.54843 188.882336 
L 296.827769 187.218958 
L 300.107107 185.498969 
L 303.386446 183.722406 
L 306.665785 181.889564 
L 309.945124 180.001016 
L 313.224463 178.057632 
L 316.503802 176.0606 
L 319.78314 174.011442 
L 323.062479 171.912036 
L 326.341818 169.76463 
L 329.621157 167.571857 
L 332.900496 165.336749 
L 336.179835 163.062751 
L 339.459174 160.753729 
L 342.738512 158.413981 
L 346.017851 156.048242 
L 349.29719 153.66169 
L 352.576529 151.259947 
L 355.855868 148.849081 
L 359.135207 146.435599 
L 362.414545 144.026449 
L 365.693884 141.629006 
L 368.973223 139.251066 
L 372.252562 136.900833 
L 375.531901 134.5869 
L 378.81124 132.318236 
L 382.090579 130.104161 
L 385.369917 127.954327 
L 388.649256 125.878687 
L 391.928595 123.887473 
L 395.207934 121.991158 
L 398.487273 120.200431 
" style="fill:none;stroke:#000000;stroke-linecap:square;stroke-width:0.5;"/>
   </g>
   <g id="line2d_33">
    <path clip-path="url(#p109c4aee6b)" d="M 73.832727 270.1851 
L 77.112066 271.319624 
L 80.391405 272.416353 
L 83.670744 273.439555 
L 86.950083 274.358285 
L 90.229421 275.146735 
L 93.50876 275.784447 
L 96.788099 276.256389 
L 100.067438 276.552899 
L 103.346777 276.669498 
L 106.626116 276.606595 
L 109.905455 276.369089 
L 113.184793 275.96588 
L 116.464132 275.40931 
L 119.743471 274.714554 
L 123.02281 273.898966 
L 126.302149 272.981414 
L 129.581488 271.981611 
L 132.860826 270.919466 
L 136.140165 269.814461 
L 139.419504 268.685085 
L 142.698843 267.548327 
L 145.978182 266.419238 
L 149.257521 265.310582 
L 152.53686 264.23257 
L 155.816198 263.192694 
L 159.095537 262.195652 
L 162.374876 261.243373 
L 165.654215 260.335128 
L 168.933554 259.46773 
L 172.212893 258.635817 
L 175.492231 257.832197 
L 178.77157 257.048254 
L 182.050909 256.274396 
L 185.330248 255.500539 
L 188.609587 254.716595 
L 191.888926 253.912975 
L 195.168264 253.081062 
L 198.447603 252.213665 
L 201.726942 251.305419 
L 205.006281 250.35314 
L 208.28562 249.356099 
L 211.564959 248.316223 
L 214.844298 247.23821 
L 218.123636 246.129554 
L 221.402975 245.000465 
L 224.682314 243.863707 
L 227.961653 242.734332 
L 231.240992 241.629326 
L 234.520331 240.567181 
L 237.799669 239.567379 
L 241.079008 238.649827 
L 244.358347 237.834238 
L 247.637686 237.139482 
L 250.917025 236.582913 
L 254.196364 236.179703 
L 257.475702 235.942197 
L 260.755041 235.879295 
L 264.03438 235.995893 
L 267.313719 236.292403 
L 270.593058 236.764346 
L 273.872397 237.402058 
L 277.151736 238.190507 
L 280.431074 239.109237 
L 283.710413 240.13244 
L 286.989752 241.229169 
L 290.269091 242.363693 
L 293.54843 243.495988 
L 296.827769 244.582359 
L 300.107107 245.576195 
L 303.386446 246.428834 
L 306.665785 247.090534 
L 309.945124 247.511524 
L 313.224463 247.643123 
L 316.503802 247.438906 
L 319.78314 246.855881 
L 323.062479 245.855675 
L 326.341818 244.405674 
L 329.621157 242.480119 
L 332.900496 240.061113 
L 336.179835 237.139516 
L 339.459174 233.715716 
L 342.738512 229.800238 
L 346.017851 225.414176 
L 349.29719 220.589435 
L 352.576529 215.368763 
L 355.855868 209.805568 
L 359.135207 203.963505 
L 362.414545 197.915838 
L 365.693884 191.744576 
L 368.973223 185.539391 
L 372.252562 179.396332 
L 375.531901 173.416337 
L 378.81124 167.703588 
L 382.090579 162.363706 
L 385.369917 157.501841 
L 388.649256 153.220663 
L 391.928595 149.618308 
L 395.207934 146.786309 
L 398.487273 144.807553 
" style="fill:none;stroke:#0000ff;stroke-dasharray:5.55,2.4;stroke-dashoffset:0;stroke-width:1.5;"/>
   </g>
   <g id="line2d_34">
    <path clip-path="url(#p109c4aee6b)" d="M 73.832727 183.317333 
L 77.112066 187.130701 
L 80.391405 190.868479 
L 83.670744 194.459204 
L 86.950083 197.840984 
L 90.229421 200.962204 
L 93.50876 203.781948 
L 96.788099 206.270153 
L 100.067438 208.407493 
L 103.346777 210.18501 
L 106.626116 211.603525 
L 109.905455 212.672833 
L 113.184793 213.410734 
L 116.464132 213.841915 
L 119.743471 213.996723 
L 123.02281 213.909867 
L 126.302149 213.619083 
L 129.581488 213.163798 
L 132.860826 212.583828 
L 136.140165 211.918137 
L 139.419504 211.203706 
L 142.698843 210.47451 
L 145.978182 209.760653 
L 149.257521 209.08766 
L 152.53686 208.475956 
L 155.816198 207.940524 
L 159.095537 207.490761 
L 162.374876 207.130523 
L 165.654215 206.858352 
L 168.933554 206.667877 
L 172.212893 206.548371 
L 175.492231 206.485452 
L 178.77157 206.461885 
L 182.050909 206.45849 
L 185.330248 206.455095 
L 188.609587 206.431528 
L 191.888926 206.368608 
L 195.168264 206.249103 
L 198.447603 206.058627 
L 201.726942 205.786456 
L 205.006281 205.426219 
L 208.28562 204.976456 
L 211.564959 204.441024 
L 214.844298 203.829319 
L 218.123636 203.156327 
L 221.402975 202.442469 
L 224.682314 201.713274 
L 227.961653 200.998843 
L 231.240992 200.333152 
L 234.520331 199.753181 
L 237.799669 199.297897 
L 241.079008 199.007113 
L 244.358347 198.920257 
L 247.637686 199.075065 
L 250.917025 199.506246 
L 254.196364 200.244147 
L 257.475702 201.313455 
L 260.755041 202.73197 
L 264.03438 204.509487 
L 267.313719 206.646827 
L 270.593058 209.135032 
L 273.872397 211.954776 
L 277.151736 215.075996 
L 280.431074 218.457776 
L 283.710413 222.048501 
L 286.989752 225.786278 
L 290.269091 229.599647 
L 293.54843 233.408557 
L 296.827769 237.125619 
L 300.107107 240.657611 
L 303.386446 243.90721 
L 306.665785 246.774931 
L 309.945124 249.161231 
L 313.224463 250.968749 
L 316.503802 252.104634 
L 319.78314 252.482906 
L 323.062479 252.026813 
L 326.341818 250.671131 
L 329.621157 248.364342 
L 332.900496 245.070648 
L 336.179835 240.771775 
L 339.459174 235.468496 
L 342.738512 229.18186 
L 346.017851 221.954056 
L 349.29719 213.848893 
L 352.576529 204.95187 
L 355.855868 195.3698 
L 359.135207 185.229995 
L 362.414545 174.67898 
L 365.693884 163.880775 
L 368.973223 153.014727 
L 372.252562 142.272928 
L 375.531901 131.857259 
L 378.81124 121.97608 
L 382.090579 112.840637 
L 385.369917 104.661227 
L 388.649256 97.643191 
L 391.928595 91.982801 
L 395.207934 87.863124 
L 398.487273 85.449931 
" style="fill:none;stroke:#ffa500;stroke-dasharray:5.55,2.4;stroke-dashoffset:0;stroke-width:1.5;"/>
   </g>
   <g id="patch_3">
    <path d="M 57.6 307.584 
L 57.6 41.472 
" style="fill:none;stroke:#000000;stroke-linecap:square;stroke-linejoin:miter;stroke-width:0.8;"/>
   </g>
   <g id="patch_4">
    <path d="M 414.72 307.584 
L 414.72 41.472 
" style="fill:none;stroke:#000000;stroke-linecap:square;stroke-linejoin:miter;stroke-width:0.8;"/>
   </g>
   <g id="patch_5">
    <path d="M 57.6 307.584 
L 414.72 307.584 
" style="fill:none;stroke:#000000;stroke-linecap:square;stroke-linejoin:miter;stroke-width:0.8;"/>
   </g>
   <g id="patch_6">
    <path d="M 57.6 41.472 
L 414.72 41.472 
" style="fill:none;stroke:#000000;stroke-linecap:square;stroke-linejoin:miter;stroke-width:0.8;"/>
   </g>
   <g id="legend_1">
    <g id="patch_7">
     <path d="M 64.6 108.1845 
L 239.15625 108.1845 
Q 241.15625 108.1845 241.15625 106.1845 
L 241.15625 48.472 
Q 241.15625 46.472 239.15625 46.472 
L 64.6 46.472 
Q 62.6 46.472 62.6 48.472 
L 62.6 106.1845 
Q 62.6 108.1845 64.6 108.1845 
z
" style="fill:#ffffff;opacity:0.8;stroke:#cccccc;stroke-linejoin:miter;"/>
    </g>
    <g id="line2d_35">
     <path d="M 66.6 54.570438 
L 86.6 54.570438 
" style="fill:none;stroke:#0000ff;stroke-linecap:square;stroke-width:1.5;"/>
    </g>
    <g id="line2d_36"/>
    <g id="text_14">
     <!-- MF cheap GPR (regular GPR) -->
     <g transform="translate(94.6 58.070438)scale(0.1 -0.1)">
      <defs>
       <path d="M 9.8125 72.90625 
L 24.515625 72.90625 
L 43.109375 23.296875 
L 61.8125 72.90625 
L 76.515625 72.90625 
L 76.515625 0 
L 66.890625 0 
L 66.890625 64.015625 
L 48.09375 14.015625 
L 38.1875 14.015625 
L 19.390625 64.015625 
L 19.390625 0 
L 9.8125 0 
z
" id="DejaVuSans-77"/>
       <path d="M 9.8125 72.90625 
L 51.703125 72.90625 
L 51.703125 64.59375 
L 19.671875 64.59375 
L 19.671875 43.109375 
L 48.578125 43.109375 
L 48.578125 34.8125 
L 19.671875 34.8125 
L 19.671875 0 
L 9.8125 0 
z
" id="DejaVuSans-70"/>
       <path id="DejaVuSans-32"/>
       <path d="M 48.78125 52.59375 
L 48.78125 44.1875 
Q 44.96875 46.296875 41.140625 47.34375 
Q 37.3125 48.390625 33.40625 48.390625 
Q 24.65625 48.390625 19.8125 42.84375 
Q 14.984375 37.3125 14.984375 27.296875 
Q 14.984375 17.28125 19.8125 11.734375 
Q 24.65625 6.203125 33.40625 6.203125 
Q 37.3125 6.203125 41.140625 7.25 
Q 44.96875 8.296875 48.78125 10.40625 
L 48.78125 2.09375 
Q 45.015625 0.34375 40.984375 -0.53125 
Q 36.96875 -1.421875 32.421875 -1.421875 
Q 20.0625 -1.421875 12.78125 6.34375 
Q 5.515625 14.109375 5.515625 27.296875 
Q 5.515625 40.671875 12.859375 48.328125 
Q 20.21875 56 33.015625 56 
Q 37.15625 56 41.109375 55.140625 
Q 45.0625 54.296875 48.78125 52.59375 
z
" id="DejaVuSans-99"/>
       <path d="M 54.890625 33.015625 
L 54.890625 0 
L 45.90625 0 
L 45.90625 32.71875 
Q 45.90625 40.484375 42.875 44.328125 
Q 39.84375 48.1875 33.796875 48.1875 
Q 26.515625 48.1875 22.3125 43.546875 
Q 18.109375 38.921875 18.109375 30.90625 
L 18.109375 0 
L 9.078125 0 
L 9.078125 75.984375 
L 18.109375 75.984375 
L 18.109375 46.1875 
Q 21.34375 51.125 25.703125 53.5625 
Q 30.078125 56 35.796875 56 
Q 45.21875 56 50.046875 50.171875 
Q 54.890625 44.34375 54.890625 33.015625 
z
" id="DejaVuSans-104"/>
       <path d="M 56.203125 29.59375 
L 56.203125 25.203125 
L 14.890625 25.203125 
Q 15.484375 15.921875 20.484375 11.0625 
Q 25.484375 6.203125 34.421875 6.203125 
Q 39.59375 6.203125 44.453125 7.46875 
Q 49.3125 8.734375 54.109375 11.28125 
L 54.109375 2.78125 
Q 49.265625 0.734375 44.1875 -0.34375 
Q 39.109375 -1.421875 33.890625 -1.421875 
Q 20.796875 -1.421875 13.15625 6.1875 
Q 5.515625 13.8125 5.515625 26.8125 
Q 5.515625 40.234375 12.765625 48.109375 
Q 20.015625 56 32.328125 56 
Q 43.359375 56 49.78125 48.890625 
Q 56.203125 41.796875 56.203125 29.59375 
z
M 47.21875 32.234375 
Q 47.125 39.59375 43.09375 43.984375 
Q 39.0625 48.390625 32.421875 48.390625 
Q 24.90625 48.390625 20.390625 44.140625 
Q 15.875 39.890625 15.1875 32.171875 
z
" id="DejaVuSans-101"/>
       <path d="M 34.28125 27.484375 
Q 23.390625 27.484375 19.1875 25 
Q 14.984375 22.515625 14.984375 16.5 
Q 14.984375 11.71875 18.140625 8.90625 
Q 21.296875 6.109375 26.703125 6.109375 
Q 34.1875 6.109375 38.703125 11.40625 
Q 43.21875 16.703125 43.21875 25.484375 
L 43.21875 27.484375 
z
M 52.203125 31.203125 
L 52.203125 0 
L 43.21875 0 
L 43.21875 8.296875 
Q 40.140625 3.328125 35.546875 0.953125 
Q 30.953125 -1.421875 24.3125 -1.421875 
Q 15.921875 -1.421875 10.953125 3.296875 
Q 6 8.015625 6 15.921875 
Q 6 25.140625 12.171875 29.828125 
Q 18.359375 34.515625 30.609375 34.515625 
L 43.21875 34.515625 
L 43.21875 35.40625 
Q 43.21875 41.609375 39.140625 45 
Q 35.0625 48.390625 27.6875 48.390625 
Q 23 48.390625 18.546875 47.265625 
Q 14.109375 46.140625 10.015625 43.890625 
L 10.015625 52.203125 
Q 14.9375 54.109375 19.578125 55.046875 
Q 24.21875 56 28.609375 56 
Q 40.484375 56 46.34375 49.84375 
Q 52.203125 43.703125 52.203125 31.203125 
z
" id="DejaVuSans-97"/>
       <path d="M 18.109375 8.203125 
L 18.109375 -20.796875 
L 9.078125 -20.796875 
L 9.078125 54.6875 
L 18.109375 54.6875 
L 18.109375 46.390625 
Q 20.953125 51.265625 25.265625 53.625 
Q 29.59375 56 35.59375 56 
Q 45.5625 56 51.78125 48.09375 
Q 58.015625 40.1875 58.015625 27.296875 
Q 58.015625 14.40625 51.78125 6.484375 
Q 45.5625 -1.421875 35.59375 -1.421875 
Q 29.59375 -1.421875 25.265625 0.953125 
Q 20.953125 3.328125 18.109375 8.203125 
z
M 48.6875 27.296875 
Q 48.6875 37.203125 44.609375 42.84375 
Q 40.53125 48.484375 33.40625 48.484375 
Q 26.265625 48.484375 22.1875 42.84375 
Q 18.109375 37.203125 18.109375 27.296875 
Q 18.109375 17.390625 22.1875 11.75 
Q 26.265625 6.109375 33.40625 6.109375 
Q 40.53125 6.109375 44.609375 11.75 
Q 48.6875 17.390625 48.6875 27.296875 
z
" id="DejaVuSans-112"/>
       <path d="M 59.515625 10.40625 
L 59.515625 29.984375 
L 43.40625 29.984375 
L 43.40625 38.09375 
L 69.28125 38.09375 
L 69.28125 6.78125 
Q 63.578125 2.734375 56.6875 0.65625 
Q 49.8125 -1.421875 42 -1.421875 
Q 24.90625 -1.421875 15.25 8.5625 
Q 5.609375 18.5625 5.609375 36.375 
Q 5.609375 54.25 15.25 64.234375 
Q 24.90625 74.21875 42 74.21875 
Q 49.125 74.21875 55.546875 72.453125 
Q 61.96875 70.703125 67.390625 67.28125 
L 67.390625 56.78125 
Q 61.921875 61.421875 55.765625 63.765625 
Q 49.609375 66.109375 42.828125 66.109375 
Q 29.4375 66.109375 22.71875 58.640625 
Q 16.015625 51.171875 16.015625 36.375 
Q 16.015625 21.625 22.71875 14.15625 
Q 29.4375 6.6875 42.828125 6.6875 
Q 48.046875 6.6875 52.140625 7.59375 
Q 56.25 8.5 59.515625 10.40625 
z
" id="DejaVuSans-71"/>
       <path d="M 19.671875 64.796875 
L 19.671875 37.40625 
L 32.078125 37.40625 
Q 38.96875 37.40625 42.71875 40.96875 
Q 46.484375 44.53125 46.484375 51.125 
Q 46.484375 57.671875 42.71875 61.234375 
Q 38.96875 64.796875 32.078125 64.796875 
z
M 9.8125 72.90625 
L 32.078125 72.90625 
Q 44.34375 72.90625 50.609375 67.359375 
Q 56.890625 61.8125 56.890625 51.125 
Q 56.890625 40.328125 50.609375 34.8125 
Q 44.34375 29.296875 32.078125 29.296875 
L 19.671875 29.296875 
L 19.671875 0 
L 9.8125 0 
z
" id="DejaVuSans-80"/>
       <path d="M 44.390625 34.1875 
Q 47.5625 33.109375 50.5625 29.59375 
Q 53.5625 26.078125 56.59375 19.921875 
L 66.609375 0 
L 56 0 
L 46.6875 18.703125 
Q 43.0625 26.03125 39.671875 28.421875 
Q 36.28125 30.8125 30.421875 30.8125 
L 19.671875 30.8125 
L 19.671875 0 
L 9.8125 0 
L 9.8125 72.90625 
L 32.078125 72.90625 
Q 44.578125 72.90625 50.734375 67.671875 
Q 56.890625 62.453125 56.890625 51.90625 
Q 56.890625 45.015625 53.6875 40.46875 
Q 50.484375 35.9375 44.390625 34.1875 
z
M 19.671875 64.796875 
L 19.671875 38.921875 
L 32.078125 38.921875 
Q 39.203125 38.921875 42.84375 42.21875 
Q 46.484375 45.515625 46.484375 51.90625 
Q 46.484375 58.296875 42.84375 61.546875 
Q 39.203125 64.796875 32.078125 64.796875 
z
" id="DejaVuSans-82"/>
       <path d="M 31 75.875 
Q 24.46875 64.65625 21.28125 53.65625 
Q 18.109375 42.671875 18.109375 31.390625 
Q 18.109375 20.125 21.3125 9.0625 
Q 24.515625 -2 31 -13.1875 
L 23.1875 -13.1875 
Q 15.875 -1.703125 12.234375 9.375 
Q 8.59375 20.453125 8.59375 31.390625 
Q 8.59375 42.28125 12.203125 53.3125 
Q 15.828125 64.359375 23.1875 75.875 
z
" id="DejaVuSans-40"/>
       <path d="M 41.109375 46.296875 
Q 39.59375 47.171875 37.8125 47.578125 
Q 36.03125 48 33.890625 48 
Q 26.265625 48 22.1875 43.046875 
Q 18.109375 38.09375 18.109375 28.8125 
L 18.109375 0 
L 9.078125 0 
L 9.078125 54.6875 
L 18.109375 54.6875 
L 18.109375 46.1875 
Q 20.953125 51.171875 25.484375 53.578125 
Q 30.03125 56 36.53125 56 
Q 37.453125 56 38.578125 55.875 
Q 39.703125 55.765625 41.0625 55.515625 
z
" id="DejaVuSans-114"/>
       <path d="M 45.40625 27.984375 
Q 45.40625 37.75 41.375 43.109375 
Q 37.359375 48.484375 30.078125 48.484375 
Q 22.859375 48.484375 18.828125 43.109375 
Q 14.796875 37.75 14.796875 27.984375 
Q 14.796875 18.265625 18.828125 12.890625 
Q 22.859375 7.515625 30.078125 7.515625 
Q 37.359375 7.515625 41.375 12.890625 
Q 45.40625 18.265625 45.40625 27.984375 
z
M 54.390625 6.78125 
Q 54.390625 -7.171875 48.1875 -13.984375 
Q 42 -20.796875 29.203125 -20.796875 
Q 24.46875 -20.796875 20.265625 -20.09375 
Q 16.0625 -19.390625 12.109375 -17.921875 
L 12.109375 -9.1875 
Q 16.0625 -11.328125 19.921875 -12.34375 
Q 23.78125 -13.375 27.78125 -13.375 
Q 36.625 -13.375 41.015625 -8.765625 
Q 45.40625 -4.15625 45.40625 5.171875 
L 45.40625 9.625 
Q 42.625 4.78125 38.28125 2.390625 
Q 33.9375 0 27.875 0 
Q 17.828125 0 11.671875 7.65625 
Q 5.515625 15.328125 5.515625 27.984375 
Q 5.515625 40.671875 11.671875 48.328125 
Q 17.828125 56 27.875 56 
Q 33.9375 56 38.28125 53.609375 
Q 42.625 51.21875 45.40625 46.390625 
L 45.40625 54.6875 
L 54.390625 54.6875 
z
" id="DejaVuSans-103"/>
       <path d="M 8.5 21.578125 
L 8.5 54.6875 
L 17.484375 54.6875 
L 17.484375 21.921875 
Q 17.484375 14.15625 20.5 10.265625 
Q 23.53125 6.390625 29.59375 6.390625 
Q 36.859375 6.390625 41.078125 11.03125 
Q 45.3125 15.671875 45.3125 23.6875 
L 45.3125 54.6875 
L 54.296875 54.6875 
L 54.296875 0 
L 45.3125 0 
L 45.3125 8.40625 
Q 42.046875 3.421875 37.71875 1 
Q 33.40625 -1.421875 27.6875 -1.421875 
Q 18.265625 -1.421875 13.375 4.4375 
Q 8.5 10.296875 8.5 21.578125 
z
M 31.109375 56 
z
" id="DejaVuSans-117"/>
       <path d="M 9.421875 75.984375 
L 18.40625 75.984375 
L 18.40625 0 
L 9.421875 0 
z
" id="DejaVuSans-108"/>
       <path d="M 8.015625 75.875 
L 15.828125 75.875 
Q 23.140625 64.359375 26.78125 53.3125 
Q 30.421875 42.28125 30.421875 31.390625 
Q 30.421875 20.453125 26.78125 9.375 
Q 23.140625 -1.703125 15.828125 -13.1875 
L 8.015625 -13.1875 
Q 14.5 -2 17.703125 9.0625 
Q 20.90625 20.125 20.90625 31.390625 
Q 20.90625 42.671875 17.703125 53.65625 
Q 14.5 64.65625 8.015625 75.875 
z
" id="DejaVuSans-41"/>
      </defs>
      <use xlink:href="#DejaVuSans-77"/>
      <use x="86.279297" xlink:href="#DejaVuSans-70"/>
      <use x="143.798828" xlink:href="#DejaVuSans-32"/>
      <use x="175.585938" xlink:href="#DejaVuSans-99"/>
      <use x="230.566406" xlink:href="#DejaVuSans-104"/>
      <use x="293.945312" xlink:href="#DejaVuSans-101"/>
      <use x="355.46875" xlink:href="#DejaVuSans-97"/>
      <use x="416.748047" xlink:href="#DejaVuSans-112"/>
      <use x="480.224609" xlink:href="#DejaVuSans-32"/>
      <use x="512.011719" xlink:href="#DejaVuSans-71"/>
      <use x="589.501953" xlink:href="#DejaVuSans-80"/>
      <use x="649.804688" xlink:href="#DejaVuSans-82"/>
      <use x="719.287109" xlink:href="#DejaVuSans-32"/>
      <use x="751.074219" xlink:href="#DejaVuSans-40"/>
      <use x="790.087891" xlink:href="#DejaVuSans-114"/>
      <use x="828.951172" xlink:href="#DejaVuSans-101"/>
      <use x="890.474609" xlink:href="#DejaVuSans-103"/>
      <use x="953.951172" xlink:href="#DejaVuSans-117"/>
      <use x="1017.330078" xlink:href="#DejaVuSans-108"/>
      <use x="1045.113281" xlink:href="#DejaVuSans-97"/>
      <use x="1106.392578" xlink:href="#DejaVuSans-114"/>
      <use x="1147.505859" xlink:href="#DejaVuSans-32"/>
      <use x="1179.292969" xlink:href="#DejaVuSans-71"/>
      <use x="1256.783203" xlink:href="#DejaVuSans-80"/>
      <use x="1317.085938" xlink:href="#DejaVuSans-82"/>
      <use x="1386.568359" xlink:href="#DejaVuSans-41"/>
     </g>
    </g>
    <g id="line2d_37">
     <path d="M 66.6 69.248563 
L 86.6 69.248563 
" style="fill:none;stroke:#ffa500;stroke-linecap:square;stroke-width:1.5;"/>
    </g>
    <g id="line2d_38"/>
    <g id="text_15">
     <!-- MF expensive GPR -->
     <g transform="translate(94.6 72.748563)scale(0.1 -0.1)">
      <defs>
       <path d="M 54.890625 54.6875 
L 35.109375 28.078125 
L 55.90625 0 
L 45.3125 0 
L 29.390625 21.484375 
L 13.484375 0 
L 2.875 0 
L 24.125 28.609375 
L 4.6875 54.6875 
L 15.28125 54.6875 
L 29.78125 35.203125 
L 44.28125 54.6875 
z
" id="DejaVuSans-120"/>
       <path d="M 54.890625 33.015625 
L 54.890625 0 
L 45.90625 0 
L 45.90625 32.71875 
Q 45.90625 40.484375 42.875 44.328125 
Q 39.84375 48.1875 33.796875 48.1875 
Q 26.515625 48.1875 22.3125 43.546875 
Q 18.109375 38.921875 18.109375 30.90625 
L 18.109375 0 
L 9.078125 0 
L 9.078125 54.6875 
L 18.109375 54.6875 
L 18.109375 46.1875 
Q 21.34375 51.125 25.703125 53.5625 
Q 30.078125 56 35.796875 56 
Q 45.21875 56 50.046875 50.171875 
Q 54.890625 44.34375 54.890625 33.015625 
z
" id="DejaVuSans-110"/>
       <path d="M 44.28125 53.078125 
L 44.28125 44.578125 
Q 40.484375 46.53125 36.375 47.5 
Q 32.28125 48.484375 27.875 48.484375 
Q 21.1875 48.484375 17.84375 46.4375 
Q 14.5 44.390625 14.5 40.28125 
Q 14.5 37.15625 16.890625 35.375 
Q 19.28125 33.59375 26.515625 31.984375 
L 29.59375 31.296875 
Q 39.15625 29.25 43.1875 25.515625 
Q 47.21875 21.78125 47.21875 15.09375 
Q 47.21875 7.46875 41.1875 3.015625 
Q 35.15625 -1.421875 24.609375 -1.421875 
Q 20.21875 -1.421875 15.453125 -0.5625 
Q 10.6875 0.296875 5.421875 2 
L 5.421875 11.28125 
Q 10.40625 8.6875 15.234375 7.390625 
Q 20.0625 6.109375 24.8125 6.109375 
Q 31.15625 6.109375 34.5625 8.28125 
Q 37.984375 10.453125 37.984375 14.40625 
Q 37.984375 18.0625 35.515625 20.015625 
Q 33.0625 21.96875 24.703125 23.78125 
L 21.578125 24.515625 
Q 13.234375 26.265625 9.515625 29.90625 
Q 5.8125 33.546875 5.8125 39.890625 
Q 5.8125 47.609375 11.28125 51.796875 
Q 16.75 56 26.8125 56 
Q 31.78125 56 36.171875 55.265625 
Q 40.578125 54.546875 44.28125 53.078125 
z
" id="DejaVuSans-115"/>
       <path d="M 9.421875 54.6875 
L 18.40625 54.6875 
L 18.40625 0 
L 9.421875 0 
z
M 9.421875 75.984375 
L 18.40625 75.984375 
L 18.40625 64.59375 
L 9.421875 64.59375 
z
" id="DejaVuSans-105"/>
       <path d="M 2.984375 54.6875 
L 12.5 54.6875 
L 29.59375 8.796875 
L 46.6875 54.6875 
L 56.203125 54.6875 
L 35.6875 0 
L 23.484375 0 
z
" id="DejaVuSans-118"/>
      </defs>
      <use xlink:href="#DejaVuSans-77"/>
      <use x="86.279297" xlink:href="#DejaVuSans-70"/>
      <use x="143.798828" xlink:href="#DejaVuSans-32"/>
      <use x="175.585938" xlink:href="#DejaVuSans-101"/>
      <use x="235.359375" xlink:href="#DejaVuSans-120"/>
      <use x="294.539062" xlink:href="#DejaVuSans-112"/>
      <use x="358.015625" xlink:href="#DejaVuSans-101"/>
      <use x="419.539062" xlink:href="#DejaVuSans-110"/>
      <use x="482.917969" xlink:href="#DejaVuSans-115"/>
      <use x="535.017578" xlink:href="#DejaVuSans-105"/>
      <use x="562.800781" xlink:href="#DejaVuSans-118"/>
      <use x="621.980469" xlink:href="#DejaVuSans-101"/>
      <use x="683.503906" xlink:href="#DejaVuSans-32"/>
      <use x="715.291016" xlink:href="#DejaVuSans-71"/>
      <use x="792.78125" xlink:href="#DejaVuSans-80"/>
      <use x="853.083984" xlink:href="#DejaVuSans-82"/>
     </g>
    </g>
    <g id="line2d_39">
     <path d="M 66.6 83.926688 
L 86.6 83.926688 
" style="fill:none;stroke:#0000ff;stroke-dasharray:5.55,2.4;stroke-dashoffset:0;stroke-width:1.5;"/>
    </g>
    <g id="line2d_40"/>
    <g id="text_16">
     <!-- Exact cheap function -->
     <g transform="translate(94.6 87.426688)scale(0.1 -0.1)">
      <defs>
       <path d="M 9.8125 72.90625 
L 55.90625 72.90625 
L 55.90625 64.59375 
L 19.671875 64.59375 
L 19.671875 43.015625 
L 54.390625 43.015625 
L 54.390625 34.71875 
L 19.671875 34.71875 
L 19.671875 8.296875 
L 56.78125 8.296875 
L 56.78125 0 
L 9.8125 0 
z
" id="DejaVuSans-69"/>
       <path d="M 18.3125 70.21875 
L 18.3125 54.6875 
L 36.8125 54.6875 
L 36.8125 47.703125 
L 18.3125 47.703125 
L 18.3125 18.015625 
Q 18.3125 11.328125 20.140625 9.421875 
Q 21.96875 7.515625 27.59375 7.515625 
L 36.8125 7.515625 
L 36.8125 0 
L 27.59375 0 
Q 17.1875 0 13.234375 3.875 
Q 9.28125 7.765625 9.28125 18.015625 
L 9.28125 47.703125 
L 2.6875 47.703125 
L 2.6875 54.6875 
L 9.28125 54.6875 
L 9.28125 70.21875 
z
" id="DejaVuSans-116"/>
       <path d="M 37.109375 75.984375 
L 37.109375 68.5 
L 28.515625 68.5 
Q 23.6875 68.5 21.796875 66.546875 
Q 19.921875 64.59375 19.921875 59.515625 
L 19.921875 54.6875 
L 34.71875 54.6875 
L 34.71875 47.703125 
L 19.921875 47.703125 
L 19.921875 0 
L 10.890625 0 
L 10.890625 47.703125 
L 2.296875 47.703125 
L 2.296875 54.6875 
L 10.890625 54.6875 
L 10.890625 58.5 
Q 10.890625 67.625 15.140625 71.796875 
Q 19.390625 75.984375 28.609375 75.984375 
z
" id="DejaVuSans-102"/>
       <path d="M 30.609375 48.390625 
Q 23.390625 48.390625 19.1875 42.75 
Q 14.984375 37.109375 14.984375 27.296875 
Q 14.984375 17.484375 19.15625 11.84375 
Q 23.34375 6.203125 30.609375 6.203125 
Q 37.796875 6.203125 41.984375 11.859375 
Q 46.1875 17.53125 46.1875 27.296875 
Q 46.1875 37.015625 41.984375 42.703125 
Q 37.796875 48.390625 30.609375 48.390625 
z
M 30.609375 56 
Q 42.328125 56 49.015625 48.375 
Q 55.71875 40.765625 55.71875 27.296875 
Q 55.71875 13.875 49.015625 6.21875 
Q 42.328125 -1.421875 30.609375 -1.421875 
Q 18.84375 -1.421875 12.171875 6.21875 
Q 5.515625 13.875 5.515625 27.296875 
Q 5.515625 40.765625 12.171875 48.375 
Q 18.84375 56 30.609375 56 
z
" id="DejaVuSans-111"/>
      </defs>
      <use xlink:href="#DejaVuSans-69"/>
      <use x="63.183594" xlink:href="#DejaVuSans-120"/>
      <use x="122.363281" xlink:href="#DejaVuSans-97"/>
      <use x="183.642578" xlink:href="#DejaVuSans-99"/>
      <use x="238.623047" xlink:href="#DejaVuSans-116"/>
      <use x="277.832031" xlink:href="#DejaVuSans-32"/>
      <use x="309.619141" xlink:href="#DejaVuSans-99"/>
      <use x="364.599609" xlink:href="#DejaVuSans-104"/>
      <use x="427.978516" xlink:href="#DejaVuSans-101"/>
      <use x="489.501953" xlink:href="#DejaVuSans-97"/>
      <use x="550.78125" xlink:href="#DejaVuSans-112"/>
      <use x="614.257812" xlink:href="#DejaVuSans-32"/>
      <use x="646.044922" xlink:href="#DejaVuSans-102"/>
      <use x="681.25" xlink:href="#DejaVuSans-117"/>
      <use x="744.628906" xlink:href="#DejaVuSans-110"/>
      <use x="808.007812" xlink:href="#DejaVuSans-99"/>
      <use x="862.988281" xlink:href="#DejaVuSans-116"/>
      <use x="902.197266" xlink:href="#DejaVuSans-105"/>
      <use x="929.980469" xlink:href="#DejaVuSans-111"/>
      <use x="991.162109" xlink:href="#DejaVuSans-110"/>
     </g>
    </g>
    <g id="line2d_41">
     <path d="M 66.6 98.604813 
L 86.6 98.604813 
" style="fill:none;stroke:#ffa500;stroke-dasharray:5.55,2.4;stroke-dashoffset:0;stroke-width:1.5;"/>
    </g>
    <g id="line2d_42"/>
    <g id="text_17">
     <!-- Exact expensive function -->
     <g transform="translate(94.6 102.104813)scale(0.1 -0.1)">
      <use xlink:href="#DejaVuSans-69"/>
      <use x="63.183594" xlink:href="#DejaVuSans-120"/>
      <use x="122.363281" xlink:href="#DejaVuSans-97"/>
      <use x="183.642578" xlink:href="#DejaVuSans-99"/>
      <use x="238.623047" xlink:href="#DejaVuSans-116"/>
      <use x="277.832031" xlink:href="#DejaVuSans-32"/>
      <use x="309.619141" xlink:href="#DejaVuSans-101"/>
      <use x="369.392578" xlink:href="#DejaVuSans-120"/>
      <use x="428.572266" xlink:href="#DejaVuSans-112"/>
      <use x="492.048828" xlink:href="#DejaVuSans-101"/>
      <use x="553.572266" xlink:href="#DejaVuSans-110"/>
      <use x="616.951172" xlink:href="#DejaVuSans-115"/>
      <use x="669.050781" xlink:href="#DejaVuSans-105"/>
      <use x="696.833984" xlink:href="#DejaVuSans-118"/>
      <use x="756.013672" xlink:href="#DejaVuSans-101"/>
      <use x="817.537109" xlink:href="#DejaVuSans-32"/>
      <use x="849.324219" xlink:href="#DejaVuSans-102"/>
      <use x="884.529297" xlink:href="#DejaVuSans-117"/>
      <use x="947.908203" xlink:href="#DejaVuSans-110"/>
      <use x="1011.287109" xlink:href="#DejaVuSans-99"/>
      <use x="1066.267578" xlink:href="#DejaVuSans-116"/>
      <use x="1105.476562" xlink:href="#DejaVuSans-105"/>
      <use x="1133.259766" xlink:href="#DejaVuSans-111"/>
      <use x="1194.441406" xlink:href="#DejaVuSans-110"/>
     </g>
    </g>
   </g>
  </g>
 </g>
 <defs>
  <clipPath id="p109c4aee6b">
   <rect height="266.112" width="357.12" x="57.6" y="41.472"/>
  </clipPath>
 </defs>
</svg>
