<?xml version="1.0" encoding="utf-8" standalone="no"?>
<!DOCTYPE svg PUBLIC "-//W3C//DTD SVG 1.1//EN"
  "http://www.w3.org/Graphics/SVG/1.1/DTD/svg11.dtd">
<!-- Created with matplotlib (https://matplotlib.org/) -->
<svg height="345.6pt" version="1.1" viewBox="0 0 460.8 345.6" width="460.8pt" xmlns="http://www.w3.org/2000/svg" xmlns:xlink="http://www.w3.org/1999/xlink">
 <metadata>
  <rdf:RDF xmlns:cc="http://creativecommons.org/ns#" xmlns:dc="http://purl.org/dc/elements/1.1/" xmlns:rdf="http://www.w3.org/1999/02/22-rdf-syntax-ns#">
   <cc:Work>
    <dc:type rdf:resource="http://purl.org/dc/dcmitype/StillImage"/>
    <dc:date>2020-11-24T14:01:35.228739</dc:date>
    <dc:format>image/svg+xml</dc:format>
    <dc:creator>
     <cc:Agent>
      <dc:title>Matplotlib v3.3.1, https://matplotlib.org/</dc:title>
     </cc:Agent>
    </dc:creator>
   </cc:Work>
  </rdf:RDF>
 </metadata>
 <defs>
  <style type="text/css">*{stroke-linecap:butt;stroke-linejoin:round;}</style>
 </defs>
 <g id="figure_1">
  <g id="patch_1">
   <path d="M 0 345.6 
L 460.8 345.6 
L 460.8 0 
L 0 0 
z
" style="fill:#ffffff;"/>
  </g>
  <g id="axes_1">
   <g id="patch_2">
    <path d="M 57.6 307.584 
L 414.72 307.584 
L 414.72 41.472 
L 57.6 41.472 
z
" style="fill:#ffffff;"/>
   </g>
   <g id="PolyCollection_1">
    <defs>
     <path d="M 73.832727 -64.47676 
L 73.832727 -57.472891 
L 77.112066 -56.122619 
L 80.391405 -54.747051 
L 83.670744 -53.455185 
L 86.950083 -52.325259 
L 90.229421 -51.407834 
L 93.50876 -50.729955 
L 96.788099 -50.299894 
L 100.067438 -50.112 
L 103.346777 -50.151259 
L 106.626116 -50.397233 
L 109.905455 -50.827191 
L 113.184793 -51.418347 
L 116.464132 -52.14922 
L 119.743471 -53.000247 
L 123.02281 -53.953802 
L 126.302149 -54.993847 
L 129.581488 -56.105396 
L 132.860826 -57.273994 
L 136.140165 -58.485336 
L 139.419504 -59.725109 
L 142.698843 -60.979088 
L 145.978182 -62.233469 
L 149.257521 -63.475367 
L 152.53686 -64.693408 
L 155.816198 -65.878326 
L 159.095537 -67.023465 
L 162.374876 -68.125143 
L 165.654215 -69.182814 
L 168.933554 -70.199029 
L 172.212893 -71.17919 
L 175.492231 -72.131141 
L 178.77157 -73.064619 
L 182.050909 -73.990626 
L 185.330248 -74.920763 
L 188.609587 -75.86656 
L 191.888926 -76.838846 
L 195.168264 -77.847164 
L 198.447603 -78.899263 
L 201.726942 -80.000656 
L 205.006281 -81.154248 
L 208.28562 -82.360048 
L 211.564959 -83.614955 
L 214.844298 -84.912615 
L 218.123636 -86.24338 
L 221.402975 -87.594352 
L 224.682314 -88.949541 
L 227.961653 -90.290133 
L 231.240992 -91.594889 
L 234.520331 -92.840664 
L 237.799669 -94.003053 
L 241.079008 -95.057144 
L 244.358347 -95.978377 
L 247.637686 -96.743461 
L 250.917025 -97.331343 
L 254.196364 -97.724168 
L 257.475702 -97.908214 
L 260.755041 -97.874741 
L 264.03438 -97.620722 
L 267.313719 -97.149424 
L 270.593058 -96.470801 
L 273.872397 -95.601686 
L 277.151736 -94.565765 
L 280.431074 -93.393341 
L 283.710413 -92.120895 
L 286.989752 -90.790464 
L 290.269091 -89.448873 
L 293.54843 -88.146829 
L 296.827769 -86.937928 
L 300.107107 -85.87758 
L 303.386446 -85.021883 
L 306.665785 -84.426445 
L 309.945124 -84.145156 
L 313.224463 -84.228924 
L 316.503802 -84.724369 
L 319.78314 -85.672494 
L 323.062479 -87.107356 
L 326.341818 -89.054792 
L 329.621157 -91.531259 
L 332.900496 -94.542874 
L 336.179835 -98.084747 
L 339.459174 -102.140695 
L 342.738512 -106.683413 
L 346.017851 -111.675147 
L 349.29719 -117.068862 
L 352.576529 -122.809866 
L 355.855868 -128.837741 
L 359.135207 -135.08844 
L 362.414545 -141.496304 
L 365.693884 -147.995765 
L 368.973223 -154.522475 
L 372.252562 -161.013657 
L 375.531901 -167.407512 
L 378.81124 -173.641626 
L 382.090579 -179.650421 
L 385.369917 -185.361831 
L 388.649256 -190.693475 
L 391.928595 -195.54874 
L 395.207934 -199.813213 
L 398.487273 -203.351971 
L 398.487273 -210.35584 
L 398.487273 -210.35584 
L 395.207934 -206.247545 
L 391.928595 -201.838758 
L 388.649256 -197.064971 
L 385.369917 -191.898129 
L 382.090579 -186.342837 
L 378.81124 -180.431355 
L 375.531901 -174.217887 
L 372.252562 -167.772652 
L 368.973223 -161.176176 
L 365.693884 -154.514147 
L 362.414545 -147.873051 
L 359.135207 -141.336721 
L 355.855868 -134.983795 
L 352.576529 -128.886 
L 349.29719 -123.107128 
L 346.017851 -117.702523 
L 342.738512 -112.718896 
L 339.459174 -108.194309 
L 336.179835 -104.158217 
L 332.900496 -100.631474 
L 329.621157 -97.626297 
L 326.341818 -95.146197 
L 323.062479 -93.185928 
L 319.78314 -91.731523 
L 316.503802 -90.760483 
L 313.224463 -90.242182 
L 309.945124 -90.138521 
L 306.665785 -90.404838 
L 303.386446 -90.991063 
L 300.107107 -91.843074 
L 296.827769 -92.904179 
L 293.54843 -94.116674 
L 290.269091 -95.423381 
L 286.989752 -96.769109 
L 283.710413 -98.101969 
L 280.431074 -99.374512 
L 277.151736 -100.544647 
L 273.872397 -101.57633 
L 270.593058 -102.440036 
L 267.313719 -103.113002 
L 264.03438 -103.579276 
L 260.755041 -103.829584 
L 257.475702 -103.861034 
L 254.196364 -103.676685 
L 250.917025 -103.284996 
L 247.637686 -102.699167 
L 244.358347 -101.936414 
L 241.079008 -101.017159 
L 237.799669 -99.964195 
L 234.520331 -98.801806 
L 231.240992 -97.554904 
L 227.961653 -96.24817 
L 224.682314 -94.905247 
L 221.402975 -93.548005 
L 218.123636 -92.195898 
L 214.844298 -90.865435 
L 211.564959 -89.569798 
L 208.28562 -88.318602 
L 205.006281 -87.117825 
L 201.726942 -85.96989 
L 198.447603 -84.873907 
L 195.168264 -83.826045 
L 191.888926 -82.820017 
L 188.609587 -81.847635 
L 185.330248 -80.899408 
L 182.050909 -79.965134 
L 178.77157 -79.034463 
L 175.492231 -78.097392 
L 172.212893 -77.144684 
L 168.933554 -76.168209 
L 165.654215 -75.161207 
L 162.374876 -74.118509 
L 159.095537 -73.036724 
L 155.816198 -71.91444 
L 152.53686 -70.752437 
L 149.257521 -69.553939 
L 145.978182 -68.324874 
L 142.698843 -67.074127 
L 139.419504 -65.813709 
L 136.140165 -64.558806 
L 132.860826 -63.327608 
L 129.581488 -62.140878 
L 126.302149 -61.021224 
L 123.02281 -59.992068 
L 119.743471 -59.07638 
L 116.464132 -58.295274 
L 113.184793 -57.666629 
L 109.905455 -57.203938 
L 106.626116 -56.915615 
L 103.346777 -56.80496 
L 100.067438 -56.870994 
L 96.788099 -57.110268 
L 93.50876 -57.519685 
L 90.229421 -58.10025 
L 86.950083 -58.861557 
L 83.670744 -59.826681 
L 80.391405 -61.037069 
L 77.112066 -62.556952 
L 73.832727 -64.47676 
z
" id="m5e62e5722d" style="stroke:#0000ff;stroke-opacity:0.2;"/>
    </defs>
    <g clip-path="url(#p6799fb8788)">
     <use style="fill:#0000ff;fill-opacity:0.2;stroke:#0000ff;stroke-opacity:0.2;" x="0" xlink:href="#m5e62e5722d" y="345.6"/>
    </g>
   </g>
   <g id="PolyCollection_2">
    <defs>
     <path d="M 73.832727 -178.461003 
L 73.832727 -146.14977 
L 77.112066 -142.226759 
L 80.391405 -137.800796 
L 83.670744 -133.304093 
L 86.950083 -129.046197 
L 90.229421 -125.227123 
L 93.50876 -121.954848 
L 96.788099 -119.265132 
L 100.067438 -117.141666 
L 103.346777 -115.534875 
L 106.626116 -114.378056 
L 109.905455 -113.600025 
L 113.184793 -113.133932 
L 116.464132 -112.922354 
L 119.743471 -112.919142 
L 123.02281 -113.088762 
L 126.302149 -113.40398 
L 129.581488 -113.84278 
L 132.860826 -114.385258 
L 136.140165 -115.011112 
L 139.419504 -115.698069 
L 142.698843 -116.421418 
L 145.978182 -117.15457 
L 149.257521 -117.870436 
L 152.53686 -118.5433 
L 155.816198 -119.150831 
L 159.095537 -119.675919 
L 162.374876 -120.108058 
L 165.654215 -120.444123 
L 168.933554 -120.68847 
L 172.212893 -120.852389 
L 175.492231 -120.953036 
L 178.77157 -121.011968 
L 182.050909 -121.053486 
L 185.330248 -121.102925 
L 188.609587 -121.185039 
L 191.888926 -121.322567 
L 195.168264 -121.535029 
L 198.447603 -121.837766 
L 201.726942 -122.241211 
L 205.006281 -122.750334 
L 208.28562 -123.364252 
L 211.564959 -124.075956 
L 214.844298 -124.872141 
L 218.123636 -125.733151 
L 221.402975 -126.63305 
L 224.682314 -127.539847 
L 227.961653 -128.415937 
L 231.240992 -129.21876 
L 234.520331 -129.901738 
L 237.799669 -130.415487 
L 241.079008 -130.709305 
L 244.358347 -130.732908 
L 247.637686 -130.438363 
L 250.917025 -129.782147 
L 254.196364 -128.727243 
L 257.475702 -127.245165 
L 260.755041 -125.317818 
L 264.03438 -122.939071 
L 267.313719 -120.115961 
L 270.593058 -116.869461 
L 273.872397 -113.234753 
L 277.151736 -109.261016 
L 280.431074 -105.010741 
L 283.710413 -100.558636 
L 286.989752 -95.990206 
L 290.269091 -91.400085 
L 293.54843 -86.890233 
L 296.827769 -82.568047 
L 300.107107 -78.544439 
L 303.386446 -74.931885 
L 306.665785 -71.84241 
L 309.945124 -69.385441 
L 313.224463 -67.665464 
L 316.503802 -66.779412 
L 319.78314 -66.813776 
L 323.062479 -67.841465 
L 326.341818 -69.918553 
L 329.621157 -73.081123 
L 332.900496 -77.342502 
L 336.179835 -82.691236 
L 339.459174 -89.090152 
L 342.738512 -96.476815 
L 346.017851 -104.765566 
L 349.29719 -113.851155 
L 352.576529 -123.613766 
L 355.855868 -133.925005 
L 359.135207 -144.654166 
L 362.414545 -155.673925 
L 365.693884 -166.864516 
L 368.973223 -178.115428 
L 372.252562 -189.323791 
L 375.531901 -200.388916 
L 378.81124 -211.202769 
L 382.090579 -221.636681 
L 385.369917 -231.525039 
L 388.649256 -240.647234 
L 391.928595 -248.709518 
L 395.207934 -255.32872 
L 398.487273 -260.01987 
L 398.487273 -292.032 
L 398.487273 -292.032 
L 395.207934 -284.91503 
L 391.928595 -277.63651 
L 388.649256 -269.854792 
L 385.369917 -261.362481 
L 382.090579 -252.071861 
L 378.81124 -241.995678 
L 375.531901 -231.225348 
L 372.252562 -219.908619 
L 368.973223 -208.228425 
L 365.693884 -196.38429 
L 362.414545 -184.577183 
L 359.135207 -172.998223 
L 355.855868 -161.821182 
L 352.576529 -151.198394 
L 349.29719 -141.259374 
L 346.017851 -132.111362 
L 342.738512 -123.840954 
L 339.459174 -116.516109 
L 336.179835 -110.187965 
L 332.900496 -104.892106 
L 329.621157 -100.649155 
L 326.341818 -97.464741 
L 323.062479 -95.329041 
L 319.78314 -94.216184 
L 316.503802 -94.083831 
L 313.224463 -94.873198 
L 309.945124 -96.50973 
L 306.665785 -98.904521 
L 303.386446 -101.95648 
L 300.107107 -105.555132 
L 296.827769 -109.583882 
L 293.54843 -113.923522 
L 290.269091 -118.45575 
L 286.989752 -123.066487 
L 283.710413 -127.648822 
L 280.431074 -132.105464 
L 277.151736 -136.350634 
L 273.872397 -140.311388 
L 270.593058 -143.928406 
L 267.313719 -147.156292 
L 264.03438 -149.963474 
L 260.755041 -152.33176 
L 257.475702 -154.255635 
L 254.196364 -155.741337 
L 250.917025 -156.805761 
L 247.637686 -157.475217 
L 244.358347 -157.784053 
L 241.079008 -157.773166 
L 237.799669 -157.488409 
L 234.520331 -156.97892 
L 231.240992 -156.295398 
L 227.961653 -155.488367 
L 224.682314 -154.606478 
L 221.402975 -153.694911 
L 218.123636 -152.793937 
L 214.844298 -151.937712 
L 211.564959 -151.15337 
L 208.28562 -150.460452 
L 205.006281 -149.870735 
L 201.726942 -149.38844 
L 198.447603 -149.010837 
L 195.168264 -148.729162 
L 191.888926 -148.529812 
L 188.609587 -148.395669 
L 185.330248 -148.307483 
L 182.050909 -148.245168 
L 178.77157 -148.188913 
L 175.492231 -148.12006 
L 172.212893 -148.021692 
L 168.933554 -147.878975 
L 165.654215 -147.679321 
L 162.374876 -147.41248 
L 159.095537 -147.070696 
L 155.816198 -146.649059 
L 152.53686 -146.146134 
L 149.257521 -145.564901 
L 145.978182 -144.91395 
L 142.698843 -144.208777 
L 139.419504 -143.472963 
L 136.140165 -142.738915 
L 132.860826 -142.047888 
L 129.581488 -141.448999 
L 126.302149 -140.997067 
L 123.02281 -140.749282 
L 119.743471 -140.760871 
L 116.464132 -141.080217 
L 113.184793 -141.744041 
L 109.905455 -142.773475 
L 106.626116 -144.171927 
L 103.346777 -145.925638 
L 100.067438 -148.007685 
L 96.788099 -150.38593 
L 93.50876 -153.035042 
L 90.229421 -155.952246 
L 86.950083 -159.175972 
L 83.670744 -162.806101 
L 80.391405 -167.024075 
L 77.112066 -172.110909 
L 73.832727 -178.461003 
z
" id="mdc45465211" style="stroke:#ffa500;stroke-opacity:0.2;"/>
    </defs>
    <g clip-path="url(#p6799fb8788)">
     <use style="fill:#ffa500;fill-opacity:0.2;stroke:#ffa500;stroke-opacity:0.2;" x="0" xlink:href="#mdc45465211" y="345.6"/>
    </g>
   </g>
   <g id="PathCollection_1">
    <defs>
     <path d="M 0 3 
C 0.795609 3 1.55874 2.683901 2.12132 2.12132 
C 2.683901 1.55874 3 0.795609 3 0 
C 3 -0.795609 2.683901 -1.55874 2.12132 -2.12132 
C 1.55874 -2.683901 0.795609 -3 0 -3 
C -0.795609 -3 -1.55874 -2.683901 -2.12132 -2.12132 
C -2.683901 -1.55874 -3 -0.795609 -3 0 
C -3 0.795609 -2.683901 1.55874 -2.12132 2.12132 
C -1.55874 2.683901 -0.795609 3 0 3 
z
" id="mcb33b7ba1f" style="stroke:#0000ff;"/>
    </defs>
    <g clip-path="url(#p6799fb8788)">
     <use style="fill:#0000ff;stroke:#0000ff;" x="73.832727" xlink:href="#mcb33b7ba1f" y="284.653453"/>
     <use style="fill:#0000ff;stroke:#0000ff;" x="106.298182" xlink:href="#mcb33b7ba1f" y="292.142422"/>
     <use style="fill:#0000ff;stroke:#0000ff;" x="138.763636" xlink:href="#mcb33b7ba1f" y="283.172091"/>
     <use style="fill:#0000ff;stroke:#0000ff;" x="171.229091" xlink:href="#mcb33b7ba1f" y="271.500673"/>
     <use style="fill:#0000ff;stroke:#0000ff;" x="203.694545" xlink:href="#mcb33b7ba1f" y="262.025511"/>
     <use style="fill:#0000ff;stroke:#0000ff;" x="236.16" xlink:href="#mcb33b7ba1f" y="249.596339"/>
     <use style="fill:#0000ff;stroke:#0000ff;" x="268.625455" xlink:href="#mcb33b7ba1f" y="245.409881"/>
     <use style="fill:#0000ff;stroke:#0000ff;" x="301.090909" xlink:href="#mcb33b7ba1f" y="256.334825"/>
     <use style="fill:#0000ff;stroke:#0000ff;" x="333.556364" xlink:href="#mcb33b7ba1f" y="248.96667"/>
     <use style="fill:#0000ff;stroke:#0000ff;" x="366.021818" xlink:href="#mcb33b7ba1f" y="192.654055"/>
     <use style="fill:#0000ff;stroke:#0000ff;" x="398.487273" xlink:href="#mcb33b7ba1f" y="138.757869"/>
    </g>
   </g>
   <g id="PathCollection_2">
    <defs>
     <path d="M 0 3 
C 0.795609 3 1.55874 2.683901 2.12132 2.12132 
C 2.683901 1.55874 3 0.795609 3 0 
C 3 -0.795609 2.683901 -1.55874 2.12132 -2.12132 
C 1.55874 -2.683901 0.795609 -3 0 -3 
C -0.795609 -3 -1.55874 -2.683901 -2.12132 -2.12132 
C -2.683901 -1.55874 -3 -0.795609 -3 0 
C -3 0.795609 -2.683901 1.55874 -2.12132 2.12132 
C -1.55874 2.683901 -0.795609 3 0 3 
z
" id="m13a3a7e90e" style="stroke:#ffa500;"/>
    </defs>
    <g clip-path="url(#p6799fb8788)">
     <use style="fill:#ffa500;stroke:#ffa500;" x="73.832727" xlink:href="#m13a3a7e90e" y="183.569775"/>
     <use style="fill:#ffa500;stroke:#ffa500;" x="203.694545" xlink:href="#m13a3a7e90e" y="209.476997"/>
     <use style="fill:#ffa500;stroke:#ffa500;" x="268.625455" xlink:href="#m13a3a7e90e" y="211.82729"/>
     <use style="fill:#ffa500;stroke:#ffa500;" x="333.556364" xlink:href="#m13a3a7e90e" y="254.52242"/>
     <use style="fill:#ffa500;stroke:#ffa500;" x="398.487273" xlink:href="#m13a3a7e90e" y="69.686372"/>
    </g>
   </g>
   <g id="matplotlib.axis_1">
    <g id="xtick_1">
     <g id="line2d_1">
      <path clip-path="url(#p6799fb8788)" d="M 73.832727 307.584 
L 73.832727 41.472 
" style="fill:none;stroke:#b0b0b0;stroke-linecap:square;stroke-width:0.8;"/>
     </g>
     <g id="line2d_2">
      <defs>
       <path d="M 0 0 
L 0 3.5 
" id="m45567f70fd" style="stroke:#000000;stroke-width:0.8;"/>
      </defs>
      <g>
       <use style="stroke:#000000;stroke-width:0.8;" x="73.832727" xlink:href="#m45567f70fd" y="307.584"/>
      </g>
     </g>
     <g id="text_1">
      <!-- 0.0 -->
      <g transform="translate(65.881165 322.182437)scale(0.1 -0.1)">
       <defs>
        <path d="M 31.78125 66.40625 
Q 24.171875 66.40625 20.328125 58.90625 
Q 16.5 51.421875 16.5 36.375 
Q 16.5 21.390625 20.328125 13.890625 
Q 24.171875 6.390625 31.78125 6.390625 
Q 39.453125 6.390625 43.28125 13.890625 
Q 47.125 21.390625 47.125 36.375 
Q 47.125 51.421875 43.28125 58.90625 
Q 39.453125 66.40625 31.78125 66.40625 
z
M 31.78125 74.21875 
Q 44.046875 74.21875 50.515625 64.515625 
Q 56.984375 54.828125 56.984375 36.375 
Q 56.984375 17.96875 50.515625 8.265625 
Q 44.046875 -1.421875 31.78125 -1.421875 
Q 19.53125 -1.421875 13.0625 8.265625 
Q 6.59375 17.96875 6.59375 36.375 
Q 6.59375 54.828125 13.0625 64.515625 
Q 19.53125 74.21875 31.78125 74.21875 
z
" id="DejaVuSans-48"/>
        <path d="M 10.6875 12.40625 
L 21 12.40625 
L 21 0 
L 10.6875 0 
z
" id="DejaVuSans-46"/>
       </defs>
       <use xlink:href="#DejaVuSans-48"/>
       <use x="63.623047" xlink:href="#DejaVuSans-46"/>
       <use x="95.410156" xlink:href="#DejaVuSans-48"/>
      </g>
     </g>
    </g>
    <g id="xtick_2">
     <g id="line2d_3">
      <path clip-path="url(#p6799fb8788)" d="M 138.763636 307.584 
L 138.763636 41.472 
" style="fill:none;stroke:#b0b0b0;stroke-linecap:square;stroke-width:0.8;"/>
     </g>
     <g id="line2d_4">
      <g>
       <use style="stroke:#000000;stroke-width:0.8;" x="138.763636" xlink:href="#m45567f70fd" y="307.584"/>
      </g>
     </g>
     <g id="text_2">
      <!-- 0.2 -->
      <g transform="translate(130.812074 322.182437)scale(0.1 -0.1)">
       <defs>
        <path d="M 19.1875 8.296875 
L 53.609375 8.296875 
L 53.609375 0 
L 7.328125 0 
L 7.328125 8.296875 
Q 12.9375 14.109375 22.625 23.890625 
Q 32.328125 33.6875 34.8125 36.53125 
Q 39.546875 41.84375 41.421875 45.53125 
Q 43.3125 49.21875 43.3125 52.78125 
Q 43.3125 58.59375 39.234375 62.25 
Q 35.15625 65.921875 28.609375 65.921875 
Q 23.96875 65.921875 18.8125 64.3125 
Q 13.671875 62.703125 7.8125 59.421875 
L 7.8125 69.390625 
Q 13.765625 71.78125 18.9375 73 
Q 24.125 74.21875 28.421875 74.21875 
Q 39.75 74.21875 46.484375 68.546875 
Q 53.21875 62.890625 53.21875 53.421875 
Q 53.21875 48.921875 51.53125 44.890625 
Q 49.859375 40.875 45.40625 35.40625 
Q 44.1875 33.984375 37.640625 27.21875 
Q 31.109375 20.453125 19.1875 8.296875 
z
" id="DejaVuSans-50"/>
       </defs>
       <use xlink:href="#DejaVuSans-48"/>
       <use x="63.623047" xlink:href="#DejaVuSans-46"/>
       <use x="95.410156" xlink:href="#DejaVuSans-50"/>
      </g>
     </g>
    </g>
    <g id="xtick_3">
     <g id="line2d_5">
      <path clip-path="url(#p6799fb8788)" d="M 203.694545 307.584 
L 203.694545 41.472 
" style="fill:none;stroke:#b0b0b0;stroke-linecap:square;stroke-width:0.8;"/>
     </g>
     <g id="line2d_6">
      <g>
       <use style="stroke:#000000;stroke-width:0.8;" x="203.694545" xlink:href="#m45567f70fd" y="307.584"/>
      </g>
     </g>
     <g id="text_3">
      <!-- 0.4 -->
      <g transform="translate(195.742983 322.182437)scale(0.1 -0.1)">
       <defs>
        <path d="M 37.796875 64.3125 
L 12.890625 25.390625 
L 37.796875 25.390625 
z
M 35.203125 72.90625 
L 47.609375 72.90625 
L 47.609375 25.390625 
L 58.015625 25.390625 
L 58.015625 17.1875 
L 47.609375 17.1875 
L 47.609375 0 
L 37.796875 0 
L 37.796875 17.1875 
L 4.890625 17.1875 
L 4.890625 26.703125 
z
" id="DejaVuSans-52"/>
       </defs>
       <use xlink:href="#DejaVuSans-48"/>
       <use x="63.623047" xlink:href="#DejaVuSans-46"/>
       <use x="95.410156" xlink:href="#DejaVuSans-52"/>
      </g>
     </g>
    </g>
    <g id="xtick_4">
     <g id="line2d_7">
      <path clip-path="url(#p6799fb8788)" d="M 268.625455 307.584 
L 268.625455 41.472 
" style="fill:none;stroke:#b0b0b0;stroke-linecap:square;stroke-width:0.8;"/>
     </g>
     <g id="line2d_8">
      <g>
       <use style="stroke:#000000;stroke-width:0.8;" x="268.625455" xlink:href="#m45567f70fd" y="307.584"/>
      </g>
     </g>
     <g id="text_4">
      <!-- 0.6 -->
      <g transform="translate(260.673892 322.182437)scale(0.1 -0.1)">
       <defs>
        <path d="M 33.015625 40.375 
Q 26.375 40.375 22.484375 35.828125 
Q 18.609375 31.296875 18.609375 23.390625 
Q 18.609375 15.53125 22.484375 10.953125 
Q 26.375 6.390625 33.015625 6.390625 
Q 39.65625 6.390625 43.53125 10.953125 
Q 47.40625 15.53125 47.40625 23.390625 
Q 47.40625 31.296875 43.53125 35.828125 
Q 39.65625 40.375 33.015625 40.375 
z
M 52.59375 71.296875 
L 52.59375 62.3125 
Q 48.875 64.0625 45.09375 64.984375 
Q 41.3125 65.921875 37.59375 65.921875 
Q 27.828125 65.921875 22.671875 59.328125 
Q 17.53125 52.734375 16.796875 39.40625 
Q 19.671875 43.65625 24.015625 45.921875 
Q 28.375 48.1875 33.59375 48.1875 
Q 44.578125 48.1875 50.953125 41.515625 
Q 57.328125 34.859375 57.328125 23.390625 
Q 57.328125 12.15625 50.6875 5.359375 
Q 44.046875 -1.421875 33.015625 -1.421875 
Q 20.359375 -1.421875 13.671875 8.265625 
Q 6.984375 17.96875 6.984375 36.375 
Q 6.984375 53.65625 15.1875 63.9375 
Q 23.390625 74.21875 37.203125 74.21875 
Q 40.921875 74.21875 44.703125 73.484375 
Q 48.484375 72.75 52.59375 71.296875 
z
" id="DejaVuSans-54"/>
       </defs>
       <use xlink:href="#DejaVuSans-48"/>
       <use x="63.623047" xlink:href="#DejaVuSans-46"/>
       <use x="95.410156" xlink:href="#DejaVuSans-54"/>
      </g>
     </g>
    </g>
    <g id="xtick_5">
     <g id="line2d_9">
      <path clip-path="url(#p6799fb8788)" d="M 333.556364 307.584 
L 333.556364 41.472 
" style="fill:none;stroke:#b0b0b0;stroke-linecap:square;stroke-width:0.8;"/>
     </g>
     <g id="line2d_10">
      <g>
       <use style="stroke:#000000;stroke-width:0.8;" x="333.556364" xlink:href="#m45567f70fd" y="307.584"/>
      </g>
     </g>
     <g id="text_5">
      <!-- 0.8 -->
      <g transform="translate(325.604801 322.182437)scale(0.1 -0.1)">
       <defs>
        <path d="M 31.78125 34.625 
Q 24.75 34.625 20.71875 30.859375 
Q 16.703125 27.09375 16.703125 20.515625 
Q 16.703125 13.921875 20.71875 10.15625 
Q 24.75 6.390625 31.78125 6.390625 
Q 38.8125 6.390625 42.859375 10.171875 
Q 46.921875 13.96875 46.921875 20.515625 
Q 46.921875 27.09375 42.890625 30.859375 
Q 38.875 34.625 31.78125 34.625 
z
M 21.921875 38.8125 
Q 15.578125 40.375 12.03125 44.71875 
Q 8.5 49.078125 8.5 55.328125 
Q 8.5 64.0625 14.71875 69.140625 
Q 20.953125 74.21875 31.78125 74.21875 
Q 42.671875 74.21875 48.875 69.140625 
Q 55.078125 64.0625 55.078125 55.328125 
Q 55.078125 49.078125 51.53125 44.71875 
Q 48 40.375 41.703125 38.8125 
Q 48.828125 37.15625 52.796875 32.3125 
Q 56.78125 27.484375 56.78125 20.515625 
Q 56.78125 9.90625 50.3125 4.234375 
Q 43.84375 -1.421875 31.78125 -1.421875 
Q 19.734375 -1.421875 13.25 4.234375 
Q 6.78125 9.90625 6.78125 20.515625 
Q 6.78125 27.484375 10.78125 32.3125 
Q 14.796875 37.15625 21.921875 38.8125 
z
M 18.3125 54.390625 
Q 18.3125 48.734375 21.84375 45.5625 
Q 25.390625 42.390625 31.78125 42.390625 
Q 38.140625 42.390625 41.71875 45.5625 
Q 45.3125 48.734375 45.3125 54.390625 
Q 45.3125 60.0625 41.71875 63.234375 
Q 38.140625 66.40625 31.78125 66.40625 
Q 25.390625 66.40625 21.84375 63.234375 
Q 18.3125 60.0625 18.3125 54.390625 
z
" id="DejaVuSans-56"/>
       </defs>
       <use xlink:href="#DejaVuSans-48"/>
       <use x="63.623047" xlink:href="#DejaVuSans-46"/>
       <use x="95.410156" xlink:href="#DejaVuSans-56"/>
      </g>
     </g>
    </g>
    <g id="xtick_6">
     <g id="line2d_11">
      <path clip-path="url(#p6799fb8788)" d="M 398.487273 307.584 
L 398.487273 41.472 
" style="fill:none;stroke:#b0b0b0;stroke-linecap:square;stroke-width:0.8;"/>
     </g>
     <g id="line2d_12">
      <g>
       <use style="stroke:#000000;stroke-width:0.8;" x="398.487273" xlink:href="#m45567f70fd" y="307.584"/>
      </g>
     </g>
     <g id="text_6">
      <!-- 1.0 -->
      <g transform="translate(390.53571 322.182437)scale(0.1 -0.1)">
       <defs>
        <path d="M 12.40625 8.296875 
L 28.515625 8.296875 
L 28.515625 63.921875 
L 10.984375 60.40625 
L 10.984375 69.390625 
L 28.421875 72.90625 
L 38.28125 72.90625 
L 38.28125 8.296875 
L 54.390625 8.296875 
L 54.390625 0 
L 12.40625 0 
z
" id="DejaVuSans-49"/>
       </defs>
       <use xlink:href="#DejaVuSans-49"/>
       <use x="63.623047" xlink:href="#DejaVuSans-46"/>
       <use x="95.410156" xlink:href="#DejaVuSans-48"/>
      </g>
     </g>
    </g>
   </g>
   <g id="matplotlib.axis_2">
    <g id="ytick_1">
     <g id="line2d_13">
      <path clip-path="url(#p6799fb8788)" d="M 57.6 300.341404 
L 414.72 300.341404 
" style="fill:none;stroke:#b0b0b0;stroke-linecap:square;stroke-width:0.8;"/>
     </g>
     <g id="line2d_14">
      <defs>
       <path d="M 0 0 
L -3.5 0 
" id="m0d8674e219" style="stroke:#000000;stroke-width:0.8;"/>
      </defs>
      <g>
       <use style="stroke:#000000;stroke-width:0.8;" x="57.6" xlink:href="#m0d8674e219" y="300.341404"/>
      </g>
     </g>
     <g id="text_7">
      <!-- −10 -->
      <g transform="translate(29.495313 304.140623)scale(0.1 -0.1)">
       <defs>
        <path d="M 10.59375 35.5 
L 73.1875 35.5 
L 73.1875 27.203125 
L 10.59375 27.203125 
z
" id="DejaVuSans-8722"/>
       </defs>
       <use xlink:href="#DejaVuSans-8722"/>
       <use x="83.789062" xlink:href="#DejaVuSans-49"/>
       <use x="147.412109" xlink:href="#DejaVuSans-48"/>
      </g>
     </g>
    </g>
    <g id="ytick_2">
     <g id="line2d_15">
      <path clip-path="url(#p6799fb8788)" d="M 57.6 255.864463 
L 414.72 255.864463 
" style="fill:none;stroke:#b0b0b0;stroke-linecap:square;stroke-width:0.8;"/>
     </g>
     <g id="line2d_16">
      <g>
       <use style="stroke:#000000;stroke-width:0.8;" x="57.6" xlink:href="#m0d8674e219" y="255.864463"/>
      </g>
     </g>
     <g id="text_8">
      <!-- −5 -->
      <g transform="translate(35.857813 259.663682)scale(0.1 -0.1)">
       <defs>
        <path d="M 10.796875 72.90625 
L 49.515625 72.90625 
L 49.515625 64.59375 
L 19.828125 64.59375 
L 19.828125 46.734375 
Q 21.96875 47.46875 24.109375 47.828125 
Q 26.265625 48.1875 28.421875 48.1875 
Q 40.625 48.1875 47.75 41.5 
Q 54.890625 34.8125 54.890625 23.390625 
Q 54.890625 11.625 47.5625 5.09375 
Q 40.234375 -1.421875 26.90625 -1.421875 
Q 22.3125 -1.421875 17.546875 -0.640625 
Q 12.796875 0.140625 7.71875 1.703125 
L 7.71875 11.625 
Q 12.109375 9.234375 16.796875 8.0625 
Q 21.484375 6.890625 26.703125 6.890625 
Q 35.15625 6.890625 40.078125 11.328125 
Q 45.015625 15.765625 45.015625 23.390625 
Q 45.015625 31 40.078125 35.4375 
Q 35.15625 39.890625 26.703125 39.890625 
Q 22.75 39.890625 18.8125 39.015625 
Q 14.890625 38.140625 10.796875 36.28125 
z
" id="DejaVuSans-53"/>
       </defs>
       <use xlink:href="#DejaVuSans-8722"/>
       <use x="83.789062" xlink:href="#DejaVuSans-53"/>
      </g>
     </g>
    </g>
    <g id="ytick_3">
     <g id="line2d_17">
      <path clip-path="url(#p6799fb8788)" d="M 57.6 211.387522 
L 414.72 211.387522 
" style="fill:none;stroke:#b0b0b0;stroke-linecap:square;stroke-width:0.8;"/>
     </g>
     <g id="line2d_18">
      <g>
       <use style="stroke:#000000;stroke-width:0.8;" x="57.6" xlink:href="#m0d8674e219" y="211.387522"/>
      </g>
     </g>
     <g id="text_9">
      <!-- 0 -->
      <g transform="translate(44.2375 215.186741)scale(0.1 -0.1)">
       <use xlink:href="#DejaVuSans-48"/>
      </g>
     </g>
    </g>
    <g id="ytick_4">
     <g id="line2d_19">
      <path clip-path="url(#p6799fb8788)" d="M 57.6 166.910581 
L 414.72 166.910581 
" style="fill:none;stroke:#b0b0b0;stroke-linecap:square;stroke-width:0.8;"/>
     </g>
     <g id="line2d_20">
      <g>
       <use style="stroke:#000000;stroke-width:0.8;" x="57.6" xlink:href="#m0d8674e219" y="166.910581"/>
      </g>
     </g>
     <g id="text_10">
      <!-- 5 -->
      <g transform="translate(44.2375 170.7098)scale(0.1 -0.1)">
       <use xlink:href="#DejaVuSans-53"/>
      </g>
     </g>
    </g>
    <g id="ytick_5">
     <g id="line2d_21">
      <path clip-path="url(#p6799fb8788)" d="M 57.6 122.43364 
L 414.72 122.43364 
" style="fill:none;stroke:#b0b0b0;stroke-linecap:square;stroke-width:0.8;"/>
     </g>
     <g id="line2d_22">
      <g>
       <use style="stroke:#000000;stroke-width:0.8;" x="57.6" xlink:href="#m0d8674e219" y="122.43364"/>
      </g>
     </g>
     <g id="text_11">
      <!-- 10 -->
      <g transform="translate(37.875 126.232858)scale(0.1 -0.1)">
       <use xlink:href="#DejaVuSans-49"/>
       <use x="63.623047" xlink:href="#DejaVuSans-48"/>
      </g>
     </g>
    </g>
    <g id="ytick_6">
     <g id="line2d_23">
      <path clip-path="url(#p6799fb8788)" d="M 57.6 77.956699 
L 414.72 77.956699 
" style="fill:none;stroke:#b0b0b0;stroke-linecap:square;stroke-width:0.8;"/>
     </g>
     <g id="line2d_24">
      <g>
       <use style="stroke:#000000;stroke-width:0.8;" x="57.6" xlink:href="#m0d8674e219" y="77.956699"/>
      </g>
     </g>
     <g id="text_12">
      <!-- 15 -->
      <g transform="translate(37.875 81.755917)scale(0.1 -0.1)">
       <use xlink:href="#DejaVuSans-49"/>
       <use x="63.623047" xlink:href="#DejaVuSans-53"/>
      </g>
     </g>
    </g>
   </g>
   <g id="line2d_25">
    <path clip-path="url(#p6799fb8788)" d="M 73.832727 284.625174 
L 77.112066 286.260215 
L 80.391405 287.70794 
L 83.670744 288.959067 
L 86.950083 290.006592 
L 90.229421 290.845958 
L 93.50876 291.47518 
L 96.788099 291.894919 
L 100.067438 292.108503 
L 103.346777 292.12189 
L 106.626116 291.943576 
L 109.905455 291.584435 
L 113.184793 291.057512 
L 116.464132 290.377753 
L 119.743471 289.561686 
L 123.02281 288.627065 
L 126.302149 287.592464 
L 129.581488 286.476863 
L 132.860826 285.299199 
L 136.140165 284.077929 
L 139.419504 282.830591 
L 142.698843 281.573392 
L 145.978182 280.320828 
L 149.257521 279.085347 
L 152.53686 277.877077 
L 155.816198 276.703617 
L 159.095537 275.569905 
L 162.374876 274.478174 
L 165.654215 273.427989 
L 168.933554 272.416381 
L 172.212893 271.438063 
L 175.492231 270.485734 
L 178.77157 269.550459 
L 182.050909 268.62212 
L 185.330248 267.689915 
L 188.609587 266.742903 
L 191.888926 265.770569 
L 195.168264 264.763396 
L 198.447603 263.713415 
L 201.726942 262.614727 
L 205.006281 261.463964 
L 208.28562 260.260675 
L 211.564959 259.007624 
L 214.844298 257.710975 
L 218.123636 256.380361 
L 221.402975 255.028821 
L 224.682314 253.672606 
L 227.961653 252.330849 
L 231.240992 251.025103 
L 234.520331 249.778765 
L 237.799669 248.616376 
L 241.079008 247.562848 
L 244.358347 246.642605 
L 247.637686 245.878686 
L 250.917025 245.291831 
L 254.196364 244.899573 
L 257.475702 244.715376 
L 260.755041 244.747838 
L 264.03438 245.000001 
L 267.313719 245.468787 
L 270.593058 246.144581 
L 273.872397 247.010992 
L 277.151736 248.044794 
L 280.431074 249.216073 
L 283.710413 250.488568 
L 286.989752 251.820213 
L 290.269091 253.163873 
L 293.54843 254.468248 
L 296.827769 255.678947 
L 300.107107 256.739673 
L 303.386446 257.593527 
L 306.665785 258.184358 
L 309.945124 258.458161 
L 313.224463 258.364447 
L 316.503802 257.857574 
L 319.78314 256.897992 
L 323.062479 255.453358 
L 326.341818 253.499505 
L 329.621157 251.021222 
L 332.900496 248.012826 
L 336.179835 244.478518 
L 339.459174 240.432498 
L 342.738512 235.898845 
L 346.017851 230.911165 
L 349.29719 225.512005 
L 352.576529 219.752067 
L 355.855868 213.689232 
L 359.135207 207.387419 
L 362.414545 200.915323 
L 365.693884 194.345044 
L 368.973223 187.750674 
L 372.252562 181.206846 
L 375.531901 174.7873 
L 378.81124 168.56351 
L 382.090579 162.603371 
L 385.369917 156.97002 
L 388.649256 151.720777 
L 391.928595 146.906251 
L 395.207934 142.569621 
L 398.487273 138.746095 
" style="fill:none;stroke:#0000ff;stroke-linecap:square;stroke-width:1.5;"/>
   </g>
   <g id="line2d_26">
    <path clip-path="url(#p6799fb8788)" d="M 73.832727 281.12324 
L 77.112066 283.043048 
L 80.391405 284.562931 
L 83.670744 285.773319 
L 86.950083 286.738443 
L 90.229421 287.49975 
L 93.50876 288.080315 
L 96.788099 288.489732 
L 100.067438 288.729006 
L 103.346777 288.79504 
L 106.626116 288.684385 
L 109.905455 288.396062 
L 113.184793 287.933371 
L 116.464132 287.304726 
L 119.743471 286.52362 
L 123.02281 285.607932 
L 126.302149 284.578776 
L 129.581488 283.459122 
L 132.860826 282.272392 
L 136.140165 281.041194 
L 139.419504 279.786291 
L 142.698843 278.525873 
L 145.978182 277.275126 
L 149.257521 276.046061 
L 152.53686 274.847563 
L 155.816198 273.68556 
L 159.095537 272.563276 
L 162.374876 271.481491 
L 165.654215 270.438793 
L 168.933554 269.431791 
L 172.212893 268.455316 
L 175.492231 267.502608 
L 178.77157 266.565537 
L 182.050909 265.634866 
L 185.330248 264.700592 
L 188.609587 263.752365 
L 191.888926 262.779983 
L 195.168264 261.773955 
L 198.447603 260.726093 
L 201.726942 259.63011 
L 205.006281 258.482175 
L 208.28562 257.281398 
L 211.564959 256.030202 
L 214.844298 254.734565 
L 218.123636 253.404102 
L 221.402975 252.051995 
L 224.682314 250.694753 
L 227.961653 249.35183 
L 231.240992 248.045096 
L 234.520331 246.798194 
L 237.799669 245.635805 
L 241.079008 244.582841 
L 244.358347 243.663586 
L 247.637686 242.900833 
L 250.917025 242.315004 
L 254.196364 241.923315 
L 257.475702 241.738966 
L 260.755041 241.770416 
L 264.03438 242.020724 
L 267.313719 242.486998 
L 270.593058 243.159964 
L 273.872397 244.02367 
L 277.151736 245.055353 
L 280.431074 246.225488 
L 283.710413 247.498031 
L 286.989752 248.830891 
L 290.269091 250.176619 
L 293.54843 251.483326 
L 296.827769 252.695821 
L 300.107107 253.756926 
L 303.386446 254.608937 
L 306.665785 255.195162 
L 309.945124 255.461479 
L 313.224463 255.357818 
L 316.503802 254.839517 
L 319.78314 253.868477 
L 323.062479 252.414072 
L 326.341818 250.453803 
L 329.621157 247.973703 
L 332.900496 244.968526 
L 336.179835 241.441783 
L 339.459174 237.405691 
L 342.738512 232.881104 
L 346.017851 227.897477 
L 349.29719 222.492872 
L 352.576529 216.714 
L 355.855868 210.616205 
L 359.135207 204.263279 
L 362.414545 197.726949 
L 365.693884 191.085853 
L 368.973223 184.423824 
L 372.252562 177.827348 
L 375.531901 171.382113 
L 378.81124 165.168645 
L 382.090579 159.257163 
L 385.369917 153.701871 
L 388.649256 148.535029 
L 391.928595 143.761242 
L 395.207934 139.352455 
L 398.487273 135.24416 
" style="fill:none;stroke:#000000;stroke-linecap:square;stroke-width:0.5;"/>
   </g>
   <g id="line2d_27">
    <path clip-path="url(#p6799fb8788)" d="M 73.832727 288.127109 
L 77.112066 289.477381 
L 80.391405 290.852949 
L 83.670744 292.144815 
L 86.950083 293.274741 
L 90.229421 294.192166 
L 93.50876 294.870045 
L 96.788099 295.300106 
L 100.067438 295.488 
L 103.346777 295.448741 
L 106.626116 295.202767 
L 109.905455 294.772809 
L 113.184793 294.181653 
L 116.464132 293.45078 
L 119.743471 292.599753 
L 123.02281 291.646198 
L 126.302149 290.606153 
L 129.581488 289.494604 
L 132.860826 288.326006 
L 136.140165 287.114664 
L 139.419504 285.874891 
L 142.698843 284.620912 
L 145.978182 283.366531 
L 149.257521 282.124633 
L 152.53686 280.906592 
L 155.816198 279.721674 
L 159.095537 278.576535 
L 162.374876 277.474857 
L 165.654215 276.417186 
L 168.933554 275.400971 
L 172.212893 274.42081 
L 175.492231 273.468859 
L 178.77157 272.535381 
L 182.050909 271.609374 
L 185.330248 270.679237 
L 188.609587 269.73344 
L 191.888926 268.761154 
L 195.168264 267.752836 
L 198.447603 266.700737 
L 201.726942 265.599344 
L 205.006281 264.445752 
L 208.28562 263.239952 
L 211.564959 261.985045 
L 214.844298 260.687385 
L 218.123636 259.35662 
L 221.402975 258.005648 
L 224.682314 256.650459 
L 227.961653 255.309867 
L 231.240992 254.005111 
L 234.520331 252.759336 
L 237.799669 251.596947 
L 241.079008 250.542856 
L 244.358347 249.621623 
L 247.637686 248.856539 
L 250.917025 248.268657 
L 254.196364 247.875832 
L 257.475702 247.691786 
L 260.755041 247.725259 
L 264.03438 247.979278 
L 267.313719 248.450576 
L 270.593058 249.129199 
L 273.872397 249.998314 
L 277.151736 251.034235 
L 280.431074 252.206659 
L 283.710413 253.479105 
L 286.989752 254.809536 
L 290.269091 256.151127 
L 293.54843 257.453171 
L 296.827769 258.662072 
L 300.107107 259.72242 
L 303.386446 260.578117 
L 306.665785 261.173555 
L 309.945124 261.454844 
L 313.224463 261.371076 
L 316.503802 260.875631 
L 319.78314 259.927506 
L 323.062479 258.492644 
L 326.341818 256.545208 
L 329.621157 254.068741 
L 332.900496 251.057126 
L 336.179835 247.515253 
L 339.459174 243.459305 
L 342.738512 238.916587 
L 346.017851 233.924853 
L 349.29719 228.531138 
L 352.576529 222.790134 
L 355.855868 216.762259 
L 359.135207 210.51156 
L 362.414545 204.103696 
L 365.693884 197.604235 
L 368.973223 191.077525 
L 372.252562 184.586343 
L 375.531901 178.192488 
L 378.81124 171.958374 
L 382.090579 165.949579 
L 385.369917 160.238169 
L 388.649256 154.906525 
L 391.928595 150.05126 
L 395.207934 145.786787 
L 398.487273 142.248029 
" style="fill:none;stroke:#000000;stroke-linecap:square;stroke-width:0.5;"/>
   </g>
   <g id="line2d_28">
    <path clip-path="url(#p6799fb8788)" d="M 73.832727 183.294613 
L 77.112066 188.431166 
L 80.391405 193.187565 
L 83.670744 197.544903 
L 86.950083 201.488915 
L 90.229421 205.010316 
L 93.50876 208.105055 
L 96.788099 210.774469 
L 100.067438 213.025325 
L 103.346777 214.869744 
L 106.626116 216.325009 
L 109.905455 217.41325 
L 113.184793 218.161014 
L 116.464132 218.598715 
L 119.743471 218.759993 
L 123.02281 218.680978 
L 126.302149 218.399476 
L 129.581488 217.954111 
L 132.860826 217.383427 
L 136.140165 216.724986 
L 139.419504 216.014484 
L 142.698843 215.284902 
L 145.978182 214.56574 
L 149.257521 213.882331 
L 152.53686 213.255283 
L 155.816198 212.700055 
L 159.095537 212.226693 
L 162.374876 211.839731 
L 165.654215 211.538278 
L 168.933554 211.316278 
L 172.212893 211.162959 
L 175.492231 211.063452 
L 178.77157 210.99956 
L 182.050909 210.950673 
L 185.330248 210.894796 
L 188.609587 210.809646 
L 191.888926 210.673811 
L 195.168264 210.467905 
L 198.447603 210.175699 
L 201.726942 209.785174 
L 205.006281 209.289466 
L 208.28562 208.687648 
L 211.564959 207.985337 
L 214.844298 207.195073 
L 218.123636 206.336456 
L 221.402975 205.43602 
L 224.682314 204.526837 
L 227.961653 203.647848 
L 231.240992 202.842921 
L 234.520331 202.159671 
L 237.799669 201.648052 
L 241.079008 201.358765 
L 244.358347 201.34152 
L 247.637686 201.64321 
L 250.917025 202.306046 
L 254.196364 203.36571 
L 257.475702 204.8496 
L 260.755041 206.775211 
L 264.03438 209.148728 
L 267.313719 211.963873 
L 270.593058 215.201067 
L 273.872397 218.826929 
L 277.151736 222.794175 
L 280.431074 227.041897 
L 283.710413 231.496271 
L 286.989752 236.071654 
L 290.269091 240.672082 
L 293.54843 245.193122 
L 296.827769 249.524035 
L 300.107107 253.550214 
L 303.386446 257.155817 
L 306.665785 260.226534 
L 309.945124 262.652414 
L 313.224463 264.330669 
L 316.503802 265.168379 
L 319.78314 265.08502 
L 323.062479 264.014747 
L 326.341818 261.908353 
L 329.621157 258.734861 
L 332.900496 254.482696 
L 336.179835 249.160399 
L 339.459174 242.796869 
L 342.738512 235.441115 
L 346.017851 227.161536 
L 349.29719 218.044736 
L 352.576529 208.19392 
L 355.855868 197.726906 
L 359.135207 186.773806 
L 362.414545 175.474446 
L 365.693884 163.975597 
L 368.973223 152.428074 
L 372.252562 140.983795 
L 375.531901 129.792868 
L 378.81124 119.000776 
L 382.090579 108.745729 
L 385.369917 99.15624 
L 388.649256 90.348987 
L 391.928595 82.426986 
L 395.207934 75.478125 
L 398.487273 69.574065 
" style="fill:none;stroke:#ffa500;stroke-linecap:square;stroke-width:1.5;"/>
   </g>
   <g id="line2d_29">
    <path clip-path="url(#p6799fb8788)" d="M 73.832727 167.138997 
L 77.112066 173.489091 
L 80.391405 178.575925 
L 83.670744 182.793899 
L 86.950083 186.424028 
L 90.229421 189.647754 
L 93.50876 192.564958 
L 96.788099 195.21407 
L 100.067438 197.592315 
L 103.346777 199.674362 
L 106.626116 201.428073 
L 109.905455 202.826525 
L 113.184793 203.855959 
L 116.464132 204.519783 
L 119.743471 204.839129 
L 123.02281 204.850718 
L 126.302149 204.602933 
L 129.581488 204.151001 
L 132.860826 203.552112 
L 136.140165 202.861085 
L 139.419504 202.127037 
L 142.698843 201.391223 
L 145.978182 200.68605 
L 149.257521 200.035099 
L 152.53686 199.453866 
L 155.816198 198.950941 
L 159.095537 198.529304 
L 162.374876 198.18752 
L 165.654215 197.920679 
L 168.933554 197.721025 
L 172.212893 197.578308 
L 175.492231 197.47994 
L 178.77157 197.411087 
L 182.050909 197.354832 
L 185.330248 197.292517 
L 188.609587 197.204331 
L 191.888926 197.070188 
L 195.168264 196.870838 
L 198.447603 196.589163 
L 201.726942 196.21156 
L 205.006281 195.729265 
L 208.28562 195.139548 
L 211.564959 194.44663 
L 214.844298 193.662288 
L 218.123636 192.806063 
L 221.402975 191.905089 
L 224.682314 190.993522 
L 227.961653 190.111633 
L 231.240992 189.304602 
L 234.520331 188.62108 
L 237.799669 188.111591 
L 241.079008 187.826834 
L 244.358347 187.815947 
L 247.637686 188.124783 
L 250.917025 188.794239 
L 254.196364 189.858663 
L 257.475702 191.344365 
L 260.755041 193.26824 
L 264.03438 195.636526 
L 267.313719 198.443708 
L 270.593058 201.671594 
L 273.872397 205.288612 
L 277.151736 209.249366 
L 280.431074 213.494536 
L 283.710413 217.951178 
L 286.989752 222.533513 
L 290.269091 227.14425 
L 293.54843 231.676478 
L 296.827769 236.016118 
L 300.107107 240.044868 
L 303.386446 243.64352 
L 306.665785 246.695479 
L 309.945124 249.09027 
L 313.224463 250.726802 
L 316.503802 251.516169 
L 319.78314 251.383816 
L 323.062479 250.270959 
L 326.341818 248.135259 
L 329.621157 244.950845 
L 332.900496 240.707894 
L 336.179835 235.412035 
L 339.459174 229.083891 
L 342.738512 221.759046 
L 346.017851 213.488638 
L 349.29719 204.340626 
L 352.576529 194.401606 
L 355.855868 183.778818 
L 359.135207 172.601777 
L 362.414545 161.022817 
L 365.693884 149.21571 
L 368.973223 137.371575 
L 372.252562 125.691381 
L 375.531901 114.374652 
L 378.81124 103.604322 
L 382.090579 93.528139 
L 385.369917 84.237519 
L 388.649256 75.745208 
L 391.928595 67.96349 
L 395.207934 60.68497 
L 398.487273 53.568 
" style="fill:none;stroke:#000000;stroke-linecap:square;stroke-width:0.5;"/>
   </g>
   <g id="line2d_30">
    <path clip-path="url(#p6799fb8788)" d="M 73.832727 199.45023 
L 77.112066 203.373241 
L 80.391405 207.799204 
L 83.670744 212.295907 
L 86.950083 216.553803 
L 90.229421 220.372877 
L 93.50876 223.645152 
L 96.788099 226.334868 
L 100.067438 228.458334 
L 103.346777 230.065125 
L 106.626116 231.221944 
L 109.905455 231.999975 
L 113.184793 232.466068 
L 116.464132 232.677646 
L 119.743471 232.680858 
L 123.02281 232.511238 
L 126.302149 232.19602 
L 129.581488 231.75722 
L 132.860826 231.214742 
L 136.140165 230.588888 
L 139.419504 229.901931 
L 142.698843 229.178582 
L 145.978182 228.44543 
L 149.257521 227.729564 
L 152.53686 227.0567 
L 155.816198 226.449169 
L 159.095537 225.924081 
L 162.374876 225.491942 
L 165.654215 225.155877 
L 168.933554 224.91153 
L 172.212893 224.747611 
L 175.492231 224.646964 
L 178.77157 224.588032 
L 182.050909 224.546514 
L 185.330248 224.497075 
L 188.609587 224.414961 
L 191.888926 224.277433 
L 195.168264 224.064971 
L 198.447603 223.762234 
L 201.726942 223.358789 
L 205.006281 222.849666 
L 208.28562 222.235748 
L 211.564959 221.524044 
L 214.844298 220.727859 
L 218.123636 219.866849 
L 221.402975 218.96695 
L 224.682314 218.060153 
L 227.961653 217.184063 
L 231.240992 216.38124 
L 234.520331 215.698262 
L 237.799669 215.184513 
L 241.079008 214.890695 
L 244.358347 214.867092 
L 247.637686 215.161637 
L 250.917025 215.817853 
L 254.196364 216.872757 
L 257.475702 218.354835 
L 260.755041 220.282182 
L 264.03438 222.660929 
L 267.313719 225.484039 
L 270.593058 228.730539 
L 273.872397 232.365247 
L 277.151736 236.338984 
L 280.431074 240.589259 
L 283.710413 245.041364 
L 286.989752 249.609794 
L 290.269091 254.199915 
L 293.54843 258.709767 
L 296.827769 263.031953 
L 300.107107 267.055561 
L 303.386446 270.668115 
L 306.665785 273.75759 
L 309.945124 276.214559 
L 313.224463 277.934536 
L 316.503802 278.820588 
L 319.78314 278.786224 
L 323.062479 277.758535 
L 326.341818 275.681447 
L 329.621157 272.518877 
L 332.900496 268.257498 
L 336.179835 262.908764 
L 339.459174 256.509848 
L 342.738512 249.123185 
L 346.017851 240.834434 
L 349.29719 231.748845 
L 352.576529 221.986234 
L 355.855868 211.674995 
L 359.135207 200.945834 
L 362.414545 189.926075 
L 365.693884 178.735484 
L 368.973223 167.484572 
L 372.252562 156.276209 
L 375.531901 145.211084 
L 378.81124 134.397231 
L 382.090579 123.963319 
L 385.369917 114.074961 
L 388.649256 104.952766 
L 391.928595 96.890482 
L 395.207934 90.27128 
L 398.487273 85.58013 
" style="fill:none;stroke:#000000;stroke-linecap:square;stroke-width:0.5;"/>
   </g>
   <g id="line2d_31">
    <path clip-path="url(#p6799fb8788)" d="M 73.832727 284.653453 
L 77.112066 285.973642 
L 80.391405 287.249851 
L 83.670744 288.4405 
L 86.950083 289.509581 
L 90.229421 290.42706 
L 93.50876 291.169134 
L 96.788099 291.71831 
L 100.067438 292.063343 
L 103.346777 292.199023 
L 106.626116 292.125826 
L 109.905455 291.849452 
L 113.184793 291.380258 
L 116.464132 290.732606 
L 119.743471 289.924153 
L 123.02281 288.975094 
L 126.302149 287.907384 
L 129.581488 286.743964 
L 132.860826 285.507999 
L 136.140165 284.222159 
L 139.419504 282.907961 
L 142.698843 281.585173 
L 145.978182 280.271309 
L 149.257521 278.981221 
L 152.53686 277.726792 
L 155.816198 276.51674 
L 159.095537 275.356533 
L 162.374876 274.248413 
L 165.654215 273.191533 
L 168.933554 272.182186 
L 172.212893 271.214131 
L 175.492231 270.278998 
L 178.77157 269.366763 
L 182.050909 268.466263 
L 185.330248 267.565764 
L 188.609587 266.653528 
L 191.888926 265.718396 
L 195.168264 264.75034 
L 198.447603 263.740993 
L 201.726942 262.684113 
L 205.006281 261.575993 
L 208.28562 260.415786 
L 211.564959 259.205734 
L 214.844298 257.951305 
L 218.123636 256.661217 
L 221.402975 255.347353 
L 224.682314 254.024565 
L 227.961653 252.710367 
L 231.240992 251.424528 
L 234.520331 250.188562 
L 237.799669 249.025142 
L 241.079008 247.957432 
L 244.358347 247.008373 
L 247.637686 246.19992 
L 250.917025 245.552268 
L 254.196364 245.083074 
L 257.475702 244.8067 
L 260.755041 244.733503 
L 264.03438 244.869183 
L 267.313719 245.214217 
L 270.593058 245.763393 
L 273.872397 246.505466 
L 277.151736 247.422946 
L 280.431074 248.492026 
L 283.710413 249.682675 
L 286.989752 250.958884 
L 290.269091 252.279073 
L 293.54843 253.596668 
L 296.827769 254.860823 
L 300.107107 256.017301 
L 303.386446 257.009475 
L 306.665785 257.779462 
L 309.945124 258.269347 
L 313.224463 258.422482 
L 316.503802 258.184845 
L 319.78314 257.506408 
L 323.062479 256.342518 
L 326.341818 254.655225 
L 329.621157 252.414553 
L 332.900496 249.599676 
L 336.179835 246.199959 
L 339.459174 242.215855 
L 342.738512 237.659609 
L 346.017851 232.555768 
L 349.29719 226.941457 
L 352.576529 220.866422 
L 355.855868 214.392811 
L 359.135207 207.594694 
L 362.414545 200.557326 
L 365.693884 193.376137 
L 368.973223 186.155474 
L 372.252562 179.007103 
L 375.531901 172.048482 
L 378.81124 165.400841 
L 382.090579 159.187088 
L 385.369917 153.529578 
L 388.649256 148.547785 
L 391.928595 144.355904 
L 395.207934 141.06045 
L 398.487273 138.757869 
" style="fill:none;stroke:#0000ff;stroke-dasharray:5.55,2.4;stroke-dashoffset:0;stroke-width:1.5;"/>
   </g>
   <g id="line2d_32">
    <path clip-path="url(#p6799fb8788)" d="M 73.832727 183.569775 
L 77.112066 188.007202 
L 80.391405 192.356667 
L 83.670744 196.535014 
L 86.950083 200.470222 
L 90.229421 204.10223 
L 93.50876 207.383425 
L 96.788099 210.278825 
L 100.067438 212.76594 
L 103.346777 214.834348 
L 106.626116 216.485003 
L 109.905455 217.729303 
L 113.184793 218.587962 
L 116.464132 219.089706 
L 119.743471 219.269848 
L 123.02281 219.168778 
L 126.302149 218.830407 
L 129.581488 218.300615 
L 132.860826 217.625732 
L 136.140165 216.851102 
L 139.419504 216.019754 
L 142.698843 215.171225 
L 145.978182 214.340545 
L 149.257521 213.557417 
L 152.53686 212.845608 
L 155.816198 212.222552 
L 159.095537 211.699186 
L 162.374876 211.279995 
L 165.654215 210.963283 
L 168.933554 210.741636 
L 172.212893 210.602574 
L 175.492231 210.529357 
L 178.77157 210.501934 
L 182.050909 210.497983 
L 185.330248 210.494032 
L 188.609587 210.466609 
L 191.888926 210.393392 
L 195.168264 210.25433 
L 198.447603 210.032683 
L 201.726942 209.715971 
L 205.006281 209.296781 
L 208.28562 208.773414 
L 211.564959 208.150358 
L 214.844298 207.438549 
L 218.123636 206.655421 
L 221.402975 205.824741 
L 224.682314 204.976212 
L 227.961653 204.144865 
L 231.240992 203.370234 
L 234.520331 202.695351 
L 237.799669 202.165559 
L 241.079008 201.827188 
L 244.358347 201.726118 
L 247.637686 201.90626 
L 250.917025 202.408004 
L 254.196364 203.266663 
L 257.475702 204.510963 
L 260.755041 206.161618 
L 264.03438 208.230026 
L 267.313719 210.717141 
L 270.593058 213.612542 
L 273.872397 216.893737 
L 277.151736 220.525744 
L 280.431074 224.460952 
L 283.710413 228.639299 
L 286.989752 232.988765 
L 290.269091 237.426191 
L 293.54843 241.858429 
L 296.827769 246.183788 
L 300.107107 250.293791 
L 303.386446 254.075187 
L 306.665785 257.41221 
L 309.945124 260.189028 
L 313.224463 262.292347 
L 316.503802 263.61412 
L 319.78314 264.054295 
L 323.062479 263.523563 
L 326.341818 261.946024 
L 329.621157 259.261728 
L 332.900496 255.429022 
L 336.179835 250.426637 
L 339.459174 244.255477 
L 342.738512 236.940033 
L 346.017851 228.529399 
L 349.29719 219.097826 
L 352.576529 208.744804 
L 355.855868 197.594629 
L 359.135207 185.795444 
L 362.414545 173.517756 
L 365.693884 160.952425 
L 368.973223 148.308148 
L 372.252562 135.808454 
L 375.531901 123.68826 
L 378.81124 112.190026 
L 382.090579 101.559568 
L 385.369917 92.041597 
L 388.649256 83.875059 
L 391.928595 77.288346 
L 395.207934 72.494485 
L 398.487273 69.686372 
" style="fill:none;stroke:#ffa500;stroke-dasharray:5.55,2.4;stroke-dashoffset:0;stroke-width:1.5;"/>
   </g>
   <g id="patch_3">
    <path d="M 57.6 307.584 
L 57.6 41.472 
" style="fill:none;stroke:#000000;stroke-linecap:square;stroke-linejoin:miter;stroke-width:0.8;"/>
   </g>
   <g id="patch_4">
    <path d="M 414.72 307.584 
L 414.72 41.472 
" style="fill:none;stroke:#000000;stroke-linecap:square;stroke-linejoin:miter;stroke-width:0.8;"/>
   </g>
   <g id="patch_5">
    <path d="M 57.6 307.584 
L 414.72 307.584 
" style="fill:none;stroke:#000000;stroke-linecap:square;stroke-linejoin:miter;stroke-width:0.8;"/>
   </g>
   <g id="patch_6">
    <path d="M 57.6 41.472 
L 414.72 41.472 
" style="fill:none;stroke:#000000;stroke-linecap:square;stroke-linejoin:miter;stroke-width:0.8;"/>
   </g>
   <g id="legend_1">
    <g id="patch_7">
     <path d="M 64.6 108.1845 
L 239.15625 108.1845 
Q 241.15625 108.1845 241.15625 106.1845 
L 241.15625 48.472 
Q 241.15625 46.472 239.15625 46.472 
L 64.6 46.472 
Q 62.6 46.472 62.6 48.472 
L 62.6 106.1845 
Q 62.6 108.1845 64.6 108.1845 
z
" style="fill:#ffffff;opacity:0.8;stroke:#cccccc;stroke-linejoin:miter;"/>
    </g>
    <g id="line2d_33">
     <path d="M 66.6 54.570438 
L 86.6 54.570438 
" style="fill:none;stroke:#0000ff;stroke-linecap:square;stroke-width:1.5;"/>
    </g>
    <g id="line2d_34"/>
    <g id="text_13">
     <!-- MF cheap GPR (regular GPR) -->
     <g transform="translate(94.6 58.070438)scale(0.1 -0.1)">
      <defs>
       <path d="M 9.8125 72.90625 
L 24.515625 72.90625 
L 43.109375 23.296875 
L 61.8125 72.90625 
L 76.515625 72.90625 
L 76.515625 0 
L 66.890625 0 
L 66.890625 64.015625 
L 48.09375 14.015625 
L 38.1875 14.015625 
L 19.390625 64.015625 
L 19.390625 0 
L 9.8125 0 
z
" id="DejaVuSans-77"/>
       <path d="M 9.8125 72.90625 
L 51.703125 72.90625 
L 51.703125 64.59375 
L 19.671875 64.59375 
L 19.671875 43.109375 
L 48.578125 43.109375 
L 48.578125 34.8125 
L 19.671875 34.8125 
L 19.671875 0 
L 9.8125 0 
z
" id="DejaVuSans-70"/>
       <path id="DejaVuSans-32"/>
       <path d="M 48.78125 52.59375 
L 48.78125 44.1875 
Q 44.96875 46.296875 41.140625 47.34375 
Q 37.3125 48.390625 33.40625 48.390625 
Q 24.65625 48.390625 19.8125 42.84375 
Q 14.984375 37.3125 14.984375 27.296875 
Q 14.984375 17.28125 19.8125 11.734375 
Q 24.65625 6.203125 33.40625 6.203125 
Q 37.3125 6.203125 41.140625 7.25 
Q 44.96875 8.296875 48.78125 10.40625 
L 48.78125 2.09375 
Q 45.015625 0.34375 40.984375 -0.53125 
Q 36.96875 -1.421875 32.421875 -1.421875 
Q 20.0625 -1.421875 12.78125 6.34375 
Q 5.515625 14.109375 5.515625 27.296875 
Q 5.515625 40.671875 12.859375 48.328125 
Q 20.21875 56 33.015625 56 
Q 37.15625 56 41.109375 55.140625 
Q 45.0625 54.296875 48.78125 52.59375 
z
" id="DejaVuSans-99"/>
       <path d="M 54.890625 33.015625 
L 54.890625 0 
L 45.90625 0 
L 45.90625 32.71875 
Q 45.90625 40.484375 42.875 44.328125 
Q 39.84375 48.1875 33.796875 48.1875 
Q 26.515625 48.1875 22.3125 43.546875 
Q 18.109375 38.921875 18.109375 30.90625 
L 18.109375 0 
L 9.078125 0 
L 9.078125 75.984375 
L 18.109375 75.984375 
L 18.109375 46.1875 
Q 21.34375 51.125 25.703125 53.5625 
Q 30.078125 56 35.796875 56 
Q 45.21875 56 50.046875 50.171875 
Q 54.890625 44.34375 54.890625 33.015625 
z
" id="DejaVuSans-104"/>
       <path d="M 56.203125 29.59375 
L 56.203125 25.203125 
L 14.890625 25.203125 
Q 15.484375 15.921875 20.484375 11.0625 
Q 25.484375 6.203125 34.421875 6.203125 
Q 39.59375 6.203125 44.453125 7.46875 
Q 49.3125 8.734375 54.109375 11.28125 
L 54.109375 2.78125 
Q 49.265625 0.734375 44.1875 -0.34375 
Q 39.109375 -1.421875 33.890625 -1.421875 
Q 20.796875 -1.421875 13.15625 6.1875 
Q 5.515625 13.8125 5.515625 26.8125 
Q 5.515625 40.234375 12.765625 48.109375 
Q 20.015625 56 32.328125 56 
Q 43.359375 56 49.78125 48.890625 
Q 56.203125 41.796875 56.203125 29.59375 
z
M 47.21875 32.234375 
Q 47.125 39.59375 43.09375 43.984375 
Q 39.0625 48.390625 32.421875 48.390625 
Q 24.90625 48.390625 20.390625 44.140625 
Q 15.875 39.890625 15.1875 32.171875 
z
" id="DejaVuSans-101"/>
       <path d="M 34.28125 27.484375 
Q 23.390625 27.484375 19.1875 25 
Q 14.984375 22.515625 14.984375 16.5 
Q 14.984375 11.71875 18.140625 8.90625 
Q 21.296875 6.109375 26.703125 6.109375 
Q 34.1875 6.109375 38.703125 11.40625 
Q 43.21875 16.703125 43.21875 25.484375 
L 43.21875 27.484375 
z
M 52.203125 31.203125 
L 52.203125 0 
L 43.21875 0 
L 43.21875 8.296875 
Q 40.140625 3.328125 35.546875 0.953125 
Q 30.953125 -1.421875 24.3125 -1.421875 
Q 15.921875 -1.421875 10.953125 3.296875 
Q 6 8.015625 6 15.921875 
Q 6 25.140625 12.171875 29.828125 
Q 18.359375 34.515625 30.609375 34.515625 
L 43.21875 34.515625 
L 43.21875 35.40625 
Q 43.21875 41.609375 39.140625 45 
Q 35.0625 48.390625 27.6875 48.390625 
Q 23 48.390625 18.546875 47.265625 
Q 14.109375 46.140625 10.015625 43.890625 
L 10.015625 52.203125 
Q 14.9375 54.109375 19.578125 55.046875 
Q 24.21875 56 28.609375 56 
Q 40.484375 56 46.34375 49.84375 
Q 52.203125 43.703125 52.203125 31.203125 
z
" id="DejaVuSans-97"/>
       <path d="M 18.109375 8.203125 
L 18.109375 -20.796875 
L 9.078125 -20.796875 
L 9.078125 54.6875 
L 18.109375 54.6875 
L 18.109375 46.390625 
Q 20.953125 51.265625 25.265625 53.625 
Q 29.59375 56 35.59375 56 
Q 45.5625 56 51.78125 48.09375 
Q 58.015625 40.1875 58.015625 27.296875 
Q 58.015625 14.40625 51.78125 6.484375 
Q 45.5625 -1.421875 35.59375 -1.421875 
Q 29.59375 -1.421875 25.265625 0.953125 
Q 20.953125 3.328125 18.109375 8.203125 
z
M 48.6875 27.296875 
Q 48.6875 37.203125 44.609375 42.84375 
Q 40.53125 48.484375 33.40625 48.484375 
Q 26.265625 48.484375 22.1875 42.84375 
Q 18.109375 37.203125 18.109375 27.296875 
Q 18.109375 17.390625 22.1875 11.75 
Q 26.265625 6.109375 33.40625 6.109375 
Q 40.53125 6.109375 44.609375 11.75 
Q 48.6875 17.390625 48.6875 27.296875 
z
" id="DejaVuSans-112"/>
       <path d="M 59.515625 10.40625 
L 59.515625 29.984375 
L 43.40625 29.984375 
L 43.40625 38.09375 
L 69.28125 38.09375 
L 69.28125 6.78125 
Q 63.578125 2.734375 56.6875 0.65625 
Q 49.8125 -1.421875 42 -1.421875 
Q 24.90625 -1.421875 15.25 8.5625 
Q 5.609375 18.5625 5.609375 36.375 
Q 5.609375 54.25 15.25 64.234375 
Q 24.90625 74.21875 42 74.21875 
Q 49.125 74.21875 55.546875 72.453125 
Q 61.96875 70.703125 67.390625 67.28125 
L 67.390625 56.78125 
Q 61.921875 61.421875 55.765625 63.765625 
Q 49.609375 66.109375 42.828125 66.109375 
Q 29.4375 66.109375 22.71875 58.640625 
Q 16.015625 51.171875 16.015625 36.375 
Q 16.015625 21.625 22.71875 14.15625 
Q 29.4375 6.6875 42.828125 6.6875 
Q 48.046875 6.6875 52.140625 7.59375 
Q 56.25 8.5 59.515625 10.40625 
z
" id="DejaVuSans-71"/>
       <path d="M 19.671875 64.796875 
L 19.671875 37.40625 
L 32.078125 37.40625 
Q 38.96875 37.40625 42.71875 40.96875 
Q 46.484375 44.53125 46.484375 51.125 
Q 46.484375 57.671875 42.71875 61.234375 
Q 38.96875 64.796875 32.078125 64.796875 
z
M 9.8125 72.90625 
L 32.078125 72.90625 
Q 44.34375 72.90625 50.609375 67.359375 
Q 56.890625 61.8125 56.890625 51.125 
Q 56.890625 40.328125 50.609375 34.8125 
Q 44.34375 29.296875 32.078125 29.296875 
L 19.671875 29.296875 
L 19.671875 0 
L 9.8125 0 
z
" id="DejaVuSans-80"/>
       <path d="M 44.390625 34.1875 
Q 47.5625 33.109375 50.5625 29.59375 
Q 53.5625 26.078125 56.59375 19.921875 
L 66.609375 0 
L 56 0 
L 46.6875 18.703125 
Q 43.0625 26.03125 39.671875 28.421875 
Q 36.28125 30.8125 30.421875 30.8125 
L 19.671875 30.8125 
L 19.671875 0 
L 9.8125 0 
L 9.8125 72.90625 
L 32.078125 72.90625 
Q 44.578125 72.90625 50.734375 67.671875 
Q 56.890625 62.453125 56.890625 51.90625 
Q 56.890625 45.015625 53.6875 40.46875 
Q 50.484375 35.9375 44.390625 34.1875 
z
M 19.671875 64.796875 
L 19.671875 38.921875 
L 32.078125 38.921875 
Q 39.203125 38.921875 42.84375 42.21875 
Q 46.484375 45.515625 46.484375 51.90625 
Q 46.484375 58.296875 42.84375 61.546875 
Q 39.203125 64.796875 32.078125 64.796875 
z
" id="DejaVuSans-82"/>
       <path d="M 31 75.875 
Q 24.46875 64.65625 21.28125 53.65625 
Q 18.109375 42.671875 18.109375 31.390625 
Q 18.109375 20.125 21.3125 9.0625 
Q 24.515625 -2 31 -13.1875 
L 23.1875 -13.1875 
Q 15.875 -1.703125 12.234375 9.375 
Q 8.59375 20.453125 8.59375 31.390625 
Q 8.59375 42.28125 12.203125 53.3125 
Q 15.828125 64.359375 23.1875 75.875 
z
" id="DejaVuSans-40"/>
       <path d="M 41.109375 46.296875 
Q 39.59375 47.171875 37.8125 47.578125 
Q 36.03125 48 33.890625 48 
Q 26.265625 48 22.1875 43.046875 
Q 18.109375 38.09375 18.109375 28.8125 
L 18.109375 0 
L 9.078125 0 
L 9.078125 54.6875 
L 18.109375 54.6875 
L 18.109375 46.1875 
Q 20.953125 51.171875 25.484375 53.578125 
Q 30.03125 56 36.53125 56 
Q 37.453125 56 38.578125 55.875 
Q 39.703125 55.765625 41.0625 55.515625 
z
" id="DejaVuSans-114"/>
       <path d="M 45.40625 27.984375 
Q 45.40625 37.75 41.375 43.109375 
Q 37.359375 48.484375 30.078125 48.484375 
Q 22.859375 48.484375 18.828125 43.109375 
Q 14.796875 37.75 14.796875 27.984375 
Q 14.796875 18.265625 18.828125 12.890625 
Q 22.859375 7.515625 30.078125 7.515625 
Q 37.359375 7.515625 41.375 12.890625 
Q 45.40625 18.265625 45.40625 27.984375 
z
M 54.390625 6.78125 
Q 54.390625 -7.171875 48.1875 -13.984375 
Q 42 -20.796875 29.203125 -20.796875 
Q 24.46875 -20.796875 20.265625 -20.09375 
Q 16.0625 -19.390625 12.109375 -17.921875 
L 12.109375 -9.1875 
Q 16.0625 -11.328125 19.921875 -12.34375 
Q 23.78125 -13.375 27.78125 -13.375 
Q 36.625 -13.375 41.015625 -8.765625 
Q 45.40625 -4.15625 45.40625 5.171875 
L 45.40625 9.625 
Q 42.625 4.78125 38.28125 2.390625 
Q 33.9375 0 27.875 0 
Q 17.828125 0 11.671875 7.65625 
Q 5.515625 15.328125 5.515625 27.984375 
Q 5.515625 40.671875 11.671875 48.328125 
Q 17.828125 56 27.875 56 
Q 33.9375 56 38.28125 53.609375 
Q 42.625 51.21875 45.40625 46.390625 
L 45.40625 54.6875 
L 54.390625 54.6875 
z
" id="DejaVuSans-103"/>
       <path d="M 8.5 21.578125 
L 8.5 54.6875 
L 17.484375 54.6875 
L 17.484375 21.921875 
Q 17.484375 14.15625 20.5 10.265625 
Q 23.53125 6.390625 29.59375 6.390625 
Q 36.859375 6.390625 41.078125 11.03125 
Q 45.3125 15.671875 45.3125 23.6875 
L 45.3125 54.6875 
L 54.296875 54.6875 
L 54.296875 0 
L 45.3125 0 
L 45.3125 8.40625 
Q 42.046875 3.421875 37.71875 1 
Q 33.40625 -1.421875 27.6875 -1.421875 
Q 18.265625 -1.421875 13.375 4.4375 
Q 8.5 10.296875 8.5 21.578125 
z
M 31.109375 56 
z
" id="DejaVuSans-117"/>
       <path d="M 9.421875 75.984375 
L 18.40625 75.984375 
L 18.40625 0 
L 9.421875 0 
z
" id="DejaVuSans-108"/>
       <path d="M 8.015625 75.875 
L 15.828125 75.875 
Q 23.140625 64.359375 26.78125 53.3125 
Q 30.421875 42.28125 30.421875 31.390625 
Q 30.421875 20.453125 26.78125 9.375 
Q 23.140625 -1.703125 15.828125 -13.1875 
L 8.015625 -13.1875 
Q 14.5 -2 17.703125 9.0625 
Q 20.90625 20.125 20.90625 31.390625 
Q 20.90625 42.671875 17.703125 53.65625 
Q 14.5 64.65625 8.015625 75.875 
z
" id="DejaVuSans-41"/>
      </defs>
      <use xlink:href="#DejaVuSans-77"/>
      <use x="86.279297" xlink:href="#DejaVuSans-70"/>
      <use x="143.798828" xlink:href="#DejaVuSans-32"/>
      <use x="175.585938" xlink:href="#DejaVuSans-99"/>
      <use x="230.566406" xlink:href="#DejaVuSans-104"/>
      <use x="293.945312" xlink:href="#DejaVuSans-101"/>
      <use x="355.46875" xlink:href="#DejaVuSans-97"/>
      <use x="416.748047" xlink:href="#DejaVuSans-112"/>
      <use x="480.224609" xlink:href="#DejaVuSans-32"/>
      <use x="512.011719" xlink:href="#DejaVuSans-71"/>
      <use x="589.501953" xlink:href="#DejaVuSans-80"/>
      <use x="649.804688" xlink:href="#DejaVuSans-82"/>
      <use x="719.287109" xlink:href="#DejaVuSans-32"/>
      <use x="751.074219" xlink:href="#DejaVuSans-40"/>
      <use x="790.087891" xlink:href="#DejaVuSans-114"/>
      <use x="828.951172" xlink:href="#DejaVuSans-101"/>
      <use x="890.474609" xlink:href="#DejaVuSans-103"/>
      <use x="953.951172" xlink:href="#DejaVuSans-117"/>
      <use x="1017.330078" xlink:href="#DejaVuSans-108"/>
      <use x="1045.113281" xlink:href="#DejaVuSans-97"/>
      <use x="1106.392578" xlink:href="#DejaVuSans-114"/>
      <use x="1147.505859" xlink:href="#DejaVuSans-32"/>
      <use x="1179.292969" xlink:href="#DejaVuSans-71"/>
      <use x="1256.783203" xlink:href="#DejaVuSans-80"/>
      <use x="1317.085938" xlink:href="#DejaVuSans-82"/>
      <use x="1386.568359" xlink:href="#DejaVuSans-41"/>
     </g>
    </g>
    <g id="line2d_35">
     <path d="M 66.6 69.248563 
L 86.6 69.248563 
" style="fill:none;stroke:#ffa500;stroke-linecap:square;stroke-width:1.5;"/>
    </g>
    <g id="line2d_36"/>
    <g id="text_14">
     <!-- MF expensive GPR -->
     <g transform="translate(94.6 72.748563)scale(0.1 -0.1)">
      <defs>
       <path d="M 54.890625 54.6875 
L 35.109375 28.078125 
L 55.90625 0 
L 45.3125 0 
L 29.390625 21.484375 
L 13.484375 0 
L 2.875 0 
L 24.125 28.609375 
L 4.6875 54.6875 
L 15.28125 54.6875 
L 29.78125 35.203125 
L 44.28125 54.6875 
z
" id="DejaVuSans-120"/>
       <path d="M 54.890625 33.015625 
L 54.890625 0 
L 45.90625 0 
L 45.90625 32.71875 
Q 45.90625 40.484375 42.875 44.328125 
Q 39.84375 48.1875 33.796875 48.1875 
Q 26.515625 48.1875 22.3125 43.546875 
Q 18.109375 38.921875 18.109375 30.90625 
L 18.109375 0 
L 9.078125 0 
L 9.078125 54.6875 
L 18.109375 54.6875 
L 18.109375 46.1875 
Q 21.34375 51.125 25.703125 53.5625 
Q 30.078125 56 35.796875 56 
Q 45.21875 56 50.046875 50.171875 
Q 54.890625 44.34375 54.890625 33.015625 
z
" id="DejaVuSans-110"/>
       <path d="M 44.28125 53.078125 
L 44.28125 44.578125 
Q 40.484375 46.53125 36.375 47.5 
Q 32.28125 48.484375 27.875 48.484375 
Q 21.1875 48.484375 17.84375 46.4375 
Q 14.5 44.390625 14.5 40.28125 
Q 14.5 37.15625 16.890625 35.375 
Q 19.28125 33.59375 26.515625 31.984375 
L 29.59375 31.296875 
Q 39.15625 29.25 43.1875 25.515625 
Q 47.21875 21.78125 47.21875 15.09375 
Q 47.21875 7.46875 41.1875 3.015625 
Q 35.15625 -1.421875 24.609375 -1.421875 
Q 20.21875 -1.421875 15.453125 -0.5625 
Q 10.6875 0.296875 5.421875 2 
L 5.421875 11.28125 
Q 10.40625 8.6875 15.234375 7.390625 
Q 20.0625 6.109375 24.8125 6.109375 
Q 31.15625 6.109375 34.5625 8.28125 
Q 37.984375 10.453125 37.984375 14.40625 
Q 37.984375 18.0625 35.515625 20.015625 
Q 33.0625 21.96875 24.703125 23.78125 
L 21.578125 24.515625 
Q 13.234375 26.265625 9.515625 29.90625 
Q 5.8125 33.546875 5.8125 39.890625 
Q 5.8125 47.609375 11.28125 51.796875 
Q 16.75 56 26.8125 56 
Q 31.78125 56 36.171875 55.265625 
Q 40.578125 54.546875 44.28125 53.078125 
z
" id="DejaVuSans-115"/>
       <path d="M 9.421875 54.6875 
L 18.40625 54.6875 
L 18.40625 0 
L 9.421875 0 
z
M 9.421875 75.984375 
L 18.40625 75.984375 
L 18.40625 64.59375 
L 9.421875 64.59375 
z
" id="DejaVuSans-105"/>
       <path d="M 2.984375 54.6875 
L 12.5 54.6875 
L 29.59375 8.796875 
L 46.6875 54.6875 
L 56.203125 54.6875 
L 35.6875 0 
L 23.484375 0 
z
" id="DejaVuSans-118"/>
      </defs>
      <use xlink:href="#DejaVuSans-77"/>
      <use x="86.279297" xlink:href="#DejaVuSans-70"/>
      <use x="143.798828" xlink:href="#DejaVuSans-32"/>
      <use x="175.585938" xlink:href="#DejaVuSans-101"/>
      <use x="235.359375" xlink:href="#DejaVuSans-120"/>
      <use x="294.539062" xlink:href="#DejaVuSans-112"/>
      <use x="358.015625" xlink:href="#DejaVuSans-101"/>
      <use x="419.539062" xlink:href="#DejaVuSans-110"/>
      <use x="482.917969" xlink:href="#DejaVuSans-115"/>
      <use x="535.017578" xlink:href="#DejaVuSans-105"/>
      <use x="562.800781" xlink:href="#DejaVuSans-118"/>
      <use x="621.980469" xlink:href="#DejaVuSans-101"/>
      <use x="683.503906" xlink:href="#DejaVuSans-32"/>
      <use x="715.291016" xlink:href="#DejaVuSans-71"/>
      <use x="792.78125" xlink:href="#DejaVuSans-80"/>
      <use x="853.083984" xlink:href="#DejaVuSans-82"/>
     </g>
    </g>
    <g id="line2d_37">
     <path d="M 66.6 83.926688 
L 86.6 83.926688 
" style="fill:none;stroke:#0000ff;stroke-dasharray:5.55,2.4;stroke-dashoffset:0;stroke-width:1.5;"/>
    </g>
    <g id="line2d_38"/>
    <g id="text_15">
     <!-- Exact cheap function -->
     <g transform="translate(94.6 87.426688)scale(0.1 -0.1)">
      <defs>
       <path d="M 9.8125 72.90625 
L 55.90625 72.90625 
L 55.90625 64.59375 
L 19.671875 64.59375 
L 19.671875 43.015625 
L 54.390625 43.015625 
L 54.390625 34.71875 
L 19.671875 34.71875 
L 19.671875 8.296875 
L 56.78125 8.296875 
L 56.78125 0 
L 9.8125 0 
z
" id="DejaVuSans-69"/>
       <path d="M 18.3125 70.21875 
L 18.3125 54.6875 
L 36.8125 54.6875 
L 36.8125 47.703125 
L 18.3125 47.703125 
L 18.3125 18.015625 
Q 18.3125 11.328125 20.140625 9.421875 
Q 21.96875 7.515625 27.59375 7.515625 
L 36.8125 7.515625 
L 36.8125 0 
L 27.59375 0 
Q 17.1875 0 13.234375 3.875 
Q 9.28125 7.765625 9.28125 18.015625 
L 9.28125 47.703125 
L 2.6875 47.703125 
L 2.6875 54.6875 
L 9.28125 54.6875 
L 9.28125 70.21875 
z
" id="DejaVuSans-116"/>
       <path d="M 37.109375 75.984375 
L 37.109375 68.5 
L 28.515625 68.5 
Q 23.6875 68.5 21.796875 66.546875 
Q 19.921875 64.59375 19.921875 59.515625 
L 19.921875 54.6875 
L 34.71875 54.6875 
L 34.71875 47.703125 
L 19.921875 47.703125 
L 19.921875 0 
L 10.890625 0 
L 10.890625 47.703125 
L 2.296875 47.703125 
L 2.296875 54.6875 
L 10.890625 54.6875 
L 10.890625 58.5 
Q 10.890625 67.625 15.140625 71.796875 
Q 19.390625 75.984375 28.609375 75.984375 
z
" id="DejaVuSans-102"/>
       <path d="M 30.609375 48.390625 
Q 23.390625 48.390625 19.1875 42.75 
Q 14.984375 37.109375 14.984375 27.296875 
Q 14.984375 17.484375 19.15625 11.84375 
Q 23.34375 6.203125 30.609375 6.203125 
Q 37.796875 6.203125 41.984375 11.859375 
Q 46.1875 17.53125 46.1875 27.296875 
Q 46.1875 37.015625 41.984375 42.703125 
Q 37.796875 48.390625 30.609375 48.390625 
z
M 30.609375 56 
Q 42.328125 56 49.015625 48.375 
Q 55.71875 40.765625 55.71875 27.296875 
Q 55.71875 13.875 49.015625 6.21875 
Q 42.328125 -1.421875 30.609375 -1.421875 
Q 18.84375 -1.421875 12.171875 6.21875 
Q 5.515625 13.875 5.515625 27.296875 
Q 5.515625 40.765625 12.171875 48.375 
Q 18.84375 56 30.609375 56 
z
" id="DejaVuSans-111"/>
      </defs>
      <use xlink:href="#DejaVuSans-69"/>
      <use x="63.183594" xlink:href="#DejaVuSans-120"/>
      <use x="122.363281" xlink:href="#DejaVuSans-97"/>
      <use x="183.642578" xlink:href="#DejaVuSans-99"/>
      <use x="238.623047" xlink:href="#DejaVuSans-116"/>
      <use x="277.832031" xlink:href="#DejaVuSans-32"/>
      <use x="309.619141" xlink:href="#DejaVuSans-99"/>
      <use x="364.599609" xlink:href="#DejaVuSans-104"/>
      <use x="427.978516" xlink:href="#DejaVuSans-101"/>
      <use x="489.501953" xlink:href="#DejaVuSans-97"/>
      <use x="550.78125" xlink:href="#DejaVuSans-112"/>
      <use x="614.257812" xlink:href="#DejaVuSans-32"/>
      <use x="646.044922" xlink:href="#DejaVuSans-102"/>
      <use x="681.25" xlink:href="#DejaVuSans-117"/>
      <use x="744.628906" xlink:href="#DejaVuSans-110"/>
      <use x="808.007812" xlink:href="#DejaVuSans-99"/>
      <use x="862.988281" xlink:href="#DejaVuSans-116"/>
      <use x="902.197266" xlink:href="#DejaVuSans-105"/>
      <use x="929.980469" xlink:href="#DejaVuSans-111"/>
      <use x="991.162109" xlink:href="#DejaVuSans-110"/>
     </g>
    </g>
    <g id="line2d_39">
     <path d="M 66.6 98.604813 
L 86.6 98.604813 
" style="fill:none;stroke:#ffa500;stroke-dasharray:5.55,2.4;stroke-dashoffset:0;stroke-width:1.5;"/>
    </g>
    <g id="line2d_40"/>
    <g id="text_16">
     <!-- Exact expensive function -->
     <g transform="translate(94.6 102.104813)scale(0.1 -0.1)">
      <use xlink:href="#DejaVuSans-69"/>
      <use x="63.183594" xlink:href="#DejaVuSans-120"/>
      <use x="122.363281" xlink:href="#DejaVuSans-97"/>
      <use x="183.642578" xlink:href="#DejaVuSans-99"/>
      <use x="238.623047" xlink:href="#DejaVuSans-116"/>
      <use x="277.832031" xlink:href="#DejaVuSans-32"/>
      <use x="309.619141" xlink:href="#DejaVuSans-101"/>
      <use x="369.392578" xlink:href="#DejaVuSans-120"/>
      <use x="428.572266" xlink:href="#DejaVuSans-112"/>
      <use x="492.048828" xlink:href="#DejaVuSans-101"/>
      <use x="553.572266" xlink:href="#DejaVuSans-110"/>
      <use x="616.951172" xlink:href="#DejaVuSans-115"/>
      <use x="669.050781" xlink:href="#DejaVuSans-105"/>
      <use x="696.833984" xlink:href="#DejaVuSans-118"/>
      <use x="756.013672" xlink:href="#DejaVuSans-101"/>
      <use x="817.537109" xlink:href="#DejaVuSans-32"/>
      <use x="849.324219" xlink:href="#DejaVuSans-102"/>
      <use x="884.529297" xlink:href="#DejaVuSans-117"/>
      <use x="947.908203" xlink:href="#DejaVuSans-110"/>
      <use x="1011.287109" xlink:href="#DejaVuSans-99"/>
      <use x="1066.267578" xlink:href="#DejaVuSans-116"/>
      <use x="1105.476562" xlink:href="#DejaVuSans-105"/>
      <use x="1133.259766" xlink:href="#DejaVuSans-111"/>
      <use x="1194.441406" xlink:href="#DejaVuSans-110"/>
     </g>
    </g>
   </g>
  </g>
 </g>
 <defs>
  <clipPath id="p6799fb8788">
   <rect height="266.112" width="357.12" x="57.6" y="41.472"/>
  </clipPath>
 </defs>
</svg>
