<?xml version="1.0" encoding="utf-8" standalone="no"?>
<!DOCTYPE svg PUBLIC "-//W3C//DTD SVG 1.1//EN"
  "http://www.w3.org/Graphics/SVG/1.1/DTD/svg11.dtd">
<!-- Created with matplotlib (https://matplotlib.org/) -->
<svg height="345.6pt" version="1.1" viewBox="0 0 460.8 345.6" width="460.8pt" xmlns="http://www.w3.org/2000/svg" xmlns:xlink="http://www.w3.org/1999/xlink">
 <metadata>
  <rdf:RDF xmlns:cc="http://creativecommons.org/ns#" xmlns:dc="http://purl.org/dc/elements/1.1/" xmlns:rdf="http://www.w3.org/1999/02/22-rdf-syntax-ns#">
   <cc:Work>
    <dc:type rdf:resource="http://purl.org/dc/dcmitype/StillImage"/>
    <dc:date>2020-11-24T13:54:54.976880</dc:date>
    <dc:format>image/svg+xml</dc:format>
    <dc:creator>
     <cc:Agent>
      <dc:title>Matplotlib v3.3.1, https://matplotlib.org/</dc:title>
     </cc:Agent>
    </dc:creator>
   </cc:Work>
  </rdf:RDF>
 </metadata>
 <defs>
  <style type="text/css">*{stroke-linecap:butt;stroke-linejoin:round;}</style>
 </defs>
 <g id="figure_1">
  <g id="patch_1">
   <path d="M 0 345.6 
L 460.8 345.6 
L 460.8 0 
L 0 0 
z
" style="fill:#ffffff;"/>
  </g>
  <g id="axes_1">
   <g id="patch_2">
    <path d="M 57.6 307.584 
L 414.72 307.584 
L 414.72 41.472 
L 57.6 41.472 
z
" style="fill:#ffffff;"/>
   </g>
   <g id="PolyCollection_1">
    <defs>
     <path d="M 73.832727 -89.765006 
L 73.832727 -55.010846 
L 77.112066 -54.758839 
L 80.391405 -54.129023 
L 83.670744 -53.297012 
L 86.950083 -52.408707 
L 90.229421 -51.57881 
L 93.50876 -50.891241 
L 96.788099 -50.401208 
L 100.067438 -50.138555 
L 103.346777 -50.112 
L 106.626116 -50.313821 
L 109.905455 -50.724603 
L 113.184793 -51.317683 
L 116.464132 -52.063027 
L 119.743471 -52.930366 
L 123.02281 -53.891487 
L 126.302149 -54.921695 
L 129.581488 -56.000531 
L 132.860826 -57.111855 
L 136.140165 -58.243484 
L 139.419504 -59.386551 
L 142.698843 -60.53475 
L 145.978182 -61.683607 
L 149.257521 -62.82988 
L 152.53686 -63.971138 
L 155.816198 -65.10555 
L 159.095537 -66.231846 
L 162.374876 -67.349426 
L 165.654215 -68.45853 
L 168.933554 -69.560428 
L 172.212893 -70.657549 
L 175.492231 -71.753517 
L 178.77157 -72.85305 
L 182.050909 -73.961728 
L 185.330248 -75.085621 
L 188.609587 -76.230827 
L 191.888926 -77.402929 
L 195.168264 -78.606441 
L 198.447603 -79.844262 
L 201.726942 -81.117197 
L 205.006281 -82.423571 
L 208.28562 -83.758958 
L 211.564959 -85.116046 
L 214.844298 -86.484639 
L 218.123636 -87.851801 
L 221.402975 -89.202119 
L 224.682314 -90.518097 
L 227.961653 -91.780636 
L 231.240992 -92.969605 
L 234.520331 -94.06447 
L 237.799669 -95.044965 
L 241.079008 -95.891781 
L 244.358347 -96.587264 
L 247.637686 -97.11608 
L 250.917025 -97.465856 
L 254.196364 -97.627748 
L 257.475702 -97.596951 
L 260.755041 -97.373119 
L 264.03438 -96.960698 
L 267.313719 -96.369153 
L 270.593058 -95.61311 
L 273.872397 -94.712384 
L 277.151736 -93.691919 
L 280.431074 -92.581617 
L 283.710413 -91.416069 
L 286.989752 -90.234168 
L 290.269091 -89.078604 
L 293.54843 -87.995218 
L 296.827769 -87.032215 
L 300.107107 -86.239224 
L 303.386446 -85.6662 
L 306.665785 -85.362195 
L 309.945124 -85.374012 
L 313.224463 -85.744809 
L 316.503802 -86.512691 
L 319.78314 -87.709408 
L 323.062479 -89.359206 
L 326.341818 -91.477959 
L 329.621157 -94.072643 
L 332.900496 -97.14121 
L 336.179835 -100.672904 
L 339.459174 -104.648984 
L 342.738512 -109.043805 
L 346.017851 -113.826143 
L 349.29719 -118.9606 
L 352.576529 -124.408913 
L 355.855868 -130.13097 
L 359.135207 -136.085315 
L 362.414545 -142.229006 
L 365.693884 -148.516696 
L 368.973223 -154.898908 
L 372.252562 -161.319557 
L 375.531901 -167.712865 
L 378.81124 -173.999911 
L 382.090579 -180.085144 
L 385.369917 -185.853229 
L 388.649256 -191.166633 
L 391.928595 -195.864348 
L 395.207934 -199.762093 
L 398.487273 -202.654238 
L 398.487273 -237.408398 
L 398.487273 -237.408398 
L 395.207934 -231.953816 
L 391.928595 -226.617283 
L 388.649256 -221.266638 
L 385.369917 -215.803332 
L 382.090579 -210.163281 
L 378.81124 -204.315734 
L 375.531901 -198.260422 
L 372.252562 -192.023371 
L 368.973223 -185.651791 
L 365.693884 -179.208502 
L 362.414545 -172.766301 
L 359.135207 -166.402648 
L 355.855868 -160.194965 
L 352.576529 -154.216742 
L 349.29719 -148.534557 
L 346.017851 -143.20602 
L 342.738512 -138.278577 
L 339.459174 -133.78906 
L 336.179835 -129.763805 
L 332.900496 -126.219186 
L 329.621157 -123.16239 
L 326.341818 -120.592292 
L 323.062479 -118.500327 
L 319.78314 -116.871291 
L 316.503802 -115.684034 
L 313.224463 -114.912064 
L 309.945124 -114.524082 
L 306.665785 -114.484488 
L 303.386446 -114.753916 
L 300.107107 -115.289832 
L 296.827769 -116.047227 
L 293.54843 -116.979415 
L 290.269091 -118.038931 
L 286.989752 -119.178503 
L 283.710413 -120.352069 
L 280.431074 -121.51578 
L 277.151736 -122.628956 
L 273.872397 -123.654933 
L 270.593058 -124.561779 
L 267.313719 -125.322836 
L 264.03438 -125.917068 
L 260.755041 -126.32923 
L 257.475702 -126.549826 
L 254.196364 -126.574909 
L 250.917025 -126.40571 
L 247.637686 -126.048145 
L 244.358347 -125.512216 
L 241.079008 -124.811336 
L 237.799669 -123.961613 
L 234.520331 -122.981119 
L 231.240992 -121.88916 
L 227.961653 -120.705588 
L 224.682314 -119.450162 
L 221.402975 -118.141973 
L 218.123636 -116.798962 
L 214.844298 -115.437515 
L 211.564959 -114.072156 
L 208.28562 -112.715328 
L 205.006281 -111.377253 
L 201.726942 -110.065866 
L 198.447603 -108.786811 
L 195.168264 -107.543478 
L 191.888926 -106.337093 
L 188.609587 -105.166827 
L 185.330248 -104.029955 
L 182.050909 -102.922054 
L 178.77157 -101.837248 
L 175.492231 -100.768529 
L 172.212893 -99.708157 
L 168.933554 -98.648143 
L 165.654215 -97.580823 
L 162.374876 -96.499496 
L 159.095537 -95.399102 
L 155.816198 -94.276892 
L 152.53686 -93.133021 
L 149.257521 -91.971002 
L 145.978182 -90.79794 
L 142.698843 -89.624497 
L 139.419504 -88.464527 
L 136.140165 -87.334385 
L 132.860826 -86.251931 
L 129.581488 -85.235303 
L 126.302149 -84.301572 
L 123.02281 -83.465444 
L 119.743471 -82.738195 
L 116.464132 -82.127022 
L 113.184793 -81.635015 
L 109.905455 -81.261898 
L 106.626116 -81.005627 
L 103.346777 -80.864883 
L 100.067438 -80.842369 
L 96.788099 -80.948766 
L 93.50876 -81.207064 
L 90.229421 -81.656947 
L 86.950083 -82.35881 
L 83.670744 -83.397018 
L 80.391405 -84.881958 
L 77.112066 -86.950562 
L 73.832727 -89.765006 
z
" id="mefe45328fc" style="stroke:#0000ff;stroke-opacity:0.2;"/>
    </defs>
    <g clip-path="url(#p1db1d5c0d5)">
     <use style="fill:#0000ff;fill-opacity:0.2;stroke:#0000ff;stroke-opacity:0.2;" x="0" xlink:href="#mefe45328fc" y="345.6"/>
    </g>
   </g>
   <g id="PolyCollection_2">
    <defs>
     <path d="M 73.832727 -142.628036 
L 73.832727 -102.605034 
L 77.112066 -102.365148 
L 80.391405 -101.735213 
L 83.670744 -100.895326 
L 86.950083 -99.995123 
L 90.229421 -99.152261 
L 93.50876 -98.452849 
L 96.788099 -97.953562 
L 100.067438 -97.685087 
L 103.346777 -97.65646 
L 106.626116 -97.85988 
L 109.905455 -98.275572 
L 113.184793 -98.876344 
L 116.464132 -99.631565 
L 119.743471 -100.510375 
L 123.02281 -101.48403 
L 126.302149 -102.527404 
L 129.581488 -103.619712 
L 132.860826 -104.744596 
L 136.140165 -105.889749 
L 139.419504 -107.046248 
L 142.698843 -108.207782 
L 145.978182 -109.369898 
L 149.257521 -110.52938 
L 152.53686 -111.68382 
L 155.816198 -112.831398 
L 159.095537 -113.970843 
L 162.374876 -115.101542 
L 165.654215 -116.223724 
L 168.933554 -117.338649 
L 172.212893 -118.448752 
L 175.492231 -119.557674 
L 178.77157 -120.670176 
L 182.050909 -121.791892 
L 185.330248 -122.928968 
L 188.609587 -124.08758 
L 191.888926 -125.273392 
L 195.168264 -126.490987 
L 198.447603 -127.743316 
L 201.726942 -129.031207 
L 205.006281 -130.352974 
L 208.28562 -131.704144 
L 211.564959 -133.077312 
L 214.844298 -134.462153 
L 218.123636 -135.845558 
L 221.402975 -137.211911 
L 224.682314 -138.543481 
L 227.961653 -139.820915 
L 231.240992 -141.023817 
L 234.520331 -142.13138 
L 237.799669 -143.123074 
L 241.079008 -143.979341 
L 244.358347 -144.682301 
L 247.637686 -145.216429 
L 250.917025 -145.569196 
L 254.196364 -145.731652 
L 257.475702 -145.698938 
L 260.755041 -145.47071 
L 264.03438 -145.051473 
L 267.313719 -144.450815 
L 270.593058 -143.683546 
L 273.872397 -142.769731 
L 277.151736 -141.734623 
L 280.431074 -140.608499 
L 283.710413 -139.426382 
L 286.989752 -138.227658 
L 290.269091 -137.055558 
L 293.54843 -135.956516 
L 296.827769 -134.979366 
L 300.107107 -134.174392 
L 303.386446 -133.592217 
L 306.665785 -133.282551 
L 309.945124 -133.292833 
L 313.224463 -133.666801 
L 316.503802 -134.443071 
L 319.78314 -135.653804 
L 323.062479 -137.323545 
L 326.341818 -139.468341 
L 329.621157 -142.095201 
L 332.900496 -145.201984 
L 336.179835 -148.777715 
L 339.459174 -152.803337 
L 342.738512 -157.252812 
L 346.017851 -162.09448 
L 349.29719 -167.292495 
L 352.576529 -172.808161 
L 355.855868 -178.600961 
L 359.135207 -184.629068 
L 362.414545 -190.849184 
L 365.693884 -197.215587 
L 368.973223 -203.678344 
L 372.252562 -210.180754 
L 375.531901 -216.656169 
L 378.81124 -223.024442 
L 382.090579 -229.188331 
L 385.369917 -235.030254 
L 388.649256 -240.409799 
L 391.928595 -245.162405 
L 395.207934 -249.099557 
L 398.487273 -252.010758 
L 398.487273 -292.032 
L 398.487273 -292.032 
L 395.207934 -286.491575 
L 391.928595 -281.078081 
L 388.649256 -275.655437 
L 385.369917 -270.12197 
L 382.090579 -264.411295 
L 378.81124 -258.491161 
L 375.531901 -252.36054 
L 372.252562 -246.045338 
L 368.973223 -239.593169 
L 365.693884 -233.067645 
L 362.414545 -226.542612 
L 359.135207 -220.096715 
L 355.855868 -213.808588 
L 352.576529 -207.752869 
L 349.29719 -201.99716 
L 346.017851 -196.599931 
L 342.738512 -191.609303 
L 339.459174 -187.062591 
L 336.179835 -182.98644 
L 332.900496 -179.397375 
L 329.621157 -176.302601 
L 326.341818 -173.7009 
L 323.062479 -171.583527 
L 319.78314 -169.935027 
L 316.503802 -168.733942 
L 313.224463 -167.953425 
L 309.945124 -167.561773 
L 306.665785 -167.522944 
L 303.386446 -167.797088 
L 300.107107 -168.341148 
L 296.827769 -169.109561 
L 293.54843 -170.055058 
L 290.269091 -171.129576 
L 286.989752 -172.285237 
L 283.710413 -173.475384 
L 280.431074 -174.655592 
L 277.151736 -175.784643 
L 273.872397 -176.825388 
L 270.593058 -177.745468 
L 267.313719 -178.517868 
L 264.03438 -179.121275 
L 260.755041 -179.540239 
L 257.475702 -179.765145 
L 254.196364 -179.791996 
L 250.917025 -179.622045 
L 247.637686 -179.261292 
L 244.358347 -178.719876 
L 241.079008 -178.011389 
L 237.799669 -177.152155 
L 234.520331 -176.160479 
L 231.240992 -175.055918 
L 227.961653 -173.858578 
L 224.682314 -172.588468 
L 221.402975 -171.264919 
L 218.123636 -169.906097 
L 214.844298 -168.528591 
L 211.564959 -167.147108 
L 208.28562 -165.774248 
L 205.006281 -164.420365 
L 201.726942 -163.093502 
L 198.447603 -161.799382 
L 195.168264 -160.541452 
L 191.888926 -159.320965 
L 188.609587 -158.137096 
L 185.330248 -156.987098 
L 182.050909 -155.866496 
L 178.77157 -154.76934 
L 175.492231 -153.688527 
L 172.212893 -152.616201 
L 168.933554 -151.544249 
L 165.654215 -150.464881 
L 162.374876 -149.371282 
L 159.095537 -148.258303 
L 155.816198 -147.12314 
L 152.53686 -145.96595 
L 149.257521 -144.790304 
L 145.978182 -143.603435 
L 142.698843 -142.416195 
L 139.419504 -141.242688 
L 136.140165 -140.099557 
L 132.860826 -139.00497 
L 129.581488 -137.977358 
L 126.302149 -137.034046 
L 123.02281 -136.189921 
L 119.743471 -135.456344 
L 116.464132 -134.840489 
L 113.184793 -134.345324 
L 109.905455 -133.970368 
L 106.626116 -133.713342 
L 103.346777 -133.572724 
L 100.067438 -133.551146 
L 96.788099 -133.659444 
L 93.50876 -133.921115 
L 90.229421 -134.376807 
L 86.950083 -135.088456 
L 83.670744 -136.142617 
L 80.391405 -137.652577 
L 77.112066 -139.758889 
L 73.832727 -142.628036 
z
" id="m314e730f5c" style="stroke:#ffa500;stroke-opacity:0.2;"/>
    </defs>
    <g clip-path="url(#p1db1d5c0d5)">
     <use style="fill:#ffa500;fill-opacity:0.2;stroke:#ffa500;stroke-opacity:0.2;" x="0" xlink:href="#m314e730f5c" y="345.6"/>
    </g>
   </g>
   <g id="PathCollection_1">
    <defs>
     <path d="M 0 3 
C 0.795609 3 1.55874 2.683901 2.12132 2.12132 
C 2.683901 1.55874 3 0.795609 3 0 
C 3 -0.795609 2.683901 -1.55874 2.12132 -2.12132 
C 1.55874 -2.683901 0.795609 -3 0 -3 
C -0.795609 -3 -1.55874 -2.683901 -2.12132 -2.12132 
C -2.683901 -1.55874 -3 -0.795609 -3 0 
C -3 0.795609 -2.683901 1.55874 -2.12132 2.12132 
C -1.55874 2.683901 -0.795609 3 0 3 
z
" id="m3935a9a1cb" style="stroke:#0000ff;"/>
    </defs>
    <g clip-path="url(#p1db1d5c0d5)">
     <use style="fill:#0000ff;stroke:#0000ff;" x="73.832727" xlink:href="#m3935a9a1cb" y="273.369624"/>
     <use style="fill:#0000ff;stroke:#0000ff;" x="106.298182" xlink:href="#m3935a9a1cb" y="281.018075"/>
     <use style="fill:#0000ff;stroke:#0000ff;" x="138.763636" xlink:href="#m3935a9a1cb" y="271.856716"/>
     <use style="fill:#0000ff;stroke:#0000ff;" x="171.229091" xlink:href="#m3935a9a1cb" y="259.936747"/>
     <use style="fill:#0000ff;stroke:#0000ff;" x="203.694545" xlink:href="#m3935a9a1cb" y="250.259805"/>
     <use style="fill:#0000ff;stroke:#0000ff;" x="236.16" xlink:href="#m3935a9a1cb" y="237.565946"/>
     <use style="fill:#0000ff;stroke:#0000ff;" x="268.625455" xlink:href="#m3935a9a1cb" y="233.290335"/>
     <use style="fill:#0000ff;stroke:#0000ff;" x="301.090909" xlink:href="#m3935a9a1cb" y="244.447932"/>
     <use style="fill:#0000ff;stroke:#0000ff;" x="333.556364" xlink:href="#m3935a9a1cb" y="236.922867"/>
     <use style="fill:#0000ff;stroke:#0000ff;" x="366.021818" xlink:href="#m3935a9a1cb" y="179.411038"/>
     <use style="fill:#0000ff;stroke:#0000ff;" x="398.487273" xlink:href="#m3935a9a1cb" y="124.367096"/>
    </g>
   </g>
   <g id="PathCollection_2">
    <defs>
     <path d="M 0 3 
C 0.795609 3 1.55874 2.683901 2.12132 2.12132 
C 2.683901 1.55874 3 0.795609 3 0 
C 3 -0.795609 2.683901 -1.55874 2.12132 -2.12132 
C 1.55874 -2.683901 0.795609 -3 0 -3 
C -0.795609 -3 -1.55874 -2.683901 -2.12132 -2.12132 
C -2.683901 -1.55874 -3 -0.795609 -3 0 
C -3 0.795609 -2.683901 1.55874 -2.12132 2.12132 
C -1.55874 2.683901 -0.795609 3 0 3 
z
" id="m5ee5fa0461" style="stroke:#ffa500;"/>
    </defs>
    <g clip-path="url(#p1db1d5c0d5)">
     <use style="fill:#ffa500;stroke:#ffa500;" x="73.832727" xlink:href="#m5ee5fa0461" y="170.133302"/>
     <use style="fill:#ffa500;stroke:#ffa500;" x="203.694545" xlink:href="#m5ee5fa0461" y="196.592236"/>
     <use style="fill:#ffa500;stroke:#ffa500;" x="268.625455" xlink:href="#m5ee5fa0461" y="198.99258"/>
     <use style="fill:#ffa500;stroke:#ffa500;" x="333.556364" xlink:href="#m5ee5fa0461" y="242.59693"/>
     <use style="fill:#ffa500;stroke:#ffa500;" x="398.487273" xlink:href="#m5ee5fa0461" y="53.824675"/>
    </g>
   </g>
   <g id="matplotlib.axis_1">
    <g id="xtick_1">
     <g id="line2d_1">
      <path clip-path="url(#p1db1d5c0d5)" d="M 73.832727 307.584 
L 73.832727 41.472 
" style="fill:none;stroke:#b0b0b0;stroke-linecap:square;stroke-width:0.8;"/>
     </g>
     <g id="line2d_2">
      <defs>
       <path d="M 0 0 
L 0 3.5 
" id="ma37dfbc761" style="stroke:#000000;stroke-width:0.8;"/>
      </defs>
      <g>
       <use style="stroke:#000000;stroke-width:0.8;" x="73.832727" xlink:href="#ma37dfbc761" y="307.584"/>
      </g>
     </g>
     <g id="text_1">
      <!-- 0.0 -->
      <g transform="translate(65.881165 322.182437)scale(0.1 -0.1)">
       <defs>
        <path d="M 31.78125 66.40625 
Q 24.171875 66.40625 20.328125 58.90625 
Q 16.5 51.421875 16.5 36.375 
Q 16.5 21.390625 20.328125 13.890625 
Q 24.171875 6.390625 31.78125 6.390625 
Q 39.453125 6.390625 43.28125 13.890625 
Q 47.125 21.390625 47.125 36.375 
Q 47.125 51.421875 43.28125 58.90625 
Q 39.453125 66.40625 31.78125 66.40625 
z
M 31.78125 74.21875 
Q 44.046875 74.21875 50.515625 64.515625 
Q 56.984375 54.828125 56.984375 36.375 
Q 56.984375 17.96875 50.515625 8.265625 
Q 44.046875 -1.421875 31.78125 -1.421875 
Q 19.53125 -1.421875 13.0625 8.265625 
Q 6.59375 17.96875 6.59375 36.375 
Q 6.59375 54.828125 13.0625 64.515625 
Q 19.53125 74.21875 31.78125 74.21875 
z
" id="DejaVuSans-48"/>
        <path d="M 10.6875 12.40625 
L 21 12.40625 
L 21 0 
L 10.6875 0 
z
" id="DejaVuSans-46"/>
       </defs>
       <use xlink:href="#DejaVuSans-48"/>
       <use x="63.623047" xlink:href="#DejaVuSans-46"/>
       <use x="95.410156" xlink:href="#DejaVuSans-48"/>
      </g>
     </g>
    </g>
    <g id="xtick_2">
     <g id="line2d_3">
      <path clip-path="url(#p1db1d5c0d5)" d="M 138.763636 307.584 
L 138.763636 41.472 
" style="fill:none;stroke:#b0b0b0;stroke-linecap:square;stroke-width:0.8;"/>
     </g>
     <g id="line2d_4">
      <g>
       <use style="stroke:#000000;stroke-width:0.8;" x="138.763636" xlink:href="#ma37dfbc761" y="307.584"/>
      </g>
     </g>
     <g id="text_2">
      <!-- 0.2 -->
      <g transform="translate(130.812074 322.182437)scale(0.1 -0.1)">
       <defs>
        <path d="M 19.1875 8.296875 
L 53.609375 8.296875 
L 53.609375 0 
L 7.328125 0 
L 7.328125 8.296875 
Q 12.9375 14.109375 22.625 23.890625 
Q 32.328125 33.6875 34.8125 36.53125 
Q 39.546875 41.84375 41.421875 45.53125 
Q 43.3125 49.21875 43.3125 52.78125 
Q 43.3125 58.59375 39.234375 62.25 
Q 35.15625 65.921875 28.609375 65.921875 
Q 23.96875 65.921875 18.8125 64.3125 
Q 13.671875 62.703125 7.8125 59.421875 
L 7.8125 69.390625 
Q 13.765625 71.78125 18.9375 73 
Q 24.125 74.21875 28.421875 74.21875 
Q 39.75 74.21875 46.484375 68.546875 
Q 53.21875 62.890625 53.21875 53.421875 
Q 53.21875 48.921875 51.53125 44.890625 
Q 49.859375 40.875 45.40625 35.40625 
Q 44.1875 33.984375 37.640625 27.21875 
Q 31.109375 20.453125 19.1875 8.296875 
z
" id="DejaVuSans-50"/>
       </defs>
       <use xlink:href="#DejaVuSans-48"/>
       <use x="63.623047" xlink:href="#DejaVuSans-46"/>
       <use x="95.410156" xlink:href="#DejaVuSans-50"/>
      </g>
     </g>
    </g>
    <g id="xtick_3">
     <g id="line2d_5">
      <path clip-path="url(#p1db1d5c0d5)" d="M 203.694545 307.584 
L 203.694545 41.472 
" style="fill:none;stroke:#b0b0b0;stroke-linecap:square;stroke-width:0.8;"/>
     </g>
     <g id="line2d_6">
      <g>
       <use style="stroke:#000000;stroke-width:0.8;" x="203.694545" xlink:href="#ma37dfbc761" y="307.584"/>
      </g>
     </g>
     <g id="text_3">
      <!-- 0.4 -->
      <g transform="translate(195.742983 322.182437)scale(0.1 -0.1)">
       <defs>
        <path d="M 37.796875 64.3125 
L 12.890625 25.390625 
L 37.796875 25.390625 
z
M 35.203125 72.90625 
L 47.609375 72.90625 
L 47.609375 25.390625 
L 58.015625 25.390625 
L 58.015625 17.1875 
L 47.609375 17.1875 
L 47.609375 0 
L 37.796875 0 
L 37.796875 17.1875 
L 4.890625 17.1875 
L 4.890625 26.703125 
z
" id="DejaVuSans-52"/>
       </defs>
       <use xlink:href="#DejaVuSans-48"/>
       <use x="63.623047" xlink:href="#DejaVuSans-46"/>
       <use x="95.410156" xlink:href="#DejaVuSans-52"/>
      </g>
     </g>
    </g>
    <g id="xtick_4">
     <g id="line2d_7">
      <path clip-path="url(#p1db1d5c0d5)" d="M 268.625455 307.584 
L 268.625455 41.472 
" style="fill:none;stroke:#b0b0b0;stroke-linecap:square;stroke-width:0.8;"/>
     </g>
     <g id="line2d_8">
      <g>
       <use style="stroke:#000000;stroke-width:0.8;" x="268.625455" xlink:href="#ma37dfbc761" y="307.584"/>
      </g>
     </g>
     <g id="text_4">
      <!-- 0.6 -->
      <g transform="translate(260.673892 322.182437)scale(0.1 -0.1)">
       <defs>
        <path d="M 33.015625 40.375 
Q 26.375 40.375 22.484375 35.828125 
Q 18.609375 31.296875 18.609375 23.390625 
Q 18.609375 15.53125 22.484375 10.953125 
Q 26.375 6.390625 33.015625 6.390625 
Q 39.65625 6.390625 43.53125 10.953125 
Q 47.40625 15.53125 47.40625 23.390625 
Q 47.40625 31.296875 43.53125 35.828125 
Q 39.65625 40.375 33.015625 40.375 
z
M 52.59375 71.296875 
L 52.59375 62.3125 
Q 48.875 64.0625 45.09375 64.984375 
Q 41.3125 65.921875 37.59375 65.921875 
Q 27.828125 65.921875 22.671875 59.328125 
Q 17.53125 52.734375 16.796875 39.40625 
Q 19.671875 43.65625 24.015625 45.921875 
Q 28.375 48.1875 33.59375 48.1875 
Q 44.578125 48.1875 50.953125 41.515625 
Q 57.328125 34.859375 57.328125 23.390625 
Q 57.328125 12.15625 50.6875 5.359375 
Q 44.046875 -1.421875 33.015625 -1.421875 
Q 20.359375 -1.421875 13.671875 8.265625 
Q 6.984375 17.96875 6.984375 36.375 
Q 6.984375 53.65625 15.1875 63.9375 
Q 23.390625 74.21875 37.203125 74.21875 
Q 40.921875 74.21875 44.703125 73.484375 
Q 48.484375 72.75 52.59375 71.296875 
z
" id="DejaVuSans-54"/>
       </defs>
       <use xlink:href="#DejaVuSans-48"/>
       <use x="63.623047" xlink:href="#DejaVuSans-46"/>
       <use x="95.410156" xlink:href="#DejaVuSans-54"/>
      </g>
     </g>
    </g>
    <g id="xtick_5">
     <g id="line2d_9">
      <path clip-path="url(#p1db1d5c0d5)" d="M 333.556364 307.584 
L 333.556364 41.472 
" style="fill:none;stroke:#b0b0b0;stroke-linecap:square;stroke-width:0.8;"/>
     </g>
     <g id="line2d_10">
      <g>
       <use style="stroke:#000000;stroke-width:0.8;" x="333.556364" xlink:href="#ma37dfbc761" y="307.584"/>
      </g>
     </g>
     <g id="text_5">
      <!-- 0.8 -->
      <g transform="translate(325.604801 322.182437)scale(0.1 -0.1)">
       <defs>
        <path d="M 31.78125 34.625 
Q 24.75 34.625 20.71875 30.859375 
Q 16.703125 27.09375 16.703125 20.515625 
Q 16.703125 13.921875 20.71875 10.15625 
Q 24.75 6.390625 31.78125 6.390625 
Q 38.8125 6.390625 42.859375 10.171875 
Q 46.921875 13.96875 46.921875 20.515625 
Q 46.921875 27.09375 42.890625 30.859375 
Q 38.875 34.625 31.78125 34.625 
z
M 21.921875 38.8125 
Q 15.578125 40.375 12.03125 44.71875 
Q 8.5 49.078125 8.5 55.328125 
Q 8.5 64.0625 14.71875 69.140625 
Q 20.953125 74.21875 31.78125 74.21875 
Q 42.671875 74.21875 48.875 69.140625 
Q 55.078125 64.0625 55.078125 55.328125 
Q 55.078125 49.078125 51.53125 44.71875 
Q 48 40.375 41.703125 38.8125 
Q 48.828125 37.15625 52.796875 32.3125 
Q 56.78125 27.484375 56.78125 20.515625 
Q 56.78125 9.90625 50.3125 4.234375 
Q 43.84375 -1.421875 31.78125 -1.421875 
Q 19.734375 -1.421875 13.25 4.234375 
Q 6.78125 9.90625 6.78125 20.515625 
Q 6.78125 27.484375 10.78125 32.3125 
Q 14.796875 37.15625 21.921875 38.8125 
z
M 18.3125 54.390625 
Q 18.3125 48.734375 21.84375 45.5625 
Q 25.390625 42.390625 31.78125 42.390625 
Q 38.140625 42.390625 41.71875 45.5625 
Q 45.3125 48.734375 45.3125 54.390625 
Q 45.3125 60.0625 41.71875 63.234375 
Q 38.140625 66.40625 31.78125 66.40625 
Q 25.390625 66.40625 21.84375 63.234375 
Q 18.3125 60.0625 18.3125 54.390625 
z
" id="DejaVuSans-56"/>
       </defs>
       <use xlink:href="#DejaVuSans-48"/>
       <use x="63.623047" xlink:href="#DejaVuSans-46"/>
       <use x="95.410156" xlink:href="#DejaVuSans-56"/>
      </g>
     </g>
    </g>
    <g id="xtick_6">
     <g id="line2d_11">
      <path clip-path="url(#p1db1d5c0d5)" d="M 398.487273 307.584 
L 398.487273 41.472 
" style="fill:none;stroke:#b0b0b0;stroke-linecap:square;stroke-width:0.8;"/>
     </g>
     <g id="line2d_12">
      <g>
       <use style="stroke:#000000;stroke-width:0.8;" x="398.487273" xlink:href="#ma37dfbc761" y="307.584"/>
      </g>
     </g>
     <g id="text_6">
      <!-- 1.0 -->
      <g transform="translate(390.53571 322.182437)scale(0.1 -0.1)">
       <defs>
        <path d="M 12.40625 8.296875 
L 28.515625 8.296875 
L 28.515625 63.921875 
L 10.984375 60.40625 
L 10.984375 69.390625 
L 28.421875 72.90625 
L 38.28125 72.90625 
L 38.28125 8.296875 
L 54.390625 8.296875 
L 54.390625 0 
L 12.40625 0 
z
" id="DejaVuSans-49"/>
       </defs>
       <use xlink:href="#DejaVuSans-49"/>
       <use x="63.623047" xlink:href="#DejaVuSans-46"/>
       <use x="95.410156" xlink:href="#DejaVuSans-48"/>
      </g>
     </g>
    </g>
   </g>
   <g id="matplotlib.axis_2">
    <g id="ytick_1">
     <g id="line2d_13">
      <path clip-path="url(#p1db1d5c0d5)" d="M 57.6 289.391661 
L 414.72 289.391661 
" style="fill:none;stroke:#b0b0b0;stroke-linecap:square;stroke-width:0.8;"/>
     </g>
     <g id="line2d_14">
      <defs>
       <path d="M 0 0 
L -3.5 0 
" id="ma70cb38539" style="stroke:#000000;stroke-width:0.8;"/>
      </defs>
      <g>
       <use style="stroke:#000000;stroke-width:0.8;" x="57.6" xlink:href="#ma70cb38539" y="289.391661"/>
      </g>
     </g>
     <g id="text_7">
      <!-- −10 -->
      <g transform="translate(29.495313 293.19088)scale(0.1 -0.1)">
       <defs>
        <path d="M 10.59375 35.5 
L 73.1875 35.5 
L 73.1875 27.203125 
L 10.59375 27.203125 
z
" id="DejaVuSans-8722"/>
       </defs>
       <use xlink:href="#DejaVuSans-8722"/>
       <use x="83.789062" xlink:href="#DejaVuSans-49"/>
       <use x="147.412109" xlink:href="#DejaVuSans-48"/>
      </g>
     </g>
    </g>
    <g id="ytick_2">
     <g id="line2d_15">
      <path clip-path="url(#p1db1d5c0d5)" d="M 57.6 243.967553 
L 414.72 243.967553 
" style="fill:none;stroke:#b0b0b0;stroke-linecap:square;stroke-width:0.8;"/>
     </g>
     <g id="line2d_16">
      <g>
       <use style="stroke:#000000;stroke-width:0.8;" x="57.6" xlink:href="#ma70cb38539" y="243.967553"/>
      </g>
     </g>
     <g id="text_8">
      <!-- −5 -->
      <g transform="translate(35.857813 247.766772)scale(0.1 -0.1)">
       <defs>
        <path d="M 10.796875 72.90625 
L 49.515625 72.90625 
L 49.515625 64.59375 
L 19.828125 64.59375 
L 19.828125 46.734375 
Q 21.96875 47.46875 24.109375 47.828125 
Q 26.265625 48.1875 28.421875 48.1875 
Q 40.625 48.1875 47.75 41.5 
Q 54.890625 34.8125 54.890625 23.390625 
Q 54.890625 11.625 47.5625 5.09375 
Q 40.234375 -1.421875 26.90625 -1.421875 
Q 22.3125 -1.421875 17.546875 -0.640625 
Q 12.796875 0.140625 7.71875 1.703125 
L 7.71875 11.625 
Q 12.109375 9.234375 16.796875 8.0625 
Q 21.484375 6.890625 26.703125 6.890625 
Q 35.15625 6.890625 40.078125 11.328125 
Q 45.015625 15.765625 45.015625 23.390625 
Q 45.015625 31 40.078125 35.4375 
Q 35.15625 39.890625 26.703125 39.890625 
Q 22.75 39.890625 18.8125 39.015625 
Q 14.890625 38.140625 10.796875 36.28125 
z
" id="DejaVuSans-53"/>
       </defs>
       <use xlink:href="#DejaVuSans-8722"/>
       <use x="83.789062" xlink:href="#DejaVuSans-53"/>
      </g>
     </g>
    </g>
    <g id="ytick_3">
     <g id="line2d_17">
      <path clip-path="url(#p1db1d5c0d5)" d="M 57.6 198.543446 
L 414.72 198.543446 
" style="fill:none;stroke:#b0b0b0;stroke-linecap:square;stroke-width:0.8;"/>
     </g>
     <g id="line2d_18">
      <g>
       <use style="stroke:#000000;stroke-width:0.8;" x="57.6" xlink:href="#ma70cb38539" y="198.543446"/>
      </g>
     </g>
     <g id="text_9">
      <!-- 0 -->
      <g transform="translate(44.2375 202.342665)scale(0.1 -0.1)">
       <use xlink:href="#DejaVuSans-48"/>
      </g>
     </g>
    </g>
    <g id="ytick_4">
     <g id="line2d_19">
      <path clip-path="url(#p1db1d5c0d5)" d="M 57.6 153.119339 
L 414.72 153.119339 
" style="fill:none;stroke:#b0b0b0;stroke-linecap:square;stroke-width:0.8;"/>
     </g>
     <g id="line2d_20">
      <g>
       <use style="stroke:#000000;stroke-width:0.8;" x="57.6" xlink:href="#ma70cb38539" y="153.119339"/>
      </g>
     </g>
     <g id="text_10">
      <!-- 5 -->
      <g transform="translate(44.2375 156.918557)scale(0.1 -0.1)">
       <use xlink:href="#DejaVuSans-53"/>
      </g>
     </g>
    </g>
    <g id="ytick_5">
     <g id="line2d_21">
      <path clip-path="url(#p1db1d5c0d5)" d="M 57.6 107.695231 
L 414.72 107.695231 
" style="fill:none;stroke:#b0b0b0;stroke-linecap:square;stroke-width:0.8;"/>
     </g>
     <g id="line2d_22">
      <g>
       <use style="stroke:#000000;stroke-width:0.8;" x="57.6" xlink:href="#ma70cb38539" y="107.695231"/>
      </g>
     </g>
     <g id="text_11">
      <!-- 10 -->
      <g transform="translate(37.875 111.49445)scale(0.1 -0.1)">
       <use xlink:href="#DejaVuSans-49"/>
       <use x="63.623047" xlink:href="#DejaVuSans-48"/>
      </g>
     </g>
    </g>
    <g id="ytick_6">
     <g id="line2d_23">
      <path clip-path="url(#p1db1d5c0d5)" d="M 57.6 62.271124 
L 414.72 62.271124 
" style="fill:none;stroke:#b0b0b0;stroke-linecap:square;stroke-width:0.8;"/>
     </g>
     <g id="line2d_24">
      <g>
       <use style="stroke:#000000;stroke-width:0.8;" x="57.6" xlink:href="#ma70cb38539" y="62.271124"/>
      </g>
     </g>
     <g id="text_12">
      <!-- 15 -->
      <g transform="translate(37.875 66.070342)scale(0.1 -0.1)">
       <use xlink:href="#DejaVuSans-49"/>
       <use x="63.623047" xlink:href="#DejaVuSans-53"/>
      </g>
     </g>
    </g>
   </g>
   <g id="line2d_25">
    <path clip-path="url(#p1db1d5c0d5)" d="M 73.832727 273.212074 
L 77.112066 274.745299 
L 80.391405 276.094509 
L 83.670744 277.252985 
L 86.950083 278.216241 
L 90.229421 278.982122 
L 93.50876 279.550847 
L 96.788099 279.925013 
L 100.067438 280.109538 
L 103.346777 280.111559 
L 106.626116 279.940276 
L 109.905455 279.606749 
L 113.184793 279.123651 
L 116.464132 278.504975 
L 119.743471 277.765719 
L 123.02281 276.921535 
L 126.302149 275.988367 
L 129.581488 274.982083 
L 132.860826 273.918107 
L 136.140165 272.811066 
L 139.419504 271.674461 
L 142.698843 270.520377 
L 145.978182 269.359226 
L 149.257521 268.199559 
L 152.53686 267.04792 
L 155.816198 265.908779 
L 159.095537 264.784526 
L 162.374876 263.675539 
L 165.654215 262.580323 
L 168.933554 261.495715 
L 172.212893 260.417147 
L 175.492231 259.338977 
L 178.77157 258.254851 
L 182.050909 257.158109 
L 185.330248 256.042212 
L 188.609587 254.901173 
L 191.888926 253.729989 
L 195.168264 252.52504 
L 198.447603 251.284464 
L 201.726942 250.008468 
L 205.006281 248.699588 
L 208.28562 247.362857 
L 211.564959 246.005899 
L 214.844298 244.638923 
L 218.123636 243.274619 
L 221.402975 241.927954 
L 224.682314 240.615871 
L 227.961653 239.356888 
L 231.240992 238.170617 
L 234.520331 237.077205 
L 237.799669 236.096711 
L 241.079008 235.248442 
L 244.358347 234.55026 
L 247.637686 234.017887 
L 250.917025 233.664217 
L 254.196364 233.498672 
L 257.475702 233.526612 
L 260.755041 233.748825 
L 264.03438 234.161117 
L 267.313719 234.754006 
L 270.593058 235.512555 
L 273.872397 236.416341 
L 277.151736 237.439563 
L 280.431074 238.551301 
L 283.710413 239.715931 
L 286.989752 240.893664 
L 290.269091 242.041233 
L 293.54843 243.112683 
L 296.827769 244.060279 
L 300.107107 244.835472 
L 303.386446 245.389942 
L 306.665785 245.676659 
L 309.945124 245.650953 
L 313.224463 245.271564 
L 316.503802 244.501637 
L 319.78314 243.30965 
L 323.062479 241.670233 
L 326.341818 239.564875 
L 329.621157 236.982484 
L 332.900496 233.919802 
L 336.179835 230.381646 
L 339.459174 226.380978 
L 342.738512 221.938809 
L 346.017851 217.083919 
L 349.29719 211.852422 
L 352.576529 206.287172 
L 355.855868 200.437032 
L 359.135207 194.356018 
L 362.414545 188.102346 
L 365.693884 181.737401 
L 368.973223 175.324651 
L 372.252562 168.928536 
L 375.531901 162.613357 
L 378.81124 156.442178 
L 382.090579 150.475788 
L 385.369917 144.77172 
L 388.649256 139.383365 
L 391.928595 134.359184 
L 395.207934 129.742046 
L 398.487273 125.568682 
" style="fill:none;stroke:#0000ff;stroke-linecap:square;stroke-width:1.5;"/>
   </g>
   <g id="line2d_26">
    <path clip-path="url(#p1db1d5c0d5)" d="M 73.832727 255.834994 
L 77.112066 258.649438 
L 80.391405 260.718042 
L 83.670744 262.202982 
L 86.950083 263.24119 
L 90.229421 263.943053 
L 93.50876 264.392936 
L 96.788099 264.651234 
L 100.067438 264.757631 
L 103.346777 264.735117 
L 106.626116 264.594373 
L 109.905455 264.338102 
L 113.184793 263.964985 
L 116.464132 263.472978 
L 119.743471 262.861805 
L 123.02281 262.134556 
L 126.302149 261.298428 
L 129.581488 260.364697 
L 132.860826 259.348069 
L 136.140165 258.265615 
L 139.419504 257.135473 
L 142.698843 255.975503 
L 145.978182 254.80206 
L 149.257521 253.628998 
L 152.53686 252.466979 
L 155.816198 251.323108 
L 159.095537 250.200898 
L 162.374876 249.100504 
L 165.654215 248.019177 
L 168.933554 246.951857 
L 172.212893 245.891843 
L 175.492231 244.831471 
L 178.77157 243.762752 
L 182.050909 242.677946 
L 185.330248 241.570045 
L 188.609587 240.433173 
L 191.888926 239.262907 
L 195.168264 238.056522 
L 198.447603 236.813189 
L 201.726942 235.534134 
L 205.006281 234.222747 
L 208.28562 232.884672 
L 211.564959 231.527844 
L 214.844298 230.162485 
L 218.123636 228.801038 
L 221.402975 227.458027 
L 224.682314 226.149838 
L 227.961653 224.894412 
L 231.240992 223.71084 
L 234.520331 222.618881 
L 237.799669 221.638387 
L 241.079008 220.788664 
L 244.358347 220.087784 
L 247.637686 219.551855 
L 250.917025 219.19429 
L 254.196364 219.025091 
L 257.475702 219.050174 
L 260.755041 219.27077 
L 264.03438 219.682932 
L 267.313719 220.277164 
L 270.593058 221.038221 
L 273.872397 221.945067 
L 277.151736 222.971044 
L 280.431074 224.08422 
L 283.710413 225.247931 
L 286.989752 226.421497 
L 290.269091 227.561069 
L 293.54843 228.620585 
L 296.827769 229.552773 
L 300.107107 230.310168 
L 303.386446 230.846084 
L 306.665785 231.115512 
L 309.945124 231.075918 
L 313.224463 230.687936 
L 316.503802 229.915966 
L 319.78314 228.728709 
L 323.062479 227.099673 
L 326.341818 225.007708 
L 329.621157 222.43761 
L 332.900496 219.380814 
L 336.179835 215.836195 
L 339.459174 211.81094 
L 342.738512 207.321423 
L 346.017851 202.39398 
L 349.29719 197.065443 
L 352.576529 191.383258 
L 355.855868 185.405035 
L 359.135207 179.197352 
L 362.414545 172.833699 
L 365.693884 166.391498 
L 368.973223 159.948209 
L 372.252562 153.576629 
L 375.531901 147.339578 
L 378.81124 141.284266 
L 382.090579 135.436719 
L 385.369917 129.796668 
L 388.649256 124.333362 
L 391.928595 118.982717 
L 395.207934 113.646184 
L 398.487273 108.191602 
" style="fill:none;stroke:#000000;stroke-linecap:square;stroke-width:0.5;"/>
   </g>
   <g id="line2d_27">
    <path clip-path="url(#p1db1d5c0d5)" d="M 73.832727 290.589154 
L 77.112066 290.841161 
L 80.391405 291.470977 
L 83.670744 292.302988 
L 86.950083 293.191293 
L 90.229421 294.02119 
L 93.50876 294.708759 
L 96.788099 295.198792 
L 100.067438 295.461445 
L 103.346777 295.488 
L 106.626116 295.286179 
L 109.905455 294.875397 
L 113.184793 294.282317 
L 116.464132 293.536973 
L 119.743471 292.669634 
L 123.02281 291.708513 
L 126.302149 290.678305 
L 129.581488 289.599469 
L 132.860826 288.488145 
L 136.140165 287.356516 
L 139.419504 286.213449 
L 142.698843 285.06525 
L 145.978182 283.916393 
L 149.257521 282.77012 
L 152.53686 281.628862 
L 155.816198 280.49445 
L 159.095537 279.368154 
L 162.374876 278.250574 
L 165.654215 277.14147 
L 168.933554 276.039572 
L 172.212893 274.942451 
L 175.492231 273.846483 
L 178.77157 272.74695 
L 182.050909 271.638272 
L 185.330248 270.514379 
L 188.609587 269.369173 
L 191.888926 268.197071 
L 195.168264 266.993559 
L 198.447603 265.755738 
L 201.726942 264.482803 
L 205.006281 263.176429 
L 208.28562 261.841042 
L 211.564959 260.483954 
L 214.844298 259.115361 
L 218.123636 257.748199 
L 221.402975 256.397881 
L 224.682314 255.081903 
L 227.961653 253.819364 
L 231.240992 252.630395 
L 234.520331 251.53553 
L 237.799669 250.555035 
L 241.079008 249.708219 
L 244.358347 249.012736 
L 247.637686 248.48392 
L 250.917025 248.134144 
L 254.196364 247.972252 
L 257.475702 248.003049 
L 260.755041 248.226881 
L 264.03438 248.639302 
L 267.313719 249.230847 
L 270.593058 249.98689 
L 273.872397 250.887616 
L 277.151736 251.908081 
L 280.431074 253.018383 
L 283.710413 254.183931 
L 286.989752 255.365832 
L 290.269091 256.521396 
L 293.54843 257.604782 
L 296.827769 258.567785 
L 300.107107 259.360776 
L 303.386446 259.9338 
L 306.665785 260.237805 
L 309.945124 260.225988 
L 313.224463 259.855191 
L 316.503802 259.087309 
L 319.78314 257.890592 
L 323.062479 256.240794 
L 326.341818 254.122041 
L 329.621157 251.527357 
L 332.900496 248.45879 
L 336.179835 244.927096 
L 339.459174 240.951016 
L 342.738512 236.556195 
L 346.017851 231.773857 
L 349.29719 226.6394 
L 352.576529 221.191087 
L 355.855868 215.46903 
L 359.135207 209.514685 
L 362.414545 203.370994 
L 365.693884 197.083304 
L 368.973223 190.701092 
L 372.252562 184.280443 
L 375.531901 177.887135 
L 378.81124 171.600089 
L 382.090579 165.514856 
L 385.369917 159.746771 
L 388.649256 154.433367 
L 391.928595 149.735652 
L 395.207934 145.837907 
L 398.487273 142.945762 
" style="fill:none;stroke:#000000;stroke-linecap:square;stroke-width:0.5;"/>
   </g>
   <g id="line2d_28">
    <path clip-path="url(#p1db1d5c0d5)" d="M 73.832727 222.983465 
L 77.112066 224.537982 
L 80.391405 225.906105 
L 83.670744 227.081029 
L 86.950083 228.05821 
L 90.229421 228.835466 
L 93.50876 229.413018 
L 96.788099 229.793497 
L 100.067438 229.981884 
L 103.346777 229.985408 
L 106.626116 229.813389 
L 109.905455 229.47703 
L 113.184793 228.989166 
L 116.464132 228.363973 
L 119.743471 227.616641 
L 123.02281 226.763024 
L 126.302149 225.819275 
L 129.581488 224.801465 
L 132.860826 223.725217 
L 136.140165 222.605347 
L 139.419504 221.455532 
L 142.698843 220.288011 
L 145.978182 219.113334 
L 149.257521 217.940158 
L 152.53686 216.775115 
L 155.816198 215.622731 
L 159.095537 214.485427 
L 162.374876 213.363588 
L 165.654215 212.255697 
L 168.933554 211.158551 
L 172.212893 210.067524 
L 175.492231 208.976899 
L 178.77157 207.880242 
L 182.050909 206.770806 
L 185.330248 205.641967 
L 188.609587 204.487662 
L 191.888926 203.302821 
L 195.168264 202.08378 
L 198.447603 200.828651 
L 201.726942 199.537646 
L 205.006281 198.21333 
L 208.28562 196.860804 
L 211.564959 195.48779 
L 214.844298 194.104628 
L 218.123636 192.724173 
L 221.402975 191.361585 
L 224.682314 190.034026 
L 227.961653 188.760253 
L 231.240992 187.560133 
L 234.520331 186.454071 
L 237.799669 185.462386 
L 241.079008 184.604635 
L 244.358347 183.898911 
L 247.637686 183.361139 
L 250.917025 183.00438 
L 254.196364 182.838176 
L 257.475702 182.867958 
L 260.755041 183.094525 
L 264.03438 183.513626 
L 267.313719 184.115658 
L 270.593058 184.885493 
L 273.872397 185.80244 
L 277.151736 186.840367 
L 280.431074 187.967954 
L 283.710413 189.149117 
L 286.989752 190.343552 
L 290.269091 191.507433 
L 293.54843 192.594213 
L 296.827769 193.555536 
L 300.107107 194.34223 
L 303.386446 194.905348 
L 306.665785 195.197252 
L 309.945124 195.172697 
L 313.224463 194.789887 
L 316.503802 194.011494 
L 319.78314 192.805585 
L 323.062479 191.146464 
L 326.341818 189.01538 
L 329.621157 186.401099 
L 332.900496 183.30032 
L 336.179835 179.717922 
L 339.459174 175.667036 
L 342.738512 171.168942 
L 346.017851 166.252794 
L 349.29719 160.955172 
L 352.576529 155.319485 
L 355.855868 149.395226 
L 359.135207 143.237108 
L 362.414545 136.904102 
L 365.693884 130.458384 
L 368.973223 123.964243 
L 372.252562 117.486954 
L 375.531901 111.091645 
L 378.81124 104.842198 
L 382.090579 98.800187 
L 385.369917 93.023888 
L 388.649256 87.567382 
L 391.928595 82.479757 
L 395.207934 77.804434 
L 398.487273 73.578621 
" style="fill:none;stroke:#ffa500;stroke-linecap:square;stroke-width:1.5;"/>
   </g>
   <g id="line2d_29">
    <path clip-path="url(#p1db1d5c0d5)" d="M 73.832727 202.971964 
L 77.112066 205.841111 
L 80.391405 207.947423 
L 83.670744 209.457383 
L 86.950083 210.511544 
L 90.229421 211.223193 
L 93.50876 211.678885 
L 96.788099 211.940556 
L 100.067438 212.048854 
L 103.346777 212.027276 
L 106.626116 211.886658 
L 109.905455 211.629632 
L 113.184793 211.254676 
L 116.464132 210.759511 
L 119.743471 210.143656 
L 123.02281 209.410079 
L 126.302149 208.565954 
L 129.581488 207.622642 
L 132.860826 206.59503 
L 136.140165 205.500443 
L 139.419504 204.357312 
L 142.698843 203.183805 
L 145.978182 201.996565 
L 149.257521 200.809696 
L 152.53686 199.63405 
L 155.816198 198.47686 
L 159.095537 197.341697 
L 162.374876 196.228718 
L 165.654215 195.135119 
L 168.933554 194.055751 
L 172.212893 192.983799 
L 175.492231 191.911473 
L 178.77157 190.83066 
L 182.050909 189.733504 
L 185.330248 188.612902 
L 188.609587 187.462904 
L 191.888926 186.279035 
L 195.168264 185.058548 
L 198.447603 183.800618 
L 201.726942 182.506498 
L 205.006281 181.179635 
L 208.28562 179.825752 
L 211.564959 178.452892 
L 214.844298 177.071409 
L 218.123636 175.693903 
L 221.402975 174.335081 
L 224.682314 173.011532 
L 227.961653 171.741422 
L 231.240992 170.544082 
L 234.520331 169.439521 
L 237.799669 168.447845 
L 241.079008 167.588611 
L 244.358347 166.880124 
L 247.637686 166.338708 
L 250.917025 165.977955 
L 254.196364 165.808004 
L 257.475702 165.834855 
L 260.755041 166.059761 
L 264.03438 166.478725 
L 267.313719 167.082132 
L 270.593058 167.854532 
L 273.872397 168.774612 
L 277.151736 169.815357 
L 280.431074 170.944408 
L 283.710413 172.124616 
L 286.989752 173.314763 
L 290.269091 174.470424 
L 293.54843 175.544942 
L 296.827769 176.490439 
L 300.107107 177.258852 
L 303.386446 177.802912 
L 306.665785 178.077056 
L 309.945124 178.038227 
L 313.224463 177.646575 
L 316.503802 176.866058 
L 319.78314 175.664973 
L 323.062479 174.016473 
L 326.341818 171.8991 
L 329.621157 169.297399 
L 332.900496 166.202625 
L 336.179835 162.61356 
L 339.459174 158.537409 
L 342.738512 153.990697 
L 346.017851 149.000069 
L 349.29719 143.60284 
L 352.576529 137.847131 
L 355.855868 131.791412 
L 359.135207 125.503285 
L 362.414545 119.057388 
L 365.693884 112.532355 
L 368.973223 106.006831 
L 372.252562 99.554662 
L 375.531901 93.23946 
L 378.81124 87.108839 
L 382.090579 81.188705 
L 385.369917 75.47803 
L 388.649256 69.944563 
L 391.928595 64.521919 
L 395.207934 59.108425 
L 398.487273 53.568 
" style="fill:none;stroke:#000000;stroke-linecap:square;stroke-width:0.5;"/>
   </g>
   <g id="line2d_30">
    <path clip-path="url(#p1db1d5c0d5)" d="M 73.832727 242.994966 
L 77.112066 243.234852 
L 80.391405 243.864787 
L 83.670744 244.704674 
L 86.950083 245.604877 
L 90.229421 246.447739 
L 93.50876 247.147151 
L 96.788099 247.646438 
L 100.067438 247.914913 
L 103.346777 247.94354 
L 106.626116 247.74012 
L 109.905455 247.324428 
L 113.184793 246.723656 
L 116.464132 245.968435 
L 119.743471 245.089625 
L 123.02281 244.11597 
L 126.302149 243.072596 
L 129.581488 241.980288 
L 132.860826 240.855404 
L 136.140165 239.710251 
L 139.419504 238.553752 
L 142.698843 237.392218 
L 145.978182 236.230102 
L 149.257521 235.07062 
L 152.53686 233.91618 
L 155.816198 232.768602 
L 159.095537 231.629157 
L 162.374876 230.498458 
L 165.654215 229.376276 
L 168.933554 228.261351 
L 172.212893 227.151248 
L 175.492231 226.042326 
L 178.77157 224.929824 
L 182.050909 223.808108 
L 185.330248 222.671032 
L 188.609587 221.51242 
L 191.888926 220.326608 
L 195.168264 219.109013 
L 198.447603 217.856684 
L 201.726942 216.568793 
L 205.006281 215.247026 
L 208.28562 213.895856 
L 211.564959 212.522688 
L 214.844298 211.137847 
L 218.123636 209.754442 
L 221.402975 208.388089 
L 224.682314 207.056519 
L 227.961653 205.779085 
L 231.240992 204.576183 
L 234.520331 203.46862 
L 237.799669 202.476926 
L 241.079008 201.620659 
L 244.358347 200.917699 
L 247.637686 200.383571 
L 250.917025 200.030804 
L 254.196364 199.868348 
L 257.475702 199.901062 
L 260.755041 200.12929 
L 264.03438 200.548527 
L 267.313719 201.149185 
L 270.593058 201.916454 
L 273.872397 202.830269 
L 277.151736 203.865377 
L 280.431074 204.991501 
L 283.710413 206.173618 
L 286.989752 207.372342 
L 290.269091 208.544442 
L 293.54843 209.643484 
L 296.827769 210.620634 
L 300.107107 211.425608 
L 303.386446 212.007783 
L 306.665785 212.317449 
L 309.945124 212.307167 
L 313.224463 211.933199 
L 316.503802 211.156929 
L 319.78314 209.946196 
L 323.062479 208.276455 
L 326.341818 206.131659 
L 329.621157 203.504799 
L 332.900496 200.398016 
L 336.179835 196.822285 
L 339.459174 192.796663 
L 342.738512 188.347188 
L 346.017851 183.50552 
L 349.29719 178.307505 
L 352.576529 172.791839 
L 355.855868 166.999039 
L 359.135207 160.970932 
L 362.414545 154.750816 
L 365.693884 148.384413 
L 368.973223 141.921656 
L 372.252562 135.419246 
L 375.531901 128.943831 
L 378.81124 122.575558 
L 382.090579 116.411669 
L 385.369917 110.569746 
L 388.649256 105.190201 
L 391.928595 100.437595 
L 395.207934 96.500443 
L 398.487273 93.589242 
" style="fill:none;stroke:#000000;stroke-linecap:square;stroke-width:0.5;"/>
   </g>
   <g id="line2d_31">
    <path clip-path="url(#p1db1d5c0d5)" d="M 73.832727 273.369624 
L 77.112066 274.717928 
L 80.391405 276.021314 
L 83.670744 277.237319 
L 86.950083 278.329166 
L 90.229421 279.266184 
L 93.50876 280.024061 
L 96.788099 280.584932 
L 100.067438 280.937313 
L 103.346777 281.075882 
L 106.626116 281.001127 
L 109.905455 280.718867 
L 113.184793 280.239681 
L 116.464132 279.578237 
L 119.743471 278.752567 
L 123.02281 277.783297 
L 126.302149 276.69285 
L 129.581488 275.504654 
L 132.860826 274.242368 
L 136.140165 272.929146 
L 139.419504 271.586961 
L 142.698843 270.236003 
L 145.978182 268.894159 
L 149.257521 267.576598 
L 152.53686 266.295455 
L 155.816198 265.059635 
L 159.095537 263.87472 
L 162.374876 262.743002 
L 165.654215 261.663615 
L 168.933554 260.632773 
L 172.212893 259.644102 
L 175.492231 258.689056 
L 178.77157 257.757393 
L 182.050909 256.837717 
L 185.330248 255.918041 
L 188.609587 254.986379 
L 191.888926 254.031332 
L 195.168264 253.042661 
L 198.447603 252.011819 
L 201.726942 250.932432 
L 205.006281 249.800715 
L 208.28562 248.6158 
L 211.564959 247.379979 
L 214.844298 246.098836 
L 218.123636 244.781275 
L 221.402975 243.439431 
L 224.682314 242.088473 
L 227.961653 240.746289 
L 231.240992 239.433066 
L 234.520331 238.17078 
L 237.799669 236.982584 
L 241.079008 235.892137 
L 244.358347 234.922867 
L 247.637686 234.097198 
L 250.917025 233.435753 
L 254.196364 232.956567 
L 257.475702 232.674308 
L 260.755041 232.599552 
L 264.03438 232.738121 
L 267.313719 233.090503 
L 270.593058 233.651374 
L 273.872397 234.40925 
L 277.151736 235.346268 
L 280.431074 236.438115 
L 283.710413 237.65412 
L 286.989752 238.957507 
L 290.269091 240.30581 
L 293.54843 241.651464 
L 296.827769 242.942541 
L 300.107107 244.123646 
L 303.386446 245.136949 
L 306.665785 245.923334 
L 309.945124 246.423651 
L 313.224463 246.580048 
L 316.503802 246.337349 
L 319.78314 245.644465 
L 323.062479 244.455789 
L 326.341818 242.732563 
L 329.621157 240.444175 
L 332.900496 237.569353 
L 336.179835 234.097238 
L 339.459174 230.028289 
L 342.738512 225.375015 
L 346.017851 220.162484 
L 349.29719 214.428613 
L 352.576529 208.224206 
L 355.855868 201.612735 
L 359.135207 194.669847 
L 362.414545 187.482614 
L 365.693884 180.148496 
L 368.973223 172.774064 
L 372.252562 165.473464 
L 375.531901 158.366654 
L 378.81124 151.577447 
L 382.090579 145.231368 
L 385.369917 139.453379 
L 388.649256 134.365495 
L 391.928595 130.084345 
L 395.207934 126.718712 
L 398.487273 124.367096 
" style="fill:none;stroke:#0000ff;stroke-dasharray:5.55,2.4;stroke-dashoffset:0;stroke-width:1.5;"/>
   </g>
   <g id="line2d_32">
    <path clip-path="url(#p1db1d5c0d5)" d="M 73.832727 170.133302 
L 77.112066 174.665226 
L 80.391405 179.107316 
L 83.670744 183.374644 
L 86.950083 187.393655 
L 90.229421 191.103008 
L 93.50876 194.454079 
L 96.788099 197.411139 
L 100.067438 199.951219 
L 103.346777 202.063675 
L 106.626116 203.749481 
L 109.905455 205.02028 
L 113.184793 205.897225 
L 116.464132 206.409653 
L 119.743471 206.593632 
L 123.02281 206.490409 
L 126.302149 206.144833 
L 129.581488 205.603758 
L 132.860826 204.914503 
L 136.140165 204.123376 
L 139.419504 203.274325 
L 142.698843 202.407726 
L 145.978182 201.559356 
L 149.257521 200.759551 
L 152.53686 200.032583 
L 155.816198 199.396259 
L 159.095537 198.861747 
L 162.374876 198.433629 
L 165.654215 198.110173 
L 168.933554 197.883806 
L 172.212893 197.741782 
L 175.492231 197.667006 
L 178.77157 197.638999 
L 182.050909 197.634964 
L 185.330248 197.630929 
L 188.609587 197.602922 
L 191.888926 197.528146 
L 195.168264 197.386122 
L 198.447603 197.159755 
L 201.726942 196.836299 
L 205.006281 196.408181 
L 208.28562 195.873669 
L 211.564959 195.237345 
L 214.844298 194.510377 
L 218.123636 193.710572 
L 221.402975 192.862202 
L 224.682314 191.995603 
L 227.961653 191.146551 
L 231.240992 190.355424 
L 234.520331 189.666169 
L 237.799669 189.125095 
L 241.079008 188.779519 
L 244.358347 188.676296 
L 247.637686 188.860274 
L 250.917025 189.372703 
L 254.196364 190.249648 
L 257.475702 191.520447 
L 260.755041 193.206253 
L 264.03438 195.318709 
L 267.313719 197.858789 
L 270.593058 200.815849 
L 273.872397 204.166919 
L 277.151736 207.876272 
L 280.431074 211.895284 
L 283.710413 216.162612 
L 286.989752 220.604702 
L 290.269091 225.136626 
L 293.54843 229.663251 
L 296.827769 234.080722 
L 300.107107 238.27825 
L 303.386446 242.140174 
L 306.665785 245.548261 
L 309.945124 248.384213 
L 313.224463 250.532324 
L 316.503802 251.882244 
L 319.78314 252.331793 
L 323.062479 251.789759 
L 326.341818 250.178625 
L 329.621157 247.437166 
L 332.900496 243.522839 
L 336.179835 238.413926 
L 339.459174 232.111347 
L 342.738512 224.640115 
L 346.017851 216.05037 
L 349.29719 206.417946 
L 352.576529 195.84445 
L 355.855868 184.456825 
L 359.135207 172.406368 
L 362.414545 159.867218 
L 365.693884 147.0343 
L 368.973223 134.120754 
L 372.252562 121.354871 
L 375.531901 108.976569 
L 378.81124 97.233472 
L 382.090579 86.376632 
L 385.369917 76.65597 
L 388.649256 68.315519 
L 391.928595 61.588538 
L 395.207934 56.692588 
L 398.487273 53.824675 
" style="fill:none;stroke:#ffa500;stroke-dasharray:5.55,2.4;stroke-dashoffset:0;stroke-width:1.5;"/>
   </g>
   <g id="patch_3">
    <path d="M 57.6 307.584 
L 57.6 41.472 
" style="fill:none;stroke:#000000;stroke-linecap:square;stroke-linejoin:miter;stroke-width:0.8;"/>
   </g>
   <g id="patch_4">
    <path d="M 414.72 307.584 
L 414.72 41.472 
" style="fill:none;stroke:#000000;stroke-linecap:square;stroke-linejoin:miter;stroke-width:0.8;"/>
   </g>
   <g id="patch_5">
    <path d="M 57.6 307.584 
L 414.72 307.584 
" style="fill:none;stroke:#000000;stroke-linecap:square;stroke-linejoin:miter;stroke-width:0.8;"/>
   </g>
   <g id="patch_6">
    <path d="M 57.6 41.472 
L 414.72 41.472 
" style="fill:none;stroke:#000000;stroke-linecap:square;stroke-linejoin:miter;stroke-width:0.8;"/>
   </g>
   <g id="legend_1">
    <g id="patch_7">
     <path d="M 64.6 108.1845 
L 239.15625 108.1845 
Q 241.15625 108.1845 241.15625 106.1845 
L 241.15625 48.472 
Q 241.15625 46.472 239.15625 46.472 
L 64.6 46.472 
Q 62.6 46.472 62.6 48.472 
L 62.6 106.1845 
Q 62.6 108.1845 64.6 108.1845 
z
" style="fill:#ffffff;opacity:0.8;stroke:#cccccc;stroke-linejoin:miter;"/>
    </g>
    <g id="line2d_33">
     <path d="M 66.6 54.570438 
L 86.6 54.570438 
" style="fill:none;stroke:#0000ff;stroke-linecap:square;stroke-width:1.5;"/>
    </g>
    <g id="line2d_34"/>
    <g id="text_13">
     <!-- MF cheap GPR (regular GPR) -->
     <g transform="translate(94.6 58.070438)scale(0.1 -0.1)">
      <defs>
       <path d="M 9.8125 72.90625 
L 24.515625 72.90625 
L 43.109375 23.296875 
L 61.8125 72.90625 
L 76.515625 72.90625 
L 76.515625 0 
L 66.890625 0 
L 66.890625 64.015625 
L 48.09375 14.015625 
L 38.1875 14.015625 
L 19.390625 64.015625 
L 19.390625 0 
L 9.8125 0 
z
" id="DejaVuSans-77"/>
       <path d="M 9.8125 72.90625 
L 51.703125 72.90625 
L 51.703125 64.59375 
L 19.671875 64.59375 
L 19.671875 43.109375 
L 48.578125 43.109375 
L 48.578125 34.8125 
L 19.671875 34.8125 
L 19.671875 0 
L 9.8125 0 
z
" id="DejaVuSans-70"/>
       <path id="DejaVuSans-32"/>
       <path d="M 48.78125 52.59375 
L 48.78125 44.1875 
Q 44.96875 46.296875 41.140625 47.34375 
Q 37.3125 48.390625 33.40625 48.390625 
Q 24.65625 48.390625 19.8125 42.84375 
Q 14.984375 37.3125 14.984375 27.296875 
Q 14.984375 17.28125 19.8125 11.734375 
Q 24.65625 6.203125 33.40625 6.203125 
Q 37.3125 6.203125 41.140625 7.25 
Q 44.96875 8.296875 48.78125 10.40625 
L 48.78125 2.09375 
Q 45.015625 0.34375 40.984375 -0.53125 
Q 36.96875 -1.421875 32.421875 -1.421875 
Q 20.0625 -1.421875 12.78125 6.34375 
Q 5.515625 14.109375 5.515625 27.296875 
Q 5.515625 40.671875 12.859375 48.328125 
Q 20.21875 56 33.015625 56 
Q 37.15625 56 41.109375 55.140625 
Q 45.0625 54.296875 48.78125 52.59375 
z
" id="DejaVuSans-99"/>
       <path d="M 54.890625 33.015625 
L 54.890625 0 
L 45.90625 0 
L 45.90625 32.71875 
Q 45.90625 40.484375 42.875 44.328125 
Q 39.84375 48.1875 33.796875 48.1875 
Q 26.515625 48.1875 22.3125 43.546875 
Q 18.109375 38.921875 18.109375 30.90625 
L 18.109375 0 
L 9.078125 0 
L 9.078125 75.984375 
L 18.109375 75.984375 
L 18.109375 46.1875 
Q 21.34375 51.125 25.703125 53.5625 
Q 30.078125 56 35.796875 56 
Q 45.21875 56 50.046875 50.171875 
Q 54.890625 44.34375 54.890625 33.015625 
z
" id="DejaVuSans-104"/>
       <path d="M 56.203125 29.59375 
L 56.203125 25.203125 
L 14.890625 25.203125 
Q 15.484375 15.921875 20.484375 11.0625 
Q 25.484375 6.203125 34.421875 6.203125 
Q 39.59375 6.203125 44.453125 7.46875 
Q 49.3125 8.734375 54.109375 11.28125 
L 54.109375 2.78125 
Q 49.265625 0.734375 44.1875 -0.34375 
Q 39.109375 -1.421875 33.890625 -1.421875 
Q 20.796875 -1.421875 13.15625 6.1875 
Q 5.515625 13.8125 5.515625 26.8125 
Q 5.515625 40.234375 12.765625 48.109375 
Q 20.015625 56 32.328125 56 
Q 43.359375 56 49.78125 48.890625 
Q 56.203125 41.796875 56.203125 29.59375 
z
M 47.21875 32.234375 
Q 47.125 39.59375 43.09375 43.984375 
Q 39.0625 48.390625 32.421875 48.390625 
Q 24.90625 48.390625 20.390625 44.140625 
Q 15.875 39.890625 15.1875 32.171875 
z
" id="DejaVuSans-101"/>
       <path d="M 34.28125 27.484375 
Q 23.390625 27.484375 19.1875 25 
Q 14.984375 22.515625 14.984375 16.5 
Q 14.984375 11.71875 18.140625 8.90625 
Q 21.296875 6.109375 26.703125 6.109375 
Q 34.1875 6.109375 38.703125 11.40625 
Q 43.21875 16.703125 43.21875 25.484375 
L 43.21875 27.484375 
z
M 52.203125 31.203125 
L 52.203125 0 
L 43.21875 0 
L 43.21875 8.296875 
Q 40.140625 3.328125 35.546875 0.953125 
Q 30.953125 -1.421875 24.3125 -1.421875 
Q 15.921875 -1.421875 10.953125 3.296875 
Q 6 8.015625 6 15.921875 
Q 6 25.140625 12.171875 29.828125 
Q 18.359375 34.515625 30.609375 34.515625 
L 43.21875 34.515625 
L 43.21875 35.40625 
Q 43.21875 41.609375 39.140625 45 
Q 35.0625 48.390625 27.6875 48.390625 
Q 23 48.390625 18.546875 47.265625 
Q 14.109375 46.140625 10.015625 43.890625 
L 10.015625 52.203125 
Q 14.9375 54.109375 19.578125 55.046875 
Q 24.21875 56 28.609375 56 
Q 40.484375 56 46.34375 49.84375 
Q 52.203125 43.703125 52.203125 31.203125 
z
" id="DejaVuSans-97"/>
       <path d="M 18.109375 8.203125 
L 18.109375 -20.796875 
L 9.078125 -20.796875 
L 9.078125 54.6875 
L 18.109375 54.6875 
L 18.109375 46.390625 
Q 20.953125 51.265625 25.265625 53.625 
Q 29.59375 56 35.59375 56 
Q 45.5625 56 51.78125 48.09375 
Q 58.015625 40.1875 58.015625 27.296875 
Q 58.015625 14.40625 51.78125 6.484375 
Q 45.5625 -1.421875 35.59375 -1.421875 
Q 29.59375 -1.421875 25.265625 0.953125 
Q 20.953125 3.328125 18.109375 8.203125 
z
M 48.6875 27.296875 
Q 48.6875 37.203125 44.609375 42.84375 
Q 40.53125 48.484375 33.40625 48.484375 
Q 26.265625 48.484375 22.1875 42.84375 
Q 18.109375 37.203125 18.109375 27.296875 
Q 18.109375 17.390625 22.1875 11.75 
Q 26.265625 6.109375 33.40625 6.109375 
Q 40.53125 6.109375 44.609375 11.75 
Q 48.6875 17.390625 48.6875 27.296875 
z
" id="DejaVuSans-112"/>
       <path d="M 59.515625 10.40625 
L 59.515625 29.984375 
L 43.40625 29.984375 
L 43.40625 38.09375 
L 69.28125 38.09375 
L 69.28125 6.78125 
Q 63.578125 2.734375 56.6875 0.65625 
Q 49.8125 -1.421875 42 -1.421875 
Q 24.90625 -1.421875 15.25 8.5625 
Q 5.609375 18.5625 5.609375 36.375 
Q 5.609375 54.25 15.25 64.234375 
Q 24.90625 74.21875 42 74.21875 
Q 49.125 74.21875 55.546875 72.453125 
Q 61.96875 70.703125 67.390625 67.28125 
L 67.390625 56.78125 
Q 61.921875 61.421875 55.765625 63.765625 
Q 49.609375 66.109375 42.828125 66.109375 
Q 29.4375 66.109375 22.71875 58.640625 
Q 16.015625 51.171875 16.015625 36.375 
Q 16.015625 21.625 22.71875 14.15625 
Q 29.4375 6.6875 42.828125 6.6875 
Q 48.046875 6.6875 52.140625 7.59375 
Q 56.25 8.5 59.515625 10.40625 
z
" id="DejaVuSans-71"/>
       <path d="M 19.671875 64.796875 
L 19.671875 37.40625 
L 32.078125 37.40625 
Q 38.96875 37.40625 42.71875 40.96875 
Q 46.484375 44.53125 46.484375 51.125 
Q 46.484375 57.671875 42.71875 61.234375 
Q 38.96875 64.796875 32.078125 64.796875 
z
M 9.8125 72.90625 
L 32.078125 72.90625 
Q 44.34375 72.90625 50.609375 67.359375 
Q 56.890625 61.8125 56.890625 51.125 
Q 56.890625 40.328125 50.609375 34.8125 
Q 44.34375 29.296875 32.078125 29.296875 
L 19.671875 29.296875 
L 19.671875 0 
L 9.8125 0 
z
" id="DejaVuSans-80"/>
       <path d="M 44.390625 34.1875 
Q 47.5625 33.109375 50.5625 29.59375 
Q 53.5625 26.078125 56.59375 19.921875 
L 66.609375 0 
L 56 0 
L 46.6875 18.703125 
Q 43.0625 26.03125 39.671875 28.421875 
Q 36.28125 30.8125 30.421875 30.8125 
L 19.671875 30.8125 
L 19.671875 0 
L 9.8125 0 
L 9.8125 72.90625 
L 32.078125 72.90625 
Q 44.578125 72.90625 50.734375 67.671875 
Q 56.890625 62.453125 56.890625 51.90625 
Q 56.890625 45.015625 53.6875 40.46875 
Q 50.484375 35.9375 44.390625 34.1875 
z
M 19.671875 64.796875 
L 19.671875 38.921875 
L 32.078125 38.921875 
Q 39.203125 38.921875 42.84375 42.21875 
Q 46.484375 45.515625 46.484375 51.90625 
Q 46.484375 58.296875 42.84375 61.546875 
Q 39.203125 64.796875 32.078125 64.796875 
z
" id="DejaVuSans-82"/>
       <path d="M 31 75.875 
Q 24.46875 64.65625 21.28125 53.65625 
Q 18.109375 42.671875 18.109375 31.390625 
Q 18.109375 20.125 21.3125 9.0625 
Q 24.515625 -2 31 -13.1875 
L 23.1875 -13.1875 
Q 15.875 -1.703125 12.234375 9.375 
Q 8.59375 20.453125 8.59375 31.390625 
Q 8.59375 42.28125 12.203125 53.3125 
Q 15.828125 64.359375 23.1875 75.875 
z
" id="DejaVuSans-40"/>
       <path d="M 41.109375 46.296875 
Q 39.59375 47.171875 37.8125 47.578125 
Q 36.03125 48 33.890625 48 
Q 26.265625 48 22.1875 43.046875 
Q 18.109375 38.09375 18.109375 28.8125 
L 18.109375 0 
L 9.078125 0 
L 9.078125 54.6875 
L 18.109375 54.6875 
L 18.109375 46.1875 
Q 20.953125 51.171875 25.484375 53.578125 
Q 30.03125 56 36.53125 56 
Q 37.453125 56 38.578125 55.875 
Q 39.703125 55.765625 41.0625 55.515625 
z
" id="DejaVuSans-114"/>
       <path d="M 45.40625 27.984375 
Q 45.40625 37.75 41.375 43.109375 
Q 37.359375 48.484375 30.078125 48.484375 
Q 22.859375 48.484375 18.828125 43.109375 
Q 14.796875 37.75 14.796875 27.984375 
Q 14.796875 18.265625 18.828125 12.890625 
Q 22.859375 7.515625 30.078125 7.515625 
Q 37.359375 7.515625 41.375 12.890625 
Q 45.40625 18.265625 45.40625 27.984375 
z
M 54.390625 6.78125 
Q 54.390625 -7.171875 48.1875 -13.984375 
Q 42 -20.796875 29.203125 -20.796875 
Q 24.46875 -20.796875 20.265625 -20.09375 
Q 16.0625 -19.390625 12.109375 -17.921875 
L 12.109375 -9.1875 
Q 16.0625 -11.328125 19.921875 -12.34375 
Q 23.78125 -13.375 27.78125 -13.375 
Q 36.625 -13.375 41.015625 -8.765625 
Q 45.40625 -4.15625 45.40625 5.171875 
L 45.40625 9.625 
Q 42.625 4.78125 38.28125 2.390625 
Q 33.9375 0 27.875 0 
Q 17.828125 0 11.671875 7.65625 
Q 5.515625 15.328125 5.515625 27.984375 
Q 5.515625 40.671875 11.671875 48.328125 
Q 17.828125 56 27.875 56 
Q 33.9375 56 38.28125 53.609375 
Q 42.625 51.21875 45.40625 46.390625 
L 45.40625 54.6875 
L 54.390625 54.6875 
z
" id="DejaVuSans-103"/>
       <path d="M 8.5 21.578125 
L 8.5 54.6875 
L 17.484375 54.6875 
L 17.484375 21.921875 
Q 17.484375 14.15625 20.5 10.265625 
Q 23.53125 6.390625 29.59375 6.390625 
Q 36.859375 6.390625 41.078125 11.03125 
Q 45.3125 15.671875 45.3125 23.6875 
L 45.3125 54.6875 
L 54.296875 54.6875 
L 54.296875 0 
L 45.3125 0 
L 45.3125 8.40625 
Q 42.046875 3.421875 37.71875 1 
Q 33.40625 -1.421875 27.6875 -1.421875 
Q 18.265625 -1.421875 13.375 4.4375 
Q 8.5 10.296875 8.5 21.578125 
z
M 31.109375 56 
z
" id="DejaVuSans-117"/>
       <path d="M 9.421875 75.984375 
L 18.40625 75.984375 
L 18.40625 0 
L 9.421875 0 
z
" id="DejaVuSans-108"/>
       <path d="M 8.015625 75.875 
L 15.828125 75.875 
Q 23.140625 64.359375 26.78125 53.3125 
Q 30.421875 42.28125 30.421875 31.390625 
Q 30.421875 20.453125 26.78125 9.375 
Q 23.140625 -1.703125 15.828125 -13.1875 
L 8.015625 -13.1875 
Q 14.5 -2 17.703125 9.0625 
Q 20.90625 20.125 20.90625 31.390625 
Q 20.90625 42.671875 17.703125 53.65625 
Q 14.5 64.65625 8.015625 75.875 
z
" id="DejaVuSans-41"/>
      </defs>
      <use xlink:href="#DejaVuSans-77"/>
      <use x="86.279297" xlink:href="#DejaVuSans-70"/>
      <use x="143.798828" xlink:href="#DejaVuSans-32"/>
      <use x="175.585938" xlink:href="#DejaVuSans-99"/>
      <use x="230.566406" xlink:href="#DejaVuSans-104"/>
      <use x="293.945312" xlink:href="#DejaVuSans-101"/>
      <use x="355.46875" xlink:href="#DejaVuSans-97"/>
      <use x="416.748047" xlink:href="#DejaVuSans-112"/>
      <use x="480.224609" xlink:href="#DejaVuSans-32"/>
      <use x="512.011719" xlink:href="#DejaVuSans-71"/>
      <use x="589.501953" xlink:href="#DejaVuSans-80"/>
      <use x="649.804688" xlink:href="#DejaVuSans-82"/>
      <use x="719.287109" xlink:href="#DejaVuSans-32"/>
      <use x="751.074219" xlink:href="#DejaVuSans-40"/>
      <use x="790.087891" xlink:href="#DejaVuSans-114"/>
      <use x="828.951172" xlink:href="#DejaVuSans-101"/>
      <use x="890.474609" xlink:href="#DejaVuSans-103"/>
      <use x="953.951172" xlink:href="#DejaVuSans-117"/>
      <use x="1017.330078" xlink:href="#DejaVuSans-108"/>
      <use x="1045.113281" xlink:href="#DejaVuSans-97"/>
      <use x="1106.392578" xlink:href="#DejaVuSans-114"/>
      <use x="1147.505859" xlink:href="#DejaVuSans-32"/>
      <use x="1179.292969" xlink:href="#DejaVuSans-71"/>
      <use x="1256.783203" xlink:href="#DejaVuSans-80"/>
      <use x="1317.085938" xlink:href="#DejaVuSans-82"/>
      <use x="1386.568359" xlink:href="#DejaVuSans-41"/>
     </g>
    </g>
    <g id="line2d_35">
     <path d="M 66.6 69.248563 
L 86.6 69.248563 
" style="fill:none;stroke:#ffa500;stroke-linecap:square;stroke-width:1.5;"/>
    </g>
    <g id="line2d_36"/>
    <g id="text_14">
     <!-- MF expensive GPR -->
     <g transform="translate(94.6 72.748563)scale(0.1 -0.1)">
      <defs>
       <path d="M 54.890625 54.6875 
L 35.109375 28.078125 
L 55.90625 0 
L 45.3125 0 
L 29.390625 21.484375 
L 13.484375 0 
L 2.875 0 
L 24.125 28.609375 
L 4.6875 54.6875 
L 15.28125 54.6875 
L 29.78125 35.203125 
L 44.28125 54.6875 
z
" id="DejaVuSans-120"/>
       <path d="M 54.890625 33.015625 
L 54.890625 0 
L 45.90625 0 
L 45.90625 32.71875 
Q 45.90625 40.484375 42.875 44.328125 
Q 39.84375 48.1875 33.796875 48.1875 
Q 26.515625 48.1875 22.3125 43.546875 
Q 18.109375 38.921875 18.109375 30.90625 
L 18.109375 0 
L 9.078125 0 
L 9.078125 54.6875 
L 18.109375 54.6875 
L 18.109375 46.1875 
Q 21.34375 51.125 25.703125 53.5625 
Q 30.078125 56 35.796875 56 
Q 45.21875 56 50.046875 50.171875 
Q 54.890625 44.34375 54.890625 33.015625 
z
" id="DejaVuSans-110"/>
       <path d="M 44.28125 53.078125 
L 44.28125 44.578125 
Q 40.484375 46.53125 36.375 47.5 
Q 32.28125 48.484375 27.875 48.484375 
Q 21.1875 48.484375 17.84375 46.4375 
Q 14.5 44.390625 14.5 40.28125 
Q 14.5 37.15625 16.890625 35.375 
Q 19.28125 33.59375 26.515625 31.984375 
L 29.59375 31.296875 
Q 39.15625 29.25 43.1875 25.515625 
Q 47.21875 21.78125 47.21875 15.09375 
Q 47.21875 7.46875 41.1875 3.015625 
Q 35.15625 -1.421875 24.609375 -1.421875 
Q 20.21875 -1.421875 15.453125 -0.5625 
Q 10.6875 0.296875 5.421875 2 
L 5.421875 11.28125 
Q 10.40625 8.6875 15.234375 7.390625 
Q 20.0625 6.109375 24.8125 6.109375 
Q 31.15625 6.109375 34.5625 8.28125 
Q 37.984375 10.453125 37.984375 14.40625 
Q 37.984375 18.0625 35.515625 20.015625 
Q 33.0625 21.96875 24.703125 23.78125 
L 21.578125 24.515625 
Q 13.234375 26.265625 9.515625 29.90625 
Q 5.8125 33.546875 5.8125 39.890625 
Q 5.8125 47.609375 11.28125 51.796875 
Q 16.75 56 26.8125 56 
Q 31.78125 56 36.171875 55.265625 
Q 40.578125 54.546875 44.28125 53.078125 
z
" id="DejaVuSans-115"/>
       <path d="M 9.421875 54.6875 
L 18.40625 54.6875 
L 18.40625 0 
L 9.421875 0 
z
M 9.421875 75.984375 
L 18.40625 75.984375 
L 18.40625 64.59375 
L 9.421875 64.59375 
z
" id="DejaVuSans-105"/>
       <path d="M 2.984375 54.6875 
L 12.5 54.6875 
L 29.59375 8.796875 
L 46.6875 54.6875 
L 56.203125 54.6875 
L 35.6875 0 
L 23.484375 0 
z
" id="DejaVuSans-118"/>
      </defs>
      <use xlink:href="#DejaVuSans-77"/>
      <use x="86.279297" xlink:href="#DejaVuSans-70"/>
      <use x="143.798828" xlink:href="#DejaVuSans-32"/>
      <use x="175.585938" xlink:href="#DejaVuSans-101"/>
      <use x="235.359375" xlink:href="#DejaVuSans-120"/>
      <use x="294.539062" xlink:href="#DejaVuSans-112"/>
      <use x="358.015625" xlink:href="#DejaVuSans-101"/>
      <use x="419.539062" xlink:href="#DejaVuSans-110"/>
      <use x="482.917969" xlink:href="#DejaVuSans-115"/>
      <use x="535.017578" xlink:href="#DejaVuSans-105"/>
      <use x="562.800781" xlink:href="#DejaVuSans-118"/>
      <use x="621.980469" xlink:href="#DejaVuSans-101"/>
      <use x="683.503906" xlink:href="#DejaVuSans-32"/>
      <use x="715.291016" xlink:href="#DejaVuSans-71"/>
      <use x="792.78125" xlink:href="#DejaVuSans-80"/>
      <use x="853.083984" xlink:href="#DejaVuSans-82"/>
     </g>
    </g>
    <g id="line2d_37">
     <path d="M 66.6 83.926688 
L 86.6 83.926688 
" style="fill:none;stroke:#0000ff;stroke-dasharray:5.55,2.4;stroke-dashoffset:0;stroke-width:1.5;"/>
    </g>
    <g id="line2d_38"/>
    <g id="text_15">
     <!-- Exact cheap function -->
     <g transform="translate(94.6 87.426688)scale(0.1 -0.1)">
      <defs>
       <path d="M 9.8125 72.90625 
L 55.90625 72.90625 
L 55.90625 64.59375 
L 19.671875 64.59375 
L 19.671875 43.015625 
L 54.390625 43.015625 
L 54.390625 34.71875 
L 19.671875 34.71875 
L 19.671875 8.296875 
L 56.78125 8.296875 
L 56.78125 0 
L 9.8125 0 
z
" id="DejaVuSans-69"/>
       <path d="M 18.3125 70.21875 
L 18.3125 54.6875 
L 36.8125 54.6875 
L 36.8125 47.703125 
L 18.3125 47.703125 
L 18.3125 18.015625 
Q 18.3125 11.328125 20.140625 9.421875 
Q 21.96875 7.515625 27.59375 7.515625 
L 36.8125 7.515625 
L 36.8125 0 
L 27.59375 0 
Q 17.1875 0 13.234375 3.875 
Q 9.28125 7.765625 9.28125 18.015625 
L 9.28125 47.703125 
L 2.6875 47.703125 
L 2.6875 54.6875 
L 9.28125 54.6875 
L 9.28125 70.21875 
z
" id="DejaVuSans-116"/>
       <path d="M 37.109375 75.984375 
L 37.109375 68.5 
L 28.515625 68.5 
Q 23.6875 68.5 21.796875 66.546875 
Q 19.921875 64.59375 19.921875 59.515625 
L 19.921875 54.6875 
L 34.71875 54.6875 
L 34.71875 47.703125 
L 19.921875 47.703125 
L 19.921875 0 
L 10.890625 0 
L 10.890625 47.703125 
L 2.296875 47.703125 
L 2.296875 54.6875 
L 10.890625 54.6875 
L 10.890625 58.5 
Q 10.890625 67.625 15.140625 71.796875 
Q 19.390625 75.984375 28.609375 75.984375 
z
" id="DejaVuSans-102"/>
       <path d="M 30.609375 48.390625 
Q 23.390625 48.390625 19.1875 42.75 
Q 14.984375 37.109375 14.984375 27.296875 
Q 14.984375 17.484375 19.15625 11.84375 
Q 23.34375 6.203125 30.609375 6.203125 
Q 37.796875 6.203125 41.984375 11.859375 
Q 46.1875 17.53125 46.1875 27.296875 
Q 46.1875 37.015625 41.984375 42.703125 
Q 37.796875 48.390625 30.609375 48.390625 
z
M 30.609375 56 
Q 42.328125 56 49.015625 48.375 
Q 55.71875 40.765625 55.71875 27.296875 
Q 55.71875 13.875 49.015625 6.21875 
Q 42.328125 -1.421875 30.609375 -1.421875 
Q 18.84375 -1.421875 12.171875 6.21875 
Q 5.515625 13.875 5.515625 27.296875 
Q 5.515625 40.765625 12.171875 48.375 
Q 18.84375 56 30.609375 56 
z
" id="DejaVuSans-111"/>
      </defs>
      <use xlink:href="#DejaVuSans-69"/>
      <use x="63.183594" xlink:href="#DejaVuSans-120"/>
      <use x="122.363281" xlink:href="#DejaVuSans-97"/>
      <use x="183.642578" xlink:href="#DejaVuSans-99"/>
      <use x="238.623047" xlink:href="#DejaVuSans-116"/>
      <use x="277.832031" xlink:href="#DejaVuSans-32"/>
      <use x="309.619141" xlink:href="#DejaVuSans-99"/>
      <use x="364.599609" xlink:href="#DejaVuSans-104"/>
      <use x="427.978516" xlink:href="#DejaVuSans-101"/>
      <use x="489.501953" xlink:href="#DejaVuSans-97"/>
      <use x="550.78125" xlink:href="#DejaVuSans-112"/>
      <use x="614.257812" xlink:href="#DejaVuSans-32"/>
      <use x="646.044922" xlink:href="#DejaVuSans-102"/>
      <use x="681.25" xlink:href="#DejaVuSans-117"/>
      <use x="744.628906" xlink:href="#DejaVuSans-110"/>
      <use x="808.007812" xlink:href="#DejaVuSans-99"/>
      <use x="862.988281" xlink:href="#DejaVuSans-116"/>
      <use x="902.197266" xlink:href="#DejaVuSans-105"/>
      <use x="929.980469" xlink:href="#DejaVuSans-111"/>
      <use x="991.162109" xlink:href="#DejaVuSans-110"/>
     </g>
    </g>
    <g id="line2d_39">
     <path d="M 66.6 98.604813 
L 86.6 98.604813 
" style="fill:none;stroke:#ffa500;stroke-dasharray:5.55,2.4;stroke-dashoffset:0;stroke-width:1.5;"/>
    </g>
    <g id="line2d_40"/>
    <g id="text_16">
     <!-- Exact expensive function -->
     <g transform="translate(94.6 102.104813)scale(0.1 -0.1)">
      <use xlink:href="#DejaVuSans-69"/>
      <use x="63.183594" xlink:href="#DejaVuSans-120"/>
      <use x="122.363281" xlink:href="#DejaVuSans-97"/>
      <use x="183.642578" xlink:href="#DejaVuSans-99"/>
      <use x="238.623047" xlink:href="#DejaVuSans-116"/>
      <use x="277.832031" xlink:href="#DejaVuSans-32"/>
      <use x="309.619141" xlink:href="#DejaVuSans-101"/>
      <use x="369.392578" xlink:href="#DejaVuSans-120"/>
      <use x="428.572266" xlink:href="#DejaVuSans-112"/>
      <use x="492.048828" xlink:href="#DejaVuSans-101"/>
      <use x="553.572266" xlink:href="#DejaVuSans-110"/>
      <use x="616.951172" xlink:href="#DejaVuSans-115"/>
      <use x="669.050781" xlink:href="#DejaVuSans-105"/>
      <use x="696.833984" xlink:href="#DejaVuSans-118"/>
      <use x="756.013672" xlink:href="#DejaVuSans-101"/>
      <use x="817.537109" xlink:href="#DejaVuSans-32"/>
      <use x="849.324219" xlink:href="#DejaVuSans-102"/>
      <use x="884.529297" xlink:href="#DejaVuSans-117"/>
      <use x="947.908203" xlink:href="#DejaVuSans-110"/>
      <use x="1011.287109" xlink:href="#DejaVuSans-99"/>
      <use x="1066.267578" xlink:href="#DejaVuSans-116"/>
      <use x="1105.476562" xlink:href="#DejaVuSans-105"/>
      <use x="1133.259766" xlink:href="#DejaVuSans-111"/>
      <use x="1194.441406" xlink:href="#DejaVuSans-110"/>
     </g>
    </g>
   </g>
  </g>
 </g>
 <defs>
  <clipPath id="p1db1d5c0d5">
   <rect height="266.112" width="357.12" x="57.6" y="41.472"/>
  </clipPath>
 </defs>
</svg>
