<?xml version="1.0" encoding="utf-8" standalone="no"?>
<!DOCTYPE svg PUBLIC "-//W3C//DTD SVG 1.1//EN"
  "http://www.w3.org/Graphics/SVG/1.1/DTD/svg11.dtd">
<!-- Created with matplotlib (https://matplotlib.org/) -->
<svg height="345.6pt" version="1.1" viewBox="0 0 460.8 345.6" width="460.8pt" xmlns="http://www.w3.org/2000/svg" xmlns:xlink="http://www.w3.org/1999/xlink">
 <metadata>
  <rdf:RDF xmlns:cc="http://creativecommons.org/ns#" xmlns:dc="http://purl.org/dc/elements/1.1/" xmlns:rdf="http://www.w3.org/1999/02/22-rdf-syntax-ns#">
   <cc:Work>
    <dc:type rdf:resource="http://purl.org/dc/dcmitype/StillImage"/>
    <dc:date>2020-11-24T14:00:35.294454</dc:date>
    <dc:format>image/svg+xml</dc:format>
    <dc:creator>
     <cc:Agent>
      <dc:title>Matplotlib v3.3.1, https://matplotlib.org/</dc:title>
     </cc:Agent>
    </dc:creator>
   </cc:Work>
  </rdf:RDF>
 </metadata>
 <defs>
  <style type="text/css">*{stroke-linecap:butt;stroke-linejoin:round;}</style>
 </defs>
 <g id="figure_1">
  <g id="patch_1">
   <path d="M 0 345.6 
L 460.8 345.6 
L 460.8 0 
L 0 0 
z
" style="fill:#ffffff;"/>
  </g>
  <g id="axes_1">
   <g id="patch_2">
    <path d="M 57.6 307.584 
L 414.72 307.584 
L 414.72 41.472 
L 57.6 41.472 
z
" style="fill:#ffffff;"/>
   </g>
   <g id="PolyCollection_1">
    <defs>
     <path d="M 73.832727 -64.509591 
L 73.832727 -57.489715 
L 77.112066 -56.136356 
L 80.391405 -54.757645 
L 83.670744 -53.462826 
L 86.950083 -52.330317 
L 90.229421 -51.410795 
L 93.50876 -50.731367 
L 96.788099 -50.300323 
L 100.067438 -50.112 
L 103.346777 -50.151349 
L 106.626116 -50.397885 
L 109.905455 -50.828826 
L 113.184793 -51.421332 
L 116.464132 -52.153876 
L 119.743471 -53.006848 
L 123.02281 -53.962583 
L 126.302149 -55.005005 
L 129.581488 -56.119094 
L 132.860826 -57.290363 
L 136.140165 -58.504474 
L 139.419504 -59.74708 
L 142.698843 -61.003925 
L 145.978182 -62.261173 
L 149.257521 -63.505908 
L 152.53686 -64.726734 
L 155.816198 -65.91436 
L 159.095537 -67.062116 
L 162.374876 -68.166312 
L 165.654215 -69.2264 
L 168.933554 -70.244937 
L 172.212893 -71.227338 
L 175.492231 -72.181465 
L 178.77157 -73.117076 
L 182.050909 -74.0452 
L 185.330248 -74.977463 
L 188.609587 -75.925422 
L 191.888926 -76.899929 
L 195.168264 -77.910552 
L 198.447603 -78.965056 
L 201.726942 -80.068966 
L 205.006281 -81.225194 
L 208.28562 -82.433751 
L 211.564959 -83.691525 
L 214.844298 -84.992151 
L 218.123636 -86.325957 
L 221.402975 -87.680017 
L 224.682314 -89.038303 
L 227.961653 -90.381959 
L 231.240992 -91.689697 
L 234.520331 -92.93832 
L 237.799669 -94.103365 
L 241.079008 -95.159865 
L 244.358347 -96.083204 
L 247.637686 -96.850036 
L 250.917025 -97.439261 
L 254.196364 -97.832984 
L 257.475702 -98.017451 
L 260.755041 -97.983902 
L 264.03438 -97.729302 
L 267.313719 -97.256927 
L 270.593058 -96.576753 
L 273.872397 -95.705652 
L 277.151736 -94.667363 
L 280.431074 -93.49226 
L 283.710413 -92.216905 
L 286.989752 -90.883434 
L 290.269091 -89.538777 
L 293.54843 -88.233757 
L 296.827769 -87.022092 
L 300.107107 -85.959321 
L 303.386446 -85.101669 
L 306.665785 -84.50487 
L 309.945124 -84.222938 
L 313.224463 -84.306897 
L 316.503802 -84.803475 
L 319.78314 -85.753767 
L 323.062479 -87.191908 
L 326.341818 -89.143795 
L 329.621157 -91.625922 
L 332.900496 -94.64442 
L 336.179835 -98.194388 
L 339.459174 -102.259606 
L 342.738512 -106.812706 
L 346.017851 -111.815848 
L 349.29719 -117.221891 
L 352.576529 -122.976015 
L 355.855868 -129.017667 
L 359.135207 -135.282651 
L 362.414545 -141.705161 
L 365.693884 -148.219476 
L 368.973223 -154.761103 
L 372.252562 -161.26712 
L 375.531901 -167.675588 
L 378.81124 -173.92395 
L 382.090579 -179.946478 
L 385.369917 -185.670941 
L 388.649256 -191.014771 
L 391.928595 -195.881132 
L 395.207934 -200.155351 
L 398.487273 -203.702197 
L 398.487273 -210.722073 
L 398.487273 -210.722073 
L 395.207934 -206.604389 
L 391.928595 -202.185526 
L 388.649256 -197.400829 
L 385.369917 -192.222178 
L 382.090579 -186.65419 
L 378.81124 -180.729197 
L 375.531901 -174.501528 
L 372.252562 -168.041562 
L 368.973223 -161.430011 
L 365.693884 -154.752755 
L 362.414545 -148.096481 
L 359.135207 -141.545213 
L 355.855868 -135.177768 
L 352.576529 -129.066036 
L 349.29719 -123.273957 
L 346.017851 -117.857 
L 342.738512 -112.861982 
L 339.459174 -108.327055 
L 336.179835 -104.281739 
L 332.900496 -100.746935 
L 329.621157 -97.73489 
L 326.341818 -95.249122 
L 323.062479 -93.284373 
L 319.78314 -91.826644 
L 316.503802 -90.853384 
L 313.224463 -90.333899 
L 309.945124 -90.230001 
L 306.665785 -90.496926 
L 303.386446 -91.084492 
L 300.107107 -91.938449 
L 296.827769 -93.00198 
L 293.54843 -94.217246 
L 290.269091 -95.526939 
L 286.989752 -96.875742 
L 283.710413 -98.211649 
L 280.431074 -99.487101 
L 277.151736 -100.659909 
L 273.872397 -101.693951 
L 270.593058 -102.55963 
L 267.313719 -103.234134 
L 264.03438 -103.701474 
L 260.755041 -103.952354 
L 257.475702 -103.983876 
L 254.196364 -103.799106 
L 250.917025 -103.406521 
L 247.637686 -102.819354 
L 244.358347 -102.054857 
L 241.079008 -101.133502 
L 237.799669 -100.078131 
L 234.520331 -98.913086 
L 231.240992 -97.663334 
L 227.961653 -96.353613 
L 224.682314 -95.007621 
L 221.402975 -93.647277 
L 218.123636 -92.292079 
L 214.844298 -90.958576 
L 211.564959 -89.659977 
L 208.28562 -88.405923 
L 205.006281 -87.202401 
L 201.726942 -86.051843 
L 198.447603 -84.953354 
L 195.168264 -83.903098 
L 191.888926 -82.89477 
L 188.609587 -81.920166 
L 185.330248 -80.969771 
L 182.050909 -80.033363 
L 178.77157 -79.100565 
L 175.492231 -78.161352 
L 172.212893 -77.206467 
L 168.933554 -76.227759 
L 165.654215 -75.218456 
L 162.374876 -74.173375 
L 159.095537 -73.089118 
L 155.816198 -71.964269 
L 152.53686 -70.799611 
L 149.257521 -69.598373 
L 145.978182 -68.366499 
L 142.698843 -67.112893 
L 139.419504 -65.849595 
L 136.140165 -64.591824 
L 132.860826 -63.357812 
L 129.581488 -62.16837 
L 126.302149 -61.046157 
L 123.02281 -60.014649 
L 119.743471 -59.096868 
L 116.464132 -58.313977 
L 113.184793 -57.683894 
L 109.905455 -57.220147 
L 106.626116 -56.931164 
L 103.346777 -56.820257 
L 100.067438 -56.886442 
L 96.788099 -57.126263 
L 93.50876 -57.536615 
L 90.229421 -58.118507 
L 86.950083 -58.881554 
L 83.670744 -59.848884 
L 80.391405 -61.062038 
L 77.112066 -62.585394 
L 73.832727 -64.509591 
z
" id="m060e6460b8" style="stroke:#0000ff;stroke-opacity:0.2;"/>
    </defs>
    <g clip-path="url(#pe5e9640568)">
     <use style="fill:#0000ff;fill-opacity:0.2;stroke:#0000ff;stroke-opacity:0.2;" x="0" xlink:href="#m060e6460b8" y="345.6"/>
    </g>
   </g>
   <g id="PolyCollection_2">
    <defs>
     <path d="M 73.832727 -177.887575 
L 73.832727 -146.683452 
L 77.112066 -142.51318 
L 80.391405 -137.8011 
L 83.670744 -133.010802 
L 86.950083 -128.474173 
L 90.229421 -124.405525 
L 93.50876 -120.920419 
L 96.788099 -118.056973 
L 100.067438 -115.797532 
L 103.346777 -114.088872 
L 106.626116 -112.859551 
L 109.905455 -112.033489 
L 113.184793 -111.539433 
L 116.464132 -111.316407 
L 119.743471 -111.315679 
L 123.02281 -111.500024 
L 126.302149 -111.841204 
L 129.581488 -112.316621 
L 132.860826 -112.905952 
L 136.140165 -113.588403 
L 139.419504 -114.341002 
L 142.698843 -115.138051 
L 145.978182 -115.951711 
L 149.257521 -116.75345 
L 152.53686 -117.516039 
L 155.816198 -118.2157 
L 159.095537 -118.834069 
L 162.374876 -119.35968 
L 165.654215 -119.788805 
L 168.933554 -120.125566 
L 172.212893 -120.38137 
L 175.492231 -120.573779 
L 178.77157 -120.724965 
L 182.050909 -120.859964 
L 185.330248 -121.004875 
L 188.609587 -121.185161 
L 191.888926 -121.424154 
L 195.168264 -121.741801 
L 198.447603 -122.153682 
L 201.726942 -122.670247 
L 205.006281 -123.296274 
L 208.28562 -124.030469 
L 211.564959 -124.865192 
L 214.844298 -125.786299 
L 218.123636 -126.773077 
L 221.402975 -127.79832 
L 224.682314 -128.828561 
L 227.961653 -129.824513 
L 231.240992 -130.741746 
L 234.520331 -131.531653 
L 237.799669 -132.142698 
L 241.079008 -132.521959 
L 244.358347 -132.616927 
L 247.637686 -132.377519 
L 250.917025 -131.758222 
L 254.196364 -130.720277 
L 257.475702 -129.233793 
L 260.755041 -127.279685 
L 264.03438 -124.851313 
L 267.313719 -121.955737 
L 270.593058 -118.614505 
L 273.872397 -114.863935 
L 277.151736 -110.754879 
L 280.431074 -106.351998 
L 283.710413 -101.732612 
L 286.989752 -96.985213 
L 290.269091 -92.207727 
L 293.54843 -87.505645 
L 296.827769 -82.990071 
L 300.107107 -78.775747 
L 303.386446 -74.979054 
L 306.665785 -71.715945 
L 309.945124 -69.099747 
L 313.224463 -67.238737 
L 316.503802 -66.233445 
L 319.78314 -66.173634 
L 323.062479 -67.135009 
L 326.341818 -69.175795 
L 329.621157 -72.333404 
L 332.900496 -76.621503 
L 336.179835 -82.027863 
L 339.459174 -88.513361 
L 342.738512 -96.012465 
L 346.017851 -104.435388 
L 349.29719 -113.671965 
L 352.576529 -123.596985 
L 355.855868 -134.076557 
L 359.135207 -144.974764 
L 362.414545 -156.159687 
L 365.693884 -167.507791 
L 368.973223 -178.905642 
L 372.252562 -190.248069 
L 375.531901 -201.432175 
L 378.81124 -212.347002 
L 382.090579 -222.859135 
L 385.369917 -232.795089 
L 388.649256 -241.92181 
L 391.928595 -249.927114 
L 395.207934 -256.402112 
L 398.487273 -260.827877 
L 398.487273 -292.032 
L 398.487273 -292.032 
L 395.207934 -285.068797 
L 391.928595 -277.950838 
L 388.649256 -270.308541 
L 385.369917 -261.91606 
L 382.090579 -252.675653 
L 378.81124 -242.597077 
L 375.531901 -231.77423 
L 372.252562 -220.36121 
L 368.973223 -208.549673 
L 365.693884 -196.548939 
L 362.414545 -184.569812 
L 359.135207 -172.812543 
L 355.855868 -161.458886 
L 352.576529 -150.667799 
L 349.29719 -140.574066 
L 346.017851 -131.288975 
L 342.738512 -122.902164 
L 339.459174 -115.483841 
L 336.179835 -109.086808 
L 332.900496 -103.747857 
L 329.621157 -99.488442 
L 326.341818 -96.314646 
L 323.062479 -94.216687 
L 319.78314 -93.168242 
L 316.503802 -93.12596 
L 313.224463 -94.029425 
L 309.945124 -95.801804 
L 306.665785 -98.351295 
L 303.386446 -101.573359 
L 300.107107 -105.353632 
L 296.827769 -109.57133 
L 293.54843 -114.102913 
L 290.269091 -118.825771 
L 286.989752 -123.621685 
L 283.710413 -128.37991 
L 280.431074 -132.999727 
L 277.151736 -137.392406 
L 273.872397 -141.482582 
L 270.593058 -145.209054 
L 267.313719 -148.525083 
L 264.03438 -151.398277 
L 260.755041 -153.810114 
L 257.475702 -155.755209 
L 254.196364 -157.240347 
L 250.917025 -158.28335 
L 247.637686 -158.911794 
L 244.358347 -159.161587 
L 241.079008 -159.075433 
L 237.799669 -158.701192 
L 234.520331 -158.090147 
L 231.240992 -157.29522 
L 227.961653 -156.369173 
L 224.682314 -155.362836 
L 221.402975 -154.323448 
L 218.123636 -153.293146 
L 214.844298 -152.307715 
L 211.564959 -151.395621 
L 208.28562 -150.577432 
L 205.006281 -149.865621 
L 201.726942 -149.264796 
L 198.447603 -148.77233 
L 195.168264 -148.379329 
L 191.888926 -148.071883 
L 188.609587 -147.832459 
L 185.330248 -147.641347 
L 182.050909 -147.478008 
L 178.77157 -147.322233 
L 175.492231 -147.155038 
L 172.212893 -146.959256 
L 168.933554 -146.719871 
L 165.654215 -146.424155 
L 162.374876 -146.061738 
L 159.095537 -145.624757 
L 155.816198 -145.108215 
L 152.53686 -144.510647 
L 149.257521 -143.835128 
L 145.978182 -143.090563 
L 142.698843 -142.293089 
L 139.419504 -141.467356 
L 136.140165 -140.647349 
L 132.860826 -139.876432 
L 129.581488 -139.206321 
L 126.302149 -138.694792 
L 123.02281 -138.402125 
L 119.743471 -138.386494 
L 116.464132 -138.698736 
L 113.184793 -139.377212 
L 109.905455 -140.443615 
L 106.626116 -141.9007 
L 103.346777 -143.732903 
L 100.067438 -145.910673 
L 96.788099 -148.399028 
L 93.50876 -151.170494 
L 90.229421 -154.222042 
L 86.950083 -157.595144 
L 83.670744 -161.397533 
L 80.391405 -165.824824 
L 77.112066 -171.179865 
L 73.832727 -177.887575 
z
" id="m6f1cdd7fcf" style="stroke:#ffa500;stroke-opacity:0.2;"/>
    </defs>
    <g clip-path="url(#pe5e9640568)">
     <use style="fill:#ffa500;fill-opacity:0.2;stroke:#ffa500;stroke-opacity:0.2;" x="0" xlink:href="#m6f1cdd7fcf" y="345.6"/>
    </g>
   </g>
   <g id="PathCollection_1">
    <defs>
     <path d="M 0 3 
C 0.795609 3 1.55874 2.683901 2.12132 2.12132 
C 2.683901 1.55874 3 0.795609 3 0 
C 3 -0.795609 2.683901 -1.55874 2.12132 -2.12132 
C 1.55874 -2.683901 0.795609 -3 0 -3 
C -0.795609 -3 -1.55874 -2.683901 -2.12132 -2.12132 
C -2.683901 -1.55874 -3 -0.795609 -3 0 
C -3 0.795609 -2.683901 1.55874 -2.12132 2.12132 
C -1.55874 2.683901 -0.795609 3 0 3 
z
" id="mf3325287f7" style="stroke:#0000ff;"/>
    </defs>
    <g clip-path="url(#pe5e9640568)">
     <use style="fill:#0000ff;stroke:#0000ff;" x="73.832727" xlink:href="#mf3325287f7" y="284.628691"/>
     <use style="fill:#0000ff;stroke:#0000ff;" x="106.298182" xlink:href="#mf3325287f7" y="292.134775"/>
     <use style="fill:#0000ff;stroke:#0000ff;" x="138.763636" xlink:href="#mf3325287f7" y="283.143943"/>
     <use style="fill:#0000ff;stroke:#0000ff;" x="171.229091" xlink:href="#mf3325287f7" y="271.445851"/>
     <use style="fill:#0000ff;stroke:#0000ff;" x="203.694545" xlink:href="#mf3325287f7" y="261.949034"/>
     <use style="fill:#0000ff;stroke:#0000ff;" x="236.16" xlink:href="#mf3325287f7" y="249.491455"/>
     <use style="fill:#0000ff;stroke:#0000ff;" x="268.625455" xlink:href="#mf3325287f7" y="245.295429"/>
     <use style="fill:#0000ff;stroke:#0000ff;" x="301.090909" xlink:href="#mf3325287f7" y="256.245341"/>
     <use style="fill:#0000ff;stroke:#0000ff;" x="333.556364" xlink:href="#mf3325287f7" y="248.860346"/>
     <use style="fill:#0000ff;stroke:#0000ff;" x="366.021818" xlink:href="#mf3325287f7" y="192.419031"/>
     <use style="fill:#0000ff;stroke:#0000ff;" x="398.487273" xlink:href="#mf3325287f7" y="138.399666"/>
    </g>
   </g>
   <g id="PathCollection_2">
    <defs>
     <path d="M 0 3 
C 0.795609 3 1.55874 2.683901 2.12132 2.12132 
C 2.683901 1.55874 3 0.795609 3 0 
C 3 -0.795609 2.683901 -1.55874 2.12132 -2.12132 
C 1.55874 -2.683901 0.795609 -3 0 -3 
C -0.795609 -3 -1.55874 -2.683901 -2.12132 -2.12132 
C -2.683901 -1.55874 -3 -0.795609 -3 0 
C -3 0.795609 -2.683901 1.55874 -2.12132 2.12132 
C -1.55874 2.683901 -0.795609 3 0 3 
z
" id="m9c3ec9d61c" style="stroke:#ffa500;"/>
    </defs>
    <g clip-path="url(#pe5e9640568)">
     <use style="fill:#ffa500;stroke:#ffa500;" x="73.832727" xlink:href="#m9c3ec9d61c" y="183.313989"/>
     <use style="fill:#ffa500;stroke:#ffa500;" x="203.694545" xlink:href="#m9c3ec9d61c" y="209.280421"/>
     <use style="fill:#ffa500;stroke:#ffa500;" x="268.625455" xlink:href="#m9c3ec9d61c" y="211.636086"/>
     <use style="fill:#ffa500;stroke:#ffa500;" x="333.556364" xlink:href="#m9c3ec9d61c" y="254.428794"/>
     <use style="fill:#ffa500;stroke:#ffa500;" x="398.487273" xlink:href="#m9c3ec9d61c" y="69.170308"/>
    </g>
   </g>
   <g id="matplotlib.axis_1">
    <g id="xtick_1">
     <g id="line2d_1">
      <path clip-path="url(#pe5e9640568)" d="M 73.832727 307.584 
L 73.832727 41.472 
" style="fill:none;stroke:#b0b0b0;stroke-linecap:square;stroke-width:0.8;"/>
     </g>
     <g id="line2d_2">
      <defs>
       <path d="M 0 0 
L 0 3.5 
" id="mc0bcd2c3a5" style="stroke:#000000;stroke-width:0.8;"/>
      </defs>
      <g>
       <use style="stroke:#000000;stroke-width:0.8;" x="73.832727" xlink:href="#mc0bcd2c3a5" y="307.584"/>
      </g>
     </g>
     <g id="text_1">
      <!-- 0.0 -->
      <g transform="translate(65.881165 322.182437)scale(0.1 -0.1)">
       <defs>
        <path d="M 31.78125 66.40625 
Q 24.171875 66.40625 20.328125 58.90625 
Q 16.5 51.421875 16.5 36.375 
Q 16.5 21.390625 20.328125 13.890625 
Q 24.171875 6.390625 31.78125 6.390625 
Q 39.453125 6.390625 43.28125 13.890625 
Q 47.125 21.390625 47.125 36.375 
Q 47.125 51.421875 43.28125 58.90625 
Q 39.453125 66.40625 31.78125 66.40625 
z
M 31.78125 74.21875 
Q 44.046875 74.21875 50.515625 64.515625 
Q 56.984375 54.828125 56.984375 36.375 
Q 56.984375 17.96875 50.515625 8.265625 
Q 44.046875 -1.421875 31.78125 -1.421875 
Q 19.53125 -1.421875 13.0625 8.265625 
Q 6.59375 17.96875 6.59375 36.375 
Q 6.59375 54.828125 13.0625 64.515625 
Q 19.53125 74.21875 31.78125 74.21875 
z
" id="DejaVuSans-48"/>
        <path d="M 10.6875 12.40625 
L 21 12.40625 
L 21 0 
L 10.6875 0 
z
" id="DejaVuSans-46"/>
       </defs>
       <use xlink:href="#DejaVuSans-48"/>
       <use x="63.623047" xlink:href="#DejaVuSans-46"/>
       <use x="95.410156" xlink:href="#DejaVuSans-48"/>
      </g>
     </g>
    </g>
    <g id="xtick_2">
     <g id="line2d_3">
      <path clip-path="url(#pe5e9640568)" d="M 138.763636 307.584 
L 138.763636 41.472 
" style="fill:none;stroke:#b0b0b0;stroke-linecap:square;stroke-width:0.8;"/>
     </g>
     <g id="line2d_4">
      <g>
       <use style="stroke:#000000;stroke-width:0.8;" x="138.763636" xlink:href="#mc0bcd2c3a5" y="307.584"/>
      </g>
     </g>
     <g id="text_2">
      <!-- 0.2 -->
      <g transform="translate(130.812074 322.182437)scale(0.1 -0.1)">
       <defs>
        <path d="M 19.1875 8.296875 
L 53.609375 8.296875 
L 53.609375 0 
L 7.328125 0 
L 7.328125 8.296875 
Q 12.9375 14.109375 22.625 23.890625 
Q 32.328125 33.6875 34.8125 36.53125 
Q 39.546875 41.84375 41.421875 45.53125 
Q 43.3125 49.21875 43.3125 52.78125 
Q 43.3125 58.59375 39.234375 62.25 
Q 35.15625 65.921875 28.609375 65.921875 
Q 23.96875 65.921875 18.8125 64.3125 
Q 13.671875 62.703125 7.8125 59.421875 
L 7.8125 69.390625 
Q 13.765625 71.78125 18.9375 73 
Q 24.125 74.21875 28.421875 74.21875 
Q 39.75 74.21875 46.484375 68.546875 
Q 53.21875 62.890625 53.21875 53.421875 
Q 53.21875 48.921875 51.53125 44.890625 
Q 49.859375 40.875 45.40625 35.40625 
Q 44.1875 33.984375 37.640625 27.21875 
Q 31.109375 20.453125 19.1875 8.296875 
z
" id="DejaVuSans-50"/>
       </defs>
       <use xlink:href="#DejaVuSans-48"/>
       <use x="63.623047" xlink:href="#DejaVuSans-46"/>
       <use x="95.410156" xlink:href="#DejaVuSans-50"/>
      </g>
     </g>
    </g>
    <g id="xtick_3">
     <g id="line2d_5">
      <path clip-path="url(#pe5e9640568)" d="M 203.694545 307.584 
L 203.694545 41.472 
" style="fill:none;stroke:#b0b0b0;stroke-linecap:square;stroke-width:0.8;"/>
     </g>
     <g id="line2d_6">
      <g>
       <use style="stroke:#000000;stroke-width:0.8;" x="203.694545" xlink:href="#mc0bcd2c3a5" y="307.584"/>
      </g>
     </g>
     <g id="text_3">
      <!-- 0.4 -->
      <g transform="translate(195.742983 322.182437)scale(0.1 -0.1)">
       <defs>
        <path d="M 37.796875 64.3125 
L 12.890625 25.390625 
L 37.796875 25.390625 
z
M 35.203125 72.90625 
L 47.609375 72.90625 
L 47.609375 25.390625 
L 58.015625 25.390625 
L 58.015625 17.1875 
L 47.609375 17.1875 
L 47.609375 0 
L 37.796875 0 
L 37.796875 17.1875 
L 4.890625 17.1875 
L 4.890625 26.703125 
z
" id="DejaVuSans-52"/>
       </defs>
       <use xlink:href="#DejaVuSans-48"/>
       <use x="63.623047" xlink:href="#DejaVuSans-46"/>
       <use x="95.410156" xlink:href="#DejaVuSans-52"/>
      </g>
     </g>
    </g>
    <g id="xtick_4">
     <g id="line2d_7">
      <path clip-path="url(#pe5e9640568)" d="M 268.625455 307.584 
L 268.625455 41.472 
" style="fill:none;stroke:#b0b0b0;stroke-linecap:square;stroke-width:0.8;"/>
     </g>
     <g id="line2d_8">
      <g>
       <use style="stroke:#000000;stroke-width:0.8;" x="268.625455" xlink:href="#mc0bcd2c3a5" y="307.584"/>
      </g>
     </g>
     <g id="text_4">
      <!-- 0.6 -->
      <g transform="translate(260.673892 322.182437)scale(0.1 -0.1)">
       <defs>
        <path d="M 33.015625 40.375 
Q 26.375 40.375 22.484375 35.828125 
Q 18.609375 31.296875 18.609375 23.390625 
Q 18.609375 15.53125 22.484375 10.953125 
Q 26.375 6.390625 33.015625 6.390625 
Q 39.65625 6.390625 43.53125 10.953125 
Q 47.40625 15.53125 47.40625 23.390625 
Q 47.40625 31.296875 43.53125 35.828125 
Q 39.65625 40.375 33.015625 40.375 
z
M 52.59375 71.296875 
L 52.59375 62.3125 
Q 48.875 64.0625 45.09375 64.984375 
Q 41.3125 65.921875 37.59375 65.921875 
Q 27.828125 65.921875 22.671875 59.328125 
Q 17.53125 52.734375 16.796875 39.40625 
Q 19.671875 43.65625 24.015625 45.921875 
Q 28.375 48.1875 33.59375 48.1875 
Q 44.578125 48.1875 50.953125 41.515625 
Q 57.328125 34.859375 57.328125 23.390625 
Q 57.328125 12.15625 50.6875 5.359375 
Q 44.046875 -1.421875 33.015625 -1.421875 
Q 20.359375 -1.421875 13.671875 8.265625 
Q 6.984375 17.96875 6.984375 36.375 
Q 6.984375 53.65625 15.1875 63.9375 
Q 23.390625 74.21875 37.203125 74.21875 
Q 40.921875 74.21875 44.703125 73.484375 
Q 48.484375 72.75 52.59375 71.296875 
z
" id="DejaVuSans-54"/>
       </defs>
       <use xlink:href="#DejaVuSans-48"/>
       <use x="63.623047" xlink:href="#DejaVuSans-46"/>
       <use x="95.410156" xlink:href="#DejaVuSans-54"/>
      </g>
     </g>
    </g>
    <g id="xtick_5">
     <g id="line2d_9">
      <path clip-path="url(#pe5e9640568)" d="M 333.556364 307.584 
L 333.556364 41.472 
" style="fill:none;stroke:#b0b0b0;stroke-linecap:square;stroke-width:0.8;"/>
     </g>
     <g id="line2d_10">
      <g>
       <use style="stroke:#000000;stroke-width:0.8;" x="333.556364" xlink:href="#mc0bcd2c3a5" y="307.584"/>
      </g>
     </g>
     <g id="text_5">
      <!-- 0.8 -->
      <g transform="translate(325.604801 322.182437)scale(0.1 -0.1)">
       <defs>
        <path d="M 31.78125 34.625 
Q 24.75 34.625 20.71875 30.859375 
Q 16.703125 27.09375 16.703125 20.515625 
Q 16.703125 13.921875 20.71875 10.15625 
Q 24.75 6.390625 31.78125 6.390625 
Q 38.8125 6.390625 42.859375 10.171875 
Q 46.921875 13.96875 46.921875 20.515625 
Q 46.921875 27.09375 42.890625 30.859375 
Q 38.875 34.625 31.78125 34.625 
z
M 21.921875 38.8125 
Q 15.578125 40.375 12.03125 44.71875 
Q 8.5 49.078125 8.5 55.328125 
Q 8.5 64.0625 14.71875 69.140625 
Q 20.953125 74.21875 31.78125 74.21875 
Q 42.671875 74.21875 48.875 69.140625 
Q 55.078125 64.0625 55.078125 55.328125 
Q 55.078125 49.078125 51.53125 44.71875 
Q 48 40.375 41.703125 38.8125 
Q 48.828125 37.15625 52.796875 32.3125 
Q 56.78125 27.484375 56.78125 20.515625 
Q 56.78125 9.90625 50.3125 4.234375 
Q 43.84375 -1.421875 31.78125 -1.421875 
Q 19.734375 -1.421875 13.25 4.234375 
Q 6.78125 9.90625 6.78125 20.515625 
Q 6.78125 27.484375 10.78125 32.3125 
Q 14.796875 37.15625 21.921875 38.8125 
z
M 18.3125 54.390625 
Q 18.3125 48.734375 21.84375 45.5625 
Q 25.390625 42.390625 31.78125 42.390625 
Q 38.140625 42.390625 41.71875 45.5625 
Q 45.3125 48.734375 45.3125 54.390625 
Q 45.3125 60.0625 41.71875 63.234375 
Q 38.140625 66.40625 31.78125 66.40625 
Q 25.390625 66.40625 21.84375 63.234375 
Q 18.3125 60.0625 18.3125 54.390625 
z
" id="DejaVuSans-56"/>
       </defs>
       <use xlink:href="#DejaVuSans-48"/>
       <use x="63.623047" xlink:href="#DejaVuSans-46"/>
       <use x="95.410156" xlink:href="#DejaVuSans-56"/>
      </g>
     </g>
    </g>
    <g id="xtick_6">
     <g id="line2d_11">
      <path clip-path="url(#pe5e9640568)" d="M 398.487273 307.584 
L 398.487273 41.472 
" style="fill:none;stroke:#b0b0b0;stroke-linecap:square;stroke-width:0.8;"/>
     </g>
     <g id="line2d_12">
      <g>
       <use style="stroke:#000000;stroke-width:0.8;" x="398.487273" xlink:href="#mc0bcd2c3a5" y="307.584"/>
      </g>
     </g>
     <g id="text_6">
      <!-- 1.0 -->
      <g transform="translate(390.53571 322.182437)scale(0.1 -0.1)">
       <defs>
        <path d="M 12.40625 8.296875 
L 28.515625 8.296875 
L 28.515625 63.921875 
L 10.984375 60.40625 
L 10.984375 69.390625 
L 28.421875 72.90625 
L 38.28125 72.90625 
L 38.28125 8.296875 
L 54.390625 8.296875 
L 54.390625 0 
L 12.40625 0 
z
" id="DejaVuSans-49"/>
       </defs>
       <use xlink:href="#DejaVuSans-49"/>
       <use x="63.623047" xlink:href="#DejaVuSans-46"/>
       <use x="95.410156" xlink:href="#DejaVuSans-48"/>
      </g>
     </g>
    </g>
   </g>
   <g id="matplotlib.axis_2">
    <g id="ytick_1">
     <g id="line2d_13">
      <path clip-path="url(#pe5e9640568)" d="M 57.6 300.352497 
L 414.72 300.352497 
" style="fill:none;stroke:#b0b0b0;stroke-linecap:square;stroke-width:0.8;"/>
     </g>
     <g id="line2d_14">
      <defs>
       <path d="M 0 0 
L -3.5 0 
" id="m1d5be10ef9" style="stroke:#000000;stroke-width:0.8;"/>
      </defs>
      <g>
       <use style="stroke:#000000;stroke-width:0.8;" x="57.6" xlink:href="#m1d5be10ef9" y="300.352497"/>
      </g>
     </g>
     <g id="text_7">
      <!-- −10 -->
      <g transform="translate(29.495313 304.151715)scale(0.1 -0.1)">
       <defs>
        <path d="M 10.59375 35.5 
L 73.1875 35.5 
L 73.1875 27.203125 
L 10.59375 27.203125 
z
" id="DejaVuSans-8722"/>
       </defs>
       <use xlink:href="#DejaVuSans-8722"/>
       <use x="83.789062" xlink:href="#DejaVuSans-49"/>
       <use x="147.412109" xlink:href="#DejaVuSans-48"/>
      </g>
     </g>
    </g>
    <g id="ytick_2">
     <g id="line2d_15">
      <path clip-path="url(#pe5e9640568)" d="M 57.6 255.773904 
L 414.72 255.773904 
" style="fill:none;stroke:#b0b0b0;stroke-linecap:square;stroke-width:0.8;"/>
     </g>
     <g id="line2d_16">
      <g>
       <use style="stroke:#000000;stroke-width:0.8;" x="57.6" xlink:href="#m1d5be10ef9" y="255.773904"/>
      </g>
     </g>
     <g id="text_8">
      <!-- −5 -->
      <g transform="translate(35.857813 259.573123)scale(0.1 -0.1)">
       <defs>
        <path d="M 10.796875 72.90625 
L 49.515625 72.90625 
L 49.515625 64.59375 
L 19.828125 64.59375 
L 19.828125 46.734375 
Q 21.96875 47.46875 24.109375 47.828125 
Q 26.265625 48.1875 28.421875 48.1875 
Q 40.625 48.1875 47.75 41.5 
Q 54.890625 34.8125 54.890625 23.390625 
Q 54.890625 11.625 47.5625 5.09375 
Q 40.234375 -1.421875 26.90625 -1.421875 
Q 22.3125 -1.421875 17.546875 -0.640625 
Q 12.796875 0.140625 7.71875 1.703125 
L 7.71875 11.625 
Q 12.109375 9.234375 16.796875 8.0625 
Q 21.484375 6.890625 26.703125 6.890625 
Q 35.15625 6.890625 40.078125 11.328125 
Q 45.015625 15.765625 45.015625 23.390625 
Q 45.015625 31 40.078125 35.4375 
Q 35.15625 39.890625 26.703125 39.890625 
Q 22.75 39.890625 18.8125 39.015625 
Q 14.890625 38.140625 10.796875 36.28125 
z
" id="DejaVuSans-53"/>
       </defs>
       <use xlink:href="#DejaVuSans-8722"/>
       <use x="83.789062" xlink:href="#DejaVuSans-53"/>
      </g>
     </g>
    </g>
    <g id="ytick_3">
     <g id="line2d_17">
      <path clip-path="url(#pe5e9640568)" d="M 57.6 211.195312 
L 414.72 211.195312 
" style="fill:none;stroke:#b0b0b0;stroke-linecap:square;stroke-width:0.8;"/>
     </g>
     <g id="line2d_18">
      <g>
       <use style="stroke:#000000;stroke-width:0.8;" x="57.6" xlink:href="#m1d5be10ef9" y="211.195312"/>
      </g>
     </g>
     <g id="text_9">
      <!-- 0 -->
      <g transform="translate(44.2375 214.994531)scale(0.1 -0.1)">
       <use xlink:href="#DejaVuSans-48"/>
      </g>
     </g>
    </g>
    <g id="ytick_4">
     <g id="line2d_19">
      <path clip-path="url(#pe5e9640568)" d="M 57.6 166.61672 
L 414.72 166.61672 
" style="fill:none;stroke:#b0b0b0;stroke-linecap:square;stroke-width:0.8;"/>
     </g>
     <g id="line2d_20">
      <g>
       <use style="stroke:#000000;stroke-width:0.8;" x="57.6" xlink:href="#m1d5be10ef9" y="166.61672"/>
      </g>
     </g>
     <g id="text_10">
      <!-- 5 -->
      <g transform="translate(44.2375 170.415939)scale(0.1 -0.1)">
       <use xlink:href="#DejaVuSans-53"/>
      </g>
     </g>
    </g>
    <g id="ytick_5">
     <g id="line2d_21">
      <path clip-path="url(#pe5e9640568)" d="M 57.6 122.038128 
L 414.72 122.038128 
" style="fill:none;stroke:#b0b0b0;stroke-linecap:square;stroke-width:0.8;"/>
     </g>
     <g id="line2d_22">
      <g>
       <use style="stroke:#000000;stroke-width:0.8;" x="57.6" xlink:href="#m1d5be10ef9" y="122.038128"/>
      </g>
     </g>
     <g id="text_11">
      <!-- 10 -->
      <g transform="translate(37.875 125.837347)scale(0.1 -0.1)">
       <use xlink:href="#DejaVuSans-49"/>
       <use x="63.623047" xlink:href="#DejaVuSans-48"/>
      </g>
     </g>
    </g>
    <g id="ytick_6">
     <g id="line2d_23">
      <path clip-path="url(#pe5e9640568)" d="M 57.6 77.459536 
L 414.72 77.459536 
" style="fill:none;stroke:#b0b0b0;stroke-linecap:square;stroke-width:0.8;"/>
     </g>
     <g id="line2d_24">
      <g>
       <use style="stroke:#000000;stroke-width:0.8;" x="57.6" xlink:href="#m1d5be10ef9" y="77.459536"/>
      </g>
     </g>
     <g id="text_12">
      <!-- 15 -->
      <g transform="translate(37.875 81.258755)scale(0.1 -0.1)">
       <use xlink:href="#DejaVuSans-49"/>
       <use x="63.623047" xlink:href="#DejaVuSans-53"/>
      </g>
     </g>
    </g>
   </g>
   <g id="line2d_25">
    <path clip-path="url(#pe5e9640568)" d="M 73.832727 284.600347 
L 77.112066 286.239125 
L 80.391405 287.690159 
L 83.670744 288.944145 
L 86.950083 289.994064 
L 90.229421 290.835349 
L 93.50876 291.466009 
L 96.788099 291.886707 
L 100.067438 292.100779 
L 103.346777 292.114197 
L 106.626116 291.935475 
L 109.905455 291.575514 
L 113.184793 291.047387 
L 116.464132 290.366074 
L 119.743471 289.548142 
L 123.02281 288.611384 
L 126.302149 287.574419 
L 129.581488 286.456268 
L 132.860826 285.275912 
L 136.140165 284.051851 
L 139.419504 282.801663 
L 142.698843 281.541591 
L 145.978182 280.286164 
L 149.257521 279.047859 
L 152.53686 277.836828 
L 155.816198 276.660686 
L 159.095537 275.524383 
L 162.374876 274.430157 
L 165.654215 273.377572 
L 168.933554 272.363652 
L 172.212893 271.383097 
L 175.492231 270.428591 
L 178.77157 269.491179 
L 182.050909 268.560719 
L 185.330248 267.626383 
L 188.609587 266.677206 
L 191.888926 265.70265 
L 195.168264 264.693175 
L 198.447603 263.640795 
L 201.726942 262.539596 
L 205.006281 261.386202 
L 208.28562 260.180163 
L 211.564959 258.924249 
L 214.844298 257.624637 
L 218.123636 256.290982 
L 221.402975 254.936353 
L 224.682314 253.577038 
L 227.961653 252.232214 
L 231.240992 250.923485 
L 234.520331 249.674297 
L 237.799669 248.509252 
L 241.079008 247.453316 
L 244.358347 246.53097 
L 247.637686 245.765305 
L 250.917025 245.177109 
L 254.196364 244.783955 
L 257.475702 244.599336 
L 260.755041 244.631872 
L 264.03438 244.884612 
L 267.313719 245.354469 
L 270.593058 246.031808 
L 273.872397 246.900199 
L 277.151736 247.936364 
L 280.431074 249.11032 
L 283.710413 250.385723 
L 286.989752 251.720412 
L 290.269091 253.067142 
L 293.54843 254.374499 
L 296.827769 255.587964 
L 300.107107 256.651115 
L 303.386446 257.50692 
L 306.665785 258.099102 
L 309.945124 258.373531 
L 313.224463 258.279602 
L 316.503802 257.771571 
L 319.78314 256.809795 
L 323.062479 255.36186 
L 326.341818 253.403541 
L 329.621157 250.919594 
L 332.900496 247.904322 
L 336.179835 244.361937 
L 339.459174 240.30667 
L 342.738512 235.762656 
L 346.017851 230.763576 
L 349.29719 225.352076 
L 352.576529 219.578974 
L 355.855868 213.502283 
L 359.135207 207.186068 
L 362.414545 200.699179 
L 365.693884 194.113884 
L 368.973223 187.504443 
L 372.252562 180.945659 
L 375.531901 174.511442 
L 378.81124 168.273427 
L 382.090579 162.299666 
L 385.369917 156.65344 
L 388.649256 151.3922 
L 391.928595 146.566671 
L 395.207934 142.22013 
L 398.487273 138.387865 
" style="fill:none;stroke:#0000ff;stroke-linecap:square;stroke-width:1.5;"/>
   </g>
   <g id="line2d_26">
    <path clip-path="url(#pe5e9640568)" d="M 73.832727 281.090409 
L 77.112066 283.014606 
L 80.391405 284.537962 
L 83.670744 285.751116 
L 86.950083 286.718446 
L 90.229421 287.481493 
L 93.50876 288.063385 
L 96.788099 288.473737 
L 100.067438 288.713558 
L 103.346777 288.779743 
L 106.626116 288.668836 
L 109.905455 288.379853 
L 113.184793 287.916106 
L 116.464132 287.286023 
L 119.743471 286.503132 
L 123.02281 285.585351 
L 126.302149 284.553843 
L 129.581488 283.43163 
L 132.860826 282.242188 
L 136.140165 281.008176 
L 139.419504 279.750405 
L 142.698843 278.487107 
L 145.978182 277.233501 
L 149.257521 276.001627 
L 152.53686 274.800389 
L 155.816198 273.635731 
L 159.095537 272.510882 
L 162.374876 271.426625 
L 165.654215 270.381544 
L 168.933554 269.372241 
L 172.212893 268.393533 
L 175.492231 267.438648 
L 178.77157 266.499435 
L 182.050909 265.566637 
L 185.330248 264.630229 
L 188.609587 263.679834 
L 191.888926 262.70523 
L 195.168264 261.696902 
L 198.447603 260.646646 
L 201.726942 259.548157 
L 205.006281 258.397599 
L 208.28562 257.194077 
L 211.564959 255.940023 
L 214.844298 254.641424 
L 218.123636 253.307921 
L 221.402975 251.952723 
L 224.682314 250.592379 
L 227.961653 249.246387 
L 231.240992 247.936666 
L 234.520331 246.686914 
L 237.799669 245.521869 
L 241.079008 244.466498 
L 244.358347 243.545143 
L 247.637686 242.780646 
L 250.917025 242.193479 
L 254.196364 241.800894 
L 257.475702 241.616124 
L 260.755041 241.647646 
L 264.03438 241.898526 
L 267.313719 242.365866 
L 270.593058 243.04037 
L 273.872397 243.906049 
L 277.151736 244.940091 
L 280.431074 246.112899 
L 283.710413 247.388351 
L 286.989752 248.724258 
L 290.269091 250.073061 
L 293.54843 251.382754 
L 296.827769 252.59802 
L 300.107107 253.661551 
L 303.386446 254.515508 
L 306.665785 255.103074 
L 309.945124 255.369999 
L 313.224463 255.266101 
L 316.503802 254.746616 
L 319.78314 253.773356 
L 323.062479 252.315627 
L 326.341818 250.350878 
L 329.621157 247.86511 
L 332.900496 244.853065 
L 336.179835 241.318261 
L 339.459174 237.272945 
L 342.738512 232.738018 
L 346.017851 227.743 
L 349.29719 222.326043 
L 352.576529 216.533964 
L 355.855868 210.422232 
L 359.135207 204.054787 
L 362.414545 197.503519 
L 365.693884 190.847245 
L 368.973223 184.169989 
L 372.252562 177.558438 
L 375.531901 171.098472 
L 378.81124 164.870803 
L 382.090579 158.94581 
L 385.369917 153.377822 
L 388.649256 148.199171 
L 391.928595 143.414474 
L 395.207934 138.995611 
L 398.487273 134.877927 
" style="fill:none;stroke:#000000;stroke-linecap:square;stroke-width:0.5;"/>
   </g>
   <g id="line2d_27">
    <path clip-path="url(#pe5e9640568)" d="M 73.832727 288.110285 
L 77.112066 289.463644 
L 80.391405 290.842355 
L 83.670744 292.137174 
L 86.950083 293.269683 
L 90.229421 294.189205 
L 93.50876 294.868633 
L 96.788099 295.299677 
L 100.067438 295.488 
L 103.346777 295.448651 
L 106.626116 295.202115 
L 109.905455 294.771174 
L 113.184793 294.178668 
L 116.464132 293.446124 
L 119.743471 292.593152 
L 123.02281 291.637417 
L 126.302149 290.594995 
L 129.581488 289.480906 
L 132.860826 288.309637 
L 136.140165 287.095526 
L 139.419504 285.85292 
L 142.698843 284.596075 
L 145.978182 283.338827 
L 149.257521 282.094092 
L 152.53686 280.873266 
L 155.816198 279.68564 
L 159.095537 278.537884 
L 162.374876 277.433688 
L 165.654215 276.3736 
L 168.933554 275.355063 
L 172.212893 274.372662 
L 175.492231 273.418535 
L 178.77157 272.482924 
L 182.050909 271.5548 
L 185.330248 270.622537 
L 188.609587 269.674578 
L 191.888926 268.700071 
L 195.168264 267.689448 
L 198.447603 266.634944 
L 201.726942 265.531034 
L 205.006281 264.374806 
L 208.28562 263.166249 
L 211.564959 261.908475 
L 214.844298 260.607849 
L 218.123636 259.274043 
L 221.402975 257.919983 
L 224.682314 256.561697 
L 227.961653 255.218041 
L 231.240992 253.910303 
L 234.520331 252.66168 
L 237.799669 251.496635 
L 241.079008 250.440135 
L 244.358347 249.516796 
L 247.637686 248.749964 
L 250.917025 248.160739 
L 254.196364 247.767016 
L 257.475702 247.582549 
L 260.755041 247.616098 
L 264.03438 247.870698 
L 267.313719 248.343073 
L 270.593058 249.023247 
L 273.872397 249.894348 
L 277.151736 250.932637 
L 280.431074 252.10774 
L 283.710413 253.383095 
L 286.989752 254.716566 
L 290.269091 256.061223 
L 293.54843 257.366243 
L 296.827769 258.577908 
L 300.107107 259.640679 
L 303.386446 260.498331 
L 306.665785 261.09513 
L 309.945124 261.377062 
L 313.224463 261.293103 
L 316.503802 260.796525 
L 319.78314 259.846233 
L 323.062479 258.408092 
L 326.341818 256.456205 
L 329.621157 253.974078 
L 332.900496 250.95558 
L 336.179835 247.405612 
L 339.459174 243.340394 
L 342.738512 238.787294 
L 346.017851 233.784152 
L 349.29719 228.378109 
L 352.576529 222.623985 
L 355.855868 216.582333 
L 359.135207 210.317349 
L 362.414545 203.894839 
L 365.693884 197.380524 
L 368.973223 190.838897 
L 372.252562 184.33288 
L 375.531901 177.924412 
L 378.81124 171.67605 
L 382.090579 165.653522 
L 385.369917 159.929059 
L 388.649256 154.585229 
L 391.928595 149.718868 
L 395.207934 145.444649 
L 398.487273 141.897803 
" style="fill:none;stroke:#000000;stroke-linecap:square;stroke-width:0.5;"/>
   </g>
   <g id="line2d_28">
    <path clip-path="url(#pe5e9640568)" d="M 73.832727 183.314486 
L 77.112066 188.753477 
L 80.391405 193.787038 
L 83.670744 198.395833 
L 86.950083 202.565341 
L 90.229421 206.286217 
L 93.50876 209.554543 
L 96.788099 212.371999 
L 100.067438 214.745898 
L 103.346777 216.689113 
L 106.626116 218.219875 
L 109.905455 219.361448 
L 113.184793 220.141677 
L 116.464132 220.592429 
L 119.743471 220.748913 
L 123.02281 220.648925 
L 126.302149 220.332002 
L 129.581488 219.838529 
L 132.860826 219.208808 
L 136.140165 218.482124 
L 139.419504 217.695821 
L 142.698843 216.88443 
L 145.978182 216.078863 
L 149.257521 215.305711 
L 152.53686 214.586657 
L 155.816198 213.938042 
L 159.095537 213.370587 
L 162.374876 212.889291 
L 165.654215 212.49352 
L 168.933554 212.177282 
L 172.212893 211.929687 
L 175.492231 211.735592 
L 178.77157 211.576401 
L 182.050909 211.431014 
L 185.330248 211.276889 
L 188.609587 211.09119 
L 191.888926 210.851981 
L 195.168264 210.539435 
L 198.447603 210.136994 
L 201.726942 209.632479 
L 205.006281 209.019053 
L 208.28562 208.29605 
L 211.564959 207.469594 
L 214.844298 206.552993 
L 218.123636 205.566888 
L 221.402975 204.539116 
L 224.682314 203.504301 
L 227.961653 202.503157 
L 231.240992 201.581517 
L 234.520331 200.7891 
L 237.799669 200.178055 
L 241.079008 199.801304 
L 244.358347 199.710743 
L 247.637686 199.955343 
L 250.917025 200.579214 
L 254.196364 201.619688 
L 257.475702 203.105499 
L 260.755041 205.055101 
L 264.03438 207.475205 
L 267.313719 210.35959 
L 270.593058 213.688221 
L 273.872397 217.426741 
L 277.151736 221.526358 
L 280.431074 225.924138 
L 283.710413 230.543739 
L 286.989752 235.296551 
L 290.269091 240.083251 
L 293.54843 244.795721 
L 296.827769 249.3193 
L 300.107107 253.535311 
L 303.386446 257.323794 
L 306.665785 260.56638 
L 309.945124 263.149225 
L 313.224463 264.965919 
L 316.503802 265.920297 
L 319.78314 265.929062 
L 323.062479 264.924152 
L 326.341818 262.854779 
L 329.621157 259.689077 
L 332.900496 255.41532 
L 336.179835 250.042665 
L 339.459174 243.601399 
L 342.738512 236.142686 
L 346.017851 227.737818 
L 349.29719 218.476985 
L 352.576529 208.467608 
L 355.855868 197.832278 
L 359.135207 186.706346 
L 362.414545 175.235251 
L 365.693884 163.571635 
L 368.973223 151.872342 
L 372.252562 140.295361 
L 375.531901 128.996798 
L 378.81124 118.12796 
L 382.090579 107.832606 
L 385.369917 98.244426 
L 388.649256 89.484824 
L 391.928595 81.661024 
L 395.207934 74.864545 
L 398.487273 69.170062 
" style="fill:none;stroke:#ffa500;stroke-linecap:square;stroke-width:1.5;"/>
   </g>
   <g id="line2d_29">
    <path clip-path="url(#pe5e9640568)" d="M 73.832727 167.712425 
L 77.112066 174.420135 
L 80.391405 179.775176 
L 83.670744 184.202467 
L 86.950083 188.004856 
L 90.229421 191.377958 
L 93.50876 194.429506 
L 96.788099 197.200972 
L 100.067438 199.689327 
L 103.346777 201.867097 
L 106.626116 203.6993 
L 109.905455 205.156385 
L 113.184793 206.222788 
L 116.464132 206.901264 
L 119.743471 207.213506 
L 123.02281 207.197875 
L 126.302149 206.905208 
L 129.581488 206.393679 
L 132.860826 205.723568 
L 136.140165 204.952651 
L 139.419504 204.132644 
L 142.698843 203.306911 
L 145.978182 202.509437 
L 149.257521 201.764872 
L 152.53686 201.089353 
L 155.816198 200.491785 
L 159.095537 199.975243 
L 162.374876 199.538262 
L 165.654215 199.175845 
L 168.933554 198.880129 
L 172.212893 198.640744 
L 175.492231 198.444962 
L 178.77157 198.277767 
L 182.050909 198.121992 
L 185.330248 197.958653 
L 188.609587 197.767541 
L 191.888926 197.528117 
L 195.168264 197.220671 
L 198.447603 196.82767 
L 201.726942 196.335204 
L 205.006281 195.734379 
L 208.28562 195.022568 
L 211.564959 194.204379 
L 214.844298 193.292285 
L 218.123636 192.306854 
L 221.402975 191.276552 
L 224.682314 190.237164 
L 227.961653 189.230827 
L 231.240992 188.30478 
L 234.520331 187.509853 
L 237.799669 186.898808 
L 241.079008 186.524567 
L 244.358347 186.438413 
L 247.637686 186.688206 
L 250.917025 187.31665 
L 254.196364 188.359653 
L 257.475702 189.844791 
L 260.755041 191.789886 
L 264.03438 194.201723 
L 267.313719 197.074917 
L 270.593058 200.390946 
L 273.872397 204.117418 
L 277.151736 208.207594 
L 280.431074 212.600273 
L 283.710413 217.22009 
L 286.989752 221.978315 
L 290.269091 226.774229 
L 293.54843 231.497087 
L 296.827769 236.02867 
L 300.107107 240.246368 
L 303.386446 244.026641 
L 306.665785 247.248705 
L 309.945124 249.798196 
L 313.224463 251.570575 
L 316.503802 252.47404 
L 319.78314 252.431758 
L 323.062479 251.383313 
L 326.341818 249.285354 
L 329.621157 246.111558 
L 332.900496 241.852143 
L 336.179835 236.513192 
L 339.459174 230.116159 
L 342.738512 222.697836 
L 346.017851 214.311025 
L 349.29719 205.025934 
L 352.576529 194.932201 
L 355.855868 184.141114 
L 359.135207 172.787457 
L 362.414545 161.030188 
L 365.693884 149.051061 
L 368.973223 137.050327 
L 372.252562 125.23879 
L 375.531901 113.82577 
L 378.81124 103.002923 
L 382.090579 92.924347 
L 385.369917 83.68394 
L 388.649256 75.291459 
L 391.928595 67.649162 
L 395.207934 60.531203 
L 398.487273 53.568 
" style="fill:none;stroke:#000000;stroke-linecap:square;stroke-width:0.5;"/>
   </g>
   <g id="line2d_30">
    <path clip-path="url(#pe5e9640568)" d="M 73.832727 198.916548 
L 77.112066 203.08682 
L 80.391405 207.7989 
L 83.670744 212.589198 
L 86.950083 217.125827 
L 90.229421 221.194475 
L 93.50876 224.679581 
L 96.788099 227.543027 
L 100.067438 229.802468 
L 103.346777 231.511128 
L 106.626116 232.740449 
L 109.905455 233.566511 
L 113.184793 234.060567 
L 116.464132 234.283593 
L 119.743471 234.284321 
L 123.02281 234.099976 
L 126.302149 233.758796 
L 129.581488 233.283379 
L 132.860826 232.694048 
L 136.140165 232.011597 
L 139.419504 231.258998 
L 142.698843 230.461949 
L 145.978182 229.648289 
L 149.257521 228.84655 
L 152.53686 228.083961 
L 155.816198 227.3843 
L 159.095537 226.765931 
L 162.374876 226.24032 
L 165.654215 225.811195 
L 168.933554 225.474434 
L 172.212893 225.21863 
L 175.492231 225.026221 
L 178.77157 224.875035 
L 182.050909 224.740036 
L 185.330248 224.595125 
L 188.609587 224.414839 
L 191.888926 224.175846 
L 195.168264 223.858199 
L 198.447603 223.446318 
L 201.726942 222.929753 
L 205.006281 222.303726 
L 208.28562 221.569531 
L 211.564959 220.734808 
L 214.844298 219.813701 
L 218.123636 218.826923 
L 221.402975 217.80168 
L 224.682314 216.771439 
L 227.961653 215.775487 
L 231.240992 214.858254 
L 234.520331 214.068347 
L 237.799669 213.457302 
L 241.079008 213.078041 
L 244.358347 212.983073 
L 247.637686 213.222481 
L 250.917025 213.841778 
L 254.196364 214.879723 
L 257.475702 216.366207 
L 260.755041 218.320315 
L 264.03438 220.748687 
L 267.313719 223.644263 
L 270.593058 226.985495 
L 273.872397 230.736065 
L 277.151736 234.845121 
L 280.431074 239.248002 
L 283.710413 243.867388 
L 286.989752 248.614787 
L 290.269091 253.392273 
L 293.54843 258.094355 
L 296.827769 262.609929 
L 300.107107 266.824253 
L 303.386446 270.620946 
L 306.665785 273.884055 
L 309.945124 276.500253 
L 313.224463 278.361263 
L 316.503802 279.366555 
L 319.78314 279.426366 
L 323.062479 278.464991 
L 326.341818 276.424205 
L 329.621157 273.266596 
L 332.900496 268.978497 
L 336.179835 263.572137 
L 339.459174 257.086639 
L 342.738512 249.587535 
L 346.017851 241.164612 
L 349.29719 231.928035 
L 352.576529 222.003015 
L 355.855868 211.523443 
L 359.135207 200.625236 
L 362.414545 189.440313 
L 365.693884 178.092209 
L 368.973223 166.694358 
L 372.252562 155.351931 
L 375.531901 144.167825 
L 378.81124 133.252998 
L 382.090579 122.740865 
L 385.369917 112.804911 
L 388.649256 103.67819 
L 391.928595 95.672886 
L 395.207934 89.197888 
L 398.487273 84.772123 
" style="fill:none;stroke:#000000;stroke-linecap:square;stroke-width:0.5;"/>
   </g>
   <g id="line2d_31">
    <path clip-path="url(#pe5e9640568)" d="M 73.832727 284.628691 
L 77.112066 285.951898 
L 80.391405 287.231023 
L 83.670744 288.424393 
L 86.950083 289.495917 
L 90.229421 290.415493 
L 93.50876 291.159263 
L 96.788099 291.709694 
L 100.067438 292.055516 
L 103.346777 292.191506 
L 106.626116 292.118142 
L 109.905455 291.841137 
L 113.184793 291.37087 
L 116.464132 290.721737 
L 119.743471 289.911437 
L 123.02281 288.960209 
L 126.302149 287.890059 
L 129.581488 286.72398 
L 132.860826 285.48519 
L 136.140165 284.196411 
L 139.419504 282.87921 
L 142.698843 281.553398 
L 145.978182 280.236531 
L 149.257521 278.943495 
L 152.53686 277.686199 
L 155.816198 276.473382 
L 159.095537 275.310523 
L 162.374876 274.199871 
L 165.654215 273.140575 
L 168.933554 272.128921 
L 172.212893 271.158653 
L 175.492231 270.221384 
L 178.77157 269.307063 
L 182.050909 268.404506 
L 185.330248 267.501948 
L 188.609587 266.587627 
L 191.888926 265.650358 
L 195.168264 264.68009 
L 198.447603 263.668436 
L 201.726942 262.60914 
L 205.006281 261.498488 
L 208.28562 260.335629 
L 211.564959 259.122812 
L 214.844298 257.865516 
L 218.123636 256.57248 
L 221.402975 255.255613 
L 224.682314 253.929801 
L 227.961653 252.6126 
L 231.240992 251.323821 
L 234.520331 250.085031 
L 237.799669 248.918952 
L 241.079008 247.848802 
L 244.358347 246.897574 
L 247.637686 246.087274 
L 250.917025 245.438141 
L 254.196364 244.967874 
L 257.475702 244.690869 
L 260.755041 244.617505 
L 264.03438 244.753495 
L 267.313719 245.099317 
L 270.593058 245.649748 
L 273.872397 246.393518 
L 277.151736 247.313094 
L 280.431074 248.384618 
L 283.710413 249.577988 
L 286.989752 250.857113 
L 290.269091 252.18032 
L 293.54843 253.500926 
L 296.827769 254.767971 
L 300.107107 255.927091 
L 303.386446 256.921533 
L 306.665785 257.69328 
L 309.945124 258.184285 
L 313.224463 258.33777 
L 316.503802 258.099589 
L 319.78314 257.419602 
L 323.062479 256.253052 
L 326.341818 254.561902 
L 329.621157 252.316109 
L 332.900496 249.494799 
L 336.179835 246.087313 
L 339.459174 242.094103 
L 342.738512 237.527444 
L 346.017851 232.411937 
L 349.29719 226.784796 
L 352.576529 220.695876 
L 355.855868 214.20747 
L 359.135207 207.393816 
L 362.414545 200.340364 
L 365.693884 193.142762 
L 368.973223 185.905597 
L 372.252562 178.740888 
L 375.531901 171.766363 
L 378.81124 165.103529 
L 382.090579 158.875575 
L 385.369917 153.205136 
L 388.649256 148.211956 
L 391.928595 144.010495 
L 395.207934 140.707509 
L 398.487273 138.399666 
" style="fill:none;stroke:#0000ff;stroke-dasharray:5.55,2.4;stroke-dashoffset:0;stroke-width:1.5;"/>
   </g>
   <g id="line2d_32">
    <path clip-path="url(#pe5e9640568)" d="M 73.832727 183.313989 
L 77.112066 187.761557 
L 80.391405 192.120963 
L 83.670744 196.308859 
L 86.950083 200.253062 
L 90.229421 203.893369 
L 93.50876 207.182064 
L 96.788099 210.084081 
L 100.067438 212.576881 
L 103.346777 214.650016 
L 106.626116 216.304443 
L 109.905455 217.551587 
L 113.184793 218.412209 
L 116.464132 218.9151 
L 119.743471 219.095653 
L 123.02281 218.994352 
L 126.302149 218.655208 
L 129.581488 218.124205 
L 132.860826 217.44778 
L 136.140165 216.671379 
L 139.419504 215.838131 
L 142.698843 214.987663 
L 145.978182 214.155085 
L 149.257521 213.370167 
L 152.53686 212.656731 
L 155.816198 212.032251 
L 159.095537 211.507688 
L 162.374876 211.087539 
L 165.654215 210.770104 
L 168.933554 210.547951 
L 172.212893 210.40857 
L 175.492231 210.335186 
L 178.77157 210.3077 
L 182.050909 210.30374 
L 185.330248 210.299781 
L 188.609587 210.272295 
L 191.888926 210.198911 
L 195.168264 210.05953 
L 198.447603 209.837377 
L 201.726942 209.519941 
L 205.006281 209.099793 
L 208.28562 208.57523 
L 211.564959 207.95075 
L 214.844298 207.237314 
L 218.123636 206.452396 
L 221.402975 205.619818 
L 224.682314 204.76935 
L 227.961653 203.936102 
L 231.240992 203.159701 
L 234.520331 202.483275 
L 237.799669 201.952273 
L 241.079008 201.613129 
L 244.358347 201.511827 
L 247.637686 201.692381 
L 250.917025 202.195272 
L 254.196364 203.055893 
L 257.475702 204.303038 
L 260.755041 205.957464 
L 264.03438 208.0306 
L 267.313719 210.523399 
L 270.593058 213.425417 
L 273.872397 216.714111 
L 277.151736 220.354419 
L 280.431074 224.298622 
L 283.710413 228.486518 
L 286.989752 232.845924 
L 290.269091 237.293492 
L 293.54843 241.73586 
L 296.827769 246.071105 
L 300.107107 250.190501 
L 303.386446 253.980539 
L 306.665785 257.325189 
L 309.945124 260.108353 
L 313.224463 262.216479 
L 316.503802 263.541273 
L 319.78314 263.982454 
L 323.062479 263.450509 
L 326.341818 261.869364 
L 329.621157 259.178934 
L 332.900496 255.337468 
L 336.179835 250.323651 
L 339.459174 244.138387 
L 342.738512 236.806223 
L 346.017851 228.376366 
L 349.29719 218.923238 
L 352.576529 208.546555 
L 355.855868 197.370896 
L 359.135207 185.544744 
L 362.414545 173.238996 
L 365.693884 160.644947 
L 368.973223 147.971772 
L 372.252562 135.44351 
L 375.531901 123.295615 
L 378.81124 111.771102 
L 382.090579 101.116349 
L 385.369917 91.576625 
L 388.649256 83.391422 
L 391.928595 76.789656 
L 395.207934 71.984838 
L 398.487273 69.170308 
" style="fill:none;stroke:#ffa500;stroke-dasharray:5.55,2.4;stroke-dashoffset:0;stroke-width:1.5;"/>
   </g>
   <g id="patch_3">
    <path d="M 57.6 307.584 
L 57.6 41.472 
" style="fill:none;stroke:#000000;stroke-linecap:square;stroke-linejoin:miter;stroke-width:0.8;"/>
   </g>
   <g id="patch_4">
    <path d="M 414.72 307.584 
L 414.72 41.472 
" style="fill:none;stroke:#000000;stroke-linecap:square;stroke-linejoin:miter;stroke-width:0.8;"/>
   </g>
   <g id="patch_5">
    <path d="M 57.6 307.584 
L 414.72 307.584 
" style="fill:none;stroke:#000000;stroke-linecap:square;stroke-linejoin:miter;stroke-width:0.8;"/>
   </g>
   <g id="patch_6">
    <path d="M 57.6 41.472 
L 414.72 41.472 
" style="fill:none;stroke:#000000;stroke-linecap:square;stroke-linejoin:miter;stroke-width:0.8;"/>
   </g>
   <g id="legend_1">
    <g id="patch_7">
     <path d="M 64.6 108.1845 
L 239.15625 108.1845 
Q 241.15625 108.1845 241.15625 106.1845 
L 241.15625 48.472 
Q 241.15625 46.472 239.15625 46.472 
L 64.6 46.472 
Q 62.6 46.472 62.6 48.472 
L 62.6 106.1845 
Q 62.6 108.1845 64.6 108.1845 
z
" style="fill:#ffffff;opacity:0.8;stroke:#cccccc;stroke-linejoin:miter;"/>
    </g>
    <g id="line2d_33">
     <path d="M 66.6 54.570438 
L 86.6 54.570438 
" style="fill:none;stroke:#0000ff;stroke-linecap:square;stroke-width:1.5;"/>
    </g>
    <g id="line2d_34"/>
    <g id="text_13">
     <!-- MF cheap GPR (regular GPR) -->
     <g transform="translate(94.6 58.070438)scale(0.1 -0.1)">
      <defs>
       <path d="M 9.8125 72.90625 
L 24.515625 72.90625 
L 43.109375 23.296875 
L 61.8125 72.90625 
L 76.515625 72.90625 
L 76.515625 0 
L 66.890625 0 
L 66.890625 64.015625 
L 48.09375 14.015625 
L 38.1875 14.015625 
L 19.390625 64.015625 
L 19.390625 0 
L 9.8125 0 
z
" id="DejaVuSans-77"/>
       <path d="M 9.8125 72.90625 
L 51.703125 72.90625 
L 51.703125 64.59375 
L 19.671875 64.59375 
L 19.671875 43.109375 
L 48.578125 43.109375 
L 48.578125 34.8125 
L 19.671875 34.8125 
L 19.671875 0 
L 9.8125 0 
z
" id="DejaVuSans-70"/>
       <path id="DejaVuSans-32"/>
       <path d="M 48.78125 52.59375 
L 48.78125 44.1875 
Q 44.96875 46.296875 41.140625 47.34375 
Q 37.3125 48.390625 33.40625 48.390625 
Q 24.65625 48.390625 19.8125 42.84375 
Q 14.984375 37.3125 14.984375 27.296875 
Q 14.984375 17.28125 19.8125 11.734375 
Q 24.65625 6.203125 33.40625 6.203125 
Q 37.3125 6.203125 41.140625 7.25 
Q 44.96875 8.296875 48.78125 10.40625 
L 48.78125 2.09375 
Q 45.015625 0.34375 40.984375 -0.53125 
Q 36.96875 -1.421875 32.421875 -1.421875 
Q 20.0625 -1.421875 12.78125 6.34375 
Q 5.515625 14.109375 5.515625 27.296875 
Q 5.515625 40.671875 12.859375 48.328125 
Q 20.21875 56 33.015625 56 
Q 37.15625 56 41.109375 55.140625 
Q 45.0625 54.296875 48.78125 52.59375 
z
" id="DejaVuSans-99"/>
       <path d="M 54.890625 33.015625 
L 54.890625 0 
L 45.90625 0 
L 45.90625 32.71875 
Q 45.90625 40.484375 42.875 44.328125 
Q 39.84375 48.1875 33.796875 48.1875 
Q 26.515625 48.1875 22.3125 43.546875 
Q 18.109375 38.921875 18.109375 30.90625 
L 18.109375 0 
L 9.078125 0 
L 9.078125 75.984375 
L 18.109375 75.984375 
L 18.109375 46.1875 
Q 21.34375 51.125 25.703125 53.5625 
Q 30.078125 56 35.796875 56 
Q 45.21875 56 50.046875 50.171875 
Q 54.890625 44.34375 54.890625 33.015625 
z
" id="DejaVuSans-104"/>
       <path d="M 56.203125 29.59375 
L 56.203125 25.203125 
L 14.890625 25.203125 
Q 15.484375 15.921875 20.484375 11.0625 
Q 25.484375 6.203125 34.421875 6.203125 
Q 39.59375 6.203125 44.453125 7.46875 
Q 49.3125 8.734375 54.109375 11.28125 
L 54.109375 2.78125 
Q 49.265625 0.734375 44.1875 -0.34375 
Q 39.109375 -1.421875 33.890625 -1.421875 
Q 20.796875 -1.421875 13.15625 6.1875 
Q 5.515625 13.8125 5.515625 26.8125 
Q 5.515625 40.234375 12.765625 48.109375 
Q 20.015625 56 32.328125 56 
Q 43.359375 56 49.78125 48.890625 
Q 56.203125 41.796875 56.203125 29.59375 
z
M 47.21875 32.234375 
Q 47.125 39.59375 43.09375 43.984375 
Q 39.0625 48.390625 32.421875 48.390625 
Q 24.90625 48.390625 20.390625 44.140625 
Q 15.875 39.890625 15.1875 32.171875 
z
" id="DejaVuSans-101"/>
       <path d="M 34.28125 27.484375 
Q 23.390625 27.484375 19.1875 25 
Q 14.984375 22.515625 14.984375 16.5 
Q 14.984375 11.71875 18.140625 8.90625 
Q 21.296875 6.109375 26.703125 6.109375 
Q 34.1875 6.109375 38.703125 11.40625 
Q 43.21875 16.703125 43.21875 25.484375 
L 43.21875 27.484375 
z
M 52.203125 31.203125 
L 52.203125 0 
L 43.21875 0 
L 43.21875 8.296875 
Q 40.140625 3.328125 35.546875 0.953125 
Q 30.953125 -1.421875 24.3125 -1.421875 
Q 15.921875 -1.421875 10.953125 3.296875 
Q 6 8.015625 6 15.921875 
Q 6 25.140625 12.171875 29.828125 
Q 18.359375 34.515625 30.609375 34.515625 
L 43.21875 34.515625 
L 43.21875 35.40625 
Q 43.21875 41.609375 39.140625 45 
Q 35.0625 48.390625 27.6875 48.390625 
Q 23 48.390625 18.546875 47.265625 
Q 14.109375 46.140625 10.015625 43.890625 
L 10.015625 52.203125 
Q 14.9375 54.109375 19.578125 55.046875 
Q 24.21875 56 28.609375 56 
Q 40.484375 56 46.34375 49.84375 
Q 52.203125 43.703125 52.203125 31.203125 
z
" id="DejaVuSans-97"/>
       <path d="M 18.109375 8.203125 
L 18.109375 -20.796875 
L 9.078125 -20.796875 
L 9.078125 54.6875 
L 18.109375 54.6875 
L 18.109375 46.390625 
Q 20.953125 51.265625 25.265625 53.625 
Q 29.59375 56 35.59375 56 
Q 45.5625 56 51.78125 48.09375 
Q 58.015625 40.1875 58.015625 27.296875 
Q 58.015625 14.40625 51.78125 6.484375 
Q 45.5625 -1.421875 35.59375 -1.421875 
Q 29.59375 -1.421875 25.265625 0.953125 
Q 20.953125 3.328125 18.109375 8.203125 
z
M 48.6875 27.296875 
Q 48.6875 37.203125 44.609375 42.84375 
Q 40.53125 48.484375 33.40625 48.484375 
Q 26.265625 48.484375 22.1875 42.84375 
Q 18.109375 37.203125 18.109375 27.296875 
Q 18.109375 17.390625 22.1875 11.75 
Q 26.265625 6.109375 33.40625 6.109375 
Q 40.53125 6.109375 44.609375 11.75 
Q 48.6875 17.390625 48.6875 27.296875 
z
" id="DejaVuSans-112"/>
       <path d="M 59.515625 10.40625 
L 59.515625 29.984375 
L 43.40625 29.984375 
L 43.40625 38.09375 
L 69.28125 38.09375 
L 69.28125 6.78125 
Q 63.578125 2.734375 56.6875 0.65625 
Q 49.8125 -1.421875 42 -1.421875 
Q 24.90625 -1.421875 15.25 8.5625 
Q 5.609375 18.5625 5.609375 36.375 
Q 5.609375 54.25 15.25 64.234375 
Q 24.90625 74.21875 42 74.21875 
Q 49.125 74.21875 55.546875 72.453125 
Q 61.96875 70.703125 67.390625 67.28125 
L 67.390625 56.78125 
Q 61.921875 61.421875 55.765625 63.765625 
Q 49.609375 66.109375 42.828125 66.109375 
Q 29.4375 66.109375 22.71875 58.640625 
Q 16.015625 51.171875 16.015625 36.375 
Q 16.015625 21.625 22.71875 14.15625 
Q 29.4375 6.6875 42.828125 6.6875 
Q 48.046875 6.6875 52.140625 7.59375 
Q 56.25 8.5 59.515625 10.40625 
z
" id="DejaVuSans-71"/>
       <path d="M 19.671875 64.796875 
L 19.671875 37.40625 
L 32.078125 37.40625 
Q 38.96875 37.40625 42.71875 40.96875 
Q 46.484375 44.53125 46.484375 51.125 
Q 46.484375 57.671875 42.71875 61.234375 
Q 38.96875 64.796875 32.078125 64.796875 
z
M 9.8125 72.90625 
L 32.078125 72.90625 
Q 44.34375 72.90625 50.609375 67.359375 
Q 56.890625 61.8125 56.890625 51.125 
Q 56.890625 40.328125 50.609375 34.8125 
Q 44.34375 29.296875 32.078125 29.296875 
L 19.671875 29.296875 
L 19.671875 0 
L 9.8125 0 
z
" id="DejaVuSans-80"/>
       <path d="M 44.390625 34.1875 
Q 47.5625 33.109375 50.5625 29.59375 
Q 53.5625 26.078125 56.59375 19.921875 
L 66.609375 0 
L 56 0 
L 46.6875 18.703125 
Q 43.0625 26.03125 39.671875 28.421875 
Q 36.28125 30.8125 30.421875 30.8125 
L 19.671875 30.8125 
L 19.671875 0 
L 9.8125 0 
L 9.8125 72.90625 
L 32.078125 72.90625 
Q 44.578125 72.90625 50.734375 67.671875 
Q 56.890625 62.453125 56.890625 51.90625 
Q 56.890625 45.015625 53.6875 40.46875 
Q 50.484375 35.9375 44.390625 34.1875 
z
M 19.671875 64.796875 
L 19.671875 38.921875 
L 32.078125 38.921875 
Q 39.203125 38.921875 42.84375 42.21875 
Q 46.484375 45.515625 46.484375 51.90625 
Q 46.484375 58.296875 42.84375 61.546875 
Q 39.203125 64.796875 32.078125 64.796875 
z
" id="DejaVuSans-82"/>
       <path d="M 31 75.875 
Q 24.46875 64.65625 21.28125 53.65625 
Q 18.109375 42.671875 18.109375 31.390625 
Q 18.109375 20.125 21.3125 9.0625 
Q 24.515625 -2 31 -13.1875 
L 23.1875 -13.1875 
Q 15.875 -1.703125 12.234375 9.375 
Q 8.59375 20.453125 8.59375 31.390625 
Q 8.59375 42.28125 12.203125 53.3125 
Q 15.828125 64.359375 23.1875 75.875 
z
" id="DejaVuSans-40"/>
       <path d="M 41.109375 46.296875 
Q 39.59375 47.171875 37.8125 47.578125 
Q 36.03125 48 33.890625 48 
Q 26.265625 48 22.1875 43.046875 
Q 18.109375 38.09375 18.109375 28.8125 
L 18.109375 0 
L 9.078125 0 
L 9.078125 54.6875 
L 18.109375 54.6875 
L 18.109375 46.1875 
Q 20.953125 51.171875 25.484375 53.578125 
Q 30.03125 56 36.53125 56 
Q 37.453125 56 38.578125 55.875 
Q 39.703125 55.765625 41.0625 55.515625 
z
" id="DejaVuSans-114"/>
       <path d="M 45.40625 27.984375 
Q 45.40625 37.75 41.375 43.109375 
Q 37.359375 48.484375 30.078125 48.484375 
Q 22.859375 48.484375 18.828125 43.109375 
Q 14.796875 37.75 14.796875 27.984375 
Q 14.796875 18.265625 18.828125 12.890625 
Q 22.859375 7.515625 30.078125 7.515625 
Q 37.359375 7.515625 41.375 12.890625 
Q 45.40625 18.265625 45.40625 27.984375 
z
M 54.390625 6.78125 
Q 54.390625 -7.171875 48.1875 -13.984375 
Q 42 -20.796875 29.203125 -20.796875 
Q 24.46875 -20.796875 20.265625 -20.09375 
Q 16.0625 -19.390625 12.109375 -17.921875 
L 12.109375 -9.1875 
Q 16.0625 -11.328125 19.921875 -12.34375 
Q 23.78125 -13.375 27.78125 -13.375 
Q 36.625 -13.375 41.015625 -8.765625 
Q 45.40625 -4.15625 45.40625 5.171875 
L 45.40625 9.625 
Q 42.625 4.78125 38.28125 2.390625 
Q 33.9375 0 27.875 0 
Q 17.828125 0 11.671875 7.65625 
Q 5.515625 15.328125 5.515625 27.984375 
Q 5.515625 40.671875 11.671875 48.328125 
Q 17.828125 56 27.875 56 
Q 33.9375 56 38.28125 53.609375 
Q 42.625 51.21875 45.40625 46.390625 
L 45.40625 54.6875 
L 54.390625 54.6875 
z
" id="DejaVuSans-103"/>
       <path d="M 8.5 21.578125 
L 8.5 54.6875 
L 17.484375 54.6875 
L 17.484375 21.921875 
Q 17.484375 14.15625 20.5 10.265625 
Q 23.53125 6.390625 29.59375 6.390625 
Q 36.859375 6.390625 41.078125 11.03125 
Q 45.3125 15.671875 45.3125 23.6875 
L 45.3125 54.6875 
L 54.296875 54.6875 
L 54.296875 0 
L 45.3125 0 
L 45.3125 8.40625 
Q 42.046875 3.421875 37.71875 1 
Q 33.40625 -1.421875 27.6875 -1.421875 
Q 18.265625 -1.421875 13.375 4.4375 
Q 8.5 10.296875 8.5 21.578125 
z
M 31.109375 56 
z
" id="DejaVuSans-117"/>
       <path d="M 9.421875 75.984375 
L 18.40625 75.984375 
L 18.40625 0 
L 9.421875 0 
z
" id="DejaVuSans-108"/>
       <path d="M 8.015625 75.875 
L 15.828125 75.875 
Q 23.140625 64.359375 26.78125 53.3125 
Q 30.421875 42.28125 30.421875 31.390625 
Q 30.421875 20.453125 26.78125 9.375 
Q 23.140625 -1.703125 15.828125 -13.1875 
L 8.015625 -13.1875 
Q 14.5 -2 17.703125 9.0625 
Q 20.90625 20.125 20.90625 31.390625 
Q 20.90625 42.671875 17.703125 53.65625 
Q 14.5 64.65625 8.015625 75.875 
z
" id="DejaVuSans-41"/>
      </defs>
      <use xlink:href="#DejaVuSans-77"/>
      <use x="86.279297" xlink:href="#DejaVuSans-70"/>
      <use x="143.798828" xlink:href="#DejaVuSans-32"/>
      <use x="175.585938" xlink:href="#DejaVuSans-99"/>
      <use x="230.566406" xlink:href="#DejaVuSans-104"/>
      <use x="293.945312" xlink:href="#DejaVuSans-101"/>
      <use x="355.46875" xlink:href="#DejaVuSans-97"/>
      <use x="416.748047" xlink:href="#DejaVuSans-112"/>
      <use x="480.224609" xlink:href="#DejaVuSans-32"/>
      <use x="512.011719" xlink:href="#DejaVuSans-71"/>
      <use x="589.501953" xlink:href="#DejaVuSans-80"/>
      <use x="649.804688" xlink:href="#DejaVuSans-82"/>
      <use x="719.287109" xlink:href="#DejaVuSans-32"/>
      <use x="751.074219" xlink:href="#DejaVuSans-40"/>
      <use x="790.087891" xlink:href="#DejaVuSans-114"/>
      <use x="828.951172" xlink:href="#DejaVuSans-101"/>
      <use x="890.474609" xlink:href="#DejaVuSans-103"/>
      <use x="953.951172" xlink:href="#DejaVuSans-117"/>
      <use x="1017.330078" xlink:href="#DejaVuSans-108"/>
      <use x="1045.113281" xlink:href="#DejaVuSans-97"/>
      <use x="1106.392578" xlink:href="#DejaVuSans-114"/>
      <use x="1147.505859" xlink:href="#DejaVuSans-32"/>
      <use x="1179.292969" xlink:href="#DejaVuSans-71"/>
      <use x="1256.783203" xlink:href="#DejaVuSans-80"/>
      <use x="1317.085938" xlink:href="#DejaVuSans-82"/>
      <use x="1386.568359" xlink:href="#DejaVuSans-41"/>
     </g>
    </g>
    <g id="line2d_35">
     <path d="M 66.6 69.248563 
L 86.6 69.248563 
" style="fill:none;stroke:#ffa500;stroke-linecap:square;stroke-width:1.5;"/>
    </g>
    <g id="line2d_36"/>
    <g id="text_14">
     <!-- MF expensive GPR -->
     <g transform="translate(94.6 72.748563)scale(0.1 -0.1)">
      <defs>
       <path d="M 54.890625 54.6875 
L 35.109375 28.078125 
L 55.90625 0 
L 45.3125 0 
L 29.390625 21.484375 
L 13.484375 0 
L 2.875 0 
L 24.125 28.609375 
L 4.6875 54.6875 
L 15.28125 54.6875 
L 29.78125 35.203125 
L 44.28125 54.6875 
z
" id="DejaVuSans-120"/>
       <path d="M 54.890625 33.015625 
L 54.890625 0 
L 45.90625 0 
L 45.90625 32.71875 
Q 45.90625 40.484375 42.875 44.328125 
Q 39.84375 48.1875 33.796875 48.1875 
Q 26.515625 48.1875 22.3125 43.546875 
Q 18.109375 38.921875 18.109375 30.90625 
L 18.109375 0 
L 9.078125 0 
L 9.078125 54.6875 
L 18.109375 54.6875 
L 18.109375 46.1875 
Q 21.34375 51.125 25.703125 53.5625 
Q 30.078125 56 35.796875 56 
Q 45.21875 56 50.046875 50.171875 
Q 54.890625 44.34375 54.890625 33.015625 
z
" id="DejaVuSans-110"/>
       <path d="M 44.28125 53.078125 
L 44.28125 44.578125 
Q 40.484375 46.53125 36.375 47.5 
Q 32.28125 48.484375 27.875 48.484375 
Q 21.1875 48.484375 17.84375 46.4375 
Q 14.5 44.390625 14.5 40.28125 
Q 14.5 37.15625 16.890625 35.375 
Q 19.28125 33.59375 26.515625 31.984375 
L 29.59375 31.296875 
Q 39.15625 29.25 43.1875 25.515625 
Q 47.21875 21.78125 47.21875 15.09375 
Q 47.21875 7.46875 41.1875 3.015625 
Q 35.15625 -1.421875 24.609375 -1.421875 
Q 20.21875 -1.421875 15.453125 -0.5625 
Q 10.6875 0.296875 5.421875 2 
L 5.421875 11.28125 
Q 10.40625 8.6875 15.234375 7.390625 
Q 20.0625 6.109375 24.8125 6.109375 
Q 31.15625 6.109375 34.5625 8.28125 
Q 37.984375 10.453125 37.984375 14.40625 
Q 37.984375 18.0625 35.515625 20.015625 
Q 33.0625 21.96875 24.703125 23.78125 
L 21.578125 24.515625 
Q 13.234375 26.265625 9.515625 29.90625 
Q 5.8125 33.546875 5.8125 39.890625 
Q 5.8125 47.609375 11.28125 51.796875 
Q 16.75 56 26.8125 56 
Q 31.78125 56 36.171875 55.265625 
Q 40.578125 54.546875 44.28125 53.078125 
z
" id="DejaVuSans-115"/>
       <path d="M 9.421875 54.6875 
L 18.40625 54.6875 
L 18.40625 0 
L 9.421875 0 
z
M 9.421875 75.984375 
L 18.40625 75.984375 
L 18.40625 64.59375 
L 9.421875 64.59375 
z
" id="DejaVuSans-105"/>
       <path d="M 2.984375 54.6875 
L 12.5 54.6875 
L 29.59375 8.796875 
L 46.6875 54.6875 
L 56.203125 54.6875 
L 35.6875 0 
L 23.484375 0 
z
" id="DejaVuSans-118"/>
      </defs>
      <use xlink:href="#DejaVuSans-77"/>
      <use x="86.279297" xlink:href="#DejaVuSans-70"/>
      <use x="143.798828" xlink:href="#DejaVuSans-32"/>
      <use x="175.585938" xlink:href="#DejaVuSans-101"/>
      <use x="235.359375" xlink:href="#DejaVuSans-120"/>
      <use x="294.539062" xlink:href="#DejaVuSans-112"/>
      <use x="358.015625" xlink:href="#DejaVuSans-101"/>
      <use x="419.539062" xlink:href="#DejaVuSans-110"/>
      <use x="482.917969" xlink:href="#DejaVuSans-115"/>
      <use x="535.017578" xlink:href="#DejaVuSans-105"/>
      <use x="562.800781" xlink:href="#DejaVuSans-118"/>
      <use x="621.980469" xlink:href="#DejaVuSans-101"/>
      <use x="683.503906" xlink:href="#DejaVuSans-32"/>
      <use x="715.291016" xlink:href="#DejaVuSans-71"/>
      <use x="792.78125" xlink:href="#DejaVuSans-80"/>
      <use x="853.083984" xlink:href="#DejaVuSans-82"/>
     </g>
    </g>
    <g id="line2d_37">
     <path d="M 66.6 83.926688 
L 86.6 83.926688 
" style="fill:none;stroke:#0000ff;stroke-dasharray:5.55,2.4;stroke-dashoffset:0;stroke-width:1.5;"/>
    </g>
    <g id="line2d_38"/>
    <g id="text_15">
     <!-- Exact cheap function -->
     <g transform="translate(94.6 87.426688)scale(0.1 -0.1)">
      <defs>
       <path d="M 9.8125 72.90625 
L 55.90625 72.90625 
L 55.90625 64.59375 
L 19.671875 64.59375 
L 19.671875 43.015625 
L 54.390625 43.015625 
L 54.390625 34.71875 
L 19.671875 34.71875 
L 19.671875 8.296875 
L 56.78125 8.296875 
L 56.78125 0 
L 9.8125 0 
z
" id="DejaVuSans-69"/>
       <path d="M 18.3125 70.21875 
L 18.3125 54.6875 
L 36.8125 54.6875 
L 36.8125 47.703125 
L 18.3125 47.703125 
L 18.3125 18.015625 
Q 18.3125 11.328125 20.140625 9.421875 
Q 21.96875 7.515625 27.59375 7.515625 
L 36.8125 7.515625 
L 36.8125 0 
L 27.59375 0 
Q 17.1875 0 13.234375 3.875 
Q 9.28125 7.765625 9.28125 18.015625 
L 9.28125 47.703125 
L 2.6875 47.703125 
L 2.6875 54.6875 
L 9.28125 54.6875 
L 9.28125 70.21875 
z
" id="DejaVuSans-116"/>
       <path d="M 37.109375 75.984375 
L 37.109375 68.5 
L 28.515625 68.5 
Q 23.6875 68.5 21.796875 66.546875 
Q 19.921875 64.59375 19.921875 59.515625 
L 19.921875 54.6875 
L 34.71875 54.6875 
L 34.71875 47.703125 
L 19.921875 47.703125 
L 19.921875 0 
L 10.890625 0 
L 10.890625 47.703125 
L 2.296875 47.703125 
L 2.296875 54.6875 
L 10.890625 54.6875 
L 10.890625 58.5 
Q 10.890625 67.625 15.140625 71.796875 
Q 19.390625 75.984375 28.609375 75.984375 
z
" id="DejaVuSans-102"/>
       <path d="M 30.609375 48.390625 
Q 23.390625 48.390625 19.1875 42.75 
Q 14.984375 37.109375 14.984375 27.296875 
Q 14.984375 17.484375 19.15625 11.84375 
Q 23.34375 6.203125 30.609375 6.203125 
Q 37.796875 6.203125 41.984375 11.859375 
Q 46.1875 17.53125 46.1875 27.296875 
Q 46.1875 37.015625 41.984375 42.703125 
Q 37.796875 48.390625 30.609375 48.390625 
z
M 30.609375 56 
Q 42.328125 56 49.015625 48.375 
Q 55.71875 40.765625 55.71875 27.296875 
Q 55.71875 13.875 49.015625 6.21875 
Q 42.328125 -1.421875 30.609375 -1.421875 
Q 18.84375 -1.421875 12.171875 6.21875 
Q 5.515625 13.875 5.515625 27.296875 
Q 5.515625 40.765625 12.171875 48.375 
Q 18.84375 56 30.609375 56 
z
" id="DejaVuSans-111"/>
      </defs>
      <use xlink:href="#DejaVuSans-69"/>
      <use x="63.183594" xlink:href="#DejaVuSans-120"/>
      <use x="122.363281" xlink:href="#DejaVuSans-97"/>
      <use x="183.642578" xlink:href="#DejaVuSans-99"/>
      <use x="238.623047" xlink:href="#DejaVuSans-116"/>
      <use x="277.832031" xlink:href="#DejaVuSans-32"/>
      <use x="309.619141" xlink:href="#DejaVuSans-99"/>
      <use x="364.599609" xlink:href="#DejaVuSans-104"/>
      <use x="427.978516" xlink:href="#DejaVuSans-101"/>
      <use x="489.501953" xlink:href="#DejaVuSans-97"/>
      <use x="550.78125" xlink:href="#DejaVuSans-112"/>
      <use x="614.257812" xlink:href="#DejaVuSans-32"/>
      <use x="646.044922" xlink:href="#DejaVuSans-102"/>
      <use x="681.25" xlink:href="#DejaVuSans-117"/>
      <use x="744.628906" xlink:href="#DejaVuSans-110"/>
      <use x="808.007812" xlink:href="#DejaVuSans-99"/>
      <use x="862.988281" xlink:href="#DejaVuSans-116"/>
      <use x="902.197266" xlink:href="#DejaVuSans-105"/>
      <use x="929.980469" xlink:href="#DejaVuSans-111"/>
      <use x="991.162109" xlink:href="#DejaVuSans-110"/>
     </g>
    </g>
    <g id="line2d_39">
     <path d="M 66.6 98.604813 
L 86.6 98.604813 
" style="fill:none;stroke:#ffa500;stroke-dasharray:5.55,2.4;stroke-dashoffset:0;stroke-width:1.5;"/>
    </g>
    <g id="line2d_40"/>
    <g id="text_16">
     <!-- Exact expensive function -->
     <g transform="translate(94.6 102.104813)scale(0.1 -0.1)">
      <use xlink:href="#DejaVuSans-69"/>
      <use x="63.183594" xlink:href="#DejaVuSans-120"/>
      <use x="122.363281" xlink:href="#DejaVuSans-97"/>
      <use x="183.642578" xlink:href="#DejaVuSans-99"/>
      <use x="238.623047" xlink:href="#DejaVuSans-116"/>
      <use x="277.832031" xlink:href="#DejaVuSans-32"/>
      <use x="309.619141" xlink:href="#DejaVuSans-101"/>
      <use x="369.392578" xlink:href="#DejaVuSans-120"/>
      <use x="428.572266" xlink:href="#DejaVuSans-112"/>
      <use x="492.048828" xlink:href="#DejaVuSans-101"/>
      <use x="553.572266" xlink:href="#DejaVuSans-110"/>
      <use x="616.951172" xlink:href="#DejaVuSans-115"/>
      <use x="669.050781" xlink:href="#DejaVuSans-105"/>
      <use x="696.833984" xlink:href="#DejaVuSans-118"/>
      <use x="756.013672" xlink:href="#DejaVuSans-101"/>
      <use x="817.537109" xlink:href="#DejaVuSans-32"/>
      <use x="849.324219" xlink:href="#DejaVuSans-102"/>
      <use x="884.529297" xlink:href="#DejaVuSans-117"/>
      <use x="947.908203" xlink:href="#DejaVuSans-110"/>
      <use x="1011.287109" xlink:href="#DejaVuSans-99"/>
      <use x="1066.267578" xlink:href="#DejaVuSans-116"/>
      <use x="1105.476562" xlink:href="#DejaVuSans-105"/>
      <use x="1133.259766" xlink:href="#DejaVuSans-111"/>
      <use x="1194.441406" xlink:href="#DejaVuSans-110"/>
     </g>
    </g>
   </g>
  </g>
 </g>
 <defs>
  <clipPath id="pe5e9640568">
   <rect height="266.112" width="357.12" x="57.6" y="41.472"/>
  </clipPath>
 </defs>
</svg>
