<?xml version="1.0" encoding="utf-8" standalone="no"?>
<!DOCTYPE svg PUBLIC "-//W3C//DTD SVG 1.1//EN"
  "http://www.w3.org/Graphics/SVG/1.1/DTD/svg11.dtd">
<!-- Created with matplotlib (https://matplotlib.org/) -->
<svg height="345.6pt" version="1.1" viewBox="0 0 460.8 345.6" width="460.8pt" xmlns="http://www.w3.org/2000/svg" xmlns:xlink="http://www.w3.org/1999/xlink">
 <metadata>
  <rdf:RDF xmlns:cc="http://creativecommons.org/ns#" xmlns:dc="http://purl.org/dc/elements/1.1/" xmlns:rdf="http://www.w3.org/1999/02/22-rdf-syntax-ns#">
   <cc:Work>
    <dc:type rdf:resource="http://purl.org/dc/dcmitype/StillImage"/>
    <dc:date>2020-11-24T14:04:36.520997</dc:date>
    <dc:format>image/svg+xml</dc:format>
    <dc:creator>
     <cc:Agent>
      <dc:title>Matplotlib v3.3.1, https://matplotlib.org/</dc:title>
     </cc:Agent>
    </dc:creator>
   </cc:Work>
  </rdf:RDF>
 </metadata>
 <defs>
  <style type="text/css">*{stroke-linecap:butt;stroke-linejoin:round;}</style>
 </defs>
 <g id="figure_1">
  <g id="patch_1">
   <path d="M 0 345.6 
L 460.8 345.6 
L 460.8 0 
L 0 0 
z
" style="fill:#ffffff;"/>
  </g>
  <g id="axes_1">
   <g id="patch_2">
    <path d="M 57.6 307.584 
L 414.72 307.584 
L 414.72 41.472 
L 57.6 41.472 
z
" style="fill:#ffffff;"/>
   </g>
   <g id="PolyCollection_1">
    <defs>
     <path d="M 73.832727 -122.609531 
L 73.832727 -89.36937 
L 77.112066 -89.759528 
L 80.391405 -89.845952 
L 83.670744 -89.724648 
L 86.950083 -89.480381 
L 90.229421 -89.184769 
L 93.50876 -88.895306 
L 96.788099 -88.655244 
L 100.067438 -88.494269 
L 103.346777 -88.429803 
L 106.626116 -88.468794 
L 109.905455 -88.60978 
L 113.184793 -88.84508 
L 116.464132 -89.162907 
L 119.743471 -89.549311 
L 123.02281 -89.989804 
L 126.302149 -90.470647 
L 129.581488 -90.979741 
L 132.860826 -91.507156 
L 136.140165 -92.045328 
L 139.419504 -92.588994 
L 142.698843 -93.134928 
L 145.978182 -93.681567 
L 149.257521 -94.228583 
L 152.53686 -94.776472 
L 155.816198 -95.326197 
L 159.095537 -95.878908 
L 162.374876 -96.435764 
L 165.654215 -96.997823 
L 168.933554 -97.56602 
L 172.212893 -98.141172 
L 175.492231 -98.724024 
L 178.77157 -99.31527 
L 182.050909 -99.915567 
L 185.330248 -100.525508 
L 188.609587 -101.145547 
L 191.888926 -101.775899 
L 195.168264 -102.416393 
L 198.447603 -103.066322 
L 201.726942 -103.724285 
L 205.006281 -104.388048 
L 208.28562 -105.054437 
L 211.564959 -105.719274 
L 214.844298 -106.377378 
L 218.123636 -107.022608 
L 221.402975 -107.64798 
L 224.682314 -108.245833 
L 227.961653 -108.808035 
L 231.240992 -109.326241 
L 234.520331 -109.792158 
L 237.799669 -110.197834 
L 241.079008 -110.535944 
L 244.358347 -110.800064 
L 247.637686 -110.984936 
L 250.917025 -111.0867 
L 254.196364 -111.103106 
L 257.475702 -111.033696 
L 260.755041 -110.879954 
L 264.03438 -110.645431 
L 267.313719 -110.335831 
L 270.593058 -109.959076 
L 273.872397 -109.525324 
L 277.151736 -109.046951 
L 280.431074 -108.538485 
L 283.710413 -108.016478 
L 286.989752 -107.499314 
L 290.269091 -107.00694 
L 293.54843 -106.560518 
L 296.827769 -106.181999 
L 300.107107 -105.893609 
L 303.386446 -105.717288 
L 306.665785 -105.674075 
L 309.945124 -105.783488 
L 313.224463 -106.062917 
L 316.503802 -106.527084 
L 319.78314 -107.187601 
L 323.062479 -108.052666 
L 326.341818 -109.126908 
L 329.621157 -110.411429 
L 332.900496 -111.903991 
L 336.179835 -113.599379 
L 339.459174 -115.489849 
L 342.738512 -117.565638 
L 346.017851 -119.815442 
L 349.29719 -122.226784 
L 352.576529 -124.786196 
L 355.855868 -127.47914 
L 359.135207 -130.289612 
L 362.414545 -133.19941 
L 365.693884 -136.187081 
L 368.973223 -139.226577 
L 372.252562 -142.285733 
L 375.531901 -145.324672 
L 378.81124 -148.294299 
L 382.090579 -151.135051 
L 385.369917 -153.776072 
L 388.649256 -156.134973 
L 391.928595 -158.118318 
L 395.207934 -159.622905 
L 398.487273 -160.537895 
L 398.487273 -193.778056 
L 398.487273 -193.778056 
L 395.207934 -190.684088 
L 391.928595 -187.774949 
L 388.649256 -184.974416 
L 385.369917 -182.219218 
L 382.090579 -179.460653 
L 378.81124 -176.665265 
L 375.531901 -173.81462 
L 372.252562 -170.904276 
L 368.973223 -167.942102 
L 365.693884 -164.946114 
L 362.414545 -161.942025 
L 359.135207 -158.960696 
L 355.855868 -156.035655 
L 352.576529 -153.200836 
L 349.29719 -150.488651 
L 346.017851 -147.928445 
L 342.738512 -145.545386 
L 339.459174 -143.359765 
L 336.179835 -141.386678 
L 332.900496 -139.636024 
L 329.621157 -138.11275 
L 326.341818 -136.817262 
L 323.062479 -135.745939 
L 319.78314 -134.891671 
L 316.503802 -134.244396 
L 313.224463 -133.791583 
L 309.945124 -133.518662 
L 306.665785 -133.409391 
L 303.386446 -133.44617 
L 300.107107 -133.610323 
L 296.827769 -133.882362 
L 293.54843 -134.242253 
L 290.269091 -134.669694 
L 286.989752 -135.14442 
L 283.710413 -135.646523 
L 280.431074 -136.156799 
L 277.151736 -136.65709 
L 273.872397 -137.130624 
L 270.593058 -137.562325 
L 267.313719 -137.939077 
L 264.03438 -138.249937 
L 260.755041 -138.486268 
L 257.475702 -138.641808 
L 254.196364 -138.712652 
L 250.917025 -138.697163 
L 247.637686 -138.595823 
L 244.358347 -138.411019 
L 241.079008 -138.146799 
L 237.799669 -137.808591 
L 234.520331 -137.402914 
L 231.240992 -136.937096 
L 227.961653 -136.41899 
L 224.682314 -135.856719 
L 221.402975 -135.258443 
L 218.123636 -134.632154 
L 214.844298 -133.985491 
L 211.564959 -133.325588 
L 208.28562 -132.658943 
L 205.006281 -131.991294 
L 201.726942 -131.327534 
L 198.447603 -130.671622 
L 195.168264 -130.026532 
L 191.888926 -129.394213 
L 188.609587 -128.775592 
L 185.330248 -128.170614 
L 182.050909 -127.578322 
L 178.77157 -126.997004 
L 175.492231 -126.424387 
L 172.212893 -125.857887 
L 168.933554 -125.294902 
L 165.654215 -124.733139 
L 162.374876 -124.170938 
L 159.095537 -123.607574 
L 155.816198 -123.043509 
L 152.53686 -122.480542 
L 149.257521 -121.921857 
L 145.978182 -121.371921 
L 142.698843 -120.836249 
L 139.419504 -120.321027 
L 136.140165 -119.832627 
L 132.860826 -119.377072 
L 129.581488 -118.959489 
L 126.302149 -118.58365 
L 123.02281 -118.251671 
L 119.743471 -117.96395 
L 116.464132 -117.719422 
L 113.184793 -117.516164 
L 109.905455 -117.352395 
L 106.626116 -117.227826 
L 103.346777 -117.145328 
L 100.067438 -117.112812 
L 96.788099 -117.145193 
L 93.50876 -117.266272 
L 90.229421 -117.510371 
L 86.950083 -117.923527 
L 83.670744 -118.564091 
L 80.391405 -119.502582 
L 77.112066 -120.820711 
L 73.832727 -122.609531 
z
" id="med78724ed1" style="stroke:#0000ff;stroke-opacity:0.2;"/>
    </defs>
    <g clip-path="url(#p60944297d8)">
     <use style="fill:#0000ff;fill-opacity:0.2;stroke:#0000ff;stroke-opacity:0.2;" x="0" xlink:href="#med78724ed1" y="345.6"/>
    </g>
   </g>
   <g id="PolyCollection_2">
    <defs>
     <path d="M 73.832727 -235.350182 
L 73.832727 -77.655534 
L 77.112066 -80.340818 
L 80.391405 -81.38687 
L 83.670744 -81.238204 
L 86.950083 -80.288945 
L 90.229421 -78.873984 
L 93.50876 -77.26436 
L 96.788099 -75.666699 
L 100.067438 -74.226264 
L 103.346777 -73.03296 
L 106.626116 -72.12951 
L 109.905455 -71.520947 
L 113.184793 -71.184579 
L 116.464132 -71.079651 
L 119.743471 -71.15608 
L 123.02281 -71.36178 
L 126.302149 -71.648299 
L 129.581488 -71.974671 
L 132.860826 -72.309534 
L 136.140165 -72.631742 
L 139.419504 -72.92975 
L 142.698843 -73.200138 
L 145.978182 -73.445626 
L 149.257521 -73.67294 
L 152.53686 -73.890778 
L 155.816198 -74.108118 
L 159.095537 -74.332962 
L 162.374876 -74.571581 
L 165.654215 -74.828217 
L 168.933554 -75.105181 
L 172.212893 -75.40321 
L 175.492231 -75.721973 
L 178.77157 -76.06059 
L 182.050909 -76.41807 
L 185.330248 -76.793589 
L 188.609587 -77.186566 
L 191.888926 -77.596542 
L 195.168264 -78.022879 
L 198.447603 -78.464339 
L 201.726942 -78.918596 
L 205.006281 -79.381756 
L 208.28562 -79.847947 
L 211.564959 -80.309038 
L 214.844298 -80.754513 
L 218.123636 -81.171529 
L 221.402975 -81.545155 
L 224.682314 -81.858768 
L 227.961653 -82.094586 
L 231.240992 -82.234294 
L 234.520331 -82.259717 
L 237.799669 -82.153507 
L 241.079008 -81.899795 
L 244.358347 -81.484791 
L 247.637686 -80.897317 
L 250.917025 -80.129246 
L 254.196364 -79.17588 
L 257.475702 -78.036254 
L 260.755041 -76.713393 
L 264.03438 -75.214534 
L 267.313719 -73.551334 
L 270.593058 -71.740047 
L 273.872397 -69.801683 
L 277.151736 -67.76212 
L 280.431074 -65.652135 
L 283.710413 -63.507305 
L 286.989752 -61.367739 
L 290.269091 -59.277588 
L 293.54843 -57.284282 
L 296.827769 -55.437493 
L 300.107107 -53.787806 
L 303.386446 -52.385153 
L 306.665785 -51.277067 
L 309.945124 -50.506883 
L 313.224463 -50.112 
L 316.503802 -50.12238 
L 319.78314 -50.559428 
L 323.062479 -51.435404 
L 326.341818 -52.75346 
L 329.621157 -54.50836 
L 332.900496 -56.687836 
L 336.179835 -59.27448 
L 339.459174 -62.247957 
L 342.738512 -65.587262 
L 346.017851 -69.272668 
L 349.29719 -73.286993 
L 352.576529 -77.615817 
L 355.855868 -82.246326 
L 359.135207 -87.164552 
L 362.414545 -92.35092 
L 365.693884 -97.774172 
L 368.973223 -103.383922 
L 372.252562 -109.102289 
L 375.531901 -114.815208 
L 378.81124 -120.364159 
L 382.090579 -125.539147 
L 385.369917 -130.073745 
L 388.649256 -133.642982 
L 391.928595 -135.864702 
L 395.207934 -136.304836 
L 398.487273 -134.486745 
L 398.487273 -292.032 
L 398.487273 -292.032 
L 395.207934 -283.587633 
L 391.928595 -276.522929 
L 388.649256 -270.436242 
L 385.369917 -264.980006 
L 382.090579 -259.868987 
L 378.81124 -254.884226 
L 375.531901 -249.872869 
L 372.252562 -244.744346 
L 368.973223 -239.46355 
L 365.693884 -234.041844 
L 362.414545 -228.526744 
L 359.135207 -222.991156 
L 355.855868 -217.522944 
L 352.576529 -212.215489 
L 349.29719 -207.159712 
L 346.017851 -202.437874 
L 342.738512 -198.119258 
L 339.459174 -194.257672 
L 336.179835 -190.890581 
L 332.900496 -188.039571 
L 329.621157 -185.711793 
L 326.341818 -183.902014 
L 323.062479 -182.59495 
L 319.78314 -181.767571 
L 316.503802 -181.391179 
L 313.224463 -181.433118 
L 309.945124 -181.858051 
L 306.665785 -182.628836 
L 303.386446 -183.707049 
L 300.107107 -185.053261 
L 296.827769 -186.627186 
L 293.54843 -188.387799 
L 290.269091 -190.293524 
L 286.989752 -192.302557 
L 283.710413 -194.373331 
L 280.431074 -196.465153 
L 277.151736 -198.538948 
L 273.872397 -200.558081 
L 270.593058 -202.489173 
L 267.313719 -204.302859 
L 264.03438 -205.974418 
L 260.755041 -207.484221 
L 257.475702 -208.817979 
L 254.196364 -209.966769 
L 250.917025 -210.926845 
L 247.637686 -211.699268 
L 244.358347 -212.289378 
L 241.079008 -212.70617 
L 237.799669 -212.961611 
L 234.520331 -213.069949 
L 231.240992 -213.04705 
L 227.961653 -212.909803 
L 224.682314 -212.675591 
L 221.402975 -212.361858 
L 218.123636 -211.985739 
L 214.844298 -211.563759 
L 211.564959 -211.111569 
L 208.28562 -210.643692 
L 205.006281 -210.173274 
L 201.726942 -209.711818 
L 198.447603 -209.268904 
L 195.168264 -208.851909 
L 191.888926 -208.46576 
L 188.609587 -208.11275 
L 185.330248 -207.792478 
L 182.050909 -207.501944 
L 178.77157 -207.235858 
L 175.492231 -206.98718 
L 172.212893 -206.747886 
L 168.933554 -206.509945 
L 165.654215 -206.266438 
L 162.374876 -206.01272 
L 159.095537 -205.747502 
L 155.816198 -205.47372 
L 152.53686 -205.199028 
L 149.257521 -204.935821 
L 145.978182 -204.700663 
L 142.698843 -204.513118 
L 139.419504 -204.394012 
L 136.140165 -204.363258 
L 132.860826 -204.43746 
L 129.581488 -204.627579 
L 126.302149 -204.937021 
L 123.02281 -205.360516 
L 119.743471 -205.884167 
L 116.464132 -206.486974 
L 113.184793 -207.144068 
L 109.905455 -207.831724 
L 106.626116 -208.534086 
L 103.346777 -209.251324 
L 100.067438 -210.008767 
L 96.788099 -210.866393 
L 93.50876 -211.927917 
L 90.229421 -213.348642 
L 86.950083 -215.341218 
L 83.670744 -218.178533 
L 80.391405 -222.193085 
L 77.112066 -227.772378 
L 73.832727 -235.350182 
z
" id="mb9b29e7bce" style="stroke:#ffa500;stroke-opacity:0.2;"/>
    </defs>
    <g clip-path="url(#p60944297d8)">
     <use style="fill:#ffa500;fill-opacity:0.2;stroke:#ffa500;stroke-opacity:0.2;" x="0" xlink:href="#mb9b29e7bce" y="345.6"/>
    </g>
   </g>
   <g id="PathCollection_1">
    <defs>
     <path d="M 0 3 
C 0.795609 3 1.55874 2.683901 2.12132 2.12132 
C 2.683901 1.55874 3 0.795609 3 0 
C 3 -0.795609 2.683901 -1.55874 2.12132 -2.12132 
C 1.55874 -2.683901 0.795609 -3 0 -3 
C -0.795609 -3 -1.55874 -2.683901 -2.12132 -2.12132 
C -2.683901 -1.55874 -3 -0.795609 -3 0 
C -3 0.795609 -2.683901 1.55874 -2.12132 2.12132 
C -1.55874 2.683901 -0.795609 3 0 3 
z
" id="m2093713c4a" style="stroke:#0000ff;"/>
    </defs>
    <g clip-path="url(#p60944297d8)">
     <use style="fill:#0000ff;stroke:#0000ff;" x="73.832727" xlink:href="#m2093713c4a" y="239.878081"/>
     <use style="fill:#0000ff;stroke:#0000ff;" x="106.298182" xlink:href="#m2093713c4a" y="243.618608"/>
     <use style="fill:#0000ff;stroke:#0000ff;" x="138.763636" xlink:href="#m2093713c4a" y="239.138183"/>
     <use style="fill:#0000ff;stroke:#0000ff;" x="171.229091" xlink:href="#m2093713c4a" y="233.308641"/>
     <use style="fill:#0000ff;stroke:#0000ff;" x="203.694545" xlink:href="#m2093713c4a" y="228.576066"/>
     <use style="fill:#0000ff;stroke:#0000ff;" x="236.16" xlink:href="#m2093713c4a" y="222.368048"/>
     <use style="fill:#0000ff;stroke:#0000ff;" x="268.625455" xlink:href="#m2093713c4a" y="220.277031"/>
     <use style="fill:#0000ff;stroke:#0000ff;" x="301.090909" xlink:href="#m2093713c4a" y="225.73373"/>
     <use style="fill:#0000ff;stroke:#0000ff;" x="333.556364" xlink:href="#m2093713c4a" y="222.053546"/>
     <use style="fill:#0000ff;stroke:#0000ff;" x="366.021818" xlink:href="#m2093713c4a" y="193.926994"/>
     <use style="fill:#0000ff;stroke:#0000ff;" x="398.487273" xlink:href="#m2093713c4a" y="167.007379"/>
    </g>
   </g>
   <g id="PathCollection_2">
    <defs>
     <path d="M 0 3 
C 0.795609 3 1.55874 2.683901 2.12132 2.12132 
C 2.683901 1.55874 3 0.795609 3 0 
C 3 -0.795609 2.683901 -1.55874 2.12132 -2.12132 
C 1.55874 -2.683901 0.795609 -3 0 -3 
C -0.795609 -3 -1.55874 -2.683901 -2.12132 -2.12132 
C -2.683901 -1.55874 -3 -0.795609 -3 0 
C -3 0.795609 -2.683901 1.55874 -2.12132 2.12132 
C -1.55874 2.683901 -0.795609 3 0 3 
z
" id="m6c18b62ec7" style="stroke:#ffa500;"/>
    </defs>
    <g clip-path="url(#p60944297d8)">
     <use style="fill:#ffa500;stroke:#ffa500;" x="73.832727" xlink:href="#m6c18b62ec7" y="189.389654"/>
     <use style="fill:#ffa500;stroke:#ffa500;" x="203.694545" xlink:href="#m6c18b62ec7" y="202.329576"/>
     <use style="fill:#ffa500;stroke:#ffa500;" x="268.625455" xlink:href="#m6c18b62ec7" y="203.50348"/>
     <use style="fill:#ffa500;stroke:#ffa500;" x="333.556364" xlink:href="#m6c18b62ec7" y="224.828485"/>
     <use style="fill:#ffa500;stroke:#ffa500;" x="398.487273" xlink:href="#m6c18b62ec7" y="132.508127"/>
    </g>
   </g>
   <g id="matplotlib.axis_1">
    <g id="xtick_1">
     <g id="line2d_1">
      <path clip-path="url(#p60944297d8)" d="M 73.832727 307.584 
L 73.832727 41.472 
" style="fill:none;stroke:#b0b0b0;stroke-linecap:square;stroke-width:0.8;"/>
     </g>
     <g id="line2d_2">
      <defs>
       <path d="M 0 0 
L 0 3.5 
" id="m1148d0c134" style="stroke:#000000;stroke-width:0.8;"/>
      </defs>
      <g>
       <use style="stroke:#000000;stroke-width:0.8;" x="73.832727" xlink:href="#m1148d0c134" y="307.584"/>
      </g>
     </g>
     <g id="text_1">
      <!-- 0.0 -->
      <g transform="translate(65.881165 322.182437)scale(0.1 -0.1)">
       <defs>
        <path d="M 31.78125 66.40625 
Q 24.171875 66.40625 20.328125 58.90625 
Q 16.5 51.421875 16.5 36.375 
Q 16.5 21.390625 20.328125 13.890625 
Q 24.171875 6.390625 31.78125 6.390625 
Q 39.453125 6.390625 43.28125 13.890625 
Q 47.125 21.390625 47.125 36.375 
Q 47.125 51.421875 43.28125 58.90625 
Q 39.453125 66.40625 31.78125 66.40625 
z
M 31.78125 74.21875 
Q 44.046875 74.21875 50.515625 64.515625 
Q 56.984375 54.828125 56.984375 36.375 
Q 56.984375 17.96875 50.515625 8.265625 
Q 44.046875 -1.421875 31.78125 -1.421875 
Q 19.53125 -1.421875 13.0625 8.265625 
Q 6.59375 17.96875 6.59375 36.375 
Q 6.59375 54.828125 13.0625 64.515625 
Q 19.53125 74.21875 31.78125 74.21875 
z
" id="DejaVuSans-48"/>
        <path d="M 10.6875 12.40625 
L 21 12.40625 
L 21 0 
L 10.6875 0 
z
" id="DejaVuSans-46"/>
       </defs>
       <use xlink:href="#DejaVuSans-48"/>
       <use x="63.623047" xlink:href="#DejaVuSans-46"/>
       <use x="95.410156" xlink:href="#DejaVuSans-48"/>
      </g>
     </g>
    </g>
    <g id="xtick_2">
     <g id="line2d_3">
      <path clip-path="url(#p60944297d8)" d="M 138.763636 307.584 
L 138.763636 41.472 
" style="fill:none;stroke:#b0b0b0;stroke-linecap:square;stroke-width:0.8;"/>
     </g>
     <g id="line2d_4">
      <g>
       <use style="stroke:#000000;stroke-width:0.8;" x="138.763636" xlink:href="#m1148d0c134" y="307.584"/>
      </g>
     </g>
     <g id="text_2">
      <!-- 0.2 -->
      <g transform="translate(130.812074 322.182437)scale(0.1 -0.1)">
       <defs>
        <path d="M 19.1875 8.296875 
L 53.609375 8.296875 
L 53.609375 0 
L 7.328125 0 
L 7.328125 8.296875 
Q 12.9375 14.109375 22.625 23.890625 
Q 32.328125 33.6875 34.8125 36.53125 
Q 39.546875 41.84375 41.421875 45.53125 
Q 43.3125 49.21875 43.3125 52.78125 
Q 43.3125 58.59375 39.234375 62.25 
Q 35.15625 65.921875 28.609375 65.921875 
Q 23.96875 65.921875 18.8125 64.3125 
Q 13.671875 62.703125 7.8125 59.421875 
L 7.8125 69.390625 
Q 13.765625 71.78125 18.9375 73 
Q 24.125 74.21875 28.421875 74.21875 
Q 39.75 74.21875 46.484375 68.546875 
Q 53.21875 62.890625 53.21875 53.421875 
Q 53.21875 48.921875 51.53125 44.890625 
Q 49.859375 40.875 45.40625 35.40625 
Q 44.1875 33.984375 37.640625 27.21875 
Q 31.109375 20.453125 19.1875 8.296875 
z
" id="DejaVuSans-50"/>
       </defs>
       <use xlink:href="#DejaVuSans-48"/>
       <use x="63.623047" xlink:href="#DejaVuSans-46"/>
       <use x="95.410156" xlink:href="#DejaVuSans-50"/>
      </g>
     </g>
    </g>
    <g id="xtick_3">
     <g id="line2d_5">
      <path clip-path="url(#p60944297d8)" d="M 203.694545 307.584 
L 203.694545 41.472 
" style="fill:none;stroke:#b0b0b0;stroke-linecap:square;stroke-width:0.8;"/>
     </g>
     <g id="line2d_6">
      <g>
       <use style="stroke:#000000;stroke-width:0.8;" x="203.694545" xlink:href="#m1148d0c134" y="307.584"/>
      </g>
     </g>
     <g id="text_3">
      <!-- 0.4 -->
      <g transform="translate(195.742983 322.182437)scale(0.1 -0.1)">
       <defs>
        <path d="M 37.796875 64.3125 
L 12.890625 25.390625 
L 37.796875 25.390625 
z
M 35.203125 72.90625 
L 47.609375 72.90625 
L 47.609375 25.390625 
L 58.015625 25.390625 
L 58.015625 17.1875 
L 47.609375 17.1875 
L 47.609375 0 
L 37.796875 0 
L 37.796875 17.1875 
L 4.890625 17.1875 
L 4.890625 26.703125 
z
" id="DejaVuSans-52"/>
       </defs>
       <use xlink:href="#DejaVuSans-48"/>
       <use x="63.623047" xlink:href="#DejaVuSans-46"/>
       <use x="95.410156" xlink:href="#DejaVuSans-52"/>
      </g>
     </g>
    </g>
    <g id="xtick_4">
     <g id="line2d_7">
      <path clip-path="url(#p60944297d8)" d="M 268.625455 307.584 
L 268.625455 41.472 
" style="fill:none;stroke:#b0b0b0;stroke-linecap:square;stroke-width:0.8;"/>
     </g>
     <g id="line2d_8">
      <g>
       <use style="stroke:#000000;stroke-width:0.8;" x="268.625455" xlink:href="#m1148d0c134" y="307.584"/>
      </g>
     </g>
     <g id="text_4">
      <!-- 0.6 -->
      <g transform="translate(260.673892 322.182437)scale(0.1 -0.1)">
       <defs>
        <path d="M 33.015625 40.375 
Q 26.375 40.375 22.484375 35.828125 
Q 18.609375 31.296875 18.609375 23.390625 
Q 18.609375 15.53125 22.484375 10.953125 
Q 26.375 6.390625 33.015625 6.390625 
Q 39.65625 6.390625 43.53125 10.953125 
Q 47.40625 15.53125 47.40625 23.390625 
Q 47.40625 31.296875 43.53125 35.828125 
Q 39.65625 40.375 33.015625 40.375 
z
M 52.59375 71.296875 
L 52.59375 62.3125 
Q 48.875 64.0625 45.09375 64.984375 
Q 41.3125 65.921875 37.59375 65.921875 
Q 27.828125 65.921875 22.671875 59.328125 
Q 17.53125 52.734375 16.796875 39.40625 
Q 19.671875 43.65625 24.015625 45.921875 
Q 28.375 48.1875 33.59375 48.1875 
Q 44.578125 48.1875 50.953125 41.515625 
Q 57.328125 34.859375 57.328125 23.390625 
Q 57.328125 12.15625 50.6875 5.359375 
Q 44.046875 -1.421875 33.015625 -1.421875 
Q 20.359375 -1.421875 13.671875 8.265625 
Q 6.984375 17.96875 6.984375 36.375 
Q 6.984375 53.65625 15.1875 63.9375 
Q 23.390625 74.21875 37.203125 74.21875 
Q 40.921875 74.21875 44.703125 73.484375 
Q 48.484375 72.75 52.59375 71.296875 
z
" id="DejaVuSans-54"/>
       </defs>
       <use xlink:href="#DejaVuSans-48"/>
       <use x="63.623047" xlink:href="#DejaVuSans-46"/>
       <use x="95.410156" xlink:href="#DejaVuSans-54"/>
      </g>
     </g>
    </g>
    <g id="xtick_5">
     <g id="line2d_9">
      <path clip-path="url(#p60944297d8)" d="M 333.556364 307.584 
L 333.556364 41.472 
" style="fill:none;stroke:#b0b0b0;stroke-linecap:square;stroke-width:0.8;"/>
     </g>
     <g id="line2d_10">
      <g>
       <use style="stroke:#000000;stroke-width:0.8;" x="333.556364" xlink:href="#m1148d0c134" y="307.584"/>
      </g>
     </g>
     <g id="text_5">
      <!-- 0.8 -->
      <g transform="translate(325.604801 322.182437)scale(0.1 -0.1)">
       <defs>
        <path d="M 31.78125 34.625 
Q 24.75 34.625 20.71875 30.859375 
Q 16.703125 27.09375 16.703125 20.515625 
Q 16.703125 13.921875 20.71875 10.15625 
Q 24.75 6.390625 31.78125 6.390625 
Q 38.8125 6.390625 42.859375 10.171875 
Q 46.921875 13.96875 46.921875 20.515625 
Q 46.921875 27.09375 42.890625 30.859375 
Q 38.875 34.625 31.78125 34.625 
z
M 21.921875 38.8125 
Q 15.578125 40.375 12.03125 44.71875 
Q 8.5 49.078125 8.5 55.328125 
Q 8.5 64.0625 14.71875 69.140625 
Q 20.953125 74.21875 31.78125 74.21875 
Q 42.671875 74.21875 48.875 69.140625 
Q 55.078125 64.0625 55.078125 55.328125 
Q 55.078125 49.078125 51.53125 44.71875 
Q 48 40.375 41.703125 38.8125 
Q 48.828125 37.15625 52.796875 32.3125 
Q 56.78125 27.484375 56.78125 20.515625 
Q 56.78125 9.90625 50.3125 4.234375 
Q 43.84375 -1.421875 31.78125 -1.421875 
Q 19.734375 -1.421875 13.25 4.234375 
Q 6.78125 9.90625 6.78125 20.515625 
Q 6.78125 27.484375 10.78125 32.3125 
Q 14.796875 37.15625 21.921875 38.8125 
z
M 18.3125 54.390625 
Q 18.3125 48.734375 21.84375 45.5625 
Q 25.390625 42.390625 31.78125 42.390625 
Q 38.140625 42.390625 41.71875 45.5625 
Q 45.3125 48.734375 45.3125 54.390625 
Q 45.3125 60.0625 41.71875 63.234375 
Q 38.140625 66.40625 31.78125 66.40625 
Q 25.390625 66.40625 21.84375 63.234375 
Q 18.3125 60.0625 18.3125 54.390625 
z
" id="DejaVuSans-56"/>
       </defs>
       <use xlink:href="#DejaVuSans-48"/>
       <use x="63.623047" xlink:href="#DejaVuSans-46"/>
       <use x="95.410156" xlink:href="#DejaVuSans-56"/>
      </g>
     </g>
    </g>
    <g id="xtick_6">
     <g id="line2d_11">
      <path clip-path="url(#p60944297d8)" d="M 398.487273 307.584 
L 398.487273 41.472 
" style="fill:none;stroke:#b0b0b0;stroke-linecap:square;stroke-width:0.8;"/>
     </g>
     <g id="line2d_12">
      <g>
       <use style="stroke:#000000;stroke-width:0.8;" x="398.487273" xlink:href="#m1148d0c134" y="307.584"/>
      </g>
     </g>
     <g id="text_6">
      <!-- 1.0 -->
      <g transform="translate(390.53571 322.182437)scale(0.1 -0.1)">
       <defs>
        <path d="M 12.40625 8.296875 
L 28.515625 8.296875 
L 28.515625 63.921875 
L 10.984375 60.40625 
L 10.984375 69.390625 
L 28.421875 72.90625 
L 38.28125 72.90625 
L 38.28125 8.296875 
L 54.390625 8.296875 
L 54.390625 0 
L 12.40625 0 
z
" id="DejaVuSans-49"/>
       </defs>
       <use xlink:href="#DejaVuSans-49"/>
       <use x="63.623047" xlink:href="#DejaVuSans-46"/>
       <use x="95.410156" xlink:href="#DejaVuSans-48"/>
      </g>
     </g>
    </g>
   </g>
   <g id="matplotlib.axis_2">
    <g id="ytick_1">
     <g id="line2d_13">
      <path clip-path="url(#p60944297d8)" d="M 57.6 292.143706 
L 414.72 292.143706 
" style="fill:none;stroke:#b0b0b0;stroke-linecap:square;stroke-width:0.8;"/>
     </g>
     <g id="line2d_14">
      <defs>
       <path d="M 0 0 
L -3.5 0 
" id="m0512df3daf" style="stroke:#000000;stroke-width:0.8;"/>
      </defs>
      <g>
       <use style="stroke:#000000;stroke-width:0.8;" x="57.6" xlink:href="#m0512df3daf" y="292.143706"/>
      </g>
     </g>
     <g id="text_7">
      <!-- −20 -->
      <g transform="translate(29.495313 295.942924)scale(0.1 -0.1)">
       <defs>
        <path d="M 10.59375 35.5 
L 73.1875 35.5 
L 73.1875 27.203125 
L 10.59375 27.203125 
z
" id="DejaVuSans-8722"/>
       </defs>
       <use xlink:href="#DejaVuSans-8722"/>
       <use x="83.789062" xlink:href="#DejaVuSans-50"/>
       <use x="147.412109" xlink:href="#DejaVuSans-48"/>
      </g>
     </g>
    </g>
    <g id="ytick_2">
     <g id="line2d_15">
      <path clip-path="url(#p60944297d8)" d="M 57.6 247.713767 
L 414.72 247.713767 
" style="fill:none;stroke:#b0b0b0;stroke-linecap:square;stroke-width:0.8;"/>
     </g>
     <g id="line2d_16">
      <g>
       <use style="stroke:#000000;stroke-width:0.8;" x="57.6" xlink:href="#m0512df3daf" y="247.713767"/>
      </g>
     </g>
     <g id="text_8">
      <!-- −10 -->
      <g transform="translate(29.495313 251.512986)scale(0.1 -0.1)">
       <use xlink:href="#DejaVuSans-8722"/>
       <use x="83.789062" xlink:href="#DejaVuSans-49"/>
       <use x="147.412109" xlink:href="#DejaVuSans-48"/>
      </g>
     </g>
    </g>
    <g id="ytick_3">
     <g id="line2d_17">
      <path clip-path="url(#p60944297d8)" d="M 57.6 203.283828 
L 414.72 203.283828 
" style="fill:none;stroke:#b0b0b0;stroke-linecap:square;stroke-width:0.8;"/>
     </g>
     <g id="line2d_18">
      <g>
       <use style="stroke:#000000;stroke-width:0.8;" x="57.6" xlink:href="#m0512df3daf" y="203.283828"/>
      </g>
     </g>
     <g id="text_9">
      <!-- 0 -->
      <g transform="translate(44.2375 207.083047)scale(0.1 -0.1)">
       <use xlink:href="#DejaVuSans-48"/>
      </g>
     </g>
    </g>
    <g id="ytick_4">
     <g id="line2d_19">
      <path clip-path="url(#p60944297d8)" d="M 57.6 158.85389 
L 414.72 158.85389 
" style="fill:none;stroke:#b0b0b0;stroke-linecap:square;stroke-width:0.8;"/>
     </g>
     <g id="line2d_20">
      <g>
       <use style="stroke:#000000;stroke-width:0.8;" x="57.6" xlink:href="#m0512df3daf" y="158.85389"/>
      </g>
     </g>
     <g id="text_10">
      <!-- 10 -->
      <g transform="translate(37.875 162.653108)scale(0.1 -0.1)">
       <use xlink:href="#DejaVuSans-49"/>
       <use x="63.623047" xlink:href="#DejaVuSans-48"/>
      </g>
     </g>
    </g>
    <g id="ytick_5">
     <g id="line2d_21">
      <path clip-path="url(#p60944297d8)" d="M 57.6 114.423951 
L 414.72 114.423951 
" style="fill:none;stroke:#b0b0b0;stroke-linecap:square;stroke-width:0.8;"/>
     </g>
     <g id="line2d_22">
      <g>
       <use style="stroke:#000000;stroke-width:0.8;" x="57.6" xlink:href="#m0512df3daf" y="114.423951"/>
      </g>
     </g>
     <g id="text_11">
      <!-- 20 -->
      <g transform="translate(37.875 118.22317)scale(0.1 -0.1)">
       <use xlink:href="#DejaVuSans-50"/>
       <use x="63.623047" xlink:href="#DejaVuSans-48"/>
      </g>
     </g>
    </g>
    <g id="ytick_6">
     <g id="line2d_23">
      <path clip-path="url(#p60944297d8)" d="M 57.6 69.994012 
L 414.72 69.994012 
" style="fill:none;stroke:#b0b0b0;stroke-linecap:square;stroke-width:0.8;"/>
     </g>
     <g id="line2d_24">
      <g>
       <use style="stroke:#000000;stroke-width:0.8;" x="57.6" xlink:href="#m0512df3daf" y="69.994012"/>
      </g>
     </g>
     <g id="text_12">
      <!-- 30 -->
      <g transform="translate(37.875 73.793231)scale(0.1 -0.1)">
       <defs>
        <path d="M 40.578125 39.3125 
Q 47.65625 37.796875 51.625 33 
Q 55.609375 28.21875 55.609375 21.1875 
Q 55.609375 10.40625 48.1875 4.484375 
Q 40.765625 -1.421875 27.09375 -1.421875 
Q 22.515625 -1.421875 17.65625 -0.515625 
Q 12.796875 0.390625 7.625 2.203125 
L 7.625 11.71875 
Q 11.71875 9.328125 16.59375 8.109375 
Q 21.484375 6.890625 26.8125 6.890625 
Q 36.078125 6.890625 40.9375 10.546875 
Q 45.796875 14.203125 45.796875 21.1875 
Q 45.796875 27.640625 41.28125 31.265625 
Q 36.765625 34.90625 28.71875 34.90625 
L 20.21875 34.90625 
L 20.21875 43.015625 
L 29.109375 43.015625 
Q 36.375 43.015625 40.234375 45.921875 
Q 44.09375 48.828125 44.09375 54.296875 
Q 44.09375 59.90625 40.109375 62.90625 
Q 36.140625 65.921875 28.71875 65.921875 
Q 24.65625 65.921875 20.015625 65.03125 
Q 15.375 64.15625 9.8125 62.3125 
L 9.8125 71.09375 
Q 15.4375 72.65625 20.34375 73.4375 
Q 25.25 74.21875 29.59375 74.21875 
Q 40.828125 74.21875 47.359375 69.109375 
Q 53.90625 64.015625 53.90625 55.328125 
Q 53.90625 49.265625 50.4375 45.09375 
Q 46.96875 40.921875 40.578125 39.3125 
z
" id="DejaVuSans-51"/>
       </defs>
       <use xlink:href="#DejaVuSans-51"/>
       <use x="63.623047" xlink:href="#DejaVuSans-48"/>
      </g>
     </g>
    </g>
   </g>
   <g id="line2d_25">
    <path clip-path="url(#p60944297d8)" d="M 73.832727 239.610549 
L 77.112066 240.30988 
L 80.391405 240.925733 
L 83.670744 241.45563 
L 86.950083 241.898046 
L 90.229421 242.25243 
L 93.50876 242.519211 
L 96.788099 242.699781 
L 100.067438 242.796459 
L 103.346777 242.812434 
L 106.626116 242.75169 
L 109.905455 242.618912 
L 113.184793 242.419378 
L 116.464132 242.158835 
L 119.743471 241.84337 
L 123.02281 241.479263 
L 126.302149 241.072851 
L 129.581488 240.630385 
L 132.860826 240.157886 
L 136.140165 239.661022 
L 139.419504 239.14499 
L 142.698843 238.614411 
L 145.978182 238.073256 
L 149.257521 237.52478 
L 152.53686 236.971493 
L 155.816198 236.415147 
L 159.095537 235.856759 
L 162.374876 235.296649 
L 165.654215 234.734519 
L 168.933554 234.169539 
L 172.212893 233.60047 
L 175.492231 233.025794 
L 178.77157 232.443863 
L 182.050909 231.853055 
L 185.330248 231.251939 
L 188.609587 230.63943 
L 191.888926 230.014944 
L 195.168264 229.378538 
L 198.447603 228.731028 
L 201.726942 228.07409 
L 205.006281 227.410329 
L 208.28562 226.74331 
L 211.564959 226.077569 
L 214.844298 225.418566 
L 218.123636 224.772619 
L 221.402975 224.146788 
L 224.682314 223.548724 
L 227.961653 222.986487 
L 231.240992 222.468331 
L 234.520331 222.002464 
L 237.799669 221.596787 
L 241.079008 221.258628 
L 244.358347 220.994458 
L 247.637686 220.80962 
L 250.917025 220.708069 
L 254.196364 220.692121 
L 257.475702 220.762248 
L 260.755041 220.916889 
L 264.03438 221.152316 
L 267.313719 221.462546 
L 270.593058 221.8393 
L 273.872397 222.272026 
L 277.151736 222.747979 
L 280.431074 223.252358 
L 283.710413 223.768499 
L 286.989752 224.278133 
L 290.269091 224.761683 
L 293.54843 225.198614 
L 296.827769 225.56782 
L 300.107107 225.848034 
L 303.386446 226.018271 
L 306.665785 226.058267 
L 309.945124 225.948925 
L 313.224463 225.67275 
L 316.503802 225.21426 
L 319.78314 224.560364 
L 323.062479 223.700698 
L 326.341818 222.627915 
L 329.621157 221.337911 
L 332.900496 219.829992 
L 336.179835 218.106972 
L 339.459174 216.175193 
L 342.738512 214.044488 
L 346.017851 211.728056 
L 349.29719 209.242282 
L 352.576529 206.606484 
L 355.855868 203.842602 
L 359.135207 200.974846 
L 362.414545 198.029282 
L 365.693884 195.033403 
L 368.973223 192.015661 
L 372.252562 189.004996 
L 375.531901 186.030354 
L 378.81124 183.120218 
L 382.090579 180.302148 
L 385.369917 177.602355 
L 388.649256 175.045305 
L 391.928595 172.653367 
L 395.207934 170.446504 
L 398.487273 168.442025 
" style="fill:none;stroke:#0000ff;stroke-linecap:square;stroke-width:1.5;"/>
   </g>
   <g id="line2d_26">
    <path clip-path="url(#p60944297d8)" d="M 73.832727 222.990469 
L 77.112066 224.779289 
L 80.391405 226.097418 
L 83.670744 227.035909 
L 86.950083 227.676473 
L 90.229421 228.089629 
L 93.50876 228.333728 
L 96.788099 228.454807 
L 100.067438 228.487188 
L 103.346777 228.454672 
L 106.626116 228.372174 
L 109.905455 228.247605 
L 113.184793 228.083836 
L 116.464132 227.880578 
L 119.743471 227.63605 
L 123.02281 227.348329 
L 126.302149 227.01635 
L 129.581488 226.640511 
L 132.860826 226.222928 
L 136.140165 225.767373 
L 139.419504 225.278973 
L 142.698843 224.763751 
L 145.978182 224.228079 
L 149.257521 223.678143 
L 152.53686 223.119458 
L 155.816198 222.556491 
L 159.095537 221.992426 
L 162.374876 221.429062 
L 165.654215 220.866861 
L 168.933554 220.305098 
L 172.212893 219.742113 
L 175.492231 219.175613 
L 178.77157 218.602996 
L 182.050909 218.021678 
L 185.330248 217.429386 
L 188.609587 216.824408 
L 191.888926 216.205787 
L 195.168264 215.573468 
L 198.447603 214.928378 
L 201.726942 214.272466 
L 205.006281 213.608706 
L 208.28562 212.941057 
L 211.564959 212.274412 
L 214.844298 211.614509 
L 218.123636 210.967846 
L 221.402975 210.341557 
L 224.682314 209.743281 
L 227.961653 209.18101 
L 231.240992 208.662904 
L 234.520331 208.197086 
L 237.799669 207.791409 
L 241.079008 207.453201 
L 244.358347 207.188981 
L 247.637686 207.004177 
L 250.917025 206.902837 
L 254.196364 206.887348 
L 257.475702 206.958192 
L 260.755041 207.113732 
L 264.03438 207.350063 
L 267.313719 207.660923 
L 270.593058 208.037675 
L 273.872397 208.469376 
L 277.151736 208.94291 
L 280.431074 209.443201 
L 283.710413 209.953477 
L 286.989752 210.45558 
L 290.269091 210.930306 
L 293.54843 211.357747 
L 296.827769 211.717638 
L 300.107107 211.989677 
L 303.386446 212.15383 
L 306.665785 212.190609 
L 309.945124 212.081338 
L 313.224463 211.808417 
L 316.503802 211.355604 
L 319.78314 210.708329 
L 323.062479 209.854061 
L 326.341818 208.782738 
L 329.621157 207.48725 
L 332.900496 205.963976 
L 336.179835 204.213322 
L 339.459174 202.240235 
L 342.738512 200.054614 
L 346.017851 197.671555 
L 349.29719 195.111349 
L 352.576529 192.399164 
L 355.855868 189.564345 
L 359.135207 186.639304 
L 362.414545 183.657975 
L 365.693884 180.653886 
L 368.973223 177.657898 
L 372.252562 174.695724 
L 375.531901 171.78538 
L 378.81124 168.934735 
L 382.090579 166.139347 
L 385.369917 163.380782 
L 388.649256 160.625584 
L 391.928595 157.825051 
L 395.207934 154.915912 
L 398.487273 151.821944 
" style="fill:none;stroke:#000000;stroke-linecap:square;stroke-width:0.5;"/>
   </g>
   <g id="line2d_27">
    <path clip-path="url(#p60944297d8)" d="M 73.832727 256.23063 
L 77.112066 255.840472 
L 80.391405 255.754048 
L 83.670744 255.875352 
L 86.950083 256.119619 
L 90.229421 256.415231 
L 93.50876 256.704694 
L 96.788099 256.944756 
L 100.067438 257.105731 
L 103.346777 257.170197 
L 106.626116 257.131206 
L 109.905455 256.99022 
L 113.184793 256.75492 
L 116.464132 256.437093 
L 119.743471 256.050689 
L 123.02281 255.610196 
L 126.302149 255.129353 
L 129.581488 254.620259 
L 132.860826 254.092844 
L 136.140165 253.554672 
L 139.419504 253.011006 
L 142.698843 252.465072 
L 145.978182 251.918433 
L 149.257521 251.371417 
L 152.53686 250.823528 
L 155.816198 250.273803 
L 159.095537 249.721092 
L 162.374876 249.164236 
L 165.654215 248.602177 
L 168.933554 248.03398 
L 172.212893 247.458828 
L 175.492231 246.875976 
L 178.77157 246.28473 
L 182.050909 245.684433 
L 185.330248 245.074492 
L 188.609587 244.454453 
L 191.888926 243.824101 
L 195.168264 243.183607 
L 198.447603 242.533678 
L 201.726942 241.875715 
L 205.006281 241.211952 
L 208.28562 240.545563 
L 211.564959 239.880726 
L 214.844298 239.222622 
L 218.123636 238.577392 
L 221.402975 237.95202 
L 224.682314 237.354167 
L 227.961653 236.791965 
L 231.240992 236.273759 
L 234.520331 235.807842 
L 237.799669 235.402166 
L 241.079008 235.064056 
L 244.358347 234.799936 
L 247.637686 234.615064 
L 250.917025 234.5133 
L 254.196364 234.496894 
L 257.475702 234.566304 
L 260.755041 234.720046 
L 264.03438 234.954569 
L 267.313719 235.264169 
L 270.593058 235.640924 
L 273.872397 236.074676 
L 277.151736 236.553049 
L 280.431074 237.061515 
L 283.710413 237.583522 
L 286.989752 238.100686 
L 290.269091 238.59306 
L 293.54843 239.039482 
L 296.827769 239.418001 
L 300.107107 239.706391 
L 303.386446 239.882712 
L 306.665785 239.925925 
L 309.945124 239.816512 
L 313.224463 239.537083 
L 316.503802 239.072916 
L 319.78314 238.412399 
L 323.062479 237.547334 
L 326.341818 236.473092 
L 329.621157 235.188571 
L 332.900496 233.696009 
L 336.179835 232.000621 
L 339.459174 230.110151 
L 342.738512 228.034362 
L 346.017851 225.784558 
L 349.29719 223.373216 
L 352.576529 220.813804 
L 355.855868 218.12086 
L 359.135207 215.310388 
L 362.414545 212.40059 
L 365.693884 209.412919 
L 368.973223 206.373423 
L 372.252562 203.314267 
L 375.531901 200.275328 
L 378.81124 197.305701 
L 382.090579 194.464949 
L 385.369917 191.823928 
L 388.649256 189.465027 
L 391.928595 187.481682 
L 395.207934 185.977095 
L 398.487273 185.062105 
" style="fill:none;stroke:#000000;stroke-linecap:square;stroke-width:0.5;"/>
   </g>
   <g id="line2d_28">
    <path clip-path="url(#p60944297d8)" d="M 73.832727 189.097142 
L 77.112066 191.543402 
L 80.391405 193.810023 
L 83.670744 195.891631 
L 86.950083 197.784918 
L 90.229421 199.488687 
L 93.50876 201.003862 
L 96.788099 202.333454 
L 100.067438 203.482485 
L 103.346777 204.457858 
L 106.626116 205.268202 
L 109.905455 205.923665 
L 113.184793 206.435677 
L 116.464132 206.816687 
L 119.743471 207.079876 
L 123.02281 207.238852 
L 126.302149 207.30734 
L 129.581488 207.298875 
L 132.860826 207.226503 
L 136.140165 207.1025 
L 139.419504 206.938119 
L 142.698843 206.743372 
L 145.978182 206.526855 
L 149.257521 206.29562 
L 152.53686 206.055097 
L 155.816198 205.809081 
L 159.095537 205.559768 
L 162.374876 205.30785 
L 165.654215 205.052673 
L 168.933554 204.792437 
L 172.212893 204.524452 
L 175.492231 204.245423 
L 178.77157 203.951776 
L 182.050909 203.639993 
L 185.330248 203.306966 
L 188.609587 202.950342 
L 191.888926 202.568849 
L 195.168264 202.162606 
L 198.447603 201.733378 
L 201.726942 201.284793 
L 205.006281 200.822485 
L 208.28562 200.354181 
L 211.564959 199.889696 
L 214.844298 199.440864 
L 218.123636 199.021366 
L 221.402975 198.646493 
L 224.682314 198.33282 
L 227.961653 198.097806 
L 231.240992 197.959328 
L 234.520331 197.935167 
L 237.799669 198.042441 
L 241.079008 198.297018 
L 244.358347 198.712915 
L 247.637686 199.301707 
L 250.917025 200.071954 
L 254.196364 201.028675 
L 257.475702 202.172883 
L 260.755041 203.501193 
L 264.03438 205.005524 
L 267.313719 206.672903 
L 270.593058 208.48539 
L 273.872397 210.420118 
L 277.151736 212.449466 
L 280.431074 214.541356 
L 283.710413 216.659682 
L 286.989752 218.764852 
L 290.269091 220.814444 
L 293.54843 222.763959 
L 296.827769 224.56766 
L 300.107107 226.179466 
L 303.386446 227.553899 
L 306.665785 228.647049 
L 309.945124 229.417533 
L 313.224463 229.827441 
L 316.503802 229.84322 
L 319.78314 229.436501 
L 323.062479 228.584823 
L 326.341818 227.272263 
L 329.621157 225.489924 
L 332.900496 223.236296 
L 336.179835 220.51747 
L 339.459174 217.347185 
L 342.738512 213.74674 
L 346.017851 209.744729 
L 349.29719 205.376648 
L 352.576529 200.684347 
L 355.855868 195.715365 
L 359.135207 190.522146 
L 362.414545 185.161168 
L 365.693884 179.691992 
L 368.973223 174.176264 
L 372.252562 168.676683 
L 375.531901 163.255962 
L 378.81124 157.975808 
L 382.090579 152.895933 
L 385.369917 148.073124 
L 388.649256 143.560388 
L 391.928595 139.406185 
L 395.207934 135.653766 
L 398.487273 132.340627 
" style="fill:none;stroke:#ffa500;stroke-linecap:square;stroke-width:1.5;"/>
   </g>
   <g id="line2d_29">
    <path clip-path="url(#p60944297d8)" d="M 73.832727 110.249818 
L 77.112066 117.827622 
L 80.391405 123.406915 
L 83.670744 127.421467 
L 86.950083 130.258782 
L 90.229421 132.251358 
L 93.50876 133.672083 
L 96.788099 134.733607 
L 100.067438 135.591233 
L 103.346777 136.348676 
L 106.626116 137.065914 
L 109.905455 137.768276 
L 113.184793 138.455932 
L 116.464132 139.113026 
L 119.743471 139.715833 
L 123.02281 140.239484 
L 126.302149 140.662979 
L 129.581488 140.972421 
L 132.860826 141.16254 
L 136.140165 141.236742 
L 139.419504 141.205988 
L 142.698843 141.086882 
L 145.978182 140.899337 
L 149.257521 140.664179 
L 152.53686 140.400972 
L 155.816198 140.12628 
L 159.095537 139.852498 
L 162.374876 139.58728 
L 165.654215 139.333562 
L 168.933554 139.090055 
L 172.212893 138.852114 
L 175.492231 138.61282 
L 178.77157 138.364142 
L 182.050909 138.098056 
L 185.330248 137.807522 
L 188.609587 137.48725 
L 191.888926 137.13424 
L 195.168264 136.748091 
L 198.447603 136.331096 
L 201.726942 135.888182 
L 205.006281 135.426726 
L 208.28562 134.956308 
L 211.564959 134.488431 
L 214.844298 134.036241 
L 218.123636 133.614261 
L 221.402975 133.238142 
L 224.682314 132.924409 
L 227.961653 132.690197 
L 231.240992 132.55295 
L 234.520331 132.530051 
L 237.799669 132.638389 
L 241.079008 132.89383 
L 244.358347 133.310622 
L 247.637686 133.900732 
L 250.917025 134.673155 
L 254.196364 135.633231 
L 257.475702 136.782021 
L 260.755041 138.115779 
L 264.03438 139.625582 
L 267.313719 141.297141 
L 270.593058 143.110827 
L 273.872397 145.041919 
L 277.151736 147.061052 
L 280.431074 149.134847 
L 283.710413 151.226669 
L 286.989752 153.297443 
L 290.269091 155.306476 
L 293.54843 157.212201 
L 296.827769 158.972814 
L 300.107107 160.546739 
L 303.386446 161.892951 
L 306.665785 162.971164 
L 309.945124 163.741949 
L 313.224463 164.166882 
L 316.503802 164.208821 
L 319.78314 163.832429 
L 323.062479 163.00505 
L 326.341818 161.697986 
L 329.621157 159.888207 
L 332.900496 157.560429 
L 336.179835 154.709419 
L 339.459174 151.342328 
L 342.738512 147.480742 
L 346.017851 143.162126 
L 349.29719 138.440288 
L 352.576529 133.384511 
L 355.855868 128.077056 
L 359.135207 122.608844 
L 362.414545 117.073256 
L 365.693884 111.558156 
L 368.973223 106.13645 
L 372.252562 100.855654 
L 375.531901 95.727131 
L 378.81124 90.715774 
L 382.090579 85.731013 
L 385.369917 80.619994 
L 388.649256 75.163758 
L 391.928595 69.077071 
L 395.207934 62.012367 
L 398.487273 53.568 
" style="fill:none;stroke:#000000;stroke-linecap:square;stroke-width:0.5;"/>
   </g>
   <g id="line2d_30">
    <path clip-path="url(#p60944297d8)" d="M 73.832727 267.944466 
L 77.112066 265.259182 
L 80.391405 264.21313 
L 83.670744 264.361796 
L 86.950083 265.311055 
L 90.229421 266.726016 
L 93.50876 268.33564 
L 96.788099 269.933301 
L 100.067438 271.373736 
L 103.346777 272.56704 
L 106.626116 273.47049 
L 109.905455 274.079053 
L 113.184793 274.415421 
L 116.464132 274.520349 
L 119.743471 274.44392 
L 123.02281 274.23822 
L 126.302149 273.951701 
L 129.581488 273.625329 
L 132.860826 273.290466 
L 136.140165 272.968258 
L 139.419504 272.67025 
L 142.698843 272.399862 
L 145.978182 272.154374 
L 149.257521 271.92706 
L 152.53686 271.709222 
L 155.816198 271.491882 
L 159.095537 271.267038 
L 162.374876 271.028419 
L 165.654215 270.771783 
L 168.933554 270.494819 
L 172.212893 270.19679 
L 175.492231 269.878027 
L 178.77157 269.53941 
L 182.050909 269.18193 
L 185.330248 268.806411 
L 188.609587 268.413434 
L 191.888926 268.003458 
L 195.168264 267.577121 
L 198.447603 267.135661 
L 201.726942 266.681404 
L 205.006281 266.218244 
L 208.28562 265.752053 
L 211.564959 265.290962 
L 214.844298 264.845487 
L 218.123636 264.428471 
L 221.402975 264.054845 
L 224.682314 263.741232 
L 227.961653 263.505414 
L 231.240992 263.365706 
L 234.520331 263.340283 
L 237.799669 263.446493 
L 241.079008 263.700205 
L 244.358347 264.115209 
L 247.637686 264.702683 
L 250.917025 265.470754 
L 254.196364 266.42412 
L 257.475702 267.563746 
L 260.755041 268.886607 
L 264.03438 270.385466 
L 267.313719 272.048666 
L 270.593058 273.859953 
L 273.872397 275.798317 
L 277.151736 277.83788 
L 280.431074 279.947865 
L 283.710413 282.092695 
L 286.989752 284.232261 
L 290.269091 286.322412 
L 293.54843 288.315718 
L 296.827769 290.162507 
L 300.107107 291.812194 
L 303.386446 293.214847 
L 306.665785 294.322933 
L 309.945124 295.093117 
L 313.224463 295.488 
L 316.503802 295.47762 
L 319.78314 295.040572 
L 323.062479 294.164596 
L 326.341818 292.84654 
L 329.621157 291.09164 
L 332.900496 288.912164 
L 336.179835 286.32552 
L 339.459174 283.352043 
L 342.738512 280.012738 
L 346.017851 276.327332 
L 349.29719 272.313007 
L 352.576529 267.984183 
L 355.855868 263.353674 
L 359.135207 258.435448 
L 362.414545 253.24908 
L 365.693884 247.825828 
L 368.973223 242.216078 
L 372.252562 236.497711 
L 375.531901 230.784792 
L 378.81124 225.235841 
L 382.090579 220.060853 
L 385.369917 215.526255 
L 388.649256 211.957018 
L 391.928595 209.735298 
L 395.207934 209.295164 
L 398.487273 211.113255 
" style="fill:none;stroke:#000000;stroke-linecap:square;stroke-width:0.5;"/>
   </g>
   <g id="line2d_31">
    <path clip-path="url(#p60944297d8)" d="M 73.832727 239.878081 
L 77.112066 240.537478 
L 80.391405 241.174908 
L 83.670744 241.769603 
L 86.950083 242.303579 
L 90.229421 242.761834 
L 93.50876 243.132478 
L 96.788099 243.406776 
L 100.067438 243.579111 
L 103.346777 243.646879 
L 106.626116 243.610319 
L 109.905455 243.472278 
L 113.184793 243.237929 
L 116.464132 242.914445 
L 119.743471 242.510646 
L 123.02281 242.036618 
L 126.302149 241.503327 
L 129.581488 240.922232 
L 132.860826 240.304902 
L 136.140165 239.662662 
L 139.419504 239.006257 
L 142.698843 238.345562 
L 145.978182 237.689324 
L 149.257521 237.044962 
L 152.53686 236.41841 
L 155.816198 235.814024 
L 159.095537 235.234533 
L 162.374876 234.681059 
L 165.654215 234.153177 
L 168.933554 233.649037 
L 172.212893 233.165521 
L 175.492231 232.698449 
L 178.77157 232.242813 
L 182.050909 231.793039 
L 185.330248 231.343265 
L 188.609587 230.887629 
L 191.888926 230.420557 
L 195.168264 229.937041 
L 198.447603 229.432901 
L 201.726942 228.905019 
L 205.006281 228.351545 
L 208.28562 227.772054 
L 211.564959 227.167668 
L 214.844298 226.541116 
L 218.123636 225.896754 
L 221.402975 225.240516 
L 224.682314 224.579821 
L 227.961653 223.923416 
L 231.240992 223.281176 
L 234.520331 222.663846 
L 237.799669 222.082751 
L 241.079008 221.54946 
L 244.358347 221.075432 
L 247.637686 220.671633 
L 250.917025 220.348149 
L 254.196364 220.1138 
L 257.475702 219.975759 
L 260.755041 219.939199 
L 264.03438 220.006967 
L 267.313719 220.179302 
L 270.593058 220.4536 
L 273.872397 220.824244 
L 277.151736 221.282499 
L 280.431074 221.816475 
L 283.710413 222.41117 
L 286.989752 223.0486 
L 290.269091 223.707997 
L 293.54843 224.366098 
L 296.827769 224.997508 
L 300.107107 225.575136 
L 303.386446 226.070699 
L 306.665785 226.455285 
L 309.945124 226.699969 
L 313.224463 226.776456 
L 316.503802 226.657762 
L 319.78314 226.318903 
L 323.062479 225.737573 
L 326.341818 224.894817 
L 329.621157 223.775665 
L 332.900496 222.369714 
L 336.179835 220.671652 
L 339.459174 218.681705 
L 342.738512 216.40599 
L 346.017851 213.856766 
L 349.29719 211.052577 
L 352.576529 208.01827 
L 355.855868 204.784885 
L 359.135207 201.389419 
L 362.414545 197.874453 
L 365.693884 194.287653 
L 368.973223 190.681137 
L 372.252562 187.110728 
L 375.531901 183.635095 
L 378.81124 180.314787 
L 382.090579 177.211193 
L 385.369917 174.385428 
L 388.649256 171.897164 
L 391.928595 169.803438 
L 395.207934 168.157452 
L 398.487273 167.007379 
" style="fill:none;stroke:#0000ff;stroke-dasharray:5.55,2.4;stroke-dashoffset:0;stroke-width:1.5;"/>
   </g>
   <g id="line2d_32">
    <path clip-path="url(#p60944297d8)" d="M 73.832727 189.389654 
L 77.112066 191.606022 
L 80.391405 193.778457 
L 83.670744 195.865422 
L 86.950083 197.830947 
L 90.229421 199.645032 
L 93.50876 201.283895 
L 96.788099 202.730066 
L 100.067438 203.972309 
L 103.346777 205.00542 
L 106.626116 205.829875 
L 109.905455 206.451368 
L 113.184793 206.880244 
L 116.464132 207.130851 
L 119.743471 207.220826 
L 123.02281 207.170345 
L 126.302149 207.001338 
L 129.581488 206.736722 
L 132.860826 206.399637 
L 136.140165 206.012731 
L 139.419504 205.597497 
L 142.698843 205.173681 
L 145.978182 204.75878 
L 149.257521 204.36763 
L 152.53686 204.012101 
L 155.816198 203.700902 
L 159.095537 203.439495 
L 162.374876 203.230122 
L 165.654215 203.071933 
L 168.933554 202.961227 
L 172.212893 202.891769 
L 175.492231 202.855199 
L 178.77157 202.841502 
L 182.050909 202.839529 
L 185.330248 202.837556 
L 188.609587 202.823858 
L 191.888926 202.787289 
L 195.168264 202.717831 
L 198.447603 202.607125 
L 201.726942 202.448936 
L 205.006281 202.239562 
L 208.28562 201.978156 
L 211.564959 201.666957 
L 214.844298 201.311428 
L 218.123636 200.920278 
L 221.402975 200.505377 
L 224.682314 200.081561 
L 227.961653 199.666327 
L 231.240992 199.279421 
L 234.520331 198.942336 
L 237.799669 198.67772 
L 241.079008 198.508713 
L 244.358347 198.458231 
L 247.637686 198.548207 
L 250.917025 198.798814 
L 254.196364 199.22769 
L 257.475702 199.849183 
L 260.755041 200.673638 
L 264.03438 201.706749 
L 267.313719 202.948992 
L 270.593058 204.395162 
L 273.872397 206.034026 
L 277.151736 207.848111 
L 280.431074 209.813636 
L 283.710413 211.900601 
L 286.989752 214.073036 
L 290.269091 216.289404 
L 293.54843 218.503181 
L 296.827769 220.663575 
L 300.107107 222.716405 
L 303.386446 224.605105 
L 306.665785 226.271853 
L 309.945124 227.658795 
L 313.224463 228.709343 
L 316.503802 229.369531 
L 319.78314 229.589386 
L 323.062479 229.3243 
L 326.341818 228.536364 
L 329.621157 227.195635 
L 332.900496 225.281307 
L 336.179835 222.782758 
L 339.459174 219.700439 
L 342.738512 216.046582 
L 346.017851 211.845709 
L 349.29719 207.134906 
L 352.576529 201.963866 
L 355.855868 196.39467 
L 359.135207 190.501312 
L 362.414545 184.368955 
L 365.693884 178.092929 
L 368.973223 171.777472 
L 372.252562 165.534229 
L 375.531901 159.480537 
L 378.81124 153.737495 
L 382.090579 148.427883 
L 385.369917 143.673927 
L 388.649256 139.594973 
L 391.928595 136.305097 
L 395.207934 133.910699 
L 398.487273 132.508127 
" style="fill:none;stroke:#ffa500;stroke-dasharray:5.55,2.4;stroke-dashoffset:0;stroke-width:1.5;"/>
   </g>
   <g id="patch_3">
    <path d="M 57.6 307.584 
L 57.6 41.472 
" style="fill:none;stroke:#000000;stroke-linecap:square;stroke-linejoin:miter;stroke-width:0.8;"/>
   </g>
   <g id="patch_4">
    <path d="M 414.72 307.584 
L 414.72 41.472 
" style="fill:none;stroke:#000000;stroke-linecap:square;stroke-linejoin:miter;stroke-width:0.8;"/>
   </g>
   <g id="patch_5">
    <path d="M 57.6 307.584 
L 414.72 307.584 
" style="fill:none;stroke:#000000;stroke-linecap:square;stroke-linejoin:miter;stroke-width:0.8;"/>
   </g>
   <g id="patch_6">
    <path d="M 57.6 41.472 
L 414.72 41.472 
" style="fill:none;stroke:#000000;stroke-linecap:square;stroke-linejoin:miter;stroke-width:0.8;"/>
   </g>
   <g id="legend_1">
    <g id="patch_7">
     <path d="M 64.6 108.1845 
L 239.15625 108.1845 
Q 241.15625 108.1845 241.15625 106.1845 
L 241.15625 48.472 
Q 241.15625 46.472 239.15625 46.472 
L 64.6 46.472 
Q 62.6 46.472 62.6 48.472 
L 62.6 106.1845 
Q 62.6 108.1845 64.6 108.1845 
z
" style="fill:#ffffff;opacity:0.8;stroke:#cccccc;stroke-linejoin:miter;"/>
    </g>
    <g id="line2d_33">
     <path d="M 66.6 54.570438 
L 86.6 54.570438 
" style="fill:none;stroke:#0000ff;stroke-linecap:square;stroke-width:1.5;"/>
    </g>
    <g id="line2d_34"/>
    <g id="text_13">
     <!-- MF cheap GPR (regular GPR) -->
     <g transform="translate(94.6 58.070438)scale(0.1 -0.1)">
      <defs>
       <path d="M 9.8125 72.90625 
L 24.515625 72.90625 
L 43.109375 23.296875 
L 61.8125 72.90625 
L 76.515625 72.90625 
L 76.515625 0 
L 66.890625 0 
L 66.890625 64.015625 
L 48.09375 14.015625 
L 38.1875 14.015625 
L 19.390625 64.015625 
L 19.390625 0 
L 9.8125 0 
z
" id="DejaVuSans-77"/>
       <path d="M 9.8125 72.90625 
L 51.703125 72.90625 
L 51.703125 64.59375 
L 19.671875 64.59375 
L 19.671875 43.109375 
L 48.578125 43.109375 
L 48.578125 34.8125 
L 19.671875 34.8125 
L 19.671875 0 
L 9.8125 0 
z
" id="DejaVuSans-70"/>
       <path id="DejaVuSans-32"/>
       <path d="M 48.78125 52.59375 
L 48.78125 44.1875 
Q 44.96875 46.296875 41.140625 47.34375 
Q 37.3125 48.390625 33.40625 48.390625 
Q 24.65625 48.390625 19.8125 42.84375 
Q 14.984375 37.3125 14.984375 27.296875 
Q 14.984375 17.28125 19.8125 11.734375 
Q 24.65625 6.203125 33.40625 6.203125 
Q 37.3125 6.203125 41.140625 7.25 
Q 44.96875 8.296875 48.78125 10.40625 
L 48.78125 2.09375 
Q 45.015625 0.34375 40.984375 -0.53125 
Q 36.96875 -1.421875 32.421875 -1.421875 
Q 20.0625 -1.421875 12.78125 6.34375 
Q 5.515625 14.109375 5.515625 27.296875 
Q 5.515625 40.671875 12.859375 48.328125 
Q 20.21875 56 33.015625 56 
Q 37.15625 56 41.109375 55.140625 
Q 45.0625 54.296875 48.78125 52.59375 
z
" id="DejaVuSans-99"/>
       <path d="M 54.890625 33.015625 
L 54.890625 0 
L 45.90625 0 
L 45.90625 32.71875 
Q 45.90625 40.484375 42.875 44.328125 
Q 39.84375 48.1875 33.796875 48.1875 
Q 26.515625 48.1875 22.3125 43.546875 
Q 18.109375 38.921875 18.109375 30.90625 
L 18.109375 0 
L 9.078125 0 
L 9.078125 75.984375 
L 18.109375 75.984375 
L 18.109375 46.1875 
Q 21.34375 51.125 25.703125 53.5625 
Q 30.078125 56 35.796875 56 
Q 45.21875 56 50.046875 50.171875 
Q 54.890625 44.34375 54.890625 33.015625 
z
" id="DejaVuSans-104"/>
       <path d="M 56.203125 29.59375 
L 56.203125 25.203125 
L 14.890625 25.203125 
Q 15.484375 15.921875 20.484375 11.0625 
Q 25.484375 6.203125 34.421875 6.203125 
Q 39.59375 6.203125 44.453125 7.46875 
Q 49.3125 8.734375 54.109375 11.28125 
L 54.109375 2.78125 
Q 49.265625 0.734375 44.1875 -0.34375 
Q 39.109375 -1.421875 33.890625 -1.421875 
Q 20.796875 -1.421875 13.15625 6.1875 
Q 5.515625 13.8125 5.515625 26.8125 
Q 5.515625 40.234375 12.765625 48.109375 
Q 20.015625 56 32.328125 56 
Q 43.359375 56 49.78125 48.890625 
Q 56.203125 41.796875 56.203125 29.59375 
z
M 47.21875 32.234375 
Q 47.125 39.59375 43.09375 43.984375 
Q 39.0625 48.390625 32.421875 48.390625 
Q 24.90625 48.390625 20.390625 44.140625 
Q 15.875 39.890625 15.1875 32.171875 
z
" id="DejaVuSans-101"/>
       <path d="M 34.28125 27.484375 
Q 23.390625 27.484375 19.1875 25 
Q 14.984375 22.515625 14.984375 16.5 
Q 14.984375 11.71875 18.140625 8.90625 
Q 21.296875 6.109375 26.703125 6.109375 
Q 34.1875 6.109375 38.703125 11.40625 
Q 43.21875 16.703125 43.21875 25.484375 
L 43.21875 27.484375 
z
M 52.203125 31.203125 
L 52.203125 0 
L 43.21875 0 
L 43.21875 8.296875 
Q 40.140625 3.328125 35.546875 0.953125 
Q 30.953125 -1.421875 24.3125 -1.421875 
Q 15.921875 -1.421875 10.953125 3.296875 
Q 6 8.015625 6 15.921875 
Q 6 25.140625 12.171875 29.828125 
Q 18.359375 34.515625 30.609375 34.515625 
L 43.21875 34.515625 
L 43.21875 35.40625 
Q 43.21875 41.609375 39.140625 45 
Q 35.0625 48.390625 27.6875 48.390625 
Q 23 48.390625 18.546875 47.265625 
Q 14.109375 46.140625 10.015625 43.890625 
L 10.015625 52.203125 
Q 14.9375 54.109375 19.578125 55.046875 
Q 24.21875 56 28.609375 56 
Q 40.484375 56 46.34375 49.84375 
Q 52.203125 43.703125 52.203125 31.203125 
z
" id="DejaVuSans-97"/>
       <path d="M 18.109375 8.203125 
L 18.109375 -20.796875 
L 9.078125 -20.796875 
L 9.078125 54.6875 
L 18.109375 54.6875 
L 18.109375 46.390625 
Q 20.953125 51.265625 25.265625 53.625 
Q 29.59375 56 35.59375 56 
Q 45.5625 56 51.78125 48.09375 
Q 58.015625 40.1875 58.015625 27.296875 
Q 58.015625 14.40625 51.78125 6.484375 
Q 45.5625 -1.421875 35.59375 -1.421875 
Q 29.59375 -1.421875 25.265625 0.953125 
Q 20.953125 3.328125 18.109375 8.203125 
z
M 48.6875 27.296875 
Q 48.6875 37.203125 44.609375 42.84375 
Q 40.53125 48.484375 33.40625 48.484375 
Q 26.265625 48.484375 22.1875 42.84375 
Q 18.109375 37.203125 18.109375 27.296875 
Q 18.109375 17.390625 22.1875 11.75 
Q 26.265625 6.109375 33.40625 6.109375 
Q 40.53125 6.109375 44.609375 11.75 
Q 48.6875 17.390625 48.6875 27.296875 
z
" id="DejaVuSans-112"/>
       <path d="M 59.515625 10.40625 
L 59.515625 29.984375 
L 43.40625 29.984375 
L 43.40625 38.09375 
L 69.28125 38.09375 
L 69.28125 6.78125 
Q 63.578125 2.734375 56.6875 0.65625 
Q 49.8125 -1.421875 42 -1.421875 
Q 24.90625 -1.421875 15.25 8.5625 
Q 5.609375 18.5625 5.609375 36.375 
Q 5.609375 54.25 15.25 64.234375 
Q 24.90625 74.21875 42 74.21875 
Q 49.125 74.21875 55.546875 72.453125 
Q 61.96875 70.703125 67.390625 67.28125 
L 67.390625 56.78125 
Q 61.921875 61.421875 55.765625 63.765625 
Q 49.609375 66.109375 42.828125 66.109375 
Q 29.4375 66.109375 22.71875 58.640625 
Q 16.015625 51.171875 16.015625 36.375 
Q 16.015625 21.625 22.71875 14.15625 
Q 29.4375 6.6875 42.828125 6.6875 
Q 48.046875 6.6875 52.140625 7.59375 
Q 56.25 8.5 59.515625 10.40625 
z
" id="DejaVuSans-71"/>
       <path d="M 19.671875 64.796875 
L 19.671875 37.40625 
L 32.078125 37.40625 
Q 38.96875 37.40625 42.71875 40.96875 
Q 46.484375 44.53125 46.484375 51.125 
Q 46.484375 57.671875 42.71875 61.234375 
Q 38.96875 64.796875 32.078125 64.796875 
z
M 9.8125 72.90625 
L 32.078125 72.90625 
Q 44.34375 72.90625 50.609375 67.359375 
Q 56.890625 61.8125 56.890625 51.125 
Q 56.890625 40.328125 50.609375 34.8125 
Q 44.34375 29.296875 32.078125 29.296875 
L 19.671875 29.296875 
L 19.671875 0 
L 9.8125 0 
z
" id="DejaVuSans-80"/>
       <path d="M 44.390625 34.1875 
Q 47.5625 33.109375 50.5625 29.59375 
Q 53.5625 26.078125 56.59375 19.921875 
L 66.609375 0 
L 56 0 
L 46.6875 18.703125 
Q 43.0625 26.03125 39.671875 28.421875 
Q 36.28125 30.8125 30.421875 30.8125 
L 19.671875 30.8125 
L 19.671875 0 
L 9.8125 0 
L 9.8125 72.90625 
L 32.078125 72.90625 
Q 44.578125 72.90625 50.734375 67.671875 
Q 56.890625 62.453125 56.890625 51.90625 
Q 56.890625 45.015625 53.6875 40.46875 
Q 50.484375 35.9375 44.390625 34.1875 
z
M 19.671875 64.796875 
L 19.671875 38.921875 
L 32.078125 38.921875 
Q 39.203125 38.921875 42.84375 42.21875 
Q 46.484375 45.515625 46.484375 51.90625 
Q 46.484375 58.296875 42.84375 61.546875 
Q 39.203125 64.796875 32.078125 64.796875 
z
" id="DejaVuSans-82"/>
       <path d="M 31 75.875 
Q 24.46875 64.65625 21.28125 53.65625 
Q 18.109375 42.671875 18.109375 31.390625 
Q 18.109375 20.125 21.3125 9.0625 
Q 24.515625 -2 31 -13.1875 
L 23.1875 -13.1875 
Q 15.875 -1.703125 12.234375 9.375 
Q 8.59375 20.453125 8.59375 31.390625 
Q 8.59375 42.28125 12.203125 53.3125 
Q 15.828125 64.359375 23.1875 75.875 
z
" id="DejaVuSans-40"/>
       <path d="M 41.109375 46.296875 
Q 39.59375 47.171875 37.8125 47.578125 
Q 36.03125 48 33.890625 48 
Q 26.265625 48 22.1875 43.046875 
Q 18.109375 38.09375 18.109375 28.8125 
L 18.109375 0 
L 9.078125 0 
L 9.078125 54.6875 
L 18.109375 54.6875 
L 18.109375 46.1875 
Q 20.953125 51.171875 25.484375 53.578125 
Q 30.03125 56 36.53125 56 
Q 37.453125 56 38.578125 55.875 
Q 39.703125 55.765625 41.0625 55.515625 
z
" id="DejaVuSans-114"/>
       <path d="M 45.40625 27.984375 
Q 45.40625 37.75 41.375 43.109375 
Q 37.359375 48.484375 30.078125 48.484375 
Q 22.859375 48.484375 18.828125 43.109375 
Q 14.796875 37.75 14.796875 27.984375 
Q 14.796875 18.265625 18.828125 12.890625 
Q 22.859375 7.515625 30.078125 7.515625 
Q 37.359375 7.515625 41.375 12.890625 
Q 45.40625 18.265625 45.40625 27.984375 
z
M 54.390625 6.78125 
Q 54.390625 -7.171875 48.1875 -13.984375 
Q 42 -20.796875 29.203125 -20.796875 
Q 24.46875 -20.796875 20.265625 -20.09375 
Q 16.0625 -19.390625 12.109375 -17.921875 
L 12.109375 -9.1875 
Q 16.0625 -11.328125 19.921875 -12.34375 
Q 23.78125 -13.375 27.78125 -13.375 
Q 36.625 -13.375 41.015625 -8.765625 
Q 45.40625 -4.15625 45.40625 5.171875 
L 45.40625 9.625 
Q 42.625 4.78125 38.28125 2.390625 
Q 33.9375 0 27.875 0 
Q 17.828125 0 11.671875 7.65625 
Q 5.515625 15.328125 5.515625 27.984375 
Q 5.515625 40.671875 11.671875 48.328125 
Q 17.828125 56 27.875 56 
Q 33.9375 56 38.28125 53.609375 
Q 42.625 51.21875 45.40625 46.390625 
L 45.40625 54.6875 
L 54.390625 54.6875 
z
" id="DejaVuSans-103"/>
       <path d="M 8.5 21.578125 
L 8.5 54.6875 
L 17.484375 54.6875 
L 17.484375 21.921875 
Q 17.484375 14.15625 20.5 10.265625 
Q 23.53125 6.390625 29.59375 6.390625 
Q 36.859375 6.390625 41.078125 11.03125 
Q 45.3125 15.671875 45.3125 23.6875 
L 45.3125 54.6875 
L 54.296875 54.6875 
L 54.296875 0 
L 45.3125 0 
L 45.3125 8.40625 
Q 42.046875 3.421875 37.71875 1 
Q 33.40625 -1.421875 27.6875 -1.421875 
Q 18.265625 -1.421875 13.375 4.4375 
Q 8.5 10.296875 8.5 21.578125 
z
M 31.109375 56 
z
" id="DejaVuSans-117"/>
       <path d="M 9.421875 75.984375 
L 18.40625 75.984375 
L 18.40625 0 
L 9.421875 0 
z
" id="DejaVuSans-108"/>
       <path d="M 8.015625 75.875 
L 15.828125 75.875 
Q 23.140625 64.359375 26.78125 53.3125 
Q 30.421875 42.28125 30.421875 31.390625 
Q 30.421875 20.453125 26.78125 9.375 
Q 23.140625 -1.703125 15.828125 -13.1875 
L 8.015625 -13.1875 
Q 14.5 -2 17.703125 9.0625 
Q 20.90625 20.125 20.90625 31.390625 
Q 20.90625 42.671875 17.703125 53.65625 
Q 14.5 64.65625 8.015625 75.875 
z
" id="DejaVuSans-41"/>
      </defs>
      <use xlink:href="#DejaVuSans-77"/>
      <use x="86.279297" xlink:href="#DejaVuSans-70"/>
      <use x="143.798828" xlink:href="#DejaVuSans-32"/>
      <use x="175.585938" xlink:href="#DejaVuSans-99"/>
      <use x="230.566406" xlink:href="#DejaVuSans-104"/>
      <use x="293.945312" xlink:href="#DejaVuSans-101"/>
      <use x="355.46875" xlink:href="#DejaVuSans-97"/>
      <use x="416.748047" xlink:href="#DejaVuSans-112"/>
      <use x="480.224609" xlink:href="#DejaVuSans-32"/>
      <use x="512.011719" xlink:href="#DejaVuSans-71"/>
      <use x="589.501953" xlink:href="#DejaVuSans-80"/>
      <use x="649.804688" xlink:href="#DejaVuSans-82"/>
      <use x="719.287109" xlink:href="#DejaVuSans-32"/>
      <use x="751.074219" xlink:href="#DejaVuSans-40"/>
      <use x="790.087891" xlink:href="#DejaVuSans-114"/>
      <use x="828.951172" xlink:href="#DejaVuSans-101"/>
      <use x="890.474609" xlink:href="#DejaVuSans-103"/>
      <use x="953.951172" xlink:href="#DejaVuSans-117"/>
      <use x="1017.330078" xlink:href="#DejaVuSans-108"/>
      <use x="1045.113281" xlink:href="#DejaVuSans-97"/>
      <use x="1106.392578" xlink:href="#DejaVuSans-114"/>
      <use x="1147.505859" xlink:href="#DejaVuSans-32"/>
      <use x="1179.292969" xlink:href="#DejaVuSans-71"/>
      <use x="1256.783203" xlink:href="#DejaVuSans-80"/>
      <use x="1317.085938" xlink:href="#DejaVuSans-82"/>
      <use x="1386.568359" xlink:href="#DejaVuSans-41"/>
     </g>
    </g>
    <g id="line2d_35">
     <path d="M 66.6 69.248563 
L 86.6 69.248563 
" style="fill:none;stroke:#ffa500;stroke-linecap:square;stroke-width:1.5;"/>
    </g>
    <g id="line2d_36"/>
    <g id="text_14">
     <!-- MF expensive GPR -->
     <g transform="translate(94.6 72.748563)scale(0.1 -0.1)">
      <defs>
       <path d="M 54.890625 54.6875 
L 35.109375 28.078125 
L 55.90625 0 
L 45.3125 0 
L 29.390625 21.484375 
L 13.484375 0 
L 2.875 0 
L 24.125 28.609375 
L 4.6875 54.6875 
L 15.28125 54.6875 
L 29.78125 35.203125 
L 44.28125 54.6875 
z
" id="DejaVuSans-120"/>
       <path d="M 54.890625 33.015625 
L 54.890625 0 
L 45.90625 0 
L 45.90625 32.71875 
Q 45.90625 40.484375 42.875 44.328125 
Q 39.84375 48.1875 33.796875 48.1875 
Q 26.515625 48.1875 22.3125 43.546875 
Q 18.109375 38.921875 18.109375 30.90625 
L 18.109375 0 
L 9.078125 0 
L 9.078125 54.6875 
L 18.109375 54.6875 
L 18.109375 46.1875 
Q 21.34375 51.125 25.703125 53.5625 
Q 30.078125 56 35.796875 56 
Q 45.21875 56 50.046875 50.171875 
Q 54.890625 44.34375 54.890625 33.015625 
z
" id="DejaVuSans-110"/>
       <path d="M 44.28125 53.078125 
L 44.28125 44.578125 
Q 40.484375 46.53125 36.375 47.5 
Q 32.28125 48.484375 27.875 48.484375 
Q 21.1875 48.484375 17.84375 46.4375 
Q 14.5 44.390625 14.5 40.28125 
Q 14.5 37.15625 16.890625 35.375 
Q 19.28125 33.59375 26.515625 31.984375 
L 29.59375 31.296875 
Q 39.15625 29.25 43.1875 25.515625 
Q 47.21875 21.78125 47.21875 15.09375 
Q 47.21875 7.46875 41.1875 3.015625 
Q 35.15625 -1.421875 24.609375 -1.421875 
Q 20.21875 -1.421875 15.453125 -0.5625 
Q 10.6875 0.296875 5.421875 2 
L 5.421875 11.28125 
Q 10.40625 8.6875 15.234375 7.390625 
Q 20.0625 6.109375 24.8125 6.109375 
Q 31.15625 6.109375 34.5625 8.28125 
Q 37.984375 10.453125 37.984375 14.40625 
Q 37.984375 18.0625 35.515625 20.015625 
Q 33.0625 21.96875 24.703125 23.78125 
L 21.578125 24.515625 
Q 13.234375 26.265625 9.515625 29.90625 
Q 5.8125 33.546875 5.8125 39.890625 
Q 5.8125 47.609375 11.28125 51.796875 
Q 16.75 56 26.8125 56 
Q 31.78125 56 36.171875 55.265625 
Q 40.578125 54.546875 44.28125 53.078125 
z
" id="DejaVuSans-115"/>
       <path d="M 9.421875 54.6875 
L 18.40625 54.6875 
L 18.40625 0 
L 9.421875 0 
z
M 9.421875 75.984375 
L 18.40625 75.984375 
L 18.40625 64.59375 
L 9.421875 64.59375 
z
" id="DejaVuSans-105"/>
       <path d="M 2.984375 54.6875 
L 12.5 54.6875 
L 29.59375 8.796875 
L 46.6875 54.6875 
L 56.203125 54.6875 
L 35.6875 0 
L 23.484375 0 
z
" id="DejaVuSans-118"/>
      </defs>
      <use xlink:href="#DejaVuSans-77"/>
      <use x="86.279297" xlink:href="#DejaVuSans-70"/>
      <use x="143.798828" xlink:href="#DejaVuSans-32"/>
      <use x="175.585938" xlink:href="#DejaVuSans-101"/>
      <use x="235.359375" xlink:href="#DejaVuSans-120"/>
      <use x="294.539062" xlink:href="#DejaVuSans-112"/>
      <use x="358.015625" xlink:href="#DejaVuSans-101"/>
      <use x="419.539062" xlink:href="#DejaVuSans-110"/>
      <use x="482.917969" xlink:href="#DejaVuSans-115"/>
      <use x="535.017578" xlink:href="#DejaVuSans-105"/>
      <use x="562.800781" xlink:href="#DejaVuSans-118"/>
      <use x="621.980469" xlink:href="#DejaVuSans-101"/>
      <use x="683.503906" xlink:href="#DejaVuSans-32"/>
      <use x="715.291016" xlink:href="#DejaVuSans-71"/>
      <use x="792.78125" xlink:href="#DejaVuSans-80"/>
      <use x="853.083984" xlink:href="#DejaVuSans-82"/>
     </g>
    </g>
    <g id="line2d_37">
     <path d="M 66.6 83.926688 
L 86.6 83.926688 
" style="fill:none;stroke:#0000ff;stroke-dasharray:5.55,2.4;stroke-dashoffset:0;stroke-width:1.5;"/>
    </g>
    <g id="line2d_38"/>
    <g id="text_15">
     <!-- Exact cheap function -->
     <g transform="translate(94.6 87.426688)scale(0.1 -0.1)">
      <defs>
       <path d="M 9.8125 72.90625 
L 55.90625 72.90625 
L 55.90625 64.59375 
L 19.671875 64.59375 
L 19.671875 43.015625 
L 54.390625 43.015625 
L 54.390625 34.71875 
L 19.671875 34.71875 
L 19.671875 8.296875 
L 56.78125 8.296875 
L 56.78125 0 
L 9.8125 0 
z
" id="DejaVuSans-69"/>
       <path d="M 18.3125 70.21875 
L 18.3125 54.6875 
L 36.8125 54.6875 
L 36.8125 47.703125 
L 18.3125 47.703125 
L 18.3125 18.015625 
Q 18.3125 11.328125 20.140625 9.421875 
Q 21.96875 7.515625 27.59375 7.515625 
L 36.8125 7.515625 
L 36.8125 0 
L 27.59375 0 
Q 17.1875 0 13.234375 3.875 
Q 9.28125 7.765625 9.28125 18.015625 
L 9.28125 47.703125 
L 2.6875 47.703125 
L 2.6875 54.6875 
L 9.28125 54.6875 
L 9.28125 70.21875 
z
" id="DejaVuSans-116"/>
       <path d="M 37.109375 75.984375 
L 37.109375 68.5 
L 28.515625 68.5 
Q 23.6875 68.5 21.796875 66.546875 
Q 19.921875 64.59375 19.921875 59.515625 
L 19.921875 54.6875 
L 34.71875 54.6875 
L 34.71875 47.703125 
L 19.921875 47.703125 
L 19.921875 0 
L 10.890625 0 
L 10.890625 47.703125 
L 2.296875 47.703125 
L 2.296875 54.6875 
L 10.890625 54.6875 
L 10.890625 58.5 
Q 10.890625 67.625 15.140625 71.796875 
Q 19.390625 75.984375 28.609375 75.984375 
z
" id="DejaVuSans-102"/>
       <path d="M 30.609375 48.390625 
Q 23.390625 48.390625 19.1875 42.75 
Q 14.984375 37.109375 14.984375 27.296875 
Q 14.984375 17.484375 19.15625 11.84375 
Q 23.34375 6.203125 30.609375 6.203125 
Q 37.796875 6.203125 41.984375 11.859375 
Q 46.1875 17.53125 46.1875 27.296875 
Q 46.1875 37.015625 41.984375 42.703125 
Q 37.796875 48.390625 30.609375 48.390625 
z
M 30.609375 56 
Q 42.328125 56 49.015625 48.375 
Q 55.71875 40.765625 55.71875 27.296875 
Q 55.71875 13.875 49.015625 6.21875 
Q 42.328125 -1.421875 30.609375 -1.421875 
Q 18.84375 -1.421875 12.171875 6.21875 
Q 5.515625 13.875 5.515625 27.296875 
Q 5.515625 40.765625 12.171875 48.375 
Q 18.84375 56 30.609375 56 
z
" id="DejaVuSans-111"/>
      </defs>
      <use xlink:href="#DejaVuSans-69"/>
      <use x="63.183594" xlink:href="#DejaVuSans-120"/>
      <use x="122.363281" xlink:href="#DejaVuSans-97"/>
      <use x="183.642578" xlink:href="#DejaVuSans-99"/>
      <use x="238.623047" xlink:href="#DejaVuSans-116"/>
      <use x="277.832031" xlink:href="#DejaVuSans-32"/>
      <use x="309.619141" xlink:href="#DejaVuSans-99"/>
      <use x="364.599609" xlink:href="#DejaVuSans-104"/>
      <use x="427.978516" xlink:href="#DejaVuSans-101"/>
      <use x="489.501953" xlink:href="#DejaVuSans-97"/>
      <use x="550.78125" xlink:href="#DejaVuSans-112"/>
      <use x="614.257812" xlink:href="#DejaVuSans-32"/>
      <use x="646.044922" xlink:href="#DejaVuSans-102"/>
      <use x="681.25" xlink:href="#DejaVuSans-117"/>
      <use x="744.628906" xlink:href="#DejaVuSans-110"/>
      <use x="808.007812" xlink:href="#DejaVuSans-99"/>
      <use x="862.988281" xlink:href="#DejaVuSans-116"/>
      <use x="902.197266" xlink:href="#DejaVuSans-105"/>
      <use x="929.980469" xlink:href="#DejaVuSans-111"/>
      <use x="991.162109" xlink:href="#DejaVuSans-110"/>
     </g>
    </g>
    <g id="line2d_39">
     <path d="M 66.6 98.604813 
L 86.6 98.604813 
" style="fill:none;stroke:#ffa500;stroke-dasharray:5.55,2.4;stroke-dashoffset:0;stroke-width:1.5;"/>
    </g>
    <g id="line2d_40"/>
    <g id="text_16">
     <!-- Exact expensive function -->
     <g transform="translate(94.6 102.104813)scale(0.1 -0.1)">
      <use xlink:href="#DejaVuSans-69"/>
      <use x="63.183594" xlink:href="#DejaVuSans-120"/>
      <use x="122.363281" xlink:href="#DejaVuSans-97"/>
      <use x="183.642578" xlink:href="#DejaVuSans-99"/>
      <use x="238.623047" xlink:href="#DejaVuSans-116"/>
      <use x="277.832031" xlink:href="#DejaVuSans-32"/>
      <use x="309.619141" xlink:href="#DejaVuSans-101"/>
      <use x="369.392578" xlink:href="#DejaVuSans-120"/>
      <use x="428.572266" xlink:href="#DejaVuSans-112"/>
      <use x="492.048828" xlink:href="#DejaVuSans-101"/>
      <use x="553.572266" xlink:href="#DejaVuSans-110"/>
      <use x="616.951172" xlink:href="#DejaVuSans-115"/>
      <use x="669.050781" xlink:href="#DejaVuSans-105"/>
      <use x="696.833984" xlink:href="#DejaVuSans-118"/>
      <use x="756.013672" xlink:href="#DejaVuSans-101"/>
      <use x="817.537109" xlink:href="#DejaVuSans-32"/>
      <use x="849.324219" xlink:href="#DejaVuSans-102"/>
      <use x="884.529297" xlink:href="#DejaVuSans-117"/>
      <use x="947.908203" xlink:href="#DejaVuSans-110"/>
      <use x="1011.287109" xlink:href="#DejaVuSans-99"/>
      <use x="1066.267578" xlink:href="#DejaVuSans-116"/>
      <use x="1105.476562" xlink:href="#DejaVuSans-105"/>
      <use x="1133.259766" xlink:href="#DejaVuSans-111"/>
      <use x="1194.441406" xlink:href="#DejaVuSans-110"/>
     </g>
    </g>
   </g>
  </g>
 </g>
 <defs>
  <clipPath id="p60944297d8">
   <rect height="266.112" width="357.12" x="57.6" y="41.472"/>
  </clipPath>
 </defs>
</svg>
