<?xml version="1.0" encoding="utf-8" standalone="no"?>
<!DOCTYPE svg PUBLIC "-//W3C//DTD SVG 1.1//EN"
  "http://www.w3.org/Graphics/SVG/1.1/DTD/svg11.dtd">
<!-- Created with matplotlib (https://matplotlib.org/) -->
<svg height="345.6pt" version="1.1" viewBox="0 0 460.8 345.6" width="460.8pt" xmlns="http://www.w3.org/2000/svg" xmlns:xlink="http://www.w3.org/1999/xlink">
 <metadata>
  <rdf:RDF xmlns:cc="http://creativecommons.org/ns#" xmlns:dc="http://purl.org/dc/elements/1.1/" xmlns:rdf="http://www.w3.org/1999/02/22-rdf-syntax-ns#">
   <cc:Work>
    <dc:type rdf:resource="http://purl.org/dc/dcmitype/StillImage"/>
    <dc:date>2020-11-24T14:04:18.355969</dc:date>
    <dc:format>image/svg+xml</dc:format>
    <dc:creator>
     <cc:Agent>
      <dc:title>Matplotlib v3.3.1, https://matplotlib.org/</dc:title>
     </cc:Agent>
    </dc:creator>
   </cc:Work>
  </rdf:RDF>
 </metadata>
 <defs>
  <style type="text/css">*{stroke-linecap:butt;stroke-linejoin:round;}</style>
 </defs>
 <g id="figure_1">
  <g id="patch_1">
   <path d="M 0 345.6 
L 460.8 345.6 
L 460.8 0 
L 0 0 
z
" style="fill:#ffffff;"/>
  </g>
  <g id="axes_1">
   <g id="patch_2">
    <path d="M 57.6 307.584 
L 414.72 307.584 
L 414.72 41.472 
L 57.6 41.472 
z
" style="fill:#ffffff;"/>
   </g>
   <g id="PolyCollection_1">
    <defs>
     <path d="M 73.832727 -132.817939 
L 73.832727 -107.869947 
L 77.112066 -108.162775 
L 80.391405 -108.227639 
L 83.670744 -108.136597 
L 86.950083 -107.953265 
L 90.229421 -107.731397 
L 93.50876 -107.514144 
L 96.788099 -107.333969 
L 100.067438 -107.213151 
L 103.346777 -107.164767 
L 106.626116 -107.19403 
L 109.905455 -107.299846 
L 113.184793 -107.476447 
L 116.464132 -107.714989 
L 119.743471 -108.004999 
L 123.02281 -108.335606 
L 126.302149 -108.696497 
L 129.581488 -109.078591 
L 132.860826 -109.474436 
L 136.140165 -109.878354 
L 139.419504 -110.286396 
L 142.698843 -110.69614 
L 145.978182 -111.106413 
L 149.257521 -111.516969 
L 152.53686 -111.928181 
L 155.816198 -112.34077 
L 159.095537 -112.755601 
L 162.374876 -113.173541 
L 165.654215 -113.595388 
L 168.933554 -114.021841 
L 172.212893 -114.453515 
L 175.492231 -114.890967 
L 178.77157 -115.334719 
L 182.050909 -115.785265 
L 185.330248 -116.243048 
L 188.609587 -116.708411 
L 191.888926 -117.181514 
L 195.168264 -117.662229 
L 198.447603 -118.150025 
L 201.726942 -118.643851 
L 205.006281 -119.14203 
L 208.28562 -119.64218 
L 211.564959 -120.141166 
L 214.844298 -120.635097 
L 218.123636 -121.119367 
L 221.402975 -121.588732 
L 224.682314 -122.037443 
L 227.961653 -122.459397 
L 231.240992 -122.84833 
L 234.520331 -123.198018 
L 237.799669 -123.502493 
L 241.079008 -123.756257 
L 244.358347 -123.95449 
L 247.637686 -124.093243 
L 250.917025 -124.169621 
L 254.196364 -124.181934 
L 257.475702 -124.129839 
L 260.755041 -124.01445 
L 264.03438 -123.838431 
L 267.313719 -123.606065 
L 270.593058 -123.323296 
L 273.872397 -122.997749 
L 277.151736 -122.638712 
L 280.431074 -122.257089 
L 283.710413 -121.865303 
L 286.989752 -121.477152 
L 290.269091 -121.107607 
L 293.54843 -120.772551 
L 296.827769 -120.488458 
L 300.107107 -120.27201 
L 303.386446 -120.139674 
L 306.665785 -120.107242 
L 309.945124 -120.189361 
L 313.224463 -120.399082 
L 316.503802 -120.747457 
L 319.78314 -121.2432 
L 323.062479 -121.892463 
L 326.341818 -122.698723 
L 329.621157 -123.662804 
L 332.900496 -124.783028 
L 336.179835 -126.055481 
L 339.459174 -127.474349 
L 342.738512 -129.032307 
L 346.017851 -130.72087 
L 349.29719 -132.530673 
L 352.576529 -134.451608 
L 355.855868 -136.472764 
L 359.135207 -138.582129 
L 362.414545 -140.766042 
L 365.693884 -143.008401 
L 368.973223 -145.289657 
L 372.252562 -147.585669 
L 375.531901 -149.866507 
L 378.81124 -152.095324 
L 382.090579 -154.227416 
L 385.369917 -156.209601 
L 388.649256 -157.980045 
L 391.928595 -159.46862 
L 395.207934 -160.597869 
L 398.487273 -161.284604 
L 398.487273 -186.232596 
L 398.487273 -186.232596 
L 395.207934 -183.910456 
L 391.928595 -181.727038 
L 388.649256 -179.625133 
L 385.369917 -177.557253 
L 382.090579 -175.486846 
L 378.81124 -173.388802 
L 375.531901 -171.249285 
L 372.252562 -169.064963 
L 368.973223 -166.84174 
L 365.693884 -164.593138 
L 362.414545 -162.338456 
L 359.135207 -160.100857 
L 355.855868 -157.905503 
L 352.576529 -155.777865 
L 349.29719 -153.742268 
L 346.017851 -151.820737 
L 342.738512 -150.032161 
L 339.459174 -148.39177 
L 336.179835 -146.910894 
L 332.900496 -145.596963 
L 329.621157 -144.453688 
L 326.341818 -143.481376 
L 323.062479 -142.677308 
L 319.78314 -142.036147 
L 316.503802 -141.550343 
L 313.224463 -141.21049 
L 309.945124 -141.005653 
L 306.665785 -140.92364 
L 303.386446 -140.951244 
L 300.107107 -141.074447 
L 296.827769 -141.278623 
L 293.54843 -141.548735 
L 290.269091 -141.869545 
L 286.989752 -142.225845 
L 283.710413 -142.602692 
L 280.431074 -142.985674 
L 277.151736 -143.361161 
L 273.872397 -143.716566 
L 270.593058 -144.040573 
L 267.313719 -144.32334 
L 264.03438 -144.556652 
L 260.755041 -144.734028 
L 257.475702 -144.850767 
L 254.196364 -144.903937 
L 250.917025 -144.892312 
L 247.637686 -144.816253 
L 244.358347 -144.677551 
L 241.079008 -144.479244 
L 237.799669 -144.225405 
L 234.520331 -143.92093 
L 231.240992 -143.571316 
L 227.961653 -143.182458 
L 224.682314 -142.760452 
L 221.402975 -142.311424 
L 218.123636 -141.84137 
L 214.844298 -141.356025 
L 211.564959 -140.860743 
L 208.28562 -140.360401 
L 205.006281 -139.859305 
L 201.726942 -139.361128 
L 198.447603 -138.868842 
L 195.168264 -138.384677 
L 191.888926 -137.910098 
L 188.609587 -137.4458 
L 185.330248 -136.991741 
L 182.050909 -136.547204 
L 178.77157 -136.110903 
L 175.492231 -135.681132 
L 172.212893 -135.255952 
L 168.933554 -134.833411 
L 165.654215 -134.411787 
L 162.374876 -133.989833 
L 159.095537 -133.567008 
L 155.816198 -133.143656 
L 152.53686 -132.721128 
L 149.257521 -132.301814 
L 145.978182 -131.889066 
L 142.698843 -131.487024 
L 139.419504 -131.10033 
L 136.140165 -130.733768 
L 132.860826 -130.391857 
L 129.581488 -130.078445 
L 126.302149 -129.796364 
L 123.02281 -129.547201 
L 119.743471 -129.331256 
L 116.464132 -129.147728 
L 113.184793 -128.995175 
L 109.905455 -128.872261 
L 106.626116 -128.778767 
L 103.346777 -128.716849 
L 100.067438 -128.692445 
L 96.788099 -128.716747 
L 93.50876 -128.807622 
L 90.229421 -128.990827 
L 86.950083 -129.300917 
L 83.670744 -129.781684 
L 80.391405 -130.486057 
L 77.112066 -131.475362 
L 73.832727 -132.817939 
z
" id="mfc39d320f7" style="stroke:#0000ff;stroke-opacity:0.2;"/>
    </defs>
    <g clip-path="url(#p6ce72d6b8b)">
     <use style="fill:#0000ff;fill-opacity:0.2;stroke:#0000ff;stroke-opacity:0.2;" x="0" xlink:href="#mfc39d320f7" y="345.6"/>
    </g>
   </g>
   <g id="PolyCollection_2">
    <defs>
     <path d="M 73.832727 -249.338221 
L 73.832727 -66.731669 
L 77.112066 -69.972327 
L 80.391405 -71.290991 
L 83.670744 -71.205599 
L 86.950083 -70.175605 
L 90.229421 -68.591642 
L 93.50876 -66.77012 
L 96.788099 -64.952565 
L 100.067438 -63.309166 
L 103.346777 -61.945775 
L 106.626116 -60.913433 
L 109.905455 -60.21944 
L 113.184793 -59.838938 
L 116.464132 -59.726185 
L 119.743471 -59.824686 
L 123.02281 -60.075707 
L 126.302149 -60.424796 
L 129.581488 -60.826206 
L 132.860826 -61.245332 
L 136.140165 -61.659328 
L 139.419504 -62.056361 
L 142.698843 -62.433799 
L 145.978182 -62.795881 
L 149.257521 -63.151168 
L 152.53686 -63.51015 
L 155.816198 -63.883272 
L 159.095537 -64.279453 
L 162.374876 -64.70525 
L 165.654215 -65.164521 
L 168.933554 -65.658607 
L 172.212893 -66.186799 
L 175.492231 -66.746993 
L 178.77157 -67.336384 
L 182.050909 -67.952051 
L 185.330248 -68.591359 
L 188.609587 -69.25214 
L 191.888926 -69.93262 
L 195.168264 -70.63114 
L 198.447603 -71.345728 
L 201.726942 -72.073564 
L 205.006281 -72.810472 
L 208.28562 -73.550442 
L 211.564959 -74.285313 
L 214.844298 -75.004604 
L 218.123636 -75.695543 
L 221.402975 -76.343289 
L 224.682314 -76.931322 
L 227.961653 -77.441973 
L 231.240992 -77.857045 
L 234.520331 -78.158496 
L 237.799669 -78.329081 
L 241.079008 -78.353006 
L 244.358347 -78.216474 
L 247.637686 -77.908185 
L 250.917025 -77.419702 
L 254.196364 -76.745774 
L 257.475702 -75.884592 
L 260.755041 -74.837989 
L 264.03438 -73.611636 
L 267.313719 -72.215235 
L 270.593058 -70.662714 
L 273.872397 -68.972411 
L 277.151736 -67.167273 
L 280.431074 -65.274919 
L 283.710413 -63.327662 
L 286.989752 -61.362309 
L 290.269091 -59.419726 
L 293.54843 -57.54415 
L 296.827769 -55.782139 
L 300.107107 -54.181251 
L 303.386446 -52.788413 
L 306.665785 -51.648124 
L 309.945124 -50.800548 
L 313.224463 -50.279726 
L 316.503802 -50.112 
L 319.78314 -50.314919 
L 323.062479 -50.896704 
L 326.341818 -51.856445 
L 329.621157 -53.185053 
L 332.900496 -54.86694 
L 336.179835 -56.882264 
L 339.459174 -59.209557 
L 342.738512 -61.828318 
L 346.017851 -64.721244 
L 349.29719 -67.875627 
L 352.576529 -71.283468 
L 355.855868 -74.939977 
L 359.135207 -78.840155 
L 362.414545 -82.973385 
L 365.693884 -87.316101 
L 368.973223 -91.822841 
L 372.252562 -96.416216 
L 375.531901 -100.976495 
L 378.81124 -105.331714 
L 382.090579 -109.249188 
L 385.369917 -112.429534 
L 388.649256 -114.503977 
L 391.928595 -115.035773 
L 395.207934 -113.526216 
L 398.487273 -109.425448 
L 398.487273 -292.032 
L 398.487273 -292.032 
L 395.207934 -284.162437 
L 391.928595 -277.956011 
L 388.649256 -272.934953 
L 385.369917 -268.683433 
L 382.090579 -264.857349 
L 378.81124 -261.189087 
L 375.531901 -257.487504 
L 372.252562 -253.633668 
L 368.973223 -249.573066 
L 365.693884 -245.305339 
L 362.414545 -240.872431 
L 359.135207 -236.346245 
L 355.855868 -231.816669 
L 352.576529 -227.380766 
L 349.29719 -223.133661 
L 346.017851 -219.161487 
L 342.738512 -215.536515 
L 339.459174 -212.314387 
L 336.179835 -209.533233 
L 332.900496 -207.214301 
L 329.621157 -205.363699 
L 326.341818 -203.974842 
L 323.062479 -203.031139 
L 319.78314 -202.508664 
L 316.503802 -202.378492 
L 313.224463 -202.60859 
L 309.945124 -203.165164 
L 306.665785 -204.01352 
L 303.386446 -205.118466 
L 300.107107 -206.444458 
L 296.827769 -207.955522 
L 293.54843 -209.615194 
L 290.269091 -211.386505 
L 286.989752 -213.232134 
L 283.710413 -215.114748 
L 280.431074 -216.997559 
L 277.151736 -218.845003 
L 273.872397 -220.623561 
L 270.593058 -222.302592 
L 267.313719 -223.855099 
L 264.03438 -225.258422 
L 260.755041 -226.494708 
L 257.475702 -227.55119 
L 254.196364 -228.420246 
L 250.917025 -229.099212 
L 247.637686 -229.590022 
L 244.358347 -229.898688 
L 241.079008 -230.034672 
L 237.799669 -230.010203 
L 234.520331 -229.839618 
L 231.240992 -229.538712 
L 227.961653 -229.124186 
L 224.682314 -228.613159 
L 221.402975 -228.022799 
L 218.123636 -227.370015 
L 214.844298 -226.671203 
L 211.564959 -225.942031 
L 208.28562 -225.197228 
L 205.006281 -224.450335 
L 201.726942 -223.713442 
L 198.447603 -222.996878 
L 195.168264 -222.308871 
L 191.888926 -221.65526 
L 188.609587 -221.039227 
L 185.330248 -220.461184 
L 182.050909 -219.918829 
L 178.77157 -219.407429 
L 175.492231 -218.920376 
L 172.212893 -218.450007 
L 168.933554 -217.988661 
L 165.654215 -217.529917 
L 162.374876 -217.069866 
L 159.095537 -216.608317 
L 155.816198 -216.149764 
L 152.53686 -215.703894 
L 149.257521 -215.285603 
L 145.978182 -214.914278 
L 142.698843 -214.612445 
L 139.419504 -214.403722 
L 136.140165 -214.310297 
L 132.860826 -214.350163 
L 129.581488 -214.534404 
L 126.302149 -214.865039 
L 123.02281 -215.333742 
L 119.743471 -215.921984 
L 116.464132 -216.602877 
L 113.184793 -217.345028 
L 109.905455 -218.118486 
L 106.626116 -218.902671 
L 103.346777 -219.696001 
L 100.067438 -220.526617 
L 96.788099 -221.463574 
L 93.50876 -222.627493 
L 90.229421 -224.199803 
L 86.950083 -226.429505 
L 83.670744 -229.636575 
L 80.391405 -234.211229 
L 77.112066 -240.608548 
L 73.832727 -249.338221 
z
" id="m6ce4f6cdfe" style="stroke:#ffa500;stroke-opacity:0.2;"/>
    </defs>
    <g clip-path="url(#p6ce72d6b8b)">
     <use style="fill:#ffa500;fill-opacity:0.2;stroke:#ffa500;stroke-opacity:0.2;" x="0" xlink:href="#m6ce4f6cdfe" y="345.6"/>
    </g>
   </g>
   <g id="PathCollection_1">
    <defs>
     <path d="M 0 3 
C 0.795609 3 1.55874 2.683901 2.12132 2.12132 
C 2.683901 1.55874 3 0.795609 3 0 
C 3 -0.795609 2.683901 -1.55874 2.12132 -2.12132 
C 1.55874 -2.683901 0.795609 -3 0 -3 
C -0.795609 -3 -1.55874 -2.683901 -2.12132 -2.12132 
C -2.683901 -1.55874 -3 -0.795609 -3 0 
C -3 0.795609 -2.683901 1.55874 -2.12132 2.12132 
C -1.55874 2.683901 -0.795609 3 0 3 
z
" id="m323ec364bc" style="stroke:#0000ff;"/>
    </defs>
    <g clip-path="url(#p6ce72d6b8b)">
     <use style="fill:#0000ff;stroke:#0000ff;" x="73.832727" xlink:href="#m323ec364bc" y="225.456849"/>
     <use style="fill:#0000ff;stroke:#0000ff;" x="106.298182" xlink:href="#m323ec364bc" y="228.264256"/>
     <use style="fill:#0000ff;stroke:#0000ff;" x="138.763636" xlink:href="#m323ec364bc" y="224.901528"/>
     <use style="fill:#0000ff;stroke:#0000ff;" x="171.229091" xlink:href="#m323ec364bc" y="220.526237"/>
     <use style="fill:#0000ff;stroke:#0000ff;" x="203.694545" xlink:href="#m323ec364bc" y="216.974262"/>
     <use style="fill:#0000ff;stroke:#0000ff;" x="236.16" xlink:href="#m323ec364bc" y="212.31491"/>
     <use style="fill:#0000ff;stroke:#0000ff;" x="268.625455" xlink:href="#m323ec364bc" y="210.745524"/>
     <use style="fill:#0000ff;stroke:#0000ff;" x="301.090909" xlink:href="#m323ec364bc" y="214.840982"/>
     <use style="fill:#0000ff;stroke:#0000ff;" x="333.556364" xlink:href="#m323ec364bc" y="212.078865"/>
     <use style="fill:#0000ff;stroke:#0000ff;" x="366.021818" xlink:href="#m323ec364bc" y="190.968829"/>
     <use style="fill:#0000ff;stroke:#0000ff;" x="398.487273" xlink:href="#m323ec364bc" y="170.764645"/>
    </g>
   </g>
   <g id="PathCollection_2">
    <defs>
     <path d="M 0 3 
C 0.795609 3 1.55874 2.683901 2.12132 2.12132 
C 2.683901 1.55874 3 0.795609 3 0 
C 3 -0.795609 2.683901 -1.55874 2.12132 -2.12132 
C 1.55874 -2.683901 0.795609 -3 0 -3 
C -0.795609 -3 -1.55874 -2.683901 -2.12132 -2.12132 
C -2.683901 -1.55874 -3 -0.795609 -3 0 
C -3 0.795609 -2.683901 1.55874 -2.12132 2.12132 
C -1.55874 2.683901 -0.795609 3 0 3 
z
" id="mb6c23697da" style="stroke:#ffa500;"/>
    </defs>
    <g clip-path="url(#p6ce72d6b8b)">
     <use style="fill:#ffa500;stroke:#ffa500;" x="73.832727" xlink:href="#mb6c23697da" y="187.563384"/>
     <use style="fill:#ffa500;stroke:#ffa500;" x="203.694545" xlink:href="#mb6c23697da" y="197.275283"/>
     <use style="fill:#ffa500;stroke:#ffa500;" x="268.625455" xlink:href="#mb6c23697da" y="198.156342"/>
     <use style="fill:#ffa500;stroke:#ffa500;" x="333.556364" xlink:href="#mb6c23697da" y="214.161561"/>
     <use style="fill:#ffa500;stroke:#ffa500;" x="398.487273" xlink:href="#mb6c23697da" y="144.871658"/>
    </g>
   </g>
   <g id="matplotlib.axis_1">
    <g id="xtick_1">
     <g id="line2d_1">
      <path clip-path="url(#p6ce72d6b8b)" d="M 73.832727 307.584 
L 73.832727 41.472 
" style="fill:none;stroke:#b0b0b0;stroke-linecap:square;stroke-width:0.8;"/>
     </g>
     <g id="line2d_2">
      <defs>
       <path d="M 0 0 
L 0 3.5 
" id="m0fbc988f6e" style="stroke:#000000;stroke-width:0.8;"/>
      </defs>
      <g>
       <use style="stroke:#000000;stroke-width:0.8;" x="73.832727" xlink:href="#m0fbc988f6e" y="307.584"/>
      </g>
     </g>
     <g id="text_1">
      <!-- 0.0 -->
      <g transform="translate(65.881165 322.182437)scale(0.1 -0.1)">
       <defs>
        <path d="M 31.78125 66.40625 
Q 24.171875 66.40625 20.328125 58.90625 
Q 16.5 51.421875 16.5 36.375 
Q 16.5 21.390625 20.328125 13.890625 
Q 24.171875 6.390625 31.78125 6.390625 
Q 39.453125 6.390625 43.28125 13.890625 
Q 47.125 21.390625 47.125 36.375 
Q 47.125 51.421875 43.28125 58.90625 
Q 39.453125 66.40625 31.78125 66.40625 
z
M 31.78125 74.21875 
Q 44.046875 74.21875 50.515625 64.515625 
Q 56.984375 54.828125 56.984375 36.375 
Q 56.984375 17.96875 50.515625 8.265625 
Q 44.046875 -1.421875 31.78125 -1.421875 
Q 19.53125 -1.421875 13.0625 8.265625 
Q 6.59375 17.96875 6.59375 36.375 
Q 6.59375 54.828125 13.0625 64.515625 
Q 19.53125 74.21875 31.78125 74.21875 
z
" id="DejaVuSans-48"/>
        <path d="M 10.6875 12.40625 
L 21 12.40625 
L 21 0 
L 10.6875 0 
z
" id="DejaVuSans-46"/>
       </defs>
       <use xlink:href="#DejaVuSans-48"/>
       <use x="63.623047" xlink:href="#DejaVuSans-46"/>
       <use x="95.410156" xlink:href="#DejaVuSans-48"/>
      </g>
     </g>
    </g>
    <g id="xtick_2">
     <g id="line2d_3">
      <path clip-path="url(#p6ce72d6b8b)" d="M 138.763636 307.584 
L 138.763636 41.472 
" style="fill:none;stroke:#b0b0b0;stroke-linecap:square;stroke-width:0.8;"/>
     </g>
     <g id="line2d_4">
      <g>
       <use style="stroke:#000000;stroke-width:0.8;" x="138.763636" xlink:href="#m0fbc988f6e" y="307.584"/>
      </g>
     </g>
     <g id="text_2">
      <!-- 0.2 -->
      <g transform="translate(130.812074 322.182437)scale(0.1 -0.1)">
       <defs>
        <path d="M 19.1875 8.296875 
L 53.609375 8.296875 
L 53.609375 0 
L 7.328125 0 
L 7.328125 8.296875 
Q 12.9375 14.109375 22.625 23.890625 
Q 32.328125 33.6875 34.8125 36.53125 
Q 39.546875 41.84375 41.421875 45.53125 
Q 43.3125 49.21875 43.3125 52.78125 
Q 43.3125 58.59375 39.234375 62.25 
Q 35.15625 65.921875 28.609375 65.921875 
Q 23.96875 65.921875 18.8125 64.3125 
Q 13.671875 62.703125 7.8125 59.421875 
L 7.8125 69.390625 
Q 13.765625 71.78125 18.9375 73 
Q 24.125 74.21875 28.421875 74.21875 
Q 39.75 74.21875 46.484375 68.546875 
Q 53.21875 62.890625 53.21875 53.421875 
Q 53.21875 48.921875 51.53125 44.890625 
Q 49.859375 40.875 45.40625 35.40625 
Q 44.1875 33.984375 37.640625 27.21875 
Q 31.109375 20.453125 19.1875 8.296875 
z
" id="DejaVuSans-50"/>
       </defs>
       <use xlink:href="#DejaVuSans-48"/>
       <use x="63.623047" xlink:href="#DejaVuSans-46"/>
       <use x="95.410156" xlink:href="#DejaVuSans-50"/>
      </g>
     </g>
    </g>
    <g id="xtick_3">
     <g id="line2d_5">
      <path clip-path="url(#p6ce72d6b8b)" d="M 203.694545 307.584 
L 203.694545 41.472 
" style="fill:none;stroke:#b0b0b0;stroke-linecap:square;stroke-width:0.8;"/>
     </g>
     <g id="line2d_6">
      <g>
       <use style="stroke:#000000;stroke-width:0.8;" x="203.694545" xlink:href="#m0fbc988f6e" y="307.584"/>
      </g>
     </g>
     <g id="text_3">
      <!-- 0.4 -->
      <g transform="translate(195.742983 322.182437)scale(0.1 -0.1)">
       <defs>
        <path d="M 37.796875 64.3125 
L 12.890625 25.390625 
L 37.796875 25.390625 
z
M 35.203125 72.90625 
L 47.609375 72.90625 
L 47.609375 25.390625 
L 58.015625 25.390625 
L 58.015625 17.1875 
L 47.609375 17.1875 
L 47.609375 0 
L 37.796875 0 
L 37.796875 17.1875 
L 4.890625 17.1875 
L 4.890625 26.703125 
z
" id="DejaVuSans-52"/>
       </defs>
       <use xlink:href="#DejaVuSans-48"/>
       <use x="63.623047" xlink:href="#DejaVuSans-46"/>
       <use x="95.410156" xlink:href="#DejaVuSans-52"/>
      </g>
     </g>
    </g>
    <g id="xtick_4">
     <g id="line2d_7">
      <path clip-path="url(#p6ce72d6b8b)" d="M 268.625455 307.584 
L 268.625455 41.472 
" style="fill:none;stroke:#b0b0b0;stroke-linecap:square;stroke-width:0.8;"/>
     </g>
     <g id="line2d_8">
      <g>
       <use style="stroke:#000000;stroke-width:0.8;" x="268.625455" xlink:href="#m0fbc988f6e" y="307.584"/>
      </g>
     </g>
     <g id="text_4">
      <!-- 0.6 -->
      <g transform="translate(260.673892 322.182437)scale(0.1 -0.1)">
       <defs>
        <path d="M 33.015625 40.375 
Q 26.375 40.375 22.484375 35.828125 
Q 18.609375 31.296875 18.609375 23.390625 
Q 18.609375 15.53125 22.484375 10.953125 
Q 26.375 6.390625 33.015625 6.390625 
Q 39.65625 6.390625 43.53125 10.953125 
Q 47.40625 15.53125 47.40625 23.390625 
Q 47.40625 31.296875 43.53125 35.828125 
Q 39.65625 40.375 33.015625 40.375 
z
M 52.59375 71.296875 
L 52.59375 62.3125 
Q 48.875 64.0625 45.09375 64.984375 
Q 41.3125 65.921875 37.59375 65.921875 
Q 27.828125 65.921875 22.671875 59.328125 
Q 17.53125 52.734375 16.796875 39.40625 
Q 19.671875 43.65625 24.015625 45.921875 
Q 28.375 48.1875 33.59375 48.1875 
Q 44.578125 48.1875 50.953125 41.515625 
Q 57.328125 34.859375 57.328125 23.390625 
Q 57.328125 12.15625 50.6875 5.359375 
Q 44.046875 -1.421875 33.015625 -1.421875 
Q 20.359375 -1.421875 13.671875 8.265625 
Q 6.984375 17.96875 6.984375 36.375 
Q 6.984375 53.65625 15.1875 63.9375 
Q 23.390625 74.21875 37.203125 74.21875 
Q 40.921875 74.21875 44.703125 73.484375 
Q 48.484375 72.75 52.59375 71.296875 
z
" id="DejaVuSans-54"/>
       </defs>
       <use xlink:href="#DejaVuSans-48"/>
       <use x="63.623047" xlink:href="#DejaVuSans-46"/>
       <use x="95.410156" xlink:href="#DejaVuSans-54"/>
      </g>
     </g>
    </g>
    <g id="xtick_5">
     <g id="line2d_9">
      <path clip-path="url(#p6ce72d6b8b)" d="M 333.556364 307.584 
L 333.556364 41.472 
" style="fill:none;stroke:#b0b0b0;stroke-linecap:square;stroke-width:0.8;"/>
     </g>
     <g id="line2d_10">
      <g>
       <use style="stroke:#000000;stroke-width:0.8;" x="333.556364" xlink:href="#m0fbc988f6e" y="307.584"/>
      </g>
     </g>
     <g id="text_5">
      <!-- 0.8 -->
      <g transform="translate(325.604801 322.182437)scale(0.1 -0.1)">
       <defs>
        <path d="M 31.78125 34.625 
Q 24.75 34.625 20.71875 30.859375 
Q 16.703125 27.09375 16.703125 20.515625 
Q 16.703125 13.921875 20.71875 10.15625 
Q 24.75 6.390625 31.78125 6.390625 
Q 38.8125 6.390625 42.859375 10.171875 
Q 46.921875 13.96875 46.921875 20.515625 
Q 46.921875 27.09375 42.890625 30.859375 
Q 38.875 34.625 31.78125 34.625 
z
M 21.921875 38.8125 
Q 15.578125 40.375 12.03125 44.71875 
Q 8.5 49.078125 8.5 55.328125 
Q 8.5 64.0625 14.71875 69.140625 
Q 20.953125 74.21875 31.78125 74.21875 
Q 42.671875 74.21875 48.875 69.140625 
Q 55.078125 64.0625 55.078125 55.328125 
Q 55.078125 49.078125 51.53125 44.71875 
Q 48 40.375 41.703125 38.8125 
Q 48.828125 37.15625 52.796875 32.3125 
Q 56.78125 27.484375 56.78125 20.515625 
Q 56.78125 9.90625 50.3125 4.234375 
Q 43.84375 -1.421875 31.78125 -1.421875 
Q 19.734375 -1.421875 13.25 4.234375 
Q 6.78125 9.90625 6.78125 20.515625 
Q 6.78125 27.484375 10.78125 32.3125 
Q 14.796875 37.15625 21.921875 38.8125 
z
M 18.3125 54.390625 
Q 18.3125 48.734375 21.84375 45.5625 
Q 25.390625 42.390625 31.78125 42.390625 
Q 38.140625 42.390625 41.71875 45.5625 
Q 45.3125 48.734375 45.3125 54.390625 
Q 45.3125 60.0625 41.71875 63.234375 
Q 38.140625 66.40625 31.78125 66.40625 
Q 25.390625 66.40625 21.84375 63.234375 
Q 18.3125 60.0625 18.3125 54.390625 
z
" id="DejaVuSans-56"/>
       </defs>
       <use xlink:href="#DejaVuSans-48"/>
       <use x="63.623047" xlink:href="#DejaVuSans-46"/>
       <use x="95.410156" xlink:href="#DejaVuSans-56"/>
      </g>
     </g>
    </g>
    <g id="xtick_6">
     <g id="line2d_11">
      <path clip-path="url(#p6ce72d6b8b)" d="M 398.487273 307.584 
L 398.487273 41.472 
" style="fill:none;stroke:#b0b0b0;stroke-linecap:square;stroke-width:0.8;"/>
     </g>
     <g id="line2d_12">
      <g>
       <use style="stroke:#000000;stroke-width:0.8;" x="398.487273" xlink:href="#m0fbc988f6e" y="307.584"/>
      </g>
     </g>
     <g id="text_6">
      <!-- 1.0 -->
      <g transform="translate(390.53571 322.182437)scale(0.1 -0.1)">
       <defs>
        <path d="M 12.40625 8.296875 
L 28.515625 8.296875 
L 28.515625 63.921875 
L 10.984375 60.40625 
L 10.984375 69.390625 
L 28.421875 72.90625 
L 38.28125 72.90625 
L 38.28125 8.296875 
L 54.390625 8.296875 
L 54.390625 0 
L 12.40625 0 
z
" id="DejaVuSans-49"/>
       </defs>
       <use xlink:href="#DejaVuSans-49"/>
       <use x="63.623047" xlink:href="#DejaVuSans-46"/>
       <use x="95.410156" xlink:href="#DejaVuSans-48"/>
      </g>
     </g>
    </g>
   </g>
   <g id="matplotlib.axis_2">
    <g id="ytick_1">
     <g id="line2d_13">
      <path clip-path="url(#p6ce72d6b8b)" d="M 57.6 298.030509 
L 414.72 298.030509 
" style="fill:none;stroke:#b0b0b0;stroke-linecap:square;stroke-width:0.8;"/>
     </g>
     <g id="line2d_14">
      <defs>
       <path d="M 0 0 
L -3.5 0 
" id="me9b1b5405d" style="stroke:#000000;stroke-width:0.8;"/>
      </defs>
      <g>
       <use style="stroke:#000000;stroke-width:0.8;" x="57.6" xlink:href="#me9b1b5405d" y="298.030509"/>
      </g>
     </g>
     <g id="text_7">
      <!-- −30 -->
      <g transform="translate(29.495313 301.829728)scale(0.1 -0.1)">
       <defs>
        <path d="M 10.59375 35.5 
L 73.1875 35.5 
L 73.1875 27.203125 
L 10.59375 27.203125 
z
" id="DejaVuSans-8722"/>
        <path d="M 40.578125 39.3125 
Q 47.65625 37.796875 51.625 33 
Q 55.609375 28.21875 55.609375 21.1875 
Q 55.609375 10.40625 48.1875 4.484375 
Q 40.765625 -1.421875 27.09375 -1.421875 
Q 22.515625 -1.421875 17.65625 -0.515625 
Q 12.796875 0.390625 7.625 2.203125 
L 7.625 11.71875 
Q 11.71875 9.328125 16.59375 8.109375 
Q 21.484375 6.890625 26.8125 6.890625 
Q 36.078125 6.890625 40.9375 10.546875 
Q 45.796875 14.203125 45.796875 21.1875 
Q 45.796875 27.640625 41.28125 31.265625 
Q 36.765625 34.90625 28.71875 34.90625 
L 20.21875 34.90625 
L 20.21875 43.015625 
L 29.109375 43.015625 
Q 36.375 43.015625 40.234375 45.921875 
Q 44.09375 48.828125 44.09375 54.296875 
Q 44.09375 59.90625 40.109375 62.90625 
Q 36.140625 65.921875 28.71875 65.921875 
Q 24.65625 65.921875 20.015625 65.03125 
Q 15.375 64.15625 9.8125 62.3125 
L 9.8125 71.09375 
Q 15.4375 72.65625 20.34375 73.4375 
Q 25.25 74.21875 29.59375 74.21875 
Q 40.828125 74.21875 47.359375 69.109375 
Q 53.90625 64.015625 53.90625 55.328125 
Q 53.90625 49.265625 50.4375 45.09375 
Q 46.96875 40.921875 40.578125 39.3125 
z
" id="DejaVuSans-51"/>
       </defs>
       <use xlink:href="#DejaVuSans-8722"/>
       <use x="83.789062" xlink:href="#DejaVuSans-51"/>
       <use x="147.412109" xlink:href="#DejaVuSans-48"/>
      </g>
     </g>
    </g>
    <g id="ytick_2">
     <g id="line2d_15">
      <path clip-path="url(#p6ce72d6b8b)" d="M 57.6 264.684168 
L 414.72 264.684168 
" style="fill:none;stroke:#b0b0b0;stroke-linecap:square;stroke-width:0.8;"/>
     </g>
     <g id="line2d_16">
      <g>
       <use style="stroke:#000000;stroke-width:0.8;" x="57.6" xlink:href="#me9b1b5405d" y="264.684168"/>
      </g>
     </g>
     <g id="text_8">
      <!-- −20 -->
      <g transform="translate(29.495313 268.483387)scale(0.1 -0.1)">
       <use xlink:href="#DejaVuSans-8722"/>
       <use x="83.789062" xlink:href="#DejaVuSans-50"/>
       <use x="147.412109" xlink:href="#DejaVuSans-48"/>
      </g>
     </g>
    </g>
    <g id="ytick_3">
     <g id="line2d_17">
      <path clip-path="url(#p6ce72d6b8b)" d="M 57.6 231.337827 
L 414.72 231.337827 
" style="fill:none;stroke:#b0b0b0;stroke-linecap:square;stroke-width:0.8;"/>
     </g>
     <g id="line2d_18">
      <g>
       <use style="stroke:#000000;stroke-width:0.8;" x="57.6" xlink:href="#me9b1b5405d" y="231.337827"/>
      </g>
     </g>
     <g id="text_9">
      <!-- −10 -->
      <g transform="translate(29.495313 235.137046)scale(0.1 -0.1)">
       <use xlink:href="#DejaVuSans-8722"/>
       <use x="83.789062" xlink:href="#DejaVuSans-49"/>
       <use x="147.412109" xlink:href="#DejaVuSans-48"/>
      </g>
     </g>
    </g>
    <g id="ytick_4">
     <g id="line2d_19">
      <path clip-path="url(#p6ce72d6b8b)" d="M 57.6 197.991485 
L 414.72 197.991485 
" style="fill:none;stroke:#b0b0b0;stroke-linecap:square;stroke-width:0.8;"/>
     </g>
     <g id="line2d_20">
      <g>
       <use style="stroke:#000000;stroke-width:0.8;" x="57.6" xlink:href="#me9b1b5405d" y="197.991485"/>
      </g>
     </g>
     <g id="text_10">
      <!-- 0 -->
      <g transform="translate(44.2375 201.790704)scale(0.1 -0.1)">
       <use xlink:href="#DejaVuSans-48"/>
      </g>
     </g>
    </g>
    <g id="ytick_5">
     <g id="line2d_21">
      <path clip-path="url(#p6ce72d6b8b)" d="M 57.6 164.645144 
L 414.72 164.645144 
" style="fill:none;stroke:#b0b0b0;stroke-linecap:square;stroke-width:0.8;"/>
     </g>
     <g id="line2d_22">
      <g>
       <use style="stroke:#000000;stroke-width:0.8;" x="57.6" xlink:href="#me9b1b5405d" y="164.645144"/>
      </g>
     </g>
     <g id="text_11">
      <!-- 10 -->
      <g transform="translate(37.875 168.444363)scale(0.1 -0.1)">
       <use xlink:href="#DejaVuSans-49"/>
       <use x="63.623047" xlink:href="#DejaVuSans-48"/>
      </g>
     </g>
    </g>
    <g id="ytick_6">
     <g id="line2d_23">
      <path clip-path="url(#p6ce72d6b8b)" d="M 57.6 131.298803 
L 414.72 131.298803 
" style="fill:none;stroke:#b0b0b0;stroke-linecap:square;stroke-width:0.8;"/>
     </g>
     <g id="line2d_24">
      <g>
       <use style="stroke:#000000;stroke-width:0.8;" x="57.6" xlink:href="#me9b1b5405d" y="131.298803"/>
      </g>
     </g>
     <g id="text_12">
      <!-- 20 -->
      <g transform="translate(37.875 135.098022)scale(0.1 -0.1)">
       <use xlink:href="#DejaVuSans-50"/>
       <use x="63.623047" xlink:href="#DejaVuSans-48"/>
      </g>
     </g>
    </g>
    <g id="ytick_7">
     <g id="line2d_25">
      <path clip-path="url(#p6ce72d6b8b)" d="M 57.6 97.952462 
L 414.72 97.952462 
" style="fill:none;stroke:#b0b0b0;stroke-linecap:square;stroke-width:0.8;"/>
     </g>
     <g id="line2d_26">
      <g>
       <use style="stroke:#000000;stroke-width:0.8;" x="57.6" xlink:href="#me9b1b5405d" y="97.952462"/>
      </g>
     </g>
     <g id="text_13">
      <!-- 30 -->
      <g transform="translate(37.875 101.75168)scale(0.1 -0.1)">
       <use xlink:href="#DejaVuSans-51"/>
       <use x="63.623047" xlink:href="#DejaVuSans-48"/>
      </g>
     </g>
    </g>
    <g id="ytick_8">
     <g id="line2d_27">
      <path clip-path="url(#p6ce72d6b8b)" d="M 57.6 64.60612 
L 414.72 64.60612 
" style="fill:none;stroke:#b0b0b0;stroke-linecap:square;stroke-width:0.8;"/>
     </g>
     <g id="line2d_28">
      <g>
       <use style="stroke:#000000;stroke-width:0.8;" x="57.6" xlink:href="#me9b1b5405d" y="64.60612"/>
      </g>
     </g>
     <g id="text_14">
      <!-- 40 -->
      <g transform="translate(37.875 68.405339)scale(0.1 -0.1)">
       <use xlink:href="#DejaVuSans-52"/>
       <use x="63.623047" xlink:href="#DejaVuSans-48"/>
      </g>
     </g>
    </g>
   </g>
   <g id="line2d_29">
    <path clip-path="url(#p6ce72d6b8b)" d="M 73.832727 225.256057 
L 77.112066 225.780931 
L 80.391405 226.243152 
L 83.670744 226.64086 
L 86.950083 226.972909 
L 90.229421 227.238888 
L 93.50876 227.439117 
L 96.788099 227.574642 
L 100.067438 227.647202 
L 103.346777 227.659192 
L 106.626116 227.613601 
L 109.905455 227.513946 
L 113.184793 227.364189 
L 116.464132 227.168642 
L 119.743471 226.931873 
L 123.02281 226.658597 
L 126.302149 226.35357 
L 129.581488 226.021482 
L 132.860826 225.666854 
L 136.140165 225.293939 
L 139.419504 224.906637 
L 142.698843 224.508418 
L 145.978182 224.10226 
L 149.257521 223.690608 
L 152.53686 223.275346 
L 155.816198 222.857787 
L 159.095537 222.438696 
L 162.374876 222.018313 
L 165.654215 221.596413 
L 168.933554 221.172374 
L 172.212893 220.745267 
L 175.492231 220.31395 
L 178.77157 219.877189 
L 182.050909 219.433766 
L 185.330248 218.982606 
L 188.609587 218.522894 
L 191.888926 218.054194 
L 195.168264 217.576547 
L 198.447603 217.090566 
L 201.726942 216.59751 
L 205.006281 216.099332 
L 208.28562 215.59871 
L 211.564959 215.099045 
L 214.844298 214.604439 
L 218.123636 214.119632 
L 221.402975 213.649922 
L 224.682314 213.201053 
L 227.961653 212.779073 
L 231.240992 212.390177 
L 234.520331 212.040526 
L 237.799669 211.736051 
L 241.079008 211.482249 
L 244.358347 211.28398 
L 247.637686 211.145252 
L 250.917025 211.069034 
L 254.196364 211.057064 
L 257.475702 211.109697 
L 260.755041 211.225761 
L 264.03438 211.402458 
L 267.313719 211.635297 
L 270.593058 211.918065 
L 273.872397 212.242843 
L 277.151736 212.600064 
L 280.431074 212.978619 
L 283.710413 213.366002 
L 286.989752 213.748502 
L 290.269091 214.111424 
L 293.54843 214.439357 
L 296.827769 214.71646 
L 300.107107 214.926771 
L 303.386446 215.054541 
L 306.665785 215.084559 
L 309.945124 215.002493 
L 313.224463 214.795214 
L 316.503802 214.4511 
L 319.78314 213.960326 
L 323.062479 213.315114 
L 326.341818 212.50995 
L 329.621157 211.541754 
L 332.900496 210.410004 
L 336.179835 209.116813 
L 339.459174 207.66694 
L 342.738512 206.067766 
L 346.017851 204.329197 
L 349.29719 202.46353 
L 352.576529 200.485263 
L 355.855868 198.410867 
L 359.135207 196.258507 
L 362.414545 194.047751 
L 365.693884 191.79923 
L 368.973223 189.534302 
L 372.252562 187.274684 
L 375.531901 185.042104 
L 378.81124 182.857937 
L 382.090579 180.742869 
L 385.369917 178.716573 
L 388.649256 176.797411 
L 391.928595 175.002171 
L 395.207934 173.345838 
L 398.487273 171.8414 
" style="fill:none;stroke:#0000ff;stroke-linecap:square;stroke-width:1.5;"/>
   </g>
   <g id="line2d_30">
    <path clip-path="url(#p6ce72d6b8b)" d="M 73.832727 212.782061 
L 77.112066 214.124638 
L 80.391405 215.113943 
L 83.670744 215.818316 
L 86.950083 216.299083 
L 90.229421 216.609173 
L 93.50876 216.792378 
L 96.788099 216.883253 
L 100.067438 216.907555 
L 103.346777 216.883151 
L 106.626116 216.821233 
L 109.905455 216.727739 
L 113.184793 216.604825 
L 116.464132 216.452272 
L 119.743471 216.268744 
L 123.02281 216.052799 
L 126.302149 215.803636 
L 129.581488 215.521555 
L 132.860826 215.208143 
L 136.140165 214.866232 
L 139.419504 214.49967 
L 142.698843 214.112976 
L 145.978182 213.710934 
L 149.257521 213.298186 
L 152.53686 212.878872 
L 155.816198 212.456344 
L 159.095537 212.032992 
L 162.374876 211.610167 
L 165.654215 211.188213 
L 168.933554 210.766589 
L 172.212893 210.344048 
L 175.492231 209.918868 
L 178.77157 209.489097 
L 182.050909 209.052796 
L 185.330248 208.608259 
L 188.609587 208.1542 
L 191.888926 207.689902 
L 195.168264 207.215323 
L 198.447603 206.731158 
L 201.726942 206.238872 
L 205.006281 205.740695 
L 208.28562 205.239599 
L 211.564959 204.739257 
L 214.844298 204.243975 
L 218.123636 203.75863 
L 221.402975 203.288576 
L 224.682314 202.839548 
L 227.961653 202.417542 
L 231.240992 202.028684 
L 234.520331 201.67907 
L 237.799669 201.374595 
L 241.079008 201.120756 
L 244.358347 200.922449 
L 247.637686 200.783747 
L 250.917025 200.707688 
L 254.196364 200.696063 
L 257.475702 200.749233 
L 260.755041 200.865972 
L 264.03438 201.043348 
L 267.313719 201.27666 
L 270.593058 201.559427 
L 273.872397 201.883434 
L 277.151736 202.238839 
L 280.431074 202.614326 
L 283.710413 202.997308 
L 286.989752 203.374155 
L 290.269091 203.730455 
L 293.54843 204.051265 
L 296.827769 204.321377 
L 300.107107 204.525553 
L 303.386446 204.648756 
L 306.665785 204.67636 
L 309.945124 204.594347 
L 313.224463 204.38951 
L 316.503802 204.049657 
L 319.78314 203.563853 
L 323.062479 202.922692 
L 326.341818 202.118624 
L 329.621157 201.146312 
L 332.900496 200.003037 
L 336.179835 198.689106 
L 339.459174 197.20823 
L 342.738512 195.567839 
L 346.017851 193.779263 
L 349.29719 191.857732 
L 352.576529 189.822135 
L 355.855868 187.694497 
L 359.135207 185.499143 
L 362.414545 183.261544 
L 365.693884 181.006862 
L 368.973223 178.75826 
L 372.252562 176.535037 
L 375.531901 174.350715 
L 378.81124 172.211198 
L 382.090579 170.113154 
L 385.369917 168.042747 
L 388.649256 165.974867 
L 391.928595 163.872962 
L 395.207934 161.689544 
L 398.487273 159.367404 
" style="fill:none;stroke:#000000;stroke-linecap:square;stroke-width:0.5;"/>
   </g>
   <g id="line2d_31">
    <path clip-path="url(#p6ce72d6b8b)" d="M 73.832727 237.730053 
L 77.112066 237.437225 
L 80.391405 237.372361 
L 83.670744 237.463403 
L 86.950083 237.646735 
L 90.229421 237.868603 
L 93.50876 238.085856 
L 96.788099 238.266031 
L 100.067438 238.386849 
L 103.346777 238.435233 
L 106.626116 238.40597 
L 109.905455 238.300154 
L 113.184793 238.123553 
L 116.464132 237.885011 
L 119.743471 237.595001 
L 123.02281 237.264394 
L 126.302149 236.903503 
L 129.581488 236.521409 
L 132.860826 236.125564 
L 136.140165 235.721646 
L 139.419504 235.313604 
L 142.698843 234.90386 
L 145.978182 234.493587 
L 149.257521 234.083031 
L 152.53686 233.671819 
L 155.816198 233.25923 
L 159.095537 232.844399 
L 162.374876 232.426459 
L 165.654215 232.004612 
L 168.933554 231.578159 
L 172.212893 231.146485 
L 175.492231 230.709033 
L 178.77157 230.265281 
L 182.050909 229.814735 
L 185.330248 229.356952 
L 188.609587 228.891589 
L 191.888926 228.418486 
L 195.168264 227.937771 
L 198.447603 227.449975 
L 201.726942 226.956149 
L 205.006281 226.45797 
L 208.28562 225.95782 
L 211.564959 225.458834 
L 214.844298 224.964903 
L 218.123636 224.480633 
L 221.402975 224.011268 
L 224.682314 223.562557 
L 227.961653 223.140603 
L 231.240992 222.75167 
L 234.520331 222.401982 
L 237.799669 222.097507 
L 241.079008 221.843743 
L 244.358347 221.64551 
L 247.637686 221.506757 
L 250.917025 221.430379 
L 254.196364 221.418066 
L 257.475702 221.470161 
L 260.755041 221.58555 
L 264.03438 221.761569 
L 267.313719 221.993935 
L 270.593058 222.276704 
L 273.872397 222.602251 
L 277.151736 222.961288 
L 280.431074 223.342911 
L 283.710413 223.734697 
L 286.989752 224.122848 
L 290.269091 224.492393 
L 293.54843 224.827449 
L 296.827769 225.111542 
L 300.107107 225.32799 
L 303.386446 225.460326 
L 306.665785 225.492758 
L 309.945124 225.410639 
L 313.224463 225.200918 
L 316.503802 224.852543 
L 319.78314 224.3568 
L 323.062479 223.707537 
L 326.341818 222.901277 
L 329.621157 221.937196 
L 332.900496 220.816972 
L 336.179835 219.544519 
L 339.459174 218.125651 
L 342.738512 216.567693 
L 346.017851 214.87913 
L 349.29719 213.069327 
L 352.576529 211.148392 
L 355.855868 209.127236 
L 359.135207 207.017871 
L 362.414545 204.833958 
L 365.693884 202.591599 
L 368.973223 200.310343 
L 372.252562 198.014331 
L 375.531901 195.733493 
L 378.81124 193.504676 
L 382.090579 191.372584 
L 385.369917 189.390399 
L 388.649256 187.619955 
L 391.928595 186.13138 
L 395.207934 185.002131 
L 398.487273 184.315396 
" style="fill:none;stroke:#000000;stroke-linecap:square;stroke-width:0.5;"/>
   </g>
   <g id="line2d_32">
    <path clip-path="url(#p6ce72d6b8b)" d="M 73.832727 187.565055 
L 77.112066 190.309563 
L 80.391405 192.84889 
L 83.670744 195.178913 
L 86.950083 197.297445 
L 90.229421 199.204277 
L 93.50876 200.901193 
L 96.788099 202.391931 
L 100.067438 203.682109 
L 103.346777 204.779112 
L 106.626116 205.691948 
L 109.905455 206.431037 
L 113.184793 207.008017 
L 116.464132 207.435469 
L 119.743471 207.726665 
L 123.02281 207.895275 
L 126.302149 207.955082 
L 129.581488 207.919695 
L 132.860826 207.802253 
L 136.140165 207.615187 
L 139.419504 207.369959 
L 142.698843 207.076878 
L 145.978182 206.744921 
L 149.257521 206.381615 
L 152.53686 205.992978 
L 155.816198 205.583482 
L 159.095537 205.156115 
L 162.374876 204.712442 
L 165.654215 204.252781 
L 168.933554 203.776366 
L 172.212893 203.281597 
L 175.492231 202.766315 
L 178.77157 202.228093 
L 182.050909 201.66456 
L 185.330248 201.073728 
L 188.609587 200.454317 
L 191.888926 199.80606 
L 195.168264 199.129994 
L 198.447603 198.428697 
L 201.726942 197.706497 
L 205.006281 196.969596 
L 208.28562 196.226165 
L 211.564959 195.486328 
L 214.844298 194.762097 
L 218.123636 194.067221 
L 221.402975 193.416956 
L 224.682314 192.82776 
L 227.961653 192.316921 
L 231.240992 191.902121 
L 234.520331 191.600943 
L 237.799669 191.430358 
L 241.079008 191.406161 
L 244.358347 191.542419 
L 247.637686 191.850897 
L 250.917025 192.340543 
L 254.196364 193.01699 
L 257.475702 193.882109 
L 260.755041 194.933651 
L 264.03438 196.164971 
L 267.313719 197.564833 
L 270.593058 199.117347 
L 273.872397 200.802014 
L 277.151736 202.593862 
L 280.431074 204.463761 
L 283.710413 206.378795 
L 286.989752 208.302779 
L 290.269091 210.196884 
L 293.54843 212.020328 
L 296.827769 213.73117 
L 300.107107 215.287146 
L 303.386446 216.64656 
L 306.665785 217.769178 
L 309.945124 218.617144 
L 313.224463 219.155842 
L 316.503802 219.354754 
L 319.78314 219.188208 
L 323.062479 218.636078 
L 326.341818 217.684356 
L 329.621157 216.325624 
L 332.900496 214.55938 
L 336.179835 212.392251 
L 339.459174 209.838028 
L 342.738512 206.917584 
L 346.017851 203.658635 
L 349.29719 200.095356 
L 352.576529 196.267883 
L 355.855868 192.221677 
L 359.135207 188.0068 
L 362.414545 183.677092 
L 365.693884 179.28928 
L 368.973223 174.902047 
L 372.252562 170.575058 
L 375.531901 166.368 
L 378.81124 162.339599 
L 382.090579 158.546732 
L 385.369917 155.043517 
L 388.649256 151.880535 
L 391.928595 149.104108 
L 395.207934 146.755674 
L 398.487273 144.871276 
" style="fill:none;stroke:#ffa500;stroke-linecap:square;stroke-width:1.5;"/>
   </g>
   <g id="line2d_33">
    <path clip-path="url(#p6ce72d6b8b)" d="M 73.832727 96.261779 
L 77.112066 104.991452 
L 80.391405 111.388771 
L 83.670744 115.963425 
L 86.950083 119.170495 
L 90.229421 121.400197 
L 93.50876 122.972507 
L 96.788099 124.136426 
L 100.067438 125.073383 
L 103.346777 125.903999 
L 106.626116 126.697329 
L 109.905455 127.481514 
L 113.184793 128.254972 
L 116.464132 128.997123 
L 119.743471 129.678016 
L 123.02281 130.266258 
L 126.302149 130.734961 
L 129.581488 131.065596 
L 132.860826 131.249837 
L 136.140165 131.289703 
L 139.419504 131.196278 
L 142.698843 130.987555 
L 145.978182 130.685722 
L 149.257521 130.314397 
L 152.53686 129.896106 
L 155.816198 129.450236 
L 159.095537 128.991683 
L 162.374876 128.530134 
L 165.654215 128.070083 
L 168.933554 127.611339 
L 172.212893 127.149993 
L 175.492231 126.679624 
L 178.77157 126.192571 
L 182.050909 125.681171 
L 185.330248 125.138816 
L 188.609587 124.560773 
L 191.888926 123.94474 
L 195.168264 123.291129 
L 198.447603 122.603122 
L 201.726942 121.886558 
L 205.006281 121.149665 
L 208.28562 120.402772 
L 211.564959 119.657969 
L 214.844298 118.928797 
L 218.123636 118.229985 
L 221.402975 117.577201 
L 224.682314 116.986841 
L 227.961653 116.475814 
L 231.240992 116.061288 
L 234.520331 115.760382 
L 237.799669 115.589797 
L 241.079008 115.565328 
L 244.358347 115.701312 
L 247.637686 116.009978 
L 250.917025 116.500788 
L 254.196364 117.179754 
L 257.475702 118.04881 
L 260.755041 119.105292 
L 264.03438 120.341578 
L 267.313719 121.744901 
L 270.593058 123.297408 
L 273.872397 124.976439 
L 277.151736 126.754997 
L 280.431074 128.602441 
L 283.710413 130.485252 
L 286.989752 132.367866 
L 290.269091 134.213495 
L 293.54843 135.984806 
L 296.827769 137.644478 
L 300.107107 139.155542 
L 303.386446 140.481534 
L 306.665785 141.58648 
L 309.945124 142.434836 
L 313.224463 142.99141 
L 316.503802 143.221508 
L 319.78314 143.091336 
L 323.062479 142.568861 
L 326.341818 141.625158 
L 329.621157 140.236301 
L 332.900496 138.385699 
L 336.179835 136.066767 
L 339.459174 133.285613 
L 342.738512 130.063485 
L 346.017851 126.438513 
L 349.29719 122.466339 
L 352.576529 118.219234 
L 355.855868 113.783331 
L 359.135207 109.253755 
L 362.414545 104.727569 
L 365.693884 100.294661 
L 368.973223 96.026934 
L 372.252562 91.966332 
L 375.531901 88.112496 
L 378.81124 84.410913 
L 382.090579 80.742651 
L 385.369917 76.916567 
L 388.649256 72.665047 
L 391.928595 67.643989 
L 395.207934 61.437563 
L 398.487273 53.568 
" style="fill:none;stroke:#000000;stroke-linecap:square;stroke-width:0.5;"/>
   </g>
   <g id="line2d_34">
    <path clip-path="url(#p6ce72d6b8b)" d="M 73.832727 278.868331 
L 77.112066 275.627673 
L 80.391405 274.309009 
L 83.670744 274.394401 
L 86.950083 275.424395 
L 90.229421 277.008358 
L 93.50876 278.82988 
L 96.788099 280.647435 
L 100.067438 282.290834 
L 103.346777 283.654225 
L 106.626116 284.686567 
L 109.905455 285.38056 
L 113.184793 285.761062 
L 116.464132 285.873815 
L 119.743471 285.775314 
L 123.02281 285.524293 
L 126.302149 285.175204 
L 129.581488 284.773794 
L 132.860826 284.354668 
L 136.140165 283.940672 
L 139.419504 283.543639 
L 142.698843 283.166201 
L 145.978182 282.804119 
L 149.257521 282.448832 
L 152.53686 282.08985 
L 155.816198 281.716728 
L 159.095537 281.320547 
L 162.374876 280.89475 
L 165.654215 280.435479 
L 168.933554 279.941393 
L 172.212893 279.413201 
L 175.492231 278.853007 
L 178.77157 278.263616 
L 182.050909 277.647949 
L 185.330248 277.008641 
L 188.609587 276.34786 
L 191.888926 275.66738 
L 195.168264 274.96886 
L 198.447603 274.254272 
L 201.726942 273.526436 
L 205.006281 272.789528 
L 208.28562 272.049558 
L 211.564959 271.314687 
L 214.844298 270.595396 
L 218.123636 269.904457 
L 221.402975 269.256711 
L 224.682314 268.668678 
L 227.961653 268.158027 
L 231.240992 267.742955 
L 234.520331 267.441504 
L 237.799669 267.270919 
L 241.079008 267.246994 
L 244.358347 267.383526 
L 247.637686 267.691815 
L 250.917025 268.180298 
L 254.196364 268.854226 
L 257.475702 269.715408 
L 260.755041 270.762011 
L 264.03438 271.988364 
L 267.313719 273.384765 
L 270.593058 274.937286 
L 273.872397 276.627589 
L 277.151736 278.432727 
L 280.431074 280.325081 
L 283.710413 282.272338 
L 286.989752 284.237691 
L 290.269091 286.180274 
L 293.54843 288.05585 
L 296.827769 289.817861 
L 300.107107 291.418749 
L 303.386446 292.811587 
L 306.665785 293.951876 
L 309.945124 294.799452 
L 313.224463 295.320274 
L 316.503802 295.488 
L 319.78314 295.285081 
L 323.062479 294.703296 
L 326.341818 293.743555 
L 329.621157 292.414947 
L 332.900496 290.73306 
L 336.179835 288.717736 
L 339.459174 286.390443 
L 342.738512 283.771682 
L 346.017851 280.878756 
L 349.29719 277.724373 
L 352.576529 274.316532 
L 355.855868 270.660023 
L 359.135207 266.759845 
L 362.414545 262.626615 
L 365.693884 258.283899 
L 368.973223 253.777159 
L 372.252562 249.183784 
L 375.531901 244.623505 
L 378.81124 240.268286 
L 382.090579 236.350812 
L 385.369917 233.170466 
L 388.649256 231.096023 
L 391.928595 230.564227 
L 395.207934 232.073784 
L 398.487273 236.174552 
" style="fill:none;stroke:#000000;stroke-linecap:square;stroke-width:0.5;"/>
   </g>
   <g id="line2d_35">
    <path clip-path="url(#p6ce72d6b8b)" d="M 73.832727 225.456849 
L 77.112066 225.951752 
L 80.391405 226.430167 
L 83.670744 226.876508 
L 86.950083 227.277277 
L 90.229421 227.621214 
L 93.50876 227.899397 
L 96.788099 228.105268 
L 100.067438 228.234612 
L 103.346777 228.285474 
L 106.626116 228.258035 
L 109.905455 228.15443 
L 113.184793 227.978542 
L 116.464132 227.735755 
L 119.743471 227.432688 
L 123.02281 227.076912 
L 126.302149 226.676658 
L 129.581488 226.240524 
L 132.860826 225.777195 
L 136.140165 225.295169 
L 139.419504 224.802513 
L 142.698843 224.306636 
L 145.978182 223.814105 
L 149.257521 223.330487 
L 152.53686 222.860236 
L 155.816198 222.406622 
L 159.095537 221.971692 
L 162.374876 221.556289 
L 165.654215 221.160094 
L 168.933554 220.781718 
L 172.212893 220.41882 
L 175.492231 220.068265 
L 178.77157 219.726293 
L 182.050909 219.388721 
L 185.330248 219.051149 
L 188.609587 218.709177 
L 191.888926 218.358622 
L 195.168264 217.995725 
L 198.447603 217.617348 
L 201.726942 217.221154 
L 205.006281 216.80575 
L 208.28562 216.370821 
L 211.564959 215.917206 
L 214.844298 215.446955 
L 218.123636 214.963337 
L 221.402975 214.470806 
L 224.682314 213.974929 
L 227.961653 213.482273 
L 231.240992 213.000248 
L 234.520331 212.536918 
L 237.799669 212.100784 
L 241.079008 211.70053 
L 244.358347 211.344754 
L 247.637686 211.041687 
L 250.917025 210.798901 
L 254.196364 210.623013 
L 257.475702 210.519408 
L 260.755041 210.491968 
L 264.03438 210.542831 
L 267.313719 210.672174 
L 270.593058 210.878045 
L 273.872397 211.156228 
L 277.151736 211.500166 
L 280.431074 211.900934 
L 283.710413 212.347275 
L 286.989752 212.825691 
L 290.269091 213.320593 
L 293.54843 213.814523 
L 296.827769 214.288419 
L 300.107107 214.721951 
L 303.386446 215.093889 
L 306.665785 215.382536 
L 309.945124 215.56618 
L 313.224463 215.623587 
L 316.503802 215.534503 
L 319.78314 215.280176 
L 323.062479 214.843866 
L 326.341818 214.211346 
L 329.621157 213.371381 
L 332.900496 212.316161 
L 336.179835 211.041702 
L 339.459174 209.548172 
L 342.738512 207.840162 
L 346.017851 205.926873 
L 349.29719 203.822224 
L 352.576529 201.544862 
L 355.855868 199.118085 
L 359.135207 196.56966 
L 362.414545 193.931546 
L 365.693884 191.239517 
L 368.973223 188.532691 
L 372.252562 185.852965 
L 375.531901 183.244371 
L 378.81124 180.752355 
L 382.090579 178.422992 
L 385.369917 176.302148 
L 388.649256 174.434612 
L 391.928595 172.863193 
L 395.207934 171.627818 
L 398.487273 170.764645 
" style="fill:none;stroke:#0000ff;stroke-dasharray:5.55,2.4;stroke-dashoffset:0;stroke-width:1.5;"/>
   </g>
   <g id="line2d_36">
    <path clip-path="url(#p6ce72d6b8b)" d="M 73.832727 187.563384 
L 77.112066 189.226852 
L 80.391405 190.857346 
L 83.670744 192.423693 
L 86.950083 193.898893 
L 90.229421 195.260432 
L 93.50876 196.490461 
L 96.788099 197.575866 
L 100.067438 198.508216 
L 103.346777 199.283605 
L 106.626116 199.90239 
L 109.905455 200.368843 
L 113.184793 200.690731 
L 116.464132 200.878821 
L 119.743471 200.946351 
L 123.02281 200.908462 
L 126.302149 200.781617 
L 129.581488 200.583012 
L 132.860826 200.330017 
L 136.140165 200.03963 
L 139.419504 199.727981 
L 142.698843 199.409891 
L 145.978182 199.098492 
L 149.257521 198.804919 
L 152.53686 198.538081 
L 155.816198 198.304515 
L 159.095537 198.10832 
L 162.374876 197.951177 
L 165.654215 197.83245 
L 168.933554 197.749361 
L 172.212893 197.69723 
L 175.492231 197.669783 
L 178.77157 197.659503 
L 182.050909 197.658022 
L 185.330248 197.656541 
L 188.609587 197.646261 
L 191.888926 197.618814 
L 195.168264 197.566683 
L 198.447603 197.483594 
L 201.726942 197.364868 
L 205.006281 197.207725 
L 208.28562 197.011529 
L 211.564959 196.777963 
L 214.844298 196.511125 
L 218.123636 196.217552 
L 221.402975 195.906153 
L 224.682314 195.588063 
L 227.961653 195.276414 
L 231.240992 194.986027 
L 234.520331 194.733032 
L 237.799669 194.534427 
L 241.079008 194.407582 
L 244.358347 194.369693 
L 247.637686 194.437224 
L 250.917025 194.625313 
L 254.196364 194.947201 
L 257.475702 195.413655 
L 260.755041 196.032439 
L 264.03438 196.807828 
L 267.313719 197.740178 
L 270.593058 198.825584 
L 273.872397 200.055613 
L 277.151736 201.417151 
L 280.431074 202.892352 
L 283.710413 204.458698 
L 286.989752 206.089192 
L 290.269091 207.75266 
L 293.54843 209.414183 
L 296.827769 211.03564 
L 300.107107 212.576366 
L 303.386446 213.993906 
L 306.665785 215.244864 
L 309.945124 216.285815 
L 313.224463 217.074291 
L 316.503802 217.569787 
L 319.78314 217.734797 
L 323.062479 217.53584 
L 326.341818 216.944464 
L 329.621157 215.938197 
L 332.900496 214.501421 
L 336.179835 212.626166 
L 339.459174 210.31277 
L 342.738512 207.570413 
L 346.017851 204.417499 
L 349.29719 200.881864 
L 352.576529 197.000804 
L 355.855868 192.820913 
L 359.135207 188.397726 
L 362.414545 183.795161 
L 365.693884 179.084768 
L 368.973223 174.344779 
L 372.252562 169.658991 
L 375.531901 165.115466 
L 378.81124 160.805098 
L 382.090579 156.820034 
L 385.369917 153.252011 
L 388.649256 150.190602 
L 391.928595 147.721427 
L 395.207934 145.924341 
L 398.487273 144.871658 
" style="fill:none;stroke:#ffa500;stroke-dasharray:5.55,2.4;stroke-dashoffset:0;stroke-width:1.5;"/>
   </g>
   <g id="patch_3">
    <path d="M 57.6 307.584 
L 57.6 41.472 
" style="fill:none;stroke:#000000;stroke-linecap:square;stroke-linejoin:miter;stroke-width:0.8;"/>
   </g>
   <g id="patch_4">
    <path d="M 414.72 307.584 
L 414.72 41.472 
" style="fill:none;stroke:#000000;stroke-linecap:square;stroke-linejoin:miter;stroke-width:0.8;"/>
   </g>
   <g id="patch_5">
    <path d="M 57.6 307.584 
L 414.72 307.584 
" style="fill:none;stroke:#000000;stroke-linecap:square;stroke-linejoin:miter;stroke-width:0.8;"/>
   </g>
   <g id="patch_6">
    <path d="M 57.6 41.472 
L 414.72 41.472 
" style="fill:none;stroke:#000000;stroke-linecap:square;stroke-linejoin:miter;stroke-width:0.8;"/>
   </g>
   <g id="legend_1">
    <g id="patch_7">
     <path d="M 148.881875 108.1845 
L 323.438125 108.1845 
Q 325.438125 108.1845 325.438125 106.1845 
L 325.438125 48.472 
Q 325.438125 46.472 323.438125 46.472 
L 148.881875 46.472 
Q 146.881875 46.472 146.881875 48.472 
L 146.881875 106.1845 
Q 146.881875 108.1845 148.881875 108.1845 
z
" style="fill:#ffffff;opacity:0.8;stroke:#cccccc;stroke-linejoin:miter;"/>
    </g>
    <g id="line2d_37">
     <path d="M 150.881875 54.570438 
L 170.881875 54.570438 
" style="fill:none;stroke:#0000ff;stroke-linecap:square;stroke-width:1.5;"/>
    </g>
    <g id="line2d_38"/>
    <g id="text_15">
     <!-- MF cheap GPR (regular GPR) -->
     <g transform="translate(178.881875 58.070438)scale(0.1 -0.1)">
      <defs>
       <path d="M 9.8125 72.90625 
L 24.515625 72.90625 
L 43.109375 23.296875 
L 61.8125 72.90625 
L 76.515625 72.90625 
L 76.515625 0 
L 66.890625 0 
L 66.890625 64.015625 
L 48.09375 14.015625 
L 38.1875 14.015625 
L 19.390625 64.015625 
L 19.390625 0 
L 9.8125 0 
z
" id="DejaVuSans-77"/>
       <path d="M 9.8125 72.90625 
L 51.703125 72.90625 
L 51.703125 64.59375 
L 19.671875 64.59375 
L 19.671875 43.109375 
L 48.578125 43.109375 
L 48.578125 34.8125 
L 19.671875 34.8125 
L 19.671875 0 
L 9.8125 0 
z
" id="DejaVuSans-70"/>
       <path id="DejaVuSans-32"/>
       <path d="M 48.78125 52.59375 
L 48.78125 44.1875 
Q 44.96875 46.296875 41.140625 47.34375 
Q 37.3125 48.390625 33.40625 48.390625 
Q 24.65625 48.390625 19.8125 42.84375 
Q 14.984375 37.3125 14.984375 27.296875 
Q 14.984375 17.28125 19.8125 11.734375 
Q 24.65625 6.203125 33.40625 6.203125 
Q 37.3125 6.203125 41.140625 7.25 
Q 44.96875 8.296875 48.78125 10.40625 
L 48.78125 2.09375 
Q 45.015625 0.34375 40.984375 -0.53125 
Q 36.96875 -1.421875 32.421875 -1.421875 
Q 20.0625 -1.421875 12.78125 6.34375 
Q 5.515625 14.109375 5.515625 27.296875 
Q 5.515625 40.671875 12.859375 48.328125 
Q 20.21875 56 33.015625 56 
Q 37.15625 56 41.109375 55.140625 
Q 45.0625 54.296875 48.78125 52.59375 
z
" id="DejaVuSans-99"/>
       <path d="M 54.890625 33.015625 
L 54.890625 0 
L 45.90625 0 
L 45.90625 32.71875 
Q 45.90625 40.484375 42.875 44.328125 
Q 39.84375 48.1875 33.796875 48.1875 
Q 26.515625 48.1875 22.3125 43.546875 
Q 18.109375 38.921875 18.109375 30.90625 
L 18.109375 0 
L 9.078125 0 
L 9.078125 75.984375 
L 18.109375 75.984375 
L 18.109375 46.1875 
Q 21.34375 51.125 25.703125 53.5625 
Q 30.078125 56 35.796875 56 
Q 45.21875 56 50.046875 50.171875 
Q 54.890625 44.34375 54.890625 33.015625 
z
" id="DejaVuSans-104"/>
       <path d="M 56.203125 29.59375 
L 56.203125 25.203125 
L 14.890625 25.203125 
Q 15.484375 15.921875 20.484375 11.0625 
Q 25.484375 6.203125 34.421875 6.203125 
Q 39.59375 6.203125 44.453125 7.46875 
Q 49.3125 8.734375 54.109375 11.28125 
L 54.109375 2.78125 
Q 49.265625 0.734375 44.1875 -0.34375 
Q 39.109375 -1.421875 33.890625 -1.421875 
Q 20.796875 -1.421875 13.15625 6.1875 
Q 5.515625 13.8125 5.515625 26.8125 
Q 5.515625 40.234375 12.765625 48.109375 
Q 20.015625 56 32.328125 56 
Q 43.359375 56 49.78125 48.890625 
Q 56.203125 41.796875 56.203125 29.59375 
z
M 47.21875 32.234375 
Q 47.125 39.59375 43.09375 43.984375 
Q 39.0625 48.390625 32.421875 48.390625 
Q 24.90625 48.390625 20.390625 44.140625 
Q 15.875 39.890625 15.1875 32.171875 
z
" id="DejaVuSans-101"/>
       <path d="M 34.28125 27.484375 
Q 23.390625 27.484375 19.1875 25 
Q 14.984375 22.515625 14.984375 16.5 
Q 14.984375 11.71875 18.140625 8.90625 
Q 21.296875 6.109375 26.703125 6.109375 
Q 34.1875 6.109375 38.703125 11.40625 
Q 43.21875 16.703125 43.21875 25.484375 
L 43.21875 27.484375 
z
M 52.203125 31.203125 
L 52.203125 0 
L 43.21875 0 
L 43.21875 8.296875 
Q 40.140625 3.328125 35.546875 0.953125 
Q 30.953125 -1.421875 24.3125 -1.421875 
Q 15.921875 -1.421875 10.953125 3.296875 
Q 6 8.015625 6 15.921875 
Q 6 25.140625 12.171875 29.828125 
Q 18.359375 34.515625 30.609375 34.515625 
L 43.21875 34.515625 
L 43.21875 35.40625 
Q 43.21875 41.609375 39.140625 45 
Q 35.0625 48.390625 27.6875 48.390625 
Q 23 48.390625 18.546875 47.265625 
Q 14.109375 46.140625 10.015625 43.890625 
L 10.015625 52.203125 
Q 14.9375 54.109375 19.578125 55.046875 
Q 24.21875 56 28.609375 56 
Q 40.484375 56 46.34375 49.84375 
Q 52.203125 43.703125 52.203125 31.203125 
z
" id="DejaVuSans-97"/>
       <path d="M 18.109375 8.203125 
L 18.109375 -20.796875 
L 9.078125 -20.796875 
L 9.078125 54.6875 
L 18.109375 54.6875 
L 18.109375 46.390625 
Q 20.953125 51.265625 25.265625 53.625 
Q 29.59375 56 35.59375 56 
Q 45.5625 56 51.78125 48.09375 
Q 58.015625 40.1875 58.015625 27.296875 
Q 58.015625 14.40625 51.78125 6.484375 
Q 45.5625 -1.421875 35.59375 -1.421875 
Q 29.59375 -1.421875 25.265625 0.953125 
Q 20.953125 3.328125 18.109375 8.203125 
z
M 48.6875 27.296875 
Q 48.6875 37.203125 44.609375 42.84375 
Q 40.53125 48.484375 33.40625 48.484375 
Q 26.265625 48.484375 22.1875 42.84375 
Q 18.109375 37.203125 18.109375 27.296875 
Q 18.109375 17.390625 22.1875 11.75 
Q 26.265625 6.109375 33.40625 6.109375 
Q 40.53125 6.109375 44.609375 11.75 
Q 48.6875 17.390625 48.6875 27.296875 
z
" id="DejaVuSans-112"/>
       <path d="M 59.515625 10.40625 
L 59.515625 29.984375 
L 43.40625 29.984375 
L 43.40625 38.09375 
L 69.28125 38.09375 
L 69.28125 6.78125 
Q 63.578125 2.734375 56.6875 0.65625 
Q 49.8125 -1.421875 42 -1.421875 
Q 24.90625 -1.421875 15.25 8.5625 
Q 5.609375 18.5625 5.609375 36.375 
Q 5.609375 54.25 15.25 64.234375 
Q 24.90625 74.21875 42 74.21875 
Q 49.125 74.21875 55.546875 72.453125 
Q 61.96875 70.703125 67.390625 67.28125 
L 67.390625 56.78125 
Q 61.921875 61.421875 55.765625 63.765625 
Q 49.609375 66.109375 42.828125 66.109375 
Q 29.4375 66.109375 22.71875 58.640625 
Q 16.015625 51.171875 16.015625 36.375 
Q 16.015625 21.625 22.71875 14.15625 
Q 29.4375 6.6875 42.828125 6.6875 
Q 48.046875 6.6875 52.140625 7.59375 
Q 56.25 8.5 59.515625 10.40625 
z
" id="DejaVuSans-71"/>
       <path d="M 19.671875 64.796875 
L 19.671875 37.40625 
L 32.078125 37.40625 
Q 38.96875 37.40625 42.71875 40.96875 
Q 46.484375 44.53125 46.484375 51.125 
Q 46.484375 57.671875 42.71875 61.234375 
Q 38.96875 64.796875 32.078125 64.796875 
z
M 9.8125 72.90625 
L 32.078125 72.90625 
Q 44.34375 72.90625 50.609375 67.359375 
Q 56.890625 61.8125 56.890625 51.125 
Q 56.890625 40.328125 50.609375 34.8125 
Q 44.34375 29.296875 32.078125 29.296875 
L 19.671875 29.296875 
L 19.671875 0 
L 9.8125 0 
z
" id="DejaVuSans-80"/>
       <path d="M 44.390625 34.1875 
Q 47.5625 33.109375 50.5625 29.59375 
Q 53.5625 26.078125 56.59375 19.921875 
L 66.609375 0 
L 56 0 
L 46.6875 18.703125 
Q 43.0625 26.03125 39.671875 28.421875 
Q 36.28125 30.8125 30.421875 30.8125 
L 19.671875 30.8125 
L 19.671875 0 
L 9.8125 0 
L 9.8125 72.90625 
L 32.078125 72.90625 
Q 44.578125 72.90625 50.734375 67.671875 
Q 56.890625 62.453125 56.890625 51.90625 
Q 56.890625 45.015625 53.6875 40.46875 
Q 50.484375 35.9375 44.390625 34.1875 
z
M 19.671875 64.796875 
L 19.671875 38.921875 
L 32.078125 38.921875 
Q 39.203125 38.921875 42.84375 42.21875 
Q 46.484375 45.515625 46.484375 51.90625 
Q 46.484375 58.296875 42.84375 61.546875 
Q 39.203125 64.796875 32.078125 64.796875 
z
" id="DejaVuSans-82"/>
       <path d="M 31 75.875 
Q 24.46875 64.65625 21.28125 53.65625 
Q 18.109375 42.671875 18.109375 31.390625 
Q 18.109375 20.125 21.3125 9.0625 
Q 24.515625 -2 31 -13.1875 
L 23.1875 -13.1875 
Q 15.875 -1.703125 12.234375 9.375 
Q 8.59375 20.453125 8.59375 31.390625 
Q 8.59375 42.28125 12.203125 53.3125 
Q 15.828125 64.359375 23.1875 75.875 
z
" id="DejaVuSans-40"/>
       <path d="M 41.109375 46.296875 
Q 39.59375 47.171875 37.8125 47.578125 
Q 36.03125 48 33.890625 48 
Q 26.265625 48 22.1875 43.046875 
Q 18.109375 38.09375 18.109375 28.8125 
L 18.109375 0 
L 9.078125 0 
L 9.078125 54.6875 
L 18.109375 54.6875 
L 18.109375 46.1875 
Q 20.953125 51.171875 25.484375 53.578125 
Q 30.03125 56 36.53125 56 
Q 37.453125 56 38.578125 55.875 
Q 39.703125 55.765625 41.0625 55.515625 
z
" id="DejaVuSans-114"/>
       <path d="M 45.40625 27.984375 
Q 45.40625 37.75 41.375 43.109375 
Q 37.359375 48.484375 30.078125 48.484375 
Q 22.859375 48.484375 18.828125 43.109375 
Q 14.796875 37.75 14.796875 27.984375 
Q 14.796875 18.265625 18.828125 12.890625 
Q 22.859375 7.515625 30.078125 7.515625 
Q 37.359375 7.515625 41.375 12.890625 
Q 45.40625 18.265625 45.40625 27.984375 
z
M 54.390625 6.78125 
Q 54.390625 -7.171875 48.1875 -13.984375 
Q 42 -20.796875 29.203125 -20.796875 
Q 24.46875 -20.796875 20.265625 -20.09375 
Q 16.0625 -19.390625 12.109375 -17.921875 
L 12.109375 -9.1875 
Q 16.0625 -11.328125 19.921875 -12.34375 
Q 23.78125 -13.375 27.78125 -13.375 
Q 36.625 -13.375 41.015625 -8.765625 
Q 45.40625 -4.15625 45.40625 5.171875 
L 45.40625 9.625 
Q 42.625 4.78125 38.28125 2.390625 
Q 33.9375 0 27.875 0 
Q 17.828125 0 11.671875 7.65625 
Q 5.515625 15.328125 5.515625 27.984375 
Q 5.515625 40.671875 11.671875 48.328125 
Q 17.828125 56 27.875 56 
Q 33.9375 56 38.28125 53.609375 
Q 42.625 51.21875 45.40625 46.390625 
L 45.40625 54.6875 
L 54.390625 54.6875 
z
" id="DejaVuSans-103"/>
       <path d="M 8.5 21.578125 
L 8.5 54.6875 
L 17.484375 54.6875 
L 17.484375 21.921875 
Q 17.484375 14.15625 20.5 10.265625 
Q 23.53125 6.390625 29.59375 6.390625 
Q 36.859375 6.390625 41.078125 11.03125 
Q 45.3125 15.671875 45.3125 23.6875 
L 45.3125 54.6875 
L 54.296875 54.6875 
L 54.296875 0 
L 45.3125 0 
L 45.3125 8.40625 
Q 42.046875 3.421875 37.71875 1 
Q 33.40625 -1.421875 27.6875 -1.421875 
Q 18.265625 -1.421875 13.375 4.4375 
Q 8.5 10.296875 8.5 21.578125 
z
M 31.109375 56 
z
" id="DejaVuSans-117"/>
       <path d="M 9.421875 75.984375 
L 18.40625 75.984375 
L 18.40625 0 
L 9.421875 0 
z
" id="DejaVuSans-108"/>
       <path d="M 8.015625 75.875 
L 15.828125 75.875 
Q 23.140625 64.359375 26.78125 53.3125 
Q 30.421875 42.28125 30.421875 31.390625 
Q 30.421875 20.453125 26.78125 9.375 
Q 23.140625 -1.703125 15.828125 -13.1875 
L 8.015625 -13.1875 
Q 14.5 -2 17.703125 9.0625 
Q 20.90625 20.125 20.90625 31.390625 
Q 20.90625 42.671875 17.703125 53.65625 
Q 14.5 64.65625 8.015625 75.875 
z
" id="DejaVuSans-41"/>
      </defs>
      <use xlink:href="#DejaVuSans-77"/>
      <use x="86.279297" xlink:href="#DejaVuSans-70"/>
      <use x="143.798828" xlink:href="#DejaVuSans-32"/>
      <use x="175.585938" xlink:href="#DejaVuSans-99"/>
      <use x="230.566406" xlink:href="#DejaVuSans-104"/>
      <use x="293.945312" xlink:href="#DejaVuSans-101"/>
      <use x="355.46875" xlink:href="#DejaVuSans-97"/>
      <use x="416.748047" xlink:href="#DejaVuSans-112"/>
      <use x="480.224609" xlink:href="#DejaVuSans-32"/>
      <use x="512.011719" xlink:href="#DejaVuSans-71"/>
      <use x="589.501953" xlink:href="#DejaVuSans-80"/>
      <use x="649.804688" xlink:href="#DejaVuSans-82"/>
      <use x="719.287109" xlink:href="#DejaVuSans-32"/>
      <use x="751.074219" xlink:href="#DejaVuSans-40"/>
      <use x="790.087891" xlink:href="#DejaVuSans-114"/>
      <use x="828.951172" xlink:href="#DejaVuSans-101"/>
      <use x="890.474609" xlink:href="#DejaVuSans-103"/>
      <use x="953.951172" xlink:href="#DejaVuSans-117"/>
      <use x="1017.330078" xlink:href="#DejaVuSans-108"/>
      <use x="1045.113281" xlink:href="#DejaVuSans-97"/>
      <use x="1106.392578" xlink:href="#DejaVuSans-114"/>
      <use x="1147.505859" xlink:href="#DejaVuSans-32"/>
      <use x="1179.292969" xlink:href="#DejaVuSans-71"/>
      <use x="1256.783203" xlink:href="#DejaVuSans-80"/>
      <use x="1317.085938" xlink:href="#DejaVuSans-82"/>
      <use x="1386.568359" xlink:href="#DejaVuSans-41"/>
     </g>
    </g>
    <g id="line2d_39">
     <path d="M 150.881875 69.248563 
L 170.881875 69.248563 
" style="fill:none;stroke:#ffa500;stroke-linecap:square;stroke-width:1.5;"/>
    </g>
    <g id="line2d_40"/>
    <g id="text_16">
     <!-- MF expensive GPR -->
     <g transform="translate(178.881875 72.748563)scale(0.1 -0.1)">
      <defs>
       <path d="M 54.890625 54.6875 
L 35.109375 28.078125 
L 55.90625 0 
L 45.3125 0 
L 29.390625 21.484375 
L 13.484375 0 
L 2.875 0 
L 24.125 28.609375 
L 4.6875 54.6875 
L 15.28125 54.6875 
L 29.78125 35.203125 
L 44.28125 54.6875 
z
" id="DejaVuSans-120"/>
       <path d="M 54.890625 33.015625 
L 54.890625 0 
L 45.90625 0 
L 45.90625 32.71875 
Q 45.90625 40.484375 42.875 44.328125 
Q 39.84375 48.1875 33.796875 48.1875 
Q 26.515625 48.1875 22.3125 43.546875 
Q 18.109375 38.921875 18.109375 30.90625 
L 18.109375 0 
L 9.078125 0 
L 9.078125 54.6875 
L 18.109375 54.6875 
L 18.109375 46.1875 
Q 21.34375 51.125 25.703125 53.5625 
Q 30.078125 56 35.796875 56 
Q 45.21875 56 50.046875 50.171875 
Q 54.890625 44.34375 54.890625 33.015625 
z
" id="DejaVuSans-110"/>
       <path d="M 44.28125 53.078125 
L 44.28125 44.578125 
Q 40.484375 46.53125 36.375 47.5 
Q 32.28125 48.484375 27.875 48.484375 
Q 21.1875 48.484375 17.84375 46.4375 
Q 14.5 44.390625 14.5 40.28125 
Q 14.5 37.15625 16.890625 35.375 
Q 19.28125 33.59375 26.515625 31.984375 
L 29.59375 31.296875 
Q 39.15625 29.25 43.1875 25.515625 
Q 47.21875 21.78125 47.21875 15.09375 
Q 47.21875 7.46875 41.1875 3.015625 
Q 35.15625 -1.421875 24.609375 -1.421875 
Q 20.21875 -1.421875 15.453125 -0.5625 
Q 10.6875 0.296875 5.421875 2 
L 5.421875 11.28125 
Q 10.40625 8.6875 15.234375 7.390625 
Q 20.0625 6.109375 24.8125 6.109375 
Q 31.15625 6.109375 34.5625 8.28125 
Q 37.984375 10.453125 37.984375 14.40625 
Q 37.984375 18.0625 35.515625 20.015625 
Q 33.0625 21.96875 24.703125 23.78125 
L 21.578125 24.515625 
Q 13.234375 26.265625 9.515625 29.90625 
Q 5.8125 33.546875 5.8125 39.890625 
Q 5.8125 47.609375 11.28125 51.796875 
Q 16.75 56 26.8125 56 
Q 31.78125 56 36.171875 55.265625 
Q 40.578125 54.546875 44.28125 53.078125 
z
" id="DejaVuSans-115"/>
       <path d="M 9.421875 54.6875 
L 18.40625 54.6875 
L 18.40625 0 
L 9.421875 0 
z
M 9.421875 75.984375 
L 18.40625 75.984375 
L 18.40625 64.59375 
L 9.421875 64.59375 
z
" id="DejaVuSans-105"/>
       <path d="M 2.984375 54.6875 
L 12.5 54.6875 
L 29.59375 8.796875 
L 46.6875 54.6875 
L 56.203125 54.6875 
L 35.6875 0 
L 23.484375 0 
z
" id="DejaVuSans-118"/>
      </defs>
      <use xlink:href="#DejaVuSans-77"/>
      <use x="86.279297" xlink:href="#DejaVuSans-70"/>
      <use x="143.798828" xlink:href="#DejaVuSans-32"/>
      <use x="175.585938" xlink:href="#DejaVuSans-101"/>
      <use x="235.359375" xlink:href="#DejaVuSans-120"/>
      <use x="294.539062" xlink:href="#DejaVuSans-112"/>
      <use x="358.015625" xlink:href="#DejaVuSans-101"/>
      <use x="419.539062" xlink:href="#DejaVuSans-110"/>
      <use x="482.917969" xlink:href="#DejaVuSans-115"/>
      <use x="535.017578" xlink:href="#DejaVuSans-105"/>
      <use x="562.800781" xlink:href="#DejaVuSans-118"/>
      <use x="621.980469" xlink:href="#DejaVuSans-101"/>
      <use x="683.503906" xlink:href="#DejaVuSans-32"/>
      <use x="715.291016" xlink:href="#DejaVuSans-71"/>
      <use x="792.78125" xlink:href="#DejaVuSans-80"/>
      <use x="853.083984" xlink:href="#DejaVuSans-82"/>
     </g>
    </g>
    <g id="line2d_41">
     <path d="M 150.881875 83.926688 
L 170.881875 83.926688 
" style="fill:none;stroke:#0000ff;stroke-dasharray:5.55,2.4;stroke-dashoffset:0;stroke-width:1.5;"/>
    </g>
    <g id="line2d_42"/>
    <g id="text_17">
     <!-- Exact cheap function -->
     <g transform="translate(178.881875 87.426688)scale(0.1 -0.1)">
      <defs>
       <path d="M 9.8125 72.90625 
L 55.90625 72.90625 
L 55.90625 64.59375 
L 19.671875 64.59375 
L 19.671875 43.015625 
L 54.390625 43.015625 
L 54.390625 34.71875 
L 19.671875 34.71875 
L 19.671875 8.296875 
L 56.78125 8.296875 
L 56.78125 0 
L 9.8125 0 
z
" id="DejaVuSans-69"/>
       <path d="M 18.3125 70.21875 
L 18.3125 54.6875 
L 36.8125 54.6875 
L 36.8125 47.703125 
L 18.3125 47.703125 
L 18.3125 18.015625 
Q 18.3125 11.328125 20.140625 9.421875 
Q 21.96875 7.515625 27.59375 7.515625 
L 36.8125 7.515625 
L 36.8125 0 
L 27.59375 0 
Q 17.1875 0 13.234375 3.875 
Q 9.28125 7.765625 9.28125 18.015625 
L 9.28125 47.703125 
L 2.6875 47.703125 
L 2.6875 54.6875 
L 9.28125 54.6875 
L 9.28125 70.21875 
z
" id="DejaVuSans-116"/>
       <path d="M 37.109375 75.984375 
L 37.109375 68.5 
L 28.515625 68.5 
Q 23.6875 68.5 21.796875 66.546875 
Q 19.921875 64.59375 19.921875 59.515625 
L 19.921875 54.6875 
L 34.71875 54.6875 
L 34.71875 47.703125 
L 19.921875 47.703125 
L 19.921875 0 
L 10.890625 0 
L 10.890625 47.703125 
L 2.296875 47.703125 
L 2.296875 54.6875 
L 10.890625 54.6875 
L 10.890625 58.5 
Q 10.890625 67.625 15.140625 71.796875 
Q 19.390625 75.984375 28.609375 75.984375 
z
" id="DejaVuSans-102"/>
       <path d="M 30.609375 48.390625 
Q 23.390625 48.390625 19.1875 42.75 
Q 14.984375 37.109375 14.984375 27.296875 
Q 14.984375 17.484375 19.15625 11.84375 
Q 23.34375 6.203125 30.609375 6.203125 
Q 37.796875 6.203125 41.984375 11.859375 
Q 46.1875 17.53125 46.1875 27.296875 
Q 46.1875 37.015625 41.984375 42.703125 
Q 37.796875 48.390625 30.609375 48.390625 
z
M 30.609375 56 
Q 42.328125 56 49.015625 48.375 
Q 55.71875 40.765625 55.71875 27.296875 
Q 55.71875 13.875 49.015625 6.21875 
Q 42.328125 -1.421875 30.609375 -1.421875 
Q 18.84375 -1.421875 12.171875 6.21875 
Q 5.515625 13.875 5.515625 27.296875 
Q 5.515625 40.765625 12.171875 48.375 
Q 18.84375 56 30.609375 56 
z
" id="DejaVuSans-111"/>
      </defs>
      <use xlink:href="#DejaVuSans-69"/>
      <use x="63.183594" xlink:href="#DejaVuSans-120"/>
      <use x="122.363281" xlink:href="#DejaVuSans-97"/>
      <use x="183.642578" xlink:href="#DejaVuSans-99"/>
      <use x="238.623047" xlink:href="#DejaVuSans-116"/>
      <use x="277.832031" xlink:href="#DejaVuSans-32"/>
      <use x="309.619141" xlink:href="#DejaVuSans-99"/>
      <use x="364.599609" xlink:href="#DejaVuSans-104"/>
      <use x="427.978516" xlink:href="#DejaVuSans-101"/>
      <use x="489.501953" xlink:href="#DejaVuSans-97"/>
      <use x="550.78125" xlink:href="#DejaVuSans-112"/>
      <use x="614.257812" xlink:href="#DejaVuSans-32"/>
      <use x="646.044922" xlink:href="#DejaVuSans-102"/>
      <use x="681.25" xlink:href="#DejaVuSans-117"/>
      <use x="744.628906" xlink:href="#DejaVuSans-110"/>
      <use x="808.007812" xlink:href="#DejaVuSans-99"/>
      <use x="862.988281" xlink:href="#DejaVuSans-116"/>
      <use x="902.197266" xlink:href="#DejaVuSans-105"/>
      <use x="929.980469" xlink:href="#DejaVuSans-111"/>
      <use x="991.162109" xlink:href="#DejaVuSans-110"/>
     </g>
    </g>
    <g id="line2d_43">
     <path d="M 150.881875 98.604813 
L 170.881875 98.604813 
" style="fill:none;stroke:#ffa500;stroke-dasharray:5.55,2.4;stroke-dashoffset:0;stroke-width:1.5;"/>
    </g>
    <g id="line2d_44"/>
    <g id="text_18">
     <!-- Exact expensive function -->
     <g transform="translate(178.881875 102.104813)scale(0.1 -0.1)">
      <use xlink:href="#DejaVuSans-69"/>
      <use x="63.183594" xlink:href="#DejaVuSans-120"/>
      <use x="122.363281" xlink:href="#DejaVuSans-97"/>
      <use x="183.642578" xlink:href="#DejaVuSans-99"/>
      <use x="238.623047" xlink:href="#DejaVuSans-116"/>
      <use x="277.832031" xlink:href="#DejaVuSans-32"/>
      <use x="309.619141" xlink:href="#DejaVuSans-101"/>
      <use x="369.392578" xlink:href="#DejaVuSans-120"/>
      <use x="428.572266" xlink:href="#DejaVuSans-112"/>
      <use x="492.048828" xlink:href="#DejaVuSans-101"/>
      <use x="553.572266" xlink:href="#DejaVuSans-110"/>
      <use x="616.951172" xlink:href="#DejaVuSans-115"/>
      <use x="669.050781" xlink:href="#DejaVuSans-105"/>
      <use x="696.833984" xlink:href="#DejaVuSans-118"/>
      <use x="756.013672" xlink:href="#DejaVuSans-101"/>
      <use x="817.537109" xlink:href="#DejaVuSans-32"/>
      <use x="849.324219" xlink:href="#DejaVuSans-102"/>
      <use x="884.529297" xlink:href="#DejaVuSans-117"/>
      <use x="947.908203" xlink:href="#DejaVuSans-110"/>
      <use x="1011.287109" xlink:href="#DejaVuSans-99"/>
      <use x="1066.267578" xlink:href="#DejaVuSans-116"/>
      <use x="1105.476562" xlink:href="#DejaVuSans-105"/>
      <use x="1133.259766" xlink:href="#DejaVuSans-111"/>
      <use x="1194.441406" xlink:href="#DejaVuSans-110"/>
     </g>
    </g>
   </g>
  </g>
 </g>
 <defs>
  <clipPath id="p6ce72d6b8b">
   <rect height="266.112" width="357.12" x="57.6" y="41.472"/>
  </clipPath>
 </defs>
</svg>
