<?xml version="1.0" encoding="utf-8" standalone="no"?>
<!DOCTYPE svg PUBLIC "-//W3C//DTD SVG 1.1//EN"
  "http://www.w3.org/Graphics/SVG/1.1/DTD/svg11.dtd">
<!-- Created with matplotlib (https://matplotlib.org/) -->
<svg height="345.6pt" version="1.1" viewBox="0 0 460.8 345.6" width="460.8pt" xmlns="http://www.w3.org/2000/svg" xmlns:xlink="http://www.w3.org/1999/xlink">
 <metadata>
  <rdf:RDF xmlns:cc="http://creativecommons.org/ns#" xmlns:dc="http://purl.org/dc/elements/1.1/" xmlns:rdf="http://www.w3.org/1999/02/22-rdf-syntax-ns#">
   <cc:Work>
    <dc:type rdf:resource="http://purl.org/dc/dcmitype/StillImage"/>
    <dc:date>2020-11-24T13:55:21.903067</dc:date>
    <dc:format>image/svg+xml</dc:format>
    <dc:creator>
     <cc:Agent>
      <dc:title>Matplotlib v3.3.1, https://matplotlib.org/</dc:title>
     </cc:Agent>
    </dc:creator>
   </cc:Work>
  </rdf:RDF>
 </metadata>
 <defs>
  <style type="text/css">*{stroke-linecap:butt;stroke-linejoin:round;}</style>
 </defs>
 <g id="figure_1">
  <g id="patch_1">
   <path d="M 0 345.6 
L 460.8 345.6 
L 460.8 0 
L 0 0 
z
" style="fill:#ffffff;"/>
  </g>
  <g id="axes_1">
   <g id="patch_2">
    <path d="M 57.6 307.584 
L 414.72 307.584 
L 414.72 41.472 
L 57.6 41.472 
z
" style="fill:#ffffff;"/>
   </g>
   <g id="PolyCollection_1">
    <defs>
     <path d="M 73.832727 -121.702406 
L 73.832727 -87.778892 
L 77.112066 -88.177071 
L 80.391405 -88.265272 
L 83.670744 -88.141474 
L 86.950083 -87.892185 
L 90.229421 -87.590496 
L 93.50876 -87.295082 
L 96.788099 -87.050085 
L 100.067438 -86.8858 
L 103.346777 -86.820009 
L 106.626116 -86.859801 
L 109.905455 -87.003687 
L 113.184793 -87.243823 
L 116.464132 -87.568185 
L 119.743471 -87.962532 
L 123.02281 -88.412081 
L 126.302149 -88.902809 
L 129.581488 -89.42237 
L 132.860826 -89.960627 
L 136.140165 -90.509863 
L 139.419504 -91.064706 
L 142.698843 -91.621863 
L 145.978182 -92.17974 
L 149.257521 -92.738002 
L 152.53686 -93.297154 
L 155.816198 -93.85818 
L 159.095537 -94.422254 
L 162.374876 -94.990558 
L 165.654215 -95.564172 
L 168.933554 -96.144049 
L 172.212893 -96.731026 
L 175.492231 -97.32586 
L 178.77157 -97.92926 
L 182.050909 -98.541898 
L 185.330248 -99.164378 
L 188.609587 -99.797164 
L 191.888926 -100.440474 
L 195.168264 -101.094136 
L 198.447603 -101.757426 
L 201.726942 -102.428916 
L 205.006281 -103.106324 
L 208.28562 -103.786412 
L 211.564959 -104.464918 
L 214.844298 -105.136551 
L 218.123636 -105.795045 
L 221.402975 -106.433274 
L 224.682314 -107.043417 
L 227.961653 -107.617178 
L 231.240992 -108.146037 
L 234.520331 -108.621533 
L 237.799669 -109.035549 
L 241.079008 -109.380609 
L 244.358347 -109.65016 
L 247.637686 -109.838832 
L 250.917025 -109.942688 
L 254.196364 -109.959431 
L 257.475702 -109.888594 
L 260.755041 -109.731692 
L 264.03438 -109.492347 
L 267.313719 -109.176383 
L 270.593058 -108.791883 
L 273.872397 -108.349213 
L 277.151736 -107.861006 
L 280.431074 -107.342087 
L 283.710413 -106.809349 
L 286.989752 -106.281552 
L 290.269091 -105.779056 
L 293.54843 -105.323457 
L 296.827769 -104.937155 
L 300.107107 -104.642837 
L 303.386446 -104.462891 
L 306.665785 -104.41879 
L 309.945124 -104.530452 
L 313.224463 -104.815625 
L 316.503802 -105.289334 
L 319.78314 -105.96343 
L 323.062479 -106.846278 
L 326.341818 -107.942605 
L 329.621157 -109.253533 
L 332.900496 -110.776779 
L 336.179835 -112.507021 
L 339.459174 -114.436355 
L 342.738512 -116.554819 
L 346.017851 -118.850874 
L 349.29719 -121.311789 
L 352.576529 -123.923818 
L 355.855868 -126.672123 
L 359.135207 -129.540373 
L 362.414545 -132.509991 
L 365.693884 -135.559082 
L 368.973223 -138.661064 
L 372.252562 -141.78311 
L 375.531901 -144.884524 
L 378.81124 -147.915201 
L 382.090579 -150.814354 
L 385.369917 -153.509669 
L 388.649256 -155.917065 
L 391.928595 -157.941184 
L 395.207934 -159.476702 
L 398.487273 -160.410502 
L 398.487273 -194.334016 
L 398.487273 -194.334016 
L 395.207934 -191.176442 
L 391.928595 -188.207496 
L 388.649256 -185.349391 
L 385.369917 -182.537551 
L 382.090579 -179.722275 
L 378.81124 -176.86942 
L 375.531901 -173.960171 
L 372.252562 -170.989996 
L 368.973223 -167.966925 
L 365.693884 -164.909345 
L 362.414545 -161.843498 
L 359.135207 -158.800879 
L 355.855868 -155.815704 
L 352.576529 -152.922607 
L 349.29719 -150.154665 
L 346.017851 -147.541826 
L 342.738512 -145.109776 
L 339.459174 -142.879222 
L 336.179835 -140.865573 
L 332.900496 -139.078929 
L 329.621157 -137.524339 
L 326.341818 -136.202219 
L 323.062479 -135.108872 
L 319.78314 -134.237042 
L 316.503802 -133.57646 
L 313.224463 -133.114338 
L 309.945124 -132.835807 
L 306.665785 -132.72429 
L 303.386446 -132.761825 
L 300.107107 -132.929352 
L 296.827769 -133.206984 
L 293.54843 -133.574274 
L 290.269091 -134.010503 
L 286.989752 -134.494988 
L 283.710413 -135.007414 
L 280.431074 -135.52818 
L 277.151736 -136.038756 
L 273.872397 -136.522025 
L 270.593058 -136.9626 
L 267.313719 -137.347098 
L 264.03438 -137.664348 
L 260.755041 -137.905538 
L 257.475702 -138.064276 
L 254.196364 -138.136576 
L 250.917025 -138.120768 
L 247.637686 -138.017345 
L 244.358347 -137.828742 
L 241.079008 -137.55909 
L 237.799669 -137.213928 
L 234.520331 -136.799912 
L 231.240992 -136.324518 
L 227.961653 -135.79576 
L 224.682314 -135.221929 
L 221.402975 -134.611354 
L 218.123636 -133.97219 
L 214.844298 -133.312232 
L 211.564959 -132.638764 
L 208.28562 -131.958413 
L 205.006281 -131.277039 
L 201.726942 -130.599633 
L 198.447603 -129.930238 
L 195.168264 -129.271885 
L 191.888926 -128.626567 
L 188.609587 -127.995229 
L 185.330248 -127.377813 
L 182.050909 -126.773345 
L 178.77157 -126.180077 
L 175.492231 -125.595688 
L 172.212893 -125.017542 
L 168.933554 -124.442983 
L 165.654215 -123.869672 
L 162.374876 -123.295912 
L 159.095537 -122.720968 
L 155.816198 -122.145306 
L 152.53686 -121.570766 
L 149.257521 -121.000595 
L 145.978182 -120.439354 
L 142.698843 -119.89267 
L 139.419504 -119.366855 
L 136.140165 -118.868415 
L 132.860826 -118.403494 
L 129.581488 -117.977327 
L 126.302149 -117.593761 
L 123.02281 -117.254957 
L 119.743471 -116.961321 
L 116.464132 -116.711766 
L 113.184793 -116.50433 
L 109.905455 -116.337194 
L 106.626116 -116.210064 
L 103.346777 -116.12587 
L 100.067438 -116.092686 
L 96.788099 -116.125732 
L 93.50876 -116.2493 
L 90.229421 -116.498417 
L 86.950083 -116.920067 
L 83.670744 -117.5738 
L 80.391405 -118.531584 
L 77.112066 -119.876811 
L 73.832727 -121.702406 
z
" id="mbed1712b65" style="stroke:#0000ff;stroke-opacity:0.2;"/>
    </defs>
    <g clip-path="url(#p4c1c3744ef)">
     <use style="fill:#0000ff;fill-opacity:0.2;stroke:#0000ff;stroke-opacity:0.2;" x="0" xlink:href="#mbed1712b65" y="345.6"/>
    </g>
   </g>
   <g id="PolyCollection_2">
    <defs>
     <path d="M 73.832727 -234.446339 
L 73.832727 -78.943179 
L 77.112066 -81.524189 
L 80.391405 -82.476125 
L 83.670744 -82.241952 
L 86.950083 -81.214401 
L 90.229421 -79.727149 
L 93.50876 -78.050225 
L 96.788099 -76.389452 
L 100.067438 -74.889469 
L 103.346777 -73.639747 
L 106.626116 -72.68271 
L 109.905455 -72.023212 
L 113.184793 -71.638465 
L 116.464132 -71.487669 
L 119.743471 -71.520721 
L 123.02281 -71.68552 
L 126.302149 -71.933586 
L 129.581488 -72.223894 
L 132.860826 -72.525006 
L 136.140165 -72.815674 
L 139.419504 -73.084221 
L 142.698843 -73.327089 
L 145.978182 -73.546859 
L 149.257521 -73.750113 
L 152.53686 -73.945427 
L 155.816198 -74.141674 
L 159.095537 -74.346778 
L 162.374876 -74.566948 
L 165.654215 -74.806399 
L 168.933554 -75.067427 
L 172.212893 -75.350776 
L 175.492231 -75.656136 
L 178.77157 -75.982648 
L 182.050909 -76.329347 
L 185.330248 -76.695433 
L 188.609587 -77.080332 
L 191.888926 -77.483585 
L 195.168264 -77.904537 
L 198.447603 -78.341921 
L 201.726942 -78.793358 
L 205.006281 -79.254883 
L 208.28562 -79.720547 
L 211.564959 -80.182112 
L 214.844298 -80.628948 
L 218.123636 -81.04808 
L 221.402975 -81.424443 
L 224.682314 -81.741257 
L 227.961653 -81.980594 
L 231.240992 -82.123979 
L 234.520331 -82.153084 
L 237.799669 -82.050409 
L 241.079008 -81.79995 
L 244.358347 -81.387795 
L 247.637686 -80.802662 
L 250.917025 -80.036349 
L 254.196364 -79.084116 
L 257.475702 -77.944986 
L 260.755041 -76.622023 
L 264.03438 -75.122532 
L 267.313719 -73.458287 
L 270.593058 -71.645702 
L 273.872397 -69.705997 
L 277.151736 -67.665293 
L 280.431074 -65.554649 
L 283.710413 -63.409959 
L 286.989752 -61.27167 
L 290.269091 -59.184297 
L 293.54843 -57.195643 
L 296.827769 -55.355769 
L 300.107107 -53.715642 
L 303.386446 -52.325576 
L 306.665785 -51.233478 
L 309.945124 -50.48304 
L 313.224463 -50.112 
L 316.503802 -50.150629 
L 319.78314 -50.62062 
L 323.062479 -51.534473 
L 326.341818 -52.895541 
L 329.621157 -54.698734 
L 332.900496 -56.931866 
L 336.179835 -59.577539 
L 339.459174 -62.615352 
L 342.738512 -66.024141 
L 346.017851 -69.783928 
L 349.29719 -73.877196 
L 352.576529 -78.289104 
L 355.855868 -83.00634 
L 359.135207 -88.014386 
L 362.414545 -93.293091 
L 365.693884 -98.810622 
L 368.973223 -104.516067 
L 372.252562 -110.331104 
L 375.531901 -116.141344 
L 378.81124 -121.78813 
L 382.090579 -127.061524 
L 385.369917 -131.695392 
L 388.649256 -135.365311 
L 391.928595 -137.689929 
L 395.207934 -138.23623 
L 398.487273 -136.52884 
L 398.487273 -292.032 
L 398.487273 -292.032 
L 395.207934 -283.545756 
L 391.928595 -276.428716 
L 388.649256 -270.281156 
L 385.369917 -264.757295 
L 382.090579 -259.573534 
L 378.81124 -254.512363 
L 375.531901 -249.422198 
L 372.252562 -244.213547 
L 368.973223 -238.852207 
L 365.693884 -233.350299 
L 362.414545 -227.755961 
L 359.135207 -222.142625 
L 355.855868 -216.598599 
L 352.576529 -211.21765 
L 349.29719 -206.091045 
L 346.017851 -201.301366 
L 342.738512 -196.918187 
L 339.459174 -192.995586 
L 336.179835 -189.571276 
L 332.900496 -186.667058 
L 329.621157 -184.290253 
L 326.341818 -182.435754 
L 323.062479 -181.088343 
L 319.78314 -180.224997 
L 316.503802 -179.816957 
L 313.224463 -179.831442 
L 309.945124 -180.232927 
L 306.665785 -180.984029 
L 303.386446 -182.04603 
L 300.107107 -183.379171 
L 296.827769 -184.942806 
L 293.54843 -186.695532 
L 290.269091 -188.595395 
L 286.989752 -190.600205 
L 283.710413 -192.668036 
L 280.431074 -194.757845 
L 277.151736 -196.830246 
L 273.872397 -198.848314 
L 270.593058 -200.77842 
L 267.313719 -202.590993 
L 264.03438 -204.261132 
L 260.755041 -205.769082 
L 257.475702 -207.100459 
L 254.196364 -208.246293 
L 250.917025 -209.202817 
L 247.637686 -209.971111 
L 244.358347 -210.556565 
L 241.079008 -210.968254 
L 237.799669 -211.21825 
L 234.520331 -211.320925 
L 231.240992 -211.292283 
L 227.961653 -211.149363 
L 224.682314 -210.909706 
L 221.402975 -210.590911 
L 218.123636 -210.210258 
L 214.844298 -209.784421 
L 211.564959 -209.329171 
L 208.28562 -208.859148 
L 205.006281 -208.387589 
L 201.726942 -207.926076 
L 198.447603 -207.484237 
L 195.168264 -207.069489 
L 191.888926 -206.686781 
L 188.609587 -206.338409 
L 185.330248 -206.023968 
L 182.050909 -205.740446 
L 178.77157 -205.482536 
L 175.492231 -205.243173 
L 172.212893 -205.014306 
L 168.933554 -204.787882 
L 165.654215 -204.55695 
L 162.374876 -204.316835 
L 159.095537 -204.066221 
L 155.816198 -203.808002 
L 152.53686 -203.549804 
L 149.257521 -203.303984 
L 145.978182 -203.087072 
L 142.698843 -202.918608 
L 139.419504 -202.819414 
L 136.140165 -202.809411 
L 132.860826 -202.90524 
L 129.581488 -203.11794 
L 126.302149 -203.451024 
L 123.02281 -203.899368 
L 119.743471 -204.449267 
L 116.464132 -205.079928 
L 113.184793 -205.766704 
L 109.905455 -206.486083 
L 106.626116 -207.222386 
L 103.346777 -207.975887 
L 100.067438 -208.771912 
L 96.788099 -209.670305 
L 93.50876 -210.774458 
L 90.229421 -212.239159 
L 86.950083 -214.276303 
L 83.670744 -217.157797 
L 80.391405 -221.214912 
L 77.112066 -226.833714 
L 73.832727 -234.446339 
z
" id="m341394d43e" style="stroke:#ffa500;stroke-opacity:0.2;"/>
    </defs>
    <g clip-path="url(#p4c1c3744ef)">
     <use style="fill:#ffa500;fill-opacity:0.2;stroke:#ffa500;stroke-opacity:0.2;" x="0" xlink:href="#m341394d43e" y="345.6"/>
    </g>
   </g>
   <g id="PathCollection_1">
    <defs>
     <path d="M 0 3 
C 0.795609 3 1.55874 2.683901 2.12132 2.12132 
C 2.683901 1.55874 3 0.795609 3 0 
C 3 -0.795609 2.683901 -1.55874 2.12132 -2.12132 
C 1.55874 -2.683901 0.795609 -3 0 -3 
C -0.795609 -3 -1.55874 -2.683901 -2.12132 -2.12132 
C -2.683901 -1.55874 -3 -0.795609 -3 0 
C -3 0.795609 -2.683901 1.55874 -2.12132 2.12132 
C -1.55874 2.683901 -0.795609 3 0 3 
z
" id="md68ebf8151" style="stroke:#0000ff;"/>
    </defs>
    <g clip-path="url(#p4c1c3744ef)">
     <use style="fill:#0000ff;stroke:#0000ff;" x="73.832727" xlink:href="#md68ebf8151" y="241.132382"/>
     <use style="fill:#0000ff;stroke:#0000ff;" x="106.298182" xlink:href="#md68ebf8151" y="244.949807"/>
     <use style="fill:#0000ff;stroke:#0000ff;" x="138.763636" xlink:href="#md68ebf8151" y="240.377273"/>
     <use style="fill:#0000ff;stroke:#0000ff;" x="171.229091" xlink:href="#md68ebf8151" y="234.427887"/>
     <use style="fill:#0000ff;stroke:#0000ff;" x="203.694545" xlink:href="#md68ebf8151" y="229.59802"/>
     <use style="fill:#0000ff;stroke:#0000ff;" x="236.16" xlink:href="#md68ebf8151" y="223.262377"/>
     <use style="fill:#0000ff;stroke:#0000ff;" x="268.625455" xlink:href="#md68ebf8151" y="221.128373"/>
     <use style="fill:#0000ff;stroke:#0000ff;" x="301.090909" xlink:href="#md68ebf8151" y="226.697251"/>
     <use style="fill:#0000ff;stroke:#0000ff;" x="333.556364" xlink:href="#md68ebf8151" y="222.94141"/>
     <use style="fill:#0000ff;stroke:#0000ff;" x="366.021818" xlink:href="#md68ebf8151" y="194.236632"/>
     <use style="fill:#0000ff;stroke:#0000ff;" x="398.487273" xlink:href="#md68ebf8151" y="166.763603"/>
    </g>
   </g>
   <g id="PathCollection_2">
    <defs>
     <path d="M 0 3 
C 0.795609 3 1.55874 2.683901 2.12132 2.12132 
C 2.683901 1.55874 3 0.795609 3 0 
C 3 -0.795609 2.683901 -1.55874 2.12132 -2.12132 
C 1.55874 -2.683901 0.795609 -3 0 -3 
C -0.795609 -3 -1.55874 -2.683901 -2.12132 -2.12132 
C -2.683901 -1.55874 -3 -0.795609 -3 0 
C -3 0.795609 -2.683901 1.55874 -2.12132 2.12132 
C -1.55874 2.683901 -0.795609 3 0 3 
z
" id="ma644674fad" style="stroke:#ffa500;"/>
    </defs>
    <g clip-path="url(#p4c1c3744ef)">
     <use style="fill:#ffa500;stroke:#ffa500;" x="73.832727" xlink:href="#ma644674fad" y="189.606013"/>
     <use style="fill:#ffa500;stroke:#ffa500;" x="203.694545" xlink:href="#ma644674fad" y="202.811954"/>
     <use style="fill:#ffa500;stroke:#ffa500;" x="268.625455" xlink:href="#ma644674fad" y="204.009992"/>
     <use style="fill:#ffa500;stroke:#ffa500;" x="333.556364" xlink:href="#ma644674fad" y="225.773396"/>
     <use style="fill:#ffa500;stroke:#ffa500;" x="398.487273" xlink:href="#ma644674fad" y="131.555115"/>
    </g>
   </g>
   <g id="matplotlib.axis_1">
    <g id="xtick_1">
     <g id="line2d_1">
      <path clip-path="url(#p4c1c3744ef)" d="M 73.832727 307.584 
L 73.832727 41.472 
" style="fill:none;stroke:#b0b0b0;stroke-linecap:square;stroke-width:0.8;"/>
     </g>
     <g id="line2d_2">
      <defs>
       <path d="M 0 0 
L 0 3.5 
" id="me3e4266625" style="stroke:#000000;stroke-width:0.8;"/>
      </defs>
      <g>
       <use style="stroke:#000000;stroke-width:0.8;" x="73.832727" xlink:href="#me3e4266625" y="307.584"/>
      </g>
     </g>
     <g id="text_1">
      <!-- 0.0 -->
      <g transform="translate(65.881165 322.182437)scale(0.1 -0.1)">
       <defs>
        <path d="M 31.78125 66.40625 
Q 24.171875 66.40625 20.328125 58.90625 
Q 16.5 51.421875 16.5 36.375 
Q 16.5 21.390625 20.328125 13.890625 
Q 24.171875 6.390625 31.78125 6.390625 
Q 39.453125 6.390625 43.28125 13.890625 
Q 47.125 21.390625 47.125 36.375 
Q 47.125 51.421875 43.28125 58.90625 
Q 39.453125 66.40625 31.78125 66.40625 
z
M 31.78125 74.21875 
Q 44.046875 74.21875 50.515625 64.515625 
Q 56.984375 54.828125 56.984375 36.375 
Q 56.984375 17.96875 50.515625 8.265625 
Q 44.046875 -1.421875 31.78125 -1.421875 
Q 19.53125 -1.421875 13.0625 8.265625 
Q 6.59375 17.96875 6.59375 36.375 
Q 6.59375 54.828125 13.0625 64.515625 
Q 19.53125 74.21875 31.78125 74.21875 
z
" id="DejaVuSans-48"/>
        <path d="M 10.6875 12.40625 
L 21 12.40625 
L 21 0 
L 10.6875 0 
z
" id="DejaVuSans-46"/>
       </defs>
       <use xlink:href="#DejaVuSans-48"/>
       <use x="63.623047" xlink:href="#DejaVuSans-46"/>
       <use x="95.410156" xlink:href="#DejaVuSans-48"/>
      </g>
     </g>
    </g>
    <g id="xtick_2">
     <g id="line2d_3">
      <path clip-path="url(#p4c1c3744ef)" d="M 138.763636 307.584 
L 138.763636 41.472 
" style="fill:none;stroke:#b0b0b0;stroke-linecap:square;stroke-width:0.8;"/>
     </g>
     <g id="line2d_4">
      <g>
       <use style="stroke:#000000;stroke-width:0.8;" x="138.763636" xlink:href="#me3e4266625" y="307.584"/>
      </g>
     </g>
     <g id="text_2">
      <!-- 0.2 -->
      <g transform="translate(130.812074 322.182437)scale(0.1 -0.1)">
       <defs>
        <path d="M 19.1875 8.296875 
L 53.609375 8.296875 
L 53.609375 0 
L 7.328125 0 
L 7.328125 8.296875 
Q 12.9375 14.109375 22.625 23.890625 
Q 32.328125 33.6875 34.8125 36.53125 
Q 39.546875 41.84375 41.421875 45.53125 
Q 43.3125 49.21875 43.3125 52.78125 
Q 43.3125 58.59375 39.234375 62.25 
Q 35.15625 65.921875 28.609375 65.921875 
Q 23.96875 65.921875 18.8125 64.3125 
Q 13.671875 62.703125 7.8125 59.421875 
L 7.8125 69.390625 
Q 13.765625 71.78125 18.9375 73 
Q 24.125 74.21875 28.421875 74.21875 
Q 39.75 74.21875 46.484375 68.546875 
Q 53.21875 62.890625 53.21875 53.421875 
Q 53.21875 48.921875 51.53125 44.890625 
Q 49.859375 40.875 45.40625 35.40625 
Q 44.1875 33.984375 37.640625 27.21875 
Q 31.109375 20.453125 19.1875 8.296875 
z
" id="DejaVuSans-50"/>
       </defs>
       <use xlink:href="#DejaVuSans-48"/>
       <use x="63.623047" xlink:href="#DejaVuSans-46"/>
       <use x="95.410156" xlink:href="#DejaVuSans-50"/>
      </g>
     </g>
    </g>
    <g id="xtick_3">
     <g id="line2d_5">
      <path clip-path="url(#p4c1c3744ef)" d="M 203.694545 307.584 
L 203.694545 41.472 
" style="fill:none;stroke:#b0b0b0;stroke-linecap:square;stroke-width:0.8;"/>
     </g>
     <g id="line2d_6">
      <g>
       <use style="stroke:#000000;stroke-width:0.8;" x="203.694545" xlink:href="#me3e4266625" y="307.584"/>
      </g>
     </g>
     <g id="text_3">
      <!-- 0.4 -->
      <g transform="translate(195.742983 322.182437)scale(0.1 -0.1)">
       <defs>
        <path d="M 37.796875 64.3125 
L 12.890625 25.390625 
L 37.796875 25.390625 
z
M 35.203125 72.90625 
L 47.609375 72.90625 
L 47.609375 25.390625 
L 58.015625 25.390625 
L 58.015625 17.1875 
L 47.609375 17.1875 
L 47.609375 0 
L 37.796875 0 
L 37.796875 17.1875 
L 4.890625 17.1875 
L 4.890625 26.703125 
z
" id="DejaVuSans-52"/>
       </defs>
       <use xlink:href="#DejaVuSans-48"/>
       <use x="63.623047" xlink:href="#DejaVuSans-46"/>
       <use x="95.410156" xlink:href="#DejaVuSans-52"/>
      </g>
     </g>
    </g>
    <g id="xtick_4">
     <g id="line2d_7">
      <path clip-path="url(#p4c1c3744ef)" d="M 268.625455 307.584 
L 268.625455 41.472 
" style="fill:none;stroke:#b0b0b0;stroke-linecap:square;stroke-width:0.8;"/>
     </g>
     <g id="line2d_8">
      <g>
       <use style="stroke:#000000;stroke-width:0.8;" x="268.625455" xlink:href="#me3e4266625" y="307.584"/>
      </g>
     </g>
     <g id="text_4">
      <!-- 0.6 -->
      <g transform="translate(260.673892 322.182437)scale(0.1 -0.1)">
       <defs>
        <path d="M 33.015625 40.375 
Q 26.375 40.375 22.484375 35.828125 
Q 18.609375 31.296875 18.609375 23.390625 
Q 18.609375 15.53125 22.484375 10.953125 
Q 26.375 6.390625 33.015625 6.390625 
Q 39.65625 6.390625 43.53125 10.953125 
Q 47.40625 15.53125 47.40625 23.390625 
Q 47.40625 31.296875 43.53125 35.828125 
Q 39.65625 40.375 33.015625 40.375 
z
M 52.59375 71.296875 
L 52.59375 62.3125 
Q 48.875 64.0625 45.09375 64.984375 
Q 41.3125 65.921875 37.59375 65.921875 
Q 27.828125 65.921875 22.671875 59.328125 
Q 17.53125 52.734375 16.796875 39.40625 
Q 19.671875 43.65625 24.015625 45.921875 
Q 28.375 48.1875 33.59375 48.1875 
Q 44.578125 48.1875 50.953125 41.515625 
Q 57.328125 34.859375 57.328125 23.390625 
Q 57.328125 12.15625 50.6875 5.359375 
Q 44.046875 -1.421875 33.015625 -1.421875 
Q 20.359375 -1.421875 13.671875 8.265625 
Q 6.984375 17.96875 6.984375 36.375 
Q 6.984375 53.65625 15.1875 63.9375 
Q 23.390625 74.21875 37.203125 74.21875 
Q 40.921875 74.21875 44.703125 73.484375 
Q 48.484375 72.75 52.59375 71.296875 
z
" id="DejaVuSans-54"/>
       </defs>
       <use xlink:href="#DejaVuSans-48"/>
       <use x="63.623047" xlink:href="#DejaVuSans-46"/>
       <use x="95.410156" xlink:href="#DejaVuSans-54"/>
      </g>
     </g>
    </g>
    <g id="xtick_5">
     <g id="line2d_9">
      <path clip-path="url(#p4c1c3744ef)" d="M 333.556364 307.584 
L 333.556364 41.472 
" style="fill:none;stroke:#b0b0b0;stroke-linecap:square;stroke-width:0.8;"/>
     </g>
     <g id="line2d_10">
      <g>
       <use style="stroke:#000000;stroke-width:0.8;" x="333.556364" xlink:href="#me3e4266625" y="307.584"/>
      </g>
     </g>
     <g id="text_5">
      <!-- 0.8 -->
      <g transform="translate(325.604801 322.182437)scale(0.1 -0.1)">
       <defs>
        <path d="M 31.78125 34.625 
Q 24.75 34.625 20.71875 30.859375 
Q 16.703125 27.09375 16.703125 20.515625 
Q 16.703125 13.921875 20.71875 10.15625 
Q 24.75 6.390625 31.78125 6.390625 
Q 38.8125 6.390625 42.859375 10.171875 
Q 46.921875 13.96875 46.921875 20.515625 
Q 46.921875 27.09375 42.890625 30.859375 
Q 38.875 34.625 31.78125 34.625 
z
M 21.921875 38.8125 
Q 15.578125 40.375 12.03125 44.71875 
Q 8.5 49.078125 8.5 55.328125 
Q 8.5 64.0625 14.71875 69.140625 
Q 20.953125 74.21875 31.78125 74.21875 
Q 42.671875 74.21875 48.875 69.140625 
Q 55.078125 64.0625 55.078125 55.328125 
Q 55.078125 49.078125 51.53125 44.71875 
Q 48 40.375 41.703125 38.8125 
Q 48.828125 37.15625 52.796875 32.3125 
Q 56.78125 27.484375 56.78125 20.515625 
Q 56.78125 9.90625 50.3125 4.234375 
Q 43.84375 -1.421875 31.78125 -1.421875 
Q 19.734375 -1.421875 13.25 4.234375 
Q 6.78125 9.90625 6.78125 20.515625 
Q 6.78125 27.484375 10.78125 32.3125 
Q 14.796875 37.15625 21.921875 38.8125 
z
M 18.3125 54.390625 
Q 18.3125 48.734375 21.84375 45.5625 
Q 25.390625 42.390625 31.78125 42.390625 
Q 38.140625 42.390625 41.71875 45.5625 
Q 45.3125 48.734375 45.3125 54.390625 
Q 45.3125 60.0625 41.71875 63.234375 
Q 38.140625 66.40625 31.78125 66.40625 
Q 25.390625 66.40625 21.84375 63.234375 
Q 18.3125 60.0625 18.3125 54.390625 
z
" id="DejaVuSans-56"/>
       </defs>
       <use xlink:href="#DejaVuSans-48"/>
       <use x="63.623047" xlink:href="#DejaVuSans-46"/>
       <use x="95.410156" xlink:href="#DejaVuSans-56"/>
      </g>
     </g>
    </g>
    <g id="xtick_6">
     <g id="line2d_11">
      <path clip-path="url(#p4c1c3744ef)" d="M 398.487273 307.584 
L 398.487273 41.472 
" style="fill:none;stroke:#b0b0b0;stroke-linecap:square;stroke-width:0.8;"/>
     </g>
     <g id="line2d_12">
      <g>
       <use style="stroke:#000000;stroke-width:0.8;" x="398.487273" xlink:href="#me3e4266625" y="307.584"/>
      </g>
     </g>
     <g id="text_6">
      <!-- 1.0 -->
      <g transform="translate(390.53571 322.182437)scale(0.1 -0.1)">
       <defs>
        <path d="M 12.40625 8.296875 
L 28.515625 8.296875 
L 28.515625 63.921875 
L 10.984375 60.40625 
L 10.984375 69.390625 
L 28.421875 72.90625 
L 38.28125 72.90625 
L 38.28125 8.296875 
L 54.390625 8.296875 
L 54.390625 0 
L 12.40625 0 
z
" id="DejaVuSans-49"/>
       </defs>
       <use xlink:href="#DejaVuSans-49"/>
       <use x="63.623047" xlink:href="#DejaVuSans-46"/>
       <use x="95.410156" xlink:href="#DejaVuSans-48"/>
      </g>
     </g>
    </g>
   </g>
   <g id="matplotlib.axis_2">
    <g id="ytick_1">
     <g id="line2d_13">
      <path clip-path="url(#p4c1c3744ef)" d="M 57.6 294.472484 
L 414.72 294.472484 
" style="fill:none;stroke:#b0b0b0;stroke-linecap:square;stroke-width:0.8;"/>
     </g>
     <g id="line2d_14">
      <defs>
       <path d="M 0 0 
L -3.5 0 
" id="m4b92cc9171" style="stroke:#000000;stroke-width:0.8;"/>
      </defs>
      <g>
       <use style="stroke:#000000;stroke-width:0.8;" x="57.6" xlink:href="#m4b92cc9171" y="294.472484"/>
      </g>
     </g>
     <g id="text_7">
      <!-- −20 -->
      <g transform="translate(29.495313 298.271703)scale(0.1 -0.1)">
       <defs>
        <path d="M 10.59375 35.5 
L 73.1875 35.5 
L 73.1875 27.203125 
L 10.59375 27.203125 
z
" id="DejaVuSans-8722"/>
       </defs>
       <use xlink:href="#DejaVuSans-8722"/>
       <use x="83.789062" xlink:href="#DejaVuSans-50"/>
       <use x="147.412109" xlink:href="#DejaVuSans-48"/>
      </g>
     </g>
    </g>
    <g id="ytick_2">
     <g id="line2d_15">
      <path clip-path="url(#p4c1c3744ef)" d="M 57.6 249.129154 
L 414.72 249.129154 
" style="fill:none;stroke:#b0b0b0;stroke-linecap:square;stroke-width:0.8;"/>
     </g>
     <g id="line2d_16">
      <g>
       <use style="stroke:#000000;stroke-width:0.8;" x="57.6" xlink:href="#m4b92cc9171" y="249.129154"/>
      </g>
     </g>
     <g id="text_8">
      <!-- −10 -->
      <g transform="translate(29.495313 252.928373)scale(0.1 -0.1)">
       <use xlink:href="#DejaVuSans-8722"/>
       <use x="83.789062" xlink:href="#DejaVuSans-49"/>
       <use x="147.412109" xlink:href="#DejaVuSans-48"/>
      </g>
     </g>
    </g>
    <g id="ytick_3">
     <g id="line2d_17">
      <path clip-path="url(#p4c1c3744ef)" d="M 57.6 203.785824 
L 414.72 203.785824 
" style="fill:none;stroke:#b0b0b0;stroke-linecap:square;stroke-width:0.8;"/>
     </g>
     <g id="line2d_18">
      <g>
       <use style="stroke:#000000;stroke-width:0.8;" x="57.6" xlink:href="#m4b92cc9171" y="203.785824"/>
      </g>
     </g>
     <g id="text_9">
      <!-- 0 -->
      <g transform="translate(44.2375 207.585043)scale(0.1 -0.1)">
       <use xlink:href="#DejaVuSans-48"/>
      </g>
     </g>
    </g>
    <g id="ytick_4">
     <g id="line2d_19">
      <path clip-path="url(#p4c1c3744ef)" d="M 57.6 158.442494 
L 414.72 158.442494 
" style="fill:none;stroke:#b0b0b0;stroke-linecap:square;stroke-width:0.8;"/>
     </g>
     <g id="line2d_20">
      <g>
       <use style="stroke:#000000;stroke-width:0.8;" x="57.6" xlink:href="#m4b92cc9171" y="158.442494"/>
      </g>
     </g>
     <g id="text_10">
      <!-- 10 -->
      <g transform="translate(37.875 162.241713)scale(0.1 -0.1)">
       <use xlink:href="#DejaVuSans-49"/>
       <use x="63.623047" xlink:href="#DejaVuSans-48"/>
      </g>
     </g>
    </g>
    <g id="ytick_5">
     <g id="line2d_21">
      <path clip-path="url(#p4c1c3744ef)" d="M 57.6 113.099164 
L 414.72 113.099164 
" style="fill:none;stroke:#b0b0b0;stroke-linecap:square;stroke-width:0.8;"/>
     </g>
     <g id="line2d_22">
      <g>
       <use style="stroke:#000000;stroke-width:0.8;" x="57.6" xlink:href="#m4b92cc9171" y="113.099164"/>
      </g>
     </g>
     <g id="text_11">
      <!-- 20 -->
      <g transform="translate(37.875 116.898383)scale(0.1 -0.1)">
       <use xlink:href="#DejaVuSans-50"/>
       <use x="63.623047" xlink:href="#DejaVuSans-48"/>
      </g>
     </g>
    </g>
    <g id="ytick_6">
     <g id="line2d_23">
      <path clip-path="url(#p4c1c3744ef)" d="M 57.6 67.755835 
L 414.72 67.755835 
" style="fill:none;stroke:#b0b0b0;stroke-linecap:square;stroke-width:0.8;"/>
     </g>
     <g id="line2d_24">
      <g>
       <use style="stroke:#000000;stroke-width:0.8;" x="57.6" xlink:href="#m4b92cc9171" y="67.755835"/>
      </g>
     </g>
     <g id="text_12">
      <!-- 30 -->
      <g transform="translate(37.875 71.555053)scale(0.1 -0.1)">
       <defs>
        <path d="M 40.578125 39.3125 
Q 47.65625 37.796875 51.625 33 
Q 55.609375 28.21875 55.609375 21.1875 
Q 55.609375 10.40625 48.1875 4.484375 
Q 40.765625 -1.421875 27.09375 -1.421875 
Q 22.515625 -1.421875 17.65625 -0.515625 
Q 12.796875 0.390625 7.625 2.203125 
L 7.625 11.71875 
Q 11.71875 9.328125 16.59375 8.109375 
Q 21.484375 6.890625 26.8125 6.890625 
Q 36.078125 6.890625 40.9375 10.546875 
Q 45.796875 14.203125 45.796875 21.1875 
Q 45.796875 27.640625 41.28125 31.265625 
Q 36.765625 34.90625 28.71875 34.90625 
L 20.21875 34.90625 
L 20.21875 43.015625 
L 29.109375 43.015625 
Q 36.375 43.015625 40.234375 45.921875 
Q 44.09375 48.828125 44.09375 54.296875 
Q 44.09375 59.90625 40.109375 62.90625 
Q 36.140625 65.921875 28.71875 65.921875 
Q 24.65625 65.921875 20.015625 65.03125 
Q 15.375 64.15625 9.8125 62.3125 
L 9.8125 71.09375 
Q 15.4375 72.65625 20.34375 73.4375 
Q 25.25 74.21875 29.59375 74.21875 
Q 40.828125 74.21875 47.359375 69.109375 
Q 53.90625 64.015625 53.90625 55.328125 
Q 53.90625 49.265625 50.4375 45.09375 
Q 46.96875 40.921875 40.578125 39.3125 
z
" id="DejaVuSans-51"/>
       </defs>
       <use xlink:href="#DejaVuSans-51"/>
       <use x="63.623047" xlink:href="#DejaVuSans-48"/>
      </g>
     </g>
    </g>
   </g>
   <g id="line2d_25">
    <path clip-path="url(#p4c1c3744ef)" d="M 73.832727 240.859351 
L 77.112066 241.573059 
L 80.391405 242.201572 
L 83.670744 242.742363 
L 86.950083 243.193874 
L 90.229421 243.555544 
L 93.50876 243.827809 
L 96.788099 244.012092 
L 100.067438 244.110757 
L 103.346777 244.12706 
L 106.626116 244.065067 
L 109.905455 243.92956 
L 113.184793 243.725923 
L 116.464132 243.460025 
L 119.743471 243.138073 
L 123.02281 242.766481 
L 126.302149 242.351715 
L 129.581488 241.900152 
L 132.860826 241.417939 
L 136.140165 240.910861 
L 139.419504 240.38422 
L 142.698843 239.842733 
L 145.978182 239.290453 
L 149.257521 238.730701 
L 152.53686 238.16604 
L 155.816198 237.598257 
L 159.095537 237.028389 
L 162.374876 236.456765 
L 165.654215 235.883078 
L 168.933554 235.306484 
L 172.212893 234.725716 
L 175.492231 234.139226 
L 178.77157 233.545331 
L 182.050909 232.942378 
L 185.330248 232.328904 
L 188.609587 231.703803 
L 191.888926 231.066479 
L 195.168264 230.416989 
L 198.447603 229.756168 
L 201.726942 229.085725 
L 205.006281 228.408318 
L 208.28562 227.727587 
L 211.564959 227.048159 
L 214.844298 226.375608 
L 218.123636 225.716382 
L 221.402975 225.077686 
L 224.682314 224.467327 
L 227.961653 223.893531 
L 231.240992 223.364723 
L 234.520331 222.889278 
L 237.799669 222.475261 
L 241.079008 222.13015 
L 244.358347 221.860549 
L 247.637686 221.671912 
L 250.917025 221.568272 
L 254.196364 221.551996 
L 257.475702 221.623565 
L 260.755041 221.781385 
L 264.03438 222.021652 
L 267.313719 222.338259 
L 270.593058 222.722758 
L 273.872397 223.164381 
L 277.151736 223.650119 
L 280.431074 224.164866 
L 283.710413 224.691619 
L 286.989752 225.21173 
L 290.269091 225.705221 
L 293.54843 226.151135 
L 296.827769 226.52793 
L 300.107107 226.813906 
L 303.386446 226.987642 
L 306.665785 227.02846 
L 309.945124 226.916871 
L 313.224463 226.635019 
L 316.503802 226.167103 
L 319.78314 225.499764 
L 323.062479 224.622425 
L 326.341818 223.527588 
L 329.621157 222.211064 
L 332.900496 220.672146 
L 336.179835 218.913703 
L 339.459174 216.942211 
L 342.738512 214.767703 
L 346.017851 212.40365 
L 349.29719 209.866773 
L 352.576529 207.176788 
L 355.855868 204.356086 
L 359.135207 201.429374 
L 362.414545 198.423255 
L 365.693884 195.365786 
L 368.973223 192.286005 
L 372.252562 189.213447 
L 375.531901 186.177653 
L 378.81124 183.20769 
L 382.090579 180.331685 
L 385.369917 177.57639 
L 388.649256 174.966772 
L 391.928595 172.52566 
L 395.207934 170.273428 
L 398.487273 168.227741 
" style="fill:none;stroke:#0000ff;stroke-linecap:square;stroke-width:1.5;"/>
   </g>
   <g id="line2d_26">
    <path clip-path="url(#p4c1c3744ef)" d="M 73.832727 223.897594 
L 77.112066 225.723189 
L 80.391405 227.068416 
L 83.670744 228.0262 
L 86.950083 228.679933 
L 90.229421 229.101583 
L 93.50876 229.3507 
L 96.788099 229.474268 
L 100.067438 229.507314 
L 103.346777 229.47413 
L 106.626116 229.389936 
L 109.905455 229.262806 
L 113.184793 229.09567 
L 116.464132 228.888234 
L 119.743471 228.638679 
L 123.02281 228.345043 
L 126.302149 228.006239 
L 129.581488 227.622673 
L 132.860826 227.196506 
L 136.140165 226.731585 
L 139.419504 226.233145 
L 142.698843 225.70733 
L 145.978182 225.160646 
L 149.257521 224.599405 
L 152.53686 224.029234 
L 155.816198 223.454694 
L 159.095537 222.879032 
L 162.374876 222.304088 
L 165.654215 221.730328 
L 168.933554 221.157017 
L 172.212893 220.582458 
L 175.492231 220.004312 
L 178.77157 219.419923 
L 182.050909 218.826655 
L 185.330248 218.222187 
L 188.609587 217.604771 
L 191.888926 216.973433 
L 195.168264 216.328115 
L 198.447603 215.669762 
L 201.726942 215.000367 
L 205.006281 214.322961 
L 208.28562 213.641587 
L 211.564959 212.961236 
L 214.844298 212.287768 
L 218.123636 211.62781 
L 221.402975 210.988646 
L 224.682314 210.378071 
L 227.961653 209.80424 
L 231.240992 209.275482 
L 234.520331 208.800088 
L 237.799669 208.386072 
L 241.079008 208.04091 
L 244.358347 207.771258 
L 247.637686 207.582655 
L 250.917025 207.479232 
L 254.196364 207.463424 
L 257.475702 207.535724 
L 260.755041 207.694462 
L 264.03438 207.935652 
L 267.313719 208.252902 
L 270.593058 208.6374 
L 273.872397 209.077975 
L 277.151736 209.561244 
L 280.431074 210.07182 
L 283.710413 210.592586 
L 286.989752 211.105012 
L 290.269091 211.589497 
L 293.54843 212.025726 
L 296.827769 212.393016 
L 300.107107 212.670648 
L 303.386446 212.838175 
L 306.665785 212.87571 
L 309.945124 212.764193 
L 313.224463 212.485662 
L 316.503802 212.02354 
L 319.78314 211.362958 
L 323.062479 210.491128 
L 326.341818 209.397781 
L 329.621157 208.075661 
L 332.900496 206.521071 
L 336.179835 204.734427 
L 339.459174 202.720778 
L 342.738512 200.490224 
L 346.017851 198.058174 
L 349.29719 195.445335 
L 352.576529 192.677393 
L 355.855868 189.784296 
L 359.135207 186.799121 
L 362.414545 183.756502 
L 365.693884 180.690655 
L 368.973223 177.633075 
L 372.252562 174.610004 
L 375.531901 171.639829 
L 378.81124 168.73058 
L 382.090579 165.877725 
L 385.369917 163.062449 
L 388.649256 160.250609 
L 391.928595 157.392504 
L 395.207934 154.423558 
L 398.487273 151.265984 
" style="fill:none;stroke:#000000;stroke-linecap:square;stroke-width:0.5;"/>
   </g>
   <g id="line2d_27">
    <path clip-path="url(#p4c1c3744ef)" d="M 73.832727 257.821108 
L 77.112066 257.422929 
L 80.391405 257.334728 
L 83.670744 257.458526 
L 86.950083 257.707815 
L 90.229421 258.009504 
L 93.50876 258.304918 
L 96.788099 258.549915 
L 100.067438 258.7142 
L 103.346777 258.779991 
L 106.626116 258.740199 
L 109.905455 258.596313 
L 113.184793 258.356177 
L 116.464132 258.031815 
L 119.743471 257.637468 
L 123.02281 257.187919 
L 126.302149 256.697191 
L 129.581488 256.17763 
L 132.860826 255.639373 
L 136.140165 255.090137 
L 139.419504 254.535294 
L 142.698843 253.978137 
L 145.978182 253.42026 
L 149.257521 252.861998 
L 152.53686 252.302846 
L 155.816198 251.74182 
L 159.095537 251.177746 
L 162.374876 250.609442 
L 165.654215 250.035828 
L 168.933554 249.455951 
L 172.212893 248.868974 
L 175.492231 248.27414 
L 178.77157 247.67074 
L 182.050909 247.058102 
L 185.330248 246.435622 
L 188.609587 245.802836 
L 191.888926 245.159526 
L 195.168264 244.505864 
L 198.447603 243.842574 
L 201.726942 243.171084 
L 205.006281 242.493676 
L 208.28562 241.813588 
L 211.564959 241.135082 
L 214.844298 240.463449 
L 218.123636 239.804955 
L 221.402975 239.166726 
L 224.682314 238.556583 
L 227.961653 237.982822 
L 231.240992 237.453963 
L 234.520331 236.978467 
L 237.799669 236.564451 
L 241.079008 236.219391 
L 244.358347 235.94984 
L 247.637686 235.761168 
L 250.917025 235.657312 
L 254.196364 235.640569 
L 257.475702 235.711406 
L 260.755041 235.868308 
L 264.03438 236.107653 
L 267.313719 236.423617 
L 270.593058 236.808117 
L 273.872397 237.250787 
L 277.151736 237.738994 
L 280.431074 238.257913 
L 283.710413 238.790651 
L 286.989752 239.318448 
L 290.269091 239.820944 
L 293.54843 240.276543 
L 296.827769 240.662845 
L 300.107107 240.957163 
L 303.386446 241.137109 
L 306.665785 241.18121 
L 309.945124 241.069548 
L 313.224463 240.784375 
L 316.503802 240.310666 
L 319.78314 239.63657 
L 323.062479 238.753722 
L 326.341818 237.657395 
L 329.621157 236.346467 
L 332.900496 234.823221 
L 336.179835 233.092979 
L 339.459174 231.163645 
L 342.738512 229.045181 
L 346.017851 226.749126 
L 349.29719 224.288211 
L 352.576529 221.676182 
L 355.855868 218.927877 
L 359.135207 216.059627 
L 362.414545 213.090009 
L 365.693884 210.040918 
L 368.973223 206.938936 
L 372.252562 203.81689 
L 375.531901 200.715476 
L 378.81124 197.684799 
L 382.090579 194.785646 
L 385.369917 192.090331 
L 388.649256 189.682935 
L 391.928595 187.658816 
L 395.207934 186.123298 
L 398.487273 185.189498 
" style="fill:none;stroke:#000000;stroke-linecap:square;stroke-width:0.5;"/>
   </g>
   <g id="line2d_28">
    <path clip-path="url(#p4c1c3744ef)" d="M 73.832727 188.905241 
L 77.112066 191.421049 
L 80.391405 193.754481 
L 83.670744 195.900125 
L 86.950083 197.854648 
L 90.229421 199.616846 
L 93.50876 201.187658 
L 96.788099 202.570121 
L 100.067438 203.769309 
L 103.346777 204.792183 
L 106.626116 205.647452 
L 109.905455 206.345353 
L 113.184793 206.897415 
L 116.464132 207.316202 
L 119.743471 207.615006 
L 123.02281 207.807556 
L 126.302149 207.907695 
L 129.581488 207.929083 
L 132.860826 207.884877 
L 136.140165 207.787457 
L 139.419504 207.648182 
L 142.698843 207.477152 
L 145.978182 207.283035 
L 149.257521 207.072952 
L 152.53686 206.852385 
L 155.816198 206.625162 
L 159.095537 206.393501 
L 162.374876 206.158109 
L 165.654215 205.918325 
L 168.933554 205.672346 
L 172.212893 205.417459 
L 175.492231 205.150346 
L 178.77157 204.867408 
L 182.050909 204.565104 
L 185.330248 204.2403 
L 188.609587 203.89063 
L 191.888926 203.514817 
L 195.168264 203.112987 
L 198.447603 202.686921 
L 201.726942 202.240283 
L 205.006281 201.778764 
L 208.28562 201.310152 
L 211.564959 200.844359 
L 214.844298 200.393315 
L 218.123636 199.970831 
L 221.402975 199.592323 
L 224.682314 199.274519 
L 227.961653 199.035021 
L 231.240992 198.891869 
L 234.520331 198.862995 
L 237.799669 198.96567 
L 241.079008 199.215898 
L 244.358347 199.62782 
L 247.637686 200.213114 
L 250.917025 200.980417 
L 254.196364 201.934796 
L 257.475702 203.077278 
L 260.755041 204.404448 
L 264.03438 205.908168 
L 267.313719 207.57536 
L 270.593058 209.387939 
L 273.872397 211.322845 
L 277.151736 213.352231 
L 280.431074 215.443753 
L 283.710413 217.561003 
L 286.989752 219.664063 
L 290.269091 221.710154 
L 293.54843 223.654413 
L 296.827769 225.450712 
L 300.107107 227.052594 
L 303.386446 228.414197 
L 306.665785 229.491247 
L 309.945124 230.242016 
L 313.224463 230.628279 
L 316.503802 230.616207 
L 319.78314 230.177191 
L 323.062479 229.288592 
L 326.341818 227.934352 
L 329.621157 226.105506 
L 332.900496 223.800538 
L 336.179835 221.025592 
L 339.459174 217.794531 
L 342.738512 214.128836 
L 346.017851 210.057353 
L 349.29719 205.61588 
L 352.576529 200.846623 
L 355.855868 195.797531 
L 359.135207 190.521495 
L 362.414545 185.075474 
L 365.693884 179.519539 
L 368.973223 173.915863 
L 372.252562 168.327675 
L 375.531901 162.818229 
L 378.81124 157.449753 
L 382.090579 152.282471 
L 385.369917 147.373657 
L 388.649256 142.776767 
L 391.928595 138.540677 
L 395.207934 134.709007 
L 398.487273 131.31958 
" style="fill:none;stroke:#ffa500;stroke-linecap:square;stroke-width:1.5;"/>
   </g>
   <g id="line2d_29">
    <path clip-path="url(#p4c1c3744ef)" d="M 73.832727 111.153661 
L 77.112066 118.766286 
L 80.391405 124.385088 
L 83.670744 128.442203 
L 86.950083 131.323697 
L 90.229421 133.360841 
L 93.50876 134.825542 
L 96.788099 135.929695 
L 100.067438 136.828088 
L 103.346777 137.624113 
L 106.626116 138.377614 
L 109.905455 139.113917 
L 113.184793 139.833296 
L 116.464132 140.520072 
L 119.743471 141.150733 
L 123.02281 141.700632 
L 126.302149 142.148976 
L 129.581488 142.48206 
L 132.860826 142.69476 
L 136.140165 142.790589 
L 139.419504 142.780586 
L 142.698843 142.681392 
L 145.978182 142.512928 
L 149.257521 142.296016 
L 152.53686 142.050196 
L 155.816198 141.791998 
L 159.095537 141.533779 
L 162.374876 141.283165 
L 165.654215 141.04305 
L 168.933554 140.812118 
L 172.212893 140.585694 
L 175.492231 140.356827 
L 178.77157 140.117464 
L 182.050909 139.859554 
L 185.330248 139.576032 
L 188.609587 139.261591 
L 191.888926 138.913219 
L 195.168264 138.530511 
L 198.447603 138.115763 
L 201.726942 137.673924 
L 205.006281 137.212411 
L 208.28562 136.740852 
L 211.564959 136.270829 
L 214.844298 135.815579 
L 218.123636 135.389742 
L 221.402975 135.009089 
L 224.682314 134.690294 
L 227.961653 134.450637 
L 231.240992 134.307717 
L 234.520331 134.279075 
L 237.799669 134.38175 
L 241.079008 134.631746 
L 244.358347 135.043435 
L 247.637686 135.628889 
L 250.917025 136.397183 
L 254.196364 137.353707 
L 257.475702 138.499541 
L 260.755041 139.830918 
L 264.03438 141.338868 
L 267.313719 143.009007 
L 270.593058 144.82158 
L 273.872397 146.751686 
L 277.151736 148.769754 
L 280.431074 150.842155 
L 283.710413 152.931964 
L 286.989752 154.999795 
L 290.269091 157.004605 
L 293.54843 158.904468 
L 296.827769 160.657194 
L 300.107107 162.220829 
L 303.386446 163.55397 
L 306.665785 164.615971 
L 309.945124 165.367073 
L 313.224463 165.768558 
L 316.503802 165.783043 
L 319.78314 165.375003 
L 323.062479 164.511657 
L 326.341818 163.164246 
L 329.621157 161.309747 
L 332.900496 158.932942 
L 336.179835 156.028724 
L 339.459174 152.604414 
L 342.738512 148.681813 
L 346.017851 144.298634 
L 349.29719 139.508955 
L 352.576529 134.38235 
L 355.855868 129.001401 
L 359.135207 123.457375 
L 362.414545 117.844039 
L 365.693884 112.249701 
L 368.973223 106.747793 
L 372.252562 101.386453 
L 375.531901 96.177802 
L 378.81124 91.087637 
L 382.090579 86.026466 
L 385.369917 80.842705 
L 388.649256 75.318844 
L 391.928595 69.171284 
L 395.207934 62.054244 
L 398.487273 53.568 
" style="fill:none;stroke:#000000;stroke-linecap:square;stroke-width:0.5;"/>
   </g>
   <g id="line2d_30">
    <path clip-path="url(#p4c1c3744ef)" d="M 73.832727 266.656821 
L 77.112066 264.075811 
L 80.391405 263.123875 
L 83.670744 263.358048 
L 86.950083 264.385599 
L 90.229421 265.872851 
L 93.50876 267.549775 
L 96.788099 269.210548 
L 100.067438 270.710531 
L 103.346777 271.960253 
L 106.626116 272.91729 
L 109.905455 273.576788 
L 113.184793 273.961535 
L 116.464132 274.112331 
L 119.743471 274.079279 
L 123.02281 273.91448 
L 126.302149 273.666414 
L 129.581488 273.376106 
L 132.860826 273.074994 
L 136.140165 272.784326 
L 139.419504 272.515779 
L 142.698843 272.272911 
L 145.978182 272.053141 
L 149.257521 271.849887 
L 152.53686 271.654573 
L 155.816198 271.458326 
L 159.095537 271.253222 
L 162.374876 271.033052 
L 165.654215 270.793601 
L 168.933554 270.532573 
L 172.212893 270.249224 
L 175.492231 269.943864 
L 178.77157 269.617352 
L 182.050909 269.270653 
L 185.330248 268.904567 
L 188.609587 268.519668 
L 191.888926 268.116415 
L 195.168264 267.695463 
L 198.447603 267.258079 
L 201.726942 266.806642 
L 205.006281 266.345117 
L 208.28562 265.879453 
L 211.564959 265.417888 
L 214.844298 264.971052 
L 218.123636 264.55192 
L 221.402975 264.175557 
L 224.682314 263.858743 
L 227.961653 263.619406 
L 231.240992 263.476021 
L 234.520331 263.446916 
L 237.799669 263.549591 
L 241.079008 263.80005 
L 244.358347 264.212205 
L 247.637686 264.797338 
L 250.917025 265.563651 
L 254.196364 266.515884 
L 257.475702 267.655014 
L 260.755041 268.977977 
L 264.03438 270.477468 
L 267.313719 272.141713 
L 270.593058 273.954298 
L 273.872397 275.894003 
L 277.151736 277.934707 
L 280.431074 280.045351 
L 283.710413 282.190041 
L 286.989752 284.32833 
L 290.269091 286.415703 
L 293.54843 288.404357 
L 296.827769 290.244231 
L 300.107107 291.884358 
L 303.386446 293.274424 
L 306.665785 294.366522 
L 309.945124 295.11696 
L 313.224463 295.488 
L 316.503802 295.449371 
L 319.78314 294.97938 
L 323.062479 294.065527 
L 326.341818 292.704459 
L 329.621157 290.901266 
L 332.900496 288.668134 
L 336.179835 286.022461 
L 339.459174 282.984648 
L 342.738512 279.575859 
L 346.017851 275.816072 
L 349.29719 271.722804 
L 352.576529 267.310896 
L 355.855868 262.59366 
L 359.135207 257.585614 
L 362.414545 252.306909 
L 365.693884 246.789378 
L 368.973223 241.083933 
L 372.252562 235.268896 
L 375.531901 229.458656 
L 378.81124 223.81187 
L 382.090579 218.538476 
L 385.369917 213.904608 
L 388.649256 210.234689 
L 391.928595 207.910071 
L 395.207934 207.36377 
L 398.487273 209.07116 
" style="fill:none;stroke:#000000;stroke-linecap:square;stroke-width:0.5;"/>
   </g>
   <g id="line2d_31">
    <path clip-path="url(#p4c1c3744ef)" d="M 73.832727 241.132382 
L 77.112066 241.805335 
L 80.391405 242.455869 
L 83.670744 243.06279 
L 86.950083 243.607743 
L 90.229421 244.075419 
L 93.50876 244.453683 
L 96.788099 244.73362 
L 100.067438 244.909497 
L 103.346777 244.978659 
L 106.626116 244.941348 
L 109.905455 244.800469 
L 113.184793 244.561302 
L 116.464132 244.231168 
L 119.743471 243.819067 
L 123.02281 243.335294 
L 126.302149 242.79104 
L 129.581488 242.197999 
L 132.860826 241.567978 
L 136.140165 240.912534 
L 139.419504 240.242635 
L 142.698843 239.568357 
L 145.978182 238.898629 
L 149.257521 238.24102 
L 152.53686 237.601587 
L 155.816198 236.984776 
L 159.095537 236.393372 
L 162.374876 235.828519 
L 165.654215 235.289786 
L 168.933554 234.775281 
L 172.212893 234.281825 
L 175.492231 233.805151 
L 178.77157 233.340148 
L 182.050909 232.881128 
L 185.330248 232.422107 
L 188.609587 231.957104 
L 191.888926 231.48043 
L 195.168264 230.986974 
L 198.447603 230.47247 
L 201.726942 229.933736 
L 205.006281 229.368883 
L 208.28562 228.777479 
L 211.564959 228.160668 
L 214.844298 227.521236 
L 218.123636 226.863627 
L 221.402975 226.193898 
L 224.682314 225.51962 
L 227.961653 224.849721 
L 231.240992 224.194278 
L 234.520331 223.564257 
L 237.799669 222.971215 
L 241.079008 222.426961 
L 244.358347 221.943188 
L 247.637686 221.531088 
L 250.917025 221.200954 
L 254.196364 220.961786 
L 257.475702 220.820908 
L 260.755041 220.783596 
L 264.03438 220.852758 
L 267.313719 221.028635 
L 270.593058 221.308572 
L 273.872397 221.686836 
L 277.151736 222.154512 
L 280.431074 222.699465 
L 283.710413 223.306386 
L 286.989752 223.95692 
L 290.269091 224.629873 
L 293.54843 225.301504 
L 296.827769 225.945894 
L 300.107107 226.535397 
L 303.386446 227.041147 
L 306.665785 227.43364 
L 309.945124 227.683354 
L 313.224463 227.761413 
L 316.503802 227.64028 
L 319.78314 227.294454 
L 323.062479 226.701173 
L 326.341818 225.841092 
L 329.621157 224.698933 
L 332.900496 223.264078 
L 336.179835 221.531107 
L 339.459174 219.500251 
L 342.738512 217.177751 
L 346.017851 214.576121 
L 349.29719 211.714283 
L 352.576529 208.617597 
L 355.855868 205.317739 
L 359.135207 201.852469 
L 362.414545 198.265243 
L 365.693884 194.604705 
L 368.973223 190.924046 
L 372.252562 187.280237 
L 375.531901 183.733152 
L 378.81124 180.344585 
L 382.090579 177.177188 
L 385.369917 174.29333 
L 388.649256 171.753912 
L 391.928595 169.617144 
L 395.207934 167.93732 
L 398.487273 166.763603 
" style="fill:none;stroke:#0000ff;stroke-dasharray:5.55,2.4;stroke-dashoffset:0;stroke-width:1.5;"/>
   </g>
   <g id="line2d_32">
    <path clip-path="url(#p4c1c3744ef)" d="M 73.832727 189.606013 
L 77.112066 191.867946 
L 80.391405 194.085041 
L 83.670744 196.214911 
L 86.950083 198.220843 
L 90.229421 200.072221 
L 93.50876 201.744777 
L 96.788099 203.220677 
L 100.067438 204.488459 
L 103.346777 205.542809 
L 106.626116 206.384213 
L 109.905455 207.018482 
L 113.184793 207.456175 
L 116.464132 207.711934 
L 119.743471 207.803759 
L 123.02281 207.75224 
L 126.302149 207.579759 
L 129.581488 207.309703 
L 132.860826 206.965688 
L 136.140165 206.570828 
L 139.419504 206.147057 
L 142.698843 205.714528 
L 145.978182 205.291098 
L 149.257521 204.891906 
L 152.53686 204.529069 
L 155.816198 204.211472 
L 159.095537 203.944692 
L 162.374876 203.731013 
L 165.654215 203.569573 
L 168.933554 203.456591 
L 172.212893 203.385705 
L 175.492231 203.348384 
L 178.77157 203.334405 
L 182.050909 203.332391 
L 185.330248 203.330377 
L 188.609587 203.316398 
L 191.888926 203.279077 
L 195.168264 203.208191 
L 198.447603 203.095209 
L 201.726942 202.933768 
L 205.006281 202.72009 
L 208.28562 202.45331 
L 211.564959 202.135713 
L 214.844298 201.772876 
L 218.123636 201.373684 
L 221.402975 200.950254 
L 224.682314 200.517725 
L 227.961653 200.093954 
L 231.240992 199.699094 
L 234.520331 199.355079 
L 237.799669 199.085023 
L 241.079008 198.912542 
L 244.358347 198.861023 
L 247.637686 198.952848 
L 250.917025 199.208607 
L 254.196364 199.6463 
L 257.475702 200.280569 
L 260.755041 201.121973 
L 264.03438 202.176323 
L 267.313719 203.444105 
L 270.593058 204.920005 
L 273.872397 206.592561 
L 277.151736 208.443939 
L 280.431074 210.449871 
L 283.710413 212.579741 
L 286.989752 214.796836 
L 290.269091 217.058769 
L 293.54843 219.318057 
L 296.827769 221.522864 
L 300.107107 223.617896 
L 303.386446 225.545424 
L 306.665785 227.246437 
L 309.945124 228.661892 
L 313.224463 229.734037 
L 316.503802 230.407797 
L 319.78314 230.632172 
L 323.062479 230.361637 
L 326.341818 229.557502 
L 329.621157 228.18921 
L 332.900496 226.235528 
L 336.179835 223.685613 
L 339.459174 220.539928 
L 342.738512 216.810955 
L 346.017851 212.52372 
L 349.29719 207.716073 
L 352.576529 202.438726 
L 355.855868 196.755039 
L 359.135207 190.740525 
L 362.414545 184.482099 
L 365.693884 178.077051 
L 368.973223 171.63176 
L 372.252562 165.260169 
L 375.531901 159.082024 
L 378.81124 153.220917 
L 382.090579 147.80215 
L 385.369917 142.950462 
L 388.649256 138.787653 
L 391.928595 135.430143 
L 395.207934 132.986522 
L 398.487273 131.555115 
" style="fill:none;stroke:#ffa500;stroke-dasharray:5.55,2.4;stroke-dashoffset:0;stroke-width:1.5;"/>
   </g>
   <g id="patch_3">
    <path d="M 57.6 307.584 
L 57.6 41.472 
" style="fill:none;stroke:#000000;stroke-linecap:square;stroke-linejoin:miter;stroke-width:0.8;"/>
   </g>
   <g id="patch_4">
    <path d="M 414.72 307.584 
L 414.72 41.472 
" style="fill:none;stroke:#000000;stroke-linecap:square;stroke-linejoin:miter;stroke-width:0.8;"/>
   </g>
   <g id="patch_5">
    <path d="M 57.6 307.584 
L 414.72 307.584 
" style="fill:none;stroke:#000000;stroke-linecap:square;stroke-linejoin:miter;stroke-width:0.8;"/>
   </g>
   <g id="patch_6">
    <path d="M 57.6 41.472 
L 414.72 41.472 
" style="fill:none;stroke:#000000;stroke-linecap:square;stroke-linejoin:miter;stroke-width:0.8;"/>
   </g>
   <g id="legend_1">
    <g id="patch_7">
     <path d="M 64.6 108.1845 
L 239.15625 108.1845 
Q 241.15625 108.1845 241.15625 106.1845 
L 241.15625 48.472 
Q 241.15625 46.472 239.15625 46.472 
L 64.6 46.472 
Q 62.6 46.472 62.6 48.472 
L 62.6 106.1845 
Q 62.6 108.1845 64.6 108.1845 
z
" style="fill:#ffffff;opacity:0.8;stroke:#cccccc;stroke-linejoin:miter;"/>
    </g>
    <g id="line2d_33">
     <path d="M 66.6 54.570438 
L 86.6 54.570438 
" style="fill:none;stroke:#0000ff;stroke-linecap:square;stroke-width:1.5;"/>
    </g>
    <g id="line2d_34"/>
    <g id="text_13">
     <!-- MF cheap GPR (regular GPR) -->
     <g transform="translate(94.6 58.070438)scale(0.1 -0.1)">
      <defs>
       <path d="M 9.8125 72.90625 
L 24.515625 72.90625 
L 43.109375 23.296875 
L 61.8125 72.90625 
L 76.515625 72.90625 
L 76.515625 0 
L 66.890625 0 
L 66.890625 64.015625 
L 48.09375 14.015625 
L 38.1875 14.015625 
L 19.390625 64.015625 
L 19.390625 0 
L 9.8125 0 
z
" id="DejaVuSans-77"/>
       <path d="M 9.8125 72.90625 
L 51.703125 72.90625 
L 51.703125 64.59375 
L 19.671875 64.59375 
L 19.671875 43.109375 
L 48.578125 43.109375 
L 48.578125 34.8125 
L 19.671875 34.8125 
L 19.671875 0 
L 9.8125 0 
z
" id="DejaVuSans-70"/>
       <path id="DejaVuSans-32"/>
       <path d="M 48.78125 52.59375 
L 48.78125 44.1875 
Q 44.96875 46.296875 41.140625 47.34375 
Q 37.3125 48.390625 33.40625 48.390625 
Q 24.65625 48.390625 19.8125 42.84375 
Q 14.984375 37.3125 14.984375 27.296875 
Q 14.984375 17.28125 19.8125 11.734375 
Q 24.65625 6.203125 33.40625 6.203125 
Q 37.3125 6.203125 41.140625 7.25 
Q 44.96875 8.296875 48.78125 10.40625 
L 48.78125 2.09375 
Q 45.015625 0.34375 40.984375 -0.53125 
Q 36.96875 -1.421875 32.421875 -1.421875 
Q 20.0625 -1.421875 12.78125 6.34375 
Q 5.515625 14.109375 5.515625 27.296875 
Q 5.515625 40.671875 12.859375 48.328125 
Q 20.21875 56 33.015625 56 
Q 37.15625 56 41.109375 55.140625 
Q 45.0625 54.296875 48.78125 52.59375 
z
" id="DejaVuSans-99"/>
       <path d="M 54.890625 33.015625 
L 54.890625 0 
L 45.90625 0 
L 45.90625 32.71875 
Q 45.90625 40.484375 42.875 44.328125 
Q 39.84375 48.1875 33.796875 48.1875 
Q 26.515625 48.1875 22.3125 43.546875 
Q 18.109375 38.921875 18.109375 30.90625 
L 18.109375 0 
L 9.078125 0 
L 9.078125 75.984375 
L 18.109375 75.984375 
L 18.109375 46.1875 
Q 21.34375 51.125 25.703125 53.5625 
Q 30.078125 56 35.796875 56 
Q 45.21875 56 50.046875 50.171875 
Q 54.890625 44.34375 54.890625 33.015625 
z
" id="DejaVuSans-104"/>
       <path d="M 56.203125 29.59375 
L 56.203125 25.203125 
L 14.890625 25.203125 
Q 15.484375 15.921875 20.484375 11.0625 
Q 25.484375 6.203125 34.421875 6.203125 
Q 39.59375 6.203125 44.453125 7.46875 
Q 49.3125 8.734375 54.109375 11.28125 
L 54.109375 2.78125 
Q 49.265625 0.734375 44.1875 -0.34375 
Q 39.109375 -1.421875 33.890625 -1.421875 
Q 20.796875 -1.421875 13.15625 6.1875 
Q 5.515625 13.8125 5.515625 26.8125 
Q 5.515625 40.234375 12.765625 48.109375 
Q 20.015625 56 32.328125 56 
Q 43.359375 56 49.78125 48.890625 
Q 56.203125 41.796875 56.203125 29.59375 
z
M 47.21875 32.234375 
Q 47.125 39.59375 43.09375 43.984375 
Q 39.0625 48.390625 32.421875 48.390625 
Q 24.90625 48.390625 20.390625 44.140625 
Q 15.875 39.890625 15.1875 32.171875 
z
" id="DejaVuSans-101"/>
       <path d="M 34.28125 27.484375 
Q 23.390625 27.484375 19.1875 25 
Q 14.984375 22.515625 14.984375 16.5 
Q 14.984375 11.71875 18.140625 8.90625 
Q 21.296875 6.109375 26.703125 6.109375 
Q 34.1875 6.109375 38.703125 11.40625 
Q 43.21875 16.703125 43.21875 25.484375 
L 43.21875 27.484375 
z
M 52.203125 31.203125 
L 52.203125 0 
L 43.21875 0 
L 43.21875 8.296875 
Q 40.140625 3.328125 35.546875 0.953125 
Q 30.953125 -1.421875 24.3125 -1.421875 
Q 15.921875 -1.421875 10.953125 3.296875 
Q 6 8.015625 6 15.921875 
Q 6 25.140625 12.171875 29.828125 
Q 18.359375 34.515625 30.609375 34.515625 
L 43.21875 34.515625 
L 43.21875 35.40625 
Q 43.21875 41.609375 39.140625 45 
Q 35.0625 48.390625 27.6875 48.390625 
Q 23 48.390625 18.546875 47.265625 
Q 14.109375 46.140625 10.015625 43.890625 
L 10.015625 52.203125 
Q 14.9375 54.109375 19.578125 55.046875 
Q 24.21875 56 28.609375 56 
Q 40.484375 56 46.34375 49.84375 
Q 52.203125 43.703125 52.203125 31.203125 
z
" id="DejaVuSans-97"/>
       <path d="M 18.109375 8.203125 
L 18.109375 -20.796875 
L 9.078125 -20.796875 
L 9.078125 54.6875 
L 18.109375 54.6875 
L 18.109375 46.390625 
Q 20.953125 51.265625 25.265625 53.625 
Q 29.59375 56 35.59375 56 
Q 45.5625 56 51.78125 48.09375 
Q 58.015625 40.1875 58.015625 27.296875 
Q 58.015625 14.40625 51.78125 6.484375 
Q 45.5625 -1.421875 35.59375 -1.421875 
Q 29.59375 -1.421875 25.265625 0.953125 
Q 20.953125 3.328125 18.109375 8.203125 
z
M 48.6875 27.296875 
Q 48.6875 37.203125 44.609375 42.84375 
Q 40.53125 48.484375 33.40625 48.484375 
Q 26.265625 48.484375 22.1875 42.84375 
Q 18.109375 37.203125 18.109375 27.296875 
Q 18.109375 17.390625 22.1875 11.75 
Q 26.265625 6.109375 33.40625 6.109375 
Q 40.53125 6.109375 44.609375 11.75 
Q 48.6875 17.390625 48.6875 27.296875 
z
" id="DejaVuSans-112"/>
       <path d="M 59.515625 10.40625 
L 59.515625 29.984375 
L 43.40625 29.984375 
L 43.40625 38.09375 
L 69.28125 38.09375 
L 69.28125 6.78125 
Q 63.578125 2.734375 56.6875 0.65625 
Q 49.8125 -1.421875 42 -1.421875 
Q 24.90625 -1.421875 15.25 8.5625 
Q 5.609375 18.5625 5.609375 36.375 
Q 5.609375 54.25 15.25 64.234375 
Q 24.90625 74.21875 42 74.21875 
Q 49.125 74.21875 55.546875 72.453125 
Q 61.96875 70.703125 67.390625 67.28125 
L 67.390625 56.78125 
Q 61.921875 61.421875 55.765625 63.765625 
Q 49.609375 66.109375 42.828125 66.109375 
Q 29.4375 66.109375 22.71875 58.640625 
Q 16.015625 51.171875 16.015625 36.375 
Q 16.015625 21.625 22.71875 14.15625 
Q 29.4375 6.6875 42.828125 6.6875 
Q 48.046875 6.6875 52.140625 7.59375 
Q 56.25 8.5 59.515625 10.40625 
z
" id="DejaVuSans-71"/>
       <path d="M 19.671875 64.796875 
L 19.671875 37.40625 
L 32.078125 37.40625 
Q 38.96875 37.40625 42.71875 40.96875 
Q 46.484375 44.53125 46.484375 51.125 
Q 46.484375 57.671875 42.71875 61.234375 
Q 38.96875 64.796875 32.078125 64.796875 
z
M 9.8125 72.90625 
L 32.078125 72.90625 
Q 44.34375 72.90625 50.609375 67.359375 
Q 56.890625 61.8125 56.890625 51.125 
Q 56.890625 40.328125 50.609375 34.8125 
Q 44.34375 29.296875 32.078125 29.296875 
L 19.671875 29.296875 
L 19.671875 0 
L 9.8125 0 
z
" id="DejaVuSans-80"/>
       <path d="M 44.390625 34.1875 
Q 47.5625 33.109375 50.5625 29.59375 
Q 53.5625 26.078125 56.59375 19.921875 
L 66.609375 0 
L 56 0 
L 46.6875 18.703125 
Q 43.0625 26.03125 39.671875 28.421875 
Q 36.28125 30.8125 30.421875 30.8125 
L 19.671875 30.8125 
L 19.671875 0 
L 9.8125 0 
L 9.8125 72.90625 
L 32.078125 72.90625 
Q 44.578125 72.90625 50.734375 67.671875 
Q 56.890625 62.453125 56.890625 51.90625 
Q 56.890625 45.015625 53.6875 40.46875 
Q 50.484375 35.9375 44.390625 34.1875 
z
M 19.671875 64.796875 
L 19.671875 38.921875 
L 32.078125 38.921875 
Q 39.203125 38.921875 42.84375 42.21875 
Q 46.484375 45.515625 46.484375 51.90625 
Q 46.484375 58.296875 42.84375 61.546875 
Q 39.203125 64.796875 32.078125 64.796875 
z
" id="DejaVuSans-82"/>
       <path d="M 31 75.875 
Q 24.46875 64.65625 21.28125 53.65625 
Q 18.109375 42.671875 18.109375 31.390625 
Q 18.109375 20.125 21.3125 9.0625 
Q 24.515625 -2 31 -13.1875 
L 23.1875 -13.1875 
Q 15.875 -1.703125 12.234375 9.375 
Q 8.59375 20.453125 8.59375 31.390625 
Q 8.59375 42.28125 12.203125 53.3125 
Q 15.828125 64.359375 23.1875 75.875 
z
" id="DejaVuSans-40"/>
       <path d="M 41.109375 46.296875 
Q 39.59375 47.171875 37.8125 47.578125 
Q 36.03125 48 33.890625 48 
Q 26.265625 48 22.1875 43.046875 
Q 18.109375 38.09375 18.109375 28.8125 
L 18.109375 0 
L 9.078125 0 
L 9.078125 54.6875 
L 18.109375 54.6875 
L 18.109375 46.1875 
Q 20.953125 51.171875 25.484375 53.578125 
Q 30.03125 56 36.53125 56 
Q 37.453125 56 38.578125 55.875 
Q 39.703125 55.765625 41.0625 55.515625 
z
" id="DejaVuSans-114"/>
       <path d="M 45.40625 27.984375 
Q 45.40625 37.75 41.375 43.109375 
Q 37.359375 48.484375 30.078125 48.484375 
Q 22.859375 48.484375 18.828125 43.109375 
Q 14.796875 37.75 14.796875 27.984375 
Q 14.796875 18.265625 18.828125 12.890625 
Q 22.859375 7.515625 30.078125 7.515625 
Q 37.359375 7.515625 41.375 12.890625 
Q 45.40625 18.265625 45.40625 27.984375 
z
M 54.390625 6.78125 
Q 54.390625 -7.171875 48.1875 -13.984375 
Q 42 -20.796875 29.203125 -20.796875 
Q 24.46875 -20.796875 20.265625 -20.09375 
Q 16.0625 -19.390625 12.109375 -17.921875 
L 12.109375 -9.1875 
Q 16.0625 -11.328125 19.921875 -12.34375 
Q 23.78125 -13.375 27.78125 -13.375 
Q 36.625 -13.375 41.015625 -8.765625 
Q 45.40625 -4.15625 45.40625 5.171875 
L 45.40625 9.625 
Q 42.625 4.78125 38.28125 2.390625 
Q 33.9375 0 27.875 0 
Q 17.828125 0 11.671875 7.65625 
Q 5.515625 15.328125 5.515625 27.984375 
Q 5.515625 40.671875 11.671875 48.328125 
Q 17.828125 56 27.875 56 
Q 33.9375 56 38.28125 53.609375 
Q 42.625 51.21875 45.40625 46.390625 
L 45.40625 54.6875 
L 54.390625 54.6875 
z
" id="DejaVuSans-103"/>
       <path d="M 8.5 21.578125 
L 8.5 54.6875 
L 17.484375 54.6875 
L 17.484375 21.921875 
Q 17.484375 14.15625 20.5 10.265625 
Q 23.53125 6.390625 29.59375 6.390625 
Q 36.859375 6.390625 41.078125 11.03125 
Q 45.3125 15.671875 45.3125 23.6875 
L 45.3125 54.6875 
L 54.296875 54.6875 
L 54.296875 0 
L 45.3125 0 
L 45.3125 8.40625 
Q 42.046875 3.421875 37.71875 1 
Q 33.40625 -1.421875 27.6875 -1.421875 
Q 18.265625 -1.421875 13.375 4.4375 
Q 8.5 10.296875 8.5 21.578125 
z
M 31.109375 56 
z
" id="DejaVuSans-117"/>
       <path d="M 9.421875 75.984375 
L 18.40625 75.984375 
L 18.40625 0 
L 9.421875 0 
z
" id="DejaVuSans-108"/>
       <path d="M 8.015625 75.875 
L 15.828125 75.875 
Q 23.140625 64.359375 26.78125 53.3125 
Q 30.421875 42.28125 30.421875 31.390625 
Q 30.421875 20.453125 26.78125 9.375 
Q 23.140625 -1.703125 15.828125 -13.1875 
L 8.015625 -13.1875 
Q 14.5 -2 17.703125 9.0625 
Q 20.90625 20.125 20.90625 31.390625 
Q 20.90625 42.671875 17.703125 53.65625 
Q 14.5 64.65625 8.015625 75.875 
z
" id="DejaVuSans-41"/>
      </defs>
      <use xlink:href="#DejaVuSans-77"/>
      <use x="86.279297" xlink:href="#DejaVuSans-70"/>
      <use x="143.798828" xlink:href="#DejaVuSans-32"/>
      <use x="175.585938" xlink:href="#DejaVuSans-99"/>
      <use x="230.566406" xlink:href="#DejaVuSans-104"/>
      <use x="293.945312" xlink:href="#DejaVuSans-101"/>
      <use x="355.46875" xlink:href="#DejaVuSans-97"/>
      <use x="416.748047" xlink:href="#DejaVuSans-112"/>
      <use x="480.224609" xlink:href="#DejaVuSans-32"/>
      <use x="512.011719" xlink:href="#DejaVuSans-71"/>
      <use x="589.501953" xlink:href="#DejaVuSans-80"/>
      <use x="649.804688" xlink:href="#DejaVuSans-82"/>
      <use x="719.287109" xlink:href="#DejaVuSans-32"/>
      <use x="751.074219" xlink:href="#DejaVuSans-40"/>
      <use x="790.087891" xlink:href="#DejaVuSans-114"/>
      <use x="828.951172" xlink:href="#DejaVuSans-101"/>
      <use x="890.474609" xlink:href="#DejaVuSans-103"/>
      <use x="953.951172" xlink:href="#DejaVuSans-117"/>
      <use x="1017.330078" xlink:href="#DejaVuSans-108"/>
      <use x="1045.113281" xlink:href="#DejaVuSans-97"/>
      <use x="1106.392578" xlink:href="#DejaVuSans-114"/>
      <use x="1147.505859" xlink:href="#DejaVuSans-32"/>
      <use x="1179.292969" xlink:href="#DejaVuSans-71"/>
      <use x="1256.783203" xlink:href="#DejaVuSans-80"/>
      <use x="1317.085938" xlink:href="#DejaVuSans-82"/>
      <use x="1386.568359" xlink:href="#DejaVuSans-41"/>
     </g>
    </g>
    <g id="line2d_35">
     <path d="M 66.6 69.248563 
L 86.6 69.248563 
" style="fill:none;stroke:#ffa500;stroke-linecap:square;stroke-width:1.5;"/>
    </g>
    <g id="line2d_36"/>
    <g id="text_14">
     <!-- MF expensive GPR -->
     <g transform="translate(94.6 72.748563)scale(0.1 -0.1)">
      <defs>
       <path d="M 54.890625 54.6875 
L 35.109375 28.078125 
L 55.90625 0 
L 45.3125 0 
L 29.390625 21.484375 
L 13.484375 0 
L 2.875 0 
L 24.125 28.609375 
L 4.6875 54.6875 
L 15.28125 54.6875 
L 29.78125 35.203125 
L 44.28125 54.6875 
z
" id="DejaVuSans-120"/>
       <path d="M 54.890625 33.015625 
L 54.890625 0 
L 45.90625 0 
L 45.90625 32.71875 
Q 45.90625 40.484375 42.875 44.328125 
Q 39.84375 48.1875 33.796875 48.1875 
Q 26.515625 48.1875 22.3125 43.546875 
Q 18.109375 38.921875 18.109375 30.90625 
L 18.109375 0 
L 9.078125 0 
L 9.078125 54.6875 
L 18.109375 54.6875 
L 18.109375 46.1875 
Q 21.34375 51.125 25.703125 53.5625 
Q 30.078125 56 35.796875 56 
Q 45.21875 56 50.046875 50.171875 
Q 54.890625 44.34375 54.890625 33.015625 
z
" id="DejaVuSans-110"/>
       <path d="M 44.28125 53.078125 
L 44.28125 44.578125 
Q 40.484375 46.53125 36.375 47.5 
Q 32.28125 48.484375 27.875 48.484375 
Q 21.1875 48.484375 17.84375 46.4375 
Q 14.5 44.390625 14.5 40.28125 
Q 14.5 37.15625 16.890625 35.375 
Q 19.28125 33.59375 26.515625 31.984375 
L 29.59375 31.296875 
Q 39.15625 29.25 43.1875 25.515625 
Q 47.21875 21.78125 47.21875 15.09375 
Q 47.21875 7.46875 41.1875 3.015625 
Q 35.15625 -1.421875 24.609375 -1.421875 
Q 20.21875 -1.421875 15.453125 -0.5625 
Q 10.6875 0.296875 5.421875 2 
L 5.421875 11.28125 
Q 10.40625 8.6875 15.234375 7.390625 
Q 20.0625 6.109375 24.8125 6.109375 
Q 31.15625 6.109375 34.5625 8.28125 
Q 37.984375 10.453125 37.984375 14.40625 
Q 37.984375 18.0625 35.515625 20.015625 
Q 33.0625 21.96875 24.703125 23.78125 
L 21.578125 24.515625 
Q 13.234375 26.265625 9.515625 29.90625 
Q 5.8125 33.546875 5.8125 39.890625 
Q 5.8125 47.609375 11.28125 51.796875 
Q 16.75 56 26.8125 56 
Q 31.78125 56 36.171875 55.265625 
Q 40.578125 54.546875 44.28125 53.078125 
z
" id="DejaVuSans-115"/>
       <path d="M 9.421875 54.6875 
L 18.40625 54.6875 
L 18.40625 0 
L 9.421875 0 
z
M 9.421875 75.984375 
L 18.40625 75.984375 
L 18.40625 64.59375 
L 9.421875 64.59375 
z
" id="DejaVuSans-105"/>
       <path d="M 2.984375 54.6875 
L 12.5 54.6875 
L 29.59375 8.796875 
L 46.6875 54.6875 
L 56.203125 54.6875 
L 35.6875 0 
L 23.484375 0 
z
" id="DejaVuSans-118"/>
      </defs>
      <use xlink:href="#DejaVuSans-77"/>
      <use x="86.279297" xlink:href="#DejaVuSans-70"/>
      <use x="143.798828" xlink:href="#DejaVuSans-32"/>
      <use x="175.585938" xlink:href="#DejaVuSans-101"/>
      <use x="235.359375" xlink:href="#DejaVuSans-120"/>
      <use x="294.539062" xlink:href="#DejaVuSans-112"/>
      <use x="358.015625" xlink:href="#DejaVuSans-101"/>
      <use x="419.539062" xlink:href="#DejaVuSans-110"/>
      <use x="482.917969" xlink:href="#DejaVuSans-115"/>
      <use x="535.017578" xlink:href="#DejaVuSans-105"/>
      <use x="562.800781" xlink:href="#DejaVuSans-118"/>
      <use x="621.980469" xlink:href="#DejaVuSans-101"/>
      <use x="683.503906" xlink:href="#DejaVuSans-32"/>
      <use x="715.291016" xlink:href="#DejaVuSans-71"/>
      <use x="792.78125" xlink:href="#DejaVuSans-80"/>
      <use x="853.083984" xlink:href="#DejaVuSans-82"/>
     </g>
    </g>
    <g id="line2d_37">
     <path d="M 66.6 83.926688 
L 86.6 83.926688 
" style="fill:none;stroke:#0000ff;stroke-dasharray:5.55,2.4;stroke-dashoffset:0;stroke-width:1.5;"/>
    </g>
    <g id="line2d_38"/>
    <g id="text_15">
     <!-- Exact cheap function -->
     <g transform="translate(94.6 87.426688)scale(0.1 -0.1)">
      <defs>
       <path d="M 9.8125 72.90625 
L 55.90625 72.90625 
L 55.90625 64.59375 
L 19.671875 64.59375 
L 19.671875 43.015625 
L 54.390625 43.015625 
L 54.390625 34.71875 
L 19.671875 34.71875 
L 19.671875 8.296875 
L 56.78125 8.296875 
L 56.78125 0 
L 9.8125 0 
z
" id="DejaVuSans-69"/>
       <path d="M 18.3125 70.21875 
L 18.3125 54.6875 
L 36.8125 54.6875 
L 36.8125 47.703125 
L 18.3125 47.703125 
L 18.3125 18.015625 
Q 18.3125 11.328125 20.140625 9.421875 
Q 21.96875 7.515625 27.59375 7.515625 
L 36.8125 7.515625 
L 36.8125 0 
L 27.59375 0 
Q 17.1875 0 13.234375 3.875 
Q 9.28125 7.765625 9.28125 18.015625 
L 9.28125 47.703125 
L 2.6875 47.703125 
L 2.6875 54.6875 
L 9.28125 54.6875 
L 9.28125 70.21875 
z
" id="DejaVuSans-116"/>
       <path d="M 37.109375 75.984375 
L 37.109375 68.5 
L 28.515625 68.5 
Q 23.6875 68.5 21.796875 66.546875 
Q 19.921875 64.59375 19.921875 59.515625 
L 19.921875 54.6875 
L 34.71875 54.6875 
L 34.71875 47.703125 
L 19.921875 47.703125 
L 19.921875 0 
L 10.890625 0 
L 10.890625 47.703125 
L 2.296875 47.703125 
L 2.296875 54.6875 
L 10.890625 54.6875 
L 10.890625 58.5 
Q 10.890625 67.625 15.140625 71.796875 
Q 19.390625 75.984375 28.609375 75.984375 
z
" id="DejaVuSans-102"/>
       <path d="M 30.609375 48.390625 
Q 23.390625 48.390625 19.1875 42.75 
Q 14.984375 37.109375 14.984375 27.296875 
Q 14.984375 17.484375 19.15625 11.84375 
Q 23.34375 6.203125 30.609375 6.203125 
Q 37.796875 6.203125 41.984375 11.859375 
Q 46.1875 17.53125 46.1875 27.296875 
Q 46.1875 37.015625 41.984375 42.703125 
Q 37.796875 48.390625 30.609375 48.390625 
z
M 30.609375 56 
Q 42.328125 56 49.015625 48.375 
Q 55.71875 40.765625 55.71875 27.296875 
Q 55.71875 13.875 49.015625 6.21875 
Q 42.328125 -1.421875 30.609375 -1.421875 
Q 18.84375 -1.421875 12.171875 6.21875 
Q 5.515625 13.875 5.515625 27.296875 
Q 5.515625 40.765625 12.171875 48.375 
Q 18.84375 56 30.609375 56 
z
" id="DejaVuSans-111"/>
      </defs>
      <use xlink:href="#DejaVuSans-69"/>
      <use x="63.183594" xlink:href="#DejaVuSans-120"/>
      <use x="122.363281" xlink:href="#DejaVuSans-97"/>
      <use x="183.642578" xlink:href="#DejaVuSans-99"/>
      <use x="238.623047" xlink:href="#DejaVuSans-116"/>
      <use x="277.832031" xlink:href="#DejaVuSans-32"/>
      <use x="309.619141" xlink:href="#DejaVuSans-99"/>
      <use x="364.599609" xlink:href="#DejaVuSans-104"/>
      <use x="427.978516" xlink:href="#DejaVuSans-101"/>
      <use x="489.501953" xlink:href="#DejaVuSans-97"/>
      <use x="550.78125" xlink:href="#DejaVuSans-112"/>
      <use x="614.257812" xlink:href="#DejaVuSans-32"/>
      <use x="646.044922" xlink:href="#DejaVuSans-102"/>
      <use x="681.25" xlink:href="#DejaVuSans-117"/>
      <use x="744.628906" xlink:href="#DejaVuSans-110"/>
      <use x="808.007812" xlink:href="#DejaVuSans-99"/>
      <use x="862.988281" xlink:href="#DejaVuSans-116"/>
      <use x="902.197266" xlink:href="#DejaVuSans-105"/>
      <use x="929.980469" xlink:href="#DejaVuSans-111"/>
      <use x="991.162109" xlink:href="#DejaVuSans-110"/>
     </g>
    </g>
    <g id="line2d_39">
     <path d="M 66.6 98.604813 
L 86.6 98.604813 
" style="fill:none;stroke:#ffa500;stroke-dasharray:5.55,2.4;stroke-dashoffset:0;stroke-width:1.5;"/>
    </g>
    <g id="line2d_40"/>
    <g id="text_16">
     <!-- Exact expensive function -->
     <g transform="translate(94.6 102.104813)scale(0.1 -0.1)">
      <use xlink:href="#DejaVuSans-69"/>
      <use x="63.183594" xlink:href="#DejaVuSans-120"/>
      <use x="122.363281" xlink:href="#DejaVuSans-97"/>
      <use x="183.642578" xlink:href="#DejaVuSans-99"/>
      <use x="238.623047" xlink:href="#DejaVuSans-116"/>
      <use x="277.832031" xlink:href="#DejaVuSans-32"/>
      <use x="309.619141" xlink:href="#DejaVuSans-101"/>
      <use x="369.392578" xlink:href="#DejaVuSans-120"/>
      <use x="428.572266" xlink:href="#DejaVuSans-112"/>
      <use x="492.048828" xlink:href="#DejaVuSans-101"/>
      <use x="553.572266" xlink:href="#DejaVuSans-110"/>
      <use x="616.951172" xlink:href="#DejaVuSans-115"/>
      <use x="669.050781" xlink:href="#DejaVuSans-105"/>
      <use x="696.833984" xlink:href="#DejaVuSans-118"/>
      <use x="756.013672" xlink:href="#DejaVuSans-101"/>
      <use x="817.537109" xlink:href="#DejaVuSans-32"/>
      <use x="849.324219" xlink:href="#DejaVuSans-102"/>
      <use x="884.529297" xlink:href="#DejaVuSans-117"/>
      <use x="947.908203" xlink:href="#DejaVuSans-110"/>
      <use x="1011.287109" xlink:href="#DejaVuSans-99"/>
      <use x="1066.267578" xlink:href="#DejaVuSans-116"/>
      <use x="1105.476562" xlink:href="#DejaVuSans-105"/>
      <use x="1133.259766" xlink:href="#DejaVuSans-111"/>
      <use x="1194.441406" xlink:href="#DejaVuSans-110"/>
     </g>
    </g>
   </g>
  </g>
 </g>
 <defs>
  <clipPath id="p4c1c3744ef">
   <rect height="266.112" width="357.12" x="57.6" y="41.472"/>
  </clipPath>
 </defs>
</svg>
