<?xml version="1.0" encoding="utf-8" standalone="no"?>
<!DOCTYPE svg PUBLIC "-//W3C//DTD SVG 1.1//EN"
  "http://www.w3.org/Graphics/SVG/1.1/DTD/svg11.dtd">
<!-- Created with matplotlib (https://matplotlib.org/) -->
<svg height="345.6pt" version="1.1" viewBox="0 0 460.8 345.6" width="460.8pt" xmlns="http://www.w3.org/2000/svg" xmlns:xlink="http://www.w3.org/1999/xlink">
 <metadata>
  <rdf:RDF xmlns:cc="http://creativecommons.org/ns#" xmlns:dc="http://purl.org/dc/elements/1.1/" xmlns:rdf="http://www.w3.org/1999/02/22-rdf-syntax-ns#">
   <cc:Work>
    <dc:type rdf:resource="http://purl.org/dc/dcmitype/StillImage"/>
    <dc:date>2020-11-24T13:56:07.560522</dc:date>
    <dc:format>image/svg+xml</dc:format>
    <dc:creator>
     <cc:Agent>
      <dc:title>Matplotlib v3.3.1, https://matplotlib.org/</dc:title>
     </cc:Agent>
    </dc:creator>
   </cc:Work>
  </rdf:RDF>
 </metadata>
 <defs>
  <style type="text/css">*{stroke-linecap:butt;stroke-linejoin:round;}</style>
 </defs>
 <g id="figure_1">
  <g id="patch_1">
   <path d="M 0 345.6 
L 460.8 345.6 
L 460.8 0 
L 0 0 
z
" style="fill:#ffffff;"/>
  </g>
  <g id="axes_1">
   <g id="patch_2">
    <path d="M 57.6 307.584 
L 414.72 307.584 
L 414.72 41.472 
L 57.6 41.472 
z
" style="fill:#ffffff;"/>
   </g>
   <g id="PolyCollection_1">
    <defs>
     <path d="M 73.832727 -105.124216 
L 73.832727 -50.112 
L 77.112066 -51.064065 
L 80.391405 -51.926165 
L 83.670744 -52.704833 
L 86.950083 -53.406483 
L 90.229421 -54.037386 
L 93.50876 -54.603655 
L 96.788099 -55.111222 
L 100.067438 -55.565825 
L 103.346777 -55.972996 
L 106.626116 -56.338044 
L 109.905455 -56.66605 
L 113.184793 -56.961855 
L 116.464132 -57.230058 
L 119.743471 -57.475008 
L 123.02281 -57.700805 
L 126.302149 -57.911299 
L 129.581488 -58.110091 
L 132.860826 -58.300534 
L 136.140165 -58.485744 
L 139.419504 -58.6686 
L 142.698843 -58.851752 
L 145.978182 -59.037637 
L 149.257521 -59.228479 
L 152.53686 -59.426308 
L 155.816198 -59.632967 
L 159.095537 -59.85013 
L 162.374876 -60.079308 
L 165.654215 -60.321871 
L 168.933554 -60.579055 
L 172.212893 -60.851982 
L 175.492231 -61.141671 
L 178.77157 -61.449056 
L 182.050909 -61.774995 
L 185.330248 -62.120288 
L 188.609587 -62.485692 
L 191.888926 -62.871931 
L 195.168264 -63.279707 
L 198.447603 -63.709717 
L 201.726942 -64.162661 
L 205.006281 -64.639252 
L 208.28562 -65.140224 
L 211.564959 -65.666343 
L 214.844298 -66.218413 
L 218.123636 -66.79728 
L 221.402975 -67.403837 
L 224.682314 -68.03903 
L 227.961653 -68.703857 
L 231.240992 -69.399369 
L 234.520331 -70.12667 
L 237.799669 -70.886917 
L 241.079008 -71.681313 
L 244.358347 -72.511104 
L 247.637686 -73.377574 
L 250.917025 -74.282035 
L 254.196364 -75.225823 
L 257.475702 -76.210284 
L 260.755041 -77.236764 
L 264.03438 -78.306598 
L 267.313719 -79.421098 
L 270.593058 -80.581536 
L 273.872397 -81.78913 
L 277.151736 -83.045028 
L 280.431074 -84.350296 
L 283.710413 -85.705891 
L 286.989752 -87.112654 
L 290.269091 -88.571283 
L 293.54843 -90.082321 
L 296.827769 -91.646133 
L 300.107107 -93.262889 
L 303.386446 -94.932546 
L 306.665785 -96.654827 
L 309.945124 -98.429205 
L 313.224463 -100.254884 
L 316.503802 -102.130783 
L 319.78314 -104.055517 
L 323.062479 -106.027385 
L 326.341818 -108.044353 
L 329.621157 -110.104039 
L 332.900496 -112.203706 
L 336.179835 -114.340246 
L 339.459174 -116.510174 
L 342.738512 -118.709618 
L 346.017851 -120.934316 
L 349.29719 -123.179611 
L 352.576529 -125.440447 
L 355.855868 -127.711372 
L 359.135207 -129.98654 
L 362.414545 -132.259714 
L 365.693884 -134.524273 
L 368.973223 -136.773223 
L 372.252562 -138.999207 
L 375.531901 -141.194518 
L 378.81124 -143.351116 
L 382.090579 -145.460649 
L 385.369917 -147.514467 
L 388.649256 -149.503654 
L 391.928595 -151.419045 
L 395.207934 -153.251259 
L 398.487273 -154.990723 
L 398.487273 -210.00294 
L 398.487273 -210.00294 
L 395.207934 -206.612433 
L 391.928595 -203.318045 
L 388.649256 -200.115576 
L 385.369917 -197.000936 
L 382.090579 -193.970169 
L 378.81124 -191.019464 
L 375.531901 -188.145177 
L 372.252562 -185.343838 
L 368.973223 -182.612164 
L 365.693884 -179.947071 
L 362.414545 -177.345676 
L 359.135207 -174.805308 
L 355.855868 -172.323509 
L 352.576529 -169.898034 
L 349.29719 -167.526854 
L 346.017851 -165.208153 
L 342.738512 -162.940323 
L 339.459174 -160.721962 
L 336.179835 -158.551864 
L 332.900496 -156.429014 
L 329.621157 -154.352576 
L 326.341818 -152.321885 
L 323.062479 -150.336432 
L 319.78314 -148.395855 
L 316.503802 -146.499926 
L 313.224463 -144.648532 
L 309.945124 -142.841665 
L 306.665785 -141.079408 
L 303.386446 -139.361914 
L 300.107107 -137.689396 
L 296.827769 -136.062112 
L 293.54843 -134.480343 
L 290.269091 -132.944385 
L 286.989752 -131.454533 
L 283.710413 -130.011063 
L 280.431074 -128.614222 
L 277.151736 -127.264213 
L 273.872397 -125.961185 
L 270.593058 -124.705219 
L 267.313719 -123.496319 
L 264.03438 -122.334403 
L 260.755041 -121.219293 
L 257.475702 -120.150709 
L 254.196364 -119.128263 
L 250.917025 -118.151455 
L 247.637686 -117.219668 
L 244.358347 -116.332166 
L 241.079008 -115.488095 
L 237.799669 -114.686481 
L 234.520331 -113.926234 
L 231.240992 -113.20615 
L 227.961653 -112.524919 
L 224.682314 -111.881125 
L 221.402975 -111.273257 
L 218.123636 -110.69972 
L 214.844298 -110.158838 
L 211.564959 -109.648872 
L 208.28562 -109.168028 
L 205.006281 -108.714472 
L 201.726942 -108.286344 
L 198.447603 -107.881772 
L 195.168264 -107.498891 
L 191.888926 -107.135857 
L 188.609587 -106.790864 
L 185.330248 -106.462168 
L 182.050909 -106.148097 
L 178.77157 -105.847078 
L 175.492231 -105.55765 
L 172.212893 -105.278489 
L 168.933554 -105.008423 
L 165.654215 -104.746451 
L 162.374876 -104.491768 
L 159.095537 -104.243777 
L 155.816198 -104.00211 
L 152.53686 -103.766646 
L 149.257521 -103.537525 
L 145.978182 -103.315169 
L 142.698843 -103.10029 
L 139.419504 -102.893908 
L 136.140165 -102.697362 
L 132.860826 -102.512322 
L 129.581488 -102.340795 
L 126.302149 -102.185135 
L 123.02281 -102.048048 
L 119.743471 -101.932595 
L 116.464132 -101.842194 
L 113.184793 -101.780623 
L 109.905455 -101.752012 
L 106.626116 -101.760842 
L 103.346777 -101.811937 
L 100.067438 -101.910456 
L 96.788099 -102.061881 
L 93.50876 -102.272003 
L 90.229421 -102.546906 
L 86.950083 -102.892952 
L 83.670744 -103.316756 
L 80.391405 -103.825165 
L 77.112066 -104.425239 
L 73.832727 -105.124216 
z
" id="mdb6725a842" style="stroke:#0000ff;stroke-opacity:0.2;"/>
    </defs>
    <g clip-path="url(#p433b94c2a1)">
     <use style="fill:#0000ff;fill-opacity:0.2;stroke:#0000ff;stroke-opacity:0.2;" x="0" xlink:href="#mdb6725a842" y="345.6"/>
    </g>
   </g>
   <g id="PolyCollection_2">
    <defs>
     <path d="M 73.832727 -179.96534 
L 73.832727 -115.084246 
L 77.112066 -116.162197 
L 80.391405 -117.137064 
L 83.670744 -118.016334 
L 86.950083 -118.807358 
L 90.229421 -119.517319 
L 93.50876 -120.153218 
L 96.788099 -120.721846 
L 100.067438 -121.229769 
L 103.346777 -121.683316 
L 106.626116 -122.088556 
L 109.905455 -122.451294 
L 113.184793 -122.777062 
L 116.464132 -123.071105 
L 119.743471 -123.338385 
L 123.02281 -123.583572 
L 126.302149 -123.811047 
L 129.581488 -124.024903 
L 132.860826 -124.228948 
L 136.140165 -124.42671 
L 139.419504 -124.621446 
L 142.698843 -124.81615 
L 145.978182 -125.01356 
L 149.257521 -125.216175 
L 152.53686 -125.426265 
L 155.816198 -125.645884 
L 159.095537 -125.876884 
L 162.374876 -126.120934 
L 165.654215 -126.379534 
L 168.933554 -126.654028 
L 172.212893 -126.945628 
L 175.492231 -127.255423 
L 178.77157 -127.584401 
L 182.050909 -127.933464 
L 185.330248 -128.303442 
L 188.609587 -128.695114 
L 191.888926 -129.109218 
L 195.168264 -129.546467 
L 198.447603 -130.007566 
L 201.726942 -130.493219 
L 205.006281 -131.004147 
L 208.28562 -131.541093 
L 211.564959 -132.104835 
L 214.844298 -132.696194 
L 218.123636 -133.316039 
L 221.402975 -133.965295 
L 224.682314 -134.644945 
L 227.961653 -135.356033 
L 231.240992 -136.099666 
L 234.520331 -136.877014 
L 237.799669 -137.689306 
L 241.079008 -138.537827 
L 244.358347 -139.423917 
L 247.637686 -140.348957 
L 250.917025 -141.314368 
L 254.196364 -142.321598 
L 257.475702 -143.372113 
L 260.755041 -144.467383 
L 264.03438 -145.60887 
L 267.313719 -146.798013 
L 270.593058 -148.036211 
L 273.872397 -149.324809 
L 277.151736 -150.665076 
L 280.431074 -152.058192 
L 283.710413 -153.505222 
L 286.989752 -155.007102 
L 290.269091 -156.564613 
L 293.54843 -158.178366 
L 296.827769 -159.848774 
L 300.107107 -161.576037 
L 303.386446 -163.360118 
L 306.665785 -165.200719 
L 309.945124 -167.097266 
L 313.224463 -169.048884 
L 316.503802 -171.054382 
L 319.78314 -173.112229 
L 323.062479 -175.220539 
L 326.341818 -177.377056 
L 329.621157 -179.579134 
L 332.900496 -181.823728 
L 336.179835 -184.107378 
L 339.459174 -186.4262 
L 342.738512 -188.775879 
L 346.017851 -191.151657 
L 349.29719 -193.548334 
L 352.576529 -195.960264 
L 355.855868 -198.381353 
L 359.135207 -200.805063 
L 362.414545 -203.224417 
L 365.693884 -205.632006 
L 368.973223 -208.020001 
L 372.252562 -210.380162 
L 375.531901 -212.703857 
L 378.81124 -214.982078 
L 382.090579 -217.205464 
L 385.369917 -219.364321 
L 388.649256 -221.44865 
L 391.928595 -223.448177 
L 395.207934 -225.35238 
L 398.487273 -227.150523 
L 398.487273 -292.032 
L 398.487273 -292.032 
L 395.207934 -288.348032 
L 391.928595 -284.773726 
L 388.649256 -281.304085 
L 385.369917 -277.934245 
L 382.090579 -274.659495 
L 378.81124 -271.475296 
L 375.531901 -268.377302 
L 372.252562 -265.361369 
L 368.973223 -262.423575 
L 365.693884 -259.560225 
L 362.414545 -256.767865 
L 359.135207 -254.043283 
L 355.855868 -251.383519 
L 352.576529 -248.785863 
L 349.29719 -246.247857 
L 346.017851 -243.767293 
L 342.738512 -241.342209 
L 339.459174 -238.970883 
L 336.179835 -236.651826 
L 332.900496 -234.383773 
L 329.621157 -232.165673 
L 326.341818 -229.996675 
L 323.062479 -227.876118 
L 319.78314 -225.803514 
L 316.503802 -223.778533 
L 313.224463 -221.800992 
L 309.945124 -219.87083 
L 306.665785 -217.988097 
L 303.386446 -216.152935 
L 300.107107 -214.36556 
L 296.827769 -212.626245 
L 293.54843 -210.935302 
L 290.269091 -209.293064 
L 286.989752 -207.699868 
L 283.710413 -206.15604 
L 280.431074 -204.66188 
L 277.151736 -203.217644 
L 273.872397 -201.823529 
L 270.593058 -200.479665 
L 267.313719 -199.1861 
L 264.03438 -197.942785 
L 260.755041 -196.749573 
L 257.475702 -195.606201 
L 254.196364 -194.51229 
L 250.917025 -193.467336 
L 247.637686 -192.470706 
L 244.358347 -191.521636 
L 241.079008 -190.61923 
L 237.799669 -189.762458 
L 234.520331 -188.950163 
L 231.240992 -188.181057 
L 227.961653 -187.453733 
L 224.682314 -186.766667 
L 221.402975 -186.118228 
L 218.123636 -185.506688 
L 214.844298 -184.930231 
L 211.564959 -184.386966 
L 208.28562 -183.874942 
L 205.006281 -183.39216 
L 201.726942 -182.936592 
L 198.447603 -182.506197 
L 195.168264 -182.098938 
L 191.888926 -181.712802 
L 188.609587 -181.34582 
L 185.330248 -180.996088 
L 182.050909 -180.661786 
L 178.77157 -180.341202 
L 175.492231 -180.032751 
L 172.212893 -179.735 
L 168.933554 -179.446687 
L 165.654215 -179.166745 
L 162.374876 -178.894324 
L 159.095537 -178.62881 
L 155.816198 -178.369845 
L 152.53686 -178.117353 
L 149.257521 -177.871549 
L 145.978182 -177.632967 
L 142.698843 -177.402468 
L 139.419504 -177.181264 
L 136.140165 -176.970923 
L 132.860826 -176.773387 
L 129.581488 -176.590982 
L 126.302149 -176.426424 
L 123.02281 -176.282827 
L 119.743471 -176.163709 
L 116.464132 -176.072989 
L 113.184793 -176.014992 
L 109.905455 -175.994444 
L 106.626116 -176.016469 
L 103.346777 -176.086576 
L 100.067438 -176.210656 
L 96.788099 -176.394962 
L 93.50876 -176.646099 
L 90.229421 -176.971006 
L 86.950083 -177.37693 
L 83.670744 -177.871409 
L 80.391405 -178.462245 
L 77.112066 -179.157474 
L 73.832727 -179.96534 
z
" id="m4058e31aa3" style="stroke:#ffa500;stroke-opacity:0.2;"/>
    </defs>
    <g clip-path="url(#p433b94c2a1)">
     <use style="fill:#ffa500;fill-opacity:0.2;stroke:#ffa500;stroke-opacity:0.2;" x="0" xlink:href="#m4058e31aa3" y="345.6"/>
    </g>
   </g>
   <g id="PathCollection_1">
    <defs>
     <path d="M 0 3 
C 0.795609 3 1.55874 2.683901 2.12132 2.12132 
C 2.683901 1.55874 3 0.795609 3 0 
C 3 -0.795609 2.683901 -1.55874 2.12132 -2.12132 
C 1.55874 -2.683901 0.795609 -3 0 -3 
C -0.795609 -3 -1.55874 -2.683901 -2.12132 -2.12132 
C -2.683901 -1.55874 -3 -0.795609 -3 0 
C -3 0.795609 -2.683901 1.55874 -2.12132 2.12132 
C -1.55874 2.683901 -0.795609 3 0 3 
z
" id="m40b99e2428" style="stroke:#0000ff;"/>
    </defs>
    <g clip-path="url(#p433b94c2a1)">
     <use style="fill:#0000ff;stroke:#0000ff;" x="73.832727" xlink:href="#m40b99e2428" y="270.080966"/>
     <use style="fill:#0000ff;stroke:#0000ff;" x="138.763636" xlink:href="#m40b99e2428" y="268.802696"/>
     <use style="fill:#0000ff;stroke:#0000ff;" x="203.694545" xlink:href="#m40b99e2428" y="250.555278"/>
     <use style="fill:#0000ff;stroke:#0000ff;" x="268.625455" xlink:href="#m40b99e2428" y="236.217624"/>
     <use style="fill:#0000ff;stroke:#0000ff;" x="333.556364" xlink:href="#m40b99e2428" y="239.286783"/>
     <use style="fill:#0000ff;stroke:#0000ff;" x="398.487273" xlink:href="#m40b99e2428" y="144.18743"/>
    </g>
   </g>
   <g id="PathCollection_2">
    <defs>
     <path d="M 0 3 
C 0.795609 3 1.55874 2.683901 2.12132 2.12132 
C 2.683901 1.55874 3 0.795609 3 0 
C 3 -0.795609 2.683901 -1.55874 2.12132 -2.12132 
C 1.55874 -2.683901 0.795609 -3 0 -3 
C -0.795609 -3 -1.55874 -2.683901 -2.12132 -2.12132 
C -2.683901 -1.55874 -3 -0.795609 -3 0 
C -3 0.795609 -2.683901 1.55874 -2.12132 2.12132 
C -1.55874 2.683901 -0.795609 3 0 3 
z
" id="m6a71768b43" style="stroke:#ffa500;"/>
    </defs>
    <g clip-path="url(#p433b94c2a1)">
     <use style="fill:#ffa500;stroke:#ffa500;" x="73.832727" xlink:href="#m6a71768b43" y="182.855696"/>
     <use style="fill:#ffa500;stroke:#ffa500;" x="203.694545" xlink:href="#m6a71768b43" y="205.21108"/>
     <use style="fill:#ffa500;stroke:#ffa500;" x="398.487273" xlink:href="#m6a71768b43" y="84.585523"/>
    </g>
   </g>
   <g id="matplotlib.axis_1">
    <g id="xtick_1">
     <g id="line2d_1">
      <path clip-path="url(#p433b94c2a1)" d="M 73.832727 307.584 
L 73.832727 41.472 
" style="fill:none;stroke:#b0b0b0;stroke-linecap:square;stroke-width:0.8;"/>
     </g>
     <g id="line2d_2">
      <defs>
       <path d="M 0 0 
L 0 3.5 
" id="mf4bc8803f1" style="stroke:#000000;stroke-width:0.8;"/>
      </defs>
      <g>
       <use style="stroke:#000000;stroke-width:0.8;" x="73.832727" xlink:href="#mf4bc8803f1" y="307.584"/>
      </g>
     </g>
     <g id="text_1">
      <!-- 0.0 -->
      <g transform="translate(65.881165 322.182437)scale(0.1 -0.1)">
       <defs>
        <path d="M 31.78125 66.40625 
Q 24.171875 66.40625 20.328125 58.90625 
Q 16.5 51.421875 16.5 36.375 
Q 16.5 21.390625 20.328125 13.890625 
Q 24.171875 6.390625 31.78125 6.390625 
Q 39.453125 6.390625 43.28125 13.890625 
Q 47.125 21.390625 47.125 36.375 
Q 47.125 51.421875 43.28125 58.90625 
Q 39.453125 66.40625 31.78125 66.40625 
z
M 31.78125 74.21875 
Q 44.046875 74.21875 50.515625 64.515625 
Q 56.984375 54.828125 56.984375 36.375 
Q 56.984375 17.96875 50.515625 8.265625 
Q 44.046875 -1.421875 31.78125 -1.421875 
Q 19.53125 -1.421875 13.0625 8.265625 
Q 6.59375 17.96875 6.59375 36.375 
Q 6.59375 54.828125 13.0625 64.515625 
Q 19.53125 74.21875 31.78125 74.21875 
z
" id="DejaVuSans-48"/>
        <path d="M 10.6875 12.40625 
L 21 12.40625 
L 21 0 
L 10.6875 0 
z
" id="DejaVuSans-46"/>
       </defs>
       <use xlink:href="#DejaVuSans-48"/>
       <use x="63.623047" xlink:href="#DejaVuSans-46"/>
       <use x="95.410156" xlink:href="#DejaVuSans-48"/>
      </g>
     </g>
    </g>
    <g id="xtick_2">
     <g id="line2d_3">
      <path clip-path="url(#p433b94c2a1)" d="M 138.763636 307.584 
L 138.763636 41.472 
" style="fill:none;stroke:#b0b0b0;stroke-linecap:square;stroke-width:0.8;"/>
     </g>
     <g id="line2d_4">
      <g>
       <use style="stroke:#000000;stroke-width:0.8;" x="138.763636" xlink:href="#mf4bc8803f1" y="307.584"/>
      </g>
     </g>
     <g id="text_2">
      <!-- 0.2 -->
      <g transform="translate(130.812074 322.182437)scale(0.1 -0.1)">
       <defs>
        <path d="M 19.1875 8.296875 
L 53.609375 8.296875 
L 53.609375 0 
L 7.328125 0 
L 7.328125 8.296875 
Q 12.9375 14.109375 22.625 23.890625 
Q 32.328125 33.6875 34.8125 36.53125 
Q 39.546875 41.84375 41.421875 45.53125 
Q 43.3125 49.21875 43.3125 52.78125 
Q 43.3125 58.59375 39.234375 62.25 
Q 35.15625 65.921875 28.609375 65.921875 
Q 23.96875 65.921875 18.8125 64.3125 
Q 13.671875 62.703125 7.8125 59.421875 
L 7.8125 69.390625 
Q 13.765625 71.78125 18.9375 73 
Q 24.125 74.21875 28.421875 74.21875 
Q 39.75 74.21875 46.484375 68.546875 
Q 53.21875 62.890625 53.21875 53.421875 
Q 53.21875 48.921875 51.53125 44.890625 
Q 49.859375 40.875 45.40625 35.40625 
Q 44.1875 33.984375 37.640625 27.21875 
Q 31.109375 20.453125 19.1875 8.296875 
z
" id="DejaVuSans-50"/>
       </defs>
       <use xlink:href="#DejaVuSans-48"/>
       <use x="63.623047" xlink:href="#DejaVuSans-46"/>
       <use x="95.410156" xlink:href="#DejaVuSans-50"/>
      </g>
     </g>
    </g>
    <g id="xtick_3">
     <g id="line2d_5">
      <path clip-path="url(#p433b94c2a1)" d="M 203.694545 307.584 
L 203.694545 41.472 
" style="fill:none;stroke:#b0b0b0;stroke-linecap:square;stroke-width:0.8;"/>
     </g>
     <g id="line2d_6">
      <g>
       <use style="stroke:#000000;stroke-width:0.8;" x="203.694545" xlink:href="#mf4bc8803f1" y="307.584"/>
      </g>
     </g>
     <g id="text_3">
      <!-- 0.4 -->
      <g transform="translate(195.742983 322.182437)scale(0.1 -0.1)">
       <defs>
        <path d="M 37.796875 64.3125 
L 12.890625 25.390625 
L 37.796875 25.390625 
z
M 35.203125 72.90625 
L 47.609375 72.90625 
L 47.609375 25.390625 
L 58.015625 25.390625 
L 58.015625 17.1875 
L 47.609375 17.1875 
L 47.609375 0 
L 37.796875 0 
L 37.796875 17.1875 
L 4.890625 17.1875 
L 4.890625 26.703125 
z
" id="DejaVuSans-52"/>
       </defs>
       <use xlink:href="#DejaVuSans-48"/>
       <use x="63.623047" xlink:href="#DejaVuSans-46"/>
       <use x="95.410156" xlink:href="#DejaVuSans-52"/>
      </g>
     </g>
    </g>
    <g id="xtick_4">
     <g id="line2d_7">
      <path clip-path="url(#p433b94c2a1)" d="M 268.625455 307.584 
L 268.625455 41.472 
" style="fill:none;stroke:#b0b0b0;stroke-linecap:square;stroke-width:0.8;"/>
     </g>
     <g id="line2d_8">
      <g>
       <use style="stroke:#000000;stroke-width:0.8;" x="268.625455" xlink:href="#mf4bc8803f1" y="307.584"/>
      </g>
     </g>
     <g id="text_4">
      <!-- 0.6 -->
      <g transform="translate(260.673892 322.182437)scale(0.1 -0.1)">
       <defs>
        <path d="M 33.015625 40.375 
Q 26.375 40.375 22.484375 35.828125 
Q 18.609375 31.296875 18.609375 23.390625 
Q 18.609375 15.53125 22.484375 10.953125 
Q 26.375 6.390625 33.015625 6.390625 
Q 39.65625 6.390625 43.53125 10.953125 
Q 47.40625 15.53125 47.40625 23.390625 
Q 47.40625 31.296875 43.53125 35.828125 
Q 39.65625 40.375 33.015625 40.375 
z
M 52.59375 71.296875 
L 52.59375 62.3125 
Q 48.875 64.0625 45.09375 64.984375 
Q 41.3125 65.921875 37.59375 65.921875 
Q 27.828125 65.921875 22.671875 59.328125 
Q 17.53125 52.734375 16.796875 39.40625 
Q 19.671875 43.65625 24.015625 45.921875 
Q 28.375 48.1875 33.59375 48.1875 
Q 44.578125 48.1875 50.953125 41.515625 
Q 57.328125 34.859375 57.328125 23.390625 
Q 57.328125 12.15625 50.6875 5.359375 
Q 44.046875 -1.421875 33.015625 -1.421875 
Q 20.359375 -1.421875 13.671875 8.265625 
Q 6.984375 17.96875 6.984375 36.375 
Q 6.984375 53.65625 15.1875 63.9375 
Q 23.390625 74.21875 37.203125 74.21875 
Q 40.921875 74.21875 44.703125 73.484375 
Q 48.484375 72.75 52.59375 71.296875 
z
" id="DejaVuSans-54"/>
       </defs>
       <use xlink:href="#DejaVuSans-48"/>
       <use x="63.623047" xlink:href="#DejaVuSans-46"/>
       <use x="95.410156" xlink:href="#DejaVuSans-54"/>
      </g>
     </g>
    </g>
    <g id="xtick_5">
     <g id="line2d_9">
      <path clip-path="url(#p433b94c2a1)" d="M 333.556364 307.584 
L 333.556364 41.472 
" style="fill:none;stroke:#b0b0b0;stroke-linecap:square;stroke-width:0.8;"/>
     </g>
     <g id="line2d_10">
      <g>
       <use style="stroke:#000000;stroke-width:0.8;" x="333.556364" xlink:href="#mf4bc8803f1" y="307.584"/>
      </g>
     </g>
     <g id="text_5">
      <!-- 0.8 -->
      <g transform="translate(325.604801 322.182437)scale(0.1 -0.1)">
       <defs>
        <path d="M 31.78125 34.625 
Q 24.75 34.625 20.71875 30.859375 
Q 16.703125 27.09375 16.703125 20.515625 
Q 16.703125 13.921875 20.71875 10.15625 
Q 24.75 6.390625 31.78125 6.390625 
Q 38.8125 6.390625 42.859375 10.171875 
Q 46.921875 13.96875 46.921875 20.515625 
Q 46.921875 27.09375 42.890625 30.859375 
Q 38.875 34.625 31.78125 34.625 
z
M 21.921875 38.8125 
Q 15.578125 40.375 12.03125 44.71875 
Q 8.5 49.078125 8.5 55.328125 
Q 8.5 64.0625 14.71875 69.140625 
Q 20.953125 74.21875 31.78125 74.21875 
Q 42.671875 74.21875 48.875 69.140625 
Q 55.078125 64.0625 55.078125 55.328125 
Q 55.078125 49.078125 51.53125 44.71875 
Q 48 40.375 41.703125 38.8125 
Q 48.828125 37.15625 52.796875 32.3125 
Q 56.78125 27.484375 56.78125 20.515625 
Q 56.78125 9.90625 50.3125 4.234375 
Q 43.84375 -1.421875 31.78125 -1.421875 
Q 19.734375 -1.421875 13.25 4.234375 
Q 6.78125 9.90625 6.78125 20.515625 
Q 6.78125 27.484375 10.78125 32.3125 
Q 14.796875 37.15625 21.921875 38.8125 
z
M 18.3125 54.390625 
Q 18.3125 48.734375 21.84375 45.5625 
Q 25.390625 42.390625 31.78125 42.390625 
Q 38.140625 42.390625 41.71875 45.5625 
Q 45.3125 48.734375 45.3125 54.390625 
Q 45.3125 60.0625 41.71875 63.234375 
Q 38.140625 66.40625 31.78125 66.40625 
Q 25.390625 66.40625 21.84375 63.234375 
Q 18.3125 60.0625 18.3125 54.390625 
z
" id="DejaVuSans-56"/>
       </defs>
       <use xlink:href="#DejaVuSans-48"/>
       <use x="63.623047" xlink:href="#DejaVuSans-46"/>
       <use x="95.410156" xlink:href="#DejaVuSans-56"/>
      </g>
     </g>
    </g>
    <g id="xtick_6">
     <g id="line2d_11">
      <path clip-path="url(#p433b94c2a1)" d="M 398.487273 307.584 
L 398.487273 41.472 
" style="fill:none;stroke:#b0b0b0;stroke-linecap:square;stroke-width:0.8;"/>
     </g>
     <g id="line2d_12">
      <g>
       <use style="stroke:#000000;stroke-width:0.8;" x="398.487273" xlink:href="#mf4bc8803f1" y="307.584"/>
      </g>
     </g>
     <g id="text_6">
      <!-- 1.0 -->
      <g transform="translate(390.53571 322.182437)scale(0.1 -0.1)">
       <defs>
        <path d="M 12.40625 8.296875 
L 28.515625 8.296875 
L 28.515625 63.921875 
L 10.984375 60.40625 
L 10.984375 69.390625 
L 28.421875 72.90625 
L 38.28125 72.90625 
L 38.28125 8.296875 
L 54.390625 8.296875 
L 54.390625 0 
L 12.40625 0 
z
" id="DejaVuSans-49"/>
       </defs>
       <use xlink:href="#DejaVuSans-49"/>
       <use x="63.623047" xlink:href="#DejaVuSans-46"/>
       <use x="95.410156" xlink:href="#DejaVuSans-48"/>
      </g>
     </g>
    </g>
   </g>
   <g id="matplotlib.axis_2">
    <g id="ytick_1">
     <g id="line2d_13">
      <path clip-path="url(#p433b94c2a1)" d="M 57.6 283.618124 
L 414.72 283.618124 
" style="fill:none;stroke:#b0b0b0;stroke-linecap:square;stroke-width:0.8;"/>
     </g>
     <g id="line2d_14">
      <defs>
       <path d="M 0 0 
L -3.5 0 
" id="m25b2ab0c49" style="stroke:#000000;stroke-width:0.8;"/>
      </defs>
      <g>
       <use style="stroke:#000000;stroke-width:0.8;" x="57.6" xlink:href="#m25b2ab0c49" y="283.618124"/>
      </g>
     </g>
     <g id="text_7">
      <!-- −10 -->
      <g transform="translate(29.495313 287.417343)scale(0.1 -0.1)">
       <defs>
        <path d="M 10.59375 35.5 
L 73.1875 35.5 
L 73.1875 27.203125 
L 10.59375 27.203125 
z
" id="DejaVuSans-8722"/>
       </defs>
       <use xlink:href="#DejaVuSans-8722"/>
       <use x="83.789062" xlink:href="#DejaVuSans-49"/>
       <use x="147.412109" xlink:href="#DejaVuSans-48"/>
      </g>
     </g>
    </g>
    <g id="ytick_2">
     <g id="line2d_15">
      <path clip-path="url(#p433b94c2a1)" d="M 57.6 245.2389 
L 414.72 245.2389 
" style="fill:none;stroke:#b0b0b0;stroke-linecap:square;stroke-width:0.8;"/>
     </g>
     <g id="line2d_16">
      <g>
       <use style="stroke:#000000;stroke-width:0.8;" x="57.6" xlink:href="#m25b2ab0c49" y="245.2389"/>
      </g>
     </g>
     <g id="text_8">
      <!-- −5 -->
      <g transform="translate(35.857813 249.038118)scale(0.1 -0.1)">
       <defs>
        <path d="M 10.796875 72.90625 
L 49.515625 72.90625 
L 49.515625 64.59375 
L 19.828125 64.59375 
L 19.828125 46.734375 
Q 21.96875 47.46875 24.109375 47.828125 
Q 26.265625 48.1875 28.421875 48.1875 
Q 40.625 48.1875 47.75 41.5 
Q 54.890625 34.8125 54.890625 23.390625 
Q 54.890625 11.625 47.5625 5.09375 
Q 40.234375 -1.421875 26.90625 -1.421875 
Q 22.3125 -1.421875 17.546875 -0.640625 
Q 12.796875 0.140625 7.71875 1.703125 
L 7.71875 11.625 
Q 12.109375 9.234375 16.796875 8.0625 
Q 21.484375 6.890625 26.703125 6.890625 
Q 35.15625 6.890625 40.078125 11.328125 
Q 45.015625 15.765625 45.015625 23.390625 
Q 45.015625 31 40.078125 35.4375 
Q 35.15625 39.890625 26.703125 39.890625 
Q 22.75 39.890625 18.8125 39.015625 
Q 14.890625 38.140625 10.796875 36.28125 
z
" id="DejaVuSans-53"/>
       </defs>
       <use xlink:href="#DejaVuSans-8722"/>
       <use x="83.789062" xlink:href="#DejaVuSans-53"/>
      </g>
     </g>
    </g>
    <g id="ytick_3">
     <g id="line2d_17">
      <path clip-path="url(#p433b94c2a1)" d="M 57.6 206.859675 
L 414.72 206.859675 
" style="fill:none;stroke:#b0b0b0;stroke-linecap:square;stroke-width:0.8;"/>
     </g>
     <g id="line2d_18">
      <g>
       <use style="stroke:#000000;stroke-width:0.8;" x="57.6" xlink:href="#m25b2ab0c49" y="206.859675"/>
      </g>
     </g>
     <g id="text_9">
      <!-- 0 -->
      <g transform="translate(44.2375 210.658894)scale(0.1 -0.1)">
       <use xlink:href="#DejaVuSans-48"/>
      </g>
     </g>
    </g>
    <g id="ytick_4">
     <g id="line2d_19">
      <path clip-path="url(#p433b94c2a1)" d="M 57.6 168.48045 
L 414.72 168.48045 
" style="fill:none;stroke:#b0b0b0;stroke-linecap:square;stroke-width:0.8;"/>
     </g>
     <g id="line2d_20">
      <g>
       <use style="stroke:#000000;stroke-width:0.8;" x="57.6" xlink:href="#m25b2ab0c49" y="168.48045"/>
      </g>
     </g>
     <g id="text_10">
      <!-- 5 -->
      <g transform="translate(44.2375 172.279669)scale(0.1 -0.1)">
       <use xlink:href="#DejaVuSans-53"/>
      </g>
     </g>
    </g>
    <g id="ytick_5">
     <g id="line2d_21">
      <path clip-path="url(#p433b94c2a1)" d="M 57.6 130.101226 
L 414.72 130.101226 
" style="fill:none;stroke:#b0b0b0;stroke-linecap:square;stroke-width:0.8;"/>
     </g>
     <g id="line2d_22">
      <g>
       <use style="stroke:#000000;stroke-width:0.8;" x="57.6" xlink:href="#m25b2ab0c49" y="130.101226"/>
      </g>
     </g>
     <g id="text_11">
      <!-- 10 -->
      <g transform="translate(37.875 133.900445)scale(0.1 -0.1)">
       <use xlink:href="#DejaVuSans-49"/>
       <use x="63.623047" xlink:href="#DejaVuSans-48"/>
      </g>
     </g>
    </g>
    <g id="ytick_6">
     <g id="line2d_23">
      <path clip-path="url(#p433b94c2a1)" d="M 57.6 91.722001 
L 414.72 91.722001 
" style="fill:none;stroke:#b0b0b0;stroke-linecap:square;stroke-width:0.8;"/>
     </g>
     <g id="line2d_24">
      <g>
       <use style="stroke:#000000;stroke-width:0.8;" x="57.6" xlink:href="#m25b2ab0c49" y="91.722001"/>
      </g>
     </g>
     <g id="text_12">
      <!-- 15 -->
      <g transform="translate(37.875 95.52122)scale(0.1 -0.1)">
       <use xlink:href="#DejaVuSans-49"/>
       <use x="63.623047" xlink:href="#DejaVuSans-53"/>
      </g>
     </g>
    </g>
    <g id="ytick_7">
     <g id="line2d_25">
      <path clip-path="url(#p433b94c2a1)" d="M 57.6 53.342777 
L 414.72 53.342777 
" style="fill:none;stroke:#b0b0b0;stroke-linecap:square;stroke-width:0.8;"/>
     </g>
     <g id="line2d_26">
      <g>
       <use style="stroke:#000000;stroke-width:0.8;" x="57.6" xlink:href="#m25b2ab0c49" y="53.342777"/>
      </g>
     </g>
     <g id="text_13">
      <!-- 20 -->
      <g transform="translate(37.875 57.141995)scale(0.1 -0.1)">
       <use xlink:href="#DejaVuSans-50"/>
       <use x="63.623047" xlink:href="#DejaVuSans-48"/>
      </g>
     </g>
    </g>
   </g>
   <g id="line2d_27">
    <path clip-path="url(#p433b94c2a1)" d="M 73.832727 267.981892 
L 77.112066 267.855348 
L 80.391405 267.724335 
L 83.670744 267.589205 
L 86.950083 267.450282 
L 90.229421 267.307854 
L 93.50876 267.162171 
L 96.788099 267.013449 
L 100.067438 266.861859 
L 103.346777 266.707533 
L 106.626116 266.550557 
L 109.905455 266.390969 
L 113.184793 266.228761 
L 116.464132 266.063874 
L 119.743471 265.896199 
L 123.02281 265.725573 
L 126.302149 265.551783 
L 129.581488 265.374557 
L 132.860826 265.193572 
L 136.140165 265.008447 
L 139.419504 264.818746 
L 142.698843 264.623979 
L 145.978182 264.423597 
L 149.257521 264.216998 
L 152.53686 264.003523 
L 155.816198 263.782461 
L 159.095537 263.553047 
L 162.374876 263.314462 
L 165.654215 263.065839 
L 168.933554 262.806261 
L 172.212893 262.534764 
L 175.492231 262.250339 
L 178.77157 261.951933 
L 182.050909 261.638454 
L 185.330248 261.308772 
L 188.609587 260.961722 
L 191.888926 260.596106 
L 195.168264 260.210701 
L 198.447603 259.804255 
L 201.726942 259.375497 
L 205.006281 258.923138 
L 208.28562 258.445874 
L 211.564959 257.942392 
L 214.844298 257.411374 
L 218.123636 256.8515 
L 221.402975 256.261453 
L 224.682314 255.639922 
L 227.961653 254.985612 
L 231.240992 254.29724 
L 234.520331 253.573548 
L 237.799669 252.813301 
L 241.079008 252.015296 
L 244.358347 251.178365 
L 247.637686 250.301379 
L 250.917025 249.383255 
L 254.196364 248.422957 
L 257.475702 247.419504 
L 260.755041 246.371972 
L 264.03438 245.279499 
L 267.313719 244.141291 
L 270.593058 242.956623 
L 273.872397 241.724843 
L 277.151736 240.445379 
L 280.431074 239.117741 
L 283.710413 237.741523 
L 286.989752 236.316407 
L 290.269091 234.842166 
L 293.54843 233.318668 
L 296.827769 231.745878 
L 300.107107 230.123857 
L 303.386446 228.45277 
L 306.665785 226.732883 
L 309.945124 224.964565 
L 313.224463 223.148292 
L 316.503802 221.284646 
L 319.78314 219.374314 
L 323.062479 217.418091 
L 326.341818 215.416881 
L 329.621157 213.371692 
L 332.900496 211.28364 
L 336.179835 209.153945 
L 339.459174 206.983932 
L 342.738512 204.77503 
L 346.017851 202.528765 
L 349.29719 200.246767 
L 352.576529 197.930759 
L 355.855868 195.582559 
L 359.135207 193.204076 
L 362.414545 190.797305 
L 365.693884 188.364328 
L 368.973223 185.907306 
L 372.252562 183.428478 
L 375.531901 180.930152 
L 378.81124 178.41471 
L 382.090579 175.884591 
L 385.369917 173.342298 
L 388.649256 170.790385 
L 391.928595 168.231455 
L 395.207934 165.668154 
L 398.487273 163.103168 
" style="fill:none;stroke:#0000ff;stroke-linecap:square;stroke-width:1.5;"/>
   </g>
   <g id="line2d_28">
    <path clip-path="url(#p433b94c2a1)" d="M 73.832727 240.475784 
L 77.112066 241.174761 
L 80.391405 241.774835 
L 83.670744 242.283244 
L 86.950083 242.707048 
L 90.229421 243.053094 
L 93.50876 243.327997 
L 96.788099 243.538119 
L 100.067438 243.689544 
L 103.346777 243.788063 
L 106.626116 243.839158 
L 109.905455 243.847988 
L 113.184793 243.819377 
L 116.464132 243.757806 
L 119.743471 243.667405 
L 123.02281 243.551952 
L 126.302149 243.414865 
L 129.581488 243.259205 
L 132.860826 243.087678 
L 136.140165 242.902638 
L 139.419504 242.706092 
L 142.698843 242.49971 
L 145.978182 242.284831 
L 149.257521 242.062475 
L 152.53686 241.833354 
L 155.816198 241.59789 
L 159.095537 241.356223 
L 162.374876 241.108232 
L 165.654215 240.853549 
L 168.933554 240.591577 
L 172.212893 240.321511 
L 175.492231 240.04235 
L 178.77157 239.752922 
L 182.050909 239.451903 
L 185.330248 239.137832 
L 188.609587 238.809136 
L 191.888926 238.464143 
L 195.168264 238.101109 
L 198.447603 237.718228 
L 201.726942 237.313656 
L 205.006281 236.885528 
L 208.28562 236.431972 
L 211.564959 235.951128 
L 214.844298 235.441162 
L 218.123636 234.90028 
L 221.402975 234.326743 
L 224.682314 233.718875 
L 227.961653 233.075081 
L 231.240992 232.39385 
L 234.520331 231.673766 
L 237.799669 230.913519 
L 241.079008 230.111905 
L 244.358347 229.267834 
L 247.637686 228.380332 
L 250.917025 227.448545 
L 254.196364 226.471737 
L 257.475702 225.449291 
L 260.755041 224.380707 
L 264.03438 223.265597 
L 267.313719 222.103681 
L 270.593058 220.894781 
L 273.872397 219.638815 
L 277.151736 218.335787 
L 280.431074 216.985778 
L 283.710413 215.588937 
L 286.989752 214.145467 
L 290.269091 212.655615 
L 293.54843 211.119657 
L 296.827769 209.537888 
L 300.107107 207.910604 
L 303.386446 206.238086 
L 306.665785 204.520592 
L 309.945124 202.758335 
L 313.224463 200.951468 
L 316.503802 199.100074 
L 319.78314 197.204145 
L 323.062479 195.263568 
L 326.341818 193.278115 
L 329.621157 191.247424 
L 332.900496 189.170986 
L 336.179835 187.048136 
L 339.459174 184.878038 
L 342.738512 182.659677 
L 346.017851 180.391847 
L 349.29719 178.073146 
L 352.576529 175.701966 
L 355.855868 173.276491 
L 359.135207 170.794692 
L 362.414545 168.254324 
L 365.693884 165.652929 
L 368.973223 162.987836 
L 372.252562 160.256162 
L 375.531901 157.454823 
L 378.81124 154.580536 
L 382.090579 151.629831 
L 385.369917 148.599064 
L 388.649256 145.484424 
L 391.928595 142.281955 
L 395.207934 138.987567 
L 398.487273 135.59706 
" style="fill:none;stroke:#000000;stroke-linecap:square;stroke-width:0.5;"/>
   </g>
   <g id="line2d_29">
    <path clip-path="url(#p433b94c2a1)" d="M 73.832727 295.488 
L 77.112066 294.535935 
L 80.391405 293.673835 
L 83.670744 292.895167 
L 86.950083 292.193517 
L 90.229421 291.562614 
L 93.50876 290.996345 
L 96.788099 290.488778 
L 100.067438 290.034175 
L 103.346777 289.627004 
L 106.626116 289.261956 
L 109.905455 288.93395 
L 113.184793 288.638145 
L 116.464132 288.369942 
L 119.743471 288.124992 
L 123.02281 287.899195 
L 126.302149 287.688701 
L 129.581488 287.489909 
L 132.860826 287.299466 
L 136.140165 287.114256 
L 139.419504 286.9314 
L 142.698843 286.748248 
L 145.978182 286.562363 
L 149.257521 286.371521 
L 152.53686 286.173692 
L 155.816198 285.967033 
L 159.095537 285.74987 
L 162.374876 285.520692 
L 165.654215 285.278129 
L 168.933554 285.020945 
L 172.212893 284.748018 
L 175.492231 284.458329 
L 178.77157 284.150944 
L 182.050909 283.825005 
L 185.330248 283.479712 
L 188.609587 283.114308 
L 191.888926 282.728069 
L 195.168264 282.320293 
L 198.447603 281.890283 
L 201.726942 281.437339 
L 205.006281 280.960748 
L 208.28562 280.459776 
L 211.564959 279.933657 
L 214.844298 279.381587 
L 218.123636 278.80272 
L 221.402975 278.196163 
L 224.682314 277.56097 
L 227.961653 276.896143 
L 231.240992 276.200631 
L 234.520331 275.47333 
L 237.799669 274.713083 
L 241.079008 273.918687 
L 244.358347 273.088896 
L 247.637686 272.222426 
L 250.917025 271.317965 
L 254.196364 270.374177 
L 257.475702 269.389716 
L 260.755041 268.363236 
L 264.03438 267.293402 
L 267.313719 266.178902 
L 270.593058 265.018464 
L 273.872397 263.81087 
L 277.151736 262.554972 
L 280.431074 261.249704 
L 283.710413 259.894109 
L 286.989752 258.487346 
L 290.269091 257.028717 
L 293.54843 255.517679 
L 296.827769 253.953867 
L 300.107107 252.337111 
L 303.386446 250.667454 
L 306.665785 248.945173 
L 309.945124 247.170795 
L 313.224463 245.345116 
L 316.503802 243.469217 
L 319.78314 241.544483 
L 323.062479 239.572615 
L 326.341818 237.555647 
L 329.621157 235.495961 
L 332.900496 233.396294 
L 336.179835 231.259754 
L 339.459174 229.089826 
L 342.738512 226.890382 
L 346.017851 224.665684 
L 349.29719 222.420389 
L 352.576529 220.159553 
L 355.855868 217.888628 
L 359.135207 215.61346 
L 362.414545 213.340286 
L 365.693884 211.075727 
L 368.973223 208.826777 
L 372.252562 206.600793 
L 375.531901 204.405482 
L 378.81124 202.248884 
L 382.090579 200.139351 
L 385.369917 198.085533 
L 388.649256 196.096346 
L 391.928595 194.180955 
L 395.207934 192.348741 
L 398.487273 190.609277 
" style="fill:none;stroke:#000000;stroke-linecap:square;stroke-width:0.5;"/>
   </g>
   <g id="line2d_30">
    <path clip-path="url(#p433b94c2a1)" d="M 73.832727 198.075207 
L 77.112066 197.940164 
L 80.391405 197.800346 
L 83.670744 197.656128 
L 86.950083 197.507856 
L 90.229421 197.355837 
L 93.50876 197.200341 
L 96.788099 197.041596 
L 100.067438 196.879787 
L 103.346777 196.715054 
L 106.626116 196.547488 
L 109.905455 196.377131 
L 113.184793 196.203973 
L 116.464132 196.027953 
L 119.743471 195.848953 
L 123.02281 195.6668 
L 126.302149 195.481264 
L 129.581488 195.292057 
L 132.860826 195.098833 
L 136.140165 194.901184 
L 139.419504 194.698645 
L 142.698843 194.490691 
L 145.978182 194.276737 
L 149.257521 194.056138 
L 152.53686 193.828191 
L 155.816198 193.592135 
L 159.095537 193.347153 
L 162.374876 193.092371 
L 165.654215 192.82686 
L 168.933554 192.549642 
L 172.212893 192.259686 
L 175.492231 191.955913 
L 178.77157 191.637198 
L 182.050909 191.302375 
L 185.330248 190.950235 
L 188.609587 190.579533 
L 191.888926 190.18899 
L 195.168264 189.777298 
L 198.447603 189.343119 
L 201.726942 188.885094 
L 205.006281 188.401847 
L 208.28562 187.891983 
L 211.564959 187.3541 
L 214.844298 186.786788 
L 218.123636 186.188637 
L 221.402975 185.558239 
L 224.682314 184.894194 
L 227.961653 184.195117 
L 231.240992 183.459638 
L 234.520331 182.686412 
L 237.799669 181.874118 
L 241.079008 181.021471 
L 244.358347 180.127224 
L 247.637686 179.190169 
L 250.917025 178.209148 
L 254.196364 177.183056 
L 257.475702 176.110843 
L 260.755041 174.991522 
L 264.03438 173.824172 
L 267.313719 172.607944 
L 270.593058 171.342062 
L 273.872397 170.025831 
L 277.151736 168.65864 
L 280.431074 167.239964 
L 283.710413 165.769369 
L 286.989752 164.246515 
L 290.269091 162.671162 
L 293.54843 161.043166 
L 296.827769 159.36249 
L 300.107107 157.629201 
L 303.386446 155.843474 
L 306.665785 154.005592 
L 309.945124 152.115952 
L 313.224463 150.175062 
L 316.503802 148.183542 
L 319.78314 146.142129 
L 323.062479 144.051671 
L 326.341818 141.913134 
L 329.621157 139.727596 
L 332.900496 137.496249 
L 336.179835 135.220398 
L 339.459174 132.901458 
L 342.738512 130.540956 
L 346.017851 128.140525 
L 349.29719 125.701904 
L 352.576529 123.226937 
L 355.855868 120.717564 
L 359.135207 118.175827 
L 362.414545 115.603859 
L 365.693884 113.003884 
L 368.973223 110.378212 
L 372.252562 107.729234 
L 375.531901 105.059421 
L 378.81124 102.371313 
L 382.090579 99.66752 
L 385.369917 96.950717 
L 388.649256 94.223632 
L 391.928595 91.489048 
L 395.207934 88.749794 
L 398.487273 86.008738 
" style="fill:none;stroke:#ffa500;stroke-linecap:square;stroke-width:1.5;"/>
   </g>
   <g id="line2d_31">
    <path clip-path="url(#p433b94c2a1)" d="M 73.832727 165.63466 
L 77.112066 166.442526 
L 80.391405 167.137755 
L 83.670744 167.728591 
L 86.950083 168.22307 
L 90.229421 168.628994 
L 93.50876 168.953901 
L 96.788099 169.205038 
L 100.067438 169.389344 
L 103.346777 169.513424 
L 106.626116 169.583531 
L 109.905455 169.605556 
L 113.184793 169.585008 
L 116.464132 169.527011 
L 119.743471 169.436291 
L 123.02281 169.317173 
L 126.302149 169.173576 
L 129.581488 169.009018 
L 132.860826 168.826613 
L 136.140165 168.629077 
L 139.419504 168.418736 
L 142.698843 168.197532 
L 145.978182 167.967033 
L 149.257521 167.728451 
L 152.53686 167.482647 
L 155.816198 167.230155 
L 159.095537 166.97119 
L 162.374876 166.705676 
L 165.654215 166.433255 
L 168.933554 166.153313 
L 172.212893 165.865 
L 175.492231 165.567249 
L 178.77157 165.258798 
L 182.050909 164.938214 
L 185.330248 164.603912 
L 188.609587 164.25418 
L 191.888926 163.887198 
L 195.168264 163.501062 
L 198.447603 163.093803 
L 201.726942 162.663408 
L 205.006281 162.20784 
L 208.28562 161.725058 
L 211.564959 161.213034 
L 214.844298 160.669769 
L 218.123636 160.093312 
L 221.402975 159.481772 
L 224.682314 158.833333 
L 227.961653 158.146267 
L 231.240992 157.418943 
L 234.520331 156.649837 
L 237.799669 155.837542 
L 241.079008 154.98077 
L 244.358347 154.078364 
L 247.637686 153.129294 
L 250.917025 152.132664 
L 254.196364 151.08771 
L 257.475702 149.993799 
L 260.755041 148.850427 
L 264.03438 147.657215 
L 267.313719 146.4139 
L 270.593058 145.120335 
L 273.872397 143.776471 
L 277.151736 142.382356 
L 280.431074 140.93812 
L 283.710413 139.44396 
L 286.989752 137.900132 
L 290.269091 136.306936 
L 293.54843 134.664698 
L 296.827769 132.973755 
L 300.107107 131.23444 
L 303.386446 129.447065 
L 306.665785 127.611903 
L 309.945124 125.72917 
L 313.224463 123.799008 
L 316.503802 121.821467 
L 319.78314 119.796486 
L 323.062479 117.723882 
L 326.341818 115.603325 
L 329.621157 113.434327 
L 332.900496 111.216227 
L 336.179835 108.948174 
L 339.459174 106.629117 
L 342.738512 104.257791 
L 346.017851 101.832707 
L 349.29719 99.352143 
L 352.576529 96.814137 
L 355.855868 94.216481 
L 359.135207 91.556717 
L 362.414545 88.832135 
L 365.693884 86.039775 
L 368.973223 83.176425 
L 372.252562 80.238631 
L 375.531901 77.222698 
L 378.81124 74.124704 
L 382.090579 70.940505 
L 385.369917 67.665755 
L 388.649256 64.295915 
L 391.928595 60.826274 
L 395.207934 57.251968 
L 398.487273 53.568 
" style="fill:none;stroke:#000000;stroke-linecap:square;stroke-width:0.5;"/>
   </g>
   <g id="line2d_32">
    <path clip-path="url(#p433b94c2a1)" d="M 73.832727 230.515754 
L 77.112066 229.437803 
L 80.391405 228.462936 
L 83.670744 227.583666 
L 86.950083 226.792642 
L 90.229421 226.082681 
L 93.50876 225.446782 
L 96.788099 224.878154 
L 100.067438 224.370231 
L 103.346777 223.916684 
L 106.626116 223.511444 
L 109.905455 223.148706 
L 113.184793 222.822938 
L 116.464132 222.528895 
L 119.743471 222.261615 
L 123.02281 222.016428 
L 126.302149 221.788953 
L 129.581488 221.575097 
L 132.860826 221.371052 
L 136.140165 221.17329 
L 139.419504 220.978554 
L 142.698843 220.78385 
L 145.978182 220.58644 
L 149.257521 220.383825 
L 152.53686 220.173735 
L 155.816198 219.954116 
L 159.095537 219.723116 
L 162.374876 219.479066 
L 165.654215 219.220466 
L 168.933554 218.945972 
L 172.212893 218.654372 
L 175.492231 218.344577 
L 178.77157 218.015599 
L 182.050909 217.666536 
L 185.330248 217.296558 
L 188.609587 216.904886 
L 191.888926 216.490782 
L 195.168264 216.053533 
L 198.447603 215.592434 
L 201.726942 215.106781 
L 205.006281 214.595853 
L 208.28562 214.058907 
L 211.564959 213.495165 
L 214.844298 212.903806 
L 218.123636 212.283961 
L 221.402975 211.634705 
L 224.682314 210.955055 
L 227.961653 210.243967 
L 231.240992 209.500334 
L 234.520331 208.722986 
L 237.799669 207.910694 
L 241.079008 207.062173 
L 244.358347 206.176083 
L 247.637686 205.251043 
L 250.917025 204.285632 
L 254.196364 203.278402 
L 257.475702 202.227887 
L 260.755041 201.132617 
L 264.03438 199.99113 
L 267.313719 198.801987 
L 270.593058 197.563789 
L 273.872397 196.275191 
L 277.151736 194.934924 
L 280.431074 193.541808 
L 283.710413 192.094778 
L 286.989752 190.592898 
L 290.269091 189.035387 
L 293.54843 187.421634 
L 296.827769 185.751226 
L 300.107107 184.023963 
L 303.386446 182.239882 
L 306.665785 180.399281 
L 309.945124 178.502734 
L 313.224463 176.551116 
L 316.503802 174.545618 
L 319.78314 172.487771 
L 323.062479 170.379461 
L 326.341818 168.222944 
L 329.621157 166.020866 
L 332.900496 163.776272 
L 336.179835 161.492622 
L 339.459174 159.1738 
L 342.738512 156.824121 
L 346.017851 154.448343 
L 349.29719 152.051666 
L 352.576529 149.639736 
L 355.855868 147.218647 
L 359.135207 144.794937 
L 362.414545 142.375583 
L 365.693884 139.967994 
L 368.973223 137.579999 
L 372.252562 135.219838 
L 375.531901 132.896143 
L 378.81124 130.617922 
L 382.090579 128.394536 
L 385.369917 126.235679 
L 388.649256 124.15135 
L 391.928595 122.151823 
L 395.207934 120.24762 
L 398.487273 118.449477 
" style="fill:none;stroke:#000000;stroke-linecap:square;stroke-width:0.5;"/>
   </g>
   <g id="line2d_33">
    <path clip-path="url(#p433b94c2a1)" d="M 73.832727 270.080966 
L 77.112066 271.220159 
L 80.391405 272.321402 
L 83.670744 273.348815 
L 86.950083 274.271326 
L 90.229421 275.063021 
L 93.50876 275.703357 
L 96.788099 276.177242 
L 100.067438 276.474972 
L 103.346777 276.592051 
L 106.626116 276.528889 
L 109.905455 276.290405 
L 113.184793 275.885537 
L 116.464132 275.326677 
L 119.743471 274.629061 
L 123.02281 273.810116 
L 126.302149 272.888788 
L 129.581488 271.884871 
L 132.860826 270.818355 
L 136.140165 269.708802 
L 139.419504 268.574778 
L 142.698843 267.433342 
L 145.978182 266.299606 
L 149.257521 265.186387 
L 152.53686 264.103939 
L 155.816198 263.059783 
L 159.095537 262.058638 
L 162.374876 261.10244 
L 165.654215 260.190457 
L 168.933554 259.319489 
L 172.212893 258.484153 
L 175.492231 257.677225 
L 178.77157 256.890056 
L 182.050909 256.113013 
L 185.330248 255.335971 
L 188.609587 254.548801 
L 191.888926 253.741874 
L 195.168264 252.906537 
L 198.447603 252.03557 
L 201.726942 251.123586 
L 205.006281 250.167388 
L 208.28562 249.166244 
L 211.564959 248.122088 
L 214.844298 247.039639 
L 218.123636 245.92642 
L 221.402975 244.792685 
L 224.682314 243.651248 
L 227.961653 242.517225 
L 231.240992 241.407672 
L 234.520331 240.341155 
L 237.799669 239.337238 
L 241.079008 238.41591 
L 244.358347 237.596965 
L 247.637686 236.89935 
L 250.917025 236.34049 
L 254.196364 235.935621 
L 257.475702 235.697138 
L 260.755041 235.633976 
L 264.03438 235.751055 
L 267.313719 236.048785 
L 270.593058 236.52267 
L 273.872397 237.163006 
L 277.151736 237.954701 
L 280.431074 238.877212 
L 283.710413 239.904625 
L 286.989752 241.005867 
L 290.269091 242.145061 
L 293.54843 243.282015 
L 296.827769 244.372857 
L 300.107107 245.370784 
L 303.386446 246.226932 
L 306.665785 246.891356 
L 309.945124 247.314078 
L 313.224463 247.446219 
L 316.503802 247.241161 
L 319.78314 246.655737 
L 323.062479 245.651414 
L 326.341818 244.195446 
L 329.621157 242.261966 
L 332.900496 239.833004 
L 336.179835 236.899384 
L 339.459174 233.461494 
L 342.738512 229.529902 
L 346.017851 225.125789 
L 349.29719 220.281191 
L 352.576529 215.039034 
L 355.855868 209.452944 
L 359.135207 203.586838 
L 362.414545 197.514281 
L 365.693884 191.317621 
L 368.973223 185.0869 
L 372.252562 178.918559 
L 375.531901 172.913953 
L 378.81124 167.177693 
L 382.090579 161.815836 
L 385.369917 156.933962 
L 388.649256 152.635164 
L 391.928595 149.017984 
L 395.207934 146.17433 
L 398.487273 144.18743 
" style="fill:none;stroke:#0000ff;stroke-dasharray:5.55,2.4;stroke-dashoffset:0;stroke-width:1.5;"/>
   </g>
   <g id="line2d_34">
    <path clip-path="url(#p433b94c2a1)" d="M 73.832727 182.855696 
L 77.112066 186.684759 
L 80.391405 190.437919 
L 83.670744 194.043422 
L 86.950083 197.43912 
L 90.229421 200.573184 
L 93.50876 203.404533 
L 96.788099 205.902979 
L 100.067438 208.049115 
L 103.346777 209.833947 
L 106.626116 211.2583 
L 109.905455 212.332008 
L 113.184793 213.072947 
L 116.464132 213.505902 
L 119.743471 213.661347 
L 123.02281 213.574134 
L 126.302149 213.282153 
L 129.581488 212.824995 
L 132.860826 212.242637 
L 136.140165 211.574207 
L 139.419504 210.856836 
L 142.698843 210.124639 
L 145.978182 209.407844 
L 149.257521 208.732081 
L 152.53686 208.11786 
L 155.816198 207.580224 
L 159.095537 207.12861 
L 162.374876 206.76689 
L 165.654215 206.493599 
L 168.933554 206.302339 
L 172.212893 206.182342 
L 175.492231 206.119163 
L 178.77157 206.0955 
L 182.050909 206.092091 
L 185.330248 206.088681 
L 188.609587 206.065018 
L 191.888926 206.001839 
L 195.168264 205.881842 
L 198.447603 205.690582 
L 201.726942 205.417291 
L 205.006281 205.055571 
L 208.28562 204.603957 
L 211.564959 204.066321 
L 214.844298 203.4521 
L 218.123636 202.776337 
L 221.402975 202.059542 
L 224.682314 201.327346 
L 227.961653 200.609974 
L 231.240992 199.941544 
L 234.520331 199.359186 
L 237.799669 198.902028 
L 241.079008 198.610048 
L 244.358347 198.522834 
L 247.637686 198.678279 
L 250.917025 199.111234 
L 254.196364 199.852173 
L 257.475702 200.925882 
L 260.755041 202.350234 
L 264.03438 204.135067 
L 267.313719 206.281202 
L 270.593058 208.779648 
L 273.872397 211.610997 
L 277.151736 214.745062 
L 280.431074 218.140759 
L 283.710413 221.746262 
L 286.989752 225.499422 
L 290.269091 229.328485 
L 293.54843 233.15307 
L 296.827769 236.88543 
L 300.107107 240.431958 
L 303.386446 243.694931 
L 306.665785 246.574453 
L 309.945124 248.970574 
L 313.224463 250.785531 
L 316.503802 251.926091 
L 319.78314 252.305919 
L 323.062479 251.847949 
L 326.341818 250.486688 
L 329.621157 248.170405 
L 332.900496 244.863157 
L 336.179835 240.546591 
L 339.459174 235.221487 
L 342.738512 228.908979 
L 346.017851 221.651428 
L 349.29719 213.512909 
L 352.576529 204.57927 
L 355.855868 194.957766 
L 359.135207 184.77623 
L 362.414545 174.181793 
L 365.693884 163.339148 
L 368.973223 152.428381 
L 372.252562 141.642374 
L 375.531901 131.183839 
L 378.81124 121.261995 
L 382.090579 112.088955 
L 385.369917 103.875883 
L 388.649256 96.828964 
L 391.928595 91.145279 
L 395.207934 87.008648 
L 398.487273 84.585523 
" style="fill:none;stroke:#ffa500;stroke-dasharray:5.55,2.4;stroke-dashoffset:0;stroke-width:1.5;"/>
   </g>
   <g id="patch_3">
    <path d="M 57.6 307.584 
L 57.6 41.472 
" style="fill:none;stroke:#000000;stroke-linecap:square;stroke-linejoin:miter;stroke-width:0.8;"/>
   </g>
   <g id="patch_4">
    <path d="M 414.72 307.584 
L 414.72 41.472 
" style="fill:none;stroke:#000000;stroke-linecap:square;stroke-linejoin:miter;stroke-width:0.8;"/>
   </g>
   <g id="patch_5">
    <path d="M 57.6 307.584 
L 414.72 307.584 
" style="fill:none;stroke:#000000;stroke-linecap:square;stroke-linejoin:miter;stroke-width:0.8;"/>
   </g>
   <g id="patch_6">
    <path d="M 57.6 41.472 
L 414.72 41.472 
" style="fill:none;stroke:#000000;stroke-linecap:square;stroke-linejoin:miter;stroke-width:0.8;"/>
   </g>
   <g id="legend_1">
    <g id="patch_7">
     <path d="M 64.6 108.1845 
L 239.15625 108.1845 
Q 241.15625 108.1845 241.15625 106.1845 
L 241.15625 48.472 
Q 241.15625 46.472 239.15625 46.472 
L 64.6 46.472 
Q 62.6 46.472 62.6 48.472 
L 62.6 106.1845 
Q 62.6 108.1845 64.6 108.1845 
z
" style="fill:#ffffff;opacity:0.8;stroke:#cccccc;stroke-linejoin:miter;"/>
    </g>
    <g id="line2d_35">
     <path d="M 66.6 54.570438 
L 86.6 54.570438 
" style="fill:none;stroke:#0000ff;stroke-linecap:square;stroke-width:1.5;"/>
    </g>
    <g id="line2d_36"/>
    <g id="text_14">
     <!-- MF cheap GPR (regular GPR) -->
     <g transform="translate(94.6 58.070438)scale(0.1 -0.1)">
      <defs>
       <path d="M 9.8125 72.90625 
L 24.515625 72.90625 
L 43.109375 23.296875 
L 61.8125 72.90625 
L 76.515625 72.90625 
L 76.515625 0 
L 66.890625 0 
L 66.890625 64.015625 
L 48.09375 14.015625 
L 38.1875 14.015625 
L 19.390625 64.015625 
L 19.390625 0 
L 9.8125 0 
z
" id="DejaVuSans-77"/>
       <path d="M 9.8125 72.90625 
L 51.703125 72.90625 
L 51.703125 64.59375 
L 19.671875 64.59375 
L 19.671875 43.109375 
L 48.578125 43.109375 
L 48.578125 34.8125 
L 19.671875 34.8125 
L 19.671875 0 
L 9.8125 0 
z
" id="DejaVuSans-70"/>
       <path id="DejaVuSans-32"/>
       <path d="M 48.78125 52.59375 
L 48.78125 44.1875 
Q 44.96875 46.296875 41.140625 47.34375 
Q 37.3125 48.390625 33.40625 48.390625 
Q 24.65625 48.390625 19.8125 42.84375 
Q 14.984375 37.3125 14.984375 27.296875 
Q 14.984375 17.28125 19.8125 11.734375 
Q 24.65625 6.203125 33.40625 6.203125 
Q 37.3125 6.203125 41.140625 7.25 
Q 44.96875 8.296875 48.78125 10.40625 
L 48.78125 2.09375 
Q 45.015625 0.34375 40.984375 -0.53125 
Q 36.96875 -1.421875 32.421875 -1.421875 
Q 20.0625 -1.421875 12.78125 6.34375 
Q 5.515625 14.109375 5.515625 27.296875 
Q 5.515625 40.671875 12.859375 48.328125 
Q 20.21875 56 33.015625 56 
Q 37.15625 56 41.109375 55.140625 
Q 45.0625 54.296875 48.78125 52.59375 
z
" id="DejaVuSans-99"/>
       <path d="M 54.890625 33.015625 
L 54.890625 0 
L 45.90625 0 
L 45.90625 32.71875 
Q 45.90625 40.484375 42.875 44.328125 
Q 39.84375 48.1875 33.796875 48.1875 
Q 26.515625 48.1875 22.3125 43.546875 
Q 18.109375 38.921875 18.109375 30.90625 
L 18.109375 0 
L 9.078125 0 
L 9.078125 75.984375 
L 18.109375 75.984375 
L 18.109375 46.1875 
Q 21.34375 51.125 25.703125 53.5625 
Q 30.078125 56 35.796875 56 
Q 45.21875 56 50.046875 50.171875 
Q 54.890625 44.34375 54.890625 33.015625 
z
" id="DejaVuSans-104"/>
       <path d="M 56.203125 29.59375 
L 56.203125 25.203125 
L 14.890625 25.203125 
Q 15.484375 15.921875 20.484375 11.0625 
Q 25.484375 6.203125 34.421875 6.203125 
Q 39.59375 6.203125 44.453125 7.46875 
Q 49.3125 8.734375 54.109375 11.28125 
L 54.109375 2.78125 
Q 49.265625 0.734375 44.1875 -0.34375 
Q 39.109375 -1.421875 33.890625 -1.421875 
Q 20.796875 -1.421875 13.15625 6.1875 
Q 5.515625 13.8125 5.515625 26.8125 
Q 5.515625 40.234375 12.765625 48.109375 
Q 20.015625 56 32.328125 56 
Q 43.359375 56 49.78125 48.890625 
Q 56.203125 41.796875 56.203125 29.59375 
z
M 47.21875 32.234375 
Q 47.125 39.59375 43.09375 43.984375 
Q 39.0625 48.390625 32.421875 48.390625 
Q 24.90625 48.390625 20.390625 44.140625 
Q 15.875 39.890625 15.1875 32.171875 
z
" id="DejaVuSans-101"/>
       <path d="M 34.28125 27.484375 
Q 23.390625 27.484375 19.1875 25 
Q 14.984375 22.515625 14.984375 16.5 
Q 14.984375 11.71875 18.140625 8.90625 
Q 21.296875 6.109375 26.703125 6.109375 
Q 34.1875 6.109375 38.703125 11.40625 
Q 43.21875 16.703125 43.21875 25.484375 
L 43.21875 27.484375 
z
M 52.203125 31.203125 
L 52.203125 0 
L 43.21875 0 
L 43.21875 8.296875 
Q 40.140625 3.328125 35.546875 0.953125 
Q 30.953125 -1.421875 24.3125 -1.421875 
Q 15.921875 -1.421875 10.953125 3.296875 
Q 6 8.015625 6 15.921875 
Q 6 25.140625 12.171875 29.828125 
Q 18.359375 34.515625 30.609375 34.515625 
L 43.21875 34.515625 
L 43.21875 35.40625 
Q 43.21875 41.609375 39.140625 45 
Q 35.0625 48.390625 27.6875 48.390625 
Q 23 48.390625 18.546875 47.265625 
Q 14.109375 46.140625 10.015625 43.890625 
L 10.015625 52.203125 
Q 14.9375 54.109375 19.578125 55.046875 
Q 24.21875 56 28.609375 56 
Q 40.484375 56 46.34375 49.84375 
Q 52.203125 43.703125 52.203125 31.203125 
z
" id="DejaVuSans-97"/>
       <path d="M 18.109375 8.203125 
L 18.109375 -20.796875 
L 9.078125 -20.796875 
L 9.078125 54.6875 
L 18.109375 54.6875 
L 18.109375 46.390625 
Q 20.953125 51.265625 25.265625 53.625 
Q 29.59375 56 35.59375 56 
Q 45.5625 56 51.78125 48.09375 
Q 58.015625 40.1875 58.015625 27.296875 
Q 58.015625 14.40625 51.78125 6.484375 
Q 45.5625 -1.421875 35.59375 -1.421875 
Q 29.59375 -1.421875 25.265625 0.953125 
Q 20.953125 3.328125 18.109375 8.203125 
z
M 48.6875 27.296875 
Q 48.6875 37.203125 44.609375 42.84375 
Q 40.53125 48.484375 33.40625 48.484375 
Q 26.265625 48.484375 22.1875 42.84375 
Q 18.109375 37.203125 18.109375 27.296875 
Q 18.109375 17.390625 22.1875 11.75 
Q 26.265625 6.109375 33.40625 6.109375 
Q 40.53125 6.109375 44.609375 11.75 
Q 48.6875 17.390625 48.6875 27.296875 
z
" id="DejaVuSans-112"/>
       <path d="M 59.515625 10.40625 
L 59.515625 29.984375 
L 43.40625 29.984375 
L 43.40625 38.09375 
L 69.28125 38.09375 
L 69.28125 6.78125 
Q 63.578125 2.734375 56.6875 0.65625 
Q 49.8125 -1.421875 42 -1.421875 
Q 24.90625 -1.421875 15.25 8.5625 
Q 5.609375 18.5625 5.609375 36.375 
Q 5.609375 54.25 15.25 64.234375 
Q 24.90625 74.21875 42 74.21875 
Q 49.125 74.21875 55.546875 72.453125 
Q 61.96875 70.703125 67.390625 67.28125 
L 67.390625 56.78125 
Q 61.921875 61.421875 55.765625 63.765625 
Q 49.609375 66.109375 42.828125 66.109375 
Q 29.4375 66.109375 22.71875 58.640625 
Q 16.015625 51.171875 16.015625 36.375 
Q 16.015625 21.625 22.71875 14.15625 
Q 29.4375 6.6875 42.828125 6.6875 
Q 48.046875 6.6875 52.140625 7.59375 
Q 56.25 8.5 59.515625 10.40625 
z
" id="DejaVuSans-71"/>
       <path d="M 19.671875 64.796875 
L 19.671875 37.40625 
L 32.078125 37.40625 
Q 38.96875 37.40625 42.71875 40.96875 
Q 46.484375 44.53125 46.484375 51.125 
Q 46.484375 57.671875 42.71875 61.234375 
Q 38.96875 64.796875 32.078125 64.796875 
z
M 9.8125 72.90625 
L 32.078125 72.90625 
Q 44.34375 72.90625 50.609375 67.359375 
Q 56.890625 61.8125 56.890625 51.125 
Q 56.890625 40.328125 50.609375 34.8125 
Q 44.34375 29.296875 32.078125 29.296875 
L 19.671875 29.296875 
L 19.671875 0 
L 9.8125 0 
z
" id="DejaVuSans-80"/>
       <path d="M 44.390625 34.1875 
Q 47.5625 33.109375 50.5625 29.59375 
Q 53.5625 26.078125 56.59375 19.921875 
L 66.609375 0 
L 56 0 
L 46.6875 18.703125 
Q 43.0625 26.03125 39.671875 28.421875 
Q 36.28125 30.8125 30.421875 30.8125 
L 19.671875 30.8125 
L 19.671875 0 
L 9.8125 0 
L 9.8125 72.90625 
L 32.078125 72.90625 
Q 44.578125 72.90625 50.734375 67.671875 
Q 56.890625 62.453125 56.890625 51.90625 
Q 56.890625 45.015625 53.6875 40.46875 
Q 50.484375 35.9375 44.390625 34.1875 
z
M 19.671875 64.796875 
L 19.671875 38.921875 
L 32.078125 38.921875 
Q 39.203125 38.921875 42.84375 42.21875 
Q 46.484375 45.515625 46.484375 51.90625 
Q 46.484375 58.296875 42.84375 61.546875 
Q 39.203125 64.796875 32.078125 64.796875 
z
" id="DejaVuSans-82"/>
       <path d="M 31 75.875 
Q 24.46875 64.65625 21.28125 53.65625 
Q 18.109375 42.671875 18.109375 31.390625 
Q 18.109375 20.125 21.3125 9.0625 
Q 24.515625 -2 31 -13.1875 
L 23.1875 -13.1875 
Q 15.875 -1.703125 12.234375 9.375 
Q 8.59375 20.453125 8.59375 31.390625 
Q 8.59375 42.28125 12.203125 53.3125 
Q 15.828125 64.359375 23.1875 75.875 
z
" id="DejaVuSans-40"/>
       <path d="M 41.109375 46.296875 
Q 39.59375 47.171875 37.8125 47.578125 
Q 36.03125 48 33.890625 48 
Q 26.265625 48 22.1875 43.046875 
Q 18.109375 38.09375 18.109375 28.8125 
L 18.109375 0 
L 9.078125 0 
L 9.078125 54.6875 
L 18.109375 54.6875 
L 18.109375 46.1875 
Q 20.953125 51.171875 25.484375 53.578125 
Q 30.03125 56 36.53125 56 
Q 37.453125 56 38.578125 55.875 
Q 39.703125 55.765625 41.0625 55.515625 
z
" id="DejaVuSans-114"/>
       <path d="M 45.40625 27.984375 
Q 45.40625 37.75 41.375 43.109375 
Q 37.359375 48.484375 30.078125 48.484375 
Q 22.859375 48.484375 18.828125 43.109375 
Q 14.796875 37.75 14.796875 27.984375 
Q 14.796875 18.265625 18.828125 12.890625 
Q 22.859375 7.515625 30.078125 7.515625 
Q 37.359375 7.515625 41.375 12.890625 
Q 45.40625 18.265625 45.40625 27.984375 
z
M 54.390625 6.78125 
Q 54.390625 -7.171875 48.1875 -13.984375 
Q 42 -20.796875 29.203125 -20.796875 
Q 24.46875 -20.796875 20.265625 -20.09375 
Q 16.0625 -19.390625 12.109375 -17.921875 
L 12.109375 -9.1875 
Q 16.0625 -11.328125 19.921875 -12.34375 
Q 23.78125 -13.375 27.78125 -13.375 
Q 36.625 -13.375 41.015625 -8.765625 
Q 45.40625 -4.15625 45.40625 5.171875 
L 45.40625 9.625 
Q 42.625 4.78125 38.28125 2.390625 
Q 33.9375 0 27.875 0 
Q 17.828125 0 11.671875 7.65625 
Q 5.515625 15.328125 5.515625 27.984375 
Q 5.515625 40.671875 11.671875 48.328125 
Q 17.828125 56 27.875 56 
Q 33.9375 56 38.28125 53.609375 
Q 42.625 51.21875 45.40625 46.390625 
L 45.40625 54.6875 
L 54.390625 54.6875 
z
" id="DejaVuSans-103"/>
       <path d="M 8.5 21.578125 
L 8.5 54.6875 
L 17.484375 54.6875 
L 17.484375 21.921875 
Q 17.484375 14.15625 20.5 10.265625 
Q 23.53125 6.390625 29.59375 6.390625 
Q 36.859375 6.390625 41.078125 11.03125 
Q 45.3125 15.671875 45.3125 23.6875 
L 45.3125 54.6875 
L 54.296875 54.6875 
L 54.296875 0 
L 45.3125 0 
L 45.3125 8.40625 
Q 42.046875 3.421875 37.71875 1 
Q 33.40625 -1.421875 27.6875 -1.421875 
Q 18.265625 -1.421875 13.375 4.4375 
Q 8.5 10.296875 8.5 21.578125 
z
M 31.109375 56 
z
" id="DejaVuSans-117"/>
       <path d="M 9.421875 75.984375 
L 18.40625 75.984375 
L 18.40625 0 
L 9.421875 0 
z
" id="DejaVuSans-108"/>
       <path d="M 8.015625 75.875 
L 15.828125 75.875 
Q 23.140625 64.359375 26.78125 53.3125 
Q 30.421875 42.28125 30.421875 31.390625 
Q 30.421875 20.453125 26.78125 9.375 
Q 23.140625 -1.703125 15.828125 -13.1875 
L 8.015625 -13.1875 
Q 14.5 -2 17.703125 9.0625 
Q 20.90625 20.125 20.90625 31.390625 
Q 20.90625 42.671875 17.703125 53.65625 
Q 14.5 64.65625 8.015625 75.875 
z
" id="DejaVuSans-41"/>
      </defs>
      <use xlink:href="#DejaVuSans-77"/>
      <use x="86.279297" xlink:href="#DejaVuSans-70"/>
      <use x="143.798828" xlink:href="#DejaVuSans-32"/>
      <use x="175.585938" xlink:href="#DejaVuSans-99"/>
      <use x="230.566406" xlink:href="#DejaVuSans-104"/>
      <use x="293.945312" xlink:href="#DejaVuSans-101"/>
      <use x="355.46875" xlink:href="#DejaVuSans-97"/>
      <use x="416.748047" xlink:href="#DejaVuSans-112"/>
      <use x="480.224609" xlink:href="#DejaVuSans-32"/>
      <use x="512.011719" xlink:href="#DejaVuSans-71"/>
      <use x="589.501953" xlink:href="#DejaVuSans-80"/>
      <use x="649.804688" xlink:href="#DejaVuSans-82"/>
      <use x="719.287109" xlink:href="#DejaVuSans-32"/>
      <use x="751.074219" xlink:href="#DejaVuSans-40"/>
      <use x="790.087891" xlink:href="#DejaVuSans-114"/>
      <use x="828.951172" xlink:href="#DejaVuSans-101"/>
      <use x="890.474609" xlink:href="#DejaVuSans-103"/>
      <use x="953.951172" xlink:href="#DejaVuSans-117"/>
      <use x="1017.330078" xlink:href="#DejaVuSans-108"/>
      <use x="1045.113281" xlink:href="#DejaVuSans-97"/>
      <use x="1106.392578" xlink:href="#DejaVuSans-114"/>
      <use x="1147.505859" xlink:href="#DejaVuSans-32"/>
      <use x="1179.292969" xlink:href="#DejaVuSans-71"/>
      <use x="1256.783203" xlink:href="#DejaVuSans-80"/>
      <use x="1317.085938" xlink:href="#DejaVuSans-82"/>
      <use x="1386.568359" xlink:href="#DejaVuSans-41"/>
     </g>
    </g>
    <g id="line2d_37">
     <path d="M 66.6 69.248563 
L 86.6 69.248563 
" style="fill:none;stroke:#ffa500;stroke-linecap:square;stroke-width:1.5;"/>
    </g>
    <g id="line2d_38"/>
    <g id="text_15">
     <!-- MF expensive GPR -->
     <g transform="translate(94.6 72.748563)scale(0.1 -0.1)">
      <defs>
       <path d="M 54.890625 54.6875 
L 35.109375 28.078125 
L 55.90625 0 
L 45.3125 0 
L 29.390625 21.484375 
L 13.484375 0 
L 2.875 0 
L 24.125 28.609375 
L 4.6875 54.6875 
L 15.28125 54.6875 
L 29.78125 35.203125 
L 44.28125 54.6875 
z
" id="DejaVuSans-120"/>
       <path d="M 54.890625 33.015625 
L 54.890625 0 
L 45.90625 0 
L 45.90625 32.71875 
Q 45.90625 40.484375 42.875 44.328125 
Q 39.84375 48.1875 33.796875 48.1875 
Q 26.515625 48.1875 22.3125 43.546875 
Q 18.109375 38.921875 18.109375 30.90625 
L 18.109375 0 
L 9.078125 0 
L 9.078125 54.6875 
L 18.109375 54.6875 
L 18.109375 46.1875 
Q 21.34375 51.125 25.703125 53.5625 
Q 30.078125 56 35.796875 56 
Q 45.21875 56 50.046875 50.171875 
Q 54.890625 44.34375 54.890625 33.015625 
z
" id="DejaVuSans-110"/>
       <path d="M 44.28125 53.078125 
L 44.28125 44.578125 
Q 40.484375 46.53125 36.375 47.5 
Q 32.28125 48.484375 27.875 48.484375 
Q 21.1875 48.484375 17.84375 46.4375 
Q 14.5 44.390625 14.5 40.28125 
Q 14.5 37.15625 16.890625 35.375 
Q 19.28125 33.59375 26.515625 31.984375 
L 29.59375 31.296875 
Q 39.15625 29.25 43.1875 25.515625 
Q 47.21875 21.78125 47.21875 15.09375 
Q 47.21875 7.46875 41.1875 3.015625 
Q 35.15625 -1.421875 24.609375 -1.421875 
Q 20.21875 -1.421875 15.453125 -0.5625 
Q 10.6875 0.296875 5.421875 2 
L 5.421875 11.28125 
Q 10.40625 8.6875 15.234375 7.390625 
Q 20.0625 6.109375 24.8125 6.109375 
Q 31.15625 6.109375 34.5625 8.28125 
Q 37.984375 10.453125 37.984375 14.40625 
Q 37.984375 18.0625 35.515625 20.015625 
Q 33.0625 21.96875 24.703125 23.78125 
L 21.578125 24.515625 
Q 13.234375 26.265625 9.515625 29.90625 
Q 5.8125 33.546875 5.8125 39.890625 
Q 5.8125 47.609375 11.28125 51.796875 
Q 16.75 56 26.8125 56 
Q 31.78125 56 36.171875 55.265625 
Q 40.578125 54.546875 44.28125 53.078125 
z
" id="DejaVuSans-115"/>
       <path d="M 9.421875 54.6875 
L 18.40625 54.6875 
L 18.40625 0 
L 9.421875 0 
z
M 9.421875 75.984375 
L 18.40625 75.984375 
L 18.40625 64.59375 
L 9.421875 64.59375 
z
" id="DejaVuSans-105"/>
       <path d="M 2.984375 54.6875 
L 12.5 54.6875 
L 29.59375 8.796875 
L 46.6875 54.6875 
L 56.203125 54.6875 
L 35.6875 0 
L 23.484375 0 
z
" id="DejaVuSans-118"/>
      </defs>
      <use xlink:href="#DejaVuSans-77"/>
      <use x="86.279297" xlink:href="#DejaVuSans-70"/>
      <use x="143.798828" xlink:href="#DejaVuSans-32"/>
      <use x="175.585938" xlink:href="#DejaVuSans-101"/>
      <use x="235.359375" xlink:href="#DejaVuSans-120"/>
      <use x="294.539062" xlink:href="#DejaVuSans-112"/>
      <use x="358.015625" xlink:href="#DejaVuSans-101"/>
      <use x="419.539062" xlink:href="#DejaVuSans-110"/>
      <use x="482.917969" xlink:href="#DejaVuSans-115"/>
      <use x="535.017578" xlink:href="#DejaVuSans-105"/>
      <use x="562.800781" xlink:href="#DejaVuSans-118"/>
      <use x="621.980469" xlink:href="#DejaVuSans-101"/>
      <use x="683.503906" xlink:href="#DejaVuSans-32"/>
      <use x="715.291016" xlink:href="#DejaVuSans-71"/>
      <use x="792.78125" xlink:href="#DejaVuSans-80"/>
      <use x="853.083984" xlink:href="#DejaVuSans-82"/>
     </g>
    </g>
    <g id="line2d_39">
     <path d="M 66.6 83.926688 
L 86.6 83.926688 
" style="fill:none;stroke:#0000ff;stroke-dasharray:5.55,2.4;stroke-dashoffset:0;stroke-width:1.5;"/>
    </g>
    <g id="line2d_40"/>
    <g id="text_16">
     <!-- Exact cheap function -->
     <g transform="translate(94.6 87.426688)scale(0.1 -0.1)">
      <defs>
       <path d="M 9.8125 72.90625 
L 55.90625 72.90625 
L 55.90625 64.59375 
L 19.671875 64.59375 
L 19.671875 43.015625 
L 54.390625 43.015625 
L 54.390625 34.71875 
L 19.671875 34.71875 
L 19.671875 8.296875 
L 56.78125 8.296875 
L 56.78125 0 
L 9.8125 0 
z
" id="DejaVuSans-69"/>
       <path d="M 18.3125 70.21875 
L 18.3125 54.6875 
L 36.8125 54.6875 
L 36.8125 47.703125 
L 18.3125 47.703125 
L 18.3125 18.015625 
Q 18.3125 11.328125 20.140625 9.421875 
Q 21.96875 7.515625 27.59375 7.515625 
L 36.8125 7.515625 
L 36.8125 0 
L 27.59375 0 
Q 17.1875 0 13.234375 3.875 
Q 9.28125 7.765625 9.28125 18.015625 
L 9.28125 47.703125 
L 2.6875 47.703125 
L 2.6875 54.6875 
L 9.28125 54.6875 
L 9.28125 70.21875 
z
" id="DejaVuSans-116"/>
       <path d="M 37.109375 75.984375 
L 37.109375 68.5 
L 28.515625 68.5 
Q 23.6875 68.5 21.796875 66.546875 
Q 19.921875 64.59375 19.921875 59.515625 
L 19.921875 54.6875 
L 34.71875 54.6875 
L 34.71875 47.703125 
L 19.921875 47.703125 
L 19.921875 0 
L 10.890625 0 
L 10.890625 47.703125 
L 2.296875 47.703125 
L 2.296875 54.6875 
L 10.890625 54.6875 
L 10.890625 58.5 
Q 10.890625 67.625 15.140625 71.796875 
Q 19.390625 75.984375 28.609375 75.984375 
z
" id="DejaVuSans-102"/>
       <path d="M 30.609375 48.390625 
Q 23.390625 48.390625 19.1875 42.75 
Q 14.984375 37.109375 14.984375 27.296875 
Q 14.984375 17.484375 19.15625 11.84375 
Q 23.34375 6.203125 30.609375 6.203125 
Q 37.796875 6.203125 41.984375 11.859375 
Q 46.1875 17.53125 46.1875 27.296875 
Q 46.1875 37.015625 41.984375 42.703125 
Q 37.796875 48.390625 30.609375 48.390625 
z
M 30.609375 56 
Q 42.328125 56 49.015625 48.375 
Q 55.71875 40.765625 55.71875 27.296875 
Q 55.71875 13.875 49.015625 6.21875 
Q 42.328125 -1.421875 30.609375 -1.421875 
Q 18.84375 -1.421875 12.171875 6.21875 
Q 5.515625 13.875 5.515625 27.296875 
Q 5.515625 40.765625 12.171875 48.375 
Q 18.84375 56 30.609375 56 
z
" id="DejaVuSans-111"/>
      </defs>
      <use xlink:href="#DejaVuSans-69"/>
      <use x="63.183594" xlink:href="#DejaVuSans-120"/>
      <use x="122.363281" xlink:href="#DejaVuSans-97"/>
      <use x="183.642578" xlink:href="#DejaVuSans-99"/>
      <use x="238.623047" xlink:href="#DejaVuSans-116"/>
      <use x="277.832031" xlink:href="#DejaVuSans-32"/>
      <use x="309.619141" xlink:href="#DejaVuSans-99"/>
      <use x="364.599609" xlink:href="#DejaVuSans-104"/>
      <use x="427.978516" xlink:href="#DejaVuSans-101"/>
      <use x="489.501953" xlink:href="#DejaVuSans-97"/>
      <use x="550.78125" xlink:href="#DejaVuSans-112"/>
      <use x="614.257812" xlink:href="#DejaVuSans-32"/>
      <use x="646.044922" xlink:href="#DejaVuSans-102"/>
      <use x="681.25" xlink:href="#DejaVuSans-117"/>
      <use x="744.628906" xlink:href="#DejaVuSans-110"/>
      <use x="808.007812" xlink:href="#DejaVuSans-99"/>
      <use x="862.988281" xlink:href="#DejaVuSans-116"/>
      <use x="902.197266" xlink:href="#DejaVuSans-105"/>
      <use x="929.980469" xlink:href="#DejaVuSans-111"/>
      <use x="991.162109" xlink:href="#DejaVuSans-110"/>
     </g>
    </g>
    <g id="line2d_41">
     <path d="M 66.6 98.604813 
L 86.6 98.604813 
" style="fill:none;stroke:#ffa500;stroke-dasharray:5.55,2.4;stroke-dashoffset:0;stroke-width:1.5;"/>
    </g>
    <g id="line2d_42"/>
    <g id="text_17">
     <!-- Exact expensive function -->
     <g transform="translate(94.6 102.104813)scale(0.1 -0.1)">
      <use xlink:href="#DejaVuSans-69"/>
      <use x="63.183594" xlink:href="#DejaVuSans-120"/>
      <use x="122.363281" xlink:href="#DejaVuSans-97"/>
      <use x="183.642578" xlink:href="#DejaVuSans-99"/>
      <use x="238.623047" xlink:href="#DejaVuSans-116"/>
      <use x="277.832031" xlink:href="#DejaVuSans-32"/>
      <use x="309.619141" xlink:href="#DejaVuSans-101"/>
      <use x="369.392578" xlink:href="#DejaVuSans-120"/>
      <use x="428.572266" xlink:href="#DejaVuSans-112"/>
      <use x="492.048828" xlink:href="#DejaVuSans-101"/>
      <use x="553.572266" xlink:href="#DejaVuSans-110"/>
      <use x="616.951172" xlink:href="#DejaVuSans-115"/>
      <use x="669.050781" xlink:href="#DejaVuSans-105"/>
      <use x="696.833984" xlink:href="#DejaVuSans-118"/>
      <use x="756.013672" xlink:href="#DejaVuSans-101"/>
      <use x="817.537109" xlink:href="#DejaVuSans-32"/>
      <use x="849.324219" xlink:href="#DejaVuSans-102"/>
      <use x="884.529297" xlink:href="#DejaVuSans-117"/>
      <use x="947.908203" xlink:href="#DejaVuSans-110"/>
      <use x="1011.287109" xlink:href="#DejaVuSans-99"/>
      <use x="1066.267578" xlink:href="#DejaVuSans-116"/>
      <use x="1105.476562" xlink:href="#DejaVuSans-105"/>
      <use x="1133.259766" xlink:href="#DejaVuSans-111"/>
      <use x="1194.441406" xlink:href="#DejaVuSans-110"/>
     </g>
    </g>
   </g>
  </g>
 </g>
 <defs>
  <clipPath id="p433b94c2a1">
   <rect height="266.112" width="357.12" x="57.6" y="41.472"/>
  </clipPath>
 </defs>
</svg>
