<?xml version="1.0" encoding="utf-8" standalone="no"?>
<!DOCTYPE svg PUBLIC "-//W3C//DTD SVG 1.1//EN"
  "http://www.w3.org/Graphics/SVG/1.1/DTD/svg11.dtd">
<!-- Created with matplotlib (https://matplotlib.org/) -->
<svg height="345.6pt" version="1.1" viewBox="0 0 460.8 345.6" width="460.8pt" xmlns="http://www.w3.org/2000/svg" xmlns:xlink="http://www.w3.org/1999/xlink">
 <metadata>
  <rdf:RDF xmlns:cc="http://creativecommons.org/ns#" xmlns:dc="http://purl.org/dc/elements/1.1/" xmlns:rdf="http://www.w3.org/1999/02/22-rdf-syntax-ns#">
   <cc:Work>
    <dc:type rdf:resource="http://purl.org/dc/dcmitype/StillImage"/>
    <dc:date>2020-11-24T13:54:41.230277</dc:date>
    <dc:format>image/svg+xml</dc:format>
    <dc:creator>
     <cc:Agent>
      <dc:title>Matplotlib v3.3.1, https://matplotlib.org/</dc:title>
     </cc:Agent>
    </dc:creator>
   </cc:Work>
  </rdf:RDF>
 </metadata>
 <defs>
  <style type="text/css">*{stroke-linecap:butt;stroke-linejoin:round;}</style>
 </defs>
 <g id="figure_1">
  <g id="patch_1">
   <path d="M 0 345.6 
L 460.8 345.6 
L 460.8 0 
L 0 0 
z
" style="fill:#ffffff;"/>
  </g>
  <g id="axes_1">
   <g id="patch_2">
    <path d="M 57.6 307.584 
L 414.72 307.584 
L 414.72 41.472 
L 57.6 41.472 
z
" style="fill:#ffffff;"/>
   </g>
   <g id="PolyCollection_1">
    <defs>
     <path d="M 73.832727 -93.157809 
L 73.832727 -68.284949 
L 77.112066 -68.104593 
L 80.391405 -67.653846 
L 83.670744 -67.058392 
L 86.950083 -66.42265 
L 90.229421 -65.828709 
L 93.50876 -65.33663 
L 96.788099 -64.985923 
L 100.067438 -64.797947 
L 103.346777 -64.778942 
L 106.626116 -64.923382 
L 109.905455 -65.21737 
L 113.184793 -65.641825 
L 116.464132 -66.175254 
L 119.743471 -66.795991 
L 123.02281 -67.483846 
L 126.302149 -68.221145 
L 129.581488 -68.993247 
L 132.860826 -69.788599 
L 136.140165 -70.598483 
L 139.419504 -71.416554 
L 142.698843 -72.238297 
L 145.978182 -73.060511 
L 149.257521 -73.880876 
L 152.53686 -74.697652 
L 155.816198 -75.509527 
L 159.095537 -76.315595 
L 162.374876 -77.115425 
L 165.654215 -77.909189 
L 168.933554 -78.697795 
L 172.212893 -79.482982 
L 175.492231 -80.267345 
L 178.77157 -81.054259 
L 182.050909 -81.847718 
L 185.330248 -82.652066 
L 188.609587 -83.471667 
L 191.888926 -84.310517 
L 195.168264 -85.171847 
L 198.447603 -86.05773 
L 201.726942 -86.968744 
L 205.006281 -87.90369 
L 208.28562 -88.8594 
L 211.564959 -89.830641 
L 214.844298 -90.810116 
L 218.123636 -91.788566 
L 221.402975 -92.754962 
L 224.682314 -93.696781 
L 227.961653 -94.600355 
L 231.240992 -95.451277 
L 234.520331 -96.23485 
L 237.799669 -96.936571 
L 241.079008 -97.54262 
L 244.358347 -98.040363 
L 247.637686 -98.418827 
L 250.917025 -98.669154 
L 254.196364 -98.785017 
L 257.475702 -98.762976 
L 260.755041 -98.602784 
L 264.03438 -98.307623 
L 267.313719 -97.884266 
L 270.593058 -97.343181 
L 273.872397 -96.698549 
L 277.151736 -95.968223 
L 280.431074 -95.173602 
L 283.710413 -94.339442 
L 286.989752 -93.493579 
L 290.269091 -92.666565 
L 293.54843 -91.891207 
L 296.827769 -91.202005 
L 300.107107 -90.634477 
L 303.386446 -90.224376 
L 306.665785 -90.006805 
L 309.945124 -90.015263 
L 313.224463 -90.280634 
L 316.503802 -90.830192 
L 319.78314 -91.686659 
L 323.062479 -92.867386 
L 326.341818 -94.383736 
L 329.621157 -96.240699 
L 332.900496 -98.436811 
L 336.179835 -100.964375 
L 339.459174 -103.809976 
L 342.738512 -106.955262 
L 346.017851 -110.377886 
L 349.29719 -114.052514 
L 352.576529 -117.951764 
L 355.855868 -122.046926 
L 359.135207 -126.308333 
L 362.414545 -130.70525 
L 365.693884 -135.205224 
L 368.973223 -139.772846 
L 372.252562 -144.367977 
L 375.531901 -148.94354 
L 378.81124 -153.443054 
L 382.090579 -157.798134 
L 385.369917 -161.926238 
L 388.649256 -165.728935 
L 391.928595 -169.090997 
L 395.207934 -171.880535 
L 398.487273 -173.950385 
L 398.487273 -198.823246 
L 398.487273 -198.823246 
L 395.207934 -194.91951 
L 391.928595 -191.10026 
L 388.649256 -187.27091 
L 385.369917 -183.36093 
L 382.090579 -179.324458 
L 378.81124 -175.139485 
L 375.531901 -170.805819 
L 372.252562 -166.342085 
L 368.973223 -161.782072 
L 365.693884 -157.170739 
L 362.414545 -152.560184 
L 359.135207 -148.005844 
L 355.855868 -143.563129 
L 352.576529 -139.284634 
L 349.29719 -135.218007 
L 346.017851 -131.404479 
L 342.738512 -127.878006 
L 339.459174 -124.664948 
L 336.179835 -121.784153 
L 332.900496 -119.24734 
L 329.621157 -117.059652 
L 326.341818 -115.220284 
L 323.062479 -113.723107 
L 319.78314 -112.557238 
L 316.503802 -111.707541 
L 313.224463 -111.155058 
L 309.945124 -110.877387 
L 306.665785 -110.84905 
L 303.386446 -111.041875 
L 300.107107 -111.425419 
L 296.827769 -111.967472 
L 293.54843 -112.63462 
L 290.269091 -113.392894 
L 286.989752 -114.208463 
L 283.710413 -115.048361 
L 280.431074 -115.881206 
L 277.151736 -116.677884 
L 273.872397 -117.412155 
L 270.593058 -118.061167 
L 267.313719 -118.60584 
L 264.03438 -119.031121 
L 260.755041 -119.326096 
L 257.475702 -119.483973 
L 254.196364 -119.501924 
L 250.917025 -119.380832 
L 247.637686 -119.12493 
L 244.358347 -118.741376 
L 241.079008 -118.23977 
L 237.799669 -117.63164 
L 234.520331 -116.92992 
L 231.240992 -116.148427 
L 227.961653 -115.301368 
L 224.682314 -114.402884 
L 221.402975 -113.46664 
L 218.123636 -112.505473 
L 214.844298 -111.531113 
L 211.564959 -110.553953 
L 208.28562 -109.582898 
L 205.006281 -108.625264 
L 201.726942 -107.686731 
L 198.447603 -106.771336 
L 195.168264 -105.881508 
L 191.888926 -105.018122 
L 188.609587 -104.180586 
L 185.330248 -103.36695 
L 182.050909 -102.574047 
L 178.77157 -101.797672 
L 175.492231 -101.032811 
L 172.212893 -100.273924 
L 168.933554 -99.515294 
L 165.654215 -98.751434 
L 162.374876 -97.97755 
L 159.095537 -97.19002 
L 155.816198 -96.386876 
L 152.53686 -95.568231 
L 149.257521 -94.736596 
L 145.978182 -93.89706 
L 142.698843 -93.05725 
L 139.419504 -92.227082 
L 136.140165 -91.418262 
L 132.860826 -90.643572 
L 129.581488 -89.915991 
L 126.302149 -89.247738 
L 123.02281 -88.649338 
L 119.743471 -88.128861 
L 116.464132 -87.691456 
L 113.184793 -87.339337 
L 109.905455 -87.072304 
L 106.626116 -86.888896 
L 103.346777 -86.788168 
L 100.067438 -86.772056 
L 96.788099 -86.848202 
L 93.50876 -87.033061 
L 90.229421 -87.355033 
L 86.950083 -87.857342 
L 83.670744 -88.600367 
L 80.391405 -89.663109 
L 77.112066 -91.143568 
L 73.832727 -93.157809 
z
" id="m7b14265efe" style="stroke:#0000ff;stroke-opacity:0.2;"/>
    </defs>
    <g clip-path="url(#pf5d83a570d)">
     <use style="fill:#0000ff;fill-opacity:0.2;stroke:#0000ff;stroke-opacity:0.2;" x="0" xlink:href="#m7b14265efe" y="345.6"/>
    </g>
   </g>
   <g id="PolyCollection_2">
    <defs>
     <path d="M 73.832727 -209.274791 
L 73.832727 -101.302645 
L 77.112066 -101.610431 
L 80.391405 -100.447132 
L 83.670744 -98.347481 
L 86.950083 -95.75751 
L 90.229421 -93.030081 
L 93.50876 -90.426272 
L 96.788099 -88.121794 
L 100.067438 -86.217305 
L 103.346777 -84.751426 
L 106.626116 -83.715028 
L 109.905455 -83.065666 
L 113.184793 -82.740972 
L 116.464132 -82.670256 
L 119.743471 -82.783702 
L 123.02281 -83.018946 
L 126.302149 -83.325041 
L 129.581488 -83.664049 
L 132.860826 -84.01075 
L 136.140165 -84.350927 
L 139.419504 -84.678848 
L 142.698843 -84.994441 
L 145.978182 -85.300637 
L 149.257521 -85.601169 
L 152.53686 -85.899061 
L 155.816198 -86.195846 
L 159.095537 -86.491445 
L 162.374876 -86.784596 
L 165.654215 -87.073638 
L 168.933554 -87.357396 
L 172.212893 -87.636047 
L 175.492231 -87.911729 
L 178.77157 -88.188837 
L 182.050909 -88.473937 
L 185.330248 -88.775335 
L 188.609587 -89.102298 
L 191.888926 -89.464087 
L 195.168264 -89.868876 
L 198.447603 -90.322665 
L 201.726942 -90.828292 
L 205.006281 -91.384645 
L 208.28562 -91.986111 
L 211.564959 -92.622286 
L 214.844298 -93.277992 
L 218.123636 -93.933536 
L 221.402975 -94.565223 
L 224.682314 -95.146062 
L 227.961653 -95.646644 
L 231.240992 -96.036111 
L 234.520331 -96.283215 
L 237.799669 -96.357402 
L 241.079008 -96.229883 
L 244.358347 -95.874663 
L 247.637686 -95.269513 
L 250.917025 -94.396814 
L 254.196364 -93.244319 
L 257.475702 -91.805759 
L 260.755041 -90.081339 
L 264.03438 -88.078082 
L 267.313719 -85.810083 
L 270.593058 -83.298644 
L 273.872397 -80.572335 
L 277.151736 -77.666957 
L 280.431074 -74.625463 
L 283.710413 -71.49776 
L 286.989752 -68.340389 
L 290.269091 -65.216077 
L 293.54843 -62.192995 
L 296.827769 -59.343784 
L 300.107107 -56.744187 
L 303.386446 -54.471338 
L 306.665785 -52.601642 
L 309.945124 -51.208339 
L 313.224463 -50.358842 
L 316.503802 -50.112 
L 319.78314 -50.515515 
L 323.062479 -51.603726 
L 326.341818 -53.396045 
L 329.621157 -55.896225 
L 332.900496 -59.09264 
L 336.179835 -62.959653 
L 339.459174 -67.459986 
L 342.738512 -72.547912 
L 346.017851 -78.172919 
L 349.29719 -84.283381 
L 352.576529 -90.829672 
L 355.855868 -97.766108 
L 359.135207 -105.051169 
L 362.414545 -112.645498 
L 365.693884 -120.507391 
L 368.973223 -128.585673 
L 372.252562 -136.81022 
L 375.531901 -145.080554 
L 378.81124 -153.253383 
L 382.090579 -161.130066 
L 385.369917 -168.445236 
L 388.649256 -174.857873 
L 391.928595 -179.946067 
L 395.207934 -183.206557 
L 398.487273 -184.059854 
L 398.487273 -292.032 
L 398.487273 -292.032 
L 395.207934 -283.217876 
L 391.928595 -275.487445 
L 388.649256 -268.37077 
L 385.369917 -261.492424 
L 382.090579 -254.575022 
L 378.81124 -247.436768 
L 375.531901 -239.983878 
L 372.252562 -232.198991 
L 368.973223 -224.12689 
L 365.693884 -215.858858 
L 362.414545 -207.516938 
L 359.135207 -199.239244 
L 355.855868 -191.167127 
L 352.576529 -183.434852 
L 349.29719 -176.161984 
L 346.017851 -169.448561 
L 342.738512 -163.372751 
L 339.459174 -157.990632 
L 336.179835 -153.337524 
L 332.900496 -149.430357 
L 329.621157 -146.270511 
L 326.341818 -143.846713 
L 323.062479 -142.13762 
L 319.78314 -141.113909 
L 316.503802 -140.739781 
L 313.224463 -140.973927 
L 309.945124 -141.770032 
L 306.665785 -143.07704 
L 303.386446 -144.839312 
L 300.107107 -146.996877 
L 296.827769 -149.485887 
L 293.54843 -152.239365 
L 290.269091 -155.188287 
L 286.989752 -158.262916 
L 283.710413 -161.394393 
L 280.431074 -164.51639 
L 277.151736 -167.566813 
L 273.872397 -170.489314 
L 270.593058 -173.234639 
L 267.313719 -175.761652 
L 264.03438 -178.038002 
L 260.755041 -180.040452 
L 257.475702 -181.754821 
L 254.196364 -183.175628 
L 250.917025 -184.305421 
L 247.637686 -185.153921 
L 244.358347 -185.736975 
L 241.079008 -186.075425 
L 237.799669 -186.193916 
L 234.520331 -186.119729 
L 231.240992 -185.881654 
L 227.961653 -185.508956 
L 224.682314 -185.03047 
L 221.402975 -184.473829 
L 218.123636 -183.864845 
L 214.844298 -183.227054 
L 211.564959 -182.581398 
L 208.28562 -181.946031 
L 205.006281 -181.336213 
L 201.726942 -180.764286 
L 198.447603 -180.239644 
L 195.168264 -179.768731 
L 191.888926 -179.355015 
L 188.609587 -178.998931 
L 185.330248 -178.697862 
L 182.050909 -178.446147 
L 178.77157 -178.235207 
L 175.492231 -178.053832 
L 172.212893 -177.888737 
L 168.933554 -177.72537 
L 165.654215 -177.549036 
L 162.374876 -177.346289 
L 159.095537 -177.10653 
L 155.816198 -176.823627 
L 152.53686 -176.497455 
L 149.257521 -176.135062 
L 145.978182 -175.751305 
L 142.698843 -175.368727 
L 139.419504 -175.016564 
L 136.140165 -174.728798 
L 132.860826 -174.541396 
L 129.581488 -174.488889 
L 126.302149 -174.600684 
L 123.02281 -174.897549 
L 119.743471 -175.388882 
L 116.464132 -176.071276 
L 113.184793 -176.929047 
L 109.905455 -177.937106 
L 106.626116 -179.066496 
L 103.346777 -180.292642 
L 100.067438 -181.606076 
L 96.788099 -183.025118 
L 93.50876 -184.609658 
L 90.229421 -186.475037 
L 86.950083 -188.804698 
L 83.670744 -191.860378 
L 80.391405 -195.988511 
L 77.112066 -201.62175 
L 73.832727 -209.274791 
z
" id="m4692bdba81" style="stroke:#ffa500;stroke-opacity:0.2;"/>
    </defs>
    <g clip-path="url(#pf5d83a570d)">
     <use style="fill:#ffa500;fill-opacity:0.2;stroke:#ffa500;stroke-opacity:0.2;" x="0" xlink:href="#m4692bdba81" y="345.6"/>
    </g>
   </g>
   <g id="PathCollection_1">
    <defs>
     <path d="M 0 3 
C 0.795609 3 1.55874 2.683901 2.12132 2.12132 
C 2.683901 1.55874 3 0.795609 3 0 
C 3 -0.795609 2.683901 -1.55874 2.12132 -2.12132 
C 1.55874 -2.683901 0.795609 -3 0 -3 
C -0.795609 -3 -1.55874 -2.683901 -2.12132 -2.12132 
C -2.683901 -1.55874 -3 -0.795609 -3 0 
C -3 0.795609 -2.683901 1.55874 -2.12132 2.12132 
C -1.55874 2.683901 -0.795609 3 0 3 
z
" id="m35738c0c71" style="stroke:#0000ff;"/>
    </defs>
    <g clip-path="url(#pf5d83a570d)">
     <use style="fill:#0000ff;stroke:#0000ff;" x="73.832727" xlink:href="#m35738c0c71" y="264.991377"/>
     <use style="fill:#0000ff;stroke:#0000ff;" x="106.298182" xlink:href="#m35738c0c71" y="270.465221"/>
     <use style="fill:#0000ff;stroke:#0000ff;" x="138.763636" xlink:href="#m35738c0c71" y="263.908618"/>
     <use style="fill:#0000ff;stroke:#0000ff;" x="171.229091" xlink:href="#m35738c0c71" y="255.377734"/>
     <use style="fill:#0000ff;stroke:#0000ff;" x="203.694545" xlink:href="#m35738c0c71" y="248.452139"/>
     <use style="fill:#0000ff;stroke:#0000ff;" x="236.16" xlink:href="#m35738c0c71" y="239.367397"/>
     <use style="fill:#0000ff;stroke:#0000ff;" x="268.625455" xlink:href="#m35738c0c71" y="236.307427"/>
     <use style="fill:#0000ff;stroke:#0000ff;" x="301.090909" xlink:href="#m35738c0c71" y="244.292697"/>
     <use style="fill:#0000ff;stroke:#0000ff;" x="333.556364" xlink:href="#m35738c0c71" y="238.907158"/>
     <use style="fill:#0000ff;stroke:#0000ff;" x="366.021818" xlink:href="#m35738c0c71" y="197.747086"/>
     <use style="fill:#0000ff;stroke:#0000ff;" x="398.487273" xlink:href="#m35738c0c71" y="158.353233"/>
    </g>
   </g>
   <g id="PathCollection_2">
    <defs>
     <path d="M 0 3 
C 0.795609 3 1.55874 2.683901 2.12132 2.12132 
C 2.683901 1.55874 3 0.795609 3 0 
C 3 -0.795609 2.683901 -1.55874 2.12132 -2.12132 
C 1.55874 -2.683901 0.795609 -3 0 -3 
C -0.795609 -3 -1.55874 -2.683901 -2.12132 -2.12132 
C -2.683901 -1.55874 -3 -0.795609 -3 0 
C -3 0.795609 -2.683901 1.55874 -2.12132 2.12132 
C -1.55874 2.683901 -0.795609 3 0 3 
z
" id="m43d612d365" style="stroke:#ffa500;"/>
    </defs>
    <g clip-path="url(#pf5d83a570d)">
     <use style="fill:#ffa500;stroke:#ffa500;" x="73.832727" xlink:href="#m43d612d365" y="191.107195"/>
     <use style="fill:#ffa500;stroke:#ffa500;" x="203.694545" xlink:href="#m43d612d365" y="210.043328"/>
     <use style="fill:#ffa500;stroke:#ffa500;" x="268.625455" xlink:href="#m43d612d365" y="211.761206"/>
     <use style="fill:#ffa500;stroke:#ffa500;" x="333.556364" xlink:href="#m43d612d365" y="242.967972"/>
     <use style="fill:#ffa500;stroke:#ffa500;" x="398.487273" xlink:href="#m43d612d365" y="107.867427"/>
    </g>
   </g>
   <g id="matplotlib.axis_1">
    <g id="xtick_1">
     <g id="line2d_1">
      <path clip-path="url(#pf5d83a570d)" d="M 73.832727 307.584 
L 73.832727 41.472 
" style="fill:none;stroke:#b0b0b0;stroke-linecap:square;stroke-width:0.8;"/>
     </g>
     <g id="line2d_2">
      <defs>
       <path d="M 0 0 
L 0 3.5 
" id="m1a612a5ebb" style="stroke:#000000;stroke-width:0.8;"/>
      </defs>
      <g>
       <use style="stroke:#000000;stroke-width:0.8;" x="73.832727" xlink:href="#m1a612a5ebb" y="307.584"/>
      </g>
     </g>
     <g id="text_1">
      <!-- 0.0 -->
      <g transform="translate(65.881165 322.182437)scale(0.1 -0.1)">
       <defs>
        <path d="M 31.78125 66.40625 
Q 24.171875 66.40625 20.328125 58.90625 
Q 16.5 51.421875 16.5 36.375 
Q 16.5 21.390625 20.328125 13.890625 
Q 24.171875 6.390625 31.78125 6.390625 
Q 39.453125 6.390625 43.28125 13.890625 
Q 47.125 21.390625 47.125 36.375 
Q 47.125 51.421875 43.28125 58.90625 
Q 39.453125 66.40625 31.78125 66.40625 
z
M 31.78125 74.21875 
Q 44.046875 74.21875 50.515625 64.515625 
Q 56.984375 54.828125 56.984375 36.375 
Q 56.984375 17.96875 50.515625 8.265625 
Q 44.046875 -1.421875 31.78125 -1.421875 
Q 19.53125 -1.421875 13.0625 8.265625 
Q 6.59375 17.96875 6.59375 36.375 
Q 6.59375 54.828125 13.0625 64.515625 
Q 19.53125 74.21875 31.78125 74.21875 
z
" id="DejaVuSans-48"/>
        <path d="M 10.6875 12.40625 
L 21 12.40625 
L 21 0 
L 10.6875 0 
z
" id="DejaVuSans-46"/>
       </defs>
       <use xlink:href="#DejaVuSans-48"/>
       <use x="63.623047" xlink:href="#DejaVuSans-46"/>
       <use x="95.410156" xlink:href="#DejaVuSans-48"/>
      </g>
     </g>
    </g>
    <g id="xtick_2">
     <g id="line2d_3">
      <path clip-path="url(#pf5d83a570d)" d="M 138.763636 307.584 
L 138.763636 41.472 
" style="fill:none;stroke:#b0b0b0;stroke-linecap:square;stroke-width:0.8;"/>
     </g>
     <g id="line2d_4">
      <g>
       <use style="stroke:#000000;stroke-width:0.8;" x="138.763636" xlink:href="#m1a612a5ebb" y="307.584"/>
      </g>
     </g>
     <g id="text_2">
      <!-- 0.2 -->
      <g transform="translate(130.812074 322.182437)scale(0.1 -0.1)">
       <defs>
        <path d="M 19.1875 8.296875 
L 53.609375 8.296875 
L 53.609375 0 
L 7.328125 0 
L 7.328125 8.296875 
Q 12.9375 14.109375 22.625 23.890625 
Q 32.328125 33.6875 34.8125 36.53125 
Q 39.546875 41.84375 41.421875 45.53125 
Q 43.3125 49.21875 43.3125 52.78125 
Q 43.3125 58.59375 39.234375 62.25 
Q 35.15625 65.921875 28.609375 65.921875 
Q 23.96875 65.921875 18.8125 64.3125 
Q 13.671875 62.703125 7.8125 59.421875 
L 7.8125 69.390625 
Q 13.765625 71.78125 18.9375 73 
Q 24.125 74.21875 28.421875 74.21875 
Q 39.75 74.21875 46.484375 68.546875 
Q 53.21875 62.890625 53.21875 53.421875 
Q 53.21875 48.921875 51.53125 44.890625 
Q 49.859375 40.875 45.40625 35.40625 
Q 44.1875 33.984375 37.640625 27.21875 
Q 31.109375 20.453125 19.1875 8.296875 
z
" id="DejaVuSans-50"/>
       </defs>
       <use xlink:href="#DejaVuSans-48"/>
       <use x="63.623047" xlink:href="#DejaVuSans-46"/>
       <use x="95.410156" xlink:href="#DejaVuSans-50"/>
      </g>
     </g>
    </g>
    <g id="xtick_3">
     <g id="line2d_5">
      <path clip-path="url(#pf5d83a570d)" d="M 203.694545 307.584 
L 203.694545 41.472 
" style="fill:none;stroke:#b0b0b0;stroke-linecap:square;stroke-width:0.8;"/>
     </g>
     <g id="line2d_6">
      <g>
       <use style="stroke:#000000;stroke-width:0.8;" x="203.694545" xlink:href="#m1a612a5ebb" y="307.584"/>
      </g>
     </g>
     <g id="text_3">
      <!-- 0.4 -->
      <g transform="translate(195.742983 322.182437)scale(0.1 -0.1)">
       <defs>
        <path d="M 37.796875 64.3125 
L 12.890625 25.390625 
L 37.796875 25.390625 
z
M 35.203125 72.90625 
L 47.609375 72.90625 
L 47.609375 25.390625 
L 58.015625 25.390625 
L 58.015625 17.1875 
L 47.609375 17.1875 
L 47.609375 0 
L 37.796875 0 
L 37.796875 17.1875 
L 4.890625 17.1875 
L 4.890625 26.703125 
z
" id="DejaVuSans-52"/>
       </defs>
       <use xlink:href="#DejaVuSans-48"/>
       <use x="63.623047" xlink:href="#DejaVuSans-46"/>
       <use x="95.410156" xlink:href="#DejaVuSans-52"/>
      </g>
     </g>
    </g>
    <g id="xtick_4">
     <g id="line2d_7">
      <path clip-path="url(#pf5d83a570d)" d="M 268.625455 307.584 
L 268.625455 41.472 
" style="fill:none;stroke:#b0b0b0;stroke-linecap:square;stroke-width:0.8;"/>
     </g>
     <g id="line2d_8">
      <g>
       <use style="stroke:#000000;stroke-width:0.8;" x="268.625455" xlink:href="#m1a612a5ebb" y="307.584"/>
      </g>
     </g>
     <g id="text_4">
      <!-- 0.6 -->
      <g transform="translate(260.673892 322.182437)scale(0.1 -0.1)">
       <defs>
        <path d="M 33.015625 40.375 
Q 26.375 40.375 22.484375 35.828125 
Q 18.609375 31.296875 18.609375 23.390625 
Q 18.609375 15.53125 22.484375 10.953125 
Q 26.375 6.390625 33.015625 6.390625 
Q 39.65625 6.390625 43.53125 10.953125 
Q 47.40625 15.53125 47.40625 23.390625 
Q 47.40625 31.296875 43.53125 35.828125 
Q 39.65625 40.375 33.015625 40.375 
z
M 52.59375 71.296875 
L 52.59375 62.3125 
Q 48.875 64.0625 45.09375 64.984375 
Q 41.3125 65.921875 37.59375 65.921875 
Q 27.828125 65.921875 22.671875 59.328125 
Q 17.53125 52.734375 16.796875 39.40625 
Q 19.671875 43.65625 24.015625 45.921875 
Q 28.375 48.1875 33.59375 48.1875 
Q 44.578125 48.1875 50.953125 41.515625 
Q 57.328125 34.859375 57.328125 23.390625 
Q 57.328125 12.15625 50.6875 5.359375 
Q 44.046875 -1.421875 33.015625 -1.421875 
Q 20.359375 -1.421875 13.671875 8.265625 
Q 6.984375 17.96875 6.984375 36.375 
Q 6.984375 53.65625 15.1875 63.9375 
Q 23.390625 74.21875 37.203125 74.21875 
Q 40.921875 74.21875 44.703125 73.484375 
Q 48.484375 72.75 52.59375 71.296875 
z
" id="DejaVuSans-54"/>
       </defs>
       <use xlink:href="#DejaVuSans-48"/>
       <use x="63.623047" xlink:href="#DejaVuSans-46"/>
       <use x="95.410156" xlink:href="#DejaVuSans-54"/>
      </g>
     </g>
    </g>
    <g id="xtick_5">
     <g id="line2d_9">
      <path clip-path="url(#pf5d83a570d)" d="M 333.556364 307.584 
L 333.556364 41.472 
" style="fill:none;stroke:#b0b0b0;stroke-linecap:square;stroke-width:0.8;"/>
     </g>
     <g id="line2d_10">
      <g>
       <use style="stroke:#000000;stroke-width:0.8;" x="333.556364" xlink:href="#m1a612a5ebb" y="307.584"/>
      </g>
     </g>
     <g id="text_5">
      <!-- 0.8 -->
      <g transform="translate(325.604801 322.182437)scale(0.1 -0.1)">
       <defs>
        <path d="M 31.78125 34.625 
Q 24.75 34.625 20.71875 30.859375 
Q 16.703125 27.09375 16.703125 20.515625 
Q 16.703125 13.921875 20.71875 10.15625 
Q 24.75 6.390625 31.78125 6.390625 
Q 38.8125 6.390625 42.859375 10.171875 
Q 46.921875 13.96875 46.921875 20.515625 
Q 46.921875 27.09375 42.890625 30.859375 
Q 38.875 34.625 31.78125 34.625 
z
M 21.921875 38.8125 
Q 15.578125 40.375 12.03125 44.71875 
Q 8.5 49.078125 8.5 55.328125 
Q 8.5 64.0625 14.71875 69.140625 
Q 20.953125 74.21875 31.78125 74.21875 
Q 42.671875 74.21875 48.875 69.140625 
Q 55.078125 64.0625 55.078125 55.328125 
Q 55.078125 49.078125 51.53125 44.71875 
Q 48 40.375 41.703125 38.8125 
Q 48.828125 37.15625 52.796875 32.3125 
Q 56.78125 27.484375 56.78125 20.515625 
Q 56.78125 9.90625 50.3125 4.234375 
Q 43.84375 -1.421875 31.78125 -1.421875 
Q 19.734375 -1.421875 13.25 4.234375 
Q 6.78125 9.90625 6.78125 20.515625 
Q 6.78125 27.484375 10.78125 32.3125 
Q 14.796875 37.15625 21.921875 38.8125 
z
M 18.3125 54.390625 
Q 18.3125 48.734375 21.84375 45.5625 
Q 25.390625 42.390625 31.78125 42.390625 
Q 38.140625 42.390625 41.71875 45.5625 
Q 45.3125 48.734375 45.3125 54.390625 
Q 45.3125 60.0625 41.71875 63.234375 
Q 38.140625 66.40625 31.78125 66.40625 
Q 25.390625 66.40625 21.84375 63.234375 
Q 18.3125 60.0625 18.3125 54.390625 
z
" id="DejaVuSans-56"/>
       </defs>
       <use xlink:href="#DejaVuSans-48"/>
       <use x="63.623047" xlink:href="#DejaVuSans-46"/>
       <use x="95.410156" xlink:href="#DejaVuSans-56"/>
      </g>
     </g>
    </g>
    <g id="xtick_6">
     <g id="line2d_11">
      <path clip-path="url(#pf5d83a570d)" d="M 398.487273 307.584 
L 398.487273 41.472 
" style="fill:none;stroke:#b0b0b0;stroke-linecap:square;stroke-width:0.8;"/>
     </g>
     <g id="line2d_12">
      <g>
       <use style="stroke:#000000;stroke-width:0.8;" x="398.487273" xlink:href="#m1a612a5ebb" y="307.584"/>
      </g>
     </g>
     <g id="text_6">
      <!-- 1.0 -->
      <g transform="translate(390.53571 322.182437)scale(0.1 -0.1)">
       <defs>
        <path d="M 12.40625 8.296875 
L 28.515625 8.296875 
L 28.515625 63.921875 
L 10.984375 60.40625 
L 10.984375 69.390625 
L 28.421875 72.90625 
L 38.28125 72.90625 
L 38.28125 8.296875 
L 54.390625 8.296875 
L 54.390625 0 
L 12.40625 0 
z
" id="DejaVuSans-49"/>
       </defs>
       <use xlink:href="#DejaVuSans-49"/>
       <use x="63.623047" xlink:href="#DejaVuSans-46"/>
       <use x="95.410156" xlink:href="#DejaVuSans-48"/>
      </g>
     </g>
    </g>
   </g>
   <g id="matplotlib.axis_2">
    <g id="ytick_1">
     <g id="line2d_13">
      <path clip-path="url(#pf5d83a570d)" d="M 57.6 276.458029 
L 414.72 276.458029 
" style="fill:none;stroke:#b0b0b0;stroke-linecap:square;stroke-width:0.8;"/>
     </g>
     <g id="line2d_14">
      <defs>
       <path d="M 0 0 
L -3.5 0 
" id="mcc4af9fc82" style="stroke:#000000;stroke-width:0.8;"/>
      </defs>
      <g>
       <use style="stroke:#000000;stroke-width:0.8;" x="57.6" xlink:href="#mcc4af9fc82" y="276.458029"/>
      </g>
     </g>
     <g id="text_7">
      <!-- −10 -->
      <g transform="translate(29.495313 280.257248)scale(0.1 -0.1)">
       <defs>
        <path d="M 10.59375 35.5 
L 73.1875 35.5 
L 73.1875 27.203125 
L 10.59375 27.203125 
z
" id="DejaVuSans-8722"/>
       </defs>
       <use xlink:href="#DejaVuSans-8722"/>
       <use x="83.789062" xlink:href="#DejaVuSans-49"/>
       <use x="147.412109" xlink:href="#DejaVuSans-48"/>
      </g>
     </g>
    </g>
    <g id="ytick_2">
     <g id="line2d_15">
      <path clip-path="url(#pf5d83a570d)" d="M 57.6 243.9489 
L 414.72 243.9489 
" style="fill:none;stroke:#b0b0b0;stroke-linecap:square;stroke-width:0.8;"/>
     </g>
     <g id="line2d_16">
      <g>
       <use style="stroke:#000000;stroke-width:0.8;" x="57.6" xlink:href="#mcc4af9fc82" y="243.9489"/>
      </g>
     </g>
     <g id="text_8">
      <!-- −5 -->
      <g transform="translate(35.857813 247.748119)scale(0.1 -0.1)">
       <defs>
        <path d="M 10.796875 72.90625 
L 49.515625 72.90625 
L 49.515625 64.59375 
L 19.828125 64.59375 
L 19.828125 46.734375 
Q 21.96875 47.46875 24.109375 47.828125 
Q 26.265625 48.1875 28.421875 48.1875 
Q 40.625 48.1875 47.75 41.5 
Q 54.890625 34.8125 54.890625 23.390625 
Q 54.890625 11.625 47.5625 5.09375 
Q 40.234375 -1.421875 26.90625 -1.421875 
Q 22.3125 -1.421875 17.546875 -0.640625 
Q 12.796875 0.140625 7.71875 1.703125 
L 7.71875 11.625 
Q 12.109375 9.234375 16.796875 8.0625 
Q 21.484375 6.890625 26.703125 6.890625 
Q 35.15625 6.890625 40.078125 11.328125 
Q 45.015625 15.765625 45.015625 23.390625 
Q 45.015625 31 40.078125 35.4375 
Q 35.15625 39.890625 26.703125 39.890625 
Q 22.75 39.890625 18.8125 39.015625 
Q 14.890625 38.140625 10.796875 36.28125 
z
" id="DejaVuSans-53"/>
       </defs>
       <use xlink:href="#DejaVuSans-8722"/>
       <use x="83.789062" xlink:href="#DejaVuSans-53"/>
      </g>
     </g>
    </g>
    <g id="ytick_3">
     <g id="line2d_17">
      <path clip-path="url(#pf5d83a570d)" d="M 57.6 211.43977 
L 414.72 211.43977 
" style="fill:none;stroke:#b0b0b0;stroke-linecap:square;stroke-width:0.8;"/>
     </g>
     <g id="line2d_18">
      <g>
       <use style="stroke:#000000;stroke-width:0.8;" x="57.6" xlink:href="#mcc4af9fc82" y="211.43977"/>
      </g>
     </g>
     <g id="text_9">
      <!-- 0 -->
      <g transform="translate(44.2375 215.238989)scale(0.1 -0.1)">
       <use xlink:href="#DejaVuSans-48"/>
      </g>
     </g>
    </g>
    <g id="ytick_4">
     <g id="line2d_19">
      <path clip-path="url(#pf5d83a570d)" d="M 57.6 178.930641 
L 414.72 178.930641 
" style="fill:none;stroke:#b0b0b0;stroke-linecap:square;stroke-width:0.8;"/>
     </g>
     <g id="line2d_20">
      <g>
       <use style="stroke:#000000;stroke-width:0.8;" x="57.6" xlink:href="#mcc4af9fc82" y="178.930641"/>
      </g>
     </g>
     <g id="text_10">
      <!-- 5 -->
      <g transform="translate(44.2375 182.72986)scale(0.1 -0.1)">
       <use xlink:href="#DejaVuSans-53"/>
      </g>
     </g>
    </g>
    <g id="ytick_5">
     <g id="line2d_21">
      <path clip-path="url(#pf5d83a570d)" d="M 57.6 146.421511 
L 414.72 146.421511 
" style="fill:none;stroke:#b0b0b0;stroke-linecap:square;stroke-width:0.8;"/>
     </g>
     <g id="line2d_22">
      <g>
       <use style="stroke:#000000;stroke-width:0.8;" x="57.6" xlink:href="#mcc4af9fc82" y="146.421511"/>
      </g>
     </g>
     <g id="text_11">
      <!-- 10 -->
      <g transform="translate(37.875 150.22073)scale(0.1 -0.1)">
       <use xlink:href="#DejaVuSans-49"/>
       <use x="63.623047" xlink:href="#DejaVuSans-48"/>
      </g>
     </g>
    </g>
    <g id="ytick_6">
     <g id="line2d_23">
      <path clip-path="url(#pf5d83a570d)" d="M 57.6 113.912382 
L 414.72 113.912382 
" style="fill:none;stroke:#b0b0b0;stroke-linecap:square;stroke-width:0.8;"/>
     </g>
     <g id="line2d_24">
      <g>
       <use style="stroke:#000000;stroke-width:0.8;" x="57.6" xlink:href="#mcc4af9fc82" y="113.912382"/>
      </g>
     </g>
     <g id="text_12">
      <!-- 15 -->
      <g transform="translate(37.875 117.711601)scale(0.1 -0.1)">
       <use xlink:href="#DejaVuSans-49"/>
       <use x="63.623047" xlink:href="#DejaVuSans-53"/>
      </g>
     </g>
    </g>
    <g id="ytick_7">
     <g id="line2d_25">
      <path clip-path="url(#pf5d83a570d)" d="M 57.6 81.403252 
L 414.72 81.403252 
" style="fill:none;stroke:#b0b0b0;stroke-linecap:square;stroke-width:0.8;"/>
     </g>
     <g id="line2d_26">
      <g>
       <use style="stroke:#000000;stroke-width:0.8;" x="57.6" xlink:href="#mcc4af9fc82" y="81.403252"/>
      </g>
     </g>
     <g id="text_13">
      <!-- 20 -->
      <g transform="translate(37.875 85.202471)scale(0.1 -0.1)">
       <use xlink:href="#DejaVuSans-50"/>
       <use x="63.623047" xlink:href="#DejaVuSans-48"/>
      </g>
     </g>
    </g>
    <g id="ytick_8">
     <g id="line2d_27">
      <path clip-path="url(#pf5d83a570d)" d="M 57.6 48.894123 
L 414.72 48.894123 
" style="fill:none;stroke:#b0b0b0;stroke-linecap:square;stroke-width:0.8;"/>
     </g>
     <g id="line2d_28">
      <g>
       <use style="stroke:#000000;stroke-width:0.8;" x="57.6" xlink:href="#mcc4af9fc82" y="48.894123"/>
      </g>
     </g>
     <g id="text_14">
      <!-- 25 -->
      <g transform="translate(37.875 52.693342)scale(0.1 -0.1)">
       <use xlink:href="#DejaVuSans-50"/>
       <use x="63.623047" xlink:href="#DejaVuSans-53"/>
      </g>
     </g>
    </g>
   </g>
   <g id="line2d_29">
    <path clip-path="url(#pf5d83a570d)" d="M 73.832727 264.878621 
L 77.112066 265.97592 
L 80.391405 266.941523 
L 83.670744 267.770621 
L 86.950083 268.460004 
L 90.229421 269.008129 
L 93.50876 269.415155 
L 96.788099 269.682938 
L 100.067438 269.814998 
L 103.346777 269.816445 
L 106.626116 269.693861 
L 109.905455 269.455163 
L 113.184793 269.109419 
L 116.464132 268.666645 
L 119.743471 268.137574 
L 123.02281 267.533408 
L 126.302149 266.865558 
L 129.581488 266.145381 
L 132.860826 265.383915 
L 136.140165 264.591627 
L 139.419504 263.778182 
L 142.698843 262.952227 
L 145.978182 262.121215 
L 149.257521 261.291264 
L 152.53686 260.467059 
L 155.816198 259.651798 
L 159.095537 258.847192 
L 162.374876 258.053513 
L 165.654215 257.269689 
L 168.933554 256.493456 
L 172.212893 255.721547 
L 175.492231 254.949922 
L 178.77157 254.174034 
L 182.050909 253.389118 
L 185.330248 252.590492 
L 188.609587 251.773874 
L 191.888926 250.935681 
L 195.168264 250.073323 
L 198.447603 249.185467 
L 201.726942 248.272262 
L 205.006281 247.335523 
L 208.28562 246.378851 
L 211.564959 245.407703 
L 214.844298 244.429385 
L 218.123636 243.45298 
L 221.402975 242.489199 
L 224.682314 241.550167 
L 227.961653 240.649138 
L 231.240992 239.800148 
L 234.520331 239.017615 
L 237.799669 238.315894 
L 241.079008 237.708805 
L 244.358347 237.20913 
L 247.637686 236.828122 
L 250.917025 236.575007 
L 254.196364 236.456529 
L 257.475702 236.476525 
L 260.755041 236.63556 
L 264.03438 236.930628 
L 267.313719 237.354947 
L 270.593058 237.897826 
L 273.872397 238.544648 
L 277.151736 239.276947 
L 280.431074 240.072596 
L 283.710413 240.906098 
L 286.989752 241.748979 
L 290.269091 242.57027 
L 293.54843 243.337086 
L 296.827769 244.015261 
L 300.107107 244.570052 
L 303.386446 244.966875 
L 306.665785 245.172072 
L 309.945124 245.153675 
L 313.224463 244.882154 
L 316.503802 244.331133 
L 319.78314 243.478052 
L 323.062479 242.304753 
L 326.341818 240.79799 
L 329.621157 238.949824 
L 332.900496 236.757924 
L 336.179835 234.225736 
L 339.459174 231.362538 
L 342.738512 228.183366 
L 346.017851 224.708817 
L 349.29719 220.964739 
L 352.576529 216.981801 
L 355.855868 212.794972 
L 359.135207 208.442912 
L 362.414545 203.967283 
L 365.693884 199.412018 
L 368.973223 194.822541 
L 372.252562 190.244969 
L 375.531901 185.72532 
L 378.81124 181.308731 
L 382.090579 177.038704 
L 385.369917 172.956416 
L 388.649256 169.100078 
L 391.928595 165.504372 
L 395.207934 162.199978 
L 398.487273 159.213184 
" style="fill:none;stroke:#0000ff;stroke-linecap:square;stroke-width:1.5;"/>
   </g>
   <g id="line2d_30">
    <path clip-path="url(#pf5d83a570d)" d="M 73.832727 252.442191 
L 77.112066 254.456432 
L 80.391405 255.936891 
L 83.670744 256.999633 
L 86.950083 257.742658 
L 90.229421 258.244967 
L 93.50876 258.566939 
L 96.788099 258.751798 
L 100.067438 258.827944 
L 103.346777 258.811832 
L 106.626116 258.711104 
L 109.905455 258.527696 
L 113.184793 258.260663 
L 116.464132 257.908544 
L 119.743471 257.471139 
L 123.02281 256.950662 
L 126.302149 256.352262 
L 129.581488 255.684009 
L 132.860826 254.956428 
L 136.140165 254.181738 
L 139.419504 253.372918 
L 142.698843 252.54275 
L 145.978182 251.70294 
L 149.257521 250.863404 
L 152.53686 250.031769 
L 155.816198 249.213124 
L 159.095537 248.40998 
L 162.374876 247.62245 
L 165.654215 246.848566 
L 168.933554 246.084706 
L 172.212893 245.326076 
L 175.492231 244.567189 
L 178.77157 243.802328 
L 182.050909 243.025953 
L 185.330248 242.23305 
L 188.609587 241.419414 
L 191.888926 240.581878 
L 195.168264 239.718492 
L 198.447603 238.828664 
L 201.726942 237.913269 
L 205.006281 236.974736 
L 208.28562 236.017102 
L 211.564959 235.046047 
L 214.844298 234.068887 
L 218.123636 233.094527 
L 221.402975 232.13336 
L 224.682314 231.197116 
L 227.961653 230.298632 
L 231.240992 229.451573 
L 234.520331 228.67008 
L 237.799669 227.96836 
L 241.079008 227.36023 
L 244.358347 226.858624 
L 247.637686 226.47507 
L 250.917025 226.219168 
L 254.196364 226.098076 
L 257.475702 226.116027 
L 260.755041 226.273904 
L 264.03438 226.568879 
L 267.313719 226.99416 
L 270.593058 227.538833 
L 273.872397 228.187845 
L 277.151736 228.922116 
L 280.431074 229.718794 
L 283.710413 230.551639 
L 286.989752 231.391537 
L 290.269091 232.207106 
L 293.54843 232.96538 
L 296.827769 233.632528 
L 300.107107 234.174581 
L 303.386446 234.558125 
L 306.665785 234.75095 
L 309.945124 234.722613 
L 313.224463 234.444942 
L 316.503802 233.892459 
L 319.78314 233.042762 
L 323.062479 231.876893 
L 326.341818 230.379716 
L 329.621157 228.540348 
L 332.900496 226.35266 
L 336.179835 223.815847 
L 339.459174 220.935052 
L 342.738512 217.721994 
L 346.017851 214.195521 
L 349.29719 210.381993 
L 352.576529 206.315366 
L 355.855868 202.036871 
L 359.135207 197.594156 
L 362.414545 193.039816 
L 365.693884 188.429261 
L 368.973223 183.817928 
L 372.252562 179.257915 
L 375.531901 174.794181 
L 378.81124 170.460515 
L 382.090579 166.275542 
L 385.369917 162.23907 
L 388.649256 158.32909 
L 391.928595 154.49974 
L 395.207934 150.68049 
L 398.487273 146.776754 
" style="fill:none;stroke:#000000;stroke-linecap:square;stroke-width:0.5;"/>
   </g>
   <g id="line2d_31">
    <path clip-path="url(#pf5d83a570d)" d="M 73.832727 277.315051 
L 77.112066 277.495407 
L 80.391405 277.946154 
L 83.670744 278.541608 
L 86.950083 279.17735 
L 90.229421 279.771291 
L 93.50876 280.26337 
L 96.788099 280.614077 
L 100.067438 280.802053 
L 103.346777 280.821058 
L 106.626116 280.676618 
L 109.905455 280.38263 
L 113.184793 279.958175 
L 116.464132 279.424746 
L 119.743471 278.804009 
L 123.02281 278.116154 
L 126.302149 277.378855 
L 129.581488 276.606753 
L 132.860826 275.811401 
L 136.140165 275.001517 
L 139.419504 274.183446 
L 142.698843 273.361703 
L 145.978182 272.539489 
L 149.257521 271.719124 
L 152.53686 270.902348 
L 155.816198 270.090473 
L 159.095537 269.284405 
L 162.374876 268.484575 
L 165.654215 267.690811 
L 168.933554 266.902205 
L 172.212893 266.117018 
L 175.492231 265.332655 
L 178.77157 264.545741 
L 182.050909 263.752282 
L 185.330248 262.947934 
L 188.609587 262.128333 
L 191.888926 261.289483 
L 195.168264 260.428153 
L 198.447603 259.54227 
L 201.726942 258.631256 
L 205.006281 257.69631 
L 208.28562 256.7406 
L 211.564959 255.769359 
L 214.844298 254.789884 
L 218.123636 253.811434 
L 221.402975 252.845038 
L 224.682314 251.903219 
L 227.961653 250.999645 
L 231.240992 250.148723 
L 234.520331 249.36515 
L 237.799669 248.663429 
L 241.079008 248.05738 
L 244.358347 247.559637 
L 247.637686 247.181173 
L 250.917025 246.930846 
L 254.196364 246.814983 
L 257.475702 246.837024 
L 260.755041 246.997216 
L 264.03438 247.292377 
L 267.313719 247.715734 
L 270.593058 248.256819 
L 273.872397 248.901451 
L 277.151736 249.631777 
L 280.431074 250.426398 
L 283.710413 251.260558 
L 286.989752 252.106421 
L 290.269091 252.933435 
L 293.54843 253.708793 
L 296.827769 254.397995 
L 300.107107 254.965523 
L 303.386446 255.375624 
L 306.665785 255.593195 
L 309.945124 255.584737 
L 313.224463 255.319366 
L 316.503802 254.769808 
L 319.78314 253.913341 
L 323.062479 252.732614 
L 326.341818 251.216264 
L 329.621157 249.359301 
L 332.900496 247.163189 
L 336.179835 244.635625 
L 339.459174 241.790024 
L 342.738512 238.644738 
L 346.017851 235.222114 
L 349.29719 231.547486 
L 352.576529 227.648236 
L 355.855868 223.553074 
L 359.135207 219.291667 
L 362.414545 214.89475 
L 365.693884 210.394776 
L 368.973223 205.827154 
L 372.252562 201.232023 
L 375.531901 196.65646 
L 378.81124 192.156946 
L 382.090579 187.801866 
L 385.369917 183.673762 
L 388.649256 179.871065 
L 391.928595 176.509003 
L 395.207934 173.719465 
L 398.487273 171.649615 
" style="fill:none;stroke:#000000;stroke-linecap:square;stroke-width:0.5;"/>
   </g>
   <g id="line2d_32">
    <path clip-path="url(#pf5d83a570d)" d="M 73.832727 190.311282 
L 77.112066 193.98391 
L 80.391405 197.382179 
L 83.670744 200.49607 
L 86.950083 203.318896 
L 90.229421 205.847441 
L 93.50876 208.082035 
L 96.788099 210.026544 
L 100.067438 211.688309 
L 103.346777 213.077966 
L 106.626116 214.209238 
L 109.905455 215.098614 
L 113.184793 215.76499 
L 116.464132 216.229234 
L 119.743471 216.513708 
L 123.02281 216.641752 
L 126.302149 216.637137 
L 129.581488 216.523531 
L 132.860826 216.323927 
L 136.140165 216.060138 
L 139.419504 215.752294 
L 142.698843 215.418416 
L 145.978182 215.074029 
L 149.257521 214.731885 
L 152.53686 214.401742 
L 155.816198 214.090263 
L 159.095537 213.801013 
L 162.374876 213.534557 
L 165.654215 213.288663 
L 168.933554 213.058617 
L 172.212893 212.837608 
L 175.492231 212.61722 
L 178.77157 212.387978 
L 182.050909 212.139958 
L 185.330248 211.863402 
L 188.609587 211.549386 
L 191.888926 211.190449 
L 195.168264 210.781196 
L 198.447603 210.318845 
L 201.726942 209.803711 
L 205.006281 209.239571 
L 208.28562 208.633929 
L 211.564959 207.998158 
L 214.844298 207.347477 
L 218.123636 206.700809 
L 221.402975 206.080474 
L 224.682314 205.511734 
L 227.961653 205.0222 
L 231.240992 204.641117 
L 234.520331 204.398528 
L 237.799669 204.324341 
L 241.079008 204.447346 
L 244.358347 204.794181 
L 247.637686 205.388283 
L 250.917025 206.248882 
L 254.196364 207.390027 
L 257.475702 208.81971 
L 260.755041 210.539105 
L 264.03438 212.541958 
L 267.313719 214.814132 
L 270.593058 217.333358 
L 273.872397 220.069176 
L 277.151736 222.983115 
L 280.431074 226.029073 
L 283.710413 229.153923 
L 286.989752 232.298347 
L 290.269091 235.397818 
L 293.54843 238.38382 
L 296.827769 241.185164 
L 300.107107 243.729468 
L 303.386446 245.944675 
L 306.665785 247.760659 
L 309.945124 249.110814 
L 313.224463 249.933616 
L 316.503802 250.174109 
L 319.78314 249.785288 
L 323.062479 248.729327 
L 326.341818 246.978621 
L 329.621157 244.516632 
L 332.900496 241.338501 
L 336.179835 237.451411 
L 339.459174 232.874691 
L 342.738512 227.639668 
L 346.017851 221.78926 
L 349.29719 215.377317 
L 352.576529 208.467738 
L 355.855868 201.133383 
L 359.135207 193.454794 
L 362.414545 185.518782 
L 365.693884 177.416876 
L 368.973223 169.243719 
L 372.252562 161.095395 
L 375.531901 153.067784 
L 378.81124 145.254924 
L 382.090579 137.747456 
L 385.369917 130.63117 
L 388.649256 123.985678 
L 391.928595 117.883244 
L 395.207934 112.387783 
L 398.487273 107.554073 
" style="fill:none;stroke:#ffa500;stroke-linecap:square;stroke-width:1.5;"/>
   </g>
   <g id="line2d_33">
    <path clip-path="url(#pf5d83a570d)" d="M 73.832727 136.325209 
L 77.112066 143.97825 
L 80.391405 149.611489 
L 83.670744 153.739622 
L 86.950083 156.795302 
L 90.229421 159.124963 
L 93.50876 160.990342 
L 96.788099 162.574882 
L 100.067438 163.993924 
L 103.346777 165.307358 
L 106.626116 166.533504 
L 109.905455 167.662894 
L 113.184793 168.670953 
L 116.464132 169.528724 
L 119.743471 170.211118 
L 123.02281 170.702451 
L 126.302149 170.999316 
L 129.581488 171.111111 
L 132.860826 171.058604 
L 136.140165 170.871202 
L 139.419504 170.583436 
L 142.698843 170.231273 
L 145.978182 169.848695 
L 149.257521 169.464938 
L 152.53686 169.102545 
L 155.816198 168.776373 
L 159.095537 168.49347 
L 162.374876 168.253711 
L 165.654215 168.050964 
L 168.933554 167.87463 
L 172.212893 167.711263 
L 175.492231 167.546168 
L 178.77157 167.364793 
L 182.050909 167.153853 
L 185.330248 166.902138 
L 188.609587 166.601069 
L 191.888926 166.244985 
L 195.168264 165.831269 
L 198.447603 165.360356 
L 201.726942 164.835714 
L 205.006281 164.263787 
L 208.28562 163.653969 
L 211.564959 163.018602 
L 214.844298 162.372946 
L 218.123636 161.735155 
L 221.402975 161.126171 
L 224.682314 160.56953 
L 227.961653 160.091044 
L 231.240992 159.718346 
L 234.520331 159.480271 
L 237.799669 159.406084 
L 241.079008 159.524575 
L 244.358347 159.863025 
L 247.637686 160.446079 
L 250.917025 161.294579 
L 254.196364 162.424372 
L 257.475702 163.845179 
L 260.755041 165.559548 
L 264.03438 167.561998 
L 267.313719 169.838348 
L 270.593058 172.365361 
L 273.872397 175.110686 
L 277.151736 178.033187 
L 280.431074 181.08361 
L 283.710413 184.205607 
L 286.989752 187.337084 
L 290.269091 190.411713 
L 293.54843 193.360635 
L 296.827769 196.114113 
L 300.107107 198.603123 
L 303.386446 200.760688 
L 306.665785 202.52296 
L 309.945124 203.829968 
L 313.224463 204.626073 
L 316.503802 204.860219 
L 319.78314 204.486091 
L 323.062479 203.46238 
L 326.341818 201.753287 
L 329.621157 199.329489 
L 332.900496 196.169643 
L 336.179835 192.262476 
L 339.459174 187.609368 
L 342.738512 182.227249 
L 346.017851 176.151439 
L 349.29719 169.438016 
L 352.576529 162.165148 
L 355.855868 154.432873 
L 359.135207 146.360756 
L 362.414545 138.083062 
L 365.693884 129.741142 
L 368.973223 121.47311 
L 372.252562 113.401009 
L 375.531901 105.616122 
L 378.81124 98.163232 
L 382.090579 91.024978 
L 385.369917 84.107576 
L 388.649256 77.22923 
L 391.928595 70.112555 
L 395.207934 62.382124 
L 398.487273 53.568 
" style="fill:none;stroke:#000000;stroke-linecap:square;stroke-width:0.5;"/>
   </g>
   <g id="line2d_34">
    <path clip-path="url(#pf5d83a570d)" d="M 73.832727 244.297355 
L 77.112066 243.989569 
L 80.391405 245.152868 
L 83.670744 247.252519 
L 86.950083 249.84249 
L 90.229421 252.569919 
L 93.50876 255.173728 
L 96.788099 257.478206 
L 100.067438 259.382695 
L 103.346777 260.848574 
L 106.626116 261.884972 
L 109.905455 262.534334 
L 113.184793 262.859028 
L 116.464132 262.929744 
L 119.743471 262.816298 
L 123.02281 262.581054 
L 126.302149 262.274959 
L 129.581488 261.935951 
L 132.860826 261.58925 
L 136.140165 261.249073 
L 139.419504 260.921152 
L 142.698843 260.605559 
L 145.978182 260.299363 
L 149.257521 259.998831 
L 152.53686 259.700939 
L 155.816198 259.404154 
L 159.095537 259.108555 
L 162.374876 258.815404 
L 165.654215 258.526362 
L 168.933554 258.242604 
L 172.212893 257.963953 
L 175.492231 257.688271 
L 178.77157 257.411163 
L 182.050909 257.126063 
L 185.330248 256.824665 
L 188.609587 256.497702 
L 191.888926 256.135913 
L 195.168264 255.731124 
L 198.447603 255.277335 
L 201.726942 254.771708 
L 205.006281 254.215355 
L 208.28562 253.613889 
L 211.564959 252.977714 
L 214.844298 252.322008 
L 218.123636 251.666464 
L 221.402975 251.034777 
L 224.682314 250.453938 
L 227.961653 249.953356 
L 231.240992 249.563889 
L 234.520331 249.316785 
L 237.799669 249.242598 
L 241.079008 249.370117 
L 244.358347 249.725337 
L 247.637686 250.330487 
L 250.917025 251.203186 
L 254.196364 252.355681 
L 257.475702 253.794241 
L 260.755041 255.518661 
L 264.03438 257.521918 
L 267.313719 259.789917 
L 270.593058 262.301356 
L 273.872397 265.027665 
L 277.151736 267.933043 
L 280.431074 270.974537 
L 283.710413 274.10224 
L 286.989752 277.259611 
L 290.269091 280.383923 
L 293.54843 283.407005 
L 296.827769 286.256216 
L 300.107107 288.855813 
L 303.386446 291.128662 
L 306.665785 292.998358 
L 309.945124 294.391661 
L 313.224463 295.241158 
L 316.503802 295.488 
L 319.78314 295.084485 
L 323.062479 293.996274 
L 326.341818 292.203955 
L 329.621157 289.703775 
L 332.900496 286.50736 
L 336.179835 282.640347 
L 339.459174 278.140014 
L 342.738512 273.052088 
L 346.017851 267.427081 
L 349.29719 261.316619 
L 352.576529 254.770328 
L 355.855868 247.833892 
L 359.135207 240.548831 
L 362.414545 232.954502 
L 365.693884 225.092609 
L 368.973223 217.014327 
L 372.252562 208.78978 
L 375.531901 200.519446 
L 378.81124 192.346617 
L 382.090579 184.469934 
L 385.369917 177.154764 
L 388.649256 170.742127 
L 391.928595 165.653933 
L 395.207934 162.393443 
L 398.487273 161.540146 
" style="fill:none;stroke:#000000;stroke-linecap:square;stroke-width:0.5;"/>
   </g>
   <g id="line2d_35">
    <path clip-path="url(#pf5d83a570d)" d="M 73.832727 264.991377 
L 77.112066 265.956331 
L 80.391405 266.889138 
L 83.670744 267.759409 
L 86.950083 268.540822 
L 90.229421 269.211427 
L 93.50876 269.753824 
L 96.788099 270.155228 
L 100.067438 270.407421 
L 103.346777 270.506592 
L 106.626116 270.453091 
L 109.905455 270.251084 
L 113.184793 269.908139 
L 116.464132 269.434757 
L 119.743471 268.843842 
L 123.02281 268.150154 
L 126.302149 267.369743 
L 129.581488 266.519375 
L 132.860826 265.615982 
L 136.140165 264.676135 
L 139.419504 263.71556 
L 142.698843 262.748706 
L 145.978182 261.788375 
L 149.257521 260.845423 
L 152.53686 259.928535 
L 155.816198 259.044082 
L 159.095537 258.196062 
L 162.374876 257.386115 
L 165.654215 256.613619 
L 168.933554 255.875866 
L 172.212893 255.168294 
L 175.492231 254.484786 
L 178.77157 253.818014 
L 182.050909 253.15982 
L 185.330248 252.501626 
L 188.609587 251.834854 
L 191.888926 251.151346 
L 195.168264 250.443774 
L 198.447603 249.706021 
L 201.726942 248.933525 
L 205.006281 248.123577 
L 208.28562 247.275557 
L 211.564959 246.391105 
L 214.844298 245.474217 
L 218.123636 244.531264 
L 221.402975 243.570933 
L 224.682314 242.60408 
L 227.961653 241.643505 
L 231.240992 240.703658 
L 234.520331 239.800264 
L 237.799669 238.949896 
L 241.079008 238.169485 
L 244.358347 237.475798 
L 247.637686 236.884883 
L 250.917025 236.4115 
L 254.196364 236.068556 
L 257.475702 235.866549 
L 260.755041 235.813047 
L 264.03438 235.912219 
L 267.313719 236.164411 
L 270.593058 236.565815 
L 273.872397 237.108213 
L 277.151736 237.778818 
L 280.431074 238.560231 
L 283.710413 239.430501 
L 286.989752 240.363309 
L 290.269091 241.328263 
L 293.54843 242.291321 
L 296.827769 243.215318 
L 300.107107 244.060612 
L 303.386446 244.785813 
L 306.665785 245.348613 
L 309.945124 245.70668 
L 313.224463 245.81861 
L 316.503802 245.644915 
L 319.78314 245.149032 
L 323.062479 244.29832 
L 326.341818 243.065042 
L 329.621157 241.427288 
L 332.900496 239.369835 
L 336.179835 236.884911 
L 339.459174 233.972846 
L 342.738512 230.64259 
L 346.017851 226.912085 
L 349.29719 222.808468 
L 352.576529 218.368097 
L 355.855868 213.636399 
L 359.135207 208.667513 
L 362.414545 203.523753 
L 365.693884 198.274871 
L 368.973223 192.997137 
L 372.252562 187.772242 
L 375.531901 182.68604 
L 378.81124 177.82714 
L 382.090579 173.285377 
L 385.369917 169.150185 
L 388.649256 165.508888 
L 391.928595 162.444955 
L 395.207934 160.036238 
L 398.487273 158.353233 
" style="fill:none;stroke:#0000ff;stroke-dasharray:5.55,2.4;stroke-dashoffset:0;stroke-width:1.5;"/>
   </g>
   <g id="line2d_36">
    <path clip-path="url(#pf5d83a570d)" d="M 73.832727 191.107195 
L 77.112066 194.350604 
L 80.391405 197.529719 
L 83.670744 200.583761 
L 86.950083 203.460087 
L 90.229421 206.114797 
L 93.50876 208.513092 
L 96.788099 210.6294 
L 100.067438 212.447285 
L 103.346777 213.959128 
L 106.626116 215.165626 
L 109.905455 216.075111 
L 113.184793 216.702723 
L 116.464132 217.069458 
L 119.743471 217.201128 
L 123.02281 217.127254 
L 126.302149 216.879931 
L 129.581488 216.492695 
L 132.860826 215.999409 
L 136.140165 215.433215 
L 139.419504 214.825566 
L 142.698843 214.205358 
L 145.978182 213.598197 
L 149.257521 213.025792 
L 152.53686 212.505516 
L 155.816198 212.050111 
L 159.095537 211.667572 
L 162.374876 211.361177 
L 165.654215 211.129685 
L 168.933554 210.967679 
L 172.212893 210.866035 
L 175.492231 210.81252 
L 178.77157 210.792475 
L 182.050909 210.789588 
L 185.330248 210.7867 
L 188.609587 210.766656 
L 191.888926 210.71314 
L 195.168264 210.611496 
L 198.447603 210.44949 
L 201.726942 210.217999 
L 205.006281 209.911604 
L 208.28562 209.529064 
L 211.564959 209.07366 
L 214.844298 208.553383 
L 218.123636 207.980978 
L 221.402975 207.373817 
L 224.682314 206.75361 
L 227.961653 206.14596 
L 231.240992 205.579766 
L 234.520331 205.08648 
L 237.799669 204.699244 
L 241.079008 204.451922 
L 244.358347 204.378047 
L 247.637686 204.509717 
L 250.917025 204.876452 
L 254.196364 205.504064 
L 257.475702 206.413549 
L 260.755041 207.620047 
L 264.03438 209.13189 
L 267.313719 210.949775 
L 270.593058 213.066084 
L 273.872397 215.464378 
L 277.151736 218.119088 
L 280.431074 220.995415 
L 283.710413 224.049456 
L 286.989752 227.228572 
L 290.269091 230.47198 
L 293.54843 233.711595 
L 296.827769 236.873091 
L 300.107107 239.877179 
L 303.386446 242.641081 
L 306.665785 245.080181 
L 309.945124 247.109815 
L 313.224463 248.647175 
L 316.503802 249.613286 
L 319.78314 249.93502 
L 323.062479 249.547096 
L 326.341818 248.39404 
L 329.621157 246.432032 
L 332.900496 243.630627 
L 336.179835 239.974279 
L 339.459174 235.463648 
L 342.738512 230.116637 
L 346.017851 223.969128 
L 349.29719 217.075393 
L 352.576529 209.508153 
L 355.855868 201.358256 
L 359.135207 192.733984 
L 362.414545 183.759964 
L 365.693884 174.5757 
L 368.973223 165.333732 
L 372.252562 156.197443 
L 375.531901 147.338539 
L 378.81124 138.934239 
L 382.090579 131.164214 
L 385.369917 124.20733 
L 388.649256 118.238236 
L 391.928595 113.423869 
L 395.207934 109.919935 
L 398.487273 107.867427 
" style="fill:none;stroke:#ffa500;stroke-dasharray:5.55,2.4;stroke-dashoffset:0;stroke-width:1.5;"/>
   </g>
   <g id="patch_3">
    <path d="M 57.6 307.584 
L 57.6 41.472 
" style="fill:none;stroke:#000000;stroke-linecap:square;stroke-linejoin:miter;stroke-width:0.8;"/>
   </g>
   <g id="patch_4">
    <path d="M 414.72 307.584 
L 414.72 41.472 
" style="fill:none;stroke:#000000;stroke-linecap:square;stroke-linejoin:miter;stroke-width:0.8;"/>
   </g>
   <g id="patch_5">
    <path d="M 57.6 307.584 
L 414.72 307.584 
" style="fill:none;stroke:#000000;stroke-linecap:square;stroke-linejoin:miter;stroke-width:0.8;"/>
   </g>
   <g id="patch_6">
    <path d="M 57.6 41.472 
L 414.72 41.472 
" style="fill:none;stroke:#000000;stroke-linecap:square;stroke-linejoin:miter;stroke-width:0.8;"/>
   </g>
   <g id="legend_1">
    <g id="patch_7">
     <path d="M 64.6 108.1845 
L 239.15625 108.1845 
Q 241.15625 108.1845 241.15625 106.1845 
L 241.15625 48.472 
Q 241.15625 46.472 239.15625 46.472 
L 64.6 46.472 
Q 62.6 46.472 62.6 48.472 
L 62.6 106.1845 
Q 62.6 108.1845 64.6 108.1845 
z
" style="fill:#ffffff;opacity:0.8;stroke:#cccccc;stroke-linejoin:miter;"/>
    </g>
    <g id="line2d_37">
     <path d="M 66.6 54.570438 
L 86.6 54.570438 
" style="fill:none;stroke:#0000ff;stroke-linecap:square;stroke-width:1.5;"/>
    </g>
    <g id="line2d_38"/>
    <g id="text_15">
     <!-- MF cheap GPR (regular GPR) -->
     <g transform="translate(94.6 58.070438)scale(0.1 -0.1)">
      <defs>
       <path d="M 9.8125 72.90625 
L 24.515625 72.90625 
L 43.109375 23.296875 
L 61.8125 72.90625 
L 76.515625 72.90625 
L 76.515625 0 
L 66.890625 0 
L 66.890625 64.015625 
L 48.09375 14.015625 
L 38.1875 14.015625 
L 19.390625 64.015625 
L 19.390625 0 
L 9.8125 0 
z
" id="DejaVuSans-77"/>
       <path d="M 9.8125 72.90625 
L 51.703125 72.90625 
L 51.703125 64.59375 
L 19.671875 64.59375 
L 19.671875 43.109375 
L 48.578125 43.109375 
L 48.578125 34.8125 
L 19.671875 34.8125 
L 19.671875 0 
L 9.8125 0 
z
" id="DejaVuSans-70"/>
       <path id="DejaVuSans-32"/>
       <path d="M 48.78125 52.59375 
L 48.78125 44.1875 
Q 44.96875 46.296875 41.140625 47.34375 
Q 37.3125 48.390625 33.40625 48.390625 
Q 24.65625 48.390625 19.8125 42.84375 
Q 14.984375 37.3125 14.984375 27.296875 
Q 14.984375 17.28125 19.8125 11.734375 
Q 24.65625 6.203125 33.40625 6.203125 
Q 37.3125 6.203125 41.140625 7.25 
Q 44.96875 8.296875 48.78125 10.40625 
L 48.78125 2.09375 
Q 45.015625 0.34375 40.984375 -0.53125 
Q 36.96875 -1.421875 32.421875 -1.421875 
Q 20.0625 -1.421875 12.78125 6.34375 
Q 5.515625 14.109375 5.515625 27.296875 
Q 5.515625 40.671875 12.859375 48.328125 
Q 20.21875 56 33.015625 56 
Q 37.15625 56 41.109375 55.140625 
Q 45.0625 54.296875 48.78125 52.59375 
z
" id="DejaVuSans-99"/>
       <path d="M 54.890625 33.015625 
L 54.890625 0 
L 45.90625 0 
L 45.90625 32.71875 
Q 45.90625 40.484375 42.875 44.328125 
Q 39.84375 48.1875 33.796875 48.1875 
Q 26.515625 48.1875 22.3125 43.546875 
Q 18.109375 38.921875 18.109375 30.90625 
L 18.109375 0 
L 9.078125 0 
L 9.078125 75.984375 
L 18.109375 75.984375 
L 18.109375 46.1875 
Q 21.34375 51.125 25.703125 53.5625 
Q 30.078125 56 35.796875 56 
Q 45.21875 56 50.046875 50.171875 
Q 54.890625 44.34375 54.890625 33.015625 
z
" id="DejaVuSans-104"/>
       <path d="M 56.203125 29.59375 
L 56.203125 25.203125 
L 14.890625 25.203125 
Q 15.484375 15.921875 20.484375 11.0625 
Q 25.484375 6.203125 34.421875 6.203125 
Q 39.59375 6.203125 44.453125 7.46875 
Q 49.3125 8.734375 54.109375 11.28125 
L 54.109375 2.78125 
Q 49.265625 0.734375 44.1875 -0.34375 
Q 39.109375 -1.421875 33.890625 -1.421875 
Q 20.796875 -1.421875 13.15625 6.1875 
Q 5.515625 13.8125 5.515625 26.8125 
Q 5.515625 40.234375 12.765625 48.109375 
Q 20.015625 56 32.328125 56 
Q 43.359375 56 49.78125 48.890625 
Q 56.203125 41.796875 56.203125 29.59375 
z
M 47.21875 32.234375 
Q 47.125 39.59375 43.09375 43.984375 
Q 39.0625 48.390625 32.421875 48.390625 
Q 24.90625 48.390625 20.390625 44.140625 
Q 15.875 39.890625 15.1875 32.171875 
z
" id="DejaVuSans-101"/>
       <path d="M 34.28125 27.484375 
Q 23.390625 27.484375 19.1875 25 
Q 14.984375 22.515625 14.984375 16.5 
Q 14.984375 11.71875 18.140625 8.90625 
Q 21.296875 6.109375 26.703125 6.109375 
Q 34.1875 6.109375 38.703125 11.40625 
Q 43.21875 16.703125 43.21875 25.484375 
L 43.21875 27.484375 
z
M 52.203125 31.203125 
L 52.203125 0 
L 43.21875 0 
L 43.21875 8.296875 
Q 40.140625 3.328125 35.546875 0.953125 
Q 30.953125 -1.421875 24.3125 -1.421875 
Q 15.921875 -1.421875 10.953125 3.296875 
Q 6 8.015625 6 15.921875 
Q 6 25.140625 12.171875 29.828125 
Q 18.359375 34.515625 30.609375 34.515625 
L 43.21875 34.515625 
L 43.21875 35.40625 
Q 43.21875 41.609375 39.140625 45 
Q 35.0625 48.390625 27.6875 48.390625 
Q 23 48.390625 18.546875 47.265625 
Q 14.109375 46.140625 10.015625 43.890625 
L 10.015625 52.203125 
Q 14.9375 54.109375 19.578125 55.046875 
Q 24.21875 56 28.609375 56 
Q 40.484375 56 46.34375 49.84375 
Q 52.203125 43.703125 52.203125 31.203125 
z
" id="DejaVuSans-97"/>
       <path d="M 18.109375 8.203125 
L 18.109375 -20.796875 
L 9.078125 -20.796875 
L 9.078125 54.6875 
L 18.109375 54.6875 
L 18.109375 46.390625 
Q 20.953125 51.265625 25.265625 53.625 
Q 29.59375 56 35.59375 56 
Q 45.5625 56 51.78125 48.09375 
Q 58.015625 40.1875 58.015625 27.296875 
Q 58.015625 14.40625 51.78125 6.484375 
Q 45.5625 -1.421875 35.59375 -1.421875 
Q 29.59375 -1.421875 25.265625 0.953125 
Q 20.953125 3.328125 18.109375 8.203125 
z
M 48.6875 27.296875 
Q 48.6875 37.203125 44.609375 42.84375 
Q 40.53125 48.484375 33.40625 48.484375 
Q 26.265625 48.484375 22.1875 42.84375 
Q 18.109375 37.203125 18.109375 27.296875 
Q 18.109375 17.390625 22.1875 11.75 
Q 26.265625 6.109375 33.40625 6.109375 
Q 40.53125 6.109375 44.609375 11.75 
Q 48.6875 17.390625 48.6875 27.296875 
z
" id="DejaVuSans-112"/>
       <path d="M 59.515625 10.40625 
L 59.515625 29.984375 
L 43.40625 29.984375 
L 43.40625 38.09375 
L 69.28125 38.09375 
L 69.28125 6.78125 
Q 63.578125 2.734375 56.6875 0.65625 
Q 49.8125 -1.421875 42 -1.421875 
Q 24.90625 -1.421875 15.25 8.5625 
Q 5.609375 18.5625 5.609375 36.375 
Q 5.609375 54.25 15.25 64.234375 
Q 24.90625 74.21875 42 74.21875 
Q 49.125 74.21875 55.546875 72.453125 
Q 61.96875 70.703125 67.390625 67.28125 
L 67.390625 56.78125 
Q 61.921875 61.421875 55.765625 63.765625 
Q 49.609375 66.109375 42.828125 66.109375 
Q 29.4375 66.109375 22.71875 58.640625 
Q 16.015625 51.171875 16.015625 36.375 
Q 16.015625 21.625 22.71875 14.15625 
Q 29.4375 6.6875 42.828125 6.6875 
Q 48.046875 6.6875 52.140625 7.59375 
Q 56.25 8.5 59.515625 10.40625 
z
" id="DejaVuSans-71"/>
       <path d="M 19.671875 64.796875 
L 19.671875 37.40625 
L 32.078125 37.40625 
Q 38.96875 37.40625 42.71875 40.96875 
Q 46.484375 44.53125 46.484375 51.125 
Q 46.484375 57.671875 42.71875 61.234375 
Q 38.96875 64.796875 32.078125 64.796875 
z
M 9.8125 72.90625 
L 32.078125 72.90625 
Q 44.34375 72.90625 50.609375 67.359375 
Q 56.890625 61.8125 56.890625 51.125 
Q 56.890625 40.328125 50.609375 34.8125 
Q 44.34375 29.296875 32.078125 29.296875 
L 19.671875 29.296875 
L 19.671875 0 
L 9.8125 0 
z
" id="DejaVuSans-80"/>
       <path d="M 44.390625 34.1875 
Q 47.5625 33.109375 50.5625 29.59375 
Q 53.5625 26.078125 56.59375 19.921875 
L 66.609375 0 
L 56 0 
L 46.6875 18.703125 
Q 43.0625 26.03125 39.671875 28.421875 
Q 36.28125 30.8125 30.421875 30.8125 
L 19.671875 30.8125 
L 19.671875 0 
L 9.8125 0 
L 9.8125 72.90625 
L 32.078125 72.90625 
Q 44.578125 72.90625 50.734375 67.671875 
Q 56.890625 62.453125 56.890625 51.90625 
Q 56.890625 45.015625 53.6875 40.46875 
Q 50.484375 35.9375 44.390625 34.1875 
z
M 19.671875 64.796875 
L 19.671875 38.921875 
L 32.078125 38.921875 
Q 39.203125 38.921875 42.84375 42.21875 
Q 46.484375 45.515625 46.484375 51.90625 
Q 46.484375 58.296875 42.84375 61.546875 
Q 39.203125 64.796875 32.078125 64.796875 
z
" id="DejaVuSans-82"/>
       <path d="M 31 75.875 
Q 24.46875 64.65625 21.28125 53.65625 
Q 18.109375 42.671875 18.109375 31.390625 
Q 18.109375 20.125 21.3125 9.0625 
Q 24.515625 -2 31 -13.1875 
L 23.1875 -13.1875 
Q 15.875 -1.703125 12.234375 9.375 
Q 8.59375 20.453125 8.59375 31.390625 
Q 8.59375 42.28125 12.203125 53.3125 
Q 15.828125 64.359375 23.1875 75.875 
z
" id="DejaVuSans-40"/>
       <path d="M 41.109375 46.296875 
Q 39.59375 47.171875 37.8125 47.578125 
Q 36.03125 48 33.890625 48 
Q 26.265625 48 22.1875 43.046875 
Q 18.109375 38.09375 18.109375 28.8125 
L 18.109375 0 
L 9.078125 0 
L 9.078125 54.6875 
L 18.109375 54.6875 
L 18.109375 46.1875 
Q 20.953125 51.171875 25.484375 53.578125 
Q 30.03125 56 36.53125 56 
Q 37.453125 56 38.578125 55.875 
Q 39.703125 55.765625 41.0625 55.515625 
z
" id="DejaVuSans-114"/>
       <path d="M 45.40625 27.984375 
Q 45.40625 37.75 41.375 43.109375 
Q 37.359375 48.484375 30.078125 48.484375 
Q 22.859375 48.484375 18.828125 43.109375 
Q 14.796875 37.75 14.796875 27.984375 
Q 14.796875 18.265625 18.828125 12.890625 
Q 22.859375 7.515625 30.078125 7.515625 
Q 37.359375 7.515625 41.375 12.890625 
Q 45.40625 18.265625 45.40625 27.984375 
z
M 54.390625 6.78125 
Q 54.390625 -7.171875 48.1875 -13.984375 
Q 42 -20.796875 29.203125 -20.796875 
Q 24.46875 -20.796875 20.265625 -20.09375 
Q 16.0625 -19.390625 12.109375 -17.921875 
L 12.109375 -9.1875 
Q 16.0625 -11.328125 19.921875 -12.34375 
Q 23.78125 -13.375 27.78125 -13.375 
Q 36.625 -13.375 41.015625 -8.765625 
Q 45.40625 -4.15625 45.40625 5.171875 
L 45.40625 9.625 
Q 42.625 4.78125 38.28125 2.390625 
Q 33.9375 0 27.875 0 
Q 17.828125 0 11.671875 7.65625 
Q 5.515625 15.328125 5.515625 27.984375 
Q 5.515625 40.671875 11.671875 48.328125 
Q 17.828125 56 27.875 56 
Q 33.9375 56 38.28125 53.609375 
Q 42.625 51.21875 45.40625 46.390625 
L 45.40625 54.6875 
L 54.390625 54.6875 
z
" id="DejaVuSans-103"/>
       <path d="M 8.5 21.578125 
L 8.5 54.6875 
L 17.484375 54.6875 
L 17.484375 21.921875 
Q 17.484375 14.15625 20.5 10.265625 
Q 23.53125 6.390625 29.59375 6.390625 
Q 36.859375 6.390625 41.078125 11.03125 
Q 45.3125 15.671875 45.3125 23.6875 
L 45.3125 54.6875 
L 54.296875 54.6875 
L 54.296875 0 
L 45.3125 0 
L 45.3125 8.40625 
Q 42.046875 3.421875 37.71875 1 
Q 33.40625 -1.421875 27.6875 -1.421875 
Q 18.265625 -1.421875 13.375 4.4375 
Q 8.5 10.296875 8.5 21.578125 
z
M 31.109375 56 
z
" id="DejaVuSans-117"/>
       <path d="M 9.421875 75.984375 
L 18.40625 75.984375 
L 18.40625 0 
L 9.421875 0 
z
" id="DejaVuSans-108"/>
       <path d="M 8.015625 75.875 
L 15.828125 75.875 
Q 23.140625 64.359375 26.78125 53.3125 
Q 30.421875 42.28125 30.421875 31.390625 
Q 30.421875 20.453125 26.78125 9.375 
Q 23.140625 -1.703125 15.828125 -13.1875 
L 8.015625 -13.1875 
Q 14.5 -2 17.703125 9.0625 
Q 20.90625 20.125 20.90625 31.390625 
Q 20.90625 42.671875 17.703125 53.65625 
Q 14.5 64.65625 8.015625 75.875 
z
" id="DejaVuSans-41"/>
      </defs>
      <use xlink:href="#DejaVuSans-77"/>
      <use x="86.279297" xlink:href="#DejaVuSans-70"/>
      <use x="143.798828" xlink:href="#DejaVuSans-32"/>
      <use x="175.585938" xlink:href="#DejaVuSans-99"/>
      <use x="230.566406" xlink:href="#DejaVuSans-104"/>
      <use x="293.945312" xlink:href="#DejaVuSans-101"/>
      <use x="355.46875" xlink:href="#DejaVuSans-97"/>
      <use x="416.748047" xlink:href="#DejaVuSans-112"/>
      <use x="480.224609" xlink:href="#DejaVuSans-32"/>
      <use x="512.011719" xlink:href="#DejaVuSans-71"/>
      <use x="589.501953" xlink:href="#DejaVuSans-80"/>
      <use x="649.804688" xlink:href="#DejaVuSans-82"/>
      <use x="719.287109" xlink:href="#DejaVuSans-32"/>
      <use x="751.074219" xlink:href="#DejaVuSans-40"/>
      <use x="790.087891" xlink:href="#DejaVuSans-114"/>
      <use x="828.951172" xlink:href="#DejaVuSans-101"/>
      <use x="890.474609" xlink:href="#DejaVuSans-103"/>
      <use x="953.951172" xlink:href="#DejaVuSans-117"/>
      <use x="1017.330078" xlink:href="#DejaVuSans-108"/>
      <use x="1045.113281" xlink:href="#DejaVuSans-97"/>
      <use x="1106.392578" xlink:href="#DejaVuSans-114"/>
      <use x="1147.505859" xlink:href="#DejaVuSans-32"/>
      <use x="1179.292969" xlink:href="#DejaVuSans-71"/>
      <use x="1256.783203" xlink:href="#DejaVuSans-80"/>
      <use x="1317.085938" xlink:href="#DejaVuSans-82"/>
      <use x="1386.568359" xlink:href="#DejaVuSans-41"/>
     </g>
    </g>
    <g id="line2d_39">
     <path d="M 66.6 69.248563 
L 86.6 69.248563 
" style="fill:none;stroke:#ffa500;stroke-linecap:square;stroke-width:1.5;"/>
    </g>
    <g id="line2d_40"/>
    <g id="text_16">
     <!-- MF expensive GPR -->
     <g transform="translate(94.6 72.748563)scale(0.1 -0.1)">
      <defs>
       <path d="M 54.890625 54.6875 
L 35.109375 28.078125 
L 55.90625 0 
L 45.3125 0 
L 29.390625 21.484375 
L 13.484375 0 
L 2.875 0 
L 24.125 28.609375 
L 4.6875 54.6875 
L 15.28125 54.6875 
L 29.78125 35.203125 
L 44.28125 54.6875 
z
" id="DejaVuSans-120"/>
       <path d="M 54.890625 33.015625 
L 54.890625 0 
L 45.90625 0 
L 45.90625 32.71875 
Q 45.90625 40.484375 42.875 44.328125 
Q 39.84375 48.1875 33.796875 48.1875 
Q 26.515625 48.1875 22.3125 43.546875 
Q 18.109375 38.921875 18.109375 30.90625 
L 18.109375 0 
L 9.078125 0 
L 9.078125 54.6875 
L 18.109375 54.6875 
L 18.109375 46.1875 
Q 21.34375 51.125 25.703125 53.5625 
Q 30.078125 56 35.796875 56 
Q 45.21875 56 50.046875 50.171875 
Q 54.890625 44.34375 54.890625 33.015625 
z
" id="DejaVuSans-110"/>
       <path d="M 44.28125 53.078125 
L 44.28125 44.578125 
Q 40.484375 46.53125 36.375 47.5 
Q 32.28125 48.484375 27.875 48.484375 
Q 21.1875 48.484375 17.84375 46.4375 
Q 14.5 44.390625 14.5 40.28125 
Q 14.5 37.15625 16.890625 35.375 
Q 19.28125 33.59375 26.515625 31.984375 
L 29.59375 31.296875 
Q 39.15625 29.25 43.1875 25.515625 
Q 47.21875 21.78125 47.21875 15.09375 
Q 47.21875 7.46875 41.1875 3.015625 
Q 35.15625 -1.421875 24.609375 -1.421875 
Q 20.21875 -1.421875 15.453125 -0.5625 
Q 10.6875 0.296875 5.421875 2 
L 5.421875 11.28125 
Q 10.40625 8.6875 15.234375 7.390625 
Q 20.0625 6.109375 24.8125 6.109375 
Q 31.15625 6.109375 34.5625 8.28125 
Q 37.984375 10.453125 37.984375 14.40625 
Q 37.984375 18.0625 35.515625 20.015625 
Q 33.0625 21.96875 24.703125 23.78125 
L 21.578125 24.515625 
Q 13.234375 26.265625 9.515625 29.90625 
Q 5.8125 33.546875 5.8125 39.890625 
Q 5.8125 47.609375 11.28125 51.796875 
Q 16.75 56 26.8125 56 
Q 31.78125 56 36.171875 55.265625 
Q 40.578125 54.546875 44.28125 53.078125 
z
" id="DejaVuSans-115"/>
       <path d="M 9.421875 54.6875 
L 18.40625 54.6875 
L 18.40625 0 
L 9.421875 0 
z
M 9.421875 75.984375 
L 18.40625 75.984375 
L 18.40625 64.59375 
L 9.421875 64.59375 
z
" id="DejaVuSans-105"/>
       <path d="M 2.984375 54.6875 
L 12.5 54.6875 
L 29.59375 8.796875 
L 46.6875 54.6875 
L 56.203125 54.6875 
L 35.6875 0 
L 23.484375 0 
z
" id="DejaVuSans-118"/>
      </defs>
      <use xlink:href="#DejaVuSans-77"/>
      <use x="86.279297" xlink:href="#DejaVuSans-70"/>
      <use x="143.798828" xlink:href="#DejaVuSans-32"/>
      <use x="175.585938" xlink:href="#DejaVuSans-101"/>
      <use x="235.359375" xlink:href="#DejaVuSans-120"/>
      <use x="294.539062" xlink:href="#DejaVuSans-112"/>
      <use x="358.015625" xlink:href="#DejaVuSans-101"/>
      <use x="419.539062" xlink:href="#DejaVuSans-110"/>
      <use x="482.917969" xlink:href="#DejaVuSans-115"/>
      <use x="535.017578" xlink:href="#DejaVuSans-105"/>
      <use x="562.800781" xlink:href="#DejaVuSans-118"/>
      <use x="621.980469" xlink:href="#DejaVuSans-101"/>
      <use x="683.503906" xlink:href="#DejaVuSans-32"/>
      <use x="715.291016" xlink:href="#DejaVuSans-71"/>
      <use x="792.78125" xlink:href="#DejaVuSans-80"/>
      <use x="853.083984" xlink:href="#DejaVuSans-82"/>
     </g>
    </g>
    <g id="line2d_41">
     <path d="M 66.6 83.926688 
L 86.6 83.926688 
" style="fill:none;stroke:#0000ff;stroke-dasharray:5.55,2.4;stroke-dashoffset:0;stroke-width:1.5;"/>
    </g>
    <g id="line2d_42"/>
    <g id="text_17">
     <!-- Exact cheap function -->
     <g transform="translate(94.6 87.426688)scale(0.1 -0.1)">
      <defs>
       <path d="M 9.8125 72.90625 
L 55.90625 72.90625 
L 55.90625 64.59375 
L 19.671875 64.59375 
L 19.671875 43.015625 
L 54.390625 43.015625 
L 54.390625 34.71875 
L 19.671875 34.71875 
L 19.671875 8.296875 
L 56.78125 8.296875 
L 56.78125 0 
L 9.8125 0 
z
" id="DejaVuSans-69"/>
       <path d="M 18.3125 70.21875 
L 18.3125 54.6875 
L 36.8125 54.6875 
L 36.8125 47.703125 
L 18.3125 47.703125 
L 18.3125 18.015625 
Q 18.3125 11.328125 20.140625 9.421875 
Q 21.96875 7.515625 27.59375 7.515625 
L 36.8125 7.515625 
L 36.8125 0 
L 27.59375 0 
Q 17.1875 0 13.234375 3.875 
Q 9.28125 7.765625 9.28125 18.015625 
L 9.28125 47.703125 
L 2.6875 47.703125 
L 2.6875 54.6875 
L 9.28125 54.6875 
L 9.28125 70.21875 
z
" id="DejaVuSans-116"/>
       <path d="M 37.109375 75.984375 
L 37.109375 68.5 
L 28.515625 68.5 
Q 23.6875 68.5 21.796875 66.546875 
Q 19.921875 64.59375 19.921875 59.515625 
L 19.921875 54.6875 
L 34.71875 54.6875 
L 34.71875 47.703125 
L 19.921875 47.703125 
L 19.921875 0 
L 10.890625 0 
L 10.890625 47.703125 
L 2.296875 47.703125 
L 2.296875 54.6875 
L 10.890625 54.6875 
L 10.890625 58.5 
Q 10.890625 67.625 15.140625 71.796875 
Q 19.390625 75.984375 28.609375 75.984375 
z
" id="DejaVuSans-102"/>
       <path d="M 30.609375 48.390625 
Q 23.390625 48.390625 19.1875 42.75 
Q 14.984375 37.109375 14.984375 27.296875 
Q 14.984375 17.484375 19.15625 11.84375 
Q 23.34375 6.203125 30.609375 6.203125 
Q 37.796875 6.203125 41.984375 11.859375 
Q 46.1875 17.53125 46.1875 27.296875 
Q 46.1875 37.015625 41.984375 42.703125 
Q 37.796875 48.390625 30.609375 48.390625 
z
M 30.609375 56 
Q 42.328125 56 49.015625 48.375 
Q 55.71875 40.765625 55.71875 27.296875 
Q 55.71875 13.875 49.015625 6.21875 
Q 42.328125 -1.421875 30.609375 -1.421875 
Q 18.84375 -1.421875 12.171875 6.21875 
Q 5.515625 13.875 5.515625 27.296875 
Q 5.515625 40.765625 12.171875 48.375 
Q 18.84375 56 30.609375 56 
z
" id="DejaVuSans-111"/>
      </defs>
      <use xlink:href="#DejaVuSans-69"/>
      <use x="63.183594" xlink:href="#DejaVuSans-120"/>
      <use x="122.363281" xlink:href="#DejaVuSans-97"/>
      <use x="183.642578" xlink:href="#DejaVuSans-99"/>
      <use x="238.623047" xlink:href="#DejaVuSans-116"/>
      <use x="277.832031" xlink:href="#DejaVuSans-32"/>
      <use x="309.619141" xlink:href="#DejaVuSans-99"/>
      <use x="364.599609" xlink:href="#DejaVuSans-104"/>
      <use x="427.978516" xlink:href="#DejaVuSans-101"/>
      <use x="489.501953" xlink:href="#DejaVuSans-97"/>
      <use x="550.78125" xlink:href="#DejaVuSans-112"/>
      <use x="614.257812" xlink:href="#DejaVuSans-32"/>
      <use x="646.044922" xlink:href="#DejaVuSans-102"/>
      <use x="681.25" xlink:href="#DejaVuSans-117"/>
      <use x="744.628906" xlink:href="#DejaVuSans-110"/>
      <use x="808.007812" xlink:href="#DejaVuSans-99"/>
      <use x="862.988281" xlink:href="#DejaVuSans-116"/>
      <use x="902.197266" xlink:href="#DejaVuSans-105"/>
      <use x="929.980469" xlink:href="#DejaVuSans-111"/>
      <use x="991.162109" xlink:href="#DejaVuSans-110"/>
     </g>
    </g>
    <g id="line2d_43">
     <path d="M 66.6 98.604813 
L 86.6 98.604813 
" style="fill:none;stroke:#ffa500;stroke-dasharray:5.55,2.4;stroke-dashoffset:0;stroke-width:1.5;"/>
    </g>
    <g id="line2d_44"/>
    <g id="text_18">
     <!-- Exact expensive function -->
     <g transform="translate(94.6 102.104813)scale(0.1 -0.1)">
      <use xlink:href="#DejaVuSans-69"/>
      <use x="63.183594" xlink:href="#DejaVuSans-120"/>
      <use x="122.363281" xlink:href="#DejaVuSans-97"/>
      <use x="183.642578" xlink:href="#DejaVuSans-99"/>
      <use x="238.623047" xlink:href="#DejaVuSans-116"/>
      <use x="277.832031" xlink:href="#DejaVuSans-32"/>
      <use x="309.619141" xlink:href="#DejaVuSans-101"/>
      <use x="369.392578" xlink:href="#DejaVuSans-120"/>
      <use x="428.572266" xlink:href="#DejaVuSans-112"/>
      <use x="492.048828" xlink:href="#DejaVuSans-101"/>
      <use x="553.572266" xlink:href="#DejaVuSans-110"/>
      <use x="616.951172" xlink:href="#DejaVuSans-115"/>
      <use x="669.050781" xlink:href="#DejaVuSans-105"/>
      <use x="696.833984" xlink:href="#DejaVuSans-118"/>
      <use x="756.013672" xlink:href="#DejaVuSans-101"/>
      <use x="817.537109" xlink:href="#DejaVuSans-32"/>
      <use x="849.324219" xlink:href="#DejaVuSans-102"/>
      <use x="884.529297" xlink:href="#DejaVuSans-117"/>
      <use x="947.908203" xlink:href="#DejaVuSans-110"/>
      <use x="1011.287109" xlink:href="#DejaVuSans-99"/>
      <use x="1066.267578" xlink:href="#DejaVuSans-116"/>
      <use x="1105.476562" xlink:href="#DejaVuSans-105"/>
      <use x="1133.259766" xlink:href="#DejaVuSans-111"/>
      <use x="1194.441406" xlink:href="#DejaVuSans-110"/>
     </g>
    </g>
   </g>
  </g>
 </g>
 <defs>
  <clipPath id="pf5d83a570d">
   <rect height="266.112" width="357.12" x="57.6" y="41.472"/>
  </clipPath>
 </defs>
</svg>
